<?xml version="1.0" encoding="UTF-8" standalone="no"?><svg xmlns="http://www.w3.org/2000/svg" xmlns:xlink="http://www.w3.org/1999/xlink" contentScriptType="application/ecmascript" contentStyleType="text/css" height="381px" preserveAspectRatio="none" style="width:1011px;height:381px;" version="1.1" viewBox="0 0 1011 381" width="1011px" zoomAndPan="magnify"><defs><filter height="300%" id="fa5nmmc" width="300%" x="-1" y="-1"><feGaussianBlur result="blurOut" stdDeviation="2.0"/><feColorMatrix in="blurOut" result="blurOut2" type="matrix" values="0 0 0 0 0 0 0 0 0 0 0 0 0 0 0 0 0 0 .4 0"/><feOffset dx="4.0" dy="4.0" in="blurOut2" result="blurOut3"/><feBlend in="SourceGraphic" in2="blurOut3" mode="normal"/></filter></defs><g><text fill="#000000" font-family="sans-serif" font-size="14" font-weight="bold" lengthAdjust="spacingAndGlyphs" textLength="96" x="464.5" y="23.5352">CommentVSS</text><rect fill="#FFFFFF" filter="url(#fa5nmmc)" height="244.4844" style="stroke: #A80036; stroke-width: 1.0;" width="10" x="329" y="126.9766"/><rect fill="#FFFFFF" filter="url(#fa5nmmc)" height="244.4844" style="stroke: #A80036; stroke-width: 1.0;" width="10" x="532" y="126.9766"/><rect fill="#FFFFFF" filter="url(#fa5nmmc)" height="244.4844" style="stroke: #A80036; stroke-width: 1.0;" width="10" x="838" y="126.9766"/><line style="stroke: #A80036; stroke-width: 1.0; stroke-dasharray: 5.0,5.0;" x1="31" x2="31" y1="116.9766" y2="380.4609"/><line style="stroke: #A80036; stroke-width: 1.0; stroke-dasharray: 5.0,5.0;" x1="334" x2="334" y1="116.9766" y2="380.4609"/><line style="stroke: #A80036; stroke-width: 1.0; stroke-dasharray: 5.0,5.0;" x1="536.5" x2="536.5" y1="116.9766" y2="380.4609"/><line style="stroke: #A80036; stroke-width: 1.0; stroke-dasharray: 5.0,5.0;" x1="842.5" x2="842.5" y1="116.9766" y2="380.4609"/><text fill="#000000" font-family="sans-serif" font-size="14" lengthAdjust="spacingAndGlyphs" textLength="40" x="8" y="114.0234">Client</text><ellipse cx="31" cy="43.4883" fill="#FEFECE" filter="url(#fa5nmmc)" rx="8" ry="8" style="stroke: #A80036; stroke-width: 2.0;"/><path d="M31,51.4883 L31,78.4883 M18,59.4883 L44,59.4883 M31,78.4883 L18,93.4883 M31,78.4883 L44,93.4883 " fill="#FEFECE" filter="url(#fa5nmmc)" style="stroke: #A80036; stroke-width: 2.0;"/><rect fill="#FEFECE" filter="url(#fa5nmmc)" height="30.4883" style="stroke: #A80036; stroke-width: 1.5;" width="86" x="289" y="81.4883"/><text fill="#000000" font-family="sans-serif" font-size="14" lengthAdjust="spacingAndGlyphs" textLength="72" x="296" y="102.0234">WebServer</text><rect fill="#FEFECE" filter="url(#fa5nmmc)" height="30.4883" style="stroke: #A80036; stroke-width: 1.5;" width="183" x="443.5" y="81.4883"/><text fill="#000000" font-family="sans-serif" font-size="14" lengthAdjust="spacingAndGlyphs" textLength="169" x="450.5" y="102.0234">VSSInformationDatabase</text><rect fill="#FEFECE" filter="url(#fa5nmmc)" height="30.4883" style="stroke: #A80036; stroke-width: 1.5;" width="169" x="756.5" y="81.4883"/><text fill="#000000" font-family="sans-serif" font-size="14" lengthAdjust="spacingAndGlyphs" textLength="155" x="763.5" y="102.0234">VSSCommentDatabase</text><rect fill="#FFFFFF" filter="url(#fa5nmmc)" height="244.4844" style="stroke: #A80036; stroke-width: 1.0;" width="10" x="329" y="126.9766"/><rect fill="#FFFFFF" filter="url(#fa5nmmc)" height="244.4844" style="stroke: #A80036; stroke-width: 1.0;" width="10" x="532" y="126.9766"/><rect fill="#FFFFFF" filter="url(#fa5nmmc)" height="244.4844" style="stroke: #A80036; stroke-width: 1.0;" width="10" x="838" y="126.9766"/><polygon fill="#A80036" points="317,143.9766,327,147.9766,317,151.9766,321,147.9766" style="stroke: #A80036; stroke-width: 1.0;"/><line style="stroke: #A80036; stroke-width: 1.0;" x1="31" x2="323" y1="147.9766" y2="147.9766"/><text fill="#000000" font-family="sans-serif" font-size="13" lengthAdjust="spacingAndGlyphs" textLength="274" x="38" y="143.5449">CommentRequest(UserID, VSSID, Comment)</text><polygon fill="#A80036" points="826,173.2871,836,177.2871,826,181.2871,830,177.2871" style="stroke: #A80036; stroke-width: 1.0;"/><line style="stroke: #A80036; stroke-width: 1.0;" x1="339" x2="832" y1="177.2871" y2="177.2871"/><text fill="#000000" font-family="sans-serif" font-size="13" lengthAdjust="spacingAndGlyphs" textLength="61" x="346" y="172.8555">Comment</text><line style="stroke: #A80036; stroke-width: 1.0;" x1="848" x2="890" y1="213.0635" y2="213.0635"/><line style="stroke: #A80036; stroke-width: 1.0;" x1="890" x2="890" y1="213.0635" y2="226.0635"/><line style="stroke: #A80036; stroke-width: 1.0;" x1="849" x2="890" y1="226.0635" y2="226.0635"/><polygon fill="#A80036" points="859,222.0635,849,226.0635,859,230.0635,855,226.0635" style="stroke: #A80036; stroke-width: 1.0;"/><text fill="#000000" font-family="sans-serif" font-size="13" lengthAdjust="spacingAndGlyphs" textLength="155" x="855" y="208.3213">AddComment(Comment)</text><polygon fill="#FBFB77" filter="url(#fa5nmmc)" points="615,190.5977,615,230.5977,829,230.5977,829,200.5977,819,190.5977,615,190.5977" style="stroke: #A80036; stroke-width: 1.0;"/><line style="stroke: #A80036; stroke-width: 1.0;" x1="819" x2="819" y1="190.5977" y2="200.5977"/><line style="stroke: #A80036; stroke-width: 1.0;" x1="829" x2="819" y1="200.5977" y2="200.5977"/><text fill="#000000" font-family="sans-serif" font-size="13" lengthAdjust="spacingAndGlyphs" textLength="193" x="621" y="208.166">将评论添加到Comment_Table中</text><text fill="#000000" font-family="sans-serif" font-size="13" lengthAdjust="spacingAndGlyphs" textLength="157" x="621" y="223.4766">并返回该评论在此表中的ID</text><polygon fill="#A80036" points="350,257.2188,340,261.2188,350,265.2188,346,261.2188" style="stroke: #A80036; stroke-width: 1.0;"/><line style="stroke: #A80036; stroke-width: 1.0;" x1="344" x2="837" y1="261.2188" y2="261.2188"/><text fill="#000000" font-family="sans-serif" font-size="13" lengthAdjust="spacingAndGlyphs" textLength="75" x="356" y="256.7871">CommentID</text><polygon fill="#A80036" points="520,286.5293,530,290.5293,520,294.5293,524,290.5293" style="stroke: #A80036; stroke-width: 1.0;"/><line style="stroke: #A80036; stroke-width: 1.0;" x1="339" x2="526" y1="290.5293" y2="290.5293"/><text fill="#000000" font-family="sans-serif" font-size="13" lengthAdjust="spacingAndGlyphs" textLength="169" x="346" y="286.0977">CommentID, UserID, VSSID</text><line style="stroke: #A80036; stroke-width: 1.0;" x1="542" x2="584" y1="320.1504" y2="320.1504"/><line style="stroke: #A80036; stroke-width: 1.0;" x1="584" x2="584" y1="320.1504" y2="333.1504"/><line style="stroke: #A80036; stroke-width: 1.0;" x1="543" x2="584" y1="333.1504" y2="333.1504"/><polygon fill="#A80036" points="553,329.1504,543,333.1504,553,337.1504,549,333.1504" style="stroke: #A80036; stroke-width: 1.0;"/><text fill="#000000" font-family="sans-serif" font-size="13" lengthAdjust="spacingAndGlyphs" textLength="282" x="549" y="315.4082">UpdateComment(CommentID, UserID, VSSID)</text><polygon fill="#FBFB77" filter="url(#fa5nmmc)" points="60,305.3398,60,330.3398,523,330.3398,523,315.3398,513,305.3398,60,305.3398" style="stroke: #A80036; stroke-width: 1.0;"/><line style="stroke: #A80036; stroke-width: 1.0;" x1="513" x2="513" y1="305.3398" y2="315.3398"/><line style="stroke: #A80036; stroke-width: 1.0;" x1="523" x2="513" y1="315.3398" y2="315.3398"/><text fill="#000000" font-family="sans-serif" font-size="13" lengthAdjust="spacingAndGlyphs" textLength="442" x="66" y="322.9082">将评论ID，用户ID和VSSID构成的关系键值对存入VSS_Comment_Table表中</text><polygon fill="#A80036" points="42,358.1504,32,362.1504,42,366.1504,38,362.1504" style="stroke: #A80036; stroke-width: 1.0;"/><line style="stroke: #A80036; stroke-width: 1.0;" x1="36" x2="328" y1="362.1504" y2="362.1504"/><text fill="#000000" font-family="sans-serif" font-size="13" lengthAdjust="spacingAndGlyphs" textLength="60" x="48" y="357.7188">Response</text></g></svg>