<?xml version="1.0" encoding="UTF-8" standalone="no"?><svg xmlns="http://www.w3.org/2000/svg" xmlns:xlink="http://www.w3.org/1999/xlink" contentScriptType="application/ecmascript" contentStyleType="text/css" height="417px" preserveAspectRatio="none" style="width:693px;height:417px;" version="1.1" viewBox="0 0 693 417" width="693px" zoomAndPan="magnify"><defs><filter height="300%" id="fwybo97" width="300%" x="-1" y="-1"><feGaussianBlur result="blurOut" stdDeviation="2.0"/><feColorMatrix in="blurOut" result="blurOut2" type="matrix" values="0 0 0 0 0 0 0 0 0 0 0 0 0 0 0 0 0 0 .4 0"/><feOffset dx="4.0" dy="4.0" in="blurOut2" result="blurOut3"/><feBlend in="SourceGraphic" in2="blurOut3" mode="normal"/></filter></defs><g><text fill="#000000" font-family="sans-serif" font-size="14" font-weight="bold" lengthAdjust="spacingAndGlyphs" textLength="98" x="299" y="23.5352">DownloadVSS</text><rect fill="#FFFFFF" filter="url(#fwybo97)" height="280.7949" style="stroke: #A80036; stroke-width: 1.0;" width="10" x="222" y="126.9766"/><rect fill="#FFFFFF" filter="url(#fwybo97)" height="280.7949" style="stroke: #A80036; stroke-width: 1.0;" width="10" x="370.5" y="126.9766"/><rect fill="#FFFFFF" filter="url(#fwybo97)" height="280.7949" style="stroke: #A80036; stroke-width: 1.0;" width="10" x="517.5" y="126.9766"/><line style="stroke: #A80036; stroke-width: 1.0; stroke-dasharray: 5.0,5.0;" x1="41" x2="41" y1="116.9766" y2="416.7715"/><line style="stroke: #A80036; stroke-width: 1.0; stroke-dasharray: 5.0,5.0;" x1="227" x2="227" y1="116.9766" y2="416.7715"/><line style="stroke: #A80036; stroke-width: 1.0; stroke-dasharray: 5.0,5.0;" x1="375" x2="375" y1="116.9766" y2="416.7715"/><line style="stroke: #A80036; stroke-width: 1.0; stroke-dasharray: 5.0,5.0;" x1="522" x2="522" y1="116.9766" y2="416.7715"/><text fill="#000000" font-family="sans-serif" font-size="14" lengthAdjust="spacingAndGlyphs" textLength="40" x="18" y="114.0234">Client</text><ellipse cx="41" cy="43.4883" fill="#FEFECE" filter="url(#fwybo97)" rx="8" ry="8" style="stroke: #A80036; stroke-width: 2.0;"/><path d="M41,51.4883 L41,78.4883 M28,59.4883 L54,59.4883 M41,78.4883 L28,93.4883 M41,78.4883 L54,93.4883 " fill="#FEFECE" filter="url(#fwybo97)" style="stroke: #A80036; stroke-width: 2.0;"/><rect fill="#FEFECE" filter="url(#fwybo97)" height="30.4883" style="stroke: #A80036; stroke-width: 1.5;" width="86" x="182" y="81.4883"/><text fill="#000000" font-family="sans-serif" font-size="14" lengthAdjust="spacingAndGlyphs" textLength="72" x="189" y="102.0234">WebServer</text><rect fill="#FEFECE" filter="url(#fwybo97)" height="30.4883" style="stroke: #A80036; stroke-width: 1.5;" width="183" x="282" y="81.4883"/><text fill="#000000" font-family="sans-serif" font-size="14" lengthAdjust="spacingAndGlyphs" textLength="169" x="289" y="102.0234">VSSInformationDatabase</text><rect fill="#FEFECE" filter="url(#fwybo97)" height="30.4883" style="stroke: #A80036; stroke-width: 1.5;" width="83" x="479" y="81.4883"/><text fill="#000000" font-family="sans-serif" font-size="14" lengthAdjust="spacingAndGlyphs" textLength="69" x="486" y="102.0234">VSSFolder</text><rect fill="#FFFFFF" filter="url(#fwybo97)" height="280.7949" style="stroke: #A80036; stroke-width: 1.0;" width="10" x="222" y="126.9766"/><rect fill="#FFFFFF" filter="url(#fwybo97)" height="280.7949" style="stroke: #A80036; stroke-width: 1.0;" width="10" x="370.5" y="126.9766"/><rect fill="#FFFFFF" filter="url(#fwybo97)" height="280.7949" style="stroke: #A80036; stroke-width: 1.0;" width="10" x="517.5" y="126.9766"/><polygon fill="#A80036" points="210,143.9766,220,147.9766,210,151.9766,214,147.9766" style="stroke: #A80036; stroke-width: 1.0;"/><line style="stroke: #A80036; stroke-width: 1.0;" x1="41" x2="216" y1="147.9766" y2="147.9766"/><text fill="#000000" font-family="sans-serif" font-size="13" lengthAdjust="spacingAndGlyphs" textLength="157" x="48" y="143.5449">DownloadRequest(VSSID)</text><polygon fill="#A80036" points="358.5,173.2871,368.5,177.2871,358.5,181.2871,362.5,177.2871" style="stroke: #A80036; stroke-width: 1.0;"/><line style="stroke: #A80036; stroke-width: 1.0;" x1="232" x2="364.5" y1="177.2871" y2="177.2871"/><text fill="#000000" font-family="sans-serif" font-size="13" lengthAdjust="spacingAndGlyphs" textLength="36" x="239" y="172.8555">VSSID</text><line style="stroke: #A80036; stroke-width: 1.0;" x1="380.5" x2="422.5" y1="213.0635" y2="213.0635"/><line style="stroke: #A80036; stroke-width: 1.0;" x1="422.5" x2="422.5" y1="213.0635" y2="226.0635"/><line style="stroke: #A80036; stroke-width: 1.0;" x1="381.5" x2="422.5" y1="226.0635" y2="226.0635"/><polygon fill="#A80036" points="391.5,222.0635,381.5,226.0635,391.5,230.0635,387.5,226.0635" style="stroke: #A80036; stroke-width: 1.0;"/><text fill="#000000" font-family="sans-serif" font-size="13" lengthAdjust="spacingAndGlyphs" textLength="116" x="387.5" y="208.3213">GetAddress(VSSID)</text><polygon fill="#FBFB77" filter="url(#fwybo97)" points="8,190.5977,8,230.5977,362,230.5977,362,200.5977,352,190.5977,8,190.5977" style="stroke: #A80036; stroke-width: 1.0;"/><line style="stroke: #A80036; stroke-width: 1.0;" x1="352" x2="352" y1="190.5977" y2="200.5977"/><line style="stroke: #A80036; stroke-width: 1.0;" x1="362" x2="352" y1="200.5977" y2="200.5977"/><text fill="#000000" font-family="sans-serif" font-size="13" lengthAdjust="spacingAndGlyphs" textLength="333" x="14" y="208.166">根据VSSID在VSS_Table中查询出其存储路径并返回该路径</text><text fill="#000000" font-family="sans-serif" font-size="13" lengthAdjust="spacingAndGlyphs" textLength="292" x="14" y="223.4766">注：此路径包含文件名，文件名前缀即为VSSName</text><polygon fill="#A80036" points="243,257.2188,233,261.2188,243,265.2188,239,261.2188" style="stroke: #A80036; stroke-width: 1.0;"/><line style="stroke: #A80036; stroke-width: 1.0;" x1="237" x2="369.5" y1="261.2188" y2="261.2188"/><text fill="#000000" font-family="sans-serif" font-size="13" lengthAdjust="spacingAndGlyphs" textLength="27" x="249" y="256.7871">Path</text><polygon fill="#A80036" points="505.5,291.5293,515.5,295.5293,505.5,299.5293,509.5,295.5293" style="stroke: #A80036; stroke-width: 1.0;"/><line style="stroke: #A80036; stroke-width: 1.0;" x1="232" x2="511.5" y1="295.5293" y2="295.5293"/><text fill="#000000" font-family="sans-serif" font-size="13" lengthAdjust="spacingAndGlyphs" textLength="78" x="239" y="291.0977">GetVSS(Path)</text><polygon fill="#FBFB77" filter="url(#fwybo97)" points="14,274.5293,14,299.5293,213,299.5293,213,284.5293,203,274.5293,14,274.5293" style="stroke: #A80036; stroke-width: 1.0;"/><line style="stroke: #A80036; stroke-width: 1.0;" x1="203" x2="203" y1="274.5293" y2="284.5293"/><line style="stroke: #A80036; stroke-width: 1.0;" x1="213" x2="203" y1="284.5293" y2="284.5293"/><text fill="#000000" font-family="sans-serif" font-size="13" lengthAdjust="spacingAndGlyphs" textLength="178" x="20" y="292.0977">根据该路径找到对应的VSS文件</text><polygon fill="#A80036" points="243,325.8398,233,329.8398,243,333.8398,239,329.8398" style="stroke: #A80036; stroke-width: 1.0;"/><line style="stroke: #A80036; stroke-width: 1.0;" x1="237" x2="516.5" y1="329.8398" y2="329.8398"/><text fill="#000000" font-family="sans-serif" font-size="13" lengthAdjust="spacingAndGlyphs" textLength="62" x="249" y="325.4082">TargetVSS</text><polygon fill="#A80036" points="52,360.1504,42,364.1504,52,368.1504,48,364.1504" style="stroke: #A80036; stroke-width: 1.0;"/><line style="stroke: #A80036; stroke-width: 1.0;" x1="46" x2="221" y1="364.1504" y2="364.1504"/><text fill="#000000" font-family="sans-serif" font-size="13" lengthAdjust="spacingAndGlyphs" textLength="60" x="58" y="359.7188">Response</text><polygon fill="#FBFB77" filter="url(#fwybo97)" points="237,343.1504,237,368.1504,684,368.1504,684,353.1504,674,343.1504,237,343.1504" style="stroke: #A80036; stroke-width: 1.0;"/><line style="stroke: #A80036; stroke-width: 1.0;" x1="674" x2="674" y1="343.1504" y2="353.1504"/><line style="stroke: #A80036; stroke-width: 1.0;" x1="684" x2="674" y1="353.1504" y2="353.1504"/><text fill="#000000" font-family="sans-serif" font-size="13" lengthAdjust="spacingAndGlyphs" textLength="426" x="243" y="360.7188">Response为一信号，客户端可根据得到此信号的时间来进行TimeOut判定</text><polygon fill="#A80036" points="52,394.4609,42,398.4609,52,402.4609,48,398.4609" style="stroke: #A80036; stroke-width: 1.0;"/><line style="stroke: #A80036; stroke-width: 1.0;" x1="46" x2="221" y1="398.4609" y2="398.4609"/><text fill="#000000" font-family="sans-serif" font-size="13" lengthAdjust="spacingAndGlyphs" textLength="62" x="58" y="394.0293">TargetVSS</text></g></svg>