<?xml version="1.0" encoding="UTF-8" standalone="no"?><svg xmlns="http://www.w3.org/2000/svg" xmlns:xlink="http://www.w3.org/1999/xlink" contentScriptType="application/ecmascript" contentStyleType="text/css" height="426px" preserveAspectRatio="none" style="width:701px;height:426px;" version="1.1" viewBox="0 0 701 426" width="701px" zoomAndPan="magnify"><defs><filter height="300%" id="f48sxvm" width="300%" x="-1" y="-1"><feGaussianBlur result="blurOut" stdDeviation="2.0"/><feColorMatrix in="blurOut" result="blurOut2" type="matrix" values="0 0 0 0 0 0 0 0 0 0 0 0 0 0 0 0 0 0 .4 0"/><feOffset dx="4.0" dy="4.0" in="blurOut2" result="blurOut3"/><feBlend in="SourceGraphic" in2="blurOut3" mode="normal"/></filter></defs><g><text fill="#000000" font-family="sans-serif" font-size="14" font-weight="bold" lengthAdjust="spacingAndGlyphs" textLength="56" x="329.75" y="23.5352">LikeVSS</text><rect fill="#FFFFFF" filter="url(#f48sxvm)" height="289.1055" style="stroke: #A80036; stroke-width: 1.0;" width="10" x="225" y="126.9766"/><rect fill="#FFFFFF" filter="url(#f48sxvm)" height="289.1055" style="stroke: #A80036; stroke-width: 1.0;" width="10" x="373.5" y="126.9766"/><rect fill="#FFFFFF" filter="url(#f48sxvm)" height="289.1055" style="stroke: #A80036; stroke-width: 1.0;" width="10" x="561.5" y="126.9766"/><line style="stroke: #A80036; stroke-width: 1.0; stroke-dasharray: 5.0,5.0;" x1="31" x2="31" y1="116.9766" y2="425.082"/><line style="stroke: #A80036; stroke-width: 1.0; stroke-dasharray: 5.0,5.0;" x1="230" x2="230" y1="116.9766" y2="425.082"/><line style="stroke: #A80036; stroke-width: 1.0; stroke-dasharray: 5.0,5.0;" x1="378" x2="378" y1="116.9766" y2="425.082"/><line style="stroke: #A80036; stroke-width: 1.0; stroke-dasharray: 5.0,5.0;" x1="566.5" x2="566.5" y1="116.9766" y2="425.082"/><text fill="#000000" font-family="sans-serif" font-size="14" lengthAdjust="spacingAndGlyphs" textLength="40" x="8" y="114.0234">Client</text><ellipse cx="31" cy="43.4883" fill="#FEFECE" filter="url(#f48sxvm)" rx="8" ry="8" style="stroke: #A80036; stroke-width: 2.0;"/><path d="M31,51.4883 L31,78.4883 M18,59.4883 L44,59.4883 M31,78.4883 L18,93.4883 M31,78.4883 L44,93.4883 " fill="#FEFECE" filter="url(#f48sxvm)" style="stroke: #A80036; stroke-width: 2.0;"/><rect fill="#FEFECE" filter="url(#f48sxvm)" height="30.4883" style="stroke: #A80036; stroke-width: 1.5;" width="86" x="185" y="81.4883"/><text fill="#000000" font-family="sans-serif" font-size="14" lengthAdjust="spacingAndGlyphs" textLength="72" x="192" y="102.0234">WebServer</text><rect fill="#FEFECE" filter="url(#f48sxvm)" height="30.4883" style="stroke: #A80036; stroke-width: 1.5;" width="183" x="285" y="81.4883"/><text fill="#000000" font-family="sans-serif" font-size="14" lengthAdjust="spacingAndGlyphs" textLength="169" x="292" y="102.0234">VSSInformationDatabase</text><rect fill="#FEFECE" filter="url(#f48sxvm)" height="30.4883" style="stroke: #A80036; stroke-width: 1.5;" width="108" x="510.5" y="81.4883"/><text fill="#000000" font-family="sans-serif" font-size="14" lengthAdjust="spacingAndGlyphs" textLength="94" x="517.5" y="102.0234">UserDatabase</text><rect fill="#FFFFFF" filter="url(#f48sxvm)" height="289.1055" style="stroke: #A80036; stroke-width: 1.0;" width="10" x="225" y="126.9766"/><rect fill="#FFFFFF" filter="url(#f48sxvm)" height="289.1055" style="stroke: #A80036; stroke-width: 1.0;" width="10" x="373.5" y="126.9766"/><rect fill="#FFFFFF" filter="url(#f48sxvm)" height="289.1055" style="stroke: #A80036; stroke-width: 1.0;" width="10" x="561.5" y="126.9766"/><polygon fill="#A80036" points="213,143.9766,223,147.9766,213,151.9766,217,147.9766" style="stroke: #A80036; stroke-width: 1.0;"/><line style="stroke: #A80036; stroke-width: 1.0;" x1="31" x2="219" y1="147.9766" y2="147.9766"/><text fill="#000000" font-family="sans-serif" font-size="13" lengthAdjust="spacingAndGlyphs" textLength="170" x="38" y="143.5449">LikeRequest(VSSID, UserID)</text><polygon fill="#A80036" points="361.5,173.2871,371.5,177.2871,361.5,181.2871,365.5,177.2871" style="stroke: #A80036; stroke-width: 1.0;"/><line style="stroke: #A80036; stroke-width: 1.0;" x1="235" x2="367.5" y1="177.2871" y2="177.2871"/><text fill="#000000" font-family="sans-serif" font-size="13" lengthAdjust="spacingAndGlyphs" textLength="86" x="242" y="172.8555">VSSID, UserID</text><line style="stroke: #A80036; stroke-width: 1.0;" x1="383.5" x2="425.5" y1="206.9082" y2="206.9082"/><line style="stroke: #A80036; stroke-width: 1.0;" x1="425.5" x2="425.5" y1="206.9082" y2="219.9082"/><line style="stroke: #A80036; stroke-width: 1.0;" x1="384.5" x2="425.5" y1="219.9082" y2="219.9082"/><polygon fill="#A80036" points="394.5,215.9082,384.5,219.9082,394.5,223.9082,390.5,219.9082" style="stroke: #A80036; stroke-width: 1.0;"/><text fill="#000000" font-family="sans-serif" font-size="13" lengthAdjust="spacingAndGlyphs" textLength="164" x="390.5" y="202.166">UpdateLike(VSSID, UserID)</text><polygon fill="#FBFB77" filter="url(#f48sxvm)" points="26,192.0977,26,217.0977,364,217.0977,364,202.0977,354,192.0977,26,192.0977" style="stroke: #A80036; stroke-width: 1.0;"/><line style="stroke: #A80036; stroke-width: 1.0;" x1="354" x2="354" y1="192.0977" y2="202.0977"/><line style="stroke: #A80036; stroke-width: 1.0;" x1="364" x2="354" y1="202.0977" y2="202.0977"/><text fill="#000000" font-family="sans-serif" font-size="13" lengthAdjust="spacingAndGlyphs" textLength="317" x="32" y="209.666">将VSSID和UserID构成的键值对存入VSS_Like_Table中</text><polygon fill="#A80036" points="246,244.9082,236,248.9082,246,252.9082,242,248.9082" style="stroke: #A80036; stroke-width: 1.0;"/><line style="stroke: #A80036; stroke-width: 1.0;" x1="240" x2="372.5" y1="248.9082" y2="248.9082"/><text fill="#000000" font-family="sans-serif" font-size="13" lengthAdjust="spacingAndGlyphs" textLength="65" x="252" y="244.4766">UserIDList</text><polygon fill="#A80036" points="549.5,274.2188,559.5,278.2188,549.5,282.2188,553.5,278.2188" style="stroke: #A80036; stroke-width: 1.0;"/><line style="stroke: #A80036; stroke-width: 1.0;" x1="235" x2="555.5" y1="278.2188" y2="278.2188"/><text fill="#000000" font-family="sans-serif" font-size="13" lengthAdjust="spacingAndGlyphs" textLength="65" x="242" y="273.7871">UserIDList</text><line style="stroke: #A80036; stroke-width: 1.0;" x1="571.5" x2="613.5" y1="321.6504" y2="321.6504"/><line style="stroke: #A80036; stroke-width: 1.0;" x1="613.5" x2="613.5" y1="321.6504" y2="334.6504"/><line style="stroke: #A80036; stroke-width: 1.0;" x1="572.5" x2="613.5" y1="334.6504" y2="334.6504"/><polygon fill="#A80036" points="582.5,330.6504,572.5,334.6504,582.5,338.6504,578.5,334.6504" style="stroke: #A80036; stroke-width: 1.0;"/><text fill="#000000" font-family="sans-serif" font-size="13" lengthAdjust="spacingAndGlyphs" textLength="122" x="578.5" y="316.9082">GetUser(UserIDList)</text><polygon fill="#FBFB77" filter="url(#f48sxvm)" points="268,291.5293,268,346.5293,552,346.5293,552,301.5293,542,291.5293,268,291.5293" style="stroke: #A80036; stroke-width: 1.0;"/><line style="stroke: #A80036; stroke-width: 1.0;" x1="542" x2="542" y1="291.5293" y2="301.5293"/><line style="stroke: #A80036; stroke-width: 1.0;" x1="552" x2="542" y1="301.5293" y2="301.5293"/><text fill="#000000" font-family="sans-serif" font-size="13" lengthAdjust="spacingAndGlyphs" textLength="263" x="274" y="309.0977">根据传入的UserIDList中的UserID进行查询，</text><text fill="#000000" font-family="sans-serif" font-size="13" lengthAdjust="spacingAndGlyphs" textLength="250" x="274" y="324.4082">得到对应的User的信息（昵称，ID等）并将</text><text fill="#000000" font-family="sans-serif" font-size="13" lengthAdjust="spacingAndGlyphs" textLength="166" x="274" y="339.7188">这些信息制作成List返还出来</text><polygon fill="#A80036" points="246,373.4609,236,377.4609,246,381.4609,242,377.4609" style="stroke: #A80036; stroke-width: 1.0;"/><line style="stroke: #A80036; stroke-width: 1.0;" x1="240" x2="560.5" y1="377.4609" y2="377.4609"/><text fill="#000000" font-family="sans-serif" font-size="13" lengthAdjust="spacingAndGlyphs" textLength="51" x="252" y="373.0293">UserList</text><polygon fill="#A80036" points="42,402.7715,32,406.7715,42,410.7715,38,406.7715" style="stroke: #A80036; stroke-width: 1.0;"/><line style="stroke: #A80036; stroke-width: 1.0;" x1="36" x2="224" y1="406.7715" y2="406.7715"/><text fill="#000000" font-family="sans-serif" font-size="13" lengthAdjust="spacingAndGlyphs" textLength="51" x="48" y="402.3398">UserList</text></g></svg>