<?xml version="1.0" encoding="UTF-8" standalone="no"?><svg xmlns="http://www.w3.org/2000/svg" xmlns:xlink="http://www.w3.org/1999/xlink" contentScriptType="application/ecmascript" contentStyleType="text/css" height="585px" preserveAspectRatio="none" style="width:833px;height:585px;" version="1.1" viewBox="0 0 833 585" width="833px" zoomAndPan="magnify"><defs><filter height="300%" id="f8u2ipz" width="300%" x="-1" y="-1"><feGaussianBlur result="blurOut" stdDeviation="2.0"/><feColorMatrix in="blurOut" result="blurOut2" type="matrix" values="0 0 0 0 0 0 0 0 0 0 0 0 0 0 0 0 0 0 .4 0"/><feOffset dx="4.0" dy="4.0" in="blurOut2" result="blurOut3"/><feBlend in="SourceGraphic" in2="blurOut3" mode="normal"/></filter></defs><g><text fill="#000000" font-family="sans-serif" font-size="14" font-weight="bold" lengthAdjust="spacingAndGlyphs" textLength="40" x="398.75" y="23.5352">Login</text><rect fill="#FFFFFF" filter="url(#f8u2ipz)" height="448.2344" style="stroke: #A80036; stroke-width: 1.0;" width="10" x="369" y="126.9766"/><rect fill="#FFFFFF" filter="url(#f8u2ipz)" height="448.2344" style="stroke: #A80036; stroke-width: 1.0;" width="10" x="513" y="126.9766"/><rect fill="#FFFFFF" filter="url(#f8u2ipz)" height="448.2344" style="stroke: #A80036; stroke-width: 1.0;" width="10" x="716" y="126.9766"/><rect fill="#FFFFFF" filter="url(#f8u2ipz)" height="289.3711" style="stroke: #000000; stroke-width: 2.0;" width="811.5" x="13" y="277.8398"/><rect fill="#FFFFFF" height="73.5762" style="stroke: none; stroke-width: 1.0;" width="811.5" x="13" y="493.6348"/><line style="stroke: #A80036; stroke-width: 1.0; stroke-dasharray: 5.0,5.0;" x1="150" x2="150" y1="116.9766" y2="584.2109"/><line style="stroke: #A80036; stroke-width: 1.0; stroke-dasharray: 5.0,5.0;" x1="374" x2="374" y1="116.9766" y2="584.2109"/><line style="stroke: #A80036; stroke-width: 1.0; stroke-dasharray: 5.0,5.0;" x1="518" x2="518" y1="116.9766" y2="584.2109"/><line style="stroke: #A80036; stroke-width: 1.0; stroke-dasharray: 5.0,5.0;" x1="720.5" x2="720.5" y1="116.9766" y2="584.2109"/><text fill="#000000" font-family="sans-serif" font-size="14" lengthAdjust="spacingAndGlyphs" textLength="40" x="127" y="114.0234">Client</text><ellipse cx="150" cy="43.4883" fill="#FEFECE" filter="url(#f8u2ipz)" rx="8" ry="8" style="stroke: #A80036; stroke-width: 2.0;"/><path d="M150,51.4883 L150,78.4883 M137,59.4883 L163,59.4883 M150,78.4883 L137,93.4883 M150,78.4883 L163,93.4883 " fill="#FEFECE" filter="url(#f8u2ipz)" style="stroke: #A80036; stroke-width: 2.0;"/><rect fill="#FEFECE" filter="url(#f8u2ipz)" height="30.4883" style="stroke: #A80036; stroke-width: 1.5;" width="86" x="329" y="81.4883"/><text fill="#000000" font-family="sans-serif" font-size="14" lengthAdjust="spacingAndGlyphs" textLength="72" x="336" y="102.0234">WebServer</text><rect fill="#FEFECE" filter="url(#f8u2ipz)" height="30.4883" style="stroke: #A80036; stroke-width: 1.5;" width="108" x="462" y="81.4883"/><text fill="#000000" font-family="sans-serif" font-size="14" lengthAdjust="spacingAndGlyphs" textLength="94" x="469" y="102.0234">UserDatabase</text><rect fill="#FEFECE" filter="url(#f8u2ipz)" height="30.4883" style="stroke: #A80036; stroke-width: 1.5;" width="183" x="627.5" y="81.4883"/><text fill="#000000" font-family="sans-serif" font-size="14" lengthAdjust="spacingAndGlyphs" textLength="169" x="634.5" y="102.0234">VSSInformationDatabase</text><rect fill="#FFFFFF" filter="url(#f8u2ipz)" height="448.2344" style="stroke: #A80036; stroke-width: 1.0;" width="10" x="369" y="126.9766"/><rect fill="#FFFFFF" filter="url(#f8u2ipz)" height="448.2344" style="stroke: #A80036; stroke-width: 1.0;" width="10" x="513" y="126.9766"/><rect fill="#FFFFFF" filter="url(#f8u2ipz)" height="448.2344" style="stroke: #A80036; stroke-width: 1.0;" width="10" x="716" y="126.9766"/><polygon fill="#A80036" points="357,143.9766,367,147.9766,357,151.9766,361,147.9766" style="stroke: #A80036; stroke-width: 1.0;"/><line style="stroke: #A80036; stroke-width: 1.0;" x1="150" x2="363" y1="147.9766" y2="147.9766"/><text fill="#000000" font-family="sans-serif" font-size="13" lengthAdjust="spacingAndGlyphs" textLength="195" x="157" y="143.5449">LoginRequest(UserInformation)</text><polygon fill="#A80036" points="501,173.2871,511,177.2871,501,181.2871,505,177.2871" style="stroke: #A80036; stroke-width: 1.0;"/><line style="stroke: #A80036; stroke-width: 1.0;" x1="379" x2="507" y1="177.2871" y2="177.2871"/><text fill="#000000" font-family="sans-serif" font-size="13" lengthAdjust="spacingAndGlyphs" textLength="102" x="386" y="172.8555">UserInformation</text><line style="stroke: #A80036; stroke-width: 1.0;" x1="523" x2="565" y1="228.374" y2="228.374"/><line style="stroke: #A80036; stroke-width: 1.0;" x1="565" x2="565" y1="228.374" y2="241.374"/><line style="stroke: #A80036; stroke-width: 1.0;" x1="524" x2="565" y1="241.374" y2="241.374"/><polygon fill="#A80036" points="534,237.374,524,241.374,534,245.374,530,241.374" style="stroke: #A80036; stroke-width: 1.0;"/><text fill="#000000" font-family="sans-serif" font-size="13" lengthAdjust="spacingAndGlyphs" textLength="179" x="530" y="223.6318">SearchUser(UserInformation)</text><polygon fill="#FBFB77" filter="url(#f8u2ipz)" points="241,190.5977,241,261.5977,504,261.5977,504,200.5977,494,190.5977,241,190.5977" style="stroke: #A80036; stroke-width: 1.0;"/><line style="stroke: #A80036; stroke-width: 1.0;" x1="494" x2="494" y1="190.5977" y2="200.5977"/><line style="stroke: #A80036; stroke-width: 1.0;" x1="504" x2="494" y1="200.5977" y2="200.5977"/><text fill="#000000" font-family="sans-serif" font-size="13" lengthAdjust="spacingAndGlyphs" textLength="229" x="247" y="208.166">根据登陆信息在User_Table中进行查询,</text><text fill="#000000" font-family="sans-serif" font-size="13" lengthAdjust="spacingAndGlyphs" textLength="237" x="247" y="223.4766">如用户名不存在则返回-1，如用户名存在</text><text fill="#000000" font-family="sans-serif" font-size="13" lengthAdjust="spacingAndGlyphs" textLength="242" x="247" y="238.7871">但是密码不匹配则返回0，如果用户名存在</text><text fill="#000000" font-family="sans-serif" font-size="13" lengthAdjust="spacingAndGlyphs" textLength="112" x="247" y="254.0977">且密码匹配则返回1</text><rect fill="none" height="289.3711" style="stroke: #000000; stroke-width: 2.0;" width="811.5" x="13" y="277.8398"/><polygon fill="#EEEEEE" points="13,277.8398,75,277.8398,75,284.8398,65,294.8398,13,294.8398,13,277.8398" style="stroke: #000000; stroke-width: 2.0;"/><text fill="#000000" font-family="sans-serif" font-size="13" font-weight="bold" lengthAdjust="spacingAndGlyphs" textLength="17" x="28" y="291.4082">alt</text><text fill="#000000" font-family="sans-serif" font-size="11" font-weight="bold" lengthAdjust="spacingAndGlyphs" textLength="35" x="90" y="290.4746">[Exist]</text><polygon fill="#A80036" points="390,332.4609,380,336.4609,390,340.4609,386,336.4609" style="stroke: #A80036; stroke-width: 1.0;"/><line style="stroke: #A80036; stroke-width: 1.0;" x1="384" x2="512" y1="336.4609" y2="336.4609"/><text fill="#000000" font-family="sans-serif" font-size="13" lengthAdjust="spacingAndGlyphs" textLength="110" x="396" y="332.0293">Response, UserID</text><polygon fill="#FBFB77" filter="url(#f8u2ipz)" points="101,300.1504,101,355.1504,360,355.1504,360,310.1504,350,300.1504,101,300.1504" style="stroke: #A80036; stroke-width: 1.0;"/><line style="stroke: #A80036; stroke-width: 1.0;" x1="350" x2="350" y1="300.1504" y2="310.1504"/><line style="stroke: #A80036; stroke-width: 1.0;" x1="360" x2="350" y1="310.1504" y2="310.1504"/><text fill="#000000" font-family="sans-serif" font-size="13" lengthAdjust="spacingAndGlyphs" textLength="238" x="107" y="317.7188">当SearchUser的结果等于1时进入Exist，</text><text fill="#000000" font-family="sans-serif" font-size="13" lengthAdjust="spacingAndGlyphs" textLength="231" x="107" y="333.0293">否则进入NotExist，并通过Response传</text><text fill="#000000" font-family="sans-serif" font-size="13" lengthAdjust="spacingAndGlyphs" textLength="211" x="107" y="348.3398">递相应数值以及该用户对应的UserID</text><polygon fill="#A80036" points="161,382.082,151,386.082,161,390.082,157,386.082" style="stroke: #A80036; stroke-width: 1.0;"/><line style="stroke: #A80036; stroke-width: 1.0;" x1="155" x2="368" y1="386.082" y2="386.082"/><text fill="#000000" font-family="sans-serif" font-size="13" lengthAdjust="spacingAndGlyphs" textLength="110" x="167" y="381.6504">Response, UserID</text><polygon fill="#A80036" points="390,431.7031,380,435.7031,390,439.7031,386,435.7031" style="stroke: #A80036; stroke-width: 1.0;"/><line style="stroke: #A80036; stroke-width: 1.0;" x1="384" x2="715" y1="435.7031" y2="435.7031"/><text fill="#000000" font-family="sans-serif" font-size="13" lengthAdjust="spacingAndGlyphs" textLength="45" x="396" y="431.2715">VSSList</text><polygon fill="#FBFB77" filter="url(#f8u2ipz)" points="23,399.3926,23,454.3926,360,454.3926,360,409.3926,350,399.3926,23,399.3926" style="stroke: #A80036; stroke-width: 1.0;"/><line style="stroke: #A80036; stroke-width: 1.0;" x1="350" x2="350" y1="399.3926" y2="409.3926"/><line style="stroke: #A80036; stroke-width: 1.0;" x1="360" x2="350" y1="409.3926" y2="409.3926"/><text fill="#000000" font-family="sans-serif" font-size="13" lengthAdjust="spacingAndGlyphs" textLength="316" x="29" y="416.9609">从VSS_Table中提取类型为地图和演唱会的VSS各N个，</text><text fill="#000000" font-family="sans-serif" font-size="13" lengthAdjust="spacingAndGlyphs" textLength="309" x="29" y="432.2715">排序顺序依照点赞数量由大到小排序，取前N个，将被</text><text fill="#000000" font-family="sans-serif" font-size="13" lengthAdjust="spacingAndGlyphs" textLength="214" x="29" y="447.582">选中的VSS的信息整合成List传输出去</text><polygon fill="#A80036" points="161,481.3242,151,485.3242,161,489.3242,157,485.3242" style="stroke: #A80036; stroke-width: 1.0;"/><line style="stroke: #A80036; stroke-width: 1.0;" x1="155" x2="368" y1="485.3242" y2="485.3242"/><text fill="#000000" font-family="sans-serif" font-size="13" lengthAdjust="spacingAndGlyphs" textLength="45" x="167" y="480.8926">VSSList</text><line style="stroke: #000000; stroke-width: 1.0; stroke-dasharray: 2.0,2.0;" x1="13" x2="824.5" y1="494.6348" y2="494.6348"/><text fill="#000000" font-family="sans-serif" font-size="11" font-weight="bold" lengthAdjust="spacingAndGlyphs" textLength="54" x="18" y="505.2695">[NotExist]</text><polygon fill="#A80036" points="390,525.5898,380,529.5898,390,533.5898,386,529.5898" style="stroke: #A80036; stroke-width: 1.0;"/><line style="stroke: #A80036; stroke-width: 1.0;" x1="384" x2="512" y1="529.5898" y2="529.5898"/><text fill="#000000" font-family="sans-serif" font-size="13" lengthAdjust="spacingAndGlyphs" textLength="60" x="396" y="525.1582">Response</text><polygon fill="#A80036" points="161,554.9004,151,558.9004,161,562.9004,157,558.9004" style="stroke: #A80036; stroke-width: 1.0;"/><line style="stroke: #A80036; stroke-width: 1.0;" x1="155" x2="368" y1="558.9004" y2="558.9004"/><text fill="#000000" font-family="sans-serif" font-size="13" lengthAdjust="spacingAndGlyphs" textLength="60" x="167" y="554.4688">Response</text></g></svg>