<?xml version="1.0" encoding="UTF-8" standalone="no"?><svg xmlns="http://www.w3.org/2000/svg" xmlns:xlink="http://www.w3.org/1999/xlink" contentScriptType="application/ecmascript" contentStyleType="text/css" height="507px" preserveAspectRatio="none" style="width:787px;height:507px;" version="1.1" viewBox="0 0 787 507" width="787px" zoomAndPan="magnify"><defs><filter height="300%" id="fxegdq3" width="300%" x="-1" y="-1"><feGaussianBlur result="blurOut" stdDeviation="2.0"/><feColorMatrix in="blurOut" result="blurOut2" type="matrix" values="0 0 0 0 0 0 0 0 0 0 0 0 0 0 0 0 0 0 .4 0"/><feOffset dx="4.0" dy="4.0" in="blurOut2" result="blurOut3"/><feBlend in="SourceGraphic" in2="blurOut3" mode="normal"/></filter></defs><g><text fill="#000000" font-family="sans-serif" font-size="14" font-weight="bold" lengthAdjust="spacingAndGlyphs" textLength="130" x="335.75" y="23.5352">PreviewOnlineVSS</text><rect fill="#FFFFFF" filter="url(#fxegdq3)" height="370.0371" style="stroke: #A80036; stroke-width: 1.0;" width="10" x="243" y="126.9766"/><rect fill="#FFFFFF" filter="url(#fxegdq3)" height="370.0371" style="stroke: #A80036; stroke-width: 1.0;" width="10" x="391.5" y="126.9766"/><rect fill="#FFFFFF" filter="url(#fxegdq3)" height="370.0371" style="stroke: #A80036; stroke-width: 1.0;" width="10" x="581.5" y="126.9766"/><line style="stroke: #A80036; stroke-width: 1.0; stroke-dasharray: 5.0,5.0;" x1="31" x2="31" y1="116.9766" y2="506.0137"/><line style="stroke: #A80036; stroke-width: 1.0; stroke-dasharray: 5.0,5.0;" x1="248" x2="248" y1="116.9766" y2="506.0137"/><line style="stroke: #A80036; stroke-width: 1.0; stroke-dasharray: 5.0,5.0;" x1="396" x2="396" y1="116.9766" y2="506.0137"/><line style="stroke: #A80036; stroke-width: 1.0; stroke-dasharray: 5.0,5.0;" x1="586" x2="586" y1="116.9766" y2="506.0137"/><text fill="#000000" font-family="sans-serif" font-size="14" lengthAdjust="spacingAndGlyphs" textLength="40" x="8" y="114.0234">Client</text><ellipse cx="31" cy="43.4883" fill="#FEFECE" filter="url(#fxegdq3)" rx="8" ry="8" style="stroke: #A80036; stroke-width: 2.0;"/><path d="M31,51.4883 L31,78.4883 M18,59.4883 L44,59.4883 M31,78.4883 L18,93.4883 M31,78.4883 L44,93.4883 " fill="#FEFECE" filter="url(#fxegdq3)" style="stroke: #A80036; stroke-width: 2.0;"/><rect fill="#FEFECE" filter="url(#fxegdq3)" height="30.4883" style="stroke: #A80036; stroke-width: 1.5;" width="86" x="203" y="81.4883"/><text fill="#000000" font-family="sans-serif" font-size="14" lengthAdjust="spacingAndGlyphs" textLength="72" x="210" y="102.0234">WebServer</text><rect fill="#FEFECE" filter="url(#fxegdq3)" height="30.4883" style="stroke: #A80036; stroke-width: 1.5;" width="183" x="303" y="81.4883"/><text fill="#000000" font-family="sans-serif" font-size="14" lengthAdjust="spacingAndGlyphs" textLength="169" x="310" y="102.0234">VSSInformationDatabase</text><rect fill="#FEFECE" filter="url(#fxegdq3)" height="30.4883" style="stroke: #A80036; stroke-width: 1.5;" width="169" x="500" y="81.4883"/><text fill="#000000" font-family="sans-serif" font-size="14" lengthAdjust="spacingAndGlyphs" textLength="155" x="507" y="102.0234">VSSCommentDatabase</text><rect fill="#FFFFFF" filter="url(#fxegdq3)" height="370.0371" style="stroke: #A80036; stroke-width: 1.0;" width="10" x="243" y="126.9766"/><rect fill="#FFFFFF" filter="url(#fxegdq3)" height="370.0371" style="stroke: #A80036; stroke-width: 1.0;" width="10" x="391.5" y="126.9766"/><rect fill="#FFFFFF" filter="url(#fxegdq3)" height="370.0371" style="stroke: #A80036; stroke-width: 1.0;" width="10" x="581.5" y="126.9766"/><polygon fill="#A80036" points="231,143.9766,241,147.9766,231,151.9766,235,147.9766" style="stroke: #A80036; stroke-width: 1.0;"/><line style="stroke: #A80036; stroke-width: 1.0;" x1="31" x2="237" y1="147.9766" y2="147.9766"/><text fill="#000000" font-family="sans-serif" font-size="13" lengthAdjust="spacingAndGlyphs" textLength="141" x="38" y="143.5449">PreviewRequest(VSSID)</text><polygon fill="#A80036" points="379.5,173.2871,389.5,177.2871,379.5,181.2871,383.5,177.2871" style="stroke: #A80036; stroke-width: 1.0;"/><line style="stroke: #A80036; stroke-width: 1.0;" x1="253" x2="385.5" y1="177.2871" y2="177.2871"/><text fill="#000000" font-family="sans-serif" font-size="13" lengthAdjust="spacingAndGlyphs" textLength="36" x="260" y="172.8555">VSSID</text><line style="stroke: #A80036; stroke-width: 1.0;" x1="401.5" x2="443.5" y1="213.0635" y2="213.0635"/><line style="stroke: #A80036; stroke-width: 1.0;" x1="443.5" x2="443.5" y1="213.0635" y2="226.0635"/><line style="stroke: #A80036; stroke-width: 1.0;" x1="402.5" x2="443.5" y1="226.0635" y2="226.0635"/><polygon fill="#A80036" points="412.5,222.0635,402.5,226.0635,412.5,230.0635,408.5,226.0635" style="stroke: #A80036; stroke-width: 1.0;"/><text fill="#000000" font-family="sans-serif" font-size="13" lengthAdjust="spacingAndGlyphs" textLength="139" x="408.5" y="208.3213">GetInformation(VSSID)</text><polygon fill="#FBFB77" filter="url(#fxegdq3)" points="58,190.5977,58,230.5977,382,230.5977,382,200.5977,372,190.5977,58,190.5977" style="stroke: #A80036; stroke-width: 1.0;"/><line style="stroke: #A80036; stroke-width: 1.0;" x1="372" x2="372" y1="190.5977" y2="200.5977"/><line style="stroke: #A80036; stroke-width: 1.0;" x1="382" x2="372" y1="200.5977" y2="200.5977"/><text fill="#000000" font-family="sans-serif" font-size="13" lengthAdjust="spacingAndGlyphs" textLength="303" x="64" y="208.166">根据VSSID在VSS_Table中进行查询得到该VSS的信息</text><text fill="#000000" font-family="sans-serif" font-size="13" lengthAdjust="spacingAndGlyphs" textLength="215" x="64" y="223.4766">并将这些信息整理成List，返回此List</text><polygon fill="#A80036" points="264,257.2188,254,261.2188,264,265.2188,260,261.2188" style="stroke: #A80036; stroke-width: 1.0;"/><line style="stroke: #A80036; stroke-width: 1.0;" x1="258" x2="390.5" y1="261.2188" y2="261.2188"/><text fill="#000000" font-family="sans-serif" font-size="13" lengthAdjust="spacingAndGlyphs" textLength="96" x="270" y="256.7871">VSSInformation</text><line style="stroke: #A80036; stroke-width: 1.0;" x1="401.5" x2="443.5" y1="296.9951" y2="296.9951"/><line style="stroke: #A80036; stroke-width: 1.0;" x1="443.5" x2="443.5" y1="296.9951" y2="309.9951"/><line style="stroke: #A80036; stroke-width: 1.0;" x1="402.5" x2="443.5" y1="309.9951" y2="309.9951"/><polygon fill="#A80036" points="412.5,305.9951,402.5,309.9951,412.5,313.9951,408.5,309.9951" style="stroke: #A80036; stroke-width: 1.0;"/><text fill="#000000" font-family="sans-serif" font-size="13" lengthAdjust="spacingAndGlyphs" textLength="140" x="408.5" y="292.2529">GetCommentID(VSSID)</text><polygon fill="#FBFB77" filter="url(#fxegdq3)" points="51,274.5293,51,314.5293,382,314.5293,382,284.5293,372,274.5293,51,274.5293" style="stroke: #A80036; stroke-width: 1.0;"/><line style="stroke: #A80036; stroke-width: 1.0;" x1="372" x2="372" y1="274.5293" y2="284.5293"/><line style="stroke: #A80036; stroke-width: 1.0;" x1="382" x2="372" y1="284.5293" y2="284.5293"/><text fill="#000000" font-family="sans-serif" font-size="13" lengthAdjust="spacingAndGlyphs" textLength="310" x="57" y="292.0977">根据VSSID在VSS_Comment_Table中进行查询，得到</text><text fill="#000000" font-family="sans-serif" font-size="13" lengthAdjust="spacingAndGlyphs" textLength="233" x="57" y="307.4082">相应的评论ID，将这些ID构成的List返回</text><polygon fill="#A80036" points="264,341.1504,254,345.1504,264,349.1504,260,345.1504" style="stroke: #A80036; stroke-width: 1.0;"/><line style="stroke: #A80036; stroke-width: 1.0;" x1="258" x2="390.5" y1="345.1504" y2="345.1504"/><text fill="#000000" font-family="sans-serif" font-size="13" lengthAdjust="spacingAndGlyphs" textLength="98" x="270" y="340.7188">CommentIDList</text><polygon fill="#A80036" points="569.5,370.4609,579.5,374.4609,569.5,378.4609,573.5,374.4609" style="stroke: #A80036; stroke-width: 1.0;"/><line style="stroke: #A80036; stroke-width: 1.0;" x1="253" x2="575.5" y1="374.4609" y2="374.4609"/><text fill="#000000" font-family="sans-serif" font-size="13" lengthAdjust="spacingAndGlyphs" textLength="98" x="260" y="370.0293">CommentIDList</text><line style="stroke: #A80036; stroke-width: 1.0;" x1="591.5" x2="633.5" y1="410.2373" y2="410.2373"/><line style="stroke: #A80036; stroke-width: 1.0;" x1="633.5" x2="633.5" y1="410.2373" y2="423.2373"/><line style="stroke: #A80036; stroke-width: 1.0;" x1="592.5" x2="633.5" y1="423.2373" y2="423.2373"/><polygon fill="#A80036" points="602.5,419.2373,592.5,423.2373,602.5,427.2373,598.5,423.2373" style="stroke: #A80036; stroke-width: 1.0;"/><text fill="#000000" font-family="sans-serif" font-size="13" lengthAdjust="spacingAndGlyphs" textLength="188" x="598.5" y="405.4951">GetComment(CommentIDList)</text><polygon fill="#FBFB77" filter="url(#fxegdq3)" points="240,387.7715,240,427.7715,572,427.7715,572,397.7715,562,387.7715,240,387.7715" style="stroke: #A80036; stroke-width: 1.0;"/><line style="stroke: #A80036; stroke-width: 1.0;" x1="562" x2="562" y1="387.7715" y2="397.7715"/><line style="stroke: #A80036; stroke-width: 1.0;" x1="572" x2="562" y1="397.7715" y2="397.7715"/><text fill="#000000" font-family="sans-serif" font-size="13" lengthAdjust="spacingAndGlyphs" textLength="311" x="246" y="405.3398">根据所给的评论的ID在Comment_Table中进行查询，</text><text fill="#000000" font-family="sans-serif" font-size="13" lengthAdjust="spacingAndGlyphs" textLength="127" x="246" y="420.6504">将评论整合成List返回</text><polygon fill="#A80036" points="264,454.3926,254,458.3926,264,462.3926,260,458.3926" style="stroke: #A80036; stroke-width: 1.0;"/><line style="stroke: #A80036; stroke-width: 1.0;" x1="258" x2="580.5" y1="458.3926" y2="458.3926"/><text fill="#000000" font-family="sans-serif" font-size="13" lengthAdjust="spacingAndGlyphs" textLength="84" x="270" y="453.9609">CommentList</text><polygon fill="#A80036" points="42,483.7031,32,487.7031,42,491.7031,38,487.7031" style="stroke: #A80036; stroke-width: 1.0;"/><line style="stroke: #A80036; stroke-width: 1.0;" x1="36" x2="242" y1="487.7031" y2="487.7031"/><text fill="#000000" font-family="sans-serif" font-size="13" lengthAdjust="spacingAndGlyphs" textLength="188" x="48" y="483.2715">VSSInformation, CommentList</text></g></svg>