<?xml version="1.0" encoding="UTF-8" standalone="no"?><svg xmlns="http://www.w3.org/2000/svg" xmlns:xlink="http://www.w3.org/1999/xlink" contentScriptType="application/ecmascript" contentStyleType="text/css" height="509px" preserveAspectRatio="none" style="width:604px;height:509px;" version="1.1" viewBox="0 0 604 509" width="604px" zoomAndPan="magnify"><defs><filter height="300%" id="f1khpzu" width="300%" x="-1" y="-1"><feGaussianBlur result="blurOut" stdDeviation="2.0"/><feColorMatrix in="blurOut" result="blurOut2" type="matrix" values="0 0 0 0 0 0 0 0 0 0 0 0 0 0 0 0 0 0 .4 0"/><feOffset dx="4.0" dy="4.0" in="blurOut2" result="blurOut3"/><feBlend in="SourceGraphic" in2="blurOut3" mode="normal"/></filter></defs><g><text fill="#000000" font-family="sans-serif" font-size="14" font-weight="bold" lengthAdjust="spacingAndGlyphs" textLength="60" x="279" y="23.5352">Register</text><rect fill="#FFFFFF" filter="url(#f1khpzu)" height="372.9922" style="stroke: #A80036; stroke-width: 1.0;" width="10" x="291" y="126.9766"/><rect fill="#FFFFFF" filter="url(#f1khpzu)" height="372.9922" style="stroke: #A80036; stroke-width: 1.0;" width="10" x="435" y="126.9766"/><rect fill="#FFFFFF" filter="url(#f1khpzu)" height="229.4395" style="stroke: #000000; stroke-width: 2.0;" width="576" x="13" y="262.5293"/><rect fill="#FFFFFF" height="128.1973" style="stroke: none; stroke-width: 1.0;" width="576" x="13" y="363.7715"/><line style="stroke: #A80036; stroke-width: 1.0; stroke-dasharray: 5.0,5.0;" x1="84" x2="84" y1="116.9766" y2="508.9688"/><line style="stroke: #A80036; stroke-width: 1.0; stroke-dasharray: 5.0,5.0;" x1="296" x2="296" y1="116.9766" y2="508.9688"/><line style="stroke: #A80036; stroke-width: 1.0; stroke-dasharray: 5.0,5.0;" x1="440" x2="440" y1="116.9766" y2="508.9688"/><text fill="#000000" font-family="sans-serif" font-size="14" lengthAdjust="spacingAndGlyphs" textLength="40" x="61" y="114.0234">Client</text><ellipse cx="84" cy="43.4883" fill="#FEFECE" filter="url(#f1khpzu)" rx="8" ry="8" style="stroke: #A80036; stroke-width: 2.0;"/><path d="M84,51.4883 L84,78.4883 M71,59.4883 L97,59.4883 M84,78.4883 L71,93.4883 M84,78.4883 L97,93.4883 " fill="#FEFECE" filter="url(#f1khpzu)" style="stroke: #A80036; stroke-width: 2.0;"/><rect fill="#FEFECE" filter="url(#f1khpzu)" height="30.4883" style="stroke: #A80036; stroke-width: 1.5;" width="86" x="251" y="81.4883"/><text fill="#000000" font-family="sans-serif" font-size="14" lengthAdjust="spacingAndGlyphs" textLength="72" x="258" y="102.0234">WebServer</text><rect fill="#FEFECE" filter="url(#f1khpzu)" height="30.4883" style="stroke: #A80036; stroke-width: 1.5;" width="108" x="384" y="81.4883"/><text fill="#000000" font-family="sans-serif" font-size="14" lengthAdjust="spacingAndGlyphs" textLength="94" x="391" y="102.0234">UserDatabase</text><rect fill="#FFFFFF" filter="url(#f1khpzu)" height="372.9922" style="stroke: #A80036; stroke-width: 1.0;" width="10" x="291" y="126.9766"/><rect fill="#FFFFFF" filter="url(#f1khpzu)" height="372.9922" style="stroke: #A80036; stroke-width: 1.0;" width="10" x="435" y="126.9766"/><polygon fill="#A80036" points="279,143.9766,289,147.9766,279,151.9766,283,147.9766" style="stroke: #A80036; stroke-width: 1.0;"/><line style="stroke: #A80036; stroke-width: 1.0;" x1="84" x2="285" y1="147.9766" y2="147.9766"/><text fill="#000000" font-family="sans-serif" font-size="13" lengthAdjust="spacingAndGlyphs" textLength="183" x="91" y="143.5449">RegisterRequest(RegisterList)</text><polygon fill="#A80036" points="423,173.2871,433,177.2871,423,181.2871,427,177.2871" style="stroke: #A80036; stroke-width: 1.0;"/><line style="stroke: #A80036; stroke-width: 1.0;" x1="301" x2="429" y1="177.2871" y2="177.2871"/><text fill="#000000" font-family="sans-serif" font-size="13" lengthAdjust="spacingAndGlyphs" textLength="74" x="308" y="172.8555">RegisterList</text><line style="stroke: #A80036; stroke-width: 1.0;" x1="445" x2="487" y1="220.7188" y2="220.7188"/><line style="stroke: #A80036; stroke-width: 1.0;" x1="487" x2="487" y1="220.7188" y2="233.7188"/><line style="stroke: #A80036; stroke-width: 1.0;" x1="446" x2="487" y1="233.7188" y2="233.7188"/><polygon fill="#A80036" points="456,229.7188,446,233.7188,456,237.7188,452,233.7188" style="stroke: #A80036; stroke-width: 1.0;"/><text fill="#000000" font-family="sans-serif" font-size="13" lengthAdjust="spacingAndGlyphs" textLength="151" x="452" y="215.9766">SearchUser(RegisterList)</text><polygon fill="#FBFB77" filter="url(#f1khpzu)" points="77,190.5977,77,245.5977,426,245.5977,426,200.5977,416,190.5977,77,190.5977" style="stroke: #A80036; stroke-width: 1.0;"/><line style="stroke: #A80036; stroke-width: 1.0;" x1="416" x2="416" y1="190.5977" y2="200.5977"/><line style="stroke: #A80036; stroke-width: 1.0;" x1="426" x2="416" y1="200.5977" y2="200.5977"/><text fill="#000000" font-family="sans-serif" font-size="13" lengthAdjust="spacingAndGlyphs" textLength="325" x="83" y="208.166">根据RegisterList提供的信息在User_Table中进行查询，</text><text fill="#000000" font-family="sans-serif" font-size="13" lengthAdjust="spacingAndGlyphs" textLength="328" x="83" y="223.4766">若已存在相同的用户名则返回-1，若已存在相同的电子邮</text><text fill="#000000" font-family="sans-serif" font-size="13" lengthAdjust="spacingAndGlyphs" textLength="211" x="83" y="238.7871">箱地址则返回0，若均不存在则返回1</text><rect fill="none" height="229.4395" style="stroke: #000000; stroke-width: 2.0;" width="576" x="13" y="262.5293"/><polygon fill="#EEEEEE" points="13,262.5293,75,262.5293,75,269.5293,65,279.5293,13,279.5293,13,262.5293" style="stroke: #000000; stroke-width: 2.0;"/><text fill="#000000" font-family="sans-serif" font-size="13" font-weight="bold" lengthAdjust="spacingAndGlyphs" textLength="17" x="28" y="276.0977">alt</text><text fill="#000000" font-family="sans-serif" font-size="11" font-weight="bold" lengthAdjust="spacingAndGlyphs" textLength="35" x="90" y="275.1641">[Exist]</text><polygon fill="#A80036" points="312,309.4951,302,313.4951,312,317.4951,308,313.4951" style="stroke: #A80036; stroke-width: 1.0;"/><line style="stroke: #A80036; stroke-width: 1.0;" x1="306" x2="434" y1="313.4951" y2="313.4951"/><text fill="#000000" font-family="sans-serif" font-size="13" lengthAdjust="spacingAndGlyphs" textLength="60" x="318" y="309.0635">Response</text><polygon fill="#FBFB77" filter="url(#f1khpzu)" points="23,284.8398,23,324.8398,282,324.8398,282,294.8398,272,284.8398,23,284.8398" style="stroke: #A80036; stroke-width: 1.0;"/><line style="stroke: #A80036; stroke-width: 1.0;" x1="272" x2="272" y1="284.8398" y2="294.8398"/><line style="stroke: #A80036; stroke-width: 1.0;" x1="282" x2="272" y1="294.8398" y2="294.8398"/><text fill="#000000" font-family="sans-serif" font-size="13" lengthAdjust="spacingAndGlyphs" textLength="238" x="29" y="302.4082">当SearchUser小于等于0的时候进入Exist</text><text fill="#000000" font-family="sans-serif" font-size="13" lengthAdjust="spacingAndGlyphs" textLength="190" x="29" y="317.7188">并利用Response传递相应的信息</text><polygon fill="#A80036" points="95,351.4609,85,355.4609,95,359.4609,91,355.4609" style="stroke: #A80036; stroke-width: 1.0;"/><line style="stroke: #A80036; stroke-width: 1.0;" x1="89" x2="290" y1="355.4609" y2="355.4609"/><text fill="#000000" font-family="sans-serif" font-size="13" lengthAdjust="spacingAndGlyphs" textLength="60" x="101" y="351.0293">Response</text><line style="stroke: #000000; stroke-width: 1.0; stroke-dasharray: 2.0,2.0;" x1="13" x2="589" y1="364.7715" y2="364.7715"/><text fill="#000000" font-family="sans-serif" font-size="11" font-weight="bold" lengthAdjust="spacingAndGlyphs" textLength="54" x="18" y="375.4063">[NotExist]</text><line style="stroke: #A80036; stroke-width: 1.0;" x1="445" x2="487" y1="406.1924" y2="406.1924"/><line style="stroke: #A80036; stroke-width: 1.0;" x1="487" x2="487" y1="406.1924" y2="419.1924"/><line style="stroke: #A80036; stroke-width: 1.0;" x1="446" x2="487" y1="419.1924" y2="419.1924"/><polygon fill="#A80036" points="456,415.1924,446,419.1924,456,423.1924,452,419.1924" style="stroke: #A80036; stroke-width: 1.0;"/><text fill="#000000" font-family="sans-serif" font-size="13" lengthAdjust="spacingAndGlyphs" textLength="135" x="452" y="401.4502">AddUser(RegisterList)</text><polygon fill="#FBFB77" filter="url(#f1khpzu)" points="168,383.7266,168,423.7266,426,423.7266,426,393.7266,416,383.7266,168,383.7266" style="stroke: #A80036; stroke-width: 1.0;"/><line style="stroke: #A80036; stroke-width: 1.0;" x1="416" x2="416" y1="383.7266" y2="393.7266"/><line style="stroke: #A80036; stroke-width: 1.0;" x1="426" x2="416" y1="393.7266" y2="393.7266"/><text fill="#000000" font-family="sans-serif" font-size="13" lengthAdjust="spacingAndGlyphs" textLength="234" x="174" y="401.2949">根据RegisterList的内容更新User_Table</text><text fill="#000000" font-family="sans-serif" font-size="13" lengthAdjust="spacingAndGlyphs" textLength="237" x="174" y="416.6055">并给该用户创建一个UserID传送到客户端</text><polygon fill="#A80036" points="312,450.3477,302,454.3477,312,458.3477,308,454.3477" style="stroke: #A80036; stroke-width: 1.0;"/><line style="stroke: #A80036; stroke-width: 1.0;" x1="306" x2="434" y1="454.3477" y2="454.3477"/><text fill="#000000" font-family="sans-serif" font-size="13" lengthAdjust="spacingAndGlyphs" textLength="110" x="318" y="449.916">Response, UserID</text><polygon fill="#A80036" points="95,479.6582,85,483.6582,95,487.6582,91,483.6582" style="stroke: #A80036; stroke-width: 1.0;"/><line style="stroke: #A80036; stroke-width: 1.0;" x1="89" x2="290" y1="483.6582" y2="483.6582"/><text fill="#000000" font-family="sans-serif" font-size="13" lengthAdjust="spacingAndGlyphs" textLength="110" x="101" y="479.2266">Response, UserID</text></g></svg>