<?xml version="1.0" encoding="UTF-8" standalone="no"?><svg xmlns="http://www.w3.org/2000/svg" xmlns:xlink="http://www.w3.org/1999/xlink" contentScriptType="application/ecmascript" contentStyleType="text/css" height="213px" preserveAspectRatio="none" style="width:494px;height:213px;" version="1.1" viewBox="0 0 494 213"
    width="494px" zoomAndPan="magnify"><defs><filter height="300%" id="fxswr3ffx4c7a" width="300%" x="-1" y="-1"><feGaussianBlur result="blurOut" stdDeviation="2.0"/><feColorMatrix in="blurOut" result="blurOut2" type="matrix" values="0 0 0 0 0 0 0 0 0 0 0 0 0 0 0 0 0 0 .4 0"/><feOffset dx="4.0" dy="4.0" in="blurOut2" result="blurOut3"/><feBlend in="SourceGraphic" in2="blurOut3" mode="normal"/></filter></defs><g><line style="stroke: #A80036; stroke-width: 1.0; stroke-dasharray: 5.0,5.0;" x1="70" x2="70" y1="41.1201" y2="201.1377"/><line style="stroke: #A80036; stroke-width: 1.0; stroke-dasharray: 5.0,5.0;" x1="202" x2="202" y1="41.1201" y2="201.1377"/><line style="stroke: #A80036; stroke-width: 1.0; stroke-dasharray: 5.0,5.0;" x1="338" x2="338" y1="41.1201" y2="201.1377"/><line style="stroke: #A80036; stroke-width: 1.0; stroke-dasharray: 5.0,5.0;" x1="450" x2="450" y1="41.1201" y2="201.1377"/><rect fill="#FEFECE" filter="url(#fxswr3ffx4c7a)" height="33.1201" style="stroke: #A80036; stroke-width: 1.5;" width="120" x="8" y="3"/><text fill="#000000" font-family="sans-serif" font-size="14" lengthAdjust="spacingAndGlyphs" text-decoration="underline" textLength="106" x="15" y="26.0439">:LoginViewModel</text><line style="stroke: #000000; stroke-width: 1.0;" x1="15" x2="121" y1="28.0439" y2="28.0439"/><rect fill="#FEFECE" filter="url(#fxswr3ffx4c7a)" height="33.1201" style="stroke: #A80036; stroke-width: 1.5;" width="116" x="142" y="3"/><text fill="#000000" font-family="sans-serif" font-size="14" lengthAdjust="spacingAndGlyphs" text-decoration="underline" textLength="102" x="149" y="26.0439">:UserInfoControl</text><line style="stroke: #000000; stroke-width: 1.0;" x1="149" x2="251" y1="28.0439" y2="28.0439"/><rect fill="#FEFECE" filter="url(#fxswr3ffx4c7a)" height="33.1201" style="stroke: #A80036; stroke-width: 1.5;" width="128" x="272" y="3"/><text fill="#000000" font-family="sans-serif" font-size="14" lengthAdjust="spacingAndGlyphs" text-decoration="underline" textLength="114" x="279" y="26.0439">:GVRAudioEngine</text><line style="stroke: #000000; stroke-width: 1.0;" x1="279" x2="393" y1="28.0439" y2="28.0439"/><rect fill="#FEFECE" filter="url(#fxswr3ffx4c7a)" height="33.1201" style="stroke: #A80036; stroke-width: 1.5;" width="69" x="414" y="3"/><text fill="#000000" font-family="sans-serif" font-size="14" lengthAdjust="spacingAndGlyphs" text-decoration="underline" textLength="55" x="421" y="26.0439">:Callable</text><line style="stroke: #000000; stroke-width: 1.0;" x1="421" x2="476" y1="28.0439" y2="28.0439"/><polygon fill="#A80036" points="190,70.1201,200,74.1201,190,78.1201,194,74.1201" style="stroke: #A80036; stroke-width: 1.0;"/><line style="stroke: #A80036; stroke-width: 1.0;" x1="70" x2="196" y1="74.1201" y2="74.1201"/><text fill="#000000" font-family="sans-serif" font-size="13" lengthAdjust="spacingAndGlyphs" textLength="75" x="77" y="70.0181">&lt;&lt;destroy&gt;&gt;</text><line style="stroke: #A80036; stroke-width: 2.0;" x1="193" x2="211" y1="65.1201" y2="83.1201"/><line style="stroke: #A80036; stroke-width: 2.0;" x1="193" x2="211" y1="83.1201" y2="65.1201"/><polygon fill="#A80036" points="326,101.8745,336,105.8745,326,109.8745,330,105.8745" style="stroke: #A80036; stroke-width: 1.0;"/><line style="stroke: #A80036; stroke-width: 1.0;" x1="70" x2="332" y1="105.8745" y2="105.8745"/><text fill="#000000" font-family="sans-serif" font-size="13" lengthAdjust="spacingAndGlyphs" textLength="75" x="77" y="101.7725">&lt;&lt;destroy&gt;&gt;</text><line style="stroke: #A80036; stroke-width: 2.0;" x1="329" x2="347" y1="96.8745" y2="114.8745"/><line style="stroke: #A80036; stroke-width: 2.0;" x1="329" x2="347" y1="114.8745" y2="96.8745"/><polygon fill="#A80036" points="438.5,133.6289,448.5,137.6289,438.5,141.6289,442.5,137.6289" style="stroke: #A80036; stroke-width: 1.0;"/><line style="stroke: #A80036; stroke-width: 1.0;" x1="70" x2="444.5" y1="137.6289" y2="137.6289"/><text fill="#000000" font-family="sans-serif" font-size="13" lengthAdjust="spacingAndGlyphs" textLength="75" x="77" y="133.5269">&lt;&lt;destroy&gt;&gt;</text><line style="stroke: #A80036; stroke-width: 2.0;" x1="441.5" x2="459.5" y1="128.6289" y2="146.6289"/><line style="stroke: #A80036; stroke-width: 2.0;" x1="441.5" x2="459.5" y1="146.6289" y2="128.6289"/><line style="stroke: #A80036; stroke-width: 1.0;" x1="70" x2="112" y1="170.1377" y2="170.1377"/><line style="stroke: #A80036; stroke-width: 1.0;" x1="112" x2="112" y1="170.1377" y2="183.1377"/><line style="stroke: #A80036; stroke-width: 1.0;" x1="71" x2="112" y1="183.1377" y2="183.1377"/><polygon fill="#A80036" points="81,179.1377,71,183.1377,81,187.1377,77,183.1377" style="stroke: #A80036; stroke-width: 1.0;"/><text fill="#000000" font-family="sans-serif" font-size="13" lengthAdjust="spacingAndGlyphs" textLength="75" x="77" y="165.2813">&lt;&lt;destroy&gt;&gt;</text><line style="stroke: #A80036; stroke-width: 2.0;" x1="61" x2="79" y1="173.3833" y2="191.3833"/><line style="stroke: #A80036; stroke-width: 2.0;" x1="61" x2="79" y1="191.3833" y2="173.3833"/><!--
@startuml
hide footbox
skinparam sequenceParticipant underline
Participant ":LoginViewModel" as LoginViewModel
Participant ":UserInfoControl" as UserInfoControl
Participant ":GVRAudioEngine" as GVRAudioEngine
Participant ":Callable" as Callable

LoginViewModel -> UserInfoControl: <<destroy>>
destroy UserInfoControl
LoginViewModel -> GVRAudioEngine: <<destroy>>
destroy GVRAudioEngine
LoginViewModel -> Callable: <<destroy>>
destroy Callable
LoginViewModel -> LoginViewModel: <<destroy>>
destroy LoginViewModel
@enduml

PlantUML version 1.2018.01(Mon Jan 29 02:08:22 CST 2018)
(GPL source distribution)
Java Runtime: Java(TM) SE Runtime Environment
JVM: Java HotSpot(TM) Client VM
Java Version: 1.8.0_144-b01
Operating System: Windows 10
OS Version: 10.0
Default Encoding: GBK
Language: zh
Country: CN
--></g></svg>