<?xml version="1.0" encoding="UTF-8" standalone="no"?><svg xmlns="http://www.w3.org/2000/svg" xmlns:xlink="http://www.w3.org/1999/xlink" contentScriptType="application/ecmascript" contentStyleType="text/css" height="383px" preserveAspectRatio="none" style="width:1326px;height:383px;" version="1.1" viewBox="0 0 1326 383"
    width="1326px" zoomAndPan="magnify"><defs><filter height="300%" id="ft0hvc5ldqh1b" width="300%" x="-1" y="-1"><feGaussianBlur result="blurOut" stdDeviation="2.0"/><feColorMatrix in="blurOut" result="blurOut2" type="matrix" values="0 0 0 0 0 0 0 0 0 0 0 0 0 0 0 0 0 0 .4 0"/><feOffset dx="4.0" dy="4.0" in="blurOut2" result="blurOut3"/><feBlend in="SourceGraphic" in2="blurOut3" mode="normal"/></filter></defs><g><text fill="#000000" font-family="sans-serif" font-size="14" font-weight="bold" lengthAdjust="spacingAndGlyphs" textLength="126" x="600.75" y="23.5352">BrowseOnlineVSS</text><line style="stroke: #A80036; stroke-width: 1.0; stroke-dasharray: 5.0,5.0;" x1="101" x2="101" y1="116.9766" y2="371.4609"/><line style="stroke: #A80036; stroke-width: 1.0; stroke-dasharray: 5.0,5.0;" x1="489" x2="489" y1="116.9766" y2="371.4609"/><line style="stroke: #A80036; stroke-width: 1.0; stroke-dasharray: 5.0,5.0;" x1="877" x2="877" y1="116.9766" y2="371.4609"/><line style="stroke: #A80036; stroke-width: 1.0; stroke-dasharray: 5.0,5.0;" x1="1114.5" x2="1114.5" y1="116.9766" y2="371.4609"/><line style="stroke: #A80036; stroke-width: 1.0; stroke-dasharray: 5.0,5.0;" x1="1269.5" x2="1269.5" y1="116.9766" y2="371.4609"/><text fill="#000000" font-family="sans-serif" font-size="14" lengthAdjust="spacingAndGlyphs" text-decoration="underline" textLength="180" x="8" y="114.0234">:OnlineSoundSpaceLibrary</text><line style="stroke: #000000; stroke-width: 1.0;" x1="8" x2="188" y1="116.0234" y2="116.0234"/><ellipse cx="101" cy="43.4883" fill="#FEFECE" filter="url(#ft0hvc5ldqh1b)" rx="8" ry="8" style="stroke: #A80036; stroke-width: 2.0;"/><path d="M101,51.4883 L101,78.4883 M88,59.4883 L114,59.4883 M101,78.4883 L88,93.4883 M101,78.4883 L114,93.4883 " fill="none" filter="url(#ft0hvc5ldqh1b)" style="stroke: #A80036; stroke-width: 2.0;"/><rect fill="#FEFECE" filter="url(#ft0hvc5ldqh1b)" height="30.4883" style="stroke: #A80036; stroke-width: 1.5;" width="120" x="427" y="81.4883"/><text fill="#000000" font-family="sans-serif" font-size="14" lengthAdjust="spacingAndGlyphs" text-decoration="underline" textLength="106" x="434" y="102.0234">:Communicator</text><line style="stroke: #000000; stroke-width: 1.0;" x1="434" x2="540" y1="104.0234" y2="104.0234"/><rect fill="#FEFECE" filter="url(#ft0hvc5ldqh1b)" height="30.4883" style="stroke: #A80036; stroke-width: 1.5;" width="90" x="830" y="81.4883"/><text fill="#000000" font-family="sans-serif" font-size="14" lengthAdjust="spacingAndGlyphs" text-decoration="underline" textLength="76" x="837" y="102.0234">:WebServer</text><line style="stroke: #000000; stroke-width: 1.0;" x1="837" x2="913" y1="104.0234" y2="104.0234"/><rect fill="#FEFECE" filter="url(#ft0hvc5ldqh1b)" height="30.4883" style="stroke: #A80036; stroke-width: 1.5;" width="187" x="1019.5" y="81.4883"/><text fill="#000000" font-family="sans-serif" font-size="14" lengthAdjust="spacingAndGlyphs" text-decoration="underline" textLength="173" x="1026.5" y="102.0234">:VSSInformationDatabase</text><line style="stroke: #000000; stroke-width: 1.0;" x1="1026.5" x2="1199.5" y1="104.0234" y2="104.0234"/><rect fill="#FEFECE" filter="url(#ft0hvc5ldqh1b)" height="30.4883" style="stroke: #A80036; stroke-width: 1.5;" width="95" x="1220.5" y="81.4883"/><text fill="#000000" font-family="sans-serif" font-size="14" lengthAdjust="spacingAndGlyphs" text-decoration="underline" textLength="81" x="1227.5" y="102.0234">:MainFolder</text><line style="stroke: #000000; stroke-width: 1.0;" x1="1227.5" x2="1308.5" y1="104.0234" y2="104.0234"/><polygon fill="#A80036" points="477,143.9766,487,147.9766,477,151.9766,481,147.9766" style="stroke: #A80036; stroke-width: 1.0;"/><line style="stroke: #A80036; stroke-width: 1.0;" x1="101" x2="483" y1="147.9766" y2="147.9766"/><text fill="#000000" font-family="sans-serif" font-size="13" lengthAdjust="spacingAndGlyphs" textLength="364" x="108" y="143.5449">BrowseRequest(pagenumber:int):List&lt;VirtualSoundSpace&gt;</text><polygon fill="#A80036" points="865,173.2871,875,177.2871,865,181.2871,869,177.2871" style="stroke: #A80036; stroke-width: 1.0;"/><line style="stroke: #A80036; stroke-width: 1.0;" x1="489" x2="871" y1="177.2871" y2="177.2871"/><text fill="#000000" font-family="sans-serif" font-size="13" lengthAdjust="spacingAndGlyphs" textLength="364" x="496" y="172.8555">BrowseRequest(pagenumber:int):List&lt;VirtualSoundSpace&gt;</text><polygon fill="#A80036" points="1103,202.5977,1113,206.5977,1103,210.5977,1107,206.5977" style="stroke: #A80036; stroke-width: 1.0;"/><line style="stroke: #A80036; stroke-width: 1.0;" x1="877" x2="1109" y1="206.5977" y2="206.5977"/><text fill="#000000" font-family="sans-serif" font-size="13" lengthAdjust="spacingAndGlyphs" textLength="214" x="884" y="202.166">GetVSS(pagenumber:int):List&lt;int&gt;</text><polygon fill="#A80036" points="888,231.9082,878,235.9082,888,239.9082,884,235.9082" style="stroke: #A80036; stroke-width: 1.0;"/><line style="stroke: #A80036; stroke-width: 1.0;" x1="882" x2="1114" y1="235.9082" y2="235.9082"/><text fill="#000000" font-family="sans-serif" font-size="13" lengthAdjust="spacingAndGlyphs" textLength="59" x="894" y="231.4766">VSSIDList</text><polygon fill="#A80036" points="1258,261.2188,1268,265.2188,1258,269.2188,1262,265.2188" style="stroke: #A80036; stroke-width: 1.0;"/><line style="stroke: #A80036; stroke-width: 1.0;" x1="877" x2="1264" y1="265.2188" y2="265.2188"/><text fill="#000000" font-family="sans-serif" font-size="13" lengthAdjust="spacingAndGlyphs" textLength="337" x="884" y="260.7871">GetVSS(VSSIDList:List&lt;int&gt;):List&lt;VirtualSoundSpace&gt;</text><polygon fill="#A80036" points="888,290.5293,878,294.5293,888,298.5293,884,294.5293" style="stroke: #A80036; stroke-width: 1.0;"/><line style="stroke: #A80036; stroke-width: 1.0;" x1="882" x2="1269" y1="294.5293" y2="294.5293"/><text fill="#000000" font-family="sans-serif" font-size="13" lengthAdjust="spacingAndGlyphs" textLength="98" x="894" y="290.0977">listOfOnlineVSS</text><polygon fill="#A80036" points="500,319.8398,490,323.8398,500,327.8398,496,323.8398" style="stroke: #A80036; stroke-width: 1.0;"/><line style="stroke: #A80036; stroke-width: 1.0;" x1="494" x2="876" y1="323.8398" y2="323.8398"/><text fill="#000000" font-family="sans-serif" font-size="13" lengthAdjust="spacingAndGlyphs" textLength="98" x="506" y="319.4082">listOfOnlineVSS</text><polygon fill="#A80036" points="112,349.1504,102,353.1504,112,357.1504,108,353.1504" style="stroke: #A80036; stroke-width: 1.0;"/><line style="stroke: #A80036; stroke-width: 1.0;" x1="106" x2="488" y1="353.1504" y2="353.1504"/><text fill="#000000" font-family="sans-serif" font-size="13" lengthAdjust="spacingAndGlyphs" textLength="98" x="118" y="348.7188">listOfOnlineVSS</text><!--
@startuml Diagrams/BrowseOnlineVSSLibraryServer
title BrowseOnlineVSS
hide footbox
skinparam sequenceParticipant underline

actor ":OnlineSoundSpaceLibrary" as Client
participant ":Communicator" as Communicator
participant ":WebServer" as WebServer
participant ":VSSInformationDatabase" as VSSInformationDatabase
participant ":MainFolder" as Folder

Client->Communicator:BrowseRequest(pagenumber:int):List<VirtualSoundSpace>
Communicator->WebServer:BrowseRequest(pagenumber:int):List<VirtualSoundSpace>
WebServer->VSSInformationDatabase:GetVSS(pagenumber:int):List<int>
VSSInformationDatabase->WebServer:VSSIDList
WebServer->Folder:GetVSS(VSSIDList:List<int>):List<VirtualSoundSpace>
Folder->WebServer:listOfOnlineVSS
WebServer->Communicator:listOfOnlineVSS
Communicator->Client:listOfOnlineVSS
@enduml

PlantUML version 1.2018.01(Mon Jan 29 02:08:22 CST 2018)
(GPL source distribution)
Java Runtime: Java(TM) SE Runtime Environment
JVM: Java HotSpot(TM) 64-Bit Server VM
Java Version: 9+181
Operating System: Mac OS X
OS Version: 10.12.6
Default Encoding: UTF-8
Language: zh
Country: CN
--></g></svg>