<?xml version="1.0" encoding="UTF-8" standalone="no"?><svg xmlns="http://www.w3.org/2000/svg" xmlns:xlink="http://www.w3.org/1999/xlink" contentScriptType="application/ecmascript" contentStyleType="text/css" height="1013px" preserveAspectRatio="none" style="width:1921px;height:1013px;" version="1.1" viewBox="0 0 1921 1013"
    width="1921px" zoomAndPan="magnify"><defs><filter height="300%" id="fvl6i56ae7t0n" width="300%" x="-1" y="-1"><feGaussianBlur result="blurOut" stdDeviation="2.0"/><feColorMatrix in="blurOut" result="blurOut2" type="matrix" values="0 0 0 0 0 0 0 0 0 0 0 0 0 0 0 0 0 0 .4 0"/><feOffset dx="4.0" dy="4.0" in="blurOut2" result="blurOut3"/><feBlend in="SourceGraphic" in2="blurOut3" mode="normal"/></filter></defs><g><!--class RegisterPage--><rect fill="#ADD8E6" filter="url(#fvl6i56ae7t0n)" height="54.2656" id="RegisterPage" style="stroke: #0000FF; stroke-width: 1.5;" width="107" x="136" y="415"/><ellipse cx="151" cy="434.1328" fill="#ADD1B2" rx="11" ry="11" style="stroke: #0000FF; stroke-width: 1.0;"/><path d="M153.9731,439.7759 Q153.3921,440.0747 152.7529,440.2241 Q152.1138,440.3735 151.4082,440.3735 Q148.9014,440.3735 147.5815,438.7217 Q146.2617,437.0698 146.2617,433.9487 Q146.2617,430.8193 147.5815,429.1675 Q148.9014,427.5156 151.4082,427.5156 Q152.1138,427.5156 152.7612,427.665 Q153.4087,427.8145 153.9731,428.1133 L153.9731,430.8359 Q153.3423,430.2549 152.7488,429.9851 Q152.1553,429.7153 151.5244,429.7153 Q150.1797,429.7153 149.4949,430.782 Q148.8101,431.8486 148.8101,433.9487 Q148.8101,436.0405 149.4949,437.1072 Q150.1797,438.1738 151.5244,438.1738 Q152.1553,438.1738 152.7488,437.9041 Q153.3423,437.6343 153.9731,437.0532 Z "/><text fill="#000000" font-family="sans-serif" font-size="12" font-style="italic" lengthAdjust="spacingAndGlyphs" textLength="67" x="169" y="431.6016">«boundary»</text><text fill="#000000" font-family="sans-serif" font-size="12" lengthAdjust="spacingAndGlyphs" textLength="75" x="165" y="445.7344">RegisterPage</text><line style="stroke: #0000FF; stroke-width: 1.5;" x1="137" x2="242" y1="453.2656" y2="453.2656"/><line style="stroke: #0000FF; stroke-width: 1.5;" x1="137" x2="242" y1="461.2656" y2="461.2656"/><!--class UserInfoControl--><rect fill="#D3D3D3" filter="url(#fvl6i56ae7t0n)" height="54.2656" id="UserInfoControl" style="stroke: #FF0000; stroke-width: 1.5;" width="120" x="61.5" y="529"/><ellipse cx="76.5" cy="548.1328" fill="#ADD1B2" rx="11" ry="11" style="stroke: #FF0000; stroke-width: 1.0;"/><path d="M79.4731,553.7759 Q78.8921,554.0747 78.2529,554.2241 Q77.6138,554.3735 76.9082,554.3735 Q74.4014,554.3735 73.0815,552.7217 Q71.7617,551.0698 71.7617,547.9487 Q71.7617,544.8193 73.0815,543.1675 Q74.4014,541.5156 76.9082,541.5156 Q77.6138,541.5156 78.2612,541.665 Q78.9087,541.8145 79.4731,542.1133 L79.4731,544.8359 Q78.8423,544.2549 78.2488,543.9851 Q77.6553,543.7153 77.0244,543.7153 Q75.6797,543.7153 74.9949,544.782 Q74.3101,545.8486 74.3101,547.9487 Q74.3101,550.0405 74.9949,551.1072 Q75.6797,552.1738 77.0244,552.1738 Q77.6553,552.1738 78.2488,551.9041 Q78.8423,551.6343 79.4731,551.0532 Z "/><text fill="#000000" font-family="sans-serif" font-size="12" font-style="italic" lengthAdjust="spacingAndGlyphs" textLength="51" x="109" y="545.6016">«control»</text><text fill="#000000" font-family="sans-serif" font-size="12" lengthAdjust="spacingAndGlyphs" textLength="88" x="90.5" y="559.7344">UserInfoControl</text><line style="stroke: #FF0000; stroke-width: 1.5;" x1="62.5" x2="180.5" y1="567.2656" y2="567.2656"/><line style="stroke: #FF0000; stroke-width: 1.5;" x1="62.5" x2="180.5" y1="575.2656" y2="575.2656"/><!--class LocalVSSManagerPage--><rect fill="#ADD8E6" filter="url(#fvl6i56ae7t0n)" height="54.2656" id="LocalVSSManagerPage" style="stroke: #0000FF; stroke-width: 1.5;" width="159" x="1047" y="415"/><ellipse cx="1062" cy="434.1328" fill="#ADD1B2" rx="11" ry="11" style="stroke: #0000FF; stroke-width: 1.0;"/><path d="M1064.9731,439.7759 Q1064.3921,440.0747 1063.7529,440.2241 Q1063.1138,440.3735 1062.4082,440.3735 Q1059.9014,440.3735 1058.5815,438.7217 Q1057.2617,437.0698 1057.2617,433.9487 Q1057.2617,430.8193 1058.5815,429.1675 Q1059.9014,427.5156 1062.4082,427.5156 Q1063.1138,427.5156 1063.7612,427.665 Q1064.4087,427.8145 1064.9731,428.1133 L1064.9731,430.8359 Q1064.3423,430.2549 1063.7488,429.9851 Q1063.1553,429.7153 1062.5244,429.7153 Q1061.1797,429.7153 1060.4949,430.782 Q1059.8101,431.8486 1059.8101,433.9487 Q1059.8101,436.0405 1060.4949,437.1072 Q1061.1797,438.1738 1062.5244,438.1738 Q1063.1553,438.1738 1063.7488,437.9041 Q1064.3423,437.6343 1064.9731,437.0532 Z "/><text fill="#000000" font-family="sans-serif" font-size="12" font-style="italic" lengthAdjust="spacingAndGlyphs" textLength="67" x="1106" y="431.6016">«boundary»</text><text fill="#000000" font-family="sans-serif" font-size="12" lengthAdjust="spacingAndGlyphs" textLength="127" x="1076" y="445.7344">LocalVSSManagerPage</text><line style="stroke: #0000FF; stroke-width: 1.5;" x1="1048" x2="1205" y1="453.2656" y2="453.2656"/><line style="stroke: #0000FF; stroke-width: 1.5;" x1="1048" x2="1205" y1="461.2656" y2="461.2656"/><!--class User--><rect fill="#FFFFE0" filter="url(#fvl6i56ae7t0n)" height="54.2656" id="User" style="stroke: #FFFF00; stroke-width: 1.5;" width="71" x="86" y="643"/><ellipse cx="101" cy="662.1328" fill="#ADD1B2" rx="11" ry="11" style="stroke: #FFFF00; stroke-width: 1.0;"/><path d="M103.9731,667.7759 Q103.3921,668.0747 102.7529,668.2241 Q102.1138,668.3735 101.4082,668.3735 Q98.9014,668.3735 97.5815,666.7217 Q96.2617,665.0698 96.2617,661.9487 Q96.2617,658.8193 97.5815,657.1675 Q98.9014,655.5156 101.4082,655.5156 Q102.1138,655.5156 102.7612,655.665 Q103.4087,655.8145 103.9731,656.1133 L103.9731,658.8359 Q103.3423,658.2549 102.7488,657.9851 Q102.1553,657.7153 101.5244,657.7153 Q100.1797,657.7153 99.4949,658.782 Q98.8101,659.8486 98.8101,661.9487 Q98.8101,664.0405 99.4949,665.1072 Q100.1797,666.1738 101.5244,666.1738 Q102.1553,666.1738 102.7488,665.9041 Q103.3423,665.6343 103.9731,665.0532 Z "/><text fill="#000000" font-family="sans-serif" font-size="12" font-style="italic" lengthAdjust="spacingAndGlyphs" textLength="43" x="113" y="659.6016">«entity»</text><text fill="#000000" font-family="sans-serif" font-size="12" lengthAdjust="spacingAndGlyphs" textLength="26" x="121.5" y="673.7344">User</text><line style="stroke: #FFFF00; stroke-width: 1.5;" x1="87" x2="156" y1="681.2656" y2="681.2656"/><line style="stroke: #FFFF00; stroke-width: 1.5;" x1="87" x2="156" y1="689.2656" y2="689.2656"/><!--class LoginPage--><rect fill="#ADD8E6" filter="url(#fvl6i56ae7t0n)" height="54.2656" id="LoginPage" style="stroke: #0000FF; stroke-width: 1.5;" width="95" x="6" y="415"/><ellipse cx="21" cy="434.1328" fill="#ADD1B2" rx="11" ry="11" style="stroke: #0000FF; stroke-width: 1.0;"/><path d="M23.9731,439.7759 Q23.3921,440.0747 22.7529,440.2241 Q22.1138,440.3735 21.4082,440.3735 Q18.9014,440.3735 17.5815,438.7217 Q16.2617,437.0698 16.2617,433.9487 Q16.2617,430.8193 17.5815,429.1675 Q18.9014,427.5156 21.4082,427.5156 Q22.1138,427.5156 22.7612,427.665 Q23.4087,427.8145 23.9731,428.1133 L23.9731,430.8359 Q23.3423,430.2549 22.7488,429.9851 Q22.1553,429.7153 21.5244,429.7153 Q20.1797,429.7153 19.4949,430.782 Q18.8101,431.8486 18.8101,433.9487 Q18.8101,436.0405 19.4949,437.1072 Q20.1797,438.1738 21.5244,438.1738 Q22.1553,438.1738 22.7488,437.9041 Q23.3423,437.6343 23.9731,437.0532 Z "/><text fill="#000000" font-family="sans-serif" font-size="12" font-style="italic" lengthAdjust="spacingAndGlyphs" textLength="67" x="33" y="431.6016">«boundary»</text><text fill="#000000" font-family="sans-serif" font-size="12" lengthAdjust="spacingAndGlyphs" textLength="58" x="37.5" y="445.7344">LoginPage</text><line style="stroke: #0000FF; stroke-width: 1.5;" x1="7" x2="100" y1="453.2656" y2="453.2656"/><line style="stroke: #0000FF; stroke-width: 1.5;" x1="7" x2="100" y1="461.2656" y2="461.2656"/><!--class LocalVSSLibraryControl--><rect fill="#D3D3D3" filter="url(#fvl6i56ae7t0n)" height="54.2656" id="LocalVSSLibraryControl" style="stroke: #FF0000; stroke-width: 1.5;" width="162" x="1045.5" y="529"/><ellipse cx="1060.5" cy="548.1328" fill="#ADD1B2" rx="11" ry="11" style="stroke: #FF0000; stroke-width: 1.0;"/><path d="M1063.4731,553.7759 Q1062.8921,554.0747 1062.2529,554.2241 Q1061.6138,554.3735 1060.9082,554.3735 Q1058.4014,554.3735 1057.0815,552.7217 Q1055.7617,551.0698 1055.7617,547.9487 Q1055.7617,544.8193 1057.0815,543.1675 Q1058.4014,541.5156 1060.9082,541.5156 Q1061.6138,541.5156 1062.2612,541.665 Q1062.9087,541.8145 1063.4731,542.1133 L1063.4731,544.8359 Q1062.8423,544.2549 1062.2488,543.9851 Q1061.6553,543.7153 1061.0244,543.7153 Q1059.6797,543.7153 1058.9949,544.782 Q1058.3101,545.8486 1058.3101,547.9487 Q1058.3101,550.0405 1058.9949,551.1072 Q1059.6797,552.1738 1061.0244,552.1738 Q1061.6553,552.1738 1062.2488,551.9041 Q1062.8423,551.6343 1063.4731,551.0532 Z "/><text fill="#000000" font-family="sans-serif" font-size="12" font-style="italic" lengthAdjust="spacingAndGlyphs" textLength="51" x="1114" y="545.6016">«control»</text><text fill="#000000" font-family="sans-serif" font-size="12" lengthAdjust="spacingAndGlyphs" textLength="130" x="1074.5" y="559.7344">LocalVSSLibraryControl</text><line style="stroke: #FF0000; stroke-width: 1.5;" x1="1046.5" x2="1206.5" y1="567.2656" y2="567.2656"/><line style="stroke: #FF0000; stroke-width: 1.5;" x1="1046.5" x2="1206.5" y1="575.2656" y2="575.2656"/><!--class LocalSoundSpaceLibrary--><rect fill="#FFFFE0" filter="url(#fvl6i56ae7t0n)" height="54.2656" id="LocalSoundSpaceLibrary" style="stroke: #FFFF00; stroke-width: 1.5;" width="170" x="1022.5" y="643"/><ellipse cx="1037.5" cy="662.1328" fill="#ADD1B2" rx="11" ry="11" style="stroke: #FFFF00; stroke-width: 1.0;"/><path d="M1040.4731,667.7759 Q1039.8921,668.0747 1039.2529,668.2241 Q1038.6138,668.3735 1037.9082,668.3735 Q1035.4014,668.3735 1034.0815,666.7217 Q1032.7617,665.0698 1032.7617,661.9487 Q1032.7617,658.8193 1034.0815,657.1675 Q1035.4014,655.5156 1037.9082,655.5156 Q1038.6138,655.5156 1039.2612,655.665 Q1039.9087,655.8145 1040.4731,656.1133 L1040.4731,658.8359 Q1039.8423,658.2549 1039.2488,657.9851 Q1038.6553,657.7153 1038.0244,657.7153 Q1036.6797,657.7153 1035.9949,658.782 Q1035.3101,659.8486 1035.3101,661.9487 Q1035.3101,664.0405 1035.9949,665.1072 Q1036.6797,666.1738 1038.0244,666.1738 Q1038.6553,666.1738 1039.2488,665.9041 Q1039.8423,665.6343 1040.4731,665.0532 Z "/><text fill="#000000" font-family="sans-serif" font-size="12" font-style="italic" lengthAdjust="spacingAndGlyphs" textLength="43" x="1099" y="659.6016">«entity»</text><text fill="#000000" font-family="sans-serif" font-size="12" lengthAdjust="spacingAndGlyphs" textLength="138" x="1051.5" y="673.7344">LocalSoundSpaceLibrary</text><line style="stroke: #FFFF00; stroke-width: 1.5;" x1="1023.5" x2="1191.5" y1="681.2656" y2="681.2656"/><line style="stroke: #FFFF00; stroke-width: 1.5;" x1="1023.5" x2="1191.5" y1="689.2656" y2="689.2656"/><!--class PreviewLocalMapPage--><rect fill="#ADD8E6" filter="url(#fvl6i56ae7t0n)" height="54.2656" id="PreviewLocalMapPage" style="stroke: #0000FF; stroke-width: 1.5;" width="158" x="429.5" y="529"/><ellipse cx="444.5" cy="548.1328" fill="#ADD1B2" rx="11" ry="11" style="stroke: #0000FF; stroke-width: 1.0;"/><path d="M447.4731,553.7759 Q446.8921,554.0747 446.2529,554.2241 Q445.6138,554.3735 444.9082,554.3735 Q442.4014,554.3735 441.0815,552.7217 Q439.7617,551.0698 439.7617,547.9487 Q439.7617,544.8193 441.0815,543.1675 Q442.4014,541.5156 444.9082,541.5156 Q445.6138,541.5156 446.2612,541.665 Q446.9087,541.8145 447.4731,542.1133 L447.4731,544.8359 Q446.8423,544.2549 446.2488,543.9851 Q445.6553,543.7153 445.0244,543.7153 Q443.6797,543.7153 442.9949,544.782 Q442.3101,545.8486 442.3101,547.9487 Q442.3101,550.0405 442.9949,551.1072 Q443.6797,552.1738 445.0244,552.1738 Q445.6553,552.1738 446.2488,551.9041 Q446.8423,551.6343 447.4731,551.0532 Z "/><text fill="#000000" font-family="sans-serif" font-size="12" font-style="italic" lengthAdjust="spacingAndGlyphs" textLength="67" x="488" y="545.6016">«boundary»</text><text fill="#000000" font-family="sans-serif" font-size="12" lengthAdjust="spacingAndGlyphs" textLength="126" x="458.5" y="559.7344">PreviewLocalMapPage</text><line style="stroke: #0000FF; stroke-width: 1.5;" x1="430.5" x2="586.5" y1="567.2656" y2="567.2656"/><line style="stroke: #0000FF; stroke-width: 1.5;" x1="430.5" x2="586.5" y1="575.2656" y2="575.2656"/><!--class PreviewLocalConcertPage--><rect fill="#ADD8E6" filter="url(#fvl6i56ae7t0n)" height="54.2656" id="PreviewLocalConcertPage" style="stroke: #0000FF; stroke-width: 1.5;" width="177" x="217" y="529"/><ellipse cx="232" cy="548.1328" fill="#ADD1B2" rx="11" ry="11" style="stroke: #0000FF; stroke-width: 1.0;"/><path d="M234.9731,553.7759 Q234.3921,554.0747 233.7529,554.2241 Q233.1138,554.3735 232.4082,554.3735 Q229.9014,554.3735 228.5815,552.7217 Q227.2617,551.0698 227.2617,547.9487 Q227.2617,544.8193 228.5815,543.1675 Q229.9014,541.5156 232.4082,541.5156 Q233.1138,541.5156 233.7612,541.665 Q234.4087,541.8145 234.9731,542.1133 L234.9731,544.8359 Q234.3423,544.2549 233.7488,543.9851 Q233.1553,543.7153 232.5244,543.7153 Q231.1797,543.7153 230.4949,544.782 Q229.8101,545.8486 229.8101,547.9487 Q229.8101,550.0405 230.4949,551.1072 Q231.1797,552.1738 232.5244,552.1738 Q233.1553,552.1738 233.7488,551.9041 Q234.3423,551.6343 234.9731,551.0532 Z "/><text fill="#000000" font-family="sans-serif" font-size="12" font-style="italic" lengthAdjust="spacingAndGlyphs" textLength="67" x="285" y="545.6016">«boundary»</text><text fill="#000000" font-family="sans-serif" font-size="12" lengthAdjust="spacingAndGlyphs" textLength="145" x="246" y="559.7344">PreviewLocalConcertPage</text><line style="stroke: #0000FF; stroke-width: 1.5;" x1="218" x2="393" y1="567.2656" y2="567.2656"/><line style="stroke: #0000FF; stroke-width: 1.5;" x1="218" x2="393" y1="575.2656" y2="575.2656"/><!--class CreateVSSPage--><rect fill="#ADD8E6" filter="url(#fvl6i56ae7t0n)" height="54.2656" id="CreateVSSPage" style="stroke: #0000FF; stroke-width: 1.5;" width="118" x="1062.5" y="301"/><ellipse cx="1077.5" cy="320.1328" fill="#ADD1B2" rx="11" ry="11" style="stroke: #0000FF; stroke-width: 1.0;"/><path d="M1080.4731,325.7759 Q1079.8921,326.0747 1079.2529,326.2241 Q1078.6138,326.3735 1077.9082,326.3735 Q1075.4014,326.3735 1074.0815,324.7217 Q1072.7617,323.0698 1072.7617,319.9487 Q1072.7617,316.8193 1074.0815,315.1675 Q1075.4014,313.5156 1077.9082,313.5156 Q1078.6138,313.5156 1079.2612,313.665 Q1079.9087,313.8145 1080.4731,314.1133 L1080.4731,316.8359 Q1079.8423,316.2549 1079.2488,315.9851 Q1078.6553,315.7153 1078.0244,315.7153 Q1076.6797,315.7153 1075.9949,316.782 Q1075.3101,317.8486 1075.3101,319.9487 Q1075.3101,322.0405 1075.9949,323.1072 Q1076.6797,324.1738 1078.0244,324.1738 Q1078.6553,324.1738 1079.2488,323.9041 Q1079.8423,323.6343 1080.4731,323.0532 Z "/><text fill="#000000" font-family="sans-serif" font-size="12" font-style="italic" lengthAdjust="spacingAndGlyphs" textLength="67" x="1101" y="317.6016">«boundary»</text><text fill="#000000" font-family="sans-serif" font-size="12" lengthAdjust="spacingAndGlyphs" textLength="86" x="1091.5" y="331.7344">CreateVSSPage</text><line style="stroke: #0000FF; stroke-width: 1.5;" x1="1063.5" x2="1179.5" y1="339.2656" y2="339.2656"/><line style="stroke: #0000FF; stroke-width: 1.5;" x1="1063.5" x2="1179.5" y1="347.2656" y2="347.2656"/><!--class CreateMapVSSPage--><rect fill="#ADD8E6" filter="url(#fvl6i56ae7t0n)" height="54.2656" id="CreateMapVSSPage" style="stroke: #0000FF; stroke-width: 1.5;" width="143" x="1245" y="415"/><ellipse cx="1260" cy="434.1328" fill="#ADD1B2" rx="11" ry="11" style="stroke: #0000FF; stroke-width: 1.0;"/><path d="M1262.9731,439.7759 Q1262.3921,440.0747 1261.7529,440.2241 Q1261.1138,440.3735 1260.4082,440.3735 Q1257.9014,440.3735 1256.5815,438.7217 Q1255.2617,437.0698 1255.2617,433.9487 Q1255.2617,430.8193 1256.5815,429.1675 Q1257.9014,427.5156 1260.4082,427.5156 Q1261.1138,427.5156 1261.7612,427.665 Q1262.4087,427.8145 1262.9731,428.1133 L1262.9731,430.8359 Q1262.3423,430.2549 1261.7488,429.9851 Q1261.1553,429.7153 1260.5244,429.7153 Q1259.1797,429.7153 1258.4949,430.782 Q1257.8101,431.8486 1257.8101,433.9487 Q1257.8101,436.0405 1258.4949,437.1072 Q1259.1797,438.1738 1260.5244,438.1738 Q1261.1553,438.1738 1261.7488,437.9041 Q1262.3423,437.6343 1262.9731,437.0532 Z "/><text fill="#000000" font-family="sans-serif" font-size="12" font-style="italic" lengthAdjust="spacingAndGlyphs" textLength="67" x="1296" y="431.6016">«boundary»</text><text fill="#000000" font-family="sans-serif" font-size="12" lengthAdjust="spacingAndGlyphs" textLength="111" x="1274" y="445.7344">CreateMapVSSPage</text><line style="stroke: #0000FF; stroke-width: 1.5;" x1="1246" x2="1387" y1="453.2656" y2="453.2656"/><line style="stroke: #0000FF; stroke-width: 1.5;" x1="1246" x2="1387" y1="461.2656" y2="461.2656"/><!--class CreateMapVSSControl--><rect fill="#D3D3D3" filter="url(#fvl6i56ae7t0n)" height="54.2656" id="CreateMapVSSControl" style="stroke: #FF0000; stroke-width: 1.5;" width="156" x="1242.5" y="529"/><ellipse cx="1257.5" cy="548.1328" fill="#ADD1B2" rx="11" ry="11" style="stroke: #FF0000; stroke-width: 1.0;"/><path d="M1260.4731,553.7759 Q1259.8921,554.0747 1259.2529,554.2241 Q1258.6138,554.3735 1257.9082,554.3735 Q1255.4014,554.3735 1254.0815,552.7217 Q1252.7617,551.0698 1252.7617,547.9487 Q1252.7617,544.8193 1254.0815,543.1675 Q1255.4014,541.5156 1257.9082,541.5156 Q1258.6138,541.5156 1259.2612,541.665 Q1259.9087,541.8145 1260.4731,542.1133 L1260.4731,544.8359 Q1259.8423,544.2549 1259.2488,543.9851 Q1258.6553,543.7153 1258.0244,543.7153 Q1256.6797,543.7153 1255.9949,544.782 Q1255.3101,545.8486 1255.3101,547.9487 Q1255.3101,550.0405 1255.9949,551.1072 Q1256.6797,552.1738 1258.0244,552.1738 Q1258.6553,552.1738 1259.2488,551.9041 Q1259.8423,551.6343 1260.4731,551.0532 Z "/><text fill="#000000" font-family="sans-serif" font-size="12" font-style="italic" lengthAdjust="spacingAndGlyphs" textLength="51" x="1308" y="545.6016">«control»</text><text fill="#000000" font-family="sans-serif" font-size="12" lengthAdjust="spacingAndGlyphs" textLength="124" x="1271.5" y="559.7344">CreateMapVSSControl</text><line style="stroke: #FF0000; stroke-width: 1.5;" x1="1243.5" x2="1397.5" y1="567.2656" y2="567.2656"/><line style="stroke: #FF0000; stroke-width: 1.5;" x1="1243.5" x2="1397.5" y1="575.2656" y2="575.2656"/><!--class Sensor--><rect fill="#FFFFE0" filter="url(#fvl6i56ae7t0n)" height="131.9961" id="Sensor" style="stroke: #FFFF00; stroke-width: 1.5;" width="245" x="1508" y="871"/><ellipse cx="1606.75" cy="890.1328" fill="#ADD1B2" rx="11" ry="11" style="stroke: #FFFF00; stroke-width: 1.0;"/><path d="M1609.7231,895.7759 Q1609.1421,896.0747 1608.5029,896.2241 Q1607.8638,896.3735 1607.1582,896.3735 Q1604.6514,896.3735 1603.3315,894.7217 Q1602.0117,893.0698 1602.0117,889.9487 Q1602.0117,886.8193 1603.3315,885.1675 Q1604.6514,883.5156 1607.1582,883.5156 Q1607.8638,883.5156 1608.5112,883.665 Q1609.1587,883.8145 1609.7231,884.1133 L1609.7231,886.8359 Q1609.0923,886.2549 1608.4988,885.9851 Q1607.9053,885.7153 1607.2744,885.7153 Q1605.9297,885.7153 1605.2449,886.782 Q1604.5601,887.8486 1604.5601,889.9487 Q1604.5601,892.0405 1605.2449,893.1072 Q1605.9297,894.1738 1607.2744,894.1738 Q1607.9053,894.1738 1608.4988,893.9041 Q1609.0923,893.6343 1609.7231,893.0532 Z "/><text fill="#000000" font-family="sans-serif" font-size="12" font-style="italic" lengthAdjust="spacingAndGlyphs" textLength="43" x="1625.25" y="887.6016">«entity»</text><text fill="#000000" font-family="sans-serif" font-size="12" lengthAdjust="spacingAndGlyphs" textLength="38" x="1627.75" y="901.7344">Sensor</text><line style="stroke: #FFFF00; stroke-width: 1.5;" x1="1509" x2="1752" y1="909.2656" y2="909.2656"/><line style="stroke: #FFFF00; stroke-width: 1.5;" x1="1509" x2="1752" y1="917.2656" y2="917.2656"/><text fill="#000000" font-family="sans-serif" font-size="11" lengthAdjust="spacingAndGlyphs" textLength="85" x="1514" y="931.9004">void clearTask()</text><text fill="#000000" font-family="sans-serif" font-size="11" lengthAdjust="spacingAndGlyphs" textLength="141" x="1514" y="944.8555">Quaternion getHeadPose()</text><text fill="#000000" font-family="sans-serif" font-size="11" lengthAdjust="spacingAndGlyphs" textLength="233" x="1514" y="957.8105">void callWhenUpdatedDelay(int millisecond)</text><text fill="#000000" font-family="sans-serif" font-size="11" lengthAdjust="spacingAndGlyphs" textLength="193" x="1514" y="970.7656">void callWhenUpdated(Callable task)</text><text fill="#000000" font-family="sans-serif" font-size="11" lengthAdjust="spacingAndGlyphs" textLength="135" x="1514" y="983.7207">boolean isSensorOnline()</text><text fill="#000000" font-family="sans-serif" font-size="11" lengthAdjust="spacingAndGlyphs" textLength="159" x="1514" y="996.6758">Position getCurrentLocation()</text><!--class VirtualSoundSpace--><rect fill="#FFFFE0" filter="url(#fvl6i56ae7t0n)" height="54.2656" id="VirtualSoundSpace" style="stroke: #FFFF00; stroke-width: 1.5;" width="138" x="739.5" y="757"/><ellipse cx="754.5" cy="776.1328" fill="#ADD1B2" rx="11" ry="11" style="stroke: #FFFF00; stroke-width: 1.0;"/><path d="M757.4731,781.7759 Q756.8921,782.0747 756.2529,782.2241 Q755.6138,782.3735 754.9082,782.3735 Q752.4014,782.3735 751.0815,780.7217 Q749.7617,779.0698 749.7617,775.9487 Q749.7617,772.8193 751.0815,771.1675 Q752.4014,769.5156 754.9082,769.5156 Q755.6138,769.5156 756.2612,769.665 Q756.9087,769.8145 757.4731,770.1133 L757.4731,772.8359 Q756.8423,772.2549 756.2488,771.9851 Q755.6553,771.7153 755.0244,771.7153 Q753.6797,771.7153 752.9949,772.782 Q752.3101,773.8486 752.3101,775.9487 Q752.3101,778.0405 752.9949,779.1072 Q753.6797,780.1738 755.0244,780.1738 Q755.6553,780.1738 756.2488,779.9041 Q756.8423,779.6343 757.4731,779.0532 Z "/><text fill="#000000" font-family="sans-serif" font-size="12" font-style="italic" lengthAdjust="spacingAndGlyphs" textLength="43" x="800" y="773.6016">«entity»</text><text fill="#000000" font-family="sans-serif" font-size="12" lengthAdjust="spacingAndGlyphs" textLength="106" x="768.5" y="787.7344">VirtualSoundSpace</text><line style="stroke: #FFFF00; stroke-width: 1.5;" x1="740.5" x2="876.5" y1="795.2656" y2="795.2656"/><line style="stroke: #FFFF00; stroke-width: 1.5;" x1="740.5" x2="876.5" y1="803.2656" y2="803.2656"/><!--class SoundSource--><rect fill="#FFFFE0" filter="url(#fvl6i56ae7t0n)" height="54.2656" id="SoundSource" style="stroke: #FFFF00; stroke-width: 1.5;" width="105" x="817" y="910"/><ellipse cx="832" cy="929.1328" fill="#ADD1B2" rx="11" ry="11" style="stroke: #FFFF00; stroke-width: 1.0;"/><path d="M834.9731,934.7759 Q834.3921,935.0747 833.7529,935.2241 Q833.1138,935.3735 832.4082,935.3735 Q829.9014,935.3735 828.5815,933.7217 Q827.2617,932.0698 827.2617,928.9487 Q827.2617,925.8193 828.5815,924.1675 Q829.9014,922.5156 832.4082,922.5156 Q833.1138,922.5156 833.7612,922.665 Q834.4087,922.8145 834.9731,923.1133 L834.9731,925.8359 Q834.3423,925.2549 833.7488,924.9851 Q833.1553,924.7153 832.5244,924.7153 Q831.1797,924.7153 830.4949,925.782 Q829.8101,926.8486 829.8101,928.9487 Q829.8101,931.0405 830.4949,932.1072 Q831.1797,933.1738 832.5244,933.1738 Q833.1553,933.1738 833.7488,932.9041 Q834.3423,932.6343 834.9731,932.0532 Z "/><text fill="#000000" font-family="sans-serif" font-size="12" font-style="italic" lengthAdjust="spacingAndGlyphs" textLength="43" x="861" y="926.6016">«entity»</text><text fill="#000000" font-family="sans-serif" font-size="12" lengthAdjust="spacingAndGlyphs" textLength="73" x="846" y="940.7344">SoundSource</text><line style="stroke: #FFFF00; stroke-width: 1.5;" x1="818" x2="921" y1="948.2656" y2="948.2656"/><line style="stroke: #FFFF00; stroke-width: 1.5;" x1="818" x2="921" y1="956.2656" y2="956.2656"/><!--class CreateConcertVSSPage--><rect fill="#ADD8E6" filter="url(#fvl6i56ae7t0n)" height="54.2656" id="CreateConcertVSSPage" style="stroke: #0000FF; stroke-width: 1.5;" width="162" x="845.5" y="415"/><ellipse cx="860.5" cy="434.1328" fill="#ADD1B2" rx="11" ry="11" style="stroke: #0000FF; stroke-width: 1.0;"/><path d="M863.4731,439.7759 Q862.8921,440.0747 862.2529,440.2241 Q861.6138,440.3735 860.9082,440.3735 Q858.4014,440.3735 857.0815,438.7217 Q855.7617,437.0698 855.7617,433.9487 Q855.7617,430.8193 857.0815,429.1675 Q858.4014,427.5156 860.9082,427.5156 Q861.6138,427.5156 862.2612,427.665 Q862.9087,427.8145 863.4731,428.1133 L863.4731,430.8359 Q862.8423,430.2549 862.2488,429.9851 Q861.6553,429.7153 861.0244,429.7153 Q859.6797,429.7153 858.9949,430.782 Q858.3101,431.8486 858.3101,433.9487 Q858.3101,436.0405 858.9949,437.1072 Q859.6797,438.1738 861.0244,438.1738 Q861.6553,438.1738 862.2488,437.9041 Q862.8423,437.6343 863.4731,437.0532 Z "/><text fill="#000000" font-family="sans-serif" font-size="12" font-style="italic" lengthAdjust="spacingAndGlyphs" textLength="67" x="906" y="431.6016">«boundary»</text><text fill="#000000" font-family="sans-serif" font-size="12" lengthAdjust="spacingAndGlyphs" textLength="130" x="874.5" y="445.7344">CreateConcertVSSPage</text><line style="stroke: #0000FF; stroke-width: 1.5;" x1="846.5" x2="1006.5" y1="453.2656" y2="453.2656"/><line style="stroke: #0000FF; stroke-width: 1.5;" x1="846.5" x2="1006.5" y1="461.2656" y2="461.2656"/><!--class CreateConcertVSSControl--><rect fill="#D3D3D3" filter="url(#fvl6i56ae7t0n)" height="54.2656" id="CreateConcertVSSControl" style="stroke: #FF0000; stroke-width: 1.5;" width="175" x="835" y="529"/><ellipse cx="850" cy="548.1328" fill="#ADD1B2" rx="11" ry="11" style="stroke: #FF0000; stroke-width: 1.0;"/><path d="M852.9731,553.7759 Q852.3921,554.0747 851.7529,554.2241 Q851.1138,554.3735 850.4082,554.3735 Q847.9014,554.3735 846.5815,552.7217 Q845.2617,551.0698 845.2617,547.9487 Q845.2617,544.8193 846.5815,543.1675 Q847.9014,541.5156 850.4082,541.5156 Q851.1138,541.5156 851.7612,541.665 Q852.4087,541.8145 852.9731,542.1133 L852.9731,544.8359 Q852.3423,544.2549 851.7488,543.9851 Q851.1553,543.7153 850.5244,543.7153 Q849.1797,543.7153 848.4949,544.782 Q847.8101,545.8486 847.8101,547.9487 Q847.8101,550.0405 848.4949,551.1072 Q849.1797,552.1738 850.5244,552.1738 Q851.1553,552.1738 851.7488,551.9041 Q852.3423,551.6343 852.9731,551.0532 Z "/><text fill="#000000" font-family="sans-serif" font-size="12" font-style="italic" lengthAdjust="spacingAndGlyphs" textLength="51" x="910" y="545.6016">«control»</text><text fill="#000000" font-family="sans-serif" font-size="12" lengthAdjust="spacingAndGlyphs" textLength="143" x="864" y="559.7344">CreateConcertVSSControl</text><line style="stroke: #FF0000; stroke-width: 1.5;" x1="836" x2="1009" y1="567.2656" y2="567.2656"/><line style="stroke: #FF0000; stroke-width: 1.5;" x1="836" x2="1009" y1="575.2656" y2="575.2656"/><!--class PreviewOnlineMapPage--><rect fill="#ADD8E6" filter="url(#fvl6i56ae7t0n)" height="54.2656" id="PreviewOnlineMapPage" style="stroke: #0000FF; stroke-width: 1.5;" width="165" x="352" y="301"/><ellipse cx="367" cy="320.1328" fill="#ADD1B2" rx="11" ry="11" style="stroke: #0000FF; stroke-width: 1.0;"/><path d="M369.9731,325.7759 Q369.3921,326.0747 368.7529,326.2241 Q368.1138,326.3735 367.4082,326.3735 Q364.9014,326.3735 363.5815,324.7217 Q362.2617,323.0698 362.2617,319.9487 Q362.2617,316.8193 363.5815,315.1675 Q364.9014,313.5156 367.4082,313.5156 Q368.1138,313.5156 368.7612,313.665 Q369.4087,313.8145 369.9731,314.1133 L369.9731,316.8359 Q369.3423,316.2549 368.7488,315.9851 Q368.1553,315.7153 367.5244,315.7153 Q366.1797,315.7153 365.4949,316.782 Q364.8101,317.8486 364.8101,319.9487 Q364.8101,322.0405 365.4949,323.1072 Q366.1797,324.1738 367.5244,324.1738 Q368.1553,324.1738 368.7488,323.9041 Q369.3423,323.6343 369.9731,323.0532 Z "/><text fill="#000000" font-family="sans-serif" font-size="12" font-style="italic" lengthAdjust="spacingAndGlyphs" textLength="67" x="414" y="317.6016">«boundary»</text><text fill="#000000" font-family="sans-serif" font-size="12" lengthAdjust="spacingAndGlyphs" textLength="133" x="381" y="331.7344">PreviewOnlineMapPage</text><line style="stroke: #0000FF; stroke-width: 1.5;" x1="353" x2="516" y1="339.2656" y2="339.2656"/><line style="stroke: #0000FF; stroke-width: 1.5;" x1="353" x2="516" y1="347.2656" y2="347.2656"/><!--class PreviewOnlineMapControl--><rect fill="#D3D3D3" filter="url(#fvl6i56ae7t0n)" height="54.2656" id="PreviewOnlineMapControl" style="stroke: #FF0000; stroke-width: 1.5;" width="178" x="341.5" y="415"/><ellipse cx="356.5" cy="434.1328" fill="#ADD1B2" rx="11" ry="11" style="stroke: #FF0000; stroke-width: 1.0;"/><path d="M359.4731,439.7759 Q358.8921,440.0747 358.2529,440.2241 Q357.6138,440.3735 356.9082,440.3735 Q354.4014,440.3735 353.0815,438.7217 Q351.7617,437.0698 351.7617,433.9487 Q351.7617,430.8193 353.0815,429.1675 Q354.4014,427.5156 356.9082,427.5156 Q357.6138,427.5156 358.2612,427.665 Q358.9087,427.8145 359.4731,428.1133 L359.4731,430.8359 Q358.8423,430.2549 358.2488,429.9851 Q357.6553,429.7153 357.0244,429.7153 Q355.6797,429.7153 354.9949,430.782 Q354.3101,431.8486 354.3101,433.9487 Q354.3101,436.0405 354.9949,437.1072 Q355.6797,438.1738 357.0244,438.1738 Q357.6553,438.1738 358.2488,437.9041 Q358.8423,437.6343 359.4731,437.0532 Z "/><text fill="#000000" font-family="sans-serif" font-size="12" font-style="italic" lengthAdjust="spacingAndGlyphs" textLength="51" x="418" y="431.6016">«control»</text><text fill="#000000" font-family="sans-serif" font-size="12" lengthAdjust="spacingAndGlyphs" textLength="146" x="370.5" y="445.7344">PreviewOnlineMapControl</text><line style="stroke: #FF0000; stroke-width: 1.5;" x1="342.5" x2="518.5" y1="453.2656" y2="453.2656"/><line style="stroke: #FF0000; stroke-width: 1.5;" x1="342.5" x2="518.5" y1="461.2656" y2="461.2656"/><!--class PreviewOnlineConcertPage--><rect fill="#ADD8E6" filter="url(#fvl6i56ae7t0n)" height="54.2656" id="PreviewOnlineConcertPage" style="stroke: #0000FF; stroke-width: 1.5;" width="184" x="555.5" y="301"/><ellipse cx="570.5" cy="320.1328" fill="#ADD1B2" rx="11" ry="11" style="stroke: #0000FF; stroke-width: 1.0;"/><path d="M573.4731,325.7759 Q572.8921,326.0747 572.2529,326.2241 Q571.6138,326.3735 570.9082,326.3735 Q568.4014,326.3735 567.0815,324.7217 Q565.7617,323.0698 565.7617,319.9487 Q565.7617,316.8193 567.0815,315.1675 Q568.4014,313.5156 570.9082,313.5156 Q571.6138,313.5156 572.2612,313.665 Q572.9087,313.8145 573.4731,314.1133 L573.4731,316.8359 Q572.8423,316.2549 572.2488,315.9851 Q571.6553,315.7153 571.0244,315.7153 Q569.6797,315.7153 568.9949,316.782 Q568.3101,317.8486 568.3101,319.9487 Q568.3101,322.0405 568.9949,323.1072 Q569.6797,324.1738 571.0244,324.1738 Q571.6553,324.1738 572.2488,323.9041 Q572.8423,323.6343 573.4731,323.0532 Z "/><text fill="#000000" font-family="sans-serif" font-size="12" font-style="italic" lengthAdjust="spacingAndGlyphs" textLength="67" x="627" y="317.6016">«boundary»</text><text fill="#000000" font-family="sans-serif" font-size="12" lengthAdjust="spacingAndGlyphs" textLength="152" x="584.5" y="331.7344">PreviewOnlineConcertPage</text><line style="stroke: #0000FF; stroke-width: 1.5;" x1="556.5" x2="738.5" y1="339.2656" y2="339.2656"/><line style="stroke: #0000FF; stroke-width: 1.5;" x1="556.5" x2="738.5" y1="347.2656" y2="347.2656"/><!--class PreviewOnlineConcertControl--><rect fill="#D3D3D3" filter="url(#fvl6i56ae7t0n)" height="54.2656" id="PreviewOnlineConcertControl" style="stroke: #FF0000; stroke-width: 1.5;" width="197" x="555" y="415"/><ellipse cx="570" cy="434.1328" fill="#ADD1B2" rx="11" ry="11" style="stroke: #FF0000; stroke-width: 1.0;"/><path d="M572.9731,439.7759 Q572.3921,440.0747 571.7529,440.2241 Q571.1138,440.3735 570.4082,440.3735 Q567.9014,440.3735 566.5815,438.7217 Q565.2617,437.0698 565.2617,433.9487 Q565.2617,430.8193 566.5815,429.1675 Q567.9014,427.5156 570.4082,427.5156 Q571.1138,427.5156 571.7612,427.665 Q572.4087,427.8145 572.9731,428.1133 L572.9731,430.8359 Q572.3423,430.2549 571.7488,429.9851 Q571.1553,429.7153 570.5244,429.7153 Q569.1797,429.7153 568.4949,430.782 Q567.8101,431.8486 567.8101,433.9487 Q567.8101,436.0405 568.4949,437.1072 Q569.1797,438.1738 570.5244,438.1738 Q571.1553,438.1738 571.7488,437.9041 Q572.3423,437.6343 572.9731,437.0532 Z "/><text fill="#000000" font-family="sans-serif" font-size="12" font-style="italic" lengthAdjust="spacingAndGlyphs" textLength="51" x="641" y="431.6016">«control»</text><text fill="#000000" font-family="sans-serif" font-size="12" lengthAdjust="spacingAndGlyphs" textLength="165" x="584" y="445.7344">PreviewOnlineConcertControl</text><line style="stroke: #FF0000; stroke-width: 1.5;" x1="556" x2="751" y1="453.2656" y2="453.2656"/><line style="stroke: #FF0000; stroke-width: 1.5;" x1="556" x2="751" y1="461.2656" y2="461.2656"/><!--class OnlineSoundSpaceLibrary--><rect fill="#FFFFE0" filter="url(#fvl6i56ae7t0n)" height="54.2656" id="OnlineSoundSpaceLibrary" style="stroke: #FFFF00; stroke-width: 1.5;" width="177" x="623" y="529"/><ellipse cx="638" cy="548.1328" fill="#ADD1B2" rx="11" ry="11" style="stroke: #FFFF00; stroke-width: 1.0;"/><path d="M640.9731,553.7759 Q640.3921,554.0747 639.7529,554.2241 Q639.1138,554.3735 638.4082,554.3735 Q635.9014,554.3735 634.5815,552.7217 Q633.2617,551.0698 633.2617,547.9487 Q633.2617,544.8193 634.5815,543.1675 Q635.9014,541.5156 638.4082,541.5156 Q639.1138,541.5156 639.7612,541.665 Q640.4087,541.8145 640.9731,542.1133 L640.9731,544.8359 Q640.3423,544.2549 639.7488,543.9851 Q639.1553,543.7153 638.5244,543.7153 Q637.1797,543.7153 636.4949,544.782 Q635.8101,545.8486 635.8101,547.9487 Q635.8101,550.0405 636.4949,551.1072 Q637.1797,552.1738 638.5244,552.1738 Q639.1553,552.1738 639.7488,551.9041 Q640.3423,551.6343 640.9731,551.0532 Z "/><text fill="#000000" font-family="sans-serif" font-size="12" font-style="italic" lengthAdjust="spacingAndGlyphs" textLength="43" x="703" y="545.6016">«entity»</text><text fill="#000000" font-family="sans-serif" font-size="12" lengthAdjust="spacingAndGlyphs" textLength="145" x="652" y="559.7344">OnlineSoundSpaceLibrary</text><line style="stroke: #FFFF00; stroke-width: 1.5;" x1="624" x2="799" y1="567.2656" y2="567.2656"/><line style="stroke: #FFFF00; stroke-width: 1.5;" x1="624" x2="799" y1="575.2656" y2="575.2656"/><!--class PreviewLocalMapControl--><rect fill="#D3D3D3" filter="url(#fvl6i56ae7t0n)" height="54.2656" id="PreviewLocalMapControl" style="stroke: #FF0000; stroke-width: 1.5;" width="171" x="517" y="643"/><ellipse cx="532" cy="662.1328" fill="#ADD1B2" rx="11" ry="11" style="stroke: #FF0000; stroke-width: 1.0;"/><path d="M534.9731,667.7759 Q534.3921,668.0747 533.7529,668.2241 Q533.1138,668.3735 532.4082,668.3735 Q529.9014,668.3735 528.5815,666.7217 Q527.2617,665.0698 527.2617,661.9487 Q527.2617,658.8193 528.5815,657.1675 Q529.9014,655.5156 532.4082,655.5156 Q533.1138,655.5156 533.7612,655.665 Q534.4087,655.8145 534.9731,656.1133 L534.9731,658.8359 Q534.3423,658.2549 533.7488,657.9851 Q533.1553,657.7153 532.5244,657.7153 Q531.1797,657.7153 530.4949,658.782 Q529.8101,659.8486 529.8101,661.9487 Q529.8101,664.0405 530.4949,665.1072 Q531.1797,666.1738 532.5244,666.1738 Q533.1553,666.1738 533.7488,665.9041 Q534.3423,665.6343 534.9731,665.0532 Z "/><text fill="#000000" font-family="sans-serif" font-size="12" font-style="italic" lengthAdjust="spacingAndGlyphs" textLength="51" x="590" y="659.6016">«control»</text><text fill="#000000" font-family="sans-serif" font-size="12" lengthAdjust="spacingAndGlyphs" textLength="139" x="546" y="673.7344">PreviewLocalMapControl</text><line style="stroke: #FF0000; stroke-width: 1.5;" x1="518" x2="687" y1="681.2656" y2="681.2656"/><line style="stroke: #FF0000; stroke-width: 1.5;" x1="518" x2="687" y1="689.2656" y2="689.2656"/><!--class PreviewLocalConcertControl--><rect fill="#D3D3D3" filter="url(#fvl6i56ae7t0n)" height="54.2656" id="PreviewLocalConcertControl" style="stroke: #FF0000; stroke-width: 1.5;" width="190" x="291.5" y="643"/><ellipse cx="306.5" cy="662.1328" fill="#ADD1B2" rx="11" ry="11" style="stroke: #FF0000; stroke-width: 1.0;"/><path d="M309.4731,667.7759 Q308.8921,668.0747 308.2529,668.2241 Q307.6138,668.3735 306.9082,668.3735 Q304.4014,668.3735 303.0815,666.7217 Q301.7617,665.0698 301.7617,661.9487 Q301.7617,658.8193 303.0815,657.1675 Q304.4014,655.5156 306.9082,655.5156 Q307.6138,655.5156 308.2612,655.665 Q308.9087,655.8145 309.4731,656.1133 L309.4731,658.8359 Q308.8423,658.2549 308.2488,657.9851 Q307.6553,657.7153 307.0244,657.7153 Q305.6797,657.7153 304.9949,658.782 Q304.3101,659.8486 304.3101,661.9487 Q304.3101,664.0405 304.9949,665.1072 Q305.6797,666.1738 307.0244,666.1738 Q307.6553,666.1738 308.2488,665.9041 Q308.8423,665.6343 309.4731,665.0532 Z "/><text fill="#000000" font-family="sans-serif" font-size="12" font-style="italic" lengthAdjust="spacingAndGlyphs" textLength="51" x="374" y="659.6016">«control»</text><text fill="#000000" font-family="sans-serif" font-size="12" lengthAdjust="spacingAndGlyphs" textLength="158" x="320.5" y="673.7344">PreviewLocalConcertControl</text><line style="stroke: #FF0000; stroke-width: 1.5;" x1="292.5" x2="480.5" y1="681.2656" y2="681.2656"/><line style="stroke: #FF0000; stroke-width: 1.5;" x1="292.5" x2="480.5" y1="689.2656" y2="689.2656"/><!--class PlayMapModeVSSPage--><rect fill="#ADD8E6" filter="url(#fvl6i56ae7t0n)" height="54.2656" id="PlayMapModeVSSPage" style="stroke: #0000FF; stroke-width: 1.5;" width="160" x="1449.5" y="415"/><ellipse cx="1464.5" cy="434.1328" fill="#ADD1B2" rx="11" ry="11" style="stroke: #0000FF; stroke-width: 1.0;"/><path d="M1467.4731,439.7759 Q1466.8921,440.0747 1466.2529,440.2241 Q1465.6138,440.3735 1464.9082,440.3735 Q1462.4014,440.3735 1461.0815,438.7217 Q1459.7617,437.0698 1459.7617,433.9487 Q1459.7617,430.8193 1461.0815,429.1675 Q1462.4014,427.5156 1464.9082,427.5156 Q1465.6138,427.5156 1466.2612,427.665 Q1466.9087,427.8145 1467.4731,428.1133 L1467.4731,430.8359 Q1466.8423,430.2549 1466.2488,429.9851 Q1465.6553,429.7153 1465.0244,429.7153 Q1463.6797,429.7153 1462.9949,430.782 Q1462.3101,431.8486 1462.3101,433.9487 Q1462.3101,436.0405 1462.9949,437.1072 Q1463.6797,438.1738 1465.0244,438.1738 Q1465.6553,438.1738 1466.2488,437.9041 Q1466.8423,437.6343 1467.4731,437.0532 Z "/><text fill="#000000" font-family="sans-serif" font-size="12" font-style="italic" lengthAdjust="spacingAndGlyphs" textLength="67" x="1509" y="431.6016">«boundary»</text><text fill="#000000" font-family="sans-serif" font-size="12" lengthAdjust="spacingAndGlyphs" textLength="128" x="1478.5" y="445.7344">PlayMapModeVSSPage</text><line style="stroke: #0000FF; stroke-width: 1.5;" x1="1450.5" x2="1608.5" y1="453.2656" y2="453.2656"/><line style="stroke: #0000FF; stroke-width: 1.5;" x1="1450.5" x2="1608.5" y1="461.2656" y2="461.2656"/><!--class MapVSSPlayControl--><rect fill="#D3D3D3" filter="url(#fvl6i56ae7t0n)" height="54.2656" id="MapVSSPlayControl" style="stroke: #FF0000; stroke-width: 1.5;" width="141" x="1459" y="529"/><ellipse cx="1474" cy="548.1328" fill="#ADD1B2" rx="11" ry="11" style="stroke: #FF0000; stroke-width: 1.0;"/><path d="M1476.9731,553.7759 Q1476.3921,554.0747 1475.7529,554.2241 Q1475.1138,554.3735 1474.4082,554.3735 Q1471.9014,554.3735 1470.5815,552.7217 Q1469.2617,551.0698 1469.2617,547.9487 Q1469.2617,544.8193 1470.5815,543.1675 Q1471.9014,541.5156 1474.4082,541.5156 Q1475.1138,541.5156 1475.7612,541.665 Q1476.4087,541.8145 1476.9731,542.1133 L1476.9731,544.8359 Q1476.3423,544.2549 1475.7488,543.9851 Q1475.1553,543.7153 1474.5244,543.7153 Q1473.1797,543.7153 1472.4949,544.782 Q1471.8101,545.8486 1471.8101,547.9487 Q1471.8101,550.0405 1472.4949,551.1072 Q1473.1797,552.1738 1474.5244,552.1738 Q1475.1553,552.1738 1475.7488,551.9041 Q1476.3423,551.6343 1476.9731,551.0532 Z "/><text fill="#000000" font-family="sans-serif" font-size="12" font-style="italic" lengthAdjust="spacingAndGlyphs" textLength="51" x="1517" y="545.6016">«control»</text><text fill="#000000" font-family="sans-serif" font-size="12" lengthAdjust="spacingAndGlyphs" textLength="109" x="1488" y="559.7344">MapVSSPlayControl</text><line style="stroke: #FF0000; stroke-width: 1.5;" x1="1460" x2="1599" y1="567.2656" y2="567.2656"/><line style="stroke: #FF0000; stroke-width: 1.5;" x1="1460" x2="1599" y1="575.2656" y2="575.2656"/><!--class GVRAudioEngine--><rect fill="#D3D3D3" filter="url(#fvl6i56ae7t0n)" height="54.2656" id="GVRAudioEngine" style="stroke: #FF0000; stroke-width: 1.5;" width="128" x="1582.5" y="643"/><ellipse cx="1597.5" cy="662.1328" fill="#ADD1B2" rx="11" ry="11" style="stroke: #FF0000; stroke-width: 1.0;"/><path d="M1600.4731,667.7759 Q1599.8921,668.0747 1599.2529,668.2241 Q1598.6138,668.3735 1597.9082,668.3735 Q1595.4014,668.3735 1594.0815,666.7217 Q1592.7617,665.0698 1592.7617,661.9487 Q1592.7617,658.8193 1594.0815,657.1675 Q1595.4014,655.5156 1597.9082,655.5156 Q1598.6138,655.5156 1599.2612,655.665 Q1599.9087,655.8145 1600.4731,656.1133 L1600.4731,658.8359 Q1599.8423,658.2549 1599.2488,657.9851 Q1598.6553,657.7153 1598.0244,657.7153 Q1596.6797,657.7153 1595.9949,658.782 Q1595.3101,659.8486 1595.3101,661.9487 Q1595.3101,664.0405 1595.9949,665.1072 Q1596.6797,666.1738 1598.0244,666.1738 Q1598.6553,666.1738 1599.2488,665.9041 Q1599.8423,665.6343 1600.4731,665.0532 Z "/><text fill="#000000" font-family="sans-serif" font-size="12" font-style="italic" lengthAdjust="spacingAndGlyphs" textLength="51" x="1634" y="659.6016">«control»</text><text fill="#000000" font-family="sans-serif" font-size="12" lengthAdjust="spacingAndGlyphs" textLength="96" x="1611.5" y="673.7344">GVRAudioEngine</text><line style="stroke: #FF0000; stroke-width: 1.5;" x1="1583.5" x2="1709.5" y1="681.2656" y2="681.2656"/><line style="stroke: #FF0000; stroke-width: 1.5;" x1="1583.5" x2="1709.5" y1="689.2656" y2="689.2656"/><!--class AdjustSensorPage--><rect fill="#ADD8E6" filter="url(#fvl6i56ae7t0n)" height="54.2656" id="AdjustSensorPage" style="stroke: #0000FF; stroke-width: 1.5;" width="135" x="1746" y="643"/><ellipse cx="1761" cy="662.1328" fill="#ADD1B2" rx="11" ry="11" style="stroke: #0000FF; stroke-width: 1.0;"/><path d="M1763.9731,667.7759 Q1763.3921,668.0747 1762.7529,668.2241 Q1762.1138,668.3735 1761.4082,668.3735 Q1758.9014,668.3735 1757.5815,666.7217 Q1756.2617,665.0698 1756.2617,661.9487 Q1756.2617,658.8193 1757.5815,657.1675 Q1758.9014,655.5156 1761.4082,655.5156 Q1762.1138,655.5156 1762.7612,655.665 Q1763.4087,655.8145 1763.9731,656.1133 L1763.9731,658.8359 Q1763.3423,658.2549 1762.7488,657.9851 Q1762.1553,657.7153 1761.5244,657.7153 Q1760.1797,657.7153 1759.4949,658.782 Q1758.8101,659.8486 1758.8101,661.9487 Q1758.8101,664.0405 1759.4949,665.1072 Q1760.1797,666.1738 1761.5244,666.1738 Q1762.1553,666.1738 1762.7488,665.9041 Q1763.3423,665.6343 1763.9731,665.0532 Z "/><text fill="#000000" font-family="sans-serif" font-size="12" font-style="italic" lengthAdjust="spacingAndGlyphs" textLength="67" x="1793" y="659.6016">«boundary»</text><text fill="#000000" font-family="sans-serif" font-size="12" lengthAdjust="spacingAndGlyphs" textLength="103" x="1775" y="673.7344">AdjustSensorPage</text><line style="stroke: #0000FF; stroke-width: 1.5;" x1="1747" x2="1880" y1="681.2656" y2="681.2656"/><line style="stroke: #0000FF; stroke-width: 1.5;" x1="1747" x2="1880" y1="689.2656" y2="689.2656"/><!--class PlayConcertModeVSSPage--><rect fill="#ADD8E6" filter="url(#fvl6i56ae7t0n)" height="54.2656" id="PlayConcertModeVSSPage" style="stroke: #0000FF; stroke-width: 1.5;" width="179" x="1684" y="415"/><ellipse cx="1699" cy="434.1328" fill="#ADD1B2" rx="11" ry="11" style="stroke: #0000FF; stroke-width: 1.0;"/><path d="M1701.9731,439.7759 Q1701.3921,440.0747 1700.7529,440.2241 Q1700.1138,440.3735 1699.4082,440.3735 Q1696.9014,440.3735 1695.5815,438.7217 Q1694.2617,437.0698 1694.2617,433.9487 Q1694.2617,430.8193 1695.5815,429.1675 Q1696.9014,427.5156 1699.4082,427.5156 Q1700.1138,427.5156 1700.7612,427.665 Q1701.4087,427.8145 1701.9731,428.1133 L1701.9731,430.8359 Q1701.3423,430.2549 1700.7488,429.9851 Q1700.1553,429.7153 1699.5244,429.7153 Q1698.1797,429.7153 1697.4949,430.782 Q1696.8101,431.8486 1696.8101,433.9487 Q1696.8101,436.0405 1697.4949,437.1072 Q1698.1797,438.1738 1699.5244,438.1738 Q1700.1553,438.1738 1700.7488,437.9041 Q1701.3423,437.6343 1701.9731,437.0532 Z "/><text fill="#000000" font-family="sans-serif" font-size="12" font-style="italic" lengthAdjust="spacingAndGlyphs" textLength="67" x="1753" y="431.6016">«boundary»</text><text fill="#000000" font-family="sans-serif" font-size="12" lengthAdjust="spacingAndGlyphs" textLength="147" x="1713" y="445.7344">PlayConcertModeVSSPage</text><line style="stroke: #0000FF; stroke-width: 1.5;" x1="1685" x2="1862" y1="453.2656" y2="453.2656"/><line style="stroke: #0000FF; stroke-width: 1.5;" x1="1685" x2="1862" y1="461.2656" y2="461.2656"/><!--class ConcertVSSPlayControl--><rect fill="#D3D3D3" filter="url(#fvl6i56ae7t0n)" height="54.2656" id="ConcertVSSPlayControl" style="stroke: #FF0000; stroke-width: 1.5;" width="160" x="1693.5" y="529"/><ellipse cx="1708.5" cy="548.1328" fill="#ADD1B2" rx="11" ry="11" style="stroke: #FF0000; stroke-width: 1.0;"/><path d="M1711.4731,553.7759 Q1710.8921,554.0747 1710.2529,554.2241 Q1709.6138,554.3735 1708.9082,554.3735 Q1706.4014,554.3735 1705.0815,552.7217 Q1703.7617,551.0698 1703.7617,547.9487 Q1703.7617,544.8193 1705.0815,543.1675 Q1706.4014,541.5156 1708.9082,541.5156 Q1709.6138,541.5156 1710.2612,541.665 Q1710.9087,541.8145 1711.4731,542.1133 L1711.4731,544.8359 Q1710.8423,544.2549 1710.2488,543.9851 Q1709.6553,543.7153 1709.0244,543.7153 Q1707.6797,543.7153 1706.9949,544.782 Q1706.3101,545.8486 1706.3101,547.9487 Q1706.3101,550.0405 1706.9949,551.1072 Q1707.6797,552.1738 1709.0244,552.1738 Q1709.6553,552.1738 1710.2488,551.9041 Q1710.8423,551.6343 1711.4731,551.0532 Z "/><text fill="#000000" font-family="sans-serif" font-size="12" font-style="italic" lengthAdjust="spacingAndGlyphs" textLength="51" x="1761" y="545.6016">«control»</text><text fill="#000000" font-family="sans-serif" font-size="12" lengthAdjust="spacingAndGlyphs" textLength="128" x="1722.5" y="559.7344">ConcertVSSPlayControl</text><line style="stroke: #FF0000; stroke-width: 1.5;" x1="1694.5" x2="1852.5" y1="567.2656" y2="567.2656"/><line style="stroke: #FF0000; stroke-width: 1.5;" x1="1694.5" x2="1852.5" y1="575.2656" y2="575.2656"/><!--class OnlineVSSViewerPage--><rect fill="#ADD8E6" filter="url(#fvl6i56ae7t0n)" height="54.2656" id="OnlineVSSViewerPage" style="stroke: #0000FF; stroke-width: 1.5;" width="155" x="464" y="34"/><ellipse cx="479" cy="53.1328" fill="#ADD1B2" rx="11" ry="11" style="stroke: #0000FF; stroke-width: 1.0;"/><path d="M481.9731,58.7759 Q481.3921,59.0747 480.7529,59.2241 Q480.1138,59.3735 479.4082,59.3735 Q476.9014,59.3735 475.5815,57.7217 Q474.2617,56.0698 474.2617,52.9487 Q474.2617,49.8193 475.5815,48.1675 Q476.9014,46.5156 479.4082,46.5156 Q480.1138,46.5156 480.7612,46.665 Q481.4087,46.8145 481.9731,47.1133 L481.9731,49.8359 Q481.3423,49.2549 480.7488,48.9851 Q480.1553,48.7153 479.5244,48.7153 Q478.1797,48.7153 477.4949,49.782 Q476.8101,50.8486 476.8101,52.9487 Q476.8101,55.0405 477.4949,56.1072 Q478.1797,57.1738 479.5244,57.1738 Q480.1553,57.1738 480.7488,56.9041 Q481.3423,56.6343 481.9731,56.0532 Z "/><text fill="#000000" font-family="sans-serif" font-size="12" font-style="italic" lengthAdjust="spacingAndGlyphs" textLength="67" x="521" y="50.6016">«boundary»</text><text fill="#000000" font-family="sans-serif" font-size="12" lengthAdjust="spacingAndGlyphs" textLength="123" x="493" y="64.7344">OnlineVSSViewerPage</text><line style="stroke: #0000FF; stroke-width: 1.5;" x1="465" x2="618" y1="72.2656" y2="72.2656"/><line style="stroke: #0000FF; stroke-width: 1.5;" x1="465" x2="618" y1="80.2656" y2="80.2656"/><!--class AdjustSensorControl--><rect fill="#D3D3D3" filter="url(#fvl6i56ae7t0n)" height="54.2656" id="AdjustSensorControl" style="stroke: #FF0000; stroke-width: 1.5;" width="148" x="1658.5" y="757"/><ellipse cx="1673.5" cy="776.1328" fill="#ADD1B2" rx="11" ry="11" style="stroke: #FF0000; stroke-width: 1.0;"/><path d="M1676.4731,781.7759 Q1675.8921,782.0747 1675.2529,782.2241 Q1674.6138,782.3735 1673.9082,782.3735 Q1671.4014,782.3735 1670.0815,780.7217 Q1668.7617,779.0698 1668.7617,775.9487 Q1668.7617,772.8193 1670.0815,771.1675 Q1671.4014,769.5156 1673.9082,769.5156 Q1674.6138,769.5156 1675.2612,769.665 Q1675.9087,769.8145 1676.4731,770.1133 L1676.4731,772.8359 Q1675.8423,772.2549 1675.2488,771.9851 Q1674.6553,771.7153 1674.0244,771.7153 Q1672.6797,771.7153 1671.9949,772.782 Q1671.3101,773.8486 1671.3101,775.9487 Q1671.3101,778.0405 1671.9949,779.1072 Q1672.6797,780.1738 1674.0244,780.1738 Q1674.6553,780.1738 1675.2488,779.9041 Q1675.8423,779.6343 1676.4731,779.0532 Z "/><text fill="#000000" font-family="sans-serif" font-size="12" font-style="italic" lengthAdjust="spacingAndGlyphs" textLength="51" x="1720" y="773.6016">«control»</text><text fill="#000000" font-family="sans-serif" font-size="12" lengthAdjust="spacingAndGlyphs" textLength="116" x="1687.5" y="787.7344">AdjustSensorControl</text><line style="stroke: #FF0000; stroke-width: 1.5;" x1="1659.5" x2="1805.5" y1="795.2656" y2="795.2656"/><line style="stroke: #FF0000; stroke-width: 1.5;" x1="1659.5" x2="1805.5" y1="803.2656" y2="803.2656"/><!--class SoundFragment--><rect fill="#FFFFE0" filter="url(#fvl6i56ae7t0n)" height="54.2656" id="SoundFragment" style="stroke: #FFFF00; stroke-width: 1.5;" width="121" x="866" y="643"/><ellipse cx="881" cy="662.1328" fill="#ADD1B2" rx="11" ry="11" style="stroke: #FFFF00; stroke-width: 1.0;"/><path d="M883.9731,667.7759 Q883.3921,668.0747 882.7529,668.2241 Q882.1138,668.3735 881.4082,668.3735 Q878.9014,668.3735 877.5815,666.7217 Q876.2617,665.0698 876.2617,661.9487 Q876.2617,658.8193 877.5815,657.1675 Q878.9014,655.5156 881.4082,655.5156 Q882.1138,655.5156 882.7612,655.665 Q883.4087,655.8145 883.9731,656.1133 L883.9731,658.8359 Q883.3423,658.2549 882.7488,657.9851 Q882.1553,657.7153 881.5244,657.7153 Q880.1797,657.7153 879.4949,658.782 Q878.8101,659.8486 878.8101,661.9487 Q878.8101,664.0405 879.4949,665.1072 Q880.1797,666.1738 881.5244,666.1738 Q882.1553,666.1738 882.7488,665.9041 Q883.3423,665.6343 883.9731,665.0532 Z "/><text fill="#000000" font-family="sans-serif" font-size="12" font-style="italic" lengthAdjust="spacingAndGlyphs" textLength="43" x="918" y="659.6016">«entity»</text><text fill="#000000" font-family="sans-serif" font-size="12" lengthAdjust="spacingAndGlyphs" textLength="89" x="895" y="673.7344">SoundFragment</text><line style="stroke: #FFFF00; stroke-width: 1.5;" x1="867" x2="986" y1="681.2656" y2="681.2656"/><line style="stroke: #FFFF00; stroke-width: 1.5;" x1="867" x2="986" y1="689.2656" y2="689.2656"/><!--class OnlineVSSLibraryControl--><rect fill="#D3D3D3" filter="url(#fvl6i56ae7t0n)" height="54.2656" id="OnlineVSSLibraryControl" style="stroke: #FF0000; stroke-width: 1.5;" width="169" x="457" y="180.5"/><ellipse cx="472" cy="199.6328" fill="#ADD1B2" rx="11" ry="11" style="stroke: #FF0000; stroke-width: 1.0;"/><path d="M474.9731,205.2759 Q474.3921,205.5747 473.7529,205.7241 Q473.1138,205.8735 472.4082,205.8735 Q469.9014,205.8735 468.5815,204.2217 Q467.2617,202.5698 467.2617,199.4487 Q467.2617,196.3193 468.5815,194.6675 Q469.9014,193.0156 472.4082,193.0156 Q473.1138,193.0156 473.7612,193.165 Q474.4087,193.3145 474.9731,193.6133 L474.9731,196.3359 Q474.3423,195.7549 473.7488,195.4851 Q473.1553,195.2153 472.5244,195.2153 Q471.1797,195.2153 470.4949,196.282 Q469.8101,197.3486 469.8101,199.4487 Q469.8101,201.5405 470.4949,202.6072 Q471.1797,203.6738 472.5244,203.6738 Q473.1553,203.6738 473.7488,203.4041 Q474.3423,203.1343 474.9731,202.5532 Z "/><text fill="#000000" font-family="sans-serif" font-size="12" font-style="italic" lengthAdjust="spacingAndGlyphs" textLength="51" x="529" y="197.1016">«control»</text><text fill="#000000" font-family="sans-serif" font-size="12" lengthAdjust="spacingAndGlyphs" textLength="137" x="486" y="211.2344">OnlineVSSLibraryControl</text><line style="stroke: #FF0000; stroke-width: 1.5;" x1="458" x2="625" y1="218.7656" y2="218.7656"/><line style="stroke: #FF0000; stroke-width: 1.5;" x1="458" x2="625" y1="226.7656" y2="226.7656"/><!--class Quaternion--><rect fill="#FFFFE0" filter="url(#fvl6i56ae7t0n)" height="106.0859" id="Quaternion" style="stroke: #FFFF00; stroke-width: 1.5;" width="95" x="222" y="8"/><ellipse cx="237" cy="27.1328" fill="#ADD1B2" rx="11" ry="11" style="stroke: #FFFF00; stroke-width: 1.0;"/><path d="M239.9731,32.7759 Q239.3921,33.0747 238.7529,33.2241 Q238.1138,33.3735 237.4082,33.3735 Q234.9014,33.3735 233.5815,31.7217 Q232.2617,30.0698 232.2617,26.9487 Q232.2617,23.8193 233.5815,22.1675 Q234.9014,20.5156 237.4082,20.5156 Q238.1138,20.5156 238.7612,20.665 Q239.4087,20.8145 239.9731,21.1133 L239.9731,23.8359 Q239.3423,23.2549 238.7488,22.9851 Q238.1553,22.7153 237.5244,22.7153 Q236.1797,22.7153 235.4949,23.782 Q234.8101,24.8486 234.8101,26.9487 Q234.8101,29.0405 235.4949,30.1072 Q236.1797,31.1738 237.5244,31.1738 Q238.1553,31.1738 238.7488,30.9041 Q239.3423,30.6343 239.9731,30.0532 Z "/><text fill="#000000" font-family="sans-serif" font-size="12" font-style="italic" lengthAdjust="spacingAndGlyphs" textLength="43" x="261" y="24.6016">«entity»</text><text fill="#000000" font-family="sans-serif" font-size="12" lengthAdjust="spacingAndGlyphs" textLength="63" x="251" y="38.7344">Quaternion</text><line style="stroke: #FFFF00; stroke-width: 1.5;" x1="223" x2="316" y1="46.2656" y2="46.2656"/><text fill="#000000" font-family="sans-serif" font-size="11" lengthAdjust="spacingAndGlyphs" textLength="38" x="228" y="60.9004">w: float</text><text fill="#000000" font-family="sans-serif" font-size="11" lengthAdjust="spacingAndGlyphs" textLength="37" x="228" y="73.8555">x: float</text><text fill="#000000" font-family="sans-serif" font-size="11" lengthAdjust="spacingAndGlyphs" textLength="36" x="228" y="86.8105">y: float</text><text fill="#000000" font-family="sans-serif" font-size="11" lengthAdjust="spacingAndGlyphs" textLength="36" x="228" y="99.7656">z: float</text><line style="stroke: #FFFF00; stroke-width: 1.5;" x1="223" x2="316" y1="106.0859" y2="106.0859"/><!--class Position--><rect fill="#FFFFE0" filter="url(#fvl6i56ae7t0n)" height="93.1309" id="Position" style="stroke: #FFFF00; stroke-width: 1.5;" width="76" x="352.5" y="14.5"/><ellipse cx="367.5" cy="33.6328" fill="#ADD1B2" rx="11" ry="11" style="stroke: #FFFF00; stroke-width: 1.0;"/><path d="M370.4731,39.2759 Q369.8921,39.5747 369.2529,39.7241 Q368.6138,39.8735 367.9082,39.8735 Q365.4014,39.8735 364.0815,38.2217 Q362.7617,36.5698 362.7617,33.4487 Q362.7617,30.3193 364.0815,28.6675 Q365.4014,27.0156 367.9082,27.0156 Q368.6138,27.0156 369.2612,27.165 Q369.9087,27.3145 370.4731,27.6133 L370.4731,30.3359 Q369.8423,29.7549 369.2488,29.4851 Q368.6553,29.2153 368.0244,29.2153 Q366.6797,29.2153 365.9949,30.282 Q365.3101,31.3486 365.3101,33.4487 Q365.3101,35.5405 365.9949,36.6072 Q366.6797,37.6738 368.0244,37.6738 Q368.6553,37.6738 369.2488,37.4041 Q369.8423,37.1343 370.4731,36.5532 Z "/><text fill="#000000" font-family="sans-serif" font-size="12" font-style="italic" lengthAdjust="spacingAndGlyphs" textLength="43" x="382" y="31.1016">«entity»</text><text fill="#000000" font-family="sans-serif" font-size="12" lengthAdjust="spacingAndGlyphs" textLength="44" x="381.5" y="45.2344">Position</text><line style="stroke: #FFFF00; stroke-width: 1.5;" x1="353.5" x2="427.5" y1="52.7656" y2="52.7656"/><text fill="#000000" font-family="sans-serif" font-size="11" lengthAdjust="spacingAndGlyphs" textLength="37" x="358.5" y="67.4004">x: float</text><text fill="#000000" font-family="sans-serif" font-size="11" lengthAdjust="spacingAndGlyphs" textLength="36" x="358.5" y="80.3555">y: float</text><text fill="#000000" font-family="sans-serif" font-size="11" lengthAdjust="spacingAndGlyphs" textLength="36" x="358.5" y="93.3105">z: float</text><line style="stroke: #FFFF00; stroke-width: 1.5;" x1="353.5" x2="427.5" y1="99.6309" y2="99.6309"/><!--class Callable--><rect fill="#FFFFE0" filter="url(#fvl6i56ae7t0n)" height="67.2207" id="Callable" style="stroke: #FFFF00; stroke-width: 1.5;" width="78" x="230.5" y="174"/><ellipse cx="245.5" cy="193.1328" fill="#B4A7E5" rx="11" ry="11" style="stroke: #FFFF00; stroke-width: 1.0;"/><path d="M241.4277,188.8979 L241.4277,186.7397 L248.8071,186.7397 L248.8071,188.8979 L246.3418,188.8979 L246.3418,196.9746 L248.8071,196.9746 L248.8071,199.1328 L241.4277,199.1328 L241.4277,196.9746 L243.8931,196.9746 L243.8931,188.8979 Z "/><text fill="#000000" font-family="sans-serif" font-size="12" font-style="italic" lengthAdjust="spacingAndGlyphs" textLength="43" x="261" y="190.6016">«entity»</text><text fill="#000000" font-family="sans-serif" font-size="12" font-style="italic" lengthAdjust="spacingAndGlyphs" textLength="46" x="259.5" y="204.7344">Callable</text><line style="stroke: #FFFF00; stroke-width: 1.5;" x1="231.5" x2="307.5" y1="212.2656" y2="212.2656"/><line style="stroke: #FFFF00; stroke-width: 1.5;" x1="231.5" x2="307.5" y1="220.2656" y2="220.2656"/><text fill="#000000" font-family="sans-serif" font-size="11" lengthAdjust="spacingAndGlyphs" textLength="56" x="236.5" y="234.9004">run(): void</text><!--link UserInfoControl to User--><path d="M121.5,596.4809 C121.5,611.8344 121.5,628.9382 121.5,642.7824 " fill="none" id="UserInfoControl-User" style="stroke: #2E8B57; stroke-width: 1.0;"/><polygon fill="#FFFFFF" points="121.5,583.0164,117.5,589.0164,121.5,595.0164,125.5,589.0164,121.5,583.0164" style="stroke: #2E8B57; stroke-width: 1.0;"/><!--link LocalVSSManagerPage to LocalVSSLibraryControl--><path d="M1126.5,469.0164 C1126.5,487.0572 1126.5,510.7002 1126.5,528.7824 " fill="none" id="LocalVSSManagerPage-LocalVSSLibraryControl" style="stroke: #2E8B57; stroke-width: 1.0; stroke-dasharray: 7.0,7.0;"/><text fill="#000000" font-family="sans-serif" font-size="13" lengthAdjust="spacingAndGlyphs" textLength="28" x="1095.0875" y="490.0036">view</text><text fill="#000000" font-family="sans-serif" font-size="13" lengthAdjust="spacingAndGlyphs" textLength="61" x="1058.4469" y="518.3275">controller</text><!--link LocalVSSLibraryControl to LocalSoundSpaceLibrary--><path d="M1121.9973,583.0164 C1119.2723,599.3659 1115.7806,620.3164 1112.9068,637.5594 " fill="none" id="LocalVSSLibraryControl-LocalSoundSpaceLibrary" style="stroke: #2E8B57; stroke-width: 1.0; stroke-dasharray: 7.0,7.0;"/><polygon fill="#2E8B57" points="1112.0363,642.7824,1117.4617,634.5626,1112.8584,637.8505,1109.5706,633.2472,1112.0363,642.7824" style="stroke: #2E8B57; stroke-width: 1.0;"/><!--link CreateMapVSSPage to CreateMapVSSControl--><path d="M1317.4479,469.0164 C1318.081,487.0572 1318.9105,510.7002 1319.545,528.7824 " fill="none" id="CreateMapVSSPage-CreateMapVSSControl" style="stroke: #2E8B57; stroke-width: 1.0; stroke-dasharray: 7.0,7.0;"/><!--link CreateMapVSSControl to LocalSoundSpaceLibrary--><path d="M1270.022,583.0164 C1237.6447,600.3451 1195.6105,622.8422 1162.4023,640.6157 " fill="none" id="CreateMapVSSControl-LocalSoundSpaceLibrary" style="stroke: #2E8B57; stroke-width: 1.0; stroke-dasharray: 7.0,7.0;"/><polygon fill="#2E8B57" points="1157.9844,642.9802,1167.8069,642.2599,1162.3927,640.6208,1164.0318,635.2066,1157.9844,642.9802" style="stroke: #2E8B57; stroke-width: 1.0;"/><!--link LocalSoundSpaceLibrary to VirtualSoundSpace--><path d="M1036.6412,697.0164 C990.1433,714.7447 929.457,737.8826 882.3644,755.8377 " fill="none" id="LocalSoundSpaceLibrary-VirtualSoundSpace" style="stroke: #2E8B57; stroke-width: 1.0; stroke-dasharray: 7.0,7.0;"/><polygon fill="#2E8B57" points="877.5616,757.6688,887.3961,758.2001,882.2335,755.8875,884.5461,750.725,877.5616,757.6688" style="stroke: #2E8B57; stroke-width: 1.0;"/><!--link LoginPage to UserInfoControl--><path d="M69.6151,469.0164 C79.5355,485.6478 92.2959,507.0402 102.6795,524.4479 " fill="none" id="LoginPage-UserInfoControl" style="stroke: #2E8B57; stroke-width: 1.0; stroke-dasharray: 7.0,7.0;"/><polygon fill="#2E8B57" points="105.265,528.7824,104.0898,519.0039,102.7036,524.4883,97.2192,523.1022,105.265,528.7824" style="stroke: #2E8B57; stroke-width: 1.0;"/><!--link RegisterPage to UserInfoControl--><path d="M173.3849,469.0164 C163.4645,485.6478 150.7041,507.0402 140.3205,524.4479 " fill="none" id="RegisterPage-UserInfoControl" style="stroke: #2E8B57; stroke-width: 1.0; stroke-dasharray: 7.0,7.0;"/><polygon fill="#2E8B57" points="137.735,528.7824,145.7808,523.1022,140.2964,524.4883,138.9102,519.0039,137.735,528.7824" style="stroke: #2E8B57; stroke-width: 1.0;"/><!--link CreateMapVSSControl to Sensor--><path d="M1342.5459,583.0951 C1390.135,641.5837 1503.7856,781.2639 1573.2301,866.6135 " fill="none" id="CreateMapVSSControl-Sensor" style="stroke: #2E8B57; stroke-width: 1.0; stroke-dasharray: 7.0,7.0;"/><polygon fill="#2E8B57" points="1576.5032,870.6361,1573.9257,861.1305,1573.3475,866.7577,1567.7203,866.1796,1576.5032,870.6361" style="stroke: #2E8B57; stroke-width: 1.0;"/><!--link CreateMapVSSControl to VirtualSoundSpace--><path d="M1306.8877,583.2579 C1289.2385,615.6521 1255.3301,668.8497 1210.5,697 C1156.6801,730.7953 983.3614,759.654 882.7357,774.1031 " fill="none" id="CreateMapVSSControl-VirtualSoundSpace" style="stroke: #2E8B57; stroke-width: 1.0; stroke-dasharray: 7.0,7.0;"/><polygon fill="#2E8B57" points="877.7025,774.8225,887.178,777.5086,882.6522,774.1149,886.0459,769.5891,877.7025,774.8225" style="stroke: #2E8B57; stroke-width: 1.0;"/><!--link CreateMapVSSControl to SoundSource--><path d="M1315.1931,583.0925 C1308.0674,613.6333 1292.8851,663.398 1264.5,697 C1170.6087,808.1477 1011.5607,882.2476 926.7584,916.021 " fill="none" id="CreateMapVSSControl-SoundSource" style="stroke: #2E8B57; stroke-width: 1.0; stroke-dasharray: 7.0,7.0;"/><polygon fill="#2E8B57" points="922.0293,917.8932,931.8698,918.2994,926.6782,916.0527,928.9249,910.8611,922.0293,917.8932" style="stroke: #2E8B57; stroke-width: 1.0;"/><!--link VirtualSoundSpace to SoundSource--><path d="M824.1209,823.1804 C834.9295,850.2903 849.0399,885.682 858.6373,909.7541 " fill="none" id="VirtualSoundSpace-SoundSource" style="stroke: #2E8B57; stroke-width: 1.0;"/><polygon fill="#FFFFFF" points="819.2652,811.0011,817.7717,818.0559,823.7094,822.1478,825.2029,815.0931,819.2652,811.0011" style="stroke: #2E8B57; stroke-width: 1.0;"/><!--link CreateConcertVSSPage to CreateConcertVSSControl--><path d="M925.5521,469.0164 C924.919,487.0572 924.0895,510.7002 923.455,528.7824 " fill="none" id="CreateConcertVSSPage-CreateConcertVSSControl" style="stroke: #2E8B57; stroke-width: 1.0; stroke-dasharray: 7.0,7.0;"/><!--link CreateConcertVSSControl to VirtualSoundSpace--><path d="M894.1052,583.0893 C878.6703,599.2028 860.3656,620.7879 848.5,643 C829.8563,677.9006 819.1032,722.4275 813.5337,752.0084 " fill="none" id="CreateConcertVSSControl-VirtualSoundSpace" style="stroke: #2E8B57; stroke-width: 1.0; stroke-dasharray: 7.0,7.0;"/><polygon fill="#2E8B57" points="812.6186,756.9874,818.1798,748.8589,813.5226,752.0698,810.3117,747.4125,812.6186,756.9874" style="stroke: #2E8B57; stroke-width: 1.0;"/><!--link CreateConcertVSSControl to LocalSoundSpaceLibrary--><path d="M966.3424,583.0164 C994.2339,600.2036 1030.3766,622.4753 1059.1071,640.1795 " fill="none" id="CreateConcertVSSControl-LocalSoundSpaceLibrary" style="stroke: #2E8B57; stroke-width: 1.0; stroke-dasharray: 7.0,7.0;"/><polygon fill="#2E8B57" points="1063.6521,642.9802,1058.0884,634.8534,1059.3954,640.3572,1053.8916,641.6642,1063.6521,642.9802" style="stroke: #2E8B57; stroke-width: 1.0;"/><!--link CreateConcertVSSControl to SoundSource--><path d="M834.7614,579.5391 C828.9392,580.7984 823.1472,581.9679 817.5,583 C697.8598,604.8661 354.6489,552.4088 273.5,643 C109.3196,826.2841 632.3441,908.2317 811.511,930.481 " fill="none" id="CreateConcertVSSControl-SoundSource" style="stroke: #2E8B57; stroke-width: 1.0; stroke-dasharray: 7.0,7.0;"/><polygon fill="#2E8B57" points="816.7105,931.1219,808.2676,926.0506,811.7481,930.51,807.2887,933.9905,816.7105,931.1219" style="stroke: #2E8B57; stroke-width: 1.0;"/><!--link PreviewOnlineConcertPage to PreviewOnlineConcertControl--><path d="M648.9219,355.0164 C649.8714,373.0572 651.1158,396.7002 652.0675,414.7824 " fill="none" id="PreviewOnlineConcertPage-PreviewOnlineConcertControl" style="stroke: #2E8B57; stroke-width: 1.0; stroke-dasharray: 7.0,7.0;"/><!--link PreviewOnlineMapPage to PreviewOnlineMapControl--><path d="M433.5521,355.0164 C432.919,373.0572 432.0895,396.7002 431.455,414.7824 " fill="none" id="PreviewOnlineMapPage-PreviewOnlineMapControl" style="stroke: #2E8B57; stroke-width: 1.0; stroke-dasharray: 7.0,7.0;"/><!--link PreviewOnlineMapControl to UserInfoControl--><path d="M357.2713,469.0164 C305.3177,488.1838 236.2239,513.6747 186.2761,532.102 " fill="none" id="PreviewOnlineMapControl-UserInfoControl" style="stroke: #2E8B57; stroke-width: 1.0; stroke-dasharray: 7.0,7.0;"/><polygon fill="#2E8B57" points="181.5034,533.8628,191.3316,534.5002,186.1943,532.1321,188.5624,526.9948,181.5034,533.8628" style="stroke: #2E8B57; stroke-width: 1.0;"/><!--link PreviewOnlineConcertControl to UserInfoControl--><path d="M554.8561,465.335 C548.9904,466.6061 543.1717,467.8374 537.5,469 C388.0371,499.6379 347.1577,490.5938 199.5,529 C195.3134,530.0889 191.0296,531.2965 186.7297,532.5796 " fill="none" id="PreviewOnlineConcertControl-UserInfoControl" style="stroke: #2E8B57; stroke-width: 1.0; stroke-dasharray: 7.0,7.0;"/><polygon fill="#2E8B57" points="181.6795,534.1179,191.4545,535.3218,186.4625,532.6609,189.1234,527.669,181.6795,534.1179" style="stroke: #2E8B57; stroke-width: 1.0;"/><!--link PreviewOnlineMapControl to OnlineSoundSpaceLibrary--><path d="M497.0931,469.0164 C540.1554,486.4865 596.1665,509.2099 640.1408,527.05 " fill="none" id="PreviewOnlineMapControl-OnlineSoundSpaceLibrary" style="stroke: #2E8B57; stroke-width: 1.0; stroke-dasharray: 7.0,7.0;"/><polygon fill="#2E8B57" points="644.8986,528.9802,638.0625,521.8902,640.2654,527.1005,635.055,529.3033,644.8986,528.9802" style="stroke: #2E8B57; stroke-width: 1.0;"/><!--link PreviewOnlineConcertControl to OnlineSoundSpaceLibrary--><path d="M667.2452,469.0164 C675.6351,485.5069 686.4063,506.6779 695.2216,524.0045 " fill="none" id="PreviewOnlineConcertControl-OnlineSoundSpaceLibrary" style="stroke: #2E8B57; stroke-width: 1.0; stroke-dasharray: 7.0,7.0;"/><polygon fill="#2E8B57" points="697.6525,528.7824,697.1365,518.9471,695.3852,524.326,690.0063,522.5747,697.6525,528.7824" style="stroke: #2E8B57; stroke-width: 1.0;"/><!--link OnlineSoundSpaceLibrary to VirtualSoundSpace--><path d="M723.0081,583.0499 C741.0203,625.3879 775.7918,707.1189 794.9737,752.2063 " fill="none" id="OnlineSoundSpaceLibrary-VirtualSoundSpace" style="stroke: #2E8B57; stroke-width: 1.0; stroke-dasharray: 7.0,7.0;"/><polygon fill="#2E8B57" points="797.0069,756.9853,797.1642,747.1377,795.0494,752.3844,789.8028,750.2696,797.0069,756.9853" style="stroke: #2E8B57; stroke-width: 1.0;"/><!--link OnlineSoundSpaceLibrary to LocalSoundSpaceLibrary--><path d="M800.3701,581.5838 C866.7283,600.6869 956.8688,626.6365 1022.322,645.4791 " fill="none" id="OnlineSoundSpaceLibrary-LocalSoundSpaceLibrary" style="stroke: #2E8B57; stroke-width: 1.0; stroke-dasharray: 7.0,7.0;"/><!--link PreviewLocalMapPage to PreviewLocalMapControl--><path d="M530.7767,583.0164 C545.6525,601.0572 565.1475,624.7002 580.0575,642.7824 " fill="none" id="PreviewLocalMapPage-PreviewLocalMapControl" style="stroke: #2E8B57; stroke-width: 1.0; stroke-dasharray: 7.0,7.0;"/><!--link PreviewLocalConcertPage to PreviewLocalConcertControl--><path d="M324.6959,583.0164 C337.5144,601.0572 354.3133,624.7002 367.1612,642.7824 " fill="none" id="PreviewLocalConcertPage-PreviewLocalConcertControl" style="stroke: #2E8B57; stroke-width: 1.0; stroke-dasharray: 7.0,7.0;"/><!--link PreviewLocalConcertControl to VirtualSoundSpace--><path d="M481.7312,695.726 C558.1731,716.3762 663.9762,744.958 734.2413,763.9396 " fill="none" id="PreviewLocalConcertControl-VirtualSoundSpace" style="stroke: #2E8B57; stroke-width: 1.0; stroke-dasharray: 7.0,7.0;"/><polygon fill="#2E8B57" points="739.238,765.2894,731.5927,759.0806,734.411,763.9854,729.5063,766.8038,739.238,765.2894" style="stroke: #2E8B57; stroke-width: 1.0;"/><!--link PreviewLocalMapControl to VirtualSoundSpace--><path d="M651.3191,697.0164 C682.5045,714.2743 722.9534,736.6587 755.0083,754.3978 " fill="none" id="PreviewLocalMapControl-VirtualSoundSpace" style="stroke: #2E8B57; stroke-width: 1.0; stroke-dasharray: 7.0,7.0;"/><polygon fill="#2E8B57" points="759.6748,756.9802,753.737,749.1225,755.3,754.5592,749.8634,756.1222,759.6748,756.9802" style="stroke: #2E8B57; stroke-width: 1.0;"/><!--link CreateVSSPage to CreateMapVSSPage--><path d="M1167.7123,355.0164 C1197.2324,372.2743 1235.5214,394.6587 1265.8647,412.3978 " fill="none" id="CreateVSSPage-CreateMapVSSPage" style="stroke: #2E8B57; stroke-width: 1.0; stroke-dasharray: 7.0,7.0;"/><polygon fill="#2E8B57" points="1270.2819,414.9802,1264.5312,406.9846,1265.9655,412.4566,1260.4935,413.8909,1270.2819,414.9802" style="stroke: #2E8B57; stroke-width: 1.0;"/><!--link CreateVSSPage to CreateConcertVSSPage--><path d="M1075.2877,355.0164 C1045.7676,372.2743 1007.4786,394.6587 977.1353,412.3978 " fill="none" id="CreateVSSPage-CreateConcertVSSPage" style="stroke: #2E8B57; stroke-width: 1.0; stroke-dasharray: 7.0,7.0;"/><polygon fill="#2E8B57" points="972.7181,414.9802,982.5065,413.8909,977.0345,412.4566,978.4688,406.9846,972.7181,414.9802" style="stroke: #2E8B57; stroke-width: 1.0;"/><!--link PlayMapModeVSSPage to MapVSSPlayControl--><path d="M1529.5,469.0164 C1529.5,487.0572 1529.5,510.7002 1529.5,528.7824 " fill="none" id="PlayMapModeVSSPage-MapVSSPlayControl" style="stroke: #2E8B57; stroke-width: 1.0; stroke-dasharray: 7.0,7.0;"/><!--link MapVSSPlayControl to LocalSoundSpaceLibrary--><path d="M1458.8667,575.081 C1387.1186,594.4632 1275.7416,624.5508 1197.6636,645.643 " fill="none" id="MapVSSPlayControl-LocalSoundSpaceLibrary" style="stroke: #2E8B57; stroke-width: 1.0; stroke-dasharray: 7.0,7.0;"/><polygon fill="#2E8B57" points="1192.5697,647.0191,1202.3014,648.5335,1197.3967,645.7151,1200.215,640.8103,1192.5697,647.0191" style="stroke: #2E8B57; stroke-width: 1.0;"/><!--link MapVSSPlayControl to VirtualSoundSpace--><path d="M1488.1643,583.0787 C1437.5007,615.0416 1348.0591,667.5595 1264.5,697 C1134.5024,742.8023 974.6914,766.2351 882.9138,776.7453 " fill="none" id="MapVSSPlayControl-VirtualSoundSpace" style="stroke: #2E8B57; stroke-width: 1.0; stroke-dasharray: 7.0,7.0;"/><polygon fill="#2E8B57" points="877.7821,777.3277,887.1758,780.2872,882.7502,776.7638,886.2736,772.3383,877.7821,777.3277" style="stroke: #2E8B57; stroke-width: 1.0;"/><!--link MapVSSPlayControl to Sensor--><path d="M1536.2852,583.0608 C1543.4371,611.4685 1555.0876,657.4182 1565.5,697 C1580.4707,753.9094 1597.9285,818.2629 1610.9797,865.996 " fill="none" id="MapVSSPlayControl-Sensor" style="stroke: #2E8B57; stroke-width: 1.0; stroke-dasharray: 7.0,7.0;"/><polygon fill="#2E8B57" points="1612.3085,870.8541,1613.7923,861.1177,1610.9894,866.0313,1606.0758,863.2283,1612.3085,870.8541" style="stroke: #2E8B57; stroke-width: 1.0;"/><!--link MapVSSPlayControl to GVRAudioEngine--><path d="M1557.2274,583.0164 C1574.4411,599.7887 1596.6242,621.4031 1614.5709,638.8896 " fill="none" id="MapVSSPlayControl-GVRAudioEngine" style="stroke: #2E8B57; stroke-width: 1.0; stroke-dasharray: 7.0,7.0;"/><polygon fill="#2E8B57" points="1618.5662,642.7824,1614.9117,633.6366,1614.9851,639.293,1609.3287,639.3664,1618.5662,642.7824" style="stroke: #2E8B57; stroke-width: 1.0;"/><!--link MapVSSPlayControl to AdjustSensorPage--><path d="M1596.804,583.0164 C1640.3261,600.4865 1696.9352,623.2099 1741.379,641.05 " fill="none" id="MapVSSPlayControl-AdjustSensorPage" style="stroke: #2E8B57; stroke-width: 1.0; stroke-dasharray: 7.0,7.0;"/><polygon fill="#2E8B57" points="1746.1875,642.9802,1739.3253,635.9155,1741.5474,641.1176,1736.3452,643.3397,1746.1875,642.9802" style="stroke: #2E8B57; stroke-width: 1.0;"/><!--link PlayConcertModeVSSPage to ConcertVSSPlayControl--><path d="M1773.5,469.0164 C1773.5,487.0572 1773.5,510.7002 1773.5,528.7824 " fill="none" id="PlayConcertModeVSSPage-ConcertVSSPlayControl" style="stroke: #2E8B57; stroke-width: 1.0; stroke-dasharray: 7.0,7.0;"/><!--link ConcertVSSPlayControl to LocalSoundSpaceLibrary--><path d="M1693.3432,569.9115 C1668.9885,574.1281 1642.151,578.7642 1617.5,583 C1470.5968,608.2427 1299.8424,637.3172 1197.8894,654.6485 " fill="none" id="ConcertVSSPlayControl-LocalSoundSpaceLibrary" style="stroke: #2E8B57; stroke-width: 1.0; stroke-dasharray: 7.0,7.0;"/><polygon fill="#2E8B57" points="1192.7852,655.5161,1202.3283,657.9511,1197.7145,654.6781,1200.9875,650.0643,1192.7852,655.5161" style="stroke: #2E8B57; stroke-width: 1.0;"/><!--link ConcertVSSPlayControl to Sensor--><path d="M1835.2997,583.0785 C1859.6063,597.1754 1884.9115,616.9866 1898.5,643 C1909.6121,664.2726 1905.3141,673.9876 1898.5,697 C1876.9833,769.666 1815.6563,827.3649 1757.091,867.9602 " fill="none" id="ConcertVSSPlayControl-Sensor" style="stroke: #2E8B57; stroke-width: 1.0; stroke-dasharray: 7.0,7.0;"/><polygon fill="#2E8B57" points="1752.8797,870.8534,1762.5628,869.054,1757.0008,868.0221,1758.0327,862.4602,1752.8797,870.8534" style="stroke: #2E8B57; stroke-width: 1.0;"/><!--link ConcertVSSPlayControl to GVRAudioEngine--><path d="M1743.4028,583.0164 C1724.5608,599.9297 1700.2336,621.7667 1680.6679,639.3296 " fill="none" id="ConcertVSSPlayControl-GVRAudioEngine" style="stroke: #2E8B57; stroke-width: 1.0; stroke-dasharray: 7.0,7.0;"/><polygon fill="#2E8B57" points="1676.8213,642.7824,1686.1908,639.7473,1680.5422,639.4425,1680.847,633.7939,1676.8213,642.7824" style="stroke: #2E8B57; stroke-width: 1.0;"/><!--link ConcertVSSPlayControl to AdjustSensorPage--><path d="M1782.9794,583.0164 C1788.7656,599.5069 1796.194,620.6779 1802.2735,638.0045 " fill="none" id="ConcertVSSPlayControl-AdjustSensorPage" style="stroke: #2E8B57; stroke-width: 1.0; stroke-dasharray: 7.0,7.0;"/><polygon fill="#2E8B57" points="1803.95,642.7824,1804.7444,632.9656,1802.2944,638.0644,1797.1956,635.6145,1803.95,642.7824" style="stroke: #2E8B57; stroke-width: 1.0;"/><!--link OnlineVSSViewerPage to OnlineVSSLibraryControl--><path d="M541.5,88.2122 C541.5,114.5259 541.5,154.1692 541.5,180.4335 " fill="none" id="OnlineVSSViewerPage-OnlineVSSLibraryControl" style="stroke: #2E8B57; stroke-width: 1.0; stroke-dasharray: 7.0,7.0;"/><!--link OnlineVSSLibraryControl to PreviewOnlineConcertPage--><path d="M565.2885,234.5426 C581.5403,253.0175 603.1212,277.5506 620.094,296.8451 " fill="none" id="OnlineVSSLibraryControl-PreviewOnlineConcertPage" style="stroke: #2E8B57; stroke-width: 1.0; stroke-dasharray: 7.0,7.0;"/><polygon fill="#2E8B57" points="623.4242,300.6308,620.4833,291.2313,620.1218,296.8766,614.4765,296.5151,623.4242,300.6308" style="stroke: #2E8B57; stroke-width: 1.0;"/><!--link OnlineVSSLibraryControl to PreviewOnlineMapPage--><path d="M517.4871,234.5426 C501.082,253.0175 479.2974,277.5506 462.1645,296.8451 " fill="none" id="OnlineVSSLibraryControl-PreviewOnlineMapPage" style="stroke: #2E8B57; stroke-width: 1.0; stroke-dasharray: 7.0,7.0;"/><polygon fill="#2E8B57" points="458.803,300.6308,467.7698,296.557,462.1229,296.8921,461.7878,291.2451,458.803,300.6308" style="stroke: #2E8B57; stroke-width: 1.0;"/><!--link AdjustSensorPage to AdjustSensorControl--><path d="M1794.3041,697.0164 C1781.4856,715.0572 1764.6867,738.7002 1751.8388,756.7824 " fill="none" id="AdjustSensorPage-AdjustSensorControl" style="stroke: #2E8B57; stroke-width: 1.0; stroke-dasharray: 7.0,7.0;"/><!--link AdjustSensorControl to Sensor--><path d="M1714.4992,811.0011 C1703.404,827.6439 1688.6572,849.7643 1674.6188,870.8218 " fill="none" id="AdjustSensorControl-Sensor" style="stroke: #2E8B57; stroke-width: 1.0; stroke-dasharray: 7.0,7.0;"/><!--link SoundFragment to SoundSource--><path d="M919.6604,702.0382 C908.3355,755.0864 885.8894,860.2288 875.2944,909.8576 " fill="none" id="SoundFragment-SoundSource" style="stroke: #2E8B57; stroke-width: 1.0;"/><polygon fill="#2E8B57" points="920.7209,697.0707,914.9301,705.0373,919.677,701.9605,922.7538,706.7075,920.7209,697.0707" style="stroke: #2E8B57; stroke-width: 1.0;"/><text fill="#000000" font-family="sans-serif" font-size="13" lengthAdjust="spacingAndGlyphs" textLength="8" x="910.4595" y="717.6387">1</text><text fill="#000000" font-family="sans-serif" font-size="13" lengthAdjust="spacingAndGlyphs" textLength="8" x="867.7094" y="899.4201">1</text><!--link CreateMapVSSControl to SoundFragment--><path d="M1242.4946,578.242 C1236.7455,579.8592 1231.0335,581.4591 1225.5,583 C1127.8657,610.1873 1102.3883,613.2635 1005.5,643 C1001.1245,644.3429 996.6263,645.7654 992.1024,647.2273 " fill="none" id="CreateMapVSSControl-SoundFragment" style="stroke: #2E8B57; stroke-width: 1.0; stroke-dasharray: 7.0,7.0;"/><polygon fill="#2E8B57" points="987.188,648.8272,996.9842,649.8446,991.9424,647.2794,994.5076,642.2376,987.188,648.8272" style="stroke: #2E8B57; stroke-width: 1.0;"/><!--link CreateConcertVSSControl to SoundFragment--><path d="M923.4479,583.0164 C924.0216,599.3659 924.7567,620.3164 925.3617,637.5594 " fill="none" id="CreateConcertVSSControl-SoundFragment" style="stroke: #2E8B57; stroke-width: 1.0; stroke-dasharray: 7.0,7.0;"/><polygon fill="#2E8B57" points="925.545,642.7824,929.2268,633.6476,925.3696,637.7855,921.2317,633.9283,925.545,642.7824" style="stroke: #2E8B57; stroke-width: 1.0;"/><!--link Quaternion to Position--><!--link Quaternion to Callable--><!--
@startuml Diagrams/ClassDiagram
skinparam class {
	BackgroundColor PaleGreen
	ArrowColor SeaGreen
	BorderColor SpringGreen
	BackgroundColor<<boundary>> LightBlue
	BorderColor<<boundary>> Blue
    BackgroundColor<<control>> LightGray
    BorderColor<<control>> Red
    BackgroundColor<<entity>> LightYellow
    BorderColor<<entity>> Yellow
}


class RegisterPage <<boundary>> {

}
class UserInfoControl <<control>> {

}
class LocalVSSManagerPage <<boundary>> {

}
class User <<entity>> {

}
class LoginPage <<boundary>> {

}
class LocalVSSLibraryControl <<control>> {

}
class LocalSoundSpaceLibrary <<entity>> {

}
class PreviewLocalMapPage <<boundary>> {

}
class PreviewLocalConcertPage <<boundary>> {

}
class CreateVSSPage <<boundary>> {

}
class CreateMapVSSPage <<boundary>> {

}
class CreateMapVSSControl <<control>> {

}
class Sensor <<entity>> {
	void clearTask()
	Quaternion getHeadPose()
	void callWhenUpdatedDelay(int millisecond)
	void callWhenUpdated(Callable task)
	boolean isSensorOnline()
	Position getCurrentLocation()
}
class VirtualSoundSpace <<entity>> {

}
class SoundSource <<entity>> {

}
class CreateConcertVSSPage <<boundary>> {

}
class CreateConcertVSSControl <<control>> {

}
class PreviewOnlineMapPage <<boundary>> {

}
class PreviewOnlineMapControl <<control>> {

}
class PreviewOnlineConcertPage <<boundary>> {

}
class PreviewOnlineConcertControl <<control>> {

}
class OnlineSoundSpaceLibrary <<entity>> {

}
class PreviewLocalMapControl <<control>> {

}
class PreviewLocalConcertControl <<control>> {

}
class PlayMapModeVSSPage <<boundary>> {

}
class MapVSSPlayControl <<control>> {

}
class LocalSoundSpaceLibrary <<entity>> {

}
class GVRAudioEngine <<control>> {

}
class AdjustSensorPage <<boundary>> {

}
class PlayConcertModeVSSPage <<boundary>> {

}
class ConcertVSSPlayControl <<control>> {

}
class OnlineVSSViewerPage <<boundary>> {

}
class AdjustSensorControl <<control>> {

}
class SoundFragment <<entity>> {

}
class OnlineVSSLibraryControl <<control>> {

}


class Quaternion <<entity>> {
	w: float
	x: float
	y: float
	z: float
}

class Position <<entity>> {
	x: float
	y: float
	z: float
}

interface Callable <<entity>> {
	run(): void
}


UserInfoControl o- - User
LocalVSSManagerPage "view" .. "controller" LocalVSSLibraryControl
LocalVSSLibraryControl ..> LocalSoundSpaceLibrary
CreateMapVSSPage .. CreateMapVSSControl
CreateMapVSSControl ..> LocalSoundSpaceLibrary
LocalSoundSpaceLibrary ..> VirtualSoundSpace
LoginPage ..> UserInfoControl
RegisterPage ..> UserInfoControl
CreateMapVSSControl ..> Sensor
CreateMapVSSControl ..> VirtualSoundSpace
CreateMapVSSControl ..> SoundSource
VirtualSoundSpace o- - SoundSource
CreateConcertVSSPage .. CreateConcertVSSControl
CreateConcertVSSControl ..> VirtualSoundSpace
CreateConcertVSSControl ..> LocalSoundSpaceLibrary
CreateConcertVSSControl ..> SoundSource
PreviewOnlineConcertPage .. PreviewOnlineConcertControl
PreviewOnlineMapPage .. PreviewOnlineMapControl
PreviewOnlineMapControl ..> UserInfoControl
PreviewOnlineConcertControl ..> UserInfoControl
PreviewOnlineMapControl ..> OnlineSoundSpaceLibrary
PreviewOnlineConcertControl ..> OnlineSoundSpaceLibrary
OnlineSoundSpaceLibrary ..> VirtualSoundSpace
OnlineSoundSpaceLibrary .. LocalSoundSpaceLibrary
PreviewLocalMapPage .. PreviewLocalMapControl
PreviewLocalConcertPage .. PreviewLocalConcertControl
PreviewLocalConcertControl ..> VirtualSoundSpace
PreviewLocalMapControl ..> VirtualSoundSpace
CreateVSSPage ..> CreateMapVSSPage
CreateVSSPage ..> CreateConcertVSSPage
PlayMapModeVSSPage .. MapVSSPlayControl
MapVSSPlayControl ..> LocalSoundSpaceLibrary
MapVSSPlayControl ..> VirtualSoundSpace
MapVSSPlayControl ..> Sensor
MapVSSPlayControl ..> GVRAudioEngine
MapVSSPlayControl ..> AdjustSensorPage
PlayConcertModeVSSPage .. ConcertVSSPlayControl
ConcertVSSPlayControl ..> LocalSoundSpaceLibrary
ConcertVSSPlayControl ..> Sensor
ConcertVSSPlayControl ..> GVRAudioEngine
ConcertVSSPlayControl ..> AdjustSensorPage
OnlineVSSViewerPage .. OnlineVSSLibraryControl
OnlineVSSLibraryControl ..> PreviewOnlineConcertPage
OnlineVSSLibraryControl ..> PreviewOnlineMapPage
AdjustSensorPage .. AdjustSensorControl
AdjustSensorControl .. Sensor
SoundFragment "1" <- - "1" SoundSource
CreateMapVSSControl ..> SoundFragment
CreateConcertVSSControl ..> SoundFragment

@enduml

PlantUML version 1.2018.01(Mon Jan 29 02:08:22 CST 2018)
(GPL source distribution)
Java Runtime: Java(TM) SE Runtime Environment
JVM: Java HotSpot(TM) 64-Bit Server VM
Java Version: 9+181
Operating System: Mac OS X
OS Version: 10.12.6
Default Encoding: UTF-8
Language: zh
Country: CN
--></g></svg>