<?xml version="1.0" encoding="UTF-8" standalone="no"?><svg xmlns="http://www.w3.org/2000/svg" xmlns:xlink="http://www.w3.org/1999/xlink" contentScriptType="application/ecmascript" contentStyleType="text/css" height="936px" preserveAspectRatio="none" style="width:1957px;height:936px;" version="1.1" viewBox="0 0 1957 936"
    width="1957px" zoomAndPan="magnify"><defs><filter height="300%" id="fe071jtz2hear" width="300%" x="-1" y="-1"><feGaussianBlur result="blurOut" stdDeviation="2.0"/><feColorMatrix in="blurOut" result="blurOut2" type="matrix" values="0 0 0 0 0 0 0 0 0 0 0 0 0 0 0 0 0 0 .4 0"/><feOffset dx="4.0" dy="4.0" in="blurOut2" result="blurOut3"/><feBlend in="SourceGraphic" in2="blurOut3" mode="normal"/></filter></defs><g><!--class Quaternion--><rect fill="#FFFFE0" filter="url(#fe071jtz2hear)" height="106.0859" id="Quaternion" style="stroke: #FFFF00; stroke-width: 1.5;" width="95" x="94" y="21"/><ellipse cx="109" cy="40.1328" fill="#ADD1B2" rx="11" ry="11" style="stroke: #FFFF00; stroke-width: 1.0;"/><path d="M111.9731,45.7759 Q111.3921,46.0747 110.7529,46.2241 Q110.1138,46.3735 109.4082,46.3735 Q106.9014,46.3735 105.5815,44.7217 Q104.2617,43.0698 104.2617,39.9487 Q104.2617,36.8193 105.5815,35.1675 Q106.9014,33.5156 109.4082,33.5156 Q110.1138,33.5156 110.7612,33.665 Q111.4087,33.8145 111.9731,34.1133 L111.9731,36.8359 Q111.3423,36.2549 110.7488,35.9851 Q110.1553,35.7153 109.5244,35.7153 Q108.1797,35.7153 107.4949,36.782 Q106.8101,37.8486 106.8101,39.9487 Q106.8101,42.0405 107.4949,43.1072 Q108.1797,44.1738 109.5244,44.1738 Q110.1553,44.1738 110.7488,43.9041 Q111.3423,43.6343 111.9731,43.0532 Z "/><text fill="#000000" font-family="sans-serif" font-size="12" font-style="italic" lengthAdjust="spacingAndGlyphs" textLength="43" x="133" y="37.6016">«entity»</text><text fill="#000000" font-family="sans-serif" font-size="12" lengthAdjust="spacingAndGlyphs" textLength="63" x="123" y="51.7344">Quaternion</text><line style="stroke: #FFFF00; stroke-width: 1.5;" x1="95" x2="188" y1="59.2656" y2="59.2656"/><text fill="#000000" font-family="sans-serif" font-size="11" lengthAdjust="spacingAndGlyphs" textLength="38" x="100" y="73.9004">w: float</text><text fill="#000000" font-family="sans-serif" font-size="11" lengthAdjust="spacingAndGlyphs" textLength="37" x="100" y="86.8555">x: float</text><text fill="#000000" font-family="sans-serif" font-size="11" lengthAdjust="spacingAndGlyphs" textLength="36" x="100" y="99.8105">y: float</text><text fill="#000000" font-family="sans-serif" font-size="11" lengthAdjust="spacingAndGlyphs" textLength="36" x="100" y="112.7656">z: float</text><line style="stroke: #FFFF00; stroke-width: 1.5;" x1="95" x2="188" y1="119.0859" y2="119.0859"/><!--class Position--><rect fill="#FFFFE0" filter="url(#fe071jtz2hear)" height="93.1309" id="Position" style="stroke: #FFFF00; stroke-width: 1.5;" width="76" x="224.5" y="27.5"/><ellipse cx="239.5" cy="46.6328" fill="#ADD1B2" rx="11" ry="11" style="stroke: #FFFF00; stroke-width: 1.0;"/><path d="M242.4731,52.2759 Q241.8921,52.5747 241.2529,52.7241 Q240.6138,52.8735 239.9082,52.8735 Q237.4014,52.8735 236.0815,51.2217 Q234.7617,49.5698 234.7617,46.4487 Q234.7617,43.3193 236.0815,41.6675 Q237.4014,40.0156 239.9082,40.0156 Q240.6138,40.0156 241.2612,40.165 Q241.9087,40.3145 242.4731,40.6133 L242.4731,43.3359 Q241.8423,42.7549 241.2488,42.4851 Q240.6553,42.2153 240.0244,42.2153 Q238.6797,42.2153 237.9949,43.282 Q237.3101,44.3486 237.3101,46.4487 Q237.3101,48.5405 237.9949,49.6072 Q238.6797,50.6738 240.0244,50.6738 Q240.6553,50.6738 241.2488,50.4041 Q241.8423,50.1343 242.4731,49.5532 Z "/><text fill="#000000" font-family="sans-serif" font-size="12" font-style="italic" lengthAdjust="spacingAndGlyphs" textLength="43" x="254" y="44.1016">«entity»</text><text fill="#000000" font-family="sans-serif" font-size="12" lengthAdjust="spacingAndGlyphs" textLength="44" x="253.5" y="58.2344">Position</text><line style="stroke: #FFFF00; stroke-width: 1.5;" x1="225.5" x2="299.5" y1="65.7656" y2="65.7656"/><text fill="#000000" font-family="sans-serif" font-size="11" lengthAdjust="spacingAndGlyphs" textLength="37" x="230.5" y="80.4004">x: float</text><text fill="#000000" font-family="sans-serif" font-size="11" lengthAdjust="spacingAndGlyphs" textLength="36" x="230.5" y="93.3555">y: float</text><text fill="#000000" font-family="sans-serif" font-size="11" lengthAdjust="spacingAndGlyphs" textLength="36" x="230.5" y="106.3105">z: float</text><line style="stroke: #FFFF00; stroke-width: 1.5;" x1="225.5" x2="299.5" y1="112.6309" y2="112.6309"/><!--class LocalSoundSpaceLibrary--><rect fill="#98FB98" filter="url(#fe071jtz2hear)" height="48" id="LocalSoundSpaceLibrary" style="stroke: #00FF7F; stroke-width: 1.5;" width="170" x="1048.5" y="50"/><ellipse cx="1063.5" cy="66" fill="#ADD1B2" rx="11" ry="11" style="stroke: #00FF7F; stroke-width: 1.0;"/><path d="M1066.4731,71.6431 Q1065.8921,71.9419 1065.2529,72.0913 Q1064.6138,72.2407 1063.9082,72.2407 Q1061.4014,72.2407 1060.0815,70.5889 Q1058.7617,68.937 1058.7617,65.8159 Q1058.7617,62.6865 1060.0815,61.0347 Q1061.4014,59.3828 1063.9082,59.3828 Q1064.6138,59.3828 1065.2612,59.5322 Q1065.9087,59.6816 1066.4731,59.9805 L1066.4731,62.7031 Q1065.8423,62.1221 1065.2488,61.8523 Q1064.6553,61.5825 1064.0244,61.5825 Q1062.6797,61.5825 1061.9949,62.6492 Q1061.3101,63.7158 1061.3101,65.8159 Q1061.3101,67.9077 1061.9949,68.9744 Q1062.6797,70.041 1064.0244,70.041 Q1064.6553,70.041 1065.2488,69.7712 Q1065.8423,69.5015 1066.4731,68.9204 Z "/><text fill="#000000" font-family="sans-serif" font-size="12" lengthAdjust="spacingAndGlyphs" textLength="138" x="1077.5" y="70.5352">LocalSoundSpaceLibrary</text><line style="stroke: #00FF7F; stroke-width: 1.5;" x1="1049.5" x2="1217.5" y1="82" y2="82"/><line style="stroke: #00FF7F; stroke-width: 1.5;" x1="1049.5" x2="1217.5" y1="90" y2="90"/><!--class Sensor--><rect fill="#FFFFE0" filter="url(#fe071jtz2hear)" height="131.9961" id="Sensor" style="stroke: #FFFF00; stroke-width: 1.5;" width="245" x="336" y="8"/><ellipse cx="434.75" cy="27.1328" fill="#ADD1B2" rx="11" ry="11" style="stroke: #FFFF00; stroke-width: 1.0;"/><path d="M437.7231,32.7759 Q437.1421,33.0747 436.5029,33.2241 Q435.8638,33.3735 435.1582,33.3735 Q432.6514,33.3735 431.3315,31.7217 Q430.0117,30.0698 430.0117,26.9487 Q430.0117,23.8193 431.3315,22.1675 Q432.6514,20.5156 435.1582,20.5156 Q435.8638,20.5156 436.5112,20.665 Q437.1587,20.8145 437.7231,21.1133 L437.7231,23.8359 Q437.0923,23.2549 436.4988,22.9851 Q435.9053,22.7153 435.2744,22.7153 Q433.9297,22.7153 433.2449,23.782 Q432.5601,24.8486 432.5601,26.9487 Q432.5601,29.0405 433.2449,30.1072 Q433.9297,31.1738 435.2744,31.1738 Q435.9053,31.1738 436.4988,30.9041 Q437.0923,30.6343 437.7231,30.0532 Z "/><text fill="#000000" font-family="sans-serif" font-size="12" font-style="italic" lengthAdjust="spacingAndGlyphs" textLength="43" x="453.25" y="24.6016">«entity»</text><text fill="#000000" font-family="sans-serif" font-size="12" lengthAdjust="spacingAndGlyphs" textLength="38" x="455.75" y="38.7344">Sensor</text><line style="stroke: #FFFF00; stroke-width: 1.5;" x1="337" x2="580" y1="46.2656" y2="46.2656"/><line style="stroke: #FFFF00; stroke-width: 1.5;" x1="337" x2="580" y1="54.2656" y2="54.2656"/><text fill="#000000" font-family="sans-serif" font-size="11" lengthAdjust="spacingAndGlyphs" textLength="85" x="342" y="68.9004">void clearTask()</text><text fill="#000000" font-family="sans-serif" font-size="11" lengthAdjust="spacingAndGlyphs" textLength="141" x="342" y="81.8555">Quaternion getHeadPose()</text><text fill="#000000" font-family="sans-serif" font-size="11" lengthAdjust="spacingAndGlyphs" textLength="233" x="342" y="94.8105">void callWhenUpdatedDelay(int millisecond)</text><text fill="#000000" font-family="sans-serif" font-size="11" lengthAdjust="spacingAndGlyphs" textLength="193" x="342" y="107.7656">void callWhenUpdated(Callable task)</text><text fill="#000000" font-family="sans-serif" font-size="11" lengthAdjust="spacingAndGlyphs" textLength="135" x="342" y="120.7207">boolean isSensorOnline()</text><text fill="#000000" font-family="sans-serif" font-size="11" lengthAdjust="spacingAndGlyphs" textLength="159" x="342" y="133.6758">Position getCurrentLocation()</text><!--class VirtualSoundSpace--><rect fill="#FFFFE0" filter="url(#fe071jtz2hear)" height="106.0859" id="VirtualSoundSpace" style="stroke: #FFFF00; stroke-width: 1.5;" width="163" x="616" y="21"/><ellipse cx="642.25" cy="40.1328" fill="#ADD1B2" rx="11" ry="11" style="stroke: #FFFF00; stroke-width: 1.0;"/><path d="M645.2231,45.7759 Q644.6421,46.0747 644.0029,46.2241 Q643.3638,46.3735 642.6582,46.3735 Q640.1514,46.3735 638.8315,44.7217 Q637.5117,43.0698 637.5117,39.9487 Q637.5117,36.8193 638.8315,35.1675 Q640.1514,33.5156 642.6582,33.5156 Q643.3638,33.5156 644.0112,33.665 Q644.6587,33.8145 645.2231,34.1133 L645.2231,36.8359 Q644.5923,36.2549 643.9988,35.9851 Q643.4053,35.7153 642.7744,35.7153 Q641.4297,35.7153 640.7449,36.782 Q640.0601,37.8486 640.0601,39.9487 Q640.0601,42.0405 640.7449,43.1072 Q641.4297,44.1738 642.7744,44.1738 Q643.4053,44.1738 643.9988,43.9041 Q644.5923,43.6343 645.2231,43.0532 Z "/><text fill="#000000" font-family="sans-serif" font-size="12" font-style="italic" lengthAdjust="spacingAndGlyphs" textLength="43" x="690.25" y="37.6016">«entity»</text><text fill="#000000" font-family="sans-serif" font-size="12" lengthAdjust="spacingAndGlyphs" textLength="106" x="658.75" y="51.7344">VirtualSoundSpace</text><line style="stroke: #FFFF00; stroke-width: 1.5;" x1="617" x2="778" y1="59.2656" y2="59.2656"/><text fill="#000000" font-family="sans-serif" font-size="11" lengthAdjust="spacingAndGlyphs" textLength="67" x="622" y="73.9004">name: String</text><text fill="#000000" font-family="sans-serif" font-size="11" lengthAdjust="spacingAndGlyphs" textLength="64" x="622" y="86.8555">ownerID: int</text><text fill="#000000" font-family="sans-serif" font-size="11" lengthAdjust="spacingAndGlyphs" textLength="151" x="622" y="99.8105">comments: List&lt;Comment&gt;</text><text fill="#000000" font-family="sans-serif" font-size="11" lengthAdjust="spacingAndGlyphs" textLength="81" x="622" y="112.7656">likes: List&lt;int&gt;</text><line style="stroke: #FFFF00; stroke-width: 1.5;" x1="617" x2="778" y1="119.0859" y2="119.0859"/><!--class SoundSource--><rect fill="#FFFFE0" filter="url(#fe071jtz2hear)" height="119.041" id="SoundSource" style="stroke: #FFFF00; stroke-width: 1.5;" width="216" x="1573.5" y="698"/><ellipse cx="1640.75" cy="717.1328" fill="#ADD1B2" rx="11" ry="11" style="stroke: #FFFF00; stroke-width: 1.0;"/><path d="M1643.7231,722.7759 Q1643.1421,723.0747 1642.5029,723.2241 Q1641.8638,723.3735 1641.1582,723.3735 Q1638.6514,723.3735 1637.3315,721.7217 Q1636.0117,720.0698 1636.0117,716.9487 Q1636.0117,713.8193 1637.3315,712.1675 Q1638.6514,710.5156 1641.1582,710.5156 Q1641.8638,710.5156 1642.5112,710.665 Q1643.1587,710.8145 1643.7231,711.1133 L1643.7231,713.8359 Q1643.0923,713.2549 1642.4988,712.9851 Q1641.9053,712.7153 1641.2744,712.7153 Q1639.9297,712.7153 1639.2449,713.782 Q1638.5601,714.8486 1638.5601,716.9487 Q1638.5601,719.0405 1639.2449,720.1072 Q1639.9297,721.1738 1641.2744,721.1738 Q1641.9053,721.1738 1642.4988,720.9041 Q1643.0923,720.6343 1643.7231,720.0532 Z "/><text fill="#000000" font-family="sans-serif" font-size="12" font-style="italic" lengthAdjust="spacingAndGlyphs" textLength="43" x="1676.25" y="714.6016">«entity»</text><text fill="#000000" font-family="sans-serif" font-size="12" lengthAdjust="spacingAndGlyphs" textLength="73" x="1661.25" y="728.7344">SoundSource</text><line style="stroke: #FFFF00; stroke-width: 1.5;" x1="1574.5" x2="1788.5" y1="736.2656" y2="736.2656"/><text fill="#000000" font-family="sans-serif" font-size="11" lengthAdjust="spacingAndGlyphs" textLength="204" x="1579.5" y="750.9004">soundSourceList: List&lt;SoundSource&gt;</text><text fill="#000000" font-family="sans-serif" font-size="11" lengthAdjust="spacingAndGlyphs" textLength="87" x="1579.5" y="763.8555">VSSName: String</text><text fill="#000000" font-family="sans-serif" font-size="11" lengthAdjust="spacingAndGlyphs" textLength="119" x="1579.5" y="776.8105">VSSDescription: String</text><text fill="#000000" font-family="sans-serif" font-size="11" lengthAdjust="spacingAndGlyphs" textLength="111" x="1579.5" y="789.7656">uploadUserID: String</text><text fill="#000000" font-family="sans-serif" font-size="11" lengthAdjust="spacingAndGlyphs" textLength="105" x="1579.5" y="802.7207">initLocation: LatLng</text><line style="stroke: #FFFF00; stroke-width: 1.5;" x1="1574.5" x2="1788.5" y1="809.041" y2="809.041"/><!--class OnlineSoundSpaceLibrary--><rect fill="#98FB98" filter="url(#fe071jtz2hear)" height="48" id="OnlineSoundSpaceLibrary" style="stroke: #00FF7F; stroke-width: 1.5;" width="177" x="1254" y="50"/><ellipse cx="1269" cy="66" fill="#ADD1B2" rx="11" ry="11" style="stroke: #00FF7F; stroke-width: 1.0;"/><path d="M1271.9731,71.6431 Q1271.3921,71.9419 1270.7529,72.0913 Q1270.1138,72.2407 1269.4082,72.2407 Q1266.9014,72.2407 1265.5815,70.5889 Q1264.2617,68.937 1264.2617,65.8159 Q1264.2617,62.6865 1265.5815,61.0347 Q1266.9014,59.3828 1269.4082,59.3828 Q1270.1138,59.3828 1270.7612,59.5322 Q1271.4087,59.6816 1271.9731,59.9805 L1271.9731,62.7031 Q1271.3423,62.1221 1270.7488,61.8523 Q1270.1553,61.5825 1269.5244,61.5825 Q1268.1797,61.5825 1267.4949,62.6492 Q1266.8101,63.7158 1266.8101,65.8159 Q1266.8101,67.9077 1267.4949,68.9744 Q1268.1797,70.041 1269.5244,70.041 Q1270.1553,70.041 1270.7488,69.7712 Q1271.3423,69.5015 1271.9731,68.9204 Z "/><text fill="#000000" font-family="sans-serif" font-size="12" lengthAdjust="spacingAndGlyphs" textLength="145" x="1283" y="70.5352">OnlineSoundSpaceLibrary</text><line style="stroke: #00FF7F; stroke-width: 1.5;" x1="1255" x2="1430" y1="82" y2="82"/><line style="stroke: #00FF7F; stroke-width: 1.5;" x1="1255" x2="1430" y1="90" y2="90"/><!--class SoundFragment--><rect fill="#FFFFE0" filter="url(#fe071jtz2hear)" height="54.2656" id="SoundFragment" style="stroke: #FFFF00; stroke-width: 1.5;" width="121" x="1825" y="730.5"/><ellipse cx="1840" cy="749.6328" fill="#ADD1B2" rx="11" ry="11" style="stroke: #FFFF00; stroke-width: 1.0;"/><path d="M1842.9731,755.2759 Q1842.3921,755.5747 1841.7529,755.7241 Q1841.1138,755.8735 1840.4082,755.8735 Q1837.9014,755.8735 1836.5815,754.2217 Q1835.2617,752.5698 1835.2617,749.4487 Q1835.2617,746.3193 1836.5815,744.6675 Q1837.9014,743.0156 1840.4082,743.0156 Q1841.1138,743.0156 1841.7612,743.165 Q1842.4087,743.3145 1842.9731,743.6133 L1842.9731,746.3359 Q1842.3423,745.7549 1841.7488,745.4851 Q1841.1553,745.2153 1840.5244,745.2153 Q1839.1797,745.2153 1838.4949,746.282 Q1837.8101,747.3486 1837.8101,749.4487 Q1837.8101,751.5405 1838.4949,752.6072 Q1839.1797,753.6738 1840.5244,753.6738 Q1841.1553,753.6738 1841.7488,753.4041 Q1842.3423,753.1343 1842.9731,752.5532 Z "/><text fill="#000000" font-family="sans-serif" font-size="12" font-style="italic" lengthAdjust="spacingAndGlyphs" textLength="43" x="1877" y="747.1016">«entity»</text><text fill="#000000" font-family="sans-serif" font-size="12" lengthAdjust="spacingAndGlyphs" textLength="89" x="1854" y="761.2344">SoundFragment</text><line style="stroke: #FFFF00; stroke-width: 1.5;" x1="1826" x2="1945" y1="768.7656" y2="768.7656"/><line style="stroke: #FFFF00; stroke-width: 1.5;" x1="1826" x2="1945" y1="776.7656" y2="776.7656"/><!--class RegisterViewModel--><rect fill="#ADD8E6" filter="url(#fe071jtz2hear)" height="80.1758" id="RegisterViewModel" style="stroke: #0000FF; stroke-width: 1.5;" width="199" x="814" y="34"/><ellipse cx="855.1" cy="53.1328" fill="#ADD1B2" rx="11" ry="11" style="stroke: #0000FF; stroke-width: 1.0;"/><path d="M858.0731,58.7759 Q857.4921,59.0747 856.8529,59.2241 Q856.2138,59.3735 855.5082,59.3735 Q853.0014,59.3735 851.6815,57.7217 Q850.3617,56.0698 850.3617,52.9487 Q850.3617,49.8193 851.6815,48.1675 Q853.0014,46.5156 855.5082,46.5156 Q856.2138,46.5156 856.8612,46.665 Q857.5087,46.8145 858.0731,47.1133 L858.0731,49.8359 Q857.4423,49.2549 856.8488,48.9851 Q856.2553,48.7153 855.6244,48.7153 Q854.2797,48.7153 853.5949,49.782 Q852.9101,50.8486 852.9101,52.9487 Q852.9101,55.0405 853.5949,56.1072 Q854.2797,57.1738 855.6244,57.1738 Q856.2553,57.1738 856.8488,56.9041 Q857.4423,56.6343 858.0731,56.0532 Z "/><text fill="#000000" font-family="sans-serif" font-size="12" font-style="italic" lengthAdjust="spacingAndGlyphs" textLength="72" x="893.4" y="50.6016">«viewModel»</text><text fill="#000000" font-family="sans-serif" font-size="12" lengthAdjust="spacingAndGlyphs" textLength="109" x="874.9" y="64.7344">RegisterViewModel</text><line style="stroke: #0000FF; stroke-width: 1.5;" x1="815" x2="1012" y1="72.2656" y2="72.2656"/><text fill="#000000" font-family="sans-serif" font-size="11" lengthAdjust="spacingAndGlyphs" textLength="120" x="820" y="86.9004">allowRegister: boolean</text><line style="stroke: #0000FF; stroke-width: 1.5;" x1="815" x2="1012" y1="93.2207" y2="93.2207"/><text fill="#000000" font-family="sans-serif" font-size="11" lengthAdjust="spacingAndGlyphs" textLength="187" x="820" y="107.8555">onRememberButtonToggled(): void</text><!--class LocalVSSManagerViewModel--><rect fill="#ADD8E6" filter="url(#fe071jtz2hear)" height="209.7266" id="LocalVSSManagerViewModel" style="stroke: #0000FF; stroke-width: 1.5;" width="271" x="6" y="200"/><ellipse cx="56.75" cy="219.1328" fill="#ADD1B2" rx="11" ry="11" style="stroke: #0000FF; stroke-width: 1.0;"/><path d="M59.7231,224.7759 Q59.1421,225.0747 58.5029,225.2241 Q57.8638,225.3735 57.1582,225.3735 Q54.6514,225.3735 53.3315,223.7217 Q52.0117,222.0698 52.0117,218.9487 Q52.0117,215.8193 53.3315,214.1675 Q54.6514,212.5156 57.1582,212.5156 Q57.8638,212.5156 58.5112,212.665 Q59.1587,212.8145 59.7231,213.1133 L59.7231,215.8359 Q59.0923,215.2549 58.4988,214.9851 Q57.9053,214.7153 57.2744,214.7153 Q55.9297,214.7153 55.2449,215.782 Q54.5601,216.8486 54.5601,218.9487 Q54.5601,221.0405 55.2449,222.1072 Q55.9297,223.1738 57.2744,223.1738 Q57.9053,223.1738 58.4988,222.9041 Q59.0923,222.6343 59.7231,222.0532 Z "/><text fill="#000000" font-family="sans-serif" font-size="12" font-style="italic" lengthAdjust="spacingAndGlyphs" textLength="72" x="121.75" y="216.6016">«viewModel»</text><text fill="#000000" font-family="sans-serif" font-size="12" lengthAdjust="spacingAndGlyphs" textLength="161" x="77.25" y="230.7344">LocalVSSManagerViewModel</text><line style="stroke: #0000FF; stroke-width: 1.5;" x1="7" x2="276" y1="238.2656" y2="238.2656"/><rect fill="none" height="6" style="stroke: #C82930; stroke-width: 1.0;" width="6" x="14" y="264.1982"/><text fill="#000000" font-family="sans-serif" font-size="11" lengthAdjust="spacingAndGlyphs" textLength="95" x="26" y="269.8555">prevPage:boolean</text><rect fill="none" height="6" style="stroke: #C82930; stroke-width: 1.0;" width="6" x="14" y="277.1533"/><text fill="#000000" font-family="sans-serif" font-size="11" lengthAdjust="spacingAndGlyphs" textLength="95" x="26" y="282.8105">nextPage:boolean</text><rect fill="none" height="6" style="stroke: #C82930; stroke-width: 1.0;" width="6" x="14" y="290.1084"/><text fill="#000000" font-family="sans-serif" font-size="11" lengthAdjust="spacingAndGlyphs" textLength="245" x="26" y="295.7656">virtualSoundSpaces:List&lt;VirtualSoundSpace&gt;</text><line style="stroke: #0000FF; stroke-width: 1.0; stroke-dasharray: 1.0,2.0;" x1="7" x2="123" y1="252.7432" y2="252.7432"/><text fill="#000000" font-family="sans-serif" font-size="11" lengthAdjust="spacingAndGlyphs" textLength="37" x="123" y="256.4004">private</text><line style="stroke: #0000FF; stroke-width: 1.0; stroke-dasharray: 1.0,2.0;" x1="160" x2="276" y1="252.7432" y2="252.7432"/><ellipse cx="17" cy="323.0186" fill="#84BE84" rx="3" ry="3" style="stroke: #038048; stroke-width: 1.0;"/><text fill="#000000" font-family="sans-serif" font-size="11" lengthAdjust="spacingAndGlyphs" textLength="157" x="26" y="325.6758">onCreateButtonClicked():void</text><ellipse cx="17" cy="335.9736" fill="#84BE84" rx="3" ry="3" style="stroke: #038048; stroke-width: 1.0;"/><text fill="#000000" font-family="sans-serif" font-size="11" lengthAdjust="spacingAndGlyphs" textLength="160" x="26" y="338.6309">onUploadButtonClicked():void</text><ellipse cx="17" cy="348.9287" fill="#84BE84" rx="3" ry="3" style="stroke: #038048; stroke-width: 1.0;"/><text fill="#000000" font-family="sans-serif" font-size="11" lengthAdjust="spacingAndGlyphs" textLength="155" x="26" y="351.5859">onDeleteButtonClicked():void</text><ellipse cx="17" cy="361.8838" fill="#84BE84" rx="3" ry="3" style="stroke: #038048; stroke-width: 1.0;"/><text fill="#000000" font-family="sans-serif" font-size="11" lengthAdjust="spacingAndGlyphs" textLength="164" x="26" y="364.541">onRenameButtonClicked():void</text><ellipse cx="17" cy="374.8389" fill="#84BE84" rx="3" ry="3" style="stroke: #038048; stroke-width: 1.0;"/><text fill="#000000" font-family="sans-serif" font-size="11" lengthAdjust="spacingAndGlyphs" textLength="145" x="26" y="377.4961">onPrevButtonClicked():void</text><ellipse cx="17" cy="387.7939" fill="#84BE84" rx="3" ry="3" style="stroke: #038048; stroke-width: 1.0;"/><text fill="#000000" font-family="sans-serif" font-size="11" lengthAdjust="spacingAndGlyphs" textLength="147" x="26" y="390.4512">onNextButtonClicked():void</text><ellipse cx="17" cy="400.749" fill="#84BE84" rx="3" ry="3" style="stroke: #038048; stroke-width: 1.0;"/><text fill="#000000" font-family="sans-serif" font-size="11" lengthAdjust="spacingAndGlyphs" textLength="162" x="26" y="403.4063">onPreviewButtonClicked():void</text><line style="stroke: #0000FF; stroke-width: 1.0; stroke-dasharray: 1.0,2.0;" x1="7" x2="125" y1="308.5635" y2="308.5635"/><text fill="#000000" font-family="sans-serif" font-size="11" lengthAdjust="spacingAndGlyphs" textLength="33" x="125" y="312.2207">public</text><line style="stroke: #0000FF; stroke-width: 1.0; stroke-dasharray: 1.0,2.0;" x1="158" x2="276" y1="308.5635" y2="308.5635"/><!--class LoginViewModel--><rect fill="#ADD8E6" filter="url(#fe071jtz2hear)" height="80.1758" id="LoginViewModel" style="stroke: #0000FF; stroke-width: 1.5;" width="181" x="312" y="265"/><ellipse cx="352.65" cy="284.1328" fill="#ADD1B2" rx="11" ry="11" style="stroke: #0000FF; stroke-width: 1.0;"/><path d="M355.6231,289.7759 Q355.0421,290.0747 354.4029,290.2241 Q353.7638,290.3735 353.0582,290.3735 Q350.5514,290.3735 349.2315,288.7217 Q347.9117,287.0698 347.9117,283.9487 Q347.9117,280.8193 349.2315,279.1675 Q350.5514,277.5156 353.0582,277.5156 Q353.7638,277.5156 354.4112,277.665 Q355.0587,277.8145 355.6231,278.1133 L355.6231,280.8359 Q354.9923,280.2549 354.3988,279.9851 Q353.8053,279.7153 353.1744,279.7153 Q351.8297,279.7153 351.1449,280.782 Q350.4601,281.8486 350.4601,283.9487 Q350.4601,286.0405 351.1449,287.1072 Q351.8297,288.1738 353.1744,288.1738 Q353.8053,288.1738 354.3988,287.9041 Q354.9923,287.6343 355.6231,287.0532 Z "/><text fill="#000000" font-family="sans-serif" font-size="12" font-style="italic" lengthAdjust="spacingAndGlyphs" textLength="72" x="382.35" y="281.6016">«viewModel»</text><text fill="#000000" font-family="sans-serif" font-size="12" lengthAdjust="spacingAndGlyphs" textLength="92" x="372.35" y="295.7344">LoginViewModel</text><line style="stroke: #0000FF; stroke-width: 1.5;" x1="313" x2="492" y1="303.2656" y2="303.2656"/><line style="stroke: #0000FF; stroke-width: 1.5;" x1="313" x2="492" y1="311.2656" y2="311.2656"/><text fill="#000000" font-family="sans-serif" font-size="11" lengthAdjust="spacingAndGlyphs" textLength="169" x="318" y="325.9004">onRegisterButtonClicked(): void</text><text fill="#000000" font-family="sans-serif" font-size="11" lengthAdjust="spacingAndGlyphs" textLength="153" x="318" y="338.8555">onLoginDataChanged(): void</text><!--class PreviewLocalMapViewModel--><rect fill="#ADD8E6" filter="url(#fe071jtz2hear)" height="54.2656" id="PreviewLocalMapViewModel" style="stroke: #0000FF; stroke-width: 1.5;" width="192" x="528.5" y="278"/><ellipse cx="543.5" cy="297.1328" fill="#ADD1B2" rx="11" ry="11" style="stroke: #0000FF; stroke-width: 1.0;"/><path d="M546.4731,302.7759 Q545.8921,303.0747 545.2529,303.2241 Q544.6138,303.3735 543.9082,303.3735 Q541.4014,303.3735 540.0815,301.7217 Q538.7617,300.0698 538.7617,296.9487 Q538.7617,293.8193 540.0815,292.1675 Q541.4014,290.5156 543.9082,290.5156 Q544.6138,290.5156 545.2612,290.665 Q545.9087,290.8145 546.4731,291.1133 L546.4731,293.8359 Q545.8423,293.2549 545.2488,292.9851 Q544.6553,292.7153 544.0244,292.7153 Q542.6797,292.7153 541.9949,293.782 Q541.3101,294.8486 541.3101,296.9487 Q541.3101,299.0405 541.9949,300.1072 Q542.6797,301.1738 544.0244,301.1738 Q544.6553,301.1738 545.2488,300.9041 Q545.8423,300.6343 546.4731,300.0532 Z "/><text fill="#000000" font-family="sans-serif" font-size="12" font-style="italic" lengthAdjust="spacingAndGlyphs" textLength="72" x="601.5" y="294.6016">«viewModel»</text><text fill="#000000" font-family="sans-serif" font-size="12" lengthAdjust="spacingAndGlyphs" textLength="160" x="557.5" y="308.7344">PreviewLocalMapViewModel</text><line style="stroke: #0000FF; stroke-width: 1.5;" x1="529.5" x2="719.5" y1="316.2656" y2="316.2656"/><line style="stroke: #0000FF; stroke-width: 1.5;" x1="529.5" x2="719.5" y1="324.2656" y2="324.2656"/><!--class PreviewLocalConcertViewModel--><rect fill="#ADD8E6" filter="url(#fe071jtz2hear)" height="54.2656" id="PreviewLocalConcertViewModel" style="stroke: #0000FF; stroke-width: 1.5;" width="211" x="756" y="278"/><ellipse cx="771" cy="297.1328" fill="#ADD1B2" rx="11" ry="11" style="stroke: #0000FF; stroke-width: 1.0;"/><path d="M773.9731,302.7759 Q773.3921,303.0747 772.7529,303.2241 Q772.1138,303.3735 771.4082,303.3735 Q768.9014,303.3735 767.5815,301.7217 Q766.2617,300.0698 766.2617,296.9487 Q766.2617,293.8193 767.5815,292.1675 Q768.9014,290.5156 771.4082,290.5156 Q772.1138,290.5156 772.7612,290.665 Q773.4087,290.8145 773.9731,291.1133 L773.9731,293.8359 Q773.3423,293.2549 772.7488,292.9851 Q772.1553,292.7153 771.5244,292.7153 Q770.1797,292.7153 769.4949,293.782 Q768.8101,294.8486 768.8101,296.9487 Q768.8101,299.0405 769.4949,300.1072 Q770.1797,301.1738 771.5244,301.1738 Q772.1553,301.1738 772.7488,300.9041 Q773.3423,300.6343 773.9731,300.0532 Z "/><text fill="#000000" font-family="sans-serif" font-size="12" font-style="italic" lengthAdjust="spacingAndGlyphs" textLength="72" x="838.5" y="294.6016">«viewModel»</text><text fill="#000000" font-family="sans-serif" font-size="12" lengthAdjust="spacingAndGlyphs" textLength="179" x="785" y="308.7344">PreviewLocalConcertViewModel</text><line style="stroke: #0000FF; stroke-width: 1.5;" x1="757" x2="966" y1="316.2656" y2="316.2656"/><line style="stroke: #0000FF; stroke-width: 1.5;" x1="757" x2="966" y1="324.2656" y2="324.2656"/><!--class CreateVSSViewModel--><rect fill="#ADD8E6" filter="url(#fe071jtz2hear)" height="54.2656" id="CreateVSSViewModel" style="stroke: #0000FF; stroke-width: 1.5;" width="152" x="1002.5" y="278"/><ellipse cx="1017.5" cy="297.1328" fill="#ADD1B2" rx="11" ry="11" style="stroke: #0000FF; stroke-width: 1.0;"/><path d="M1020.4731,302.7759 Q1019.8921,303.0747 1019.2529,303.2241 Q1018.6138,303.3735 1017.9082,303.3735 Q1015.4014,303.3735 1014.0815,301.7217 Q1012.7617,300.0698 1012.7617,296.9487 Q1012.7617,293.8193 1014.0815,292.1675 Q1015.4014,290.5156 1017.9082,290.5156 Q1018.6138,290.5156 1019.2612,290.665 Q1019.9087,290.8145 1020.4731,291.1133 L1020.4731,293.8359 Q1019.8423,293.2549 1019.2488,292.9851 Q1018.6553,292.7153 1018.0244,292.7153 Q1016.6797,292.7153 1015.9949,293.782 Q1015.3101,294.8486 1015.3101,296.9487 Q1015.3101,299.0405 1015.9949,300.1072 Q1016.6797,301.1738 1018.0244,301.1738 Q1018.6553,301.1738 1019.2488,300.9041 Q1019.8423,300.6343 1020.4731,300.0532 Z "/><text fill="#000000" font-family="sans-serif" font-size="12" font-style="italic" lengthAdjust="spacingAndGlyphs" textLength="72" x="1055.5" y="294.6016">«viewModel»</text><text fill="#000000" font-family="sans-serif" font-size="12" lengthAdjust="spacingAndGlyphs" textLength="120" x="1031.5" y="308.7344">CreateVSSViewModel</text><line style="stroke: #0000FF; stroke-width: 1.5;" x1="1003.5" x2="1153.5" y1="316.2656" y2="316.2656"/><line style="stroke: #0000FF; stroke-width: 1.5;" x1="1003.5" x2="1153.5" y1="324.2656" y2="324.2656"/><!--class CreateMapVSSViewModel--><rect fill="#ADD8E6" filter="url(#fe071jtz2hear)" height="54.2656" id="CreateMapVSSViewModel" style="stroke: #0000FF; stroke-width: 1.5;" width="177" x="53" y="470"/><ellipse cx="68" cy="489.1328" fill="#ADD1B2" rx="11" ry="11" style="stroke: #0000FF; stroke-width: 1.0;"/><path d="M70.9731,494.7759 Q70.3921,495.0747 69.7529,495.2241 Q69.1138,495.3735 68.4082,495.3735 Q65.9014,495.3735 64.5815,493.7217 Q63.2617,492.0698 63.2617,488.9487 Q63.2617,485.8193 64.5815,484.1675 Q65.9014,482.5156 68.4082,482.5156 Q69.1138,482.5156 69.7612,482.665 Q70.4087,482.8145 70.9731,483.1133 L70.9731,485.8359 Q70.3423,485.2549 69.7488,484.9851 Q69.1553,484.7153 68.5244,484.7153 Q67.1797,484.7153 66.4949,485.782 Q65.8101,486.8486 65.8101,488.9487 Q65.8101,491.0405 66.4949,492.1072 Q67.1797,493.1738 68.5244,493.1738 Q69.1553,493.1738 69.7488,492.9041 Q70.3423,492.6343 70.9731,492.0532 Z "/><text fill="#000000" font-family="sans-serif" font-size="12" font-style="italic" lengthAdjust="spacingAndGlyphs" textLength="72" x="118.5" y="486.6016">«viewModel»</text><text fill="#000000" font-family="sans-serif" font-size="12" lengthAdjust="spacingAndGlyphs" textLength="145" x="82" y="500.7344">CreateMapVSSViewModel</text><line style="stroke: #0000FF; stroke-width: 1.5;" x1="54" x2="229" y1="508.2656" y2="508.2656"/><line style="stroke: #0000FF; stroke-width: 1.5;" x1="54" x2="229" y1="516.2656" y2="516.2656"/><!--class CreateConcertVSSViewModel--><rect fill="#ADD8E6" filter="url(#fe071jtz2hear)" height="54.2656" id="CreateConcertVSSViewModel" style="stroke: #0000FF; stroke-width: 1.5;" width="196" x="265.5" y="470"/><ellipse cx="280.5" cy="489.1328" fill="#ADD1B2" rx="11" ry="11" style="stroke: #0000FF; stroke-width: 1.0;"/><path d="M283.4731,494.7759 Q282.8921,495.0747 282.2529,495.2241 Q281.6138,495.3735 280.9082,495.3735 Q278.4014,495.3735 277.0815,493.7217 Q275.7617,492.0698 275.7617,488.9487 Q275.7617,485.8193 277.0815,484.1675 Q278.4014,482.5156 280.9082,482.5156 Q281.6138,482.5156 282.2612,482.665 Q282.9087,482.8145 283.4731,483.1133 L283.4731,485.8359 Q282.8423,485.2549 282.2488,484.9851 Q281.6553,484.7153 281.0244,484.7153 Q279.6797,484.7153 278.9949,485.782 Q278.3101,486.8486 278.3101,488.9487 Q278.3101,491.0405 278.9949,492.1072 Q279.6797,493.1738 281.0244,493.1738 Q281.6553,493.1738 282.2488,492.9041 Q282.8423,492.6343 283.4731,492.0532 Z "/><text fill="#000000" font-family="sans-serif" font-size="12" font-style="italic" lengthAdjust="spacingAndGlyphs" textLength="72" x="340.5" y="486.6016">«viewModel»</text><text fill="#000000" font-family="sans-serif" font-size="12" lengthAdjust="spacingAndGlyphs" textLength="164" x="294.5" y="500.7344">CreateConcertVSSViewModel</text><line style="stroke: #0000FF; stroke-width: 1.5;" x1="266.5" x2="460.5" y1="508.2656" y2="508.2656"/><line style="stroke: #0000FF; stroke-width: 1.5;" x1="266.5" x2="460.5" y1="516.2656" y2="516.2656"/><!--class PreviewOnlineMapViewModel--><rect fill="#ADD8E6" filter="url(#fe071jtz2hear)" height="54.2656" id="PreviewOnlineMapViewModel" style="stroke: #0000FF; stroke-width: 1.5;" width="199" x="497" y="470"/><ellipse cx="512" cy="489.1328" fill="#ADD1B2" rx="11" ry="11" style="stroke: #0000FF; stroke-width: 1.0;"/><path d="M514.9731,494.7759 Q514.3921,495.0747 513.7529,495.2241 Q513.1138,495.3735 512.4082,495.3735 Q509.9014,495.3735 508.5815,493.7217 Q507.2617,492.0698 507.2617,488.9487 Q507.2617,485.8193 508.5815,484.1675 Q509.9014,482.5156 512.4082,482.5156 Q513.1138,482.5156 513.7612,482.665 Q514.4087,482.8145 514.9731,483.1133 L514.9731,485.8359 Q514.3423,485.2549 513.7488,484.9851 Q513.1553,484.7153 512.5244,484.7153 Q511.1797,484.7153 510.4949,485.782 Q509.8101,486.8486 509.8101,488.9487 Q509.8101,491.0405 510.4949,492.1072 Q511.1797,493.1738 512.5244,493.1738 Q513.1553,493.1738 513.7488,492.9041 Q514.3423,492.6343 514.9731,492.0532 Z "/><text fill="#000000" font-family="sans-serif" font-size="12" font-style="italic" lengthAdjust="spacingAndGlyphs" textLength="72" x="573.5" y="486.6016">«viewModel»</text><text fill="#000000" font-family="sans-serif" font-size="12" lengthAdjust="spacingAndGlyphs" textLength="167" x="526" y="500.7344">PreviewOnlineMapViewModel</text><line style="stroke: #0000FF; stroke-width: 1.5;" x1="498" x2="695" y1="508.2656" y2="508.2656"/><line style="stroke: #0000FF; stroke-width: 1.5;" x1="498" x2="695" y1="516.2656" y2="516.2656"/><!--class PreviewOnlineConcertViewModel--><rect fill="#ADD8E6" filter="url(#fe071jtz2hear)" height="54.2656" id="PreviewOnlineConcertViewModel" style="stroke: #0000FF; stroke-width: 1.5;" width="218" x="731.5" y="470"/><ellipse cx="746.5" cy="489.1328" fill="#ADD1B2" rx="11" ry="11" style="stroke: #0000FF; stroke-width: 1.0;"/><path d="M749.4731,494.7759 Q748.8921,495.0747 748.2529,495.2241 Q747.6138,495.3735 746.9082,495.3735 Q744.4014,495.3735 743.0815,493.7217 Q741.7617,492.0698 741.7617,488.9487 Q741.7617,485.8193 743.0815,484.1675 Q744.4014,482.5156 746.9082,482.5156 Q747.6138,482.5156 748.2612,482.665 Q748.9087,482.8145 749.4731,483.1133 L749.4731,485.8359 Q748.8423,485.2549 748.2488,484.9851 Q747.6553,484.7153 747.0244,484.7153 Q745.6797,484.7153 744.9949,485.782 Q744.3101,486.8486 744.3101,488.9487 Q744.3101,491.0405 744.9949,492.1072 Q745.6797,493.1738 747.0244,493.1738 Q747.6553,493.1738 748.2488,492.9041 Q748.8423,492.6343 749.4731,492.0532 Z "/><text fill="#000000" font-family="sans-serif" font-size="12" font-style="italic" lengthAdjust="spacingAndGlyphs" textLength="72" x="817.5" y="486.6016">«viewModel»</text><text fill="#000000" font-family="sans-serif" font-size="12" lengthAdjust="spacingAndGlyphs" textLength="186" x="760.5" y="500.7344">PreviewOnlineConcertViewModel</text><line style="stroke: #0000FF; stroke-width: 1.5;" x1="732.5" x2="948.5" y1="508.2656" y2="508.2656"/><line style="stroke: #0000FF; stroke-width: 1.5;" x1="732.5" x2="948.5" y1="516.2656" y2="516.2656"/><!--class PlayMapModeVSSViewModel--><rect fill="#ADD8E6" filter="url(#fe071jtz2hear)" height="54.2656" id="PlayMapModeVSSViewModel" style="stroke: #0000FF; stroke-width: 1.5;" width="194" x="984.5" y="470"/><ellipse cx="999.5" cy="489.1328" fill="#ADD1B2" rx="11" ry="11" style="stroke: #0000FF; stroke-width: 1.0;"/><path d="M1002.4731,494.7759 Q1001.8921,495.0747 1001.2529,495.2241 Q1000.6138,495.3735 999.9082,495.3735 Q997.4014,495.3735 996.0815,493.7217 Q994.7617,492.0698 994.7617,488.9487 Q994.7617,485.8193 996.0815,484.1675 Q997.4014,482.5156 999.9082,482.5156 Q1000.6138,482.5156 1001.2612,482.665 Q1001.9087,482.8145 1002.4731,483.1133 L1002.4731,485.8359 Q1001.8423,485.2549 1001.2488,484.9851 Q1000.6553,484.7153 1000.0244,484.7153 Q998.6797,484.7153 997.9949,485.782 Q997.3101,486.8486 997.3101,488.9487 Q997.3101,491.0405 997.9949,492.1072 Q998.6797,493.1738 1000.0244,493.1738 Q1000.6553,493.1738 1001.2488,492.9041 Q1001.8423,492.6343 1002.4731,492.0532 Z "/><text fill="#000000" font-family="sans-serif" font-size="12" font-style="italic" lengthAdjust="spacingAndGlyphs" textLength="72" x="1058.5" y="486.6016">«viewModel»</text><text fill="#000000" font-family="sans-serif" font-size="12" lengthAdjust="spacingAndGlyphs" textLength="162" x="1013.5" y="500.7344">PlayMapModeVSSViewModel</text><line style="stroke: #0000FF; stroke-width: 1.5;" x1="985.5" x2="1177.5" y1="508.2656" y2="508.2656"/><line style="stroke: #0000FF; stroke-width: 1.5;" x1="985.5" x2="1177.5" y1="516.2656" y2="516.2656"/><!--class AdjustSensorViewModel--><rect fill="#ADD8E6" filter="url(#fe071jtz2hear)" height="54.2656" id="AdjustSensorViewModel" style="stroke: #0000FF; stroke-width: 1.5;" width="169" x="57" y="584"/><ellipse cx="72" cy="603.1328" fill="#ADD1B2" rx="11" ry="11" style="stroke: #0000FF; stroke-width: 1.0;"/><path d="M74.9731,608.7759 Q74.3921,609.0747 73.7529,609.2241 Q73.1138,609.3735 72.4082,609.3735 Q69.9014,609.3735 68.5815,607.7217 Q67.2617,606.0698 67.2617,602.9487 Q67.2617,599.8193 68.5815,598.1675 Q69.9014,596.5156 72.4082,596.5156 Q73.1138,596.5156 73.7612,596.665 Q74.4087,596.8145 74.9731,597.1133 L74.9731,599.8359 Q74.3423,599.2549 73.7488,598.9851 Q73.1553,598.7153 72.5244,598.7153 Q71.1797,598.7153 70.4949,599.782 Q69.8101,600.8486 69.8101,602.9487 Q69.8101,605.0405 70.4949,606.1072 Q71.1797,607.1738 72.5244,607.1738 Q73.1553,607.1738 73.7488,606.9041 Q74.3423,606.6343 74.9731,606.0532 Z "/><text fill="#000000" font-family="sans-serif" font-size="12" font-style="italic" lengthAdjust="spacingAndGlyphs" textLength="72" x="118.5" y="600.6016">«viewModel»</text><text fill="#000000" font-family="sans-serif" font-size="12" lengthAdjust="spacingAndGlyphs" textLength="137" x="86" y="614.7344">AdjustSensorViewModel</text><line style="stroke: #0000FF; stroke-width: 1.5;" x1="58" x2="225" y1="622.2656" y2="622.2656"/><line style="stroke: #0000FF; stroke-width: 1.5;" x1="58" x2="225" y1="630.2656" y2="630.2656"/><!--class PlayConcertModeVSSViewModel--><rect fill="#ADD8E6" filter="url(#fe071jtz2hear)" height="54.2656" id="PlayConcertModeVSSViewModel" style="stroke: #0000FF; stroke-width: 1.5;" width="213" x="261" y="584"/><ellipse cx="276" cy="603.1328" fill="#ADD1B2" rx="11" ry="11" style="stroke: #0000FF; stroke-width: 1.0;"/><path d="M278.9731,608.7759 Q278.3921,609.0747 277.7529,609.2241 Q277.1138,609.3735 276.4082,609.3735 Q273.9014,609.3735 272.5815,607.7217 Q271.2617,606.0698 271.2617,602.9487 Q271.2617,599.8193 272.5815,598.1675 Q273.9014,596.5156 276.4082,596.5156 Q277.1138,596.5156 277.7612,596.665 Q278.4087,596.8145 278.9731,597.1133 L278.9731,599.8359 Q278.3423,599.2549 277.7488,598.9851 Q277.1553,598.7153 276.5244,598.7153 Q275.1797,598.7153 274.4949,599.782 Q273.8101,600.8486 273.8101,602.9487 Q273.8101,605.0405 274.4949,606.1072 Q275.1797,607.1738 276.5244,607.1738 Q277.1553,607.1738 277.7488,606.9041 Q278.3423,606.6343 278.9731,606.0532 Z "/><text fill="#000000" font-family="sans-serif" font-size="12" font-style="italic" lengthAdjust="spacingAndGlyphs" textLength="72" x="344.5" y="600.6016">«viewModel»</text><text fill="#000000" font-family="sans-serif" font-size="12" lengthAdjust="spacingAndGlyphs" textLength="181" x="290" y="614.7344">PlayConcertModeVSSViewModel</text><line style="stroke: #0000FF; stroke-width: 1.5;" x1="262" x2="473" y1="622.2656" y2="622.2656"/><line style="stroke: #0000FF; stroke-width: 1.5;" x1="262" x2="473" y1="630.2656" y2="630.2656"/><!--class OnlineVSSViewerViewModel--><rect fill="#ADD8E6" filter="url(#fe071jtz2hear)" height="54.2656" id="OnlineVSSViewerViewModel" style="stroke: #0000FF; stroke-width: 1.5;" width="189" x="509" y="584"/><ellipse cx="524" cy="603.1328" fill="#ADD1B2" rx="11" ry="11" style="stroke: #0000FF; stroke-width: 1.0;"/><path d="M526.9731,608.7759 Q526.3921,609.0747 525.7529,609.2241 Q525.1138,609.3735 524.4082,609.3735 Q521.9014,609.3735 520.5815,607.7217 Q519.2617,606.0698 519.2617,602.9487 Q519.2617,599.8193 520.5815,598.1675 Q521.9014,596.5156 524.4082,596.5156 Q525.1138,596.5156 525.7612,596.665 Q526.4087,596.8145 526.9731,597.1133 L526.9731,599.8359 Q526.3423,599.2549 525.7488,598.9851 Q525.1553,598.7153 524.5244,598.7153 Q523.1797,598.7153 522.4949,599.782 Q521.8101,600.8486 521.8101,602.9487 Q521.8101,605.0405 522.4949,606.1072 Q523.1797,607.1738 524.5244,607.1738 Q525.1553,607.1738 525.7488,606.9041 Q526.3423,606.6343 526.9731,606.0532 Z "/><text fill="#000000" font-family="sans-serif" font-size="12" font-style="italic" lengthAdjust="spacingAndGlyphs" textLength="72" x="580.5" y="600.6016">«viewModel»</text><text fill="#000000" font-family="sans-serif" font-size="12" lengthAdjust="spacingAndGlyphs" textLength="157" x="538" y="614.7344">OnlineVSSViewerViewModel</text><line style="stroke: #0000FF; stroke-width: 1.5;" x1="510" x2="697" y1="622.2656" y2="622.2656"/><line style="stroke: #0000FF; stroke-width: 1.5;" x1="510" x2="697" y1="630.2656" y2="630.2656"/><!--class GVRAudioEngine--><rect fill="#98FB98" filter="url(#fe071jtz2hear)" height="48" id="GVRAudioEngine" style="stroke: #00FF7F; stroke-width: 1.5;" width="128" x="733.5" y="587"/><ellipse cx="748.5" cy="603" fill="#ADD1B2" rx="11" ry="11" style="stroke: #00FF7F; stroke-width: 1.0;"/><path d="M751.4731,608.6431 Q750.8921,608.9419 750.2529,609.0913 Q749.6138,609.2407 748.9082,609.2407 Q746.4014,609.2407 745.0815,607.5889 Q743.7617,605.937 743.7617,602.8159 Q743.7617,599.6865 745.0815,598.0347 Q746.4014,596.3828 748.9082,596.3828 Q749.6138,596.3828 750.2612,596.5322 Q750.9087,596.6816 751.4731,596.9805 L751.4731,599.7031 Q750.8423,599.1221 750.2488,598.8523 Q749.6553,598.5825 749.0244,598.5825 Q747.6797,598.5825 746.9949,599.6492 Q746.3101,600.7158 746.3101,602.8159 Q746.3101,604.9077 746.9949,605.9744 Q747.6797,607.041 749.0244,607.041 Q749.6553,607.041 750.2488,606.7712 Q750.8423,606.5015 751.4731,605.9204 Z "/><text fill="#000000" font-family="sans-serif" font-size="12" lengthAdjust="spacingAndGlyphs" textLength="96" x="762.5" y="607.5352">GVRAudioEngine</text><line style="stroke: #00FF7F; stroke-width: 1.5;" x1="734.5" x2="860.5" y1="619" y2="619"/><line style="stroke: #00FF7F; stroke-width: 1.5;" x1="734.5" x2="860.5" y1="627" y2="627"/><!--class UserInfoControl--><rect fill="#98FB98" filter="url(#fe071jtz2hear)" height="99.8203" id="UserInfoControl" style="stroke: #00FF7F; stroke-width: 1.5;" width="393" x="1466" y="24"/><ellipse cx="1614.25" cy="40" fill="#ADD1B2" rx="11" ry="11" style="stroke: #00FF7F; stroke-width: 1.0;"/><path d="M1617.2231,45.6431 Q1616.6421,45.9419 1616.0029,46.0913 Q1615.3638,46.2407 1614.6582,46.2407 Q1612.1514,46.2407 1610.8315,44.5889 Q1609.5117,42.937 1609.5117,39.8159 Q1609.5117,36.6865 1610.8315,35.0347 Q1612.1514,33.3828 1614.6582,33.3828 Q1615.3638,33.3828 1616.0112,33.5322 Q1616.6587,33.6816 1617.2231,33.9805 L1617.2231,36.7031 Q1616.5923,36.1221 1615.9988,35.8523 Q1615.4053,35.5825 1614.7744,35.5825 Q1613.4297,35.5825 1612.7449,36.6492 Q1612.0601,37.7158 1612.0601,39.8159 Q1612.0601,41.9077 1612.7449,42.9744 Q1613.4297,44.041 1614.7744,44.041 Q1615.4053,44.041 1615.9988,43.7712 Q1616.5923,43.5015 1617.2231,42.9204 Z "/><text fill="#000000" font-family="sans-serif" font-size="12" lengthAdjust="spacingAndGlyphs" textLength="88" x="1634.75" y="44.5352">UserInfoControl</text><line style="stroke: #00FF7F; stroke-width: 1.5;" x1="1467" x2="1858" y1="56" y2="56"/><line style="stroke: #00FF7F; stroke-width: 1.5;" x1="1467" x2="1858" y1="64" y2="64"/><text fill="#000000" font-family="sans-serif" font-size="11" lengthAdjust="spacingAndGlyphs" textLength="381" x="1472" y="78.6348">login(username: String, password: String, remember: boolean): boolean</text><text fill="#000000" font-family="sans-serif" font-size="11" lengthAdjust="spacingAndGlyphs" textLength="272" x="1472" y="91.5898">setCurrentUser(userID: int, username: String): void</text><text fill="#000000" font-family="sans-serif" font-size="11" lengthAdjust="spacingAndGlyphs" textLength="159" x="1472" y="104.5449">rememberCurrentUser(): void</text><text fill="#000000" font-family="sans-serif" font-size="11" lengthAdjust="spacingAndGlyphs" textLength="329" x="1472" y="117.5">checkLoginData(username: String, password: String): boolean</text><!--class Communicator--><rect fill="#98FB98" filter="url(#fe071jtz2hear)" height="48" id="Communicator" style="stroke: #00FF7F; stroke-width: 1.5;" width="115" x="1285" y="281"/><ellipse cx="1300" cy="297" fill="#ADD1B2" rx="11" ry="11" style="stroke: #00FF7F; stroke-width: 1.0;"/><path d="M1302.9731,302.6431 Q1302.3921,302.9419 1301.7529,303.0913 Q1301.1138,303.2407 1300.4082,303.2407 Q1297.9014,303.2407 1296.5815,301.5889 Q1295.2617,299.937 1295.2617,296.8159 Q1295.2617,293.6865 1296.5815,292.0347 Q1297.9014,290.3828 1300.4082,290.3828 Q1301.1138,290.3828 1301.7612,290.5322 Q1302.4087,290.6816 1302.9731,290.9805 L1302.9731,293.7031 Q1302.3423,293.1221 1301.7488,292.8523 Q1301.1553,292.5825 1300.5244,292.5825 Q1299.1797,292.5825 1298.4949,293.6492 Q1297.8101,294.7158 1297.8101,296.8159 Q1297.8101,298.9077 1298.4949,299.9744 Q1299.1797,301.041 1300.5244,301.041 Q1301.1553,301.041 1301.7488,300.7712 Q1302.3423,300.5015 1302.9731,299.9204 Z "/><text fill="#000000" font-family="sans-serif" font-size="12" lengthAdjust="spacingAndGlyphs" textLength="83" x="1314" y="301.5352">Communicator</text><line style="stroke: #00FF7F; stroke-width: 1.5;" x1="1286" x2="1399" y1="313" y2="313"/><line style="stroke: #00FF7F; stroke-width: 1.5;" x1="1286" x2="1399" y1="321" y2="321"/><!--class WebServer--><rect fill="#98FB98" filter="url(#fe071jtz2hear)" height="48" id="WebServer" style="stroke: #00FF7F; stroke-width: 1.5;" width="93" x="1296" y="473"/><ellipse cx="1311" cy="489" fill="#ADD1B2" rx="11" ry="11" style="stroke: #00FF7F; stroke-width: 1.0;"/><path d="M1313.9731,494.6431 Q1313.3921,494.9419 1312.7529,495.0913 Q1312.1138,495.2407 1311.4082,495.2407 Q1308.9014,495.2407 1307.5815,493.5889 Q1306.2617,491.937 1306.2617,488.8159 Q1306.2617,485.6865 1307.5815,484.0347 Q1308.9014,482.3828 1311.4082,482.3828 Q1312.1138,482.3828 1312.7612,482.5322 Q1313.4087,482.6816 1313.9731,482.9805 L1313.9731,485.7031 Q1313.3423,485.1221 1312.7488,484.8523 Q1312.1553,484.5825 1311.5244,484.5825 Q1310.1797,484.5825 1309.4949,485.6492 Q1308.8101,486.7158 1308.8101,488.8159 Q1308.8101,490.9077 1309.4949,491.9744 Q1310.1797,493.041 1311.5244,493.041 Q1312.1553,493.041 1312.7488,492.7712 Q1313.3423,492.5015 1313.9731,491.9204 Z "/><text fill="#000000" font-family="sans-serif" font-size="12" lengthAdjust="spacingAndGlyphs" textLength="61" x="1325" y="493.5352">WebServer</text><line style="stroke: #00FF7F; stroke-width: 1.5;" x1="1297" x2="1388" y1="505" y2="505"/><line style="stroke: #00FF7F; stroke-width: 1.5;" x1="1297" x2="1388" y1="513" y2="513"/><!--class UserDatabase--><rect fill="#98FB98" filter="url(#fe071jtz2hear)" height="48" id="UserDatabase" style="stroke: #00FF7F; stroke-width: 1.5;" width="113" x="1025" y="587"/><ellipse cx="1040" cy="603" fill="#ADD1B2" rx="11" ry="11" style="stroke: #00FF7F; stroke-width: 1.0;"/><path d="M1042.9731,608.6431 Q1042.3921,608.9419 1041.7529,609.0913 Q1041.1138,609.2407 1040.4082,609.2407 Q1037.9014,609.2407 1036.5815,607.5889 Q1035.2617,605.937 1035.2617,602.8159 Q1035.2617,599.6865 1036.5815,598.0347 Q1037.9014,596.3828 1040.4082,596.3828 Q1041.1138,596.3828 1041.7612,596.5322 Q1042.4087,596.6816 1042.9731,596.9805 L1042.9731,599.7031 Q1042.3423,599.1221 1041.7488,598.8523 Q1041.1553,598.5825 1040.5244,598.5825 Q1039.1797,598.5825 1038.4949,599.6492 Q1037.8101,600.7158 1037.8101,602.8159 Q1037.8101,604.9077 1038.4949,605.9744 Q1039.1797,607.041 1040.5244,607.041 Q1041.1553,607.041 1041.7488,606.7712 Q1042.3423,606.5015 1042.9731,605.9204 Z "/><text fill="#000000" font-family="sans-serif" font-size="12" lengthAdjust="spacingAndGlyphs" textLength="81" x="1054" y="607.5352">UserDatabase</text><line style="stroke: #00FF7F; stroke-width: 1.5;" x1="1026" x2="1137" y1="619" y2="619"/><line style="stroke: #00FF7F; stroke-width: 1.5;" x1="1026" x2="1137" y1="627" y2="627"/><!--class VSSInformationDatabase--><rect fill="#98FB98" filter="url(#fe071jtz2hear)" height="48" id="VSSInformationDatabase" style="stroke: #00FF7F; stroke-width: 1.5;" width="172" x="1173.5" y="587"/><ellipse cx="1188.5" cy="603" fill="#ADD1B2" rx="11" ry="11" style="stroke: #00FF7F; stroke-width: 1.0;"/><path d="M1191.4731,608.6431 Q1190.8921,608.9419 1190.2529,609.0913 Q1189.6138,609.2407 1188.9082,609.2407 Q1186.4014,609.2407 1185.0815,607.5889 Q1183.7617,605.937 1183.7617,602.8159 Q1183.7617,599.6865 1185.0815,598.0347 Q1186.4014,596.3828 1188.9082,596.3828 Q1189.6138,596.3828 1190.2612,596.5322 Q1190.9087,596.6816 1191.4731,596.9805 L1191.4731,599.7031 Q1190.8423,599.1221 1190.2488,598.8523 Q1189.6553,598.5825 1189.0244,598.5825 Q1187.6797,598.5825 1186.9949,599.6492 Q1186.3101,600.7158 1186.3101,602.8159 Q1186.3101,604.9077 1186.9949,605.9744 Q1187.6797,607.041 1189.0244,607.041 Q1189.6553,607.041 1190.2488,606.7712 Q1190.8423,606.5015 1191.4731,605.9204 Z "/><text fill="#000000" font-family="sans-serif" font-size="12" lengthAdjust="spacingAndGlyphs" textLength="140" x="1202.5" y="607.5352">VSSInformationDatabase</text><line style="stroke: #00FF7F; stroke-width: 1.5;" x1="1174.5" x2="1344.5" y1="619" y2="619"/><line style="stroke: #00FF7F; stroke-width: 1.5;" x1="1174.5" x2="1344.5" y1="627" y2="627"/><!--class VSSFolder--><rect fill="#98FB98" filter="url(#fe071jtz2hear)" height="48" id="VSSFolder" style="stroke: #00FF7F; stroke-width: 1.5;" width="88" x="1380.5" y="587"/><ellipse cx="1395.5" cy="603" fill="#ADD1B2" rx="11" ry="11" style="stroke: #00FF7F; stroke-width: 1.0;"/><path d="M1398.4731,608.6431 Q1397.8921,608.9419 1397.2529,609.0913 Q1396.6138,609.2407 1395.9082,609.2407 Q1393.4014,609.2407 1392.0815,607.5889 Q1390.7617,605.937 1390.7617,602.8159 Q1390.7617,599.6865 1392.0815,598.0347 Q1393.4014,596.3828 1395.9082,596.3828 Q1396.6138,596.3828 1397.2612,596.5322 Q1397.9087,596.6816 1398.4731,596.9805 L1398.4731,599.7031 Q1397.8423,599.1221 1397.2488,598.8523 Q1396.6553,598.5825 1396.0244,598.5825 Q1394.6797,598.5825 1393.9949,599.6492 Q1393.3101,600.7158 1393.3101,602.8159 Q1393.3101,604.9077 1393.9949,605.9744 Q1394.6797,607.041 1396.0244,607.041 Q1396.6553,607.041 1397.2488,606.7712 Q1397.8423,606.5015 1398.4731,605.9204 Z "/><text fill="#000000" font-family="sans-serif" font-size="12" lengthAdjust="spacingAndGlyphs" textLength="56" x="1409.5" y="607.5352">VSSFolder</text><line style="stroke: #00FF7F; stroke-width: 1.5;" x1="1381.5" x2="1467.5" y1="619" y2="619"/><line style="stroke: #00FF7F; stroke-width: 1.5;" x1="1381.5" x2="1467.5" y1="627" y2="627"/><!--class VSSCommentDatabase--><rect fill="#98FB98" filter="url(#fe071jtz2hear)" height="48" id="VSSCommentDatabase" style="stroke: #00FF7F; stroke-width: 1.5;" width="162" x="1503.5" y="587"/><ellipse cx="1518.5" cy="603" fill="#ADD1B2" rx="11" ry="11" style="stroke: #00FF7F; stroke-width: 1.0;"/><path d="M1521.4731,608.6431 Q1520.8921,608.9419 1520.2529,609.0913 Q1519.6138,609.2407 1518.9082,609.2407 Q1516.4014,609.2407 1515.0815,607.5889 Q1513.7617,605.937 1513.7617,602.8159 Q1513.7617,599.6865 1515.0815,598.0347 Q1516.4014,596.3828 1518.9082,596.3828 Q1519.6138,596.3828 1520.2612,596.5322 Q1520.9087,596.6816 1521.4731,596.9805 L1521.4731,599.7031 Q1520.8423,599.1221 1520.2488,598.8523 Q1519.6553,598.5825 1519.0244,598.5825 Q1517.6797,598.5825 1516.9949,599.6492 Q1516.3101,600.7158 1516.3101,602.8159 Q1516.3101,604.9077 1516.9949,605.9744 Q1517.6797,607.041 1519.0244,607.041 Q1519.6553,607.041 1520.2488,606.7712 Q1520.8423,606.5015 1521.4731,605.9204 Z "/><text fill="#000000" font-family="sans-serif" font-size="12" lengthAdjust="spacingAndGlyphs" textLength="130" x="1532.5" y="607.5352">VSSCommentDatabase</text><line style="stroke: #00FF7F; stroke-width: 1.5;" x1="1504.5" x2="1664.5" y1="619" y2="619"/><line style="stroke: #00FF7F; stroke-width: 1.5;" x1="1504.5" x2="1664.5" y1="627" y2="627"/><!--class VSSPackage--><rect fill="#98FB98" filter="url(#fe071jtz2hear)" height="48" id="VSSPackage" style="stroke: #00FF7F; stroke-width: 1.5;" width="100" x="1535.5" y="877"/><ellipse cx="1550.5" cy="893" fill="#ADD1B2" rx="11" ry="11" style="stroke: #00FF7F; stroke-width: 1.0;"/><path d="M1553.4731,898.6431 Q1552.8921,898.9419 1552.2529,899.0913 Q1551.6138,899.2407 1550.9082,899.2407 Q1548.4014,899.2407 1547.0815,897.5889 Q1545.7617,895.937 1545.7617,892.8159 Q1545.7617,889.6865 1547.0815,888.0347 Q1548.4014,886.3828 1550.9082,886.3828 Q1551.6138,886.3828 1552.2612,886.5322 Q1552.9087,886.6816 1553.4731,886.9805 L1553.4731,889.7031 Q1552.8423,889.1221 1552.2488,888.8523 Q1551.6553,888.5825 1551.0244,888.5825 Q1549.6797,888.5825 1548.9949,889.6492 Q1548.3101,890.7158 1548.3101,892.8159 Q1548.3101,894.9077 1548.9949,895.9744 Q1549.6797,897.041 1551.0244,897.041 Q1551.6553,897.041 1552.2488,896.7712 Q1552.8423,896.5015 1553.4731,895.9204 Z "/><text fill="#000000" font-family="sans-serif" font-size="12" lengthAdjust="spacingAndGlyphs" textLength="68" x="1564.5" y="897.5352">VSSPackage</text><line style="stroke: #00FF7F; stroke-width: 1.5;" x1="1536.5" x2="1634.5" y1="909" y2="909"/><line style="stroke: #00FF7F; stroke-width: 1.5;" x1="1536.5" x2="1634.5" y1="917" y2="917"/><!--class MVSSFolder--><rect fill="#98FB98" filter="url(#fe071jtz2hear)" height="48" id="MVSSFolder" style="stroke: #00FF7F; stroke-width: 1.5;" width="98" x="1309.5" y="733.5"/><ellipse cx="1324.5" cy="749.5" fill="#ADD1B2" rx="11" ry="11" style="stroke: #00FF7F; stroke-width: 1.0;"/><path d="M1327.4731,755.1431 Q1326.8921,755.4419 1326.2529,755.5913 Q1325.6138,755.7407 1324.9082,755.7407 Q1322.4014,755.7407 1321.0815,754.0889 Q1319.7617,752.437 1319.7617,749.3159 Q1319.7617,746.1865 1321.0815,744.5347 Q1322.4014,742.8828 1324.9082,742.8828 Q1325.6138,742.8828 1326.2612,743.0322 Q1326.9087,743.1816 1327.4731,743.4805 L1327.4731,746.2031 Q1326.8423,745.6221 1326.2488,745.3523 Q1325.6553,745.0825 1325.0244,745.0825 Q1323.6797,745.0825 1322.9949,746.1492 Q1322.3101,747.2158 1322.3101,749.3159 Q1322.3101,751.4077 1322.9949,752.4744 Q1323.6797,753.541 1325.0244,753.541 Q1325.6553,753.541 1326.2488,753.2712 Q1326.8423,753.0015 1327.4731,752.4204 Z "/><text fill="#000000" font-family="sans-serif" font-size="12" lengthAdjust="spacingAndGlyphs" textLength="66" x="1338.5" y="754.0352">MVSSFolder</text><line style="stroke: #00FF7F; stroke-width: 1.5;" x1="1310.5" x2="1406.5" y1="765.5" y2="765.5"/><line style="stroke: #00FF7F; stroke-width: 1.5;" x1="1310.5" x2="1406.5" y1="773.5" y2="773.5"/><!--class CVSSFolder--><rect fill="#98FB98" filter="url(#fe071jtz2hear)" height="48" id="CVSSFolder" style="stroke: #00FF7F; stroke-width: 1.5;" width="96" x="1442.5" y="733.5"/><ellipse cx="1457.5" cy="749.5" fill="#ADD1B2" rx="11" ry="11" style="stroke: #00FF7F; stroke-width: 1.0;"/><path d="M1460.4731,755.1431 Q1459.8921,755.4419 1459.2529,755.5913 Q1458.6138,755.7407 1457.9082,755.7407 Q1455.4014,755.7407 1454.0815,754.0889 Q1452.7617,752.437 1452.7617,749.3159 Q1452.7617,746.1865 1454.0815,744.5347 Q1455.4014,742.8828 1457.9082,742.8828 Q1458.6138,742.8828 1459.2612,743.0322 Q1459.9087,743.1816 1460.4731,743.4805 L1460.4731,746.2031 Q1459.8423,745.6221 1459.2488,745.3523 Q1458.6553,745.0825 1458.0244,745.0825 Q1456.6797,745.0825 1455.9949,746.1492 Q1455.3101,747.2158 1455.3101,749.3159 Q1455.3101,751.4077 1455.9949,752.4744 Q1456.6797,753.541 1458.0244,753.541 Q1458.6553,753.541 1459.2488,753.2712 Q1459.8423,753.0015 1460.4731,752.4204 Z "/><text fill="#000000" font-family="sans-serif" font-size="12" lengthAdjust="spacingAndGlyphs" textLength="64" x="1471.5" y="754.0352">CVSSFolder</text><line style="stroke: #00FF7F; stroke-width: 1.5;" x1="1443.5" x2="1537.5" y1="765.5" y2="765.5"/><line style="stroke: #00FF7F; stroke-width: 1.5;" x1="1443.5" x2="1537.5" y1="773.5" y2="773.5"/><!--link UserInfoControl to Communicator--><path d="M1593.0648,124.1236 C1527.806,171.2323 1432.5762,239.9763 1380.3155,277.702 " fill="none" id="UserInfoControl-Communicator" style="stroke: #2E8B57; stroke-width: 1.0; stroke-dasharray: 7.0,7.0;"/><polygon fill="#2E8B57" points="1376.0114,280.8089,1385.6499,278.7844,1380.0655,277.8824,1380.9675,272.2979,1376.0114,280.8089" style="stroke: #2E8B57; stroke-width: 1.0;"/><!--link LocalSoundSpaceLibrary to Communicator--><path d="M1155.4716,98.2844 C1194.5142,141.4368 1275.7537,231.2278 1317.117,276.9451 " fill="none" id="LocalSoundSpaceLibrary-Communicator" style="stroke: #2E8B57; stroke-width: 1.0; stroke-dasharray: 7.0,7.0;"/><polygon fill="#2E8B57" points="1320.5091,280.6943,1317.4371,271.3368,1317.1545,276.9866,1311.5048,276.7041,1320.5091,280.6943" style="stroke: #2E8B57; stroke-width: 1.0;"/><!--link OnlineSoundSpaceLibrary to Communicator--><path d="M1342.5,98.2844 C1342.5,141.0035 1342.5,229.4295 1342.5,275.5549 " fill="none" id="OnlineSoundSpaceLibrary-Communicator" style="stroke: #2E8B57; stroke-width: 1.0; stroke-dasharray: 7.0,7.0;"/><polygon fill="#2E8B57" points="1342.5,280.6943,1346.5,271.6943,1342.5,275.6943,1338.5,271.6943,1342.5,280.6943" style="stroke: #2E8B57; stroke-width: 1.0;"/><!--link Communicator to WebServer--><path d="M1342.5,329.3169 C1342.5,364.5178 1342.5,429.593 1342.5,467.4927 " fill="none" id="Communicator-WebServer" style="stroke: #2E8B57; stroke-width: 1.0; stroke-dasharray: 7.0,7.0;"/><polygon fill="#2E8B57" points="1342.5,472.8805,1346.5,463.8805,1342.5,467.8805,1338.5,463.8805,1342.5,472.8805" style="stroke: #2E8B57; stroke-width: 1.0;"/><!--link WebServer to VSSInformationDatabase--><path d="M1324.8978,521.1765 C1310.8125,540.5227 1291.1555,567.5214 1277.0768,586.8584 " fill="none" id="WebServer-VSSInformationDatabase" style="stroke: #2E8B57; stroke-width: 1.0;"/><!--link WebServer to VSSFolder--><path d="M1359.8901,521.1765 C1373.8058,540.5227 1393.2259,567.5214 1407.135,586.8584 " fill="none" id="WebServer-VSSFolder" style="stroke: #2E8B57; stroke-width: 1.0;"/><!--link WebServer to UserDatabase--><path d="M1295.8384,517.3809 C1251.2639,536.8502 1184.059,566.2041 1136.8115,586.841 " fill="none" id="WebServer-UserDatabase" style="stroke: #2E8B57; stroke-width: 1.0;"/><!--link WebServer to VSSCommentDatabase--><path d="M1389.16,518.9803 C1430.5019,538.4554 1490.7473,566.8355 1533.3814,586.9193 " fill="none" id="WebServer-VSSCommentDatabase" style="stroke: #2E8B57; stroke-width: 1.0;"/><!--link MVSSFolder to VSSPackage--><path d="M1392.4693,790.5298 C1402.6725,799.645 1414.1747,809.1716 1425.5,817 C1460.3406,841.0827 1502.9299,863.1254 1535.4066,878.5824 " fill="none" id="MVSSFolder-VSSPackage" style="stroke: #2E8B57; stroke-width: 1.0;"/><polygon fill="#FFFFFF" points="1382.7537,781.6299,1384.4761,788.6323,1391.6023,789.7356,1389.8799,782.7333,1382.7537,781.6299" style="stroke: #2E8B57; stroke-width: 1.0;"/><!--link CVSSFolder to VSSPackage--><path d="M1513.6618,792.4865 C1530.9953,818.6692 1554.2533,853.8011 1569.5473,876.903 " fill="none" id="CVSSFolder-VSSPackage" style="stroke: #2E8B57; stroke-width: 1.0;"/><polygon fill="#FFFFFF" points="1506.4009,781.5187,1506.3777,788.7298,1513.0251,791.5247,1513.0483,784.3136,1506.4009,781.5187" style="stroke: #2E8B57; stroke-width: 1.0;"/><!--link VSSFolder to MVSSFolder--><path d="M1408.2038,647.1726 C1396.1198,673.9955 1379.9773,709.8269 1369.4147,733.2726 " fill="none" id="VSSFolder-MVSSFolder" style="stroke: #2E8B57; stroke-width: 1.0;"/><polygon fill="#FFFFFF" points="1413.6014,635.1915,1407.4899,639.0189,1408.6723,646.1324,1414.7838,642.305,1413.6014,635.1915" style="stroke: #2E8B57; stroke-width: 1.0;"/><!--link VSSFolder to CVSSFolder--><path d="M1440.7962,647.1726 C1452.8802,673.9955 1469.0227,709.8269 1479.5853,733.2726 " fill="none" id="VSSFolder-CVSSFolder" style="stroke: #2E8B57; stroke-width: 1.0;"/><polygon fill="#FFFFFF" points="1435.3986,635.1915,1434.2162,642.305,1440.3277,646.1324,1441.5101,639.0189,1435.3986,635.1915" style="stroke: #2E8B57; stroke-width: 1.0;"/><!--link SoundSource to VSSPackage--><path d="M1641.6214,817.1103 C1630.5649,833.6374 1618.9163,851.0496 1609.1148,865.7008 " fill="none" id="SoundSource-VSSPackage" style="stroke: #2E8B57; stroke-width: 1.0;"/><polygon fill="#FFFFFF" points="1601.6969,876.7891,1608.3578,874.0263,1608.3694,866.8152,1601.7085,869.578,1601.6969,876.7891" style="stroke: #2E8B57; stroke-width: 1.0;"/><!--link SoundFragment to VSSPackage--><path d="M1854.3118,784.6125 C1840.5859,795.644 1823.881,807.9081 1807.5,817 C1756.4517,845.333 1693.9106,868.0335 1648.2335,882.6578 " fill="none" id="SoundFragment-VSSPackage" style="stroke: #2E8B57; stroke-width: 1.0;"/><polygon fill="#FFFFFF" points="1635.8209,886.5664,1642.7453,888.5796,1647.2668,882.9622,1640.3425,880.949,1635.8209,886.5664" style="stroke: #2E8B57; stroke-width: 1.0;"/><!--link Quaternion to Position--><!--link Position to Sensor--><!--link Sensor to VirtualSoundSpace--><!--link VirtualSoundSpace to RegisterViewModel--><!--link Quaternion to LocalVSSManagerViewModel--><!--link LocalVSSManagerViewModel to LoginViewModel--><!--link LoginViewModel to PreviewLocalMapViewModel--><!--link PreviewLocalMapViewModel to PreviewLocalConcertViewModel--><!--link PreviewLocalConcertViewModel to CreateVSSViewModel--><!--link LocalVSSManagerViewModel to CreateMapVSSViewModel--><!--link CreateMapVSSViewModel to CreateConcertVSSViewModel--><!--link CreateConcertVSSViewModel to PreviewOnlineMapViewModel--><!--link PreviewOnlineMapViewModel to PreviewOnlineConcertViewModel--><!--link PreviewOnlineConcertViewModel to PlayMapModeVSSViewModel--><!--link CreateMapVSSViewModel to AdjustSensorViewModel--><!--link AdjustSensorViewModel to PlayConcertModeVSSViewModel--><!--link PlayConcertModeVSSViewModel to OnlineVSSViewerViewModel--><!--link OnlineVSSViewerViewModel to GVRAudioEngine--><!--
@startuml Diagrams/ClassDiagram
skinparam class {
	BackgroundColor PaleGreen
	ArrowColor SeaGreen
	BorderColor SpringGreen
	BackgroundColor<<viewModel>> LightBlue
	BorderColor<<viewModel>> Blue
    BackgroundColor<<control>> LightGray
    BorderColor<<control>> Red
    BackgroundColor<<entity>> LightYellow
    BorderColor<<entity>> Yellow
}


class Quaternion <<entity>> {
	w: float
	x: float
	y: float
	z: float
}

class Position <<entity>> {
	x: float
	y: float
	z: float
}


class LocalSoundSpaceLibrary {

}
class Sensor <<entity>> {
	void clearTask()
	Quaternion getHeadPose()
	void callWhenUpdatedDelay(int millisecond)
	void callWhenUpdated(Callable task)
	boolean isSensorOnline()
	Position getCurrentLocation()
}
class VirtualSoundSpace <<entity>> {
	name: String
	ownerID: int
	comments: List<Comment>
	likes: List<int>
}
class SoundSource <<entity>> {
	soundSourceList: List<SoundSource>
	VSSName: String
	VSSDescription: String
	uploadUserID: String
	initLocation: LatLng
}
class OnlineSoundSpaceLibrary {

}
class SoundFragment <<entity>> {

}
class RegisterViewModel <<viewModel>> {
	allowRegister: boolean
	onRememberButtonToggled(): void

}
class LocalVSSManagerViewModel <<viewModel>> {
  ..private..
  -prevPage:boolean
  -nextPage:boolean
  -virtualSoundSpaces:List<VirtualSoundSpace>
  ..public..
  +onCreateButtonClicked():void
  +onUploadButtonClicked():void
  +onDeleteButtonClicked():void
  +onRenameButtonClicked():void
  +onPrevButtonClicked():void
  +onNextButtonClicked():void
  +onPreviewButtonClicked():void
}
class LoginViewModel <<viewModel>> {

	onRegisterButtonClicked(): void
	onLoginDataChanged(): void
}
class PreviewLocalMapViewModel <<viewModel>> {

}
class PreviewLocalConcertViewModel <<viewModel>> {

}
class CreateVSSViewModel <<viewModel>> {

}
class CreateMapVSSViewModel <<viewModel>> {

}
class CreateConcertVSSViewModel <<viewModel>> {

}
class PreviewOnlineMapViewModel <<viewModel>> {

}
class PreviewOnlineConcertViewModel <<viewModel>> {

}
class PlayMapModeVSSViewModel <<viewModel>> {

}

class AdjustSensorViewModel <<viewModel>> {

}
class PlayConcertModeVSSViewModel <<viewModel>> {

}

class OnlineVSSViewerViewModel <<viewModel>> {

}
class GVRAudioEngine {

}
class UserInfoControl {
	login(username: String, password: String, remember: boolean): boolean
	setCurrentUser(userID: int, username: String): void
	rememberCurrentUser(): void
	checkLoginData(username: String, password: String): boolean
}

class Communicator{

}
class WebServer{
}

class UserDatabase{
}
class VSSInformationDatabase{
}
class VSSFolder{
}
class VSSCommentDatabase{
}
class VSSPackage{

}
class MVSSFolder{

}
class CVSSFolder{

}

UserInfoControl ..> Communicator
LocalSoundSpaceLibrary ..> Communicator
OnlineSoundSpaceLibrary ..> Communicator

Communicator ..> WebServer
WebServer - - VSSInformationDatabase
WebServer - -VSSFolder
WebServer - - UserDatabase
WebServer - - VSSCommentDatabase
MVSSFolder o- - VSSPackage
CVSSFolder o- - VSSPackage
VSSFolder o- - MVSSFolder
VSSFolder o- - CVSSFolder
SoundSource - -o VSSPackage
SoundFragment - -o VSSPackage
@enduml

PlantUML version 1.2018.02(Sat Mar 10 01:20:44 CST 2018)
(GPL source distribution)
Java Runtime: Java(TM) SE Runtime Environment
JVM: Java HotSpot(TM) 64-Bit Server VM
Java Version: 1.8.0_151-b12
Operating System: Mac OS X
OS Version: 10.11.6
Default Encoding: UTF-8
Language: zh
Country: CN
--></g></svg>
