<?xml version="1.0" encoding="UTF-8" standalone="no"?><svg xmlns="http://www.w3.org/2000/svg" xmlns:xlink="http://www.w3.org/1999/xlink" contentScriptType="application/ecmascript" contentStyleType="text/css" height="743px" preserveAspectRatio="none" style="width:1144px;height:743px;" version="1.1" viewBox="0 0 1144 743"
    width="1144px" zoomAndPan="magnify"><defs><filter height="300%" id="feudj3cus4xcv" width="300%" x="-1" y="-1"><feGaussianBlur result="blurOut" stdDeviation="2.0"/><feColorMatrix in="blurOut" result="blurOut2" type="matrix" values="0 0 0 0 0 0 0 0 0 0 0 0 0 0 0 0 0 0 .4 0"/><feOffset dx="4.0" dy="4.0" in="blurOut2" result="blurOut3"/><feBlend in="SourceGraphic" in2="blurOut3" mode="normal"/></filter></defs><g><!--class Quaternion--><rect fill="#FFFFE0" filter="url(#feudj3cus4xcv)" height="106.0859" id="Quaternion" style="stroke: #FFFF00; stroke-width: 1.5;" width="95" x="66.5" y="21"/><ellipse cx="81.5" cy="40.1328" fill="#ADD1B2" rx="11" ry="11" style="stroke: #FFFF00; stroke-width: 1.0;"/><path d="M84.4731,45.7759 Q83.8921,46.0747 83.2529,46.2241 Q82.6138,46.3735 81.9082,46.3735 Q79.4014,46.3735 78.0815,44.7217 Q76.7617,43.0698 76.7617,39.9487 Q76.7617,36.8193 78.0815,35.1675 Q79.4014,33.5156 81.9082,33.5156 Q82.6138,33.5156 83.2612,33.665 Q83.9087,33.8145 84.4731,34.1133 L84.4731,36.8359 Q83.8423,36.2549 83.2488,35.9851 Q82.6553,35.7153 82.0244,35.7153 Q80.6797,35.7153 79.9949,36.782 Q79.3101,37.8486 79.3101,39.9487 Q79.3101,42.0405 79.9949,43.1072 Q80.6797,44.1738 82.0244,44.1738 Q82.6553,44.1738 83.2488,43.9041 Q83.8423,43.6343 84.4731,43.0532 Z "/><text fill="#000000" font-family="sans-serif" font-size="12" font-style="italic" lengthAdjust="spacingAndGlyphs" textLength="43" x="105.5" y="37.6016">«entity»</text><text fill="#000000" font-family="sans-serif" font-size="12" lengthAdjust="spacingAndGlyphs" textLength="63" x="95.5" y="51.7344">Quaternion</text><line style="stroke: #FFFF00; stroke-width: 1.5;" x1="67.5" x2="160.5" y1="59.2656" y2="59.2656"/><text fill="#000000" font-family="sans-serif" font-size="11" lengthAdjust="spacingAndGlyphs" textLength="38" x="72.5" y="73.9004">w: float</text><text fill="#000000" font-family="sans-serif" font-size="11" lengthAdjust="spacingAndGlyphs" textLength="37" x="72.5" y="86.8555">x: float</text><text fill="#000000" font-family="sans-serif" font-size="11" lengthAdjust="spacingAndGlyphs" textLength="36" x="72.5" y="99.8105">y: float</text><text fill="#000000" font-family="sans-serif" font-size="11" lengthAdjust="spacingAndGlyphs" textLength="36" x="72.5" y="112.7656">z: float</text><line style="stroke: #FFFF00; stroke-width: 1.5;" x1="67.5" x2="160.5" y1="119.0859" y2="119.0859"/><!--class Position--><rect fill="#FFFFE0" filter="url(#feudj3cus4xcv)" height="93.1309" id="Position" style="stroke: #FFFF00; stroke-width: 1.5;" width="76" x="197" y="27.5"/><ellipse cx="212" cy="46.6328" fill="#ADD1B2" rx="11" ry="11" style="stroke: #FFFF00; stroke-width: 1.0;"/><path d="M214.9731,52.2759 Q214.3921,52.5747 213.7529,52.7241 Q213.1138,52.8735 212.4082,52.8735 Q209.9014,52.8735 208.5815,51.2217 Q207.2617,49.5698 207.2617,46.4487 Q207.2617,43.3193 208.5815,41.6675 Q209.9014,40.0156 212.4082,40.0156 Q213.1138,40.0156 213.7612,40.165 Q214.4087,40.3145 214.9731,40.6133 L214.9731,43.3359 Q214.3423,42.7549 213.7488,42.4851 Q213.1553,42.2153 212.5244,42.2153 Q211.1797,42.2153 210.4949,43.282 Q209.8101,44.3486 209.8101,46.4487 Q209.8101,48.5405 210.4949,49.6072 Q211.1797,50.6738 212.5244,50.6738 Q213.1553,50.6738 213.7488,50.4041 Q214.3423,50.1343 214.9731,49.5532 Z "/><text fill="#000000" font-family="sans-serif" font-size="12" font-style="italic" lengthAdjust="spacingAndGlyphs" textLength="43" x="226.5" y="44.1016">«entity»</text><text fill="#000000" font-family="sans-serif" font-size="12" lengthAdjust="spacingAndGlyphs" textLength="44" x="226" y="58.2344">Position</text><line style="stroke: #FFFF00; stroke-width: 1.5;" x1="198" x2="272" y1="65.7656" y2="65.7656"/><text fill="#000000" font-family="sans-serif" font-size="11" lengthAdjust="spacingAndGlyphs" textLength="37" x="203" y="80.4004">x: float</text><text fill="#000000" font-family="sans-serif" font-size="11" lengthAdjust="spacingAndGlyphs" textLength="36" x="203" y="93.3555">y: float</text><text fill="#000000" font-family="sans-serif" font-size="11" lengthAdjust="spacingAndGlyphs" textLength="36" x="203" y="106.3105">z: float</text><line style="stroke: #FFFF00; stroke-width: 1.5;" x1="198" x2="272" y1="112.6309" y2="112.6309"/><!--class LocalSoundSpaceLibrary--><rect fill="#98FB98" filter="url(#feudj3cus4xcv)" height="48" id="LocalSoundSpaceLibrary" style="stroke: #00FF7F; stroke-width: 1.5;" width="170" x="308" y="50"/><ellipse cx="323" cy="66" fill="#ADD1B2" rx="11" ry="11" style="stroke: #00FF7F; stroke-width: 1.0;"/><path d="M325.9731,71.6431 Q325.3921,71.9419 324.7529,72.0913 Q324.1138,72.2407 323.4082,72.2407 Q320.9014,72.2407 319.5815,70.5889 Q318.2617,68.937 318.2617,65.8159 Q318.2617,62.6865 319.5815,61.0347 Q320.9014,59.3828 323.4082,59.3828 Q324.1138,59.3828 324.7612,59.5322 Q325.4087,59.6816 325.9731,59.9805 L325.9731,62.7031 Q325.3423,62.1221 324.7488,61.8523 Q324.1553,61.5825 323.5244,61.5825 Q322.1797,61.5825 321.4949,62.6492 Q320.8101,63.7158 320.8101,65.8159 Q320.8101,67.9077 321.4949,68.9744 Q322.1797,70.041 323.5244,70.041 Q324.1553,70.041 324.7488,69.7712 Q325.3423,69.5015 325.9731,68.9204 Z "/><text fill="#000000" font-family="sans-serif" font-size="12" lengthAdjust="spacingAndGlyphs" textLength="138" x="337" y="70.5352">LocalSoundSpaceLibrary</text><line style="stroke: #00FF7F; stroke-width: 1.5;" x1="309" x2="477" y1="82" y2="82"/><line style="stroke: #00FF7F; stroke-width: 1.5;" x1="309" x2="477" y1="90" y2="90"/><!--class Sensor--><rect fill="#FFFFE0" filter="url(#feudj3cus4xcv)" height="131.9961" id="Sensor" style="stroke: #FFFF00; stroke-width: 1.5;" width="245" x="513.5" y="8"/><ellipse cx="612.25" cy="27.1328" fill="#ADD1B2" rx="11" ry="11" style="stroke: #FFFF00; stroke-width: 1.0;"/><path d="M615.2231,32.7759 Q614.6421,33.0747 614.0029,33.2241 Q613.3638,33.3735 612.6582,33.3735 Q610.1514,33.3735 608.8315,31.7217 Q607.5117,30.0698 607.5117,26.9487 Q607.5117,23.8193 608.8315,22.1675 Q610.1514,20.5156 612.6582,20.5156 Q613.3638,20.5156 614.0112,20.665 Q614.6587,20.8145 615.2231,21.1133 L615.2231,23.8359 Q614.5923,23.2549 613.9988,22.9851 Q613.4053,22.7153 612.7744,22.7153 Q611.4297,22.7153 610.7449,23.782 Q610.0601,24.8486 610.0601,26.9487 Q610.0601,29.0405 610.7449,30.1072 Q611.4297,31.1738 612.7744,31.1738 Q613.4053,31.1738 613.9988,30.9041 Q614.5923,30.6343 615.2231,30.0532 Z "/><text fill="#000000" font-family="sans-serif" font-size="12" font-style="italic" lengthAdjust="spacingAndGlyphs" textLength="43" x="630.75" y="24.6016">«entity»</text><text fill="#000000" font-family="sans-serif" font-size="12" lengthAdjust="spacingAndGlyphs" textLength="38" x="633.25" y="38.7344">Sensor</text><line style="stroke: #FFFF00; stroke-width: 1.5;" x1="514.5" x2="757.5" y1="46.2656" y2="46.2656"/><line style="stroke: #FFFF00; stroke-width: 1.5;" x1="514.5" x2="757.5" y1="54.2656" y2="54.2656"/><text fill="#000000" font-family="sans-serif" font-size="11" lengthAdjust="spacingAndGlyphs" textLength="85" x="519.5" y="68.9004">void clearTask()</text><text fill="#000000" font-family="sans-serif" font-size="11" lengthAdjust="spacingAndGlyphs" textLength="141" x="519.5" y="81.8555">Quaternion getHeadPose()</text><text fill="#000000" font-family="sans-serif" font-size="11" lengthAdjust="spacingAndGlyphs" textLength="233" x="519.5" y="94.8105">void callWhenUpdatedDelay(int millisecond)</text><text fill="#000000" font-family="sans-serif" font-size="11" lengthAdjust="spacingAndGlyphs" textLength="193" x="519.5" y="107.7656">void callWhenUpdated(Callable task)</text><text fill="#000000" font-family="sans-serif" font-size="11" lengthAdjust="spacingAndGlyphs" textLength="135" x="519.5" y="120.7207">boolean isSensorOnline()</text><text fill="#000000" font-family="sans-serif" font-size="11" lengthAdjust="spacingAndGlyphs" textLength="159" x="519.5" y="133.6758">Position getCurrentLocation()</text><!--class VirtualSoundSpace--><rect fill="#FFFFE0" filter="url(#feudj3cus4xcv)" height="106.0859" id="VirtualSoundSpace" style="stroke: #FFFF00; stroke-width: 1.5;" width="163" x="793.5" y="21"/><ellipse cx="819.75" cy="40.1328" fill="#ADD1B2" rx="11" ry="11" style="stroke: #FFFF00; stroke-width: 1.0;"/><path d="M822.7231,45.7759 Q822.1421,46.0747 821.5029,46.2241 Q820.8638,46.3735 820.1582,46.3735 Q817.6514,46.3735 816.3315,44.7217 Q815.0117,43.0698 815.0117,39.9487 Q815.0117,36.8193 816.3315,35.1675 Q817.6514,33.5156 820.1582,33.5156 Q820.8638,33.5156 821.5112,33.665 Q822.1587,33.8145 822.7231,34.1133 L822.7231,36.8359 Q822.0923,36.2549 821.4988,35.9851 Q820.9053,35.7153 820.2744,35.7153 Q818.9297,35.7153 818.2449,36.782 Q817.5601,37.8486 817.5601,39.9487 Q817.5601,42.0405 818.2449,43.1072 Q818.9297,44.1738 820.2744,44.1738 Q820.9053,44.1738 821.4988,43.9041 Q822.0923,43.6343 822.7231,43.0532 Z "/><text fill="#000000" font-family="sans-serif" font-size="12" font-style="italic" lengthAdjust="spacingAndGlyphs" textLength="43" x="867.75" y="37.6016">«entity»</text><text fill="#000000" font-family="sans-serif" font-size="12" lengthAdjust="spacingAndGlyphs" textLength="106" x="836.25" y="51.7344">VirtualSoundSpace</text><line style="stroke: #FFFF00; stroke-width: 1.5;" x1="794.5" x2="955.5" y1="59.2656" y2="59.2656"/><text fill="#000000" font-family="sans-serif" font-size="11" lengthAdjust="spacingAndGlyphs" textLength="67" x="799.5" y="73.9004">name: String</text><text fill="#000000" font-family="sans-serif" font-size="11" lengthAdjust="spacingAndGlyphs" textLength="64" x="799.5" y="86.8555">ownerID: int</text><text fill="#000000" font-family="sans-serif" font-size="11" lengthAdjust="spacingAndGlyphs" textLength="151" x="799.5" y="99.8105">comments: List&lt;Comment&gt;</text><text fill="#000000" font-family="sans-serif" font-size="11" lengthAdjust="spacingAndGlyphs" textLength="81" x="799.5" y="112.7656">likes: List&lt;int&gt;</text><line style="stroke: #FFFF00; stroke-width: 1.5;" x1="794.5" x2="955.5" y1="119.0859" y2="119.0859"/><!--class SoundSource--><rect fill="#FFFFE0" filter="url(#feudj3cus4xcv)" height="119.041" id="SoundSource" style="stroke: #FFFF00; stroke-width: 1.5;" width="216" x="6" y="200"/><ellipse cx="73.25" cy="219.1328" fill="#ADD1B2" rx="11" ry="11" style="stroke: #FFFF00; stroke-width: 1.0;"/><path d="M76.2231,224.7759 Q75.6421,225.0747 75.0029,225.2241 Q74.3638,225.3735 73.6582,225.3735 Q71.1514,225.3735 69.8315,223.7217 Q68.5117,222.0698 68.5117,218.9487 Q68.5117,215.8193 69.8315,214.1675 Q71.1514,212.5156 73.6582,212.5156 Q74.3638,212.5156 75.0112,212.665 Q75.6587,212.8145 76.2231,213.1133 L76.2231,215.8359 Q75.5923,215.2549 74.9988,214.9851 Q74.4053,214.7153 73.7744,214.7153 Q72.4297,214.7153 71.7449,215.782 Q71.0601,216.8486 71.0601,218.9487 Q71.0601,221.0405 71.7449,222.1072 Q72.4297,223.1738 73.7744,223.1738 Q74.4053,223.1738 74.9988,222.9041 Q75.5923,222.6343 76.2231,222.0532 Z "/><text fill="#000000" font-family="sans-serif" font-size="12" font-style="italic" lengthAdjust="spacingAndGlyphs" textLength="43" x="108.75" y="216.6016">«entity»</text><text fill="#000000" font-family="sans-serif" font-size="12" lengthAdjust="spacingAndGlyphs" textLength="73" x="93.75" y="230.7344">SoundSource</text><line style="stroke: #FFFF00; stroke-width: 1.5;" x1="7" x2="221" y1="238.2656" y2="238.2656"/><text fill="#000000" font-family="sans-serif" font-size="11" lengthAdjust="spacingAndGlyphs" textLength="204" x="12" y="252.9004">soundSourceList: List&lt;SoundSource&gt;</text><text fill="#000000" font-family="sans-serif" font-size="11" lengthAdjust="spacingAndGlyphs" textLength="87" x="12" y="265.8555">VSSName: String</text><text fill="#000000" font-family="sans-serif" font-size="11" lengthAdjust="spacingAndGlyphs" textLength="119" x="12" y="278.8105">VSSDescription: String</text><text fill="#000000" font-family="sans-serif" font-size="11" lengthAdjust="spacingAndGlyphs" textLength="111" x="12" y="291.7656">uploadUserID: String</text><text fill="#000000" font-family="sans-serif" font-size="11" lengthAdjust="spacingAndGlyphs" textLength="105" x="12" y="304.7207">initLocation: LatLng</text><line style="stroke: #FFFF00; stroke-width: 1.5;" x1="7" x2="221" y1="311.041" y2="311.041"/><!--class OnlineSoundSpaceLibrary--><rect fill="#98FB98" filter="url(#feudj3cus4xcv)" height="48" id="OnlineSoundSpaceLibrary" style="stroke: #00FF7F; stroke-width: 1.5;" width="177" x="257.5" y="235.5"/><ellipse cx="272.5" cy="251.5" fill="#ADD1B2" rx="11" ry="11" style="stroke: #00FF7F; stroke-width: 1.0;"/><path d="M275.4731,257.1431 Q274.8921,257.4419 274.2529,257.5913 Q273.6138,257.7407 272.9082,257.7407 Q270.4014,257.7407 269.0815,256.0889 Q267.7617,254.437 267.7617,251.3159 Q267.7617,248.1865 269.0815,246.5347 Q270.4014,244.8828 272.9082,244.8828 Q273.6138,244.8828 274.2612,245.0322 Q274.9087,245.1816 275.4731,245.4805 L275.4731,248.2031 Q274.8423,247.6221 274.2488,247.3523 Q273.6553,247.0825 273.0244,247.0825 Q271.6797,247.0825 270.9949,248.1492 Q270.3101,249.2158 270.3101,251.3159 Q270.3101,253.4077 270.9949,254.4744 Q271.6797,255.541 273.0244,255.541 Q273.6553,255.541 274.2488,255.2712 Q274.8423,255.0015 275.4731,254.4204 Z "/><text fill="#000000" font-family="sans-serif" font-size="12" lengthAdjust="spacingAndGlyphs" textLength="145" x="286.5" y="256.0352">OnlineSoundSpaceLibrary</text><line style="stroke: #00FF7F; stroke-width: 1.5;" x1="258.5" x2="433.5" y1="267.5" y2="267.5"/><line style="stroke: #00FF7F; stroke-width: 1.5;" x1="258.5" x2="433.5" y1="275.5" y2="275.5"/><!--class SoundFragment--><rect fill="#FFFFE0" filter="url(#feudj3cus4xcv)" height="54.2656" id="SoundFragment" style="stroke: #FFFF00; stroke-width: 1.5;" width="121" x="469.5" y="232.5"/><ellipse cx="484.5" cy="251.6328" fill="#ADD1B2" rx="11" ry="11" style="stroke: #FFFF00; stroke-width: 1.0;"/><path d="M487.4731,257.2759 Q486.8921,257.5747 486.2529,257.7241 Q485.6138,257.8735 484.9082,257.8735 Q482.4014,257.8735 481.0815,256.2217 Q479.7617,254.5698 479.7617,251.4487 Q479.7617,248.3193 481.0815,246.6675 Q482.4014,245.0156 484.9082,245.0156 Q485.6138,245.0156 486.2612,245.165 Q486.9087,245.3145 487.4731,245.6133 L487.4731,248.3359 Q486.8423,247.7549 486.2488,247.4851 Q485.6553,247.2153 485.0244,247.2153 Q483.6797,247.2153 482.9949,248.282 Q482.3101,249.3486 482.3101,251.4487 Q482.3101,253.5405 482.9949,254.6072 Q483.6797,255.6738 485.0244,255.6738 Q485.6553,255.6738 486.2488,255.4041 Q486.8423,255.1343 487.4731,254.5532 Z "/><text fill="#000000" font-family="sans-serif" font-size="12" font-style="italic" lengthAdjust="spacingAndGlyphs" textLength="43" x="521.5" y="249.1016">«entity»</text><text fill="#000000" font-family="sans-serif" font-size="12" lengthAdjust="spacingAndGlyphs" textLength="89" x="498.5" y="263.2344">SoundFragment</text><line style="stroke: #FFFF00; stroke-width: 1.5;" x1="470.5" x2="589.5" y1="270.7656" y2="270.7656"/><line style="stroke: #FFFF00; stroke-width: 1.5;" x1="470.5" x2="589.5" y1="278.7656" y2="278.7656"/><!--class RegisterViewModel--><rect fill="#ADD8E6" filter="url(#feudj3cus4xcv)" height="80.1758" id="RegisterViewModel" style="stroke: #0000FF; stroke-width: 1.5;" width="199" x="625.5" y="219.5"/><ellipse cx="666.6" cy="238.6328" fill="#ADD1B2" rx="11" ry="11" style="stroke: #0000FF; stroke-width: 1.0;"/><path d="M669.5731,244.2759 Q668.9921,244.5747 668.3529,244.7241 Q667.7138,244.8735 667.0082,244.8735 Q664.5014,244.8735 663.1815,243.2217 Q661.8617,241.5698 661.8617,238.4487 Q661.8617,235.3193 663.1815,233.6675 Q664.5014,232.0156 667.0082,232.0156 Q667.7138,232.0156 668.3612,232.165 Q669.0087,232.3145 669.5731,232.6133 L669.5731,235.3359 Q668.9423,234.7549 668.3488,234.4851 Q667.7553,234.2153 667.1244,234.2153 Q665.7797,234.2153 665.0949,235.282 Q664.4101,236.3486 664.4101,238.4487 Q664.4101,240.5405 665.0949,241.6072 Q665.7797,242.6738 667.1244,242.6738 Q667.7553,242.6738 668.3488,242.4041 Q668.9423,242.1343 669.5731,241.5532 Z "/><text fill="#000000" font-family="sans-serif" font-size="12" font-style="italic" lengthAdjust="spacingAndGlyphs" textLength="72" x="704.9" y="236.1016">«viewModel»</text><text fill="#000000" font-family="sans-serif" font-size="12" lengthAdjust="spacingAndGlyphs" textLength="109" x="686.4" y="250.2344">RegisterViewModel</text><line style="stroke: #0000FF; stroke-width: 1.5;" x1="626.5" x2="823.5" y1="257.7656" y2="257.7656"/><text fill="#000000" font-family="sans-serif" font-size="11" lengthAdjust="spacingAndGlyphs" textLength="120" x="631.5" y="272.4004">allowRegister: boolean</text><line style="stroke: #0000FF; stroke-width: 1.5;" x1="626.5" x2="823.5" y1="278.7207" y2="278.7207"/><text fill="#000000" font-family="sans-serif" font-size="11" lengthAdjust="spacingAndGlyphs" textLength="187" x="631.5" y="293.3555">onRememberButtonToggled(): void</text><!--class LocalVSSManagerViewModel--><rect fill="#ADD8E6" filter="url(#feudj3cus4xcv)" height="54.2656" id="LocalVSSManagerViewModel" style="stroke: #0000FF; stroke-width: 1.5;" width="193" x="859.5" y="232.5"/><ellipse cx="874.5" cy="251.6328" fill="#ADD1B2" rx="11" ry="11" style="stroke: #0000FF; stroke-width: 1.0;"/><path d="M877.4731,257.2759 Q876.8921,257.5747 876.2529,257.7241 Q875.6138,257.8735 874.9082,257.8735 Q872.4014,257.8735 871.0815,256.2217 Q869.7617,254.5698 869.7617,251.4487 Q869.7617,248.3193 871.0815,246.6675 Q872.4014,245.0156 874.9082,245.0156 Q875.6138,245.0156 876.2612,245.165 Q876.9087,245.3145 877.4731,245.6133 L877.4731,248.3359 Q876.8423,247.7549 876.2488,247.4851 Q875.6553,247.2153 875.0244,247.2153 Q873.6797,247.2153 872.9949,248.282 Q872.3101,249.3486 872.3101,251.4487 Q872.3101,253.5405 872.9949,254.6072 Q873.6797,255.6738 875.0244,255.6738 Q875.6553,255.6738 876.2488,255.4041 Q876.8423,255.1343 877.4731,254.5532 Z "/><text fill="#000000" font-family="sans-serif" font-size="12" font-style="italic" lengthAdjust="spacingAndGlyphs" textLength="72" x="933" y="249.1016">«viewModel»</text><text fill="#000000" font-family="sans-serif" font-size="12" lengthAdjust="spacingAndGlyphs" textLength="161" x="888.5" y="263.2344">LocalVSSManagerViewModel</text><line style="stroke: #0000FF; stroke-width: 1.5;" x1="860.5" x2="1051.5" y1="270.7656" y2="270.7656"/><line style="stroke: #0000FF; stroke-width: 1.5;" x1="860.5" x2="1051.5" y1="278.7656" y2="278.7656"/><!--class LoginViewModel--><rect fill="#ADD8E6" filter="url(#feudj3cus4xcv)" height="80.1758" id="LoginViewModel" style="stroke: #0000FF; stroke-width: 1.5;" width="181" x="23.5" y="379"/><ellipse cx="64.15" cy="398.1328" fill="#ADD1B2" rx="11" ry="11" style="stroke: #0000FF; stroke-width: 1.0;"/><path d="M67.1231,403.7759 Q66.5421,404.0747 65.9029,404.2241 Q65.2638,404.3735 64.5582,404.3735 Q62.0514,404.3735 60.7315,402.7217 Q59.4117,401.0698 59.4117,397.9487 Q59.4117,394.8193 60.7315,393.1675 Q62.0514,391.5156 64.5582,391.5156 Q65.2638,391.5156 65.9112,391.665 Q66.5587,391.8145 67.1231,392.1133 L67.1231,394.8359 Q66.4923,394.2549 65.8988,393.9851 Q65.3053,393.7153 64.6744,393.7153 Q63.3297,393.7153 62.6449,394.782 Q61.9601,395.8486 61.9601,397.9487 Q61.9601,400.0405 62.6449,401.1072 Q63.3297,402.1738 64.6744,402.1738 Q65.3053,402.1738 65.8988,401.9041 Q66.4923,401.6343 67.1231,401.0532 Z "/><text fill="#000000" font-family="sans-serif" font-size="12" font-style="italic" lengthAdjust="spacingAndGlyphs" textLength="72" x="93.85" y="395.6016">«viewModel»</text><text fill="#000000" font-family="sans-serif" font-size="12" lengthAdjust="spacingAndGlyphs" textLength="92" x="83.85" y="409.7344">LoginViewModel</text><line style="stroke: #0000FF; stroke-width: 1.5;" x1="24.5" x2="203.5" y1="417.2656" y2="417.2656"/><line style="stroke: #0000FF; stroke-width: 1.5;" x1="24.5" x2="203.5" y1="425.2656" y2="425.2656"/><text fill="#000000" font-family="sans-serif" font-size="11" lengthAdjust="spacingAndGlyphs" textLength="169" x="29.5" y="439.9004">onRegisterButtonClicked(): void</text><text fill="#000000" font-family="sans-serif" font-size="11" lengthAdjust="spacingAndGlyphs" textLength="153" x="29.5" y="452.8555">onLoginDataChanged(): void</text><!--class PreviewLocalMapViewModel--><rect fill="#ADD8E6" filter="url(#feudj3cus4xcv)" height="54.2656" id="PreviewLocalMapViewModel" style="stroke: #0000FF; stroke-width: 1.5;" width="192" x="240" y="392"/><ellipse cx="255" cy="411.1328" fill="#ADD1B2" rx="11" ry="11" style="stroke: #0000FF; stroke-width: 1.0;"/><path d="M257.9731,416.7759 Q257.3921,417.0747 256.7529,417.2241 Q256.1138,417.3735 255.4082,417.3735 Q252.9014,417.3735 251.5815,415.7217 Q250.2617,414.0698 250.2617,410.9487 Q250.2617,407.8193 251.5815,406.1675 Q252.9014,404.5156 255.4082,404.5156 Q256.1138,404.5156 256.7612,404.665 Q257.4087,404.8145 257.9731,405.1133 L257.9731,407.8359 Q257.3423,407.2549 256.7488,406.9851 Q256.1553,406.7153 255.5244,406.7153 Q254.1797,406.7153 253.4949,407.782 Q252.8101,408.8486 252.8101,410.9487 Q252.8101,413.0405 253.4949,414.1072 Q254.1797,415.1738 255.5244,415.1738 Q256.1553,415.1738 256.7488,414.9041 Q257.3423,414.6343 257.9731,414.0532 Z "/><text fill="#000000" font-family="sans-serif" font-size="12" font-style="italic" lengthAdjust="spacingAndGlyphs" textLength="72" x="313" y="408.6016">«viewModel»</text><text fill="#000000" font-family="sans-serif" font-size="12" lengthAdjust="spacingAndGlyphs" textLength="160" x="269" y="422.7344">PreviewLocalMapViewModel</text><line style="stroke: #0000FF; stroke-width: 1.5;" x1="241" x2="431" y1="430.2656" y2="430.2656"/><line style="stroke: #0000FF; stroke-width: 1.5;" x1="241" x2="431" y1="438.2656" y2="438.2656"/><!--class PreviewLocalConcertViewModel--><rect fill="#ADD8E6" filter="url(#feudj3cus4xcv)" height="54.2656" id="PreviewLocalConcertViewModel" style="stroke: #0000FF; stroke-width: 1.5;" width="211" x="467.5" y="392"/><ellipse cx="482.5" cy="411.1328" fill="#ADD1B2" rx="11" ry="11" style="stroke: #0000FF; stroke-width: 1.0;"/><path d="M485.4731,416.7759 Q484.8921,417.0747 484.2529,417.2241 Q483.6138,417.3735 482.9082,417.3735 Q480.4014,417.3735 479.0815,415.7217 Q477.7617,414.0698 477.7617,410.9487 Q477.7617,407.8193 479.0815,406.1675 Q480.4014,404.5156 482.9082,404.5156 Q483.6138,404.5156 484.2612,404.665 Q484.9087,404.8145 485.4731,405.1133 L485.4731,407.8359 Q484.8423,407.2549 484.2488,406.9851 Q483.6553,406.7153 483.0244,406.7153 Q481.6797,406.7153 480.9949,407.782 Q480.3101,408.8486 480.3101,410.9487 Q480.3101,413.0405 480.9949,414.1072 Q481.6797,415.1738 483.0244,415.1738 Q483.6553,415.1738 484.2488,414.9041 Q484.8423,414.6343 485.4731,414.0532 Z "/><text fill="#000000" font-family="sans-serif" font-size="12" font-style="italic" lengthAdjust="spacingAndGlyphs" textLength="72" x="550" y="408.6016">«viewModel»</text><text fill="#000000" font-family="sans-serif" font-size="12" lengthAdjust="spacingAndGlyphs" textLength="179" x="496.5" y="422.7344">PreviewLocalConcertViewModel</text><line style="stroke: #0000FF; stroke-width: 1.5;" x1="468.5" x2="677.5" y1="430.2656" y2="430.2656"/><line style="stroke: #0000FF; stroke-width: 1.5;" x1="468.5" x2="677.5" y1="438.2656" y2="438.2656"/><!--class CreateVSSViewModel--><rect fill="#ADD8E6" filter="url(#feudj3cus4xcv)" height="54.2656" id="CreateVSSViewModel" style="stroke: #0000FF; stroke-width: 1.5;" width="152" x="714" y="392"/><ellipse cx="729" cy="411.1328" fill="#ADD1B2" rx="11" ry="11" style="stroke: #0000FF; stroke-width: 1.0;"/><path d="M731.9731,416.7759 Q731.3921,417.0747 730.7529,417.2241 Q730.1138,417.3735 729.4082,417.3735 Q726.9014,417.3735 725.5815,415.7217 Q724.2617,414.0698 724.2617,410.9487 Q724.2617,407.8193 725.5815,406.1675 Q726.9014,404.5156 729.4082,404.5156 Q730.1138,404.5156 730.7612,404.665 Q731.4087,404.8145 731.9731,405.1133 L731.9731,407.8359 Q731.3423,407.2549 730.7488,406.9851 Q730.1553,406.7153 729.5244,406.7153 Q728.1797,406.7153 727.4949,407.782 Q726.8101,408.8486 726.8101,410.9487 Q726.8101,413.0405 727.4949,414.1072 Q728.1797,415.1738 729.5244,415.1738 Q730.1553,415.1738 730.7488,414.9041 Q731.3423,414.6343 731.9731,414.0532 Z "/><text fill="#000000" font-family="sans-serif" font-size="12" font-style="italic" lengthAdjust="spacingAndGlyphs" textLength="72" x="767" y="408.6016">«viewModel»</text><text fill="#000000" font-family="sans-serif" font-size="12" lengthAdjust="spacingAndGlyphs" textLength="120" x="743" y="422.7344">CreateVSSViewModel</text><line style="stroke: #0000FF; stroke-width: 1.5;" x1="715" x2="865" y1="430.2656" y2="430.2656"/><line style="stroke: #0000FF; stroke-width: 1.5;" x1="715" x2="865" y1="438.2656" y2="438.2656"/><!--class CreateMapVSSViewModel--><rect fill="#ADD8E6" filter="url(#feudj3cus4xcv)" height="54.2656" id="CreateMapVSSViewModel" style="stroke: #0000FF; stroke-width: 1.5;" width="177" x="901.5" y="392"/><ellipse cx="916.5" cy="411.1328" fill="#ADD1B2" rx="11" ry="11" style="stroke: #0000FF; stroke-width: 1.0;"/><path d="M919.4731,416.7759 Q918.8921,417.0747 918.2529,417.2241 Q917.6138,417.3735 916.9082,417.3735 Q914.4014,417.3735 913.0815,415.7217 Q911.7617,414.0698 911.7617,410.9487 Q911.7617,407.8193 913.0815,406.1675 Q914.4014,404.5156 916.9082,404.5156 Q917.6138,404.5156 918.2612,404.665 Q918.9087,404.8145 919.4731,405.1133 L919.4731,407.8359 Q918.8423,407.2549 918.2488,406.9851 Q917.6553,406.7153 917.0244,406.7153 Q915.6797,406.7153 914.9949,407.782 Q914.3101,408.8486 914.3101,410.9487 Q914.3101,413.0405 914.9949,414.1072 Q915.6797,415.1738 917.0244,415.1738 Q917.6553,415.1738 918.2488,414.9041 Q918.8423,414.6343 919.4731,414.0532 Z "/><text fill="#000000" font-family="sans-serif" font-size="12" font-style="italic" lengthAdjust="spacingAndGlyphs" textLength="72" x="967" y="408.6016">«viewModel»</text><text fill="#000000" font-family="sans-serif" font-size="12" lengthAdjust="spacingAndGlyphs" textLength="145" x="930.5" y="422.7344">CreateMapVSSViewModel</text><line style="stroke: #0000FF; stroke-width: 1.5;" x1="902.5" x2="1077.5" y1="430.2656" y2="430.2656"/><line style="stroke: #0000FF; stroke-width: 1.5;" x1="902.5" x2="1077.5" y1="438.2656" y2="438.2656"/><!--class CreateConcertVSSViewModel--><rect fill="#ADD8E6" filter="url(#feudj3cus4xcv)" height="54.2656" id="CreateConcertVSSViewModel" style="stroke: #0000FF; stroke-width: 1.5;" width="196" x="16" y="519"/><ellipse cx="31" cy="538.1328" fill="#ADD1B2" rx="11" ry="11" style="stroke: #0000FF; stroke-width: 1.0;"/><path d="M33.9731,543.7759 Q33.3921,544.0747 32.7529,544.2241 Q32.1138,544.3735 31.4082,544.3735 Q28.9014,544.3735 27.5815,542.7217 Q26.2617,541.0698 26.2617,537.9487 Q26.2617,534.8193 27.5815,533.1675 Q28.9014,531.5156 31.4082,531.5156 Q32.1138,531.5156 32.7612,531.665 Q33.4087,531.8145 33.9731,532.1133 L33.9731,534.8359 Q33.3423,534.2549 32.7488,533.9851 Q32.1553,533.7153 31.5244,533.7153 Q30.1797,533.7153 29.4949,534.782 Q28.8101,535.8486 28.8101,537.9487 Q28.8101,540.0405 29.4949,541.1072 Q30.1797,542.1738 31.5244,542.1738 Q32.1553,542.1738 32.7488,541.9041 Q33.3423,541.6343 33.9731,541.0532 Z "/><text fill="#000000" font-family="sans-serif" font-size="12" font-style="italic" lengthAdjust="spacingAndGlyphs" textLength="72" x="91" y="535.6016">«viewModel»</text><text fill="#000000" font-family="sans-serif" font-size="12" lengthAdjust="spacingAndGlyphs" textLength="164" x="45" y="549.7344">CreateConcertVSSViewModel</text><line style="stroke: #0000FF; stroke-width: 1.5;" x1="17" x2="211" y1="557.2656" y2="557.2656"/><line style="stroke: #0000FF; stroke-width: 1.5;" x1="17" x2="211" y1="565.2656" y2="565.2656"/><!--class PreviewOnlineMapViewModel--><rect fill="#ADD8E6" filter="url(#feudj3cus4xcv)" height="54.2656" id="PreviewOnlineMapViewModel" style="stroke: #0000FF; stroke-width: 1.5;" width="199" x="247.5" y="519"/><ellipse cx="262.5" cy="538.1328" fill="#ADD1B2" rx="11" ry="11" style="stroke: #0000FF; stroke-width: 1.0;"/><path d="M265.4731,543.7759 Q264.8921,544.0747 264.2529,544.2241 Q263.6138,544.3735 262.9082,544.3735 Q260.4014,544.3735 259.0815,542.7217 Q257.7617,541.0698 257.7617,537.9487 Q257.7617,534.8193 259.0815,533.1675 Q260.4014,531.5156 262.9082,531.5156 Q263.6138,531.5156 264.2612,531.665 Q264.9087,531.8145 265.4731,532.1133 L265.4731,534.8359 Q264.8423,534.2549 264.2488,533.9851 Q263.6553,533.7153 263.0244,533.7153 Q261.6797,533.7153 260.9949,534.782 Q260.3101,535.8486 260.3101,537.9487 Q260.3101,540.0405 260.9949,541.1072 Q261.6797,542.1738 263.0244,542.1738 Q263.6553,542.1738 264.2488,541.9041 Q264.8423,541.6343 265.4731,541.0532 Z "/><text fill="#000000" font-family="sans-serif" font-size="12" font-style="italic" lengthAdjust="spacingAndGlyphs" textLength="72" x="324" y="535.6016">«viewModel»</text><text fill="#000000" font-family="sans-serif" font-size="12" lengthAdjust="spacingAndGlyphs" textLength="167" x="276.5" y="549.7344">PreviewOnlineMapViewModel</text><line style="stroke: #0000FF; stroke-width: 1.5;" x1="248.5" x2="445.5" y1="557.2656" y2="557.2656"/><line style="stroke: #0000FF; stroke-width: 1.5;" x1="248.5" x2="445.5" y1="565.2656" y2="565.2656"/><!--class PreviewOnlineConcertViewModel--><rect fill="#ADD8E6" filter="url(#feudj3cus4xcv)" height="54.2656" id="PreviewOnlineConcertViewModel" style="stroke: #0000FF; stroke-width: 1.5;" width="218" x="482" y="519"/><ellipse cx="497" cy="538.1328" fill="#ADD1B2" rx="11" ry="11" style="stroke: #0000FF; stroke-width: 1.0;"/><path d="M499.9731,543.7759 Q499.3921,544.0747 498.7529,544.2241 Q498.1138,544.3735 497.4082,544.3735 Q494.9014,544.3735 493.5815,542.7217 Q492.2617,541.0698 492.2617,537.9487 Q492.2617,534.8193 493.5815,533.1675 Q494.9014,531.5156 497.4082,531.5156 Q498.1138,531.5156 498.7612,531.665 Q499.4087,531.8145 499.9731,532.1133 L499.9731,534.8359 Q499.3423,534.2549 498.7488,533.9851 Q498.1553,533.7153 497.5244,533.7153 Q496.1797,533.7153 495.4949,534.782 Q494.8101,535.8486 494.8101,537.9487 Q494.8101,540.0405 495.4949,541.1072 Q496.1797,542.1738 497.5244,542.1738 Q498.1553,542.1738 498.7488,541.9041 Q499.3423,541.6343 499.9731,541.0532 Z "/><text fill="#000000" font-family="sans-serif" font-size="12" font-style="italic" lengthAdjust="spacingAndGlyphs" textLength="72" x="568" y="535.6016">«viewModel»</text><text fill="#000000" font-family="sans-serif" font-size="12" lengthAdjust="spacingAndGlyphs" textLength="186" x="511" y="549.7344">PreviewOnlineConcertViewModel</text><line style="stroke: #0000FF; stroke-width: 1.5;" x1="483" x2="699" y1="557.2656" y2="557.2656"/><line style="stroke: #0000FF; stroke-width: 1.5;" x1="483" x2="699" y1="565.2656" y2="565.2656"/><!--class PlayMapModeVSSViewModel--><rect fill="#ADD8E6" filter="url(#feudj3cus4xcv)" height="54.2656" id="PlayMapModeVSSViewModel" style="stroke: #0000FF; stroke-width: 1.5;" width="194" x="735" y="519"/><ellipse cx="750" cy="538.1328" fill="#ADD1B2" rx="11" ry="11" style="stroke: #0000FF; stroke-width: 1.0;"/><path d="M752.9731,543.7759 Q752.3921,544.0747 751.7529,544.2241 Q751.1138,544.3735 750.4082,544.3735 Q747.9014,544.3735 746.5815,542.7217 Q745.2617,541.0698 745.2617,537.9487 Q745.2617,534.8193 746.5815,533.1675 Q747.9014,531.5156 750.4082,531.5156 Q751.1138,531.5156 751.7612,531.665 Q752.4087,531.8145 752.9731,532.1133 L752.9731,534.8359 Q752.3423,534.2549 751.7488,533.9851 Q751.1553,533.7153 750.5244,533.7153 Q749.1797,533.7153 748.4949,534.782 Q747.8101,535.8486 747.8101,537.9487 Q747.8101,540.0405 748.4949,541.1072 Q749.1797,542.1738 750.5244,542.1738 Q751.1553,542.1738 751.7488,541.9041 Q752.3423,541.6343 752.9731,541.0532 Z "/><text fill="#000000" font-family="sans-serif" font-size="12" font-style="italic" lengthAdjust="spacingAndGlyphs" textLength="72" x="809" y="535.6016">«viewModel»</text><text fill="#000000" font-family="sans-serif" font-size="12" lengthAdjust="spacingAndGlyphs" textLength="162" x="764" y="549.7344">PlayMapModeVSSViewModel</text><line style="stroke: #0000FF; stroke-width: 1.5;" x1="736" x2="928" y1="557.2656" y2="557.2656"/><line style="stroke: #0000FF; stroke-width: 1.5;" x1="736" x2="928" y1="565.2656" y2="565.2656"/><!--class AdjustSensorViewModel--><rect fill="#ADD8E6" filter="url(#feudj3cus4xcv)" height="54.2656" id="AdjustSensorViewModel" style="stroke: #0000FF; stroke-width: 1.5;" width="169" x="964.5" y="519"/><ellipse cx="979.5" cy="538.1328" fill="#ADD1B2" rx="11" ry="11" style="stroke: #0000FF; stroke-width: 1.0;"/><path d="M982.4731,543.7759 Q981.8921,544.0747 981.2529,544.2241 Q980.6138,544.3735 979.9082,544.3735 Q977.4014,544.3735 976.0815,542.7217 Q974.7617,541.0698 974.7617,537.9487 Q974.7617,534.8193 976.0815,533.1675 Q977.4014,531.5156 979.9082,531.5156 Q980.6138,531.5156 981.2612,531.665 Q981.9087,531.8145 982.4731,532.1133 L982.4731,534.8359 Q981.8423,534.2549 981.2488,533.9851 Q980.6553,533.7153 980.0244,533.7153 Q978.6797,533.7153 977.9949,534.782 Q977.3101,535.8486 977.3101,537.9487 Q977.3101,540.0405 977.9949,541.1072 Q978.6797,542.1738 980.0244,542.1738 Q980.6553,542.1738 981.2488,541.9041 Q981.8423,541.6343 982.4731,541.0532 Z "/><text fill="#000000" font-family="sans-serif" font-size="12" font-style="italic" lengthAdjust="spacingAndGlyphs" textLength="72" x="1026" y="535.6016">«viewModel»</text><text fill="#000000" font-family="sans-serif" font-size="12" lengthAdjust="spacingAndGlyphs" textLength="137" x="993.5" y="549.7344">AdjustSensorViewModel</text><line style="stroke: #0000FF; stroke-width: 1.5;" x1="965.5" x2="1132.5" y1="557.2656" y2="557.2656"/><line style="stroke: #0000FF; stroke-width: 1.5;" x1="965.5" x2="1132.5" y1="565.2656" y2="565.2656"/><!--class PlayConcertModeVSSViewModel--><rect fill="#ADD8E6" filter="url(#feudj3cus4xcv)" height="54.2656" id="PlayConcertModeVSSViewModel" style="stroke: #0000FF; stroke-width: 1.5;" width="213" x="7.5" y="656"/><ellipse cx="22.5" cy="675.1328" fill="#ADD1B2" rx="11" ry="11" style="stroke: #0000FF; stroke-width: 1.0;"/><path d="M25.4731,680.7759 Q24.8921,681.0747 24.2529,681.2241 Q23.6138,681.3735 22.9082,681.3735 Q20.4014,681.3735 19.0815,679.7217 Q17.7617,678.0698 17.7617,674.9487 Q17.7617,671.8193 19.0815,670.1675 Q20.4014,668.5156 22.9082,668.5156 Q23.6138,668.5156 24.2612,668.665 Q24.9087,668.8145 25.4731,669.1133 L25.4731,671.8359 Q24.8423,671.2549 24.2488,670.9851 Q23.6553,670.7153 23.0244,670.7153 Q21.6797,670.7153 20.9949,671.782 Q20.3101,672.8486 20.3101,674.9487 Q20.3101,677.0405 20.9949,678.1072 Q21.6797,679.1738 23.0244,679.1738 Q23.6553,679.1738 24.2488,678.9041 Q24.8423,678.6343 25.4731,678.0532 Z "/><text fill="#000000" font-family="sans-serif" font-size="12" font-style="italic" lengthAdjust="spacingAndGlyphs" textLength="72" x="91" y="672.6016">«viewModel»</text><text fill="#000000" font-family="sans-serif" font-size="12" lengthAdjust="spacingAndGlyphs" textLength="181" x="36.5" y="686.7344">PlayConcertModeVSSViewModel</text><line style="stroke: #0000FF; stroke-width: 1.5;" x1="8.5" x2="219.5" y1="694.2656" y2="694.2656"/><line style="stroke: #0000FF; stroke-width: 1.5;" x1="8.5" x2="219.5" y1="702.2656" y2="702.2656"/><!--class OnlineVSSViewerViewModel--><rect fill="#ADD8E6" filter="url(#feudj3cus4xcv)" height="54.2656" id="OnlineVSSViewerViewModel" style="stroke: #0000FF; stroke-width: 1.5;" width="189" x="255.5" y="656"/><ellipse cx="270.5" cy="675.1328" fill="#ADD1B2" rx="11" ry="11" style="stroke: #0000FF; stroke-width: 1.0;"/><path d="M273.4731,680.7759 Q272.8921,681.0747 272.2529,681.2241 Q271.6138,681.3735 270.9082,681.3735 Q268.4014,681.3735 267.0815,679.7217 Q265.7617,678.0698 265.7617,674.9487 Q265.7617,671.8193 267.0815,670.1675 Q268.4014,668.5156 270.9082,668.5156 Q271.6138,668.5156 272.2612,668.665 Q272.9087,668.8145 273.4731,669.1133 L273.4731,671.8359 Q272.8423,671.2549 272.2488,670.9851 Q271.6553,670.7153 271.0244,670.7153 Q269.6797,670.7153 268.9949,671.782 Q268.3101,672.8486 268.3101,674.9487 Q268.3101,677.0405 268.9949,678.1072 Q269.6797,679.1738 271.0244,679.1738 Q271.6553,679.1738 272.2488,678.9041 Q272.8423,678.6343 273.4731,678.0532 Z "/><text fill="#000000" font-family="sans-serif" font-size="12" font-style="italic" lengthAdjust="spacingAndGlyphs" textLength="72" x="327" y="672.6016">«viewModel»</text><text fill="#000000" font-family="sans-serif" font-size="12" lengthAdjust="spacingAndGlyphs" textLength="157" x="284.5" y="686.7344">OnlineVSSViewerViewModel</text><line style="stroke: #0000FF; stroke-width: 1.5;" x1="256.5" x2="443.5" y1="694.2656" y2="694.2656"/><line style="stroke: #0000FF; stroke-width: 1.5;" x1="256.5" x2="443.5" y1="702.2656" y2="702.2656"/><!--class GVRAudioEngine--><rect fill="#98FB98" filter="url(#feudj3cus4xcv)" height="48" id="GVRAudioEngine" style="stroke: #00FF7F; stroke-width: 1.5;" width="128" x="480" y="659"/><ellipse cx="495" cy="675" fill="#ADD1B2" rx="11" ry="11" style="stroke: #00FF7F; stroke-width: 1.0;"/><path d="M497.9731,680.6431 Q497.3921,680.9419 496.7529,681.0913 Q496.1138,681.2407 495.4082,681.2407 Q492.9014,681.2407 491.5815,679.5889 Q490.2617,677.937 490.2617,674.8159 Q490.2617,671.6865 491.5815,670.0347 Q492.9014,668.3828 495.4082,668.3828 Q496.1138,668.3828 496.7612,668.5322 Q497.4087,668.6816 497.9731,668.9805 L497.9731,671.7031 Q497.3423,671.1221 496.7488,670.8523 Q496.1553,670.5825 495.5244,670.5825 Q494.1797,670.5825 493.4949,671.6492 Q492.8101,672.7158 492.8101,674.8159 Q492.8101,676.9077 493.4949,677.9744 Q494.1797,679.041 495.5244,679.041 Q496.1553,679.041 496.7488,678.7712 Q497.3423,678.5015 497.9731,677.9204 Z "/><text fill="#000000" font-family="sans-serif" font-size="12" lengthAdjust="spacingAndGlyphs" textLength="96" x="509" y="679.5352">GVRAudioEngine</text><line style="stroke: #00FF7F; stroke-width: 1.5;" x1="481" x2="607" y1="691" y2="691"/><line style="stroke: #00FF7F; stroke-width: 1.5;" x1="481" x2="607" y1="699" y2="699"/><!--class UserInfoControl--><rect fill="#98FB98" filter="url(#feudj3cus4xcv)" height="99.8203" id="UserInfoControl" style="stroke: #00FF7F; stroke-width: 1.5;" width="393" x="643.5" y="633"/><ellipse cx="791.75" cy="649" fill="#ADD1B2" rx="11" ry="11" style="stroke: #00FF7F; stroke-width: 1.0;"/><path d="M794.7231,654.6431 Q794.1421,654.9419 793.5029,655.0913 Q792.8638,655.2407 792.1582,655.2407 Q789.6514,655.2407 788.3315,653.5889 Q787.0117,651.937 787.0117,648.8159 Q787.0117,645.6865 788.3315,644.0347 Q789.6514,642.3828 792.1582,642.3828 Q792.8638,642.3828 793.5112,642.5322 Q794.1587,642.6816 794.7231,642.9805 L794.7231,645.7031 Q794.0923,645.1221 793.4988,644.8523 Q792.9053,644.5825 792.2744,644.5825 Q790.9297,644.5825 790.2449,645.6492 Q789.5601,646.7158 789.5601,648.8159 Q789.5601,650.9077 790.2449,651.9744 Q790.9297,653.041 792.2744,653.041 Q792.9053,653.041 793.4988,652.7712 Q794.0923,652.5015 794.7231,651.9204 Z "/><text fill="#000000" font-family="sans-serif" font-size="12" lengthAdjust="spacingAndGlyphs" textLength="88" x="812.25" y="653.5352">UserInfoControl</text><line style="stroke: #00FF7F; stroke-width: 1.5;" x1="644.5" x2="1035.5" y1="665" y2="665"/><line style="stroke: #00FF7F; stroke-width: 1.5;" x1="644.5" x2="1035.5" y1="673" y2="673"/><text fill="#000000" font-family="sans-serif" font-size="11" lengthAdjust="spacingAndGlyphs" textLength="381" x="649.5" y="687.6348">login(username: String, password: String, remember: boolean): boolean</text><text fill="#000000" font-family="sans-serif" font-size="11" lengthAdjust="spacingAndGlyphs" textLength="272" x="649.5" y="700.5898">setCurrentUser(userID: int, username: String): void</text><text fill="#000000" font-family="sans-serif" font-size="11" lengthAdjust="spacingAndGlyphs" textLength="159" x="649.5" y="713.5449">rememberCurrentUser(): void</text><text fill="#000000" font-family="sans-serif" font-size="11" lengthAdjust="spacingAndGlyphs" textLength="329" x="649.5" y="726.5">checkLoginData(username: String, password: String): boolean</text><!--link Quaternion to Position--><!--link Position to LocalSoundSpaceLibrary--><!--link LocalSoundSpaceLibrary to Sensor--><!--link Sensor to VirtualSoundSpace--><!--link Quaternion to SoundSource--><!--link SoundSource to OnlineSoundSpaceLibrary--><!--link OnlineSoundSpaceLibrary to SoundFragment--><!--link SoundFragment to RegisterViewModel--><!--link RegisterViewModel to LocalVSSManagerViewModel--><!--link SoundSource to LoginViewModel--><!--link LoginViewModel to PreviewLocalMapViewModel--><!--link PreviewLocalMapViewModel to PreviewLocalConcertViewModel--><!--link PreviewLocalConcertViewModel to CreateVSSViewModel--><!--link CreateVSSViewModel to CreateMapVSSViewModel--><!--link LoginViewModel to CreateConcertVSSViewModel--><!--link CreateConcertVSSViewModel to PreviewOnlineMapViewModel--><!--link PreviewOnlineMapViewModel to PreviewOnlineConcertViewModel--><!--link PreviewOnlineConcertViewModel to PlayMapModeVSSViewModel--><!--link PlayMapModeVSSViewModel to AdjustSensorViewModel--><!--link CreateConcertVSSViewModel to PlayConcertModeVSSViewModel--><!--link PlayConcertModeVSSViewModel to OnlineVSSViewerViewModel--><!--link OnlineVSSViewerViewModel to GVRAudioEngine--><!--link GVRAudioEngine to UserInfoControl--><!--
@startuml Diagrams/ClassDiagram
skinparam class {
	BackgroundColor PaleGreen
	ArrowColor SeaGreen
	BorderColor SpringGreen
	BackgroundColor<<viewModel>> LightBlue
	BorderColor<<viewModel>> Blue
    BackgroundColor<<control>> LightGray
    BorderColor<<control>> Red
    BackgroundColor<<entity>> LightYellow
    BorderColor<<entity>> Yellow
}


class Quaternion <<entity>> {
	w: float
	x: float
	y: float
	z: float
}

class Position <<entity>> {
	x: float
	y: float
	z: float
}


class LocalSoundSpaceLibrary {

}
class Sensor <<entity>> {
	void clearTask()
	Quaternion getHeadPose()
	void callWhenUpdatedDelay(int millisecond)
	void callWhenUpdated(Callable task)
	boolean isSensorOnline()
	Position getCurrentLocation()
}
class VirtualSoundSpace <<entity>> {
	name: String
	ownerID: int
	comments: List<Comment>
	likes: List<int>
}
class SoundSource <<entity>> {
	soundSourceList: List<SoundSource>
	VSSName: String
	VSSDescription: String
	uploadUserID: String
	initLocation: LatLng
}
class OnlineSoundSpaceLibrary {

}
class SoundFragment <<entity>> {

}
class RegisterViewModel <<viewModel>> {
	allowRegister: boolean
	onRememberButtonToggled(): void

}
class LocalVSSManagerViewModel <<viewModel>> {
  ..private..
  -prevPage:boolean
  -nextPage:boolean
  -virtualSoundSpaces:List<VirtualSoundSpace>
  ..public..
  +onCreateButtonClicked():void
  +onUploadButtonClicked():void
  +onDeleteButtonClicked():void
  +onRenameButtonClicked():void
  +onPrevButtonClicked():void
  +onNextButtonClicked():void
  +onPreviewButtonClicked():void
}
class LoginViewModel <<viewModel>> {

	onRegisterButtonClicked(): void
	onLoginDataChanged(): void
}
class PreviewLocalMapViewModel <<viewModel>> {

}
class PreviewLocalConcertViewModel <<viewModel>> {

}
class CreateVSSViewModel <<viewModel>> {

}
class CreateMapVSSViewModel <<viewModel>> {

}
class CreateConcertVSSViewModel <<viewModel>> {

}
class PreviewOnlineMapViewModel <<viewModel>> {

}
class PreviewOnlineConcertViewModel <<viewModel>> {

}
class PlayMapModeVSSViewModel <<viewModel>> {

}

class AdjustSensorViewModel <<viewModel>> {

}
class PlayConcertModeVSSViewModel <<viewModel>> {

}

class OnlineVSSViewerViewModel <<viewModel>> {

}
class GVRAudioEngine {

}
class UserInfoControl {
	login(username: String, password: String, remember: boolean): boolean
	setCurrentUser(userID: int, username: String): void
	rememberCurrentUser(): void
	checkLoginData(username: String, password: String): boolean
}

@enduml

PlantUML version 1.2018.01(Mon Jan 29 02:08:22 CST 2018)
(GPL source distribution)
Java Runtime: Java(TM) SE Runtime Environment
JVM: Java HotSpot(TM) 64-Bit Server VM
Java Version: 9+181
Operating System: Mac OS X
OS Version: 10.12.6
Default Encoding: UTF-8
Language: zh
Country: CN
--></g></svg>
