<?xml version="1.0" encoding="UTF-8" standalone="no"?><svg xmlns="http://www.w3.org/2000/svg" xmlns:xlink="http://www.w3.org/1999/xlink" contentScriptType="application/ecmascript" contentStyleType="text/css" height="392px" preserveAspectRatio="none" style="width:1786px;height:392px;" version="1.1" viewBox="0 0 1786 392"
    width="1786px" zoomAndPan="magnify"><defs><filter height="300%" id="f3ys2wcx58xt5" width="300%" x="-1" y="-1"><feGaussianBlur result="blurOut" stdDeviation="2.0"/><feColorMatrix in="blurOut" result="blurOut2" type="matrix" values="0 0 0 0 0 0 0 0 0 0 0 0 0 0 0 0 0 0 .4 0"/><feOffset dx="4.0" dy="4.0" in="blurOut2" result="blurOut3"/><feBlend in="SourceGraphic" in2="blurOut3" mode="normal"/></filter></defs><g><text fill="#000000" font-family="sans-serif" font-size="14" font-weight="bold" lengthAdjust="spacingAndGlyphs" textLength="96" x="844" y="23.5352">CommentVSS</text><line style="stroke: #A80036; stroke-width: 1.0; stroke-dasharray: 5.0,5.0;" x1="101" x2="101" y1="116.9766" y2="380.4609"/><line style="stroke: #A80036; stroke-width: 1.0; stroke-dasharray: 5.0,5.0;" x1="482" x2="482" y1="116.9766" y2="380.4609"/><line style="stroke: #A80036; stroke-width: 1.0; stroke-dasharray: 5.0,5.0;" x1="863" x2="863" y1="116.9766" y2="380.4609"/><line style="stroke: #A80036; stroke-width: 1.0; stroke-dasharray: 5.0,5.0;" x1="1231.5" x2="1231.5" y1="116.9766" y2="380.4609"/><line style="stroke: #A80036; stroke-width: 1.0; stroke-dasharray: 5.0,5.0;" x1="1590.5" x2="1590.5" y1="116.9766" y2="380.4609"/><text fill="#000000" font-family="sans-serif" font-size="14" lengthAdjust="spacingAndGlyphs" text-decoration="underline" textLength="180" x="8" y="114.0234">:OnlineSoundSpaceLibrary</text><line style="stroke: #000000; stroke-width: 1.0;" x1="8" x2="188" y1="116.0234" y2="116.0234"/><ellipse cx="101" cy="43.4883" fill="#FEFECE" filter="url(#f3ys2wcx58xt5)" rx="8" ry="8" style="stroke: #A80036; stroke-width: 2.0;"/><path d="M101,51.4883 L101,78.4883 M88,59.4883 L114,59.4883 M101,78.4883 L88,93.4883 M101,78.4883 L114,93.4883 " fill="none" filter="url(#f3ys2wcx58xt5)" style="stroke: #A80036; stroke-width: 2.0;"/><rect fill="#FEFECE" filter="url(#f3ys2wcx58xt5)" height="30.4883" style="stroke: #A80036; stroke-width: 1.5;" width="120" x="420" y="81.4883"/><text fill="#000000" font-family="sans-serif" font-size="14" lengthAdjust="spacingAndGlyphs" text-decoration="underline" textLength="106" x="427" y="102.0234">:Communicator</text><line style="stroke: #000000; stroke-width: 1.0;" x1="427" x2="533" y1="104.0234" y2="104.0234"/><rect fill="#FEFECE" filter="url(#f3ys2wcx58xt5)" height="30.4883" style="stroke: #A80036; stroke-width: 1.5;" width="90" x="816" y="81.4883"/><text fill="#000000" font-family="sans-serif" font-size="14" lengthAdjust="spacingAndGlyphs" text-decoration="underline" textLength="76" x="823" y="102.0234">:WebServer</text><line style="stroke: #000000; stroke-width: 1.0;" x1="823" x2="899" y1="104.0234" y2="104.0234"/><rect fill="#FEFECE" filter="url(#f3ys2wcx58xt5)" height="30.4883" style="stroke: #A80036; stroke-width: 1.5;" width="187" x="1136.5" y="81.4883"/><text fill="#000000" font-family="sans-serif" font-size="14" lengthAdjust="spacingAndGlyphs" text-decoration="underline" textLength="173" x="1143.5" y="102.0234">:VSSInformationDatabase</text><line style="stroke: #000000; stroke-width: 1.0;" x1="1143.5" x2="1316.5" y1="104.0234" y2="104.0234"/><rect fill="#FEFECE" filter="url(#f3ys2wcx58xt5)" height="30.4883" style="stroke: #A80036; stroke-width: 1.5;" width="173" x="1502.5" y="81.4883"/><text fill="#000000" font-family="sans-serif" font-size="14" lengthAdjust="spacingAndGlyphs" text-decoration="underline" textLength="159" x="1509.5" y="102.0234">:VSSCommentDatabase</text><line style="stroke: #000000; stroke-width: 1.0;" x1="1509.5" x2="1668.5" y1="104.0234" y2="104.0234"/><polygon fill="#A80036" points="470,143.9766,480,147.9766,470,151.9766,474,147.9766" style="stroke: #A80036; stroke-width: 1.0;"/><line style="stroke: #A80036; stroke-width: 1.0;" x1="101" x2="476" y1="147.9766" y2="147.9766"/><text fill="#000000" font-family="sans-serif" font-size="13" lengthAdjust="spacingAndGlyphs" textLength="357" x="108" y="143.5449">CommentRequest(VSSID:int, UserID:int, Comment:String)</text><polygon fill="#A80036" points="851,173.2871,861,177.2871,851,181.2871,855,177.2871" style="stroke: #A80036; stroke-width: 1.0;"/><line style="stroke: #A80036; stroke-width: 1.0;" x1="482" x2="857" y1="177.2871" y2="177.2871"/><text fill="#000000" font-family="sans-serif" font-size="13" lengthAdjust="spacingAndGlyphs" textLength="357" x="489" y="172.8555">CommentRequest(VSSID:int, UserID:int, Comment:String)</text><polygon fill="#A80036" points="1579,202.5977,1589,206.5977,1579,210.5977,1583,206.5977" style="stroke: #A80036; stroke-width: 1.0;"/><line style="stroke: #A80036; stroke-width: 1.0;" x1="863" x2="1585" y1="206.5977" y2="206.5977"/><text fill="#000000" font-family="sans-serif" font-size="13" lengthAdjust="spacingAndGlyphs" textLength="196" x="870" y="202.166">AddComment(Comment:String)</text><line style="stroke: #A80036; stroke-width: 1.0;" x1="1591" x2="1633" y1="242.374" y2="242.374"/><line style="stroke: #A80036; stroke-width: 1.0;" x1="1633" x2="1633" y1="242.374" y2="255.374"/><line style="stroke: #A80036; stroke-width: 1.0;" x1="1592" x2="1633" y1="255.374" y2="255.374"/><polygon fill="#A80036" points="1602,251.374,1592,255.374,1602,259.374,1598,255.374" style="stroke: #A80036; stroke-width: 1.0;"/><text fill="#000000" font-family="sans-serif" font-size="13" lengthAdjust="spacingAndGlyphs" textLength="176" x="1598" y="237.6318">AddComment(Comment):int</text><path d="M1368,219.9082 L1368,259.9082 L1582,259.9082 L1582,229.9082 L1572,219.9082 L1368,219.9082 " fill="#FBFB77" filter="url(#f3ys2wcx58xt5)" style="stroke: #A80036; stroke-width: 1.0;"/><path d="M1572,219.9082 L1572,229.9082 L1582,229.9082 L1572,219.9082 " fill="#FBFB77" style="stroke: #A80036; stroke-width: 1.0;"/><text fill="#000000" font-family="sans-serif" font-size="13" lengthAdjust="spacingAndGlyphs" textLength="193" x="1374" y="237.4766">将评论添加到Comment_Table中</text><text fill="#000000" font-family="sans-serif" font-size="13" lengthAdjust="spacingAndGlyphs" textLength="157" x="1374" y="252.7871">并返回该评论在此表中的ID</text><polygon fill="#A80036" points="874,286.5293,864,290.5293,874,294.5293,870,290.5293" style="stroke: #A80036; stroke-width: 1.0;"/><line style="stroke: #A80036; stroke-width: 1.0;" x1="868" x2="1590" y1="290.5293" y2="290.5293"/><text fill="#000000" font-family="sans-serif" font-size="13" lengthAdjust="spacingAndGlyphs" textLength="75" x="880" y="286.0977">CommentID</text><polygon fill="#A80036" points="1220,315.8398,1230,319.8398,1220,323.8398,1224,319.8398" style="stroke: #A80036; stroke-width: 1.0;"/><line style="stroke: #A80036; stroke-width: 1.0;" x1="863" x2="1226" y1="319.8398" y2="319.8398"/><text fill="#000000" font-family="sans-serif" font-size="13" lengthAdjust="spacingAndGlyphs" textLength="345" x="870" y="315.4082">UpdateComment(CommentID:int, UserID:int, VSSID:int)</text><line style="stroke: #A80036; stroke-width: 1.0;" x1="1232" x2="1274" y1="349.4609" y2="349.4609"/><line style="stroke: #A80036; stroke-width: 1.0;" x1="1274" x2="1274" y1="349.4609" y2="362.4609"/><line style="stroke: #A80036; stroke-width: 1.0;" x1="1233" x2="1274" y1="362.4609" y2="362.4609"/><polygon fill="#A80036" points="1243,358.4609,1233,362.4609,1243,366.4609,1239,362.4609" style="stroke: #A80036; stroke-width: 1.0;"/><text fill="#000000" font-family="sans-serif" font-size="13" lengthAdjust="spacingAndGlyphs" textLength="345" x="1239" y="344.7188">UpdateComment(CommentID:int, UserID:int, VSSID:int)</text><path d="M760,334.6504 L760,359.6504 L1223,359.6504 L1223,344.6504 L1213,334.6504 L760,334.6504 " fill="#FBFB77" filter="url(#f3ys2wcx58xt5)" style="stroke: #A80036; stroke-width: 1.0;"/><path d="M1213,334.6504 L1213,344.6504 L1223,344.6504 L1213,334.6504 " fill="#FBFB77" style="stroke: #A80036; stroke-width: 1.0;"/><text fill="#000000" font-family="sans-serif" font-size="13" lengthAdjust="spacingAndGlyphs" textLength="442" x="766" y="352.2188">将评论ID，用户ID和VSSID构成的关系键值对存入VSS_Comment_Table表中</text><!--
@startuml Diagrams/CommentVSSServerSequenceDiagram
title CommentVSS
hide footbox
skinparam sequenceParticipant underline
actor ":OnlineSoundSpaceLibrary" as Client
participant ":Communicator" as Communicator
participant ":WebServer" as WebServer
participant ":VSSInformationDatabase" as VSSInformationDatabase
participant ":VSSCommentDatabase" as VSSCommentDatabase
Client->Communicator:CommentRequest(VSSID:int, UserID:int, Comment:String)
Communicator->WebServer:CommentRequest(VSSID:int, UserID:int, Comment:String)
WebServer->VSSCommentDatabase:AddComment(Comment:String)
VSSCommentDatabase->VSSCommentDatabase:AddComment(Comment):int
note left: 将评论添加到Comment_Table中\n并返回该评论在此表中的ID
VSSCommentDatabase->WebServer:CommentID
WebServer->VSSInformationDatabase:UpdateComment(CommentID:int, UserID:int, VSSID:int)
VSSInformationDatabase->VSSInformationDatabase:UpdateComment(CommentID:int, UserID:int, VSSID:int)
note left: 将评论ID，用户ID和VSSID构成的关系键值对存入VSS_Comment_Table表中
@enduml

PlantUML version 1.2018.01(Mon Jan 29 02:08:22 CST 2018)
(GPL source distribution)
Java Runtime: Java(TM) SE Runtime Environment
JVM: Java HotSpot(TM) 64-Bit Server VM
Java Version: 9+181
Operating System: Mac OS X
OS Version: 10.12.6
Default Encoding: UTF-8
Language: zh
Country: CN
--></g></svg>