<?xml version="1.0" encoding="UTF-8" standalone="no"?><svg xmlns="http://www.w3.org/2000/svg" xmlns:xlink="http://www.w3.org/1999/xlink" contentScriptType="application/ecmascript" contentStyleType="text/css" height="277px" preserveAspectRatio="none" style="width:300px;height:277px;" version="1.1" viewBox="0 0 300 277" width="300px" zoomAndPan="magnify"><defs><filter height="300%" id="f1lzif3of2eg4g" width="300%" x="-1" y="-1"><feGaussianBlur result="blurOut" stdDeviation="2.0"/><feColorMatrix in="blurOut" result="blurOut2" type="matrix" values="0 0 0 0 0 0 0 0 0 0 0 0 0 0 0 0 0 0 .4 0"/><feOffset dx="4.0" dy="4.0" in="blurOut2" result="blurOut3"/><feBlend in="SourceGraphic" in2="blurOut3" mode="normal"/></filter></defs><g><!--cluster CommunicationSubsystem--><rect fill="#FFFFFF" filter="url(#f1lzif3of2eg4g)" height="102" style="stroke: #000000; stroke-width: 1.5;" width="200" x="22" y="24"/><rect fill="#FFFFFF" height="10" style="stroke: #000000; stroke-width: 1.5;" width="15" x="202" y="29"/><rect fill="#FFFFFF" height="2" style="stroke: #000000; stroke-width: 1.5;" width="4" x="200" y="31"/><rect fill="#FFFFFF" height="2" style="stroke: #000000; stroke-width: 1.5;" width="4" x="200" y="35"/><text fill="#000000" font-family="sans-serif" font-size="14" font-weight="bold" lengthAdjust="spacingAndGlyphs" textLength="184" x="30" y="53.0439">CommunicationSubsystem</text><!--class Communicator--><rect fill="#FEFECE" filter="url(#f1lzif3of2eg4g)" height="48" id="Communicator" style="stroke: #A80036; stroke-width: 1.5;" width="114" x="90" y="62"/><ellipse cx="105" cy="78" fill="#ADD1B2" rx="11" ry="11" style="stroke: #A80036; stroke-width: 1.0;"/><path d="M103.5781,83.3594 Q101.7188,83.3594 100.625,81.9688 Q99.5313,80.5781 99.5313,77.5938 Q99.5313,75.0625 100.6953,73.4063 Q101.8594,71.75 103.8438,71.75 Q105.3125,71.75 105.7813,71.875 Q106.25,72.0781 106.25,72.0781 Q106.25,72.0781 106.25,72.0078 Q106.25,71.9375 106.8594,71.0156 L107.9063,74.6719 L106.5781,75.0781 Q106.1094,73.5313 105.4453,72.8672 Q104.7813,72.2031 103.7188,72.2031 Q103.3281,72.2031 102.5625,73.7344 Q101.7969,75.2656 101.7969,77.5156 Q101.7969,79.9844 102.4609,81.375 Q103.125,82.7656 103.6563,82.7656 Q104.7188,82.7656 105.4766,82 Q106.2344,81.2344 106.5781,79.5781 L107.9063,80.1719 Q107.5781,81.5781 106.6797,82.4688 Q105.7813,83.3594 103.5781,83.3594 Z "/><text fill="#000000" font-family="sans-serif" font-size="12" lengthAdjust="spacingAndGlyphs" textLength="82" x="119" y="83.5576">Communicator</text><line style="stroke: #A80036; stroke-width: 1.5;" x1="91" x2="203" y1="94" y2="94"/><line style="stroke: #A80036; stroke-width: 1.5;" x1="91" x2="203" y1="102" y2="102"/><ellipse cx="244" cy="86" fill="#FEFECE" filter="url(#f1lzif3of2eg4g)" rx="5" ry="5" style="stroke: #A80036; stroke-width: 1.5;"/><text fill="#000000" font-family="sans-serif" font-size="12" lengthAdjust="spacingAndGlyphs" textLength="89" x="199.5" y="104.752">UploadVSSMeta</text><ellipse cx="18" cy="175" fill="#FEFECE" filter="url(#f1lzif3of2eg4g)" rx="5" ry="5" style="stroke: #A80036; stroke-width: 1.5;"/><text fill="#000000" font-family="sans-serif" font-size="12" lengthAdjust="spacingAndGlyphs" textLength="55" x="-9.5" y="193.752">UploadSF</text><ellipse cx="76" cy="245" fill="#FEFECE" filter="url(#f1lzif3of2eg4g)" rx="5" ry="5" style="stroke: #A80036; stroke-width: 1.5;"/><text fill="#000000" font-family="sans-serif" font-size="12" lengthAdjust="spacingAndGlyphs" textLength="105" x="23.5" y="263.752">DownloadVSSMeta</text><ellipse cx="147" cy="245" fill="#FEFECE" filter="url(#f1lzif3of2eg4g)" rx="5" ry="5" style="stroke: #A80036; stroke-width: 1.5;"/><text fill="#000000" font-family="sans-serif" font-size="12" lengthAdjust="spacingAndGlyphs" textLength="71" x="111.5" y="263.752">DownloadSF</text><ellipse cx="205" cy="175" fill="#FEFECE" filter="url(#f1lzif3of2eg4g)" rx="5" ry="5" style="stroke: #A80036; stroke-width: 1.5;"/><text fill="#000000" font-family="sans-serif" font-size="12" lengthAdjust="spacingAndGlyphs" textLength="31" x="189.5" y="193.752">Login</text><ellipse cx="250" cy="175" fill="#FEFECE" filter="url(#f1lzif3of2eg4g)" rx="5" ry="5" style="stroke: #A80036; stroke-width: 1.5;"/><text fill="#000000" font-family="sans-serif" font-size="12" lengthAdjust="spacingAndGlyphs" textLength="47" x="226.5" y="193.752">Register</text><!--link Communicator to Communicatorlol4--><path d="M204.215,86 C215.715,86 227.216,86 238.716,86 " fill="none" id="Communicator-Communicatorlol4" style="stroke: #A80036; stroke-width: 1.0;"/><!--link Communicator to Communicatorlol7--><path d="M112.769,110.086 C80.5235,131.833 35.2249,162.3832 21.8563,171.3992 " fill="none" id="Communicator-Communicatorlol7" style="stroke: #A80036; stroke-width: 1.0;"/><!--link Communicator to Communicatorlol10--><path d="M136.524,110.166 C119.243,148.379 85.865,222.1859 77.7906,240.0406 " fill="none" id="Communicator-Communicatorlol10" style="stroke: #A80036; stroke-width: 1.0;"/><!--link Communicator to Communicatorlol13--><path d="M147,110.166 C147,148.208 147,221.5276 147,239.7981 " fill="none" id="Communicator-Communicatorlol13" style="stroke: #A80036; stroke-width: 1.0;"/><!--link Communicator to Communicatorlol16--><path d="M162.543,110.314 C176.502,131.253 195.806,160.2088 202.554,170.3311 " fill="none" id="Communicator-Communicatorlol16" style="stroke: #A80036; stroke-width: 1.0;"/><!--link Communicator to Communicatorlol19--><path d="M174.332,110.086 C199.84,131.632 235.578,161.8182 246.618,171.1433 " fill="none" id="Communicator-Communicatorlol19" style="stroke: #A80036; stroke-width: 1.0;"/><!--
@startuml Diagrams/CommunicationSubsystemClassDiagram
component CommunicationSubsystem {
    class Communicator {

    }
}
Communicator -() UploadVSSMeta
Communicator - -() UploadSF
Communicator - - -() DownloadVSSMeta
Communicator - - -() DownloadSF
Communicator - -() Login
Communicator - -() Register
@enduml

PlantUML version 1.2018.03(Fri Apr 06 00:59:15 CST 2018)
(GPL source distribution)
Java Runtime: Java(TM) SE Runtime Environment
JVM: Java HotSpot(TM) Client VM
Java Version: 1.8.0_171-b11
Operating System: Windows 8.1
OS Version: 6.3
Default Encoding: GBK
Language: zh
Country: CN
--></g></svg>