<?xml version="1.0" encoding="UTF-8" standalone="no"?><svg xmlns="http://www.w3.org/2000/svg" xmlns:xlink="http://www.w3.org/1999/xlink" contentScriptType="application/ecmascript" contentStyleType="text/css" height="471px" preserveAspectRatio="none" style="width:998px;height:471px;" version="1.1" viewBox="0 0 998 471"
    width="998px" zoomAndPan="magnify"><defs><filter height="300%" id="fhnsfcyqsrn99" width="300%" x="-1" y="-1"><feGaussianBlur result="blurOut" stdDeviation="2.0"/><feColorMatrix in="blurOut" result="blurOut2" type="matrix" values="0 0 0 0 0 0 0 0 0 0 0 0 0 0 0 0 0 0 .4 0"/><feOffset dx="4.0" dy="4.0" in="blurOut2" result="blurOut3"/><feBlend in="SourceGraphic" in2="blurOut3" mode="normal"/></filter></defs><g><rect fill="#FEFECE" filter="url(#fhnsfcyqsrn99)" height="30.4883" style="stroke: #A80036; stroke-width: 1.5;" width="162" x="366.5" y="125.7988"/><text fill="#000000" font-family="sans-serif" font-size="14" lengthAdjust="spacingAndGlyphs" text-decoration="underline" textLength="148" x="373.5" y="146.334">:CreateVSSViewModel</text><line style="stroke: #000000; stroke-width: 1.0;" x1="373.5" x2="521.5" y1="148.334" y2="148.334"/><rect fill="#FFFFFF" filter="url(#fhnsfcyqsrn99)" height="263.7734" style="stroke: #000000; stroke-width: 2.0;" width="973.5" x="13" y="178.2871"/><rect fill="#FEFECE" filter="url(#fhnsfcyqsrn99)" height="30.4883" style="stroke: #A80036; stroke-width: 1.5;" width="191" x="551.5" y="224.9082"/><text fill="#000000" font-family="sans-serif" font-size="14" lengthAdjust="spacingAndGlyphs" text-decoration="underline" textLength="177" x="558.5" y="245.4434">:CreateMapVSSViewModel</text><line style="stroke: #000000; stroke-width: 1.0;" x1="558.5" x2="735.5" y1="247.4434" y2="247.4434"/><rect fill="#FFFFFF" height="130.709" style="stroke: none; stroke-width: 1.0;" width="973.5" x="13" y="311.3516"/><rect fill="#FEFECE" filter="url(#fhnsfcyqsrn99)" height="30.4883" style="stroke: #A80036; stroke-width: 1.5;" width="216" x="756.5" y="355.6172"/><text fill="#000000" font-family="sans-serif" font-size="14" lengthAdjust="spacingAndGlyphs" text-decoration="underline" textLength="202" x="763.5" y="376.1523">:CreateConcertVSSViewModel</text><line style="stroke: #000000; stroke-width: 1.0;" x1="763.5" x2="965.5" y1="378.1523" y2="378.1523"/><line style="stroke: #A80036; stroke-width: 1.0;" x1="41" x2="41" y1="86.4883" y2="270.3965"/><line style="stroke: #A80036; stroke-width: 1.0; stroke-dasharray: 1.0,4.0;" x1="41" x2="41" y1="270.3965" y2="311.3516"/><line style="stroke: #A80036; stroke-width: 1.0;" x1="41" x2="41" y1="311.3516" y2="401.1055"/><line style="stroke: #A80036; stroke-width: 1.0; stroke-dasharray: 1.0,4.0;" x1="41" x2="41" y1="401.1055" y2="442.0605"/><line style="stroke: #A80036; stroke-width: 1.0;" x1="41" x2="41" y1="442.0605" y2="459.0605"/><line style="stroke: #A80036; stroke-width: 1.0;" x1="248.5" x2="248.5" y1="86.4883" y2="270.3965"/><line style="stroke: #A80036; stroke-width: 1.0; stroke-dasharray: 1.0,4.0;" x1="248.5" x2="248.5" y1="270.3965" y2="311.3516"/><line style="stroke: #A80036; stroke-width: 1.0;" x1="248.5" x2="248.5" y1="311.3516" y2="401.1055"/><line style="stroke: #A80036; stroke-width: 1.0; stroke-dasharray: 1.0,4.0;" x1="248.5" x2="248.5" y1="401.1055" y2="442.0605"/><line style="stroke: #A80036; stroke-width: 1.0;" x1="248.5" x2="248.5" y1="442.0605" y2="459.0605"/><line style="stroke: #A80036; stroke-width: 1.0;" x1="449.5" x2="449.5" y1="158.543" y2="270.3965"/><line style="stroke: #A80036; stroke-width: 1.0; stroke-dasharray: 1.0,4.0;" x1="449.5" x2="449.5" y1="270.3965" y2="311.3516"/><line style="stroke: #A80036; stroke-width: 1.0;" x1="449.5" x2="449.5" y1="311.3516" y2="401.1055"/><line style="stroke: #A80036; stroke-width: 1.0; stroke-dasharray: 1.0,4.0;" x1="449.5" x2="449.5" y1="401.1055" y2="442.0605"/><line style="stroke: #A80036; stroke-width: 1.0;" x1="449.5" x2="449.5" y1="442.0605" y2="459.0605"/><line style="stroke: #A80036; stroke-width: 1.0;" x1="648.5" x2="648.5" y1="257.6523" y2="270.3965"/><line style="stroke: #A80036; stroke-width: 1.0; stroke-dasharray: 1.0,4.0;" x1="648.5" x2="648.5" y1="270.3965" y2="311.3516"/><line style="stroke: #A80036; stroke-width: 1.0;" x1="648.5" x2="648.5" y1="311.3516" y2="401.1055"/><line style="stroke: #A80036; stroke-width: 1.0; stroke-dasharray: 1.0,4.0;" x1="648.5" x2="648.5" y1="401.1055" y2="442.0605"/><line style="stroke: #A80036; stroke-width: 1.0;" x1="648.5" x2="648.5" y1="442.0605" y2="459.0605"/><line style="stroke: #A80036; stroke-width: 1.0;" x1="866.5" x2="866.5" y1="388.3613" y2="401.1055"/><line style="stroke: #A80036; stroke-width: 1.0; stroke-dasharray: 1.0,4.0;" x1="866.5" x2="866.5" y1="401.1055" y2="442.0605"/><line style="stroke: #A80036; stroke-width: 1.0;" x1="866.5" x2="866.5" y1="442.0605" y2="459.0605"/><text fill="#000000" font-family="sans-serif" font-size="14" lengthAdjust="spacingAndGlyphs" text-decoration="underline" textLength="31" x="23" y="83.5352">User</text><line style="stroke: #000000; stroke-width: 1.0;" x1="23" x2="54" y1="85.5352" y2="85.5352"/><ellipse cx="41.5" cy="13" fill="#FEFECE" filter="url(#fhnsfcyqsrn99)" rx="8" ry="8" style="stroke: #A80036; stroke-width: 2.0;"/><path d="M41.5,21 L41.5,48 M28.5,29 L54.5,29 M41.5,48 L28.5,63 M41.5,48 L54.5,63 " fill="none" filter="url(#fhnsfcyqsrn99)" style="stroke: #A80036; stroke-width: 2.0;"/><rect fill="#FEFECE" filter="url(#fhnsfcyqsrn99)" height="30.4883" style="stroke: #A80036; stroke-width: 1.5;" width="212" x="140.5" y="51"/><text fill="#000000" font-family="sans-serif" font-size="14" lengthAdjust="spacingAndGlyphs" text-decoration="underline" textLength="198" x="147.5" y="71.5352">:LocalVSSManagerViewModel</text><line style="stroke: #000000; stroke-width: 1.0;" x1="147.5" x2="345.5" y1="73.5352" y2="73.5352"/><polygon fill="#A80036" points="236.5,113.7988,246.5,117.7988,236.5,121.7988,240.5,117.7988" style="stroke: #A80036; stroke-width: 1.0;"/><line style="stroke: #A80036; stroke-width: 1.0;" x1="41.5" x2="242.5" y1="117.7988" y2="117.7988"/><text fill="#000000" font-family="sans-serif" font-size="13" lengthAdjust="spacingAndGlyphs" textLength="183" x="48.5" y="113.0566">onCreateButtonClicked():void</text><polygon fill="#A80036" points="354.5,143.1094,364.5,147.1094,354.5,151.1094,358.5,147.1094" style="stroke: #A80036; stroke-width: 1.0;"/><line style="stroke: #A80036; stroke-width: 1.0;" x1="248.5" x2="360.5" y1="147.1094" y2="147.1094"/><text fill="#000000" font-family="sans-serif" font-size="13" lengthAdjust="spacingAndGlyphs" textLength="78" x="255.5" y="142.3672">&lt;&lt;create&gt;&gt;</text><rect fill="#FEFECE" filter="url(#fhnsfcyqsrn99)" height="30.4883" style="stroke: #A80036; stroke-width: 1.5;" width="162" x="366.5" y="125.7988"/><text fill="#000000" font-family="sans-serif" font-size="14" lengthAdjust="spacingAndGlyphs" text-decoration="underline" textLength="148" x="373.5" y="146.334">:CreateVSSViewModel</text><line style="stroke: #000000; stroke-width: 1.0;" x1="373.5" x2="521.5" y1="148.334" y2="148.334"/><path d="M13,178.2871 L75,178.2871 L75,185.2871 L65,195.2871 L13,195.2871 L13,178.2871 " fill="#EEEEEE" style="stroke: #000000; stroke-width: 1.0;"/><rect fill="none" height="263.7734" style="stroke: #000000; stroke-width: 2.0;" width="973.5" x="13" y="178.2871"/><text fill="#000000" font-family="sans-serif" font-size="13" font-weight="bold" lengthAdjust="spacingAndGlyphs" textLength="17" x="28" y="191.8555">alt</text><text fill="#000000" font-family="sans-serif" font-size="11" font-weight="bold" lengthAdjust="spacingAndGlyphs" textLength="126" x="90" y="190.9219">[create Map Mode VSS]</text><polygon fill="#A80036" points="437.5,212.9082,447.5,216.9082,437.5,220.9082,441.5,216.9082" style="stroke: #A80036; stroke-width: 1.0;"/><line style="stroke: #A80036; stroke-width: 1.0;" x1="41.5" x2="443.5" y1="216.9082" y2="216.9082"/><text fill="#000000" font-family="sans-serif" font-size="13" lengthAdjust="spacingAndGlyphs" textLength="203" x="48.5" y="212.166">onMapModeButtonClicked():void</text><polygon fill="#A80036" points="539.5,242.2188,549.5,246.2188,539.5,250.2188,543.5,246.2188" style="stroke: #A80036; stroke-width: 1.0;"/><line style="stroke: #A80036; stroke-width: 1.0;" x1="449.5" x2="545.5" y1="246.2188" y2="246.2188"/><text fill="#000000" font-family="sans-serif" font-size="13" lengthAdjust="spacingAndGlyphs" textLength="78" x="456.5" y="241.4766">&lt;&lt;create&gt;&gt;</text><rect fill="#FEFECE" filter="url(#fhnsfcyqsrn99)" height="30.4883" style="stroke: #A80036; stroke-width: 1.5;" width="191" x="551.5" y="224.9082"/><text fill="#000000" font-family="sans-serif" font-size="14" lengthAdjust="spacingAndGlyphs" text-decoration="underline" textLength="177" x="558.5" y="245.4434">:CreateMapVSSViewModel</text><line style="stroke: #000000; stroke-width: 1.0;" x1="558.5" x2="735.5" y1="247.4434" y2="247.4434"/><text fill="#000000" font-family="sans-serif" font-size="11" lengthAdjust="spacingAndGlyphs" textLength="108" x="400" y="295.0313">Go to CreateMapVSS</text><line style="stroke: #000000; stroke-width: 1.0; stroke-dasharray: 2.0,2.0;" x1="13" x2="986.5" y1="312.3516" y2="312.3516"/><text fill="#000000" font-family="sans-serif" font-size="11" font-weight="bold" lengthAdjust="spacingAndGlyphs" textLength="146" x="18" y="322.9863">[create Concert Mode VSS]</text><polygon fill="#A80036" points="437.5,343.6172,447.5,347.6172,437.5,351.6172,441.5,347.6172" style="stroke: #A80036; stroke-width: 1.0;"/><line style="stroke: #A80036; stroke-width: 1.0;" x1="41.5" x2="443.5" y1="347.6172" y2="347.6172"/><text fill="#000000" font-family="sans-serif" font-size="13" lengthAdjust="spacingAndGlyphs" textLength="226" x="48.5" y="342.875">onConcertModeButtonClicked():void</text><polygon fill="#A80036" points="744.5,372.9277,754.5,376.9277,744.5,380.9277,748.5,376.9277" style="stroke: #A80036; stroke-width: 1.0;"/><line style="stroke: #A80036; stroke-width: 1.0;" x1="449.5" x2="750.5" y1="376.9277" y2="376.9277"/><text fill="#000000" font-family="sans-serif" font-size="13" lengthAdjust="spacingAndGlyphs" textLength="78" x="456.5" y="372.1855">&lt;&lt;create&gt;&gt;</text><rect fill="#FEFECE" filter="url(#fhnsfcyqsrn99)" height="30.4883" style="stroke: #A80036; stroke-width: 1.5;" width="216" x="756.5" y="355.6172"/><text fill="#000000" font-family="sans-serif" font-size="14" lengthAdjust="spacingAndGlyphs" text-decoration="underline" textLength="202" x="763.5" y="376.1523">:CreateConcertVSSViewModel</text><line style="stroke: #000000; stroke-width: 1.0;" x1="763.5" x2="965.5" y1="378.1523" y2="378.1523"/><text fill="#000000" font-family="sans-serif" font-size="11" lengthAdjust="spacingAndGlyphs" textLength="158" x="375" y="425.7402">Go to CreateConcertModeVSS</text><!--
@startuml Diagrams/CreateVSS
hide footbox
skinparam sequenceParticipant underline

actor User as user
participant ":LocalVSSManagerViewModel" as manage
participant ":CreateVSSViewModel" as page
participant ":CreateMapVSSViewModel" as map
participant ":CreateConcertVSSViewModel" as concert

user -> manage: onCreateButtonClicked():void
create page
manage -> page: <<create>>
alt create Map Mode VSS
    user -> page: onMapModeButtonClicked():void
    create map
    page -> map: <<create>>
    ...Go to CreateMapVSS...
else create Concert Mode VSS
    user -> page: onConcertModeButtonClicked():void
    create concert
    page -> concert: <<create>>
    ...Go to CreateConcertModeVSS...
end

@enduml

PlantUML version 1.2018.02(Sat Mar 10 01:20:44 CST 2018)
(GPL source distribution)
Java Runtime: Java(TM) SE Runtime Environment
JVM: Java HotSpot(TM) 64-Bit Server VM
Java Version: 1.8.0_151-b12
Operating System: Mac OS X
OS Version: 10.11.6
Default Encoding: UTF-8
Language: zh
Country: CN
--></g></svg>
