<?xml version="1.0" encoding="UTF-8" standalone="no"?><svg xmlns="http://www.w3.org/2000/svg" xmlns:xlink="http://www.w3.org/1999/xlink" contentScriptType="application/ecmascript" contentStyleType="text/css" height="1358px" preserveAspectRatio="none" style="width:1430px;height:1358px;" version="1.1" viewBox="0 0 1430 1358"
    width="1430px" zoomAndPan="magnify"><defs><filter height="300%" id="f1kuiuia28rn5s" width="300%" x="-1" y="-1"><feGaussianBlur result="blurOut" stdDeviation="2.0"/><feColorMatrix in="blurOut" result="blurOut2" type="matrix" values="0 0 0 0 0 0 0 0 0 0 0 0 0 0 0 0 0 0 .4 0"/><feOffset dx="4.0" dy="4.0" in="blurOut2" result="blurOut3"/><feBlend in="SourceGraphic" in2="blurOut3" mode="normal"/></filter></defs><g><rect fill="#FEFECE" filter="url(#f1kuiuia28rn5s)" height="30.4883" style="stroke: #A80036; stroke-width: 1.5;" width="351" x="680.5" y="125.7988"/><text fill="#000000" font-family="sans-serif" font-size="14" lengthAdjust="spacingAndGlyphs" text-decoration="underline" textLength="337" x="687.5" y="146.334">newSoundSpace:ConcertModeVirtualSoundSpace</text><line style="stroke: #000000; stroke-width: 1.0;" x1="687.5" x2="1024.5" y1="148.334" y2="148.334"/><rect fill="#FEFECE" filter="url(#f1kuiuia28rn5s)" height="30.4883" style="stroke: #A80036; stroke-width: 1.5;" width="237" x="1045.5" y="171.2871"/><text fill="#000000" font-family="sans-serif" font-size="14" lengthAdjust="spacingAndGlyphs" text-decoration="underline" textLength="223" x="1052.5" y="191.8223">:ConcertSoundSourceViewModel</text><line style="stroke: #000000; stroke-width: 1.0;" x1="1052.5" x2="1275.5" y1="193.8223" y2="193.8223"/><rect fill="#FFFFFF" filter="url(#f1kuiuia28rn5s)" height="740.2539" style="stroke: #000000; stroke-width: 2.0;" width="1406.5" x="13" y="253.0859"/><rect fill="#FFFFFF" filter="url(#f1kuiuia28rn5s)" height="343.7051" style="stroke: #000000; stroke-width: 2.0;" width="724" x="23" y="277.3965"/><rect fill="#FFFFFF" height="85.2207" style="stroke: none; stroke-width: 1.0;" width="724" x="23" y="535.8809"/><rect fill="#FEFECE" filter="url(#f1kuiuia28rn5s)" height="30.4883" style="stroke: #A80036; stroke-width: 1.5;" width="109" x="1296.5" y="670.4121"/><text fill="#000000" font-family="sans-serif" font-size="14" lengthAdjust="spacingAndGlyphs" text-decoration="underline" textLength="95" x="1303.5" y="690.9473">:SoundSource</text><line style="stroke: #000000; stroke-width: 1.0;" x1="1303.5" x2="1398.5" y1="692.9473" y2="692.9473"/><rect fill="#FFFFFF" filter="url(#f1kuiuia28rn5s)" height="234.1289" style="stroke: #000000; stroke-width: 2.0;" width="1022.5" x="23" y="752.2109"/><rect fill="#FFFFFF" height="115.8867" style="stroke: none; stroke-width: 1.0;" width="1022.5" x="23" y="870.4531"/><rect fill="#FFFFFF" filter="url(#f1kuiuia28rn5s)" height="162.5078" style="stroke: #000000; stroke-width: 2.0;" width="657.5" x="23" y="1095.2715"/><rect fill="#FFFFFF" height="44.2656" style="stroke: none; stroke-width: 1.0;" width="657.5" x="23" y="1213.5137"/><line style="stroke: #A80036; stroke-width: 1.0;" x1="51" x2="51" y1="86.4883" y2="580.1465"/><line style="stroke: #A80036; stroke-width: 1.0; stroke-dasharray: 1.0,4.0;" x1="51" x2="51" y1="580.1465" y2="621.1016"/><line style="stroke: #A80036; stroke-width: 1.0;" x1="51" x2="51" y1="621.1016" y2="1346.4004"/><line style="stroke: #A80036; stroke-width: 1.0;" x1="322.5" x2="322.5" y1="86.4883" y2="580.1465"/><line style="stroke: #A80036; stroke-width: 1.0; stroke-dasharray: 1.0,4.0;" x1="322.5" x2="322.5" y1="580.1465" y2="621.1016"/><line style="stroke: #A80036; stroke-width: 1.0;" x1="322.5" x2="322.5" y1="621.1016" y2="1346.4004"/><line style="stroke: #A80036; stroke-width: 1.0;" x1="576.5" x2="576.5" y1="86.4883" y2="580.1465"/><line style="stroke: #A80036; stroke-width: 1.0; stroke-dasharray: 1.0,4.0;" x1="576.5" x2="576.5" y1="580.1465" y2="621.1016"/><line style="stroke: #A80036; stroke-width: 1.0;" x1="576.5" x2="576.5" y1="621.1016" y2="1346.4004"/><line style="stroke: #A80036; stroke-width: 1.0;" x1="857.5" x2="857.5" y1="158.543" y2="580.1465"/><line style="stroke: #A80036; stroke-width: 1.0; stroke-dasharray: 1.0,4.0;" x1="857.5" x2="857.5" y1="580.1465" y2="621.1016"/><line style="stroke: #A80036; stroke-width: 1.0;" x1="857.5" x2="857.5" y1="621.1016" y2="1346.4004"/><line style="stroke: #A80036; stroke-width: 1.0;" x1="1165.5" x2="1165.5" y1="204.0313" y2="580.1465"/><line style="stroke: #A80036; stroke-width: 1.0; stroke-dasharray: 1.0,4.0;" x1="1165.5" x2="1165.5" y1="580.1465" y2="621.1016"/><line style="stroke: #A80036; stroke-width: 1.0;" x1="1165.5" x2="1165.5" y1="621.1016" y2="1346.4004"/><line style="stroke: #A80036; stroke-width: 1.0;" x1="1352.5" x2="1352.5" y1="703.1563" y2="1346.4004"/><text fill="#000000" font-family="sans-serif" font-size="14" lengthAdjust="spacingAndGlyphs" text-decoration="underline" textLength="31" x="33" y="83.5352">User</text><line style="stroke: #000000; stroke-width: 1.0;" x1="33" x2="64" y1="85.5352" y2="85.5352"/><ellipse cx="51.5" cy="13" fill="#FEFECE" filter="url(#f1kuiuia28rn5s)" rx="8" ry="8" style="stroke: #A80036; stroke-width: 2.0;"/><path d="M51.5,21 L51.5,48 M38.5,29 L64.5,29 M51.5,48 L38.5,63 M51.5,48 L64.5,63 " fill="none" filter="url(#f1kuiuia28rn5s)" style="stroke: #A80036; stroke-width: 2.0;"/><rect fill="#FEFECE" filter="url(#f1kuiuia28rn5s)" height="30.4883" style="stroke: #A80036; stroke-width: 1.5;" width="216" x="212.5" y="51"/><text fill="#000000" font-family="sans-serif" font-size="14" lengthAdjust="spacingAndGlyphs" text-decoration="underline" textLength="202" x="219.5" y="71.5352">:CreateConcertVSSViewModel</text><line style="stroke: #000000; stroke-width: 1.0;" x1="219.5" x2="421.5" y1="73.5352" y2="73.5352"/><rect fill="#FEFECE" filter="url(#f1kuiuia28rn5s)" height="30.4883" style="stroke: #A80036; stroke-width: 1.5;" width="184" x="482.5" y="51"/><text fill="#000000" font-family="sans-serif" font-size="14" lengthAdjust="spacingAndGlyphs" text-decoration="underline" textLength="170" x="489.5" y="71.5352">:LocalSoundSpaceLibrary</text><line style="stroke: #000000; stroke-width: 1.0;" x1="489.5" x2="659.5" y1="73.5352" y2="73.5352"/><polygon fill="#A80036" points="310.5,113.7988,320.5,117.7988,310.5,121.7988,314.5,117.7988" style="stroke: #A80036; stroke-width: 1.0;"/><line style="stroke: #A80036; stroke-width: 1.0;" x1="3" x2="316.5" y1="117.7988" y2="117.7988"/><text fill="#000000" font-family="sans-serif" font-size="13" lengthAdjust="spacingAndGlyphs" textLength="78" x="10" y="113.0566">&lt;&lt;create&gt;&gt;</text><polygon fill="#A80036" points="668.5,143.1094,678.5,147.1094,668.5,151.1094,672.5,147.1094" style="stroke: #A80036; stroke-width: 1.0;"/><line style="stroke: #A80036; stroke-width: 1.0;" x1="322.5" x2="674.5" y1="147.1094" y2="147.1094"/><text fill="#000000" font-family="sans-serif" font-size="13" lengthAdjust="spacingAndGlyphs" textLength="78" x="329.5" y="142.3672">&lt;&lt;create&gt;&gt;</text><rect fill="#FEFECE" filter="url(#f1kuiuia28rn5s)" height="30.4883" style="stroke: #A80036; stroke-width: 1.5;" width="351" x="680.5" y="125.7988"/><text fill="#000000" font-family="sans-serif" font-size="14" lengthAdjust="spacingAndGlyphs" text-decoration="underline" textLength="337" x="687.5" y="146.334">newSoundSpace:ConcertModeVirtualSoundSpace</text><line style="stroke: #000000; stroke-width: 1.0;" x1="687.5" x2="1024.5" y1="148.334" y2="148.334"/><polygon fill="#A80036" points="1033.5,188.5977,1043.5,192.5977,1033.5,196.5977,1037.5,192.5977" style="stroke: #A80036; stroke-width: 1.0;"/><line style="stroke: #A80036; stroke-width: 1.0;" x1="322.5" x2="1039.5" y1="192.5977" y2="192.5977"/><text fill="#000000" font-family="sans-serif" font-size="13" lengthAdjust="spacingAndGlyphs" textLength="78" x="329.5" y="187.8555">&lt;&lt;create&gt;&gt;</text><rect fill="#FEFECE" filter="url(#f1kuiuia28rn5s)" height="30.4883" style="stroke: #A80036; stroke-width: 1.5;" width="237" x="1045.5" y="171.2871"/><text fill="#000000" font-family="sans-serif" font-size="14" lengthAdjust="spacingAndGlyphs" text-decoration="underline" textLength="223" x="1052.5" y="191.8223">:ConcertSoundSourceViewModel</text><line style="stroke: #000000; stroke-width: 1.0;" x1="1052.5" x2="1275.5" y1="193.8223" y2="193.8223"/><polygon fill="#A80036" points="1154,234.0859,1164,238.0859,1154,242.0859,1158,238.0859" style="stroke: #A80036; stroke-width: 1.0;"/><line style="stroke: #A80036; stroke-width: 1.0;" x1="322.5" x2="1160" y1="238.0859" y2="238.0859"/><text fill="#000000" font-family="sans-serif" font-size="13" lengthAdjust="spacingAndGlyphs" textLength="435" x="329.5" y="233.3438">displayConcertSoundSourceList(listOfLocalConcertSoundSource):void</text><path d="M13,253.0859 L87,253.0859 L87,260.0859 L77,270.0859 L13,270.0859 L13,253.0859 " fill="#EEEEEE" style="stroke: #000000; stroke-width: 1.0;"/><rect fill="none" height="740.2539" style="stroke: #000000; stroke-width: 2.0;" width="1406.5" x="13" y="253.0859"/><text fill="#000000" font-family="sans-serif" font-size="13" font-weight="bold" lengthAdjust="spacingAndGlyphs" textLength="29" x="28" y="266.6543">loop</text><text fill="#000000" font-family="sans-serif" font-size="11" font-weight="bold" lengthAdjust="spacingAndGlyphs" textLength="144" x="102" y="265.7207">[add virual sound source]</text><path d="M23,277.3965 L85,277.3965 L85,284.3965 L75,294.3965 L23,294.3965 L23,277.3965 " fill="#EEEEEE" style="stroke: #000000; stroke-width: 1.0;"/><rect fill="none" height="343.7051" style="stroke: #000000; stroke-width: 2.0;" width="724" x="23" y="277.3965"/><text fill="#000000" font-family="sans-serif" font-size="13" font-weight="bold" lengthAdjust="spacingAndGlyphs" textLength="17" x="38" y="290.9648">alt</text><text fill="#000000" font-family="sans-serif" font-size="11" font-weight="bold" lengthAdjust="spacingAndGlyphs" textLength="101" x="100" y="290.0313">[add from library]</text><path d="M56,299.707 L56,324.707 L733,324.707 L733,309.707 L723,299.707 L56,299.707 " fill="#FBFB77" filter="url(#f1kuiuia28rn5s)" style="stroke: #A80036; stroke-width: 1.0;"/><path d="M723,299.707 L723,309.707 L733,309.707 L723,299.707 " fill="#FBFB77" style="stroke: #A80036; stroke-width: 1.0;"/><text fill="#000000" font-family="sans-serif" font-size="13" lengthAdjust="spacingAndGlyphs" textLength="656" x="62" y="317.2754">Notice that there are no shared SoundSources here, each time, only the SoundFragment object is reused.</text><polygon fill="#A80036" points="310.5,351.3281,320.5,355.3281,310.5,359.3281,314.5,355.3281" style="stroke: #A80036; stroke-width: 1.0;"/><line style="stroke: #A80036; stroke-width: 1.0;" x1="51.5" x2="316.5" y1="355.3281" y2="355.3281"/><text fill="#000000" font-family="sans-serif" font-size="13" lengthAdjust="spacingAndGlyphs" textLength="247" x="58.5" y="350.5859">onAddFromLibraryButtonClicked(): void</text><polygon fill="#A80036" points="564.5,380.6387,574.5,384.6387,564.5,388.6387,568.5,384.6387" style="stroke: #A80036; stroke-width: 1.0;"/><line style="stroke: #A80036; stroke-width: 1.0;" x1="322.5" x2="570.5" y1="384.6387" y2="384.6387"/><text fill="#000000" font-family="sans-serif" font-size="13" lengthAdjust="spacingAndGlyphs" textLength="158" x="329.5" y="379.8965">getLocalSoundFragments</text><polygon fill="#A80036" points="333.5,409.9492,323.5,413.9492,333.5,417.9492,329.5,413.9492" style="stroke: #A80036; stroke-width: 1.0;"/><line style="stroke: #A80036; stroke-width: 1.0; stroke-dasharray: 2.0,2.0;" x1="327.5" x2="575.5" y1="413.9492" y2="413.9492"/><text fill="#000000" font-family="sans-serif" font-size="13" lengthAdjust="spacingAndGlyphs" textLength="150" x="339.5" y="409.207">filteredSoundFragments</text><line style="stroke: #A80036; stroke-width: 1.0; stroke-dasharray: 2.0,2.0;" x1="322.5" x2="364.5" y1="443.2598" y2="443.2598"/><line style="stroke: #A80036; stroke-width: 1.0; stroke-dasharray: 2.0,2.0;" x1="364.5" x2="364.5" y1="443.2598" y2="456.2598"/><line style="stroke: #A80036; stroke-width: 1.0; stroke-dasharray: 2.0,2.0;" x1="323.5" x2="364.5" y1="456.2598" y2="456.2598"/><polygon fill="#A80036" points="333.5,452.2598,323.5,456.2598,333.5,460.2598,329.5,456.2598" style="stroke: #A80036; stroke-width: 1.0;"/><text fill="#000000" font-family="sans-serif" font-size="13" lengthAdjust="spacingAndGlyphs" textLength="240" x="329.5" y="438.5176">displayAvailableLocalSoundFragments</text><polygon fill="#A80036" points="310.5,481.5703,320.5,485.5703,310.5,489.5703,314.5,485.5703" style="stroke: #A80036; stroke-width: 1.0;"/><line style="stroke: #A80036; stroke-width: 1.0;" x1="51.5" x2="316.5" y1="485.5703" y2="485.5703"/><text fill="#000000" font-family="sans-serif" font-size="13" lengthAdjust="spacingAndGlyphs" textLength="135" x="58.5" y="480.8281">selectSoundFragment</text><line style="stroke: #A80036; stroke-width: 1.0;" x1="322.5" x2="364.5" y1="514.8809" y2="514.8809"/><line style="stroke: #A80036; stroke-width: 1.0;" x1="364.5" x2="364.5" y1="514.8809" y2="527.8809"/><line style="stroke: #A80036; stroke-width: 1.0;" x1="323.5" x2="364.5" y1="527.8809" y2="527.8809"/><polygon fill="#A80036" points="333.5,523.8809,323.5,527.8809,333.5,531.8809,329.5,527.8809" style="stroke: #A80036; stroke-width: 1.0;"/><text fill="#000000" font-family="sans-serif" font-size="13" lengthAdjust="spacingAndGlyphs" textLength="121" x="329.5" y="510.1387">addSoundFragment</text><line style="stroke: #000000; stroke-width: 1.0; stroke-dasharray: 2.0,2.0;" x1="23" x2="747" y1="536.8809" y2="536.8809"/><text fill="#000000" font-family="sans-serif" font-size="11" font-weight="bold" lengthAdjust="spacingAndGlyphs" textLength="83" x="28" y="547.5156">[add from file]</text><polygon fill="#A80036" points="310.5,568.1465,320.5,572.1465,310.5,576.1465,314.5,572.1465" style="stroke: #A80036; stroke-width: 1.0;"/><line style="stroke: #A80036; stroke-width: 1.0;" x1="51.5" x2="316.5" y1="572.1465" y2="572.1465"/><text fill="#000000" font-family="sans-serif" font-size="13" lengthAdjust="spacingAndGlyphs" textLength="226" x="58.5" y="567.4043">onAddFromFileButtonClicked(): void</text><text fill="#000000" font-family="sans-serif" font-size="11" lengthAdjust="spacingAndGlyphs" textLength="500" x="452.25" y="604.7813">somehow CreateMapVSSControl got the new SoundFragment # specify during implementation</text><line style="stroke: #A80036; stroke-width: 1.0;" x1="51.5" x2="93.5" y1="649.4121" y2="649.4121"/><line style="stroke: #A80036; stroke-width: 1.0;" x1="93.5" x2="93.5" y1="649.4121" y2="662.4121"/><line style="stroke: #A80036; stroke-width: 1.0;" x1="52.5" x2="93.5" y1="662.4121" y2="662.4121"/><polygon fill="#A80036" points="62.5,658.4121,52.5,662.4121,62.5,666.4121,58.5,662.4121" style="stroke: #A80036; stroke-width: 1.0;"/><text fill="#000000" font-family="sans-serif" font-size="13" lengthAdjust="spacingAndGlyphs" textLength="80" x="58.5" y="644.6699">wakeUp(self)</text><polygon fill="#A80036" points="1284.5,687.7227,1294.5,691.7227,1284.5,695.7227,1288.5,691.7227" style="stroke: #A80036; stroke-width: 1.0;"/><line style="stroke: #A80036; stroke-width: 1.0;" x1="322.5" x2="1290.5" y1="691.7227" y2="691.7227"/><text fill="#000000" font-family="sans-serif" font-size="13" lengthAdjust="spacingAndGlyphs" textLength="78" x="329.5" y="686.9805">&lt;&lt;create&gt;&gt;</text><rect fill="#FEFECE" filter="url(#f1kuiuia28rn5s)" height="30.4883" style="stroke: #A80036; stroke-width: 1.5;" width="109" x="1296.5" y="670.4121"/><text fill="#000000" font-family="sans-serif" font-size="14" lengthAdjust="spacingAndGlyphs" text-decoration="underline" textLength="95" x="1303.5" y="690.9473">:SoundSource</text><line style="stroke: #000000; stroke-width: 1.0;" x1="1303.5" x2="1398.5" y1="692.9473" y2="692.9473"/><polygon fill="#A80036" points="1341,733.2109,1351,737.2109,1341,741.2109,1345,737.2109" style="stroke: #A80036; stroke-width: 1.0;"/><line style="stroke: #A80036; stroke-width: 1.0;" x1="322.5" x2="1347" y1="737.2109" y2="737.2109"/><text fill="#000000" font-family="sans-serif" font-size="13" lengthAdjust="spacingAndGlyphs" textLength="117" x="329.5" y="732.4688">setSoundFragment</text><path d="M23,752.2109 L85,752.2109 L85,759.2109 L75,769.2109 L23,769.2109 L23,752.2109 " fill="#EEEEEE" style="stroke: #000000; stroke-width: 1.0;"/><rect fill="none" height="234.1289" style="stroke: #000000; stroke-width: 2.0;" width="1022.5" x="23" y="752.2109"/><text fill="#000000" font-family="sans-serif" font-size="13" font-weight="bold" lengthAdjust="spacingAndGlyphs" textLength="17" x="38" y="765.7793">alt</text><text fill="#000000" font-family="sans-serif" font-size="11" font-weight="bold" lengthAdjust="spacingAndGlyphs" textLength="53" x="100" y="764.8457">[confirm]</text><polygon fill="#A80036" points="310.5,786.832,320.5,790.832,310.5,794.832,314.5,790.832" style="stroke: #A80036; stroke-width: 1.0;"/><line style="stroke: #A80036; stroke-width: 1.0;" x1="51.5" x2="316.5" y1="790.832" y2="790.832"/><text fill="#000000" font-family="sans-serif" font-size="13" lengthAdjust="spacingAndGlyphs" textLength="103" x="58.5" y="786.0898">confirmAddition</text><line style="stroke: #A80036; stroke-width: 1.0;" x1="322.5" x2="364.5" y1="820.1426" y2="820.1426"/><line style="stroke: #A80036; stroke-width: 1.0;" x1="364.5" x2="364.5" y1="820.1426" y2="833.1426"/><line style="stroke: #A80036; stroke-width: 1.0;" x1="323.5" x2="364.5" y1="833.1426" y2="833.1426"/><polygon fill="#A80036" points="333.5,829.1426,323.5,833.1426,333.5,837.1426,329.5,833.1426" style="stroke: #A80036; stroke-width: 1.0;"/><text fill="#000000" font-family="sans-serif" font-size="13" lengthAdjust="spacingAndGlyphs" textLength="103" x="329.5" y="815.4004">confirmAddition</text><polygon fill="#A80036" points="846,858.4531,856,862.4531,846,866.4531,850,862.4531" style="stroke: #A80036; stroke-width: 1.0;"/><line style="stroke: #A80036; stroke-width: 1.0;" x1="322.5" x2="852" y1="862.4531" y2="862.4531"/><text fill="#000000" font-family="sans-serif" font-size="13" lengthAdjust="spacingAndGlyphs" textLength="193" x="329.5" y="857.7109">addSoundSource(soundSource)</text><line style="stroke: #000000; stroke-width: 1.0; stroke-dasharray: 2.0,2.0;" x1="23" x2="1045.5" y1="871.4531" y2="871.4531"/><text fill="#000000" font-family="sans-serif" font-size="11" font-weight="bold" lengthAdjust="spacingAndGlyphs" textLength="43" x="28" y="882.0879">[cancel]</text><polygon fill="#A80036" points="310.5,902.7188,320.5,906.7188,310.5,910.7188,314.5,906.7188" style="stroke: #A80036; stroke-width: 1.0;"/><line style="stroke: #A80036; stroke-width: 1.0;" x1="51.5" x2="316.5" y1="906.7188" y2="906.7188"/><text fill="#000000" font-family="sans-serif" font-size="13" lengthAdjust="spacingAndGlyphs" textLength="94" x="58.5" y="901.9766">cancelAddition</text><line style="stroke: #A80036; stroke-width: 1.0;" x1="322.5" x2="364.5" y1="936.0293" y2="936.0293"/><line style="stroke: #A80036; stroke-width: 1.0;" x1="364.5" x2="364.5" y1="936.0293" y2="949.0293"/><line style="stroke: #A80036; stroke-width: 1.0;" x1="323.5" x2="364.5" y1="949.0293" y2="949.0293"/><polygon fill="#A80036" points="333.5,945.0293,323.5,949.0293,333.5,953.0293,329.5,949.0293" style="stroke: #A80036; stroke-width: 1.0;"/><text fill="#000000" font-family="sans-serif" font-size="13" lengthAdjust="spacingAndGlyphs" textLength="103" x="329.5" y="931.2871">confirmAddition</text><polygon fill="#A80036" points="846,974.3398,856,978.3398,846,982.3398,850,978.3398" style="stroke: #A80036; stroke-width: 1.0;"/><line style="stroke: #A80036; stroke-width: 1.0;" x1="322.5" x2="852" y1="978.3398" y2="978.3398"/><text fill="#000000" font-family="sans-serif" font-size="13" lengthAdjust="spacingAndGlyphs" textLength="87" x="329.5" y="973.5977">&lt;&lt;destroy&gt;&gt;</text><line style="stroke: #A80036; stroke-width: 2.0;" x1="849" x2="867" y1="969.3398" y2="987.3398"/><line style="stroke: #A80036; stroke-width: 2.0;" x1="849" x2="867" y1="987.3398" y2="969.3398"/><polygon fill="#A80036" points="310.5,1017.6504,320.5,1021.6504,310.5,1025.6504,314.5,1021.6504" style="stroke: #A80036; stroke-width: 1.0;"/><line style="stroke: #A80036; stroke-width: 1.0;" x1="51.5" x2="316.5" y1="1021.6504" y2="1021.6504"/><text fill="#000000" font-family="sans-serif" font-size="13" lengthAdjust="spacingAndGlyphs" textLength="175" x="58.5" y="1016.9082">setVSSNameAndDescription</text><polygon fill="#A80036" points="846,1046.9609,856,1050.9609,846,1054.9609,850,1050.9609" style="stroke: #A80036; stroke-width: 1.0;"/><line style="stroke: #A80036; stroke-width: 1.0;" x1="322.5" x2="852" y1="1050.9609" y2="1050.9609"/><text fill="#000000" font-family="sans-serif" font-size="13" lengthAdjust="spacingAndGlyphs" textLength="175" x="329.5" y="1046.2188">setVSSNameAndDescription</text><polygon fill="#A80036" points="1154,1076.2715,1164,1080.2715,1154,1084.2715,1158,1080.2715" style="stroke: #A80036; stroke-width: 1.0;"/><line style="stroke: #A80036; stroke-width: 1.0;" x1="322.5" x2="1160" y1="1080.2715" y2="1080.2715"/><text fill="#000000" font-family="sans-serif" font-size="13" lengthAdjust="spacingAndGlyphs" textLength="435" x="329.5" y="1075.5293">displayConcertSoundSourceList(listOfLocalConcertSoundSource):void</text><path d="M23,1095.2715 L85,1095.2715 L85,1102.2715 L75,1112.2715 L23,1112.2715 L23,1095.2715 " fill="#EEEEEE" style="stroke: #000000; stroke-width: 1.0;"/><rect fill="none" height="162.5078" style="stroke: #000000; stroke-width: 2.0;" width="657.5" x="23" y="1095.2715"/><text fill="#000000" font-family="sans-serif" font-size="13" font-weight="bold" lengthAdjust="spacingAndGlyphs" textLength="17" x="38" y="1108.8398">alt</text><text fill="#000000" font-family="sans-serif" font-size="11" font-weight="bold" lengthAdjust="spacingAndGlyphs" textLength="53" x="100" y="1107.9063">[confirm]</text><polygon fill="#A80036" points="310.5,1129.8926,320.5,1133.8926,310.5,1137.8926,314.5,1133.8926" style="stroke: #A80036; stroke-width: 1.0;"/><line style="stroke: #A80036; stroke-width: 1.0;" x1="51.5" x2="316.5" y1="1133.8926" y2="1133.8926"/><text fill="#000000" font-family="sans-serif" font-size="13" lengthAdjust="spacingAndGlyphs" textLength="198" x="58.5" y="1129.1504">onConfirmButtonClicked(): void</text><line style="stroke: #A80036; stroke-width: 1.0;" x1="322.5" x2="364.5" y1="1163.2031" y2="1163.2031"/><line style="stroke: #A80036; stroke-width: 1.0;" x1="364.5" x2="364.5" y1="1163.2031" y2="1176.2031"/><line style="stroke: #A80036; stroke-width: 1.0;" x1="323.5" x2="364.5" y1="1176.2031" y2="1176.2031"/><polygon fill="#A80036" points="333.5,1172.2031,323.5,1176.2031,333.5,1180.2031,329.5,1176.2031" style="stroke: #A80036; stroke-width: 1.0;"/><text fill="#000000" font-family="sans-serif" font-size="13" lengthAdjust="spacingAndGlyphs" textLength="128" x="329.5" y="1158.4609">comfirmVSSCreation</text><polygon fill="#A80036" points="564.5,1201.5137,574.5,1205.5137,564.5,1209.5137,568.5,1205.5137" style="stroke: #A80036; stroke-width: 1.0;"/><line style="stroke: #A80036; stroke-width: 1.0;" x1="322.5" x2="570.5" y1="1205.5137" y2="1205.5137"/><text fill="#000000" font-family="sans-serif" font-size="13" lengthAdjust="spacingAndGlyphs" textLength="206" x="329.5" y="1200.7715">addSoundSpace(newSoundSpace)</text><line style="stroke: #000000; stroke-width: 1.0; stroke-dasharray: 2.0,2.0;" x1="23" x2="680.5" y1="1214.5137" y2="1214.5137"/><text fill="#000000" font-family="sans-serif" font-size="11" font-weight="bold" lengthAdjust="spacingAndGlyphs" textLength="43" x="28" y="1225.1484">[cancel]</text><polygon fill="#A80036" points="310.5,1245.7793,320.5,1249.7793,310.5,1253.7793,314.5,1249.7793" style="stroke: #A80036; stroke-width: 1.0;"/><line style="stroke: #A80036; stroke-width: 1.0;" x1="51.5" x2="316.5" y1="1249.7793" y2="1249.7793"/><text fill="#000000" font-family="sans-serif" font-size="13" lengthAdjust="spacingAndGlyphs" textLength="189" x="58.5" y="1245.0371">onCancelButtonClicked(): void</text><polygon fill="#A80036" points="1154,1282.0898,1164,1286.0898,1154,1290.0898,1158,1286.0898" style="stroke: #A80036; stroke-width: 1.0;"/><line style="stroke: #A80036; stroke-width: 1.0;" x1="322.5" x2="1160" y1="1286.0898" y2="1286.0898"/><text fill="#000000" font-family="sans-serif" font-size="13" lengthAdjust="spacingAndGlyphs" textLength="87" x="329.5" y="1281.3477">&lt;&lt;destroy&gt;&gt;</text><line style="stroke: #A80036; stroke-width: 2.0;" x1="1157" x2="1175" y1="1277.0898" y2="1295.0898"/><line style="stroke: #A80036; stroke-width: 2.0;" x1="1157" x2="1175" y1="1295.0898" y2="1277.0898"/><line style="stroke: #A80036; stroke-width: 1.0;" x1="322.5" x2="364.5" y1="1315.4004" y2="1315.4004"/><line style="stroke: #A80036; stroke-width: 1.0;" x1="364.5" x2="364.5" y1="1315.4004" y2="1328.4004"/><line style="stroke: #A80036; stroke-width: 1.0;" x1="323.5" x2="364.5" y1="1328.4004" y2="1328.4004"/><polygon fill="#A80036" points="333.5,1324.4004,323.5,1328.4004,333.5,1332.4004,329.5,1328.4004" style="stroke: #A80036; stroke-width: 1.0;"/><text fill="#000000" font-family="sans-serif" font-size="13" lengthAdjust="spacingAndGlyphs" textLength="87" x="329.5" y="1310.6582">&lt;&lt;destroy&gt;&gt;</text><line style="stroke: #A80036; stroke-width: 2.0;" x1="313.5" x2="331.5" y1="1319.0898" y2="1337.0898"/><line style="stroke: #A80036; stroke-width: 2.0;" x1="313.5" x2="331.5" y1="1337.0898" y2="1319.0898"/><!--
@startuml Diagrams/CreateConcertModeVSS
hide footbox
skinparam sequenceParticipant underline


actor User as user
participant ":CreateConcertVSSViewModel" as createboundary
participant ":LocalSoundSpaceLibrary" as library
participant "newSoundSpace:ConcertModeVirtualSoundSpace" as newspace
participant ":ConcertSoundSourceViewModel" as cssvm

create createboundary
-> createboundary: <<create>>
create newspace
createboundary -> newspace: <<create>>
create cssvm
createboundary -> cssvm: <<create>>
createboundary -> cssvm: displayConcertSoundSourceList(listOfLocalConcertSoundSource):void

loop add virual sound source
    alt add from library
        note right of user: Notice that there are no shared SoundSources here, each time, only the SoundFragment object is reused.
        user -> createboundary: onAddFromLibraryButtonClicked(): void
        createboundary -> library: getLocalSoundFragments
        library - -> createboundary: filteredSoundFragments
        createboundary - -> createboundary: displayAvailableLocalSoundFragments
        user -> createboundary: selectSoundFragment
        createboundary -> createboundary: addSoundFragment
    else add from file
        user -> createboundary: onAddFromFileButtonClicked(): void
        ...somehow CreateMapVSSControl got the new SoundFragment # specify during implementation...
    end


    participant ":SoundSource" as source
    user -> user: wakeUp(self)
    create source
    createboundary -> source: <<create>>
    createboundary -> source: setSoundFragment
    alt confirm
        user -> createboundary: confirmAddition
        createboundary -> createboundary: confirmAddition
        createboundary -> newspace: addSoundSource(soundSource)
    else cancel
        user -> createboundary: cancelAddition
        createboundary -> createboundary: confirmAddition
        createboundary -> newspace: <<destroy>>
        destroy newspace
    end

end
user -> createboundary: setVSSNameAndDescription
createboundary -> newspace: setVSSNameAndDescription
createboundary -> cssvm: displayConcertSoundSourceList(listOfLocalConcertSoundSource):void
alt confirm
    user -> createboundary: onConfirmButtonClicked(): void
    createboundary -> createboundary: comfirmVSSCreation
    createboundary -> library: addSoundSpace(newSoundSpace)
else cancel
    user -> createboundary: onCancelButtonClicked(): void
end
createboundary -> cssvm: <<destroy>>
destroy cssvm
createboundary -> createboundary: <<destroy>>
destroy createboundary
@enduml

PlantUML version 1.2018.02(Sat Mar 10 01:20:44 CST 2018)
(GPL source distribution)
Java Runtime: Java(TM) SE Runtime Environment
JVM: Java HotSpot(TM) 64-Bit Server VM
Java Version: 1.8.0_151-b12
Operating System: Mac OS X
OS Version: 10.11.6
Default Encoding: UTF-8
Language: zh
Country: CN
--></g></svg>
