<?xml version="1.0" encoding="UTF-8" standalone="no"?><svg xmlns="http://www.w3.org/2000/svg" xmlns:xlink="http://www.w3.org/1999/xlink" contentScriptType="application/ecmascript" contentStyleType="text/css" height="1322px" preserveAspectRatio="none" style="width:1633px;height:1322px;" version="1.1" viewBox="0 0 1633 1322"
    width="1633px" zoomAndPan="magnify"><defs><filter height="300%" id="f1plcdq0ruqnep" width="300%" x="-1" y="-1"><feGaussianBlur result="blurOut" stdDeviation="2.0"/><feColorMatrix in="blurOut" result="blurOut2" type="matrix" values="0 0 0 0 0 0 0 0 0 0 0 0 0 0 0 0 0 0 .4 0"/><feOffset dx="4.0" dy="4.0" in="blurOut2" result="blurOut3"/><feBlend in="SourceGraphic" in2="blurOut3" mode="normal"/></filter></defs><g><rect fill="#FEFECE" filter="url(#f1plcdq0ruqnep)" height="30.4883" style="stroke: #A80036; stroke-width: 1.5;" width="194" x="477.5" y="125.7988"/><text fill="#000000" font-family="sans-serif" font-size="14" lengthAdjust="spacingAndGlyphs" text-decoration="underline" textLength="180" x="484.5" y="146.334">:CreateConcertVSSControl</text><line style="stroke: #000000; stroke-width: 1.0;" x1="484.5" x2="664.5" y1="148.334" y2="148.334"/><rect fill="#FEFECE" filter="url(#f1plcdq0ruqnep)" height="30.4883" style="stroke: #A80036; stroke-width: 1.5;" width="351" x="883.5" y="171.2871"/><text fill="#000000" font-family="sans-serif" font-size="14" lengthAdjust="spacingAndGlyphs" text-decoration="underline" textLength="337" x="890.5" y="191.8223">newSoundSpace:ConcertModeVirtualSoundSpace</text><line style="stroke: #000000; stroke-width: 1.0;" x1="890.5" x2="1227.5" y1="193.8223" y2="193.8223"/><rect fill="#FEFECE" filter="url(#f1plcdq0ruqnep)" height="30.4883" style="stroke: #A80036; stroke-width: 1.5;" width="237" x="1248.5" y="216.7754"/><text fill="#000000" font-family="sans-serif" font-size="14" lengthAdjust="spacingAndGlyphs" text-decoration="underline" textLength="223" x="1255.5" y="237.3105">:ConcertSoundSourceViewModel</text><line style="stroke: #000000; stroke-width: 1.0;" x1="1255.5" x2="1478.5" y1="239.3105" y2="239.3105"/><rect fill="#FFFFFF" filter="url(#f1plcdq0ruqnep)" height="701.2539" style="stroke: #000000; stroke-width: 2.0;" width="1609.5" x="13" y="298.5742"/><rect fill="#FFFFFF" filter="url(#f1plcdq0ruqnep)" height="330.7051" style="stroke: #000000; stroke-width: 2.0;" width="860.5" x="23" y="322.8848"/><rect fill="#FFFFFF" height="85.2207" style="stroke: none; stroke-width: 1.0;" width="860.5" x="23" y="568.3691"/><rect fill="#FEFECE" filter="url(#f1plcdq0ruqnep)" height="30.4883" style="stroke: #A80036; stroke-width: 1.5;" width="109" x="1499.5" y="702.9004"/><text fill="#000000" font-family="sans-serif" font-size="14" lengthAdjust="spacingAndGlyphs" text-decoration="underline" textLength="95" x="1506.5" y="723.4355">:SoundSource</text><line style="stroke: #000000; stroke-width: 1.0;" x1="1506.5" x2="1601.5" y1="725.4355" y2="725.4355"/><rect fill="#FFFFFF" filter="url(#f1plcdq0ruqnep)" height="208.1289" style="stroke: #000000; stroke-width: 2.0;" width="1225.5" x="23" y="784.6992"/><rect fill="#FFFFFF" height="102.8867" style="stroke: none; stroke-width: 1.0;" width="1225.5" x="23" y="889.9414"/><rect fill="#FFFFFF" filter="url(#f1plcdq0ruqnep)" height="162.5078" style="stroke: #000000; stroke-width: 2.0;" width="860.5" x="23" y="1101.7598"/><rect fill="#FFFFFF" height="44.2656" style="stroke: none; stroke-width: 1.0;" width="860.5" x="23" y="1220.002"/><line style="stroke: #A80036; stroke-width: 1.0;" x1="51" x2="51" y1="86.4883" y2="612.6348"/><line style="stroke: #A80036; stroke-width: 1.0; stroke-dasharray: 1.0,4.0;" x1="51" x2="51" y1="612.6348" y2="653.5898"/><line style="stroke: #A80036; stroke-width: 1.0;" x1="51" x2="51" y1="653.5898" y2="1310.5781"/><line style="stroke: #A80036; stroke-width: 1.0;" x1="322" x2="322" y1="86.4883" y2="612.6348"/><line style="stroke: #A80036; stroke-width: 1.0; stroke-dasharray: 1.0,4.0;" x1="322" x2="322" y1="612.6348" y2="653.5898"/><line style="stroke: #A80036; stroke-width: 1.0;" x1="322" x2="322" y1="653.5898" y2="1310.5781"/><line style="stroke: #A80036; stroke-width: 1.0;" x1="576.5" x2="576.5" y1="158.543" y2="612.6348"/><line style="stroke: #A80036; stroke-width: 1.0; stroke-dasharray: 1.0,4.0;" x1="576.5" x2="576.5" y1="612.6348" y2="653.5898"/><line style="stroke: #A80036; stroke-width: 1.0;" x1="576.5" x2="576.5" y1="653.5898" y2="1310.5781"/><line style="stroke: #A80036; stroke-width: 1.0;" x1="779.5" x2="779.5" y1="86.4883" y2="612.6348"/><line style="stroke: #A80036; stroke-width: 1.0; stroke-dasharray: 1.0,4.0;" x1="779.5" x2="779.5" y1="612.6348" y2="653.5898"/><line style="stroke: #A80036; stroke-width: 1.0;" x1="779.5" x2="779.5" y1="653.5898" y2="1310.5781"/><line style="stroke: #A80036; stroke-width: 1.0;" x1="1060.5" x2="1060.5" y1="204.0313" y2="612.6348"/><line style="stroke: #A80036; stroke-width: 1.0; stroke-dasharray: 1.0,4.0;" x1="1060.5" x2="1060.5" y1="612.6348" y2="653.5898"/><line style="stroke: #A80036; stroke-width: 1.0;" x1="1060.5" x2="1060.5" y1="653.5898" y2="1310.5781"/><line style="stroke: #A80036; stroke-width: 1.0;" x1="1368.5" x2="1368.5" y1="249.5195" y2="612.6348"/><line style="stroke: #A80036; stroke-width: 1.0; stroke-dasharray: 1.0,4.0;" x1="1368.5" x2="1368.5" y1="612.6348" y2="653.5898"/><line style="stroke: #A80036; stroke-width: 1.0;" x1="1368.5" x2="1368.5" y1="653.5898" y2="1310.5781"/><line style="stroke: #A80036; stroke-width: 1.0;" x1="1555.5" x2="1555.5" y1="735.6445" y2="1310.5781"/><text fill="#000000" font-family="sans-serif" font-size="14" lengthAdjust="spacingAndGlyphs" text-decoration="underline" textLength="31" x="33" y="83.5352">User</text><line style="stroke: #000000; stroke-width: 1.0;" x1="33" x2="64" y1="85.5352" y2="85.5352"/><ellipse cx="51.5" cy="13" fill="#FEFECE" filter="url(#f1plcdq0ruqnep)" rx="8" ry="8" style="stroke: #A80036; stroke-width: 2.0;"/><path d="M51.5,21 L51.5,48 M38.5,29 L64.5,29 M51.5,48 L38.5,63 M51.5,48 L64.5,63 " fill="none" filter="url(#f1plcdq0ruqnep)" style="stroke: #A80036; stroke-width: 2.0;"/><rect fill="#FEFECE" filter="url(#f1plcdq0ruqnep)" height="30.4883" style="stroke: #A80036; stroke-width: 1.5;" width="175" x="233" y="51"/><text fill="#000000" font-family="sans-serif" font-size="14" lengthAdjust="spacingAndGlyphs" text-decoration="underline" textLength="161" x="240" y="71.5352">:CreateConcertVSSPage</text><line style="stroke: #000000; stroke-width: 1.0;" x1="240" x2="401" y1="73.5352" y2="73.5352"/><rect fill="#FEFECE" filter="url(#f1plcdq0ruqnep)" height="30.4883" style="stroke: #A80036; stroke-width: 1.5;" width="184" x="685.5" y="51"/><text fill="#000000" font-family="sans-serif" font-size="14" lengthAdjust="spacingAndGlyphs" text-decoration="underline" textLength="170" x="692.5" y="71.5352">:LocalSoundSpaceLibrary</text><line style="stroke: #000000; stroke-width: 1.0;" x1="692.5" x2="862.5" y1="73.5352" y2="73.5352"/><polygon fill="#A80036" points="310.5,113.4883,320.5,117.4883,310.5,121.4883,314.5,117.4883" style="stroke: #A80036; stroke-width: 1.0;"/><line style="stroke: #A80036; stroke-width: 1.0;" x1="3" x2="316.5" y1="117.4883" y2="117.4883"/><text fill="#000000" font-family="sans-serif" font-size="13" lengthAdjust="spacingAndGlyphs" textLength="78" x="10" y="113.0566">&lt;&lt;create&gt;&gt;</text><polygon fill="#A80036" points="465.5,142.7988,475.5,146.7988,465.5,150.7988,469.5,146.7988" style="stroke: #A80036; stroke-width: 1.0;"/><line style="stroke: #A80036; stroke-width: 1.0;" x1="322.5" x2="471.5" y1="146.7988" y2="146.7988"/><text fill="#000000" font-family="sans-serif" font-size="13" lengthAdjust="spacingAndGlyphs" textLength="78" x="329.5" y="142.3672">&lt;&lt;create&gt;&gt;</text><rect fill="#FEFECE" filter="url(#f1plcdq0ruqnep)" height="30.4883" style="stroke: #A80036; stroke-width: 1.5;" width="194" x="477.5" y="125.7988"/><text fill="#000000" font-family="sans-serif" font-size="14" lengthAdjust="spacingAndGlyphs" text-decoration="underline" textLength="180" x="484.5" y="146.334">:CreateConcertVSSControl</text><line style="stroke: #000000; stroke-width: 1.0;" x1="484.5" x2="664.5" y1="148.334" y2="148.334"/><polygon fill="#A80036" points="871.5,188.2871,881.5,192.2871,871.5,196.2871,875.5,192.2871" style="stroke: #A80036; stroke-width: 1.0;"/><line style="stroke: #A80036; stroke-width: 1.0;" x1="322.5" x2="877.5" y1="192.2871" y2="192.2871"/><text fill="#000000" font-family="sans-serif" font-size="13" lengthAdjust="spacingAndGlyphs" textLength="78" x="329.5" y="187.8555">&lt;&lt;create&gt;&gt;</text><rect fill="#FEFECE" filter="url(#f1plcdq0ruqnep)" height="30.4883" style="stroke: #A80036; stroke-width: 1.5;" width="351" x="883.5" y="171.2871"/><text fill="#000000" font-family="sans-serif" font-size="14" lengthAdjust="spacingAndGlyphs" text-decoration="underline" textLength="337" x="890.5" y="191.8223">newSoundSpace:ConcertModeVirtualSoundSpace</text><line style="stroke: #000000; stroke-width: 1.0;" x1="890.5" x2="1227.5" y1="193.8223" y2="193.8223"/><polygon fill="#A80036" points="1236.5,233.7754,1246.5,237.7754,1236.5,241.7754,1240.5,237.7754" style="stroke: #A80036; stroke-width: 1.0;"/><line style="stroke: #A80036; stroke-width: 1.0;" x1="322.5" x2="1242.5" y1="237.7754" y2="237.7754"/><text fill="#000000" font-family="sans-serif" font-size="13" lengthAdjust="spacingAndGlyphs" textLength="78" x="329.5" y="233.3438">&lt;&lt;create&gt;&gt;</text><rect fill="#FEFECE" filter="url(#f1plcdq0ruqnep)" height="30.4883" style="stroke: #A80036; stroke-width: 1.5;" width="237" x="1248.5" y="216.7754"/><text fill="#000000" font-family="sans-serif" font-size="14" lengthAdjust="spacingAndGlyphs" text-decoration="underline" textLength="223" x="1255.5" y="237.3105">:ConcertSoundSourceViewModel</text><line style="stroke: #000000; stroke-width: 1.0;" x1="1255.5" x2="1478.5" y1="239.3105" y2="239.3105"/><polygon fill="#A80036" points="1357,279.2637,1367,283.2637,1357,287.2637,1361,283.2637" style="stroke: #A80036; stroke-width: 1.0;"/><line style="stroke: #A80036; stroke-width: 1.0;" x1="322.5" x2="1363" y1="283.2637" y2="283.2637"/><text fill="#000000" font-family="sans-serif" font-size="13" lengthAdjust="spacingAndGlyphs" textLength="435" x="329.5" y="278.832">displayConcertSoundSourceList(listOfLocalConcertSoundSource):void</text><path d="M13,298.5742 L87,298.5742 L87,305.5742 L77,315.5742 L13,315.5742 L13,298.5742 " fill="#EEEEEE" style="stroke: #000000; stroke-width: 1.0;"/><rect fill="none" height="701.2539" style="stroke: #000000; stroke-width: 2.0;" width="1609.5" x="13" y="298.5742"/><text fill="#000000" font-family="sans-serif" font-size="13" font-weight="bold" lengthAdjust="spacingAndGlyphs" textLength="29" x="28" y="312.1426">loop</text><text fill="#000000" font-family="sans-serif" font-size="11" font-weight="bold" lengthAdjust="spacingAndGlyphs" textLength="144" x="102" y="311.209">[add virual sound source]</text><path d="M23,322.8848 L85,322.8848 L85,329.8848 L75,339.8848 L23,339.8848 L23,322.8848 " fill="#EEEEEE" style="stroke: #000000; stroke-width: 1.0;"/><rect fill="none" height="330.7051" style="stroke: #000000; stroke-width: 2.0;" width="860.5" x="23" y="322.8848"/><text fill="#000000" font-family="sans-serif" font-size="13" font-weight="bold" lengthAdjust="spacingAndGlyphs" textLength="17" x="38" y="336.4531">alt</text><text fill="#000000" font-family="sans-serif" font-size="11" font-weight="bold" lengthAdjust="spacingAndGlyphs" textLength="101" x="100" y="335.5195">[add from library]</text><path d="M56,345.1953 L56,370.1953 L733,370.1953 L733,355.1953 L723,345.1953 L56,345.1953 " fill="#FBFB77" filter="url(#f1plcdq0ruqnep)" style="stroke: #A80036; stroke-width: 1.0;"/><path d="M723,345.1953 L723,355.1953 L733,355.1953 L723,345.1953 " fill="#FBFB77" style="stroke: #A80036; stroke-width: 1.0;"/><text fill="#000000" font-family="sans-serif" font-size="13" lengthAdjust="spacingAndGlyphs" textLength="656" x="62" y="362.7637">Notice that there are no shared SoundSources here, each time, only the SoundFragment object is reused.</text><polygon fill="#A80036" points="310.5,396.5059,320.5,400.5059,310.5,404.5059,314.5,400.5059" style="stroke: #A80036; stroke-width: 1.0;"/><line style="stroke: #A80036; stroke-width: 1.0;" x1="51.5" x2="316.5" y1="400.5059" y2="400.5059"/><text fill="#000000" font-family="sans-serif" font-size="13" lengthAdjust="spacingAndGlyphs" textLength="247" x="58.5" y="396.0742">onAddFromLibraryButtonClicked(): void</text><polygon fill="#A80036" points="767.5,425.8164,777.5,429.8164,767.5,433.8164,771.5,429.8164" style="stroke: #A80036; stroke-width: 1.0;"/><line style="stroke: #A80036; stroke-width: 1.0;" x1="322.5" x2="773.5" y1="429.8164" y2="429.8164"/><text fill="#000000" font-family="sans-serif" font-size="13" lengthAdjust="spacingAndGlyphs" textLength="158" x="329.5" y="425.3848">getLocalSoundFragments</text><polygon fill="#A80036" points="333.5,455.127,323.5,459.127,333.5,463.127,329.5,459.127" style="stroke: #A80036; stroke-width: 1.0;"/><line style="stroke: #A80036; stroke-width: 1.0; stroke-dasharray: 2.0,2.0;" x1="327.5" x2="778.5" y1="459.127" y2="459.127"/><text fill="#000000" font-family="sans-serif" font-size="13" lengthAdjust="spacingAndGlyphs" textLength="150" x="339.5" y="454.6953">filteredSoundFragments</text><line style="stroke: #A80036; stroke-width: 1.0; stroke-dasharray: 2.0,2.0;" x1="322.5" x2="364.5" y1="488.748" y2="488.748"/><line style="stroke: #A80036; stroke-width: 1.0; stroke-dasharray: 2.0,2.0;" x1="364.5" x2="364.5" y1="488.748" y2="501.748"/><line style="stroke: #A80036; stroke-width: 1.0; stroke-dasharray: 2.0,2.0;" x1="323.5" x2="364.5" y1="501.748" y2="501.748"/><polygon fill="#A80036" points="333.5,497.748,323.5,501.748,333.5,505.748,329.5,501.748" style="stroke: #A80036; stroke-width: 1.0;"/><text fill="#000000" font-family="sans-serif" font-size="13" lengthAdjust="spacingAndGlyphs" textLength="240" x="329.5" y="484.0059">displayAvailableLocalSoundFragments</text><polygon fill="#A80036" points="310.5,526.748,320.5,530.748,310.5,534.748,314.5,530.748" style="stroke: #A80036; stroke-width: 1.0;"/><line style="stroke: #A80036; stroke-width: 1.0;" x1="51.5" x2="316.5" y1="530.748" y2="530.748"/><text fill="#000000" font-family="sans-serif" font-size="13" lengthAdjust="spacingAndGlyphs" textLength="135" x="58.5" y="526.3164">selectSoundFragment</text><polygon fill="#A80036" points="564.5,556.0586,574.5,560.0586,564.5,564.0586,568.5,560.0586" style="stroke: #A80036; stroke-width: 1.0;"/><line style="stroke: #A80036; stroke-width: 1.0;" x1="322.5" x2="570.5" y1="560.0586" y2="560.0586"/><text fill="#000000" font-family="sans-serif" font-size="13" lengthAdjust="spacingAndGlyphs" textLength="121" x="329.5" y="555.627">addSoundFragment</text><line style="stroke: #000000; stroke-width: 1.0; stroke-dasharray: 2.0,2.0;" x1="23" x2="883.5" y1="569.3691" y2="569.3691"/><text fill="#000000" font-family="sans-serif" font-size="11" font-weight="bold" lengthAdjust="spacingAndGlyphs" textLength="83" x="28" y="580.0039">[add from file]</text><polygon fill="#A80036" points="310.5,600.3242,320.5,604.3242,310.5,608.3242,314.5,604.3242" style="stroke: #A80036; stroke-width: 1.0;"/><line style="stroke: #A80036; stroke-width: 1.0;" x1="51.5" x2="316.5" y1="604.3242" y2="604.3242"/><text fill="#000000" font-family="sans-serif" font-size="13" lengthAdjust="spacingAndGlyphs" textLength="226" x="58.5" y="599.8926">onAddFromFileButtonClicked(): void</text><text fill="#000000" font-family="sans-serif" font-size="11" lengthAdjust="spacingAndGlyphs" textLength="500" x="553.75" y="637.2695">somehow CreateMapVSSControl got the new SoundFragment # specify during implementation</text><line style="stroke: #A80036; stroke-width: 1.0;" x1="51.5" x2="93.5" y1="681.9004" y2="681.9004"/><line style="stroke: #A80036; stroke-width: 1.0;" x1="93.5" x2="93.5" y1="681.9004" y2="694.9004"/><line style="stroke: #A80036; stroke-width: 1.0;" x1="52.5" x2="93.5" y1="694.9004" y2="694.9004"/><polygon fill="#A80036" points="62.5,690.9004,52.5,694.9004,62.5,698.9004,58.5,694.9004" style="stroke: #A80036; stroke-width: 1.0;"/><text fill="#000000" font-family="sans-serif" font-size="13" lengthAdjust="spacingAndGlyphs" textLength="80" x="58.5" y="677.1582">wakeUp(self)</text><polygon fill="#A80036" points="1487.5,719.9004,1497.5,723.9004,1487.5,727.9004,1491.5,723.9004" style="stroke: #A80036; stroke-width: 1.0;"/><line style="stroke: #A80036; stroke-width: 1.0;" x1="576.5" x2="1493.5" y1="723.9004" y2="723.9004"/><text fill="#000000" font-family="sans-serif" font-size="13" lengthAdjust="spacingAndGlyphs" textLength="78" x="583.5" y="719.4688">&lt;&lt;create&gt;&gt;</text><rect fill="#FEFECE" filter="url(#f1plcdq0ruqnep)" height="30.4883" style="stroke: #A80036; stroke-width: 1.5;" width="109" x="1499.5" y="702.9004"/><text fill="#000000" font-family="sans-serif" font-size="14" lengthAdjust="spacingAndGlyphs" text-decoration="underline" textLength="95" x="1506.5" y="723.4355">:SoundSource</text><line style="stroke: #000000; stroke-width: 1.0;" x1="1506.5" x2="1601.5" y1="725.4355" y2="725.4355"/><polygon fill="#A80036" points="1544,765.3887,1554,769.3887,1544,773.3887,1548,769.3887" style="stroke: #A80036; stroke-width: 1.0;"/><line style="stroke: #A80036; stroke-width: 1.0;" x1="576.5" x2="1550" y1="769.3887" y2="769.3887"/><text fill="#000000" font-family="sans-serif" font-size="13" lengthAdjust="spacingAndGlyphs" textLength="117" x="583.5" y="764.957">setSoundFragment</text><path d="M23,784.6992 L85,784.6992 L85,791.6992 L75,801.6992 L23,801.6992 L23,784.6992 " fill="#EEEEEE" style="stroke: #000000; stroke-width: 1.0;"/><rect fill="none" height="208.1289" style="stroke: #000000; stroke-width: 2.0;" width="1225.5" x="23" y="784.6992"/><text fill="#000000" font-family="sans-serif" font-size="13" font-weight="bold" lengthAdjust="spacingAndGlyphs" textLength="17" x="38" y="798.2676">alt</text><text fill="#000000" font-family="sans-serif" font-size="11" font-weight="bold" lengthAdjust="spacingAndGlyphs" textLength="53" x="100" y="797.334">[confirm]</text><polygon fill="#A80036" points="310.5,819.0098,320.5,823.0098,310.5,827.0098,314.5,823.0098" style="stroke: #A80036; stroke-width: 1.0;"/><line style="stroke: #A80036; stroke-width: 1.0;" x1="51.5" x2="316.5" y1="823.0098" y2="823.0098"/><text fill="#000000" font-family="sans-serif" font-size="13" lengthAdjust="spacingAndGlyphs" textLength="103" x="58.5" y="818.5781">confirmAddition</text><polygon fill="#A80036" points="564.5,848.3203,574.5,852.3203,564.5,856.3203,568.5,852.3203" style="stroke: #A80036; stroke-width: 1.0;"/><line style="stroke: #A80036; stroke-width: 1.0;" x1="322.5" x2="570.5" y1="852.3203" y2="852.3203"/><text fill="#000000" font-family="sans-serif" font-size="13" lengthAdjust="spacingAndGlyphs" textLength="103" x="329.5" y="847.8887">confirmAddition</text><polygon fill="#A80036" points="1049,877.6309,1059,881.6309,1049,885.6309,1053,881.6309" style="stroke: #A80036; stroke-width: 1.0;"/><line style="stroke: #A80036; stroke-width: 1.0;" x1="576.5" x2="1055" y1="881.6309" y2="881.6309"/><text fill="#000000" font-family="sans-serif" font-size="13" lengthAdjust="spacingAndGlyphs" textLength="193" x="583.5" y="877.1992">addSoundSource(soundSource)</text><line style="stroke: #000000; stroke-width: 1.0; stroke-dasharray: 2.0,2.0;" x1="23" x2="1248.5" y1="890.9414" y2="890.9414"/><text fill="#000000" font-family="sans-serif" font-size="11" font-weight="bold" lengthAdjust="spacingAndGlyphs" textLength="43" x="28" y="901.5762">[cancel]</text><polygon fill="#A80036" points="310.5,921.8965,320.5,925.8965,310.5,929.8965,314.5,925.8965" style="stroke: #A80036; stroke-width: 1.0;"/><line style="stroke: #A80036; stroke-width: 1.0;" x1="51.5" x2="316.5" y1="925.8965" y2="925.8965"/><text fill="#000000" font-family="sans-serif" font-size="13" lengthAdjust="spacingAndGlyphs" textLength="94" x="58.5" y="921.4648">cancelAddition</text><polygon fill="#A80036" points="564.5,951.207,574.5,955.207,564.5,959.207,568.5,955.207" style="stroke: #A80036; stroke-width: 1.0;"/><line style="stroke: #A80036; stroke-width: 1.0;" x1="322.5" x2="570.5" y1="955.207" y2="955.207"/><text fill="#000000" font-family="sans-serif" font-size="13" lengthAdjust="spacingAndGlyphs" textLength="103" x="329.5" y="950.7754">confirmAddition</text><polygon fill="#A80036" points="1049,980.5176,1059,984.5176,1049,988.5176,1053,984.5176" style="stroke: #A80036; stroke-width: 1.0;"/><line style="stroke: #A80036; stroke-width: 1.0;" x1="576.5" x2="1055" y1="984.5176" y2="984.5176"/><text fill="#000000" font-family="sans-serif" font-size="13" lengthAdjust="spacingAndGlyphs" textLength="87" x="583.5" y="980.0859">&lt;&lt;destroy&gt;&gt;</text><line style="stroke: #A80036; stroke-width: 2.0;" x1="1052" x2="1070" y1="975.5176" y2="993.5176"/><line style="stroke: #A80036; stroke-width: 2.0;" x1="1052" x2="1070" y1="993.5176" y2="975.5176"/><polygon fill="#A80036" points="310.5,1023.8281,320.5,1027.8281,310.5,1031.8281,314.5,1027.8281" style="stroke: #A80036; stroke-width: 1.0;"/><line style="stroke: #A80036; stroke-width: 1.0;" x1="51.5" x2="316.5" y1="1027.8281" y2="1027.8281"/><text fill="#000000" font-family="sans-serif" font-size="13" lengthAdjust="spacingAndGlyphs" textLength="175" x="58.5" y="1023.3965">setVSSNameAndDescription</text><polygon fill="#A80036" points="1049,1053.1387,1059,1057.1387,1049,1061.1387,1053,1057.1387" style="stroke: #A80036; stroke-width: 1.0;"/><line style="stroke: #A80036; stroke-width: 1.0;" x1="322.5" x2="1055" y1="1057.1387" y2="1057.1387"/><text fill="#000000" font-family="sans-serif" font-size="13" lengthAdjust="spacingAndGlyphs" textLength="175" x="329.5" y="1052.707">setVSSNameAndDescription</text><polygon fill="#A80036" points="1357,1082.4492,1367,1086.4492,1357,1090.4492,1361,1086.4492" style="stroke: #A80036; stroke-width: 1.0;"/><line style="stroke: #A80036; stroke-width: 1.0;" x1="322.5" x2="1363" y1="1086.4492" y2="1086.4492"/><text fill="#000000" font-family="sans-serif" font-size="13" lengthAdjust="spacingAndGlyphs" textLength="435" x="329.5" y="1082.0176">displayConcertSoundSourceList(listOfLocalConcertSoundSource):void</text><path d="M23,1101.7598 L85,1101.7598 L85,1108.7598 L75,1118.7598 L23,1118.7598 L23,1101.7598 " fill="#EEEEEE" style="stroke: #000000; stroke-width: 1.0;"/><rect fill="none" height="162.5078" style="stroke: #000000; stroke-width: 2.0;" width="860.5" x="23" y="1101.7598"/><text fill="#000000" font-family="sans-serif" font-size="13" font-weight="bold" lengthAdjust="spacingAndGlyphs" textLength="17" x="38" y="1115.3281">alt</text><text fill="#000000" font-family="sans-serif" font-size="11" font-weight="bold" lengthAdjust="spacingAndGlyphs" textLength="53" x="100" y="1114.3945">[confirm]</text><polygon fill="#A80036" points="310.5,1136.0703,320.5,1140.0703,310.5,1144.0703,314.5,1140.0703" style="stroke: #A80036; stroke-width: 1.0;"/><line style="stroke: #A80036; stroke-width: 1.0;" x1="51.5" x2="316.5" y1="1140.0703" y2="1140.0703"/><text fill="#000000" font-family="sans-serif" font-size="13" lengthAdjust="spacingAndGlyphs" textLength="198" x="58.5" y="1135.6387">onConfirmButtonClicked(): void</text><line style="stroke: #A80036; stroke-width: 1.0;" x1="322.5" x2="364.5" y1="1169.6914" y2="1169.6914"/><line style="stroke: #A80036; stroke-width: 1.0;" x1="364.5" x2="364.5" y1="1169.6914" y2="1182.6914"/><line style="stroke: #A80036; stroke-width: 1.0;" x1="323.5" x2="364.5" y1="1182.6914" y2="1182.6914"/><polygon fill="#A80036" points="333.5,1178.6914,323.5,1182.6914,333.5,1186.6914,329.5,1182.6914" style="stroke: #A80036; stroke-width: 1.0;"/><text fill="#000000" font-family="sans-serif" font-size="13" lengthAdjust="spacingAndGlyphs" textLength="128" x="329.5" y="1164.9492">comfirmVSSCreation</text><polygon fill="#A80036" points="767.5,1207.6914,777.5,1211.6914,767.5,1215.6914,771.5,1211.6914" style="stroke: #A80036; stroke-width: 1.0;"/><line style="stroke: #A80036; stroke-width: 1.0;" x1="322.5" x2="773.5" y1="1211.6914" y2="1211.6914"/><text fill="#000000" font-family="sans-serif" font-size="13" lengthAdjust="spacingAndGlyphs" textLength="206" x="329.5" y="1207.2598">addSoundSpace(newSoundSpace)</text><line style="stroke: #000000; stroke-width: 1.0; stroke-dasharray: 2.0,2.0;" x1="23" x2="883.5" y1="1221.002" y2="1221.002"/><text fill="#000000" font-family="sans-serif" font-size="11" font-weight="bold" lengthAdjust="spacingAndGlyphs" textLength="43" x="28" y="1231.6367">[cancel]</text><polygon fill="#A80036" points="310.5,1251.957,320.5,1255.957,310.5,1259.957,314.5,1255.957" style="stroke: #A80036; stroke-width: 1.0;"/><line style="stroke: #A80036; stroke-width: 1.0;" x1="51.5" x2="316.5" y1="1255.957" y2="1255.957"/><text fill="#000000" font-family="sans-serif" font-size="13" lengthAdjust="spacingAndGlyphs" textLength="189" x="58.5" y="1251.5254">onCancelButtonClicked(): void</text><polygon fill="#A80036" points="333.5,1288.2676,323.5,1292.2676,333.5,1296.2676,329.5,1292.2676" style="stroke: #A80036; stroke-width: 1.0;"/><line style="stroke: #A80036; stroke-width: 1.0;" x1="327.5" x2="575.5" y1="1292.2676" y2="1292.2676"/><text fill="#000000" font-family="sans-serif" font-size="13" lengthAdjust="spacingAndGlyphs" textLength="87" x="339.5" y="1287.8359">&lt;&lt;destroy&gt;&gt;</text><line style="stroke: #A80036; stroke-width: 2.0;" x1="313.5" x2="331.5" y1="1283.2676" y2="1301.2676"/><line style="stroke: #A80036; stroke-width: 2.0;" x1="313.5" x2="331.5" y1="1301.2676" y2="1283.2676"/><line style="stroke: #A80036; stroke-width: 2.0;" x1="567.5" x2="585.5" y1="1283.2676" y2="1301.2676"/><line style="stroke: #A80036; stroke-width: 2.0;" x1="567.5" x2="585.5" y1="1301.2676" y2="1283.2676"/><!--
@startuml Diagrams/CreateConcertModeVSS
hide footbox
skinparam sequenceParticipant underline


actor User as user
participant ":CreateConcertVSSPage" as createboundary
participant ":CreateConcertVSSControl" as createcontrol
participant ":LocalSoundSpaceLibrary" as library
participant "newSoundSpace:ConcertModeVirtualSoundSpace" as newspace
participant ":ConcertSoundSourceViewModel" as cssvm

create createboundary
-> createboundary: <<create>>
create createcontrol
createboundary -> createcontrol: <<create>>
create newspace
createboundary -> newspace: <<create>>
create cssvm
createboundary -> cssvm: <<create>>
createboundary -> cssvm: displayConcertSoundSourceList(listOfLocalConcertSoundSource):void

loop add virual sound source
    alt add from library
        note right of user: Notice that there are no shared SoundSources here, each time, only the SoundFragment object is reused.
        user -> createboundary: onAddFromLibraryButtonClicked(): void
        createboundary -> library: getLocalSoundFragments
        library - -> createboundary: filteredSoundFragments
        createboundary - -> createboundary: displayAvailableLocalSoundFragments
        user -> createboundary: selectSoundFragment
        createboundary -> createcontrol: addSoundFragment
    else add from file
        user -> createboundary: onAddFromFileButtonClicked(): void
        ...somehow CreateMapVSSControl got the new SoundFragment # specify during implementation...
    end


    participant ":SoundSource" as source
    user -> user: wakeUp(self)
    create source
    createcontrol -> source: <<create>>
    createcontrol -> source: setSoundFragment
    alt confirm
        user -> createboundary: confirmAddition
        createboundary -> createcontrol: confirmAddition
        createcontrol -> newspace: addSoundSource(soundSource)
    else cancel
        user -> createboundary: cancelAddition
        createboundary -> createcontrol: confirmAddition
        createcontrol -> newspace: <<destroy>>
        destroy newspace
    end

end
user -> createboundary: setVSSNameAndDescription
createboundary -> newspace: setVSSNameAndDescription
createboundary -> cssvm: displayConcertSoundSourceList(listOfLocalConcertSoundSource):void
alt confirm
    user -> createboundary: onConfirmButtonClicked(): void
    createboundary -> createboundary: comfirmVSSCreation
    createboundary -> library: addSoundSpace(newSoundSpace)
else cancel
    user -> createboundary: onCancelButtonClicked(): void
end
createcontrol -> createboundary: <<destroy>>
destroy createboundary
destroy createcontrol
@enduml

PlantUML version 1.2018.01(Mon Jan 29 02:08:22 CST 2018)
(GPL source distribution)
Java Runtime: Java(TM) SE Runtime Environment
JVM: Java HotSpot(TM) 64-Bit Server VM
Java Version: 9+181
Operating System: Mac OS X
OS Version: 10.12.6
Default Encoding: UTF-8
Language: zh
Country: CN
--></g></svg>