<?xml version="1.0" encoding="UTF-8" standalone="no"?><svg xmlns="http://www.w3.org/2000/svg" xmlns:xlink="http://www.w3.org/1999/xlink" contentScriptType="application/ecmascript" contentStyleType="text/css" height="63px" preserveAspectRatio="none" style="width:181px;height:63px;" version="1.1" viewBox="0 0 181 63"
    width="181px" zoomAndPan="magnify"><defs/><g><text fill="#000000" font-family="sans-serif" font-size="12" lengthAdjust="spacingAndGlyphs" textLength="131" x="6" y="17.6016">Please Choose A Mode</text><line style="stroke: #AAAAAA; stroke-width: 1.0;" x1="6" x2="174" y1="24.6328" y2="24.6328"/><line style="stroke: #AAAAAA; stroke-width: 1.0;" x1="6" x2="174" y1="26.6328" y2="26.6328"/><rect fill="#EEEEEE" height="18.1328" rx="5" ry="5" style="stroke: #000000; stroke-width: 2.5;" width="61" x="9.5" y="33.6328"/><text fill="#000000" font-family="sans-serif" font-size="12" lengthAdjust="spacingAndGlyphs" textLength="57" x="11.5" y="47.2344">MapMode</text><rect fill="#EEEEEE" height="18.1328" rx="5" ry="5" style="stroke: #000000; stroke-width: 2.5;" width="92" x="77.5" y="33.6328"/><text fill="#000000" font-family="sans-serif" font-size="12" lengthAdjust="spacingAndGlyphs" textLength="76" x="85.5" y="47.2344">ConcertMode</text><line style="stroke: #000000; stroke-width: 1.0;" x1="5" x2="174" y1="5" y2="5"/><line style="stroke: #000000; stroke-width: 1.0;" x1="5" x2="174" y1="56.2656" y2="56.2656"/><line style="stroke: #000000; stroke-width: 1.0;" x1="5" x2="5" y1="5" y2="21.1328"/><line style="stroke: #000000; stroke-width: 1.0;" x1="174" x2="174" y1="21.1328" y2="29.1328"/><line style="stroke: #000000; stroke-width: 1.0;" x1="174" x2="174" y1="5" y2="21.1328"/><line style="stroke: #000000; stroke-width: 1.0;" x1="5" x2="5" y1="29.1328" y2="56.2656"/><line style="stroke: #000000; stroke-width: 1.0;" x1="5" x2="5" y1="21.1328" y2="29.1328"/><line style="stroke: #000000; stroke-width: 1.0;" x1="174" x2="174" y1="29.1328" y2="56.2656"/></g></svg>
