<?xml version="1.0" encoding="UTF-8" standalone="no"?><svg xmlns="http://www.w3.org/2000/svg" xmlns:xlink="http://www.w3.org/1999/xlink" contentScriptType="application/ecmascript" contentStyleType="text/css" height="127px" preserveAspectRatio="none" style="width:238px;height:127px;" version="1.1" viewBox="0 0 238 127"
    width="238px" zoomAndPan="magnify"><defs/><g><text fill="#000000" font-family="sans-serif" font-size="12" lengthAdjust="spacingAndGlyphs" textLength="127" x="6" y="17.6016">Create Map Mode VSS</text><line style="stroke: #AAAAAA; stroke-width: 1.0;" x1="6" x2="231" y1="24.6328" y2="24.6328"/><line style="stroke: #AAAAAA; stroke-width: 1.0;" x1="6" x2="231" y1="26.6328" y2="26.6328"/><text fill="#000000" font-family="sans-serif" font-size="12" lengthAdjust="spacingAndGlyphs" textLength="97" x="8" y="43.7344">SoundSource1.ss</text><text fill="#000000" font-family="sans-serif" font-size="12" lengthAdjust="spacingAndGlyphs" textLength="97" x="8" y="61.8672">SoundSource2.ss</text><rect fill="#EEEEEE" height="18.1328" rx="5" ry="5" style="stroke: #000000; stroke-width: 2.5;" width="116" x="10.5" y="70.8984"/><text fill="#000000" font-family="sans-serif" font-size="12" lengthAdjust="spacingAndGlyphs" textLength="93" x="22" y="84.5">AddFromLibrary</text><rect fill="#EEEEEE" height="18.1328" rx="5" ry="5" style="stroke: #000000; stroke-width: 2.5;" width="92" x="133.5" y="70.8984"/><text fill="#000000" font-family="sans-serif" font-size="12" lengthAdjust="spacingAndGlyphs" textLength="72" x="143.5" y="84.5">AddFromFile</text><rect fill="#EEEEEE" height="18.1328" rx="5" ry="5" style="stroke: #000000; stroke-width: 2.5;" width="60" x="10.5" y="98.0313"/><text fill="#000000" font-family="sans-serif" font-size="12" lengthAdjust="spacingAndGlyphs" textLength="45" x="18" y="111.6328">Confirm</text><rect fill="#EEEEEE" height="18.1328" rx="5" ry="5" style="stroke: #000000; stroke-width: 2.5;" width="52" x="77.5" y="98.0313"/><text fill="#000000" font-family="sans-serif" font-size="12" lengthAdjust="spacingAndGlyphs" textLength="38" x="84.5" y="111.6328">Cancel</text><line style="stroke: #000000; stroke-width: 1.0;" x1="6" x2="230" y1="30.1328" y2="30.1328"/><line style="stroke: #000000; stroke-width: 1.0;" x1="6" x2="230" y1="120.6641" y2="120.6641"/><line style="stroke: #000000; stroke-width: 1.0;" x1="6" x2="6" y1="30.1328" y2="48.2656"/><line style="stroke: #000000; stroke-width: 1.0;" x1="230" x2="230" y1="48.2656" y2="66.3984"/><line style="stroke: #000000; stroke-width: 1.0;" x1="230" x2="230" y1="30.1328" y2="48.2656"/><line style="stroke: #000000; stroke-width: 1.0;" x1="6" x2="6" y1="93.5313" y2="120.6641"/><line style="stroke: #000000; stroke-width: 1.0;" x1="6" x2="6" y1="66.3984" y2="93.5313"/><line style="stroke: #000000; stroke-width: 1.0;" x1="230" x2="230" y1="93.5313" y2="120.6641"/><line style="stroke: #000000; stroke-width: 1.0;" x1="6" x2="6" y1="48.2656" y2="66.3984"/><line style="stroke: #000000; stroke-width: 1.0;" x1="230" x2="230" y1="66.3984" y2="93.5313"/></g></svg>
