<?xml version="1.0" encoding="UTF-8" standalone="no"?><svg xmlns="http://www.w3.org/2000/svg" xmlns:xlink="http://www.w3.org/1999/xlink" contentScriptType="application/ecmascript" contentStyleType="text/css" height="164px" preserveAspectRatio="none" style="width:238px;height:164px;" version="1.1" viewBox="0 0 238 164"
    width="238px" zoomAndPan="magnify"><defs/><g><text fill="#000000" font-family="sans-serif" font-size="12" lengthAdjust="spacingAndGlyphs" textLength="127" x="6" y="17.6016">Create Map Mode VSS</text><line style="stroke: #AAAAAA; stroke-width: 1.0;" x1="6" x2="231" y1="24.6328" y2="24.6328"/><line style="stroke: #AAAAAA; stroke-width: 1.0;" x1="6" x2="231" y1="26.6328" y2="26.6328"/><text fill="#000000" font-family="sans-serif" font-size="12" lengthAdjust="spacingAndGlyphs" textLength="97" x="8" y="43.7344">SoundSource1.ss</text><line style="stroke: #000000; stroke-width: 1.0;" x1="7" x2="106" y1="31.1328" y2="31.1328"/><line style="stroke: #000000; stroke-width: 1.0;" x1="7" x2="106" y1="47.2656" y2="47.2656"/><line style="stroke: #000000; stroke-width: 1.0;" x1="7" x2="7" y1="31.1328" y2="47.2656"/><line style="stroke: #000000; stroke-width: 1.0;" x1="106" x2="106" y1="31.1328" y2="47.2656"/><text fill="#000000" font-family="sans-serif" font-size="12" lengthAdjust="spacingAndGlyphs" textLength="97" x="8" y="61.8672">SoundSource2.ss</text><line style="stroke: #000000; stroke-width: 1.0;" x1="7" x2="106" y1="49.2656" y2="49.2656"/><line style="stroke: #000000; stroke-width: 1.0;" x1="7" x2="106" y1="65.3984" y2="65.3984"/><line style="stroke: #000000; stroke-width: 1.0;" x1="7" x2="7" y1="49.2656" y2="65.3984"/><line style="stroke: #000000; stroke-width: 1.0;" x1="106" x2="106" y1="49.2656" y2="65.3984"/><rect fill="#EEEEEE" height="18.1328" rx="5" ry="5" style="stroke: #000000; stroke-width: 2.5;" width="116" x="10.5" y="70.8984"/><text fill="#000000" font-family="sans-serif" font-size="12" lengthAdjust="spacingAndGlyphs" textLength="93" x="22" y="84.5">AddFromLibrary</text><rect fill="#EEEEEE" height="18.1328" rx="5" ry="5" style="stroke: #000000; stroke-width: 2.5;" width="92" x="133.5" y="70.8984"/><text fill="#000000" font-family="sans-serif" font-size="12" lengthAdjust="spacingAndGlyphs" textLength="72" x="143.5" y="84.5">AddFromFile</text><text fill="#000000" font-family="sans-serif" font-size="12" lengthAdjust="spacingAndGlyphs" textLength="54" x="9" y="108.1328">VSSName</text><text fill="#000000" font-family="sans-serif" font-size="12" lengthAdjust="spacingAndGlyphs" textLength="34" x="68" y="108.1328">Name</text><line style="stroke: #000000; stroke-width: 1.0;" x1="66" x2="103" y1="110.6641" y2="110.6641"/><line style="stroke: #000000; stroke-width: 1.0;" x1="66" x2="66" y1="107.6641" y2="109.6641"/><line style="stroke: #000000; stroke-width: 1.0;" x1="103" x2="103" y1="107.6641" y2="109.6641"/><text fill="#000000" font-family="sans-serif" font-size="12" lengthAdjust="spacingAndGlyphs" textLength="85" x="9" y="128.2656">VSSDescription</text><text fill="#000000" font-family="sans-serif" font-size="12" lengthAdjust="spacingAndGlyphs" textLength="65" x="99" y="128.2656">Description</text><line style="stroke: #000000; stroke-width: 1.0;" x1="97" x2="188" y1="130.7969" y2="130.7969"/><line style="stroke: #000000; stroke-width: 1.0;" x1="97" x2="97" y1="127.7969" y2="129.7969"/><line style="stroke: #000000; stroke-width: 1.0;" x1="188" x2="188" y1="127.7969" y2="129.7969"/><line style="stroke: #000000; stroke-width: 1.0;" x1="7" x2="192" y1="94.5313" y2="94.5313"/><line style="stroke: #000000; stroke-width: 1.0;" x1="7" x2="192" y1="134.7969" y2="134.7969"/><line style="stroke: #000000; stroke-width: 1.0;" x1="7" x2="7" y1="94.5313" y2="114.6641"/><line style="stroke: #000000; stroke-width: 1.0;" x1="192" x2="192" y1="114.6641" y2="134.7969"/><line style="stroke: #000000; stroke-width: 1.0;" x1="192" x2="192" y1="94.5313" y2="114.6641"/><line style="stroke: #000000; stroke-width: 1.0;" x1="7" x2="7" y1="114.6641" y2="134.7969"/><rect fill="#EEEEEE" height="18.1328" rx="5" ry="5" style="stroke: #000000; stroke-width: 2.5;" width="60" x="10.5" y="140.2969"/><text fill="#000000" font-family="sans-serif" font-size="12" lengthAdjust="spacingAndGlyphs" textLength="45" x="18" y="153.8984">Confirm</text><rect fill="#EEEEEE" height="18.1328" rx="5" ry="5" style="stroke: #000000; stroke-width: 2.5;" width="52" x="77.5" y="140.2969"/><text fill="#000000" font-family="sans-serif" font-size="12" lengthAdjust="spacingAndGlyphs" textLength="38" x="84.5" y="153.8984">Cancel</text></g></svg>
