<?xml version="1.0" encoding="UTF-8" standalone="no"?><svg xmlns="http://www.w3.org/2000/svg" xmlns:xlink="http://www.w3.org/1999/xlink" contentScriptType="application/ecmascript" contentStyleType="text/css" height="1195px" preserveAspectRatio="none" style="width:1107px;height:1195px;" version="1.1" viewBox="0 0 1107 1195"
    width="1107px" zoomAndPan="magnify"><defs><filter height="300%" id="f1qf281tcgad19" width="300%" x="-1" y="-1"><feGaussianBlur result="blurOut" stdDeviation="2.0"/><feColorMatrix in="blurOut" result="blurOut2" type="matrix" values="0 0 0 0 0 0 0 0 0 0 0 0 0 0 0 0 0 0 .4 0"/><feOffset dx="4.0" dy="4.0" in="blurOut2" result="blurOut3"/><feBlend in="SourceGraphic" in2="blurOut3" mode="normal"/></filter></defs><g><rect fill="#FEFECE" filter="url(#f1qf281tcgad19)" height="30.4883" style="stroke: #A80036; stroke-width: 1.5;" width="351" x="608.5" y="125.7988"/><text fill="#000000" font-family="sans-serif" font-size="14" lengthAdjust="spacingAndGlyphs" text-decoration="underline" textLength="337" x="615.5" y="146.334">newSoundSpace:ConcertModeVirtualSoundSpace</text><line style="stroke: #000000; stroke-width: 1.0;" x1="615.5" x2="952.5" y1="148.334" y2="148.334"/><rect fill="#FFFFFF" filter="url(#f1qf281tcgad19)" height="740.2539" style="stroke: #000000; stroke-width: 2.0;" width="1083.5" x="13" y="178.2871"/><rect fill="#FFFFFF" filter="url(#f1qf281tcgad19)" height="343.7051" style="stroke: #000000; stroke-width: 2.0;" width="724" x="23" y="202.5977"/><rect fill="#FFFFFF" height="85.2207" style="stroke: none; stroke-width: 1.0;" width="724" x="23" y="461.082"/><rect fill="#FEFECE" filter="url(#f1qf281tcgad19)" height="30.4883" style="stroke: #A80036; stroke-width: 1.5;" width="109" x="973.5" y="595.6133"/><text fill="#000000" font-family="sans-serif" font-size="14" lengthAdjust="spacingAndGlyphs" text-decoration="underline" textLength="95" x="980.5" y="616.1484">:SoundSource</text><line style="stroke: #000000; stroke-width: 1.0;" x1="980.5" x2="1075.5" y1="618.1484" y2="618.1484"/><rect fill="#FFFFFF" filter="url(#f1qf281tcgad19)" height="234.1289" style="stroke: #000000; stroke-width: 2.0;" width="950.5" x="23" y="677.4121"/><rect fill="#FFFFFF" height="115.8867" style="stroke: none; stroke-width: 1.0;" width="950.5" x="23" y="795.6543"/><rect fill="#FFFFFF" filter="url(#f1qf281tcgad19)" height="133.1973" style="stroke: #000000; stroke-width: 2.0;" width="585.5" x="23" y="991.1621"/><rect fill="#FFFFFF" height="14.9551" style="stroke: none; stroke-width: 1.0;" width="585.5" x="23" y="1109.4043"/><line style="stroke: #A80036; stroke-width: 1.0;" x1="51" x2="51" y1="86.4883" y2="505.3477"/><line style="stroke: #A80036; stroke-width: 1.0; stroke-dasharray: 1.0,4.0;" x1="51" x2="51" y1="505.3477" y2="546.3027"/><line style="stroke: #A80036; stroke-width: 1.0;" x1="51" x2="51" y1="546.3027" y2="1183.6699"/><line style="stroke: #A80036; stroke-width: 1.0;" x1="250.5" x2="250.5" y1="86.4883" y2="505.3477"/><line style="stroke: #A80036; stroke-width: 1.0; stroke-dasharray: 1.0,4.0;" x1="250.5" x2="250.5" y1="505.3477" y2="546.3027"/><line style="stroke: #A80036; stroke-width: 1.0;" x1="250.5" x2="250.5" y1="546.3027" y2="1183.6699"/><line style="stroke: #A80036; stroke-width: 1.0;" x1="504.5" x2="504.5" y1="86.4883" y2="505.3477"/><line style="stroke: #A80036; stroke-width: 1.0; stroke-dasharray: 1.0,4.0;" x1="504.5" x2="504.5" y1="505.3477" y2="546.3027"/><line style="stroke: #A80036; stroke-width: 1.0;" x1="504.5" x2="504.5" y1="546.3027" y2="1183.6699"/><line style="stroke: #A80036; stroke-width: 1.0;" x1="785.5" x2="785.5" y1="158.543" y2="505.3477"/><line style="stroke: #A80036; stroke-width: 1.0; stroke-dasharray: 1.0,4.0;" x1="785.5" x2="785.5" y1="505.3477" y2="546.3027"/><line style="stroke: #A80036; stroke-width: 1.0;" x1="785.5" x2="785.5" y1="546.3027" y2="1183.6699"/><line style="stroke: #A80036; stroke-width: 1.0;" x1="1029.5" x2="1029.5" y1="628.3574" y2="1183.6699"/><text fill="#000000" font-family="sans-serif" font-size="14" lengthAdjust="spacingAndGlyphs" text-decoration="underline" textLength="31" x="33" y="83.5352">User</text><line style="stroke: #000000; stroke-width: 1.0;" x1="33" x2="64" y1="85.5352" y2="85.5352"/><ellipse cx="51.5" cy="13" fill="#FEFECE" filter="url(#f1qf281tcgad19)" rx="8" ry="8" style="stroke: #A80036; stroke-width: 2.0;"/><path d="M51.5,21 L51.5,48 M38.5,29 L64.5,29 M51.5,48 L38.5,63 M51.5,48 L64.5,63 " fill="none" filter="url(#f1qf281tcgad19)" style="stroke: #A80036; stroke-width: 2.0;"/><rect fill="#FEFECE" filter="url(#f1qf281tcgad19)" height="30.4883" style="stroke: #A80036; stroke-width: 1.5;" width="216" x="140.5" y="51"/><text fill="#000000" font-family="sans-serif" font-size="14" lengthAdjust="spacingAndGlyphs" text-decoration="underline" textLength="202" x="147.5" y="71.5352">:CreateConcertVSSViewModel</text><line style="stroke: #000000; stroke-width: 1.0;" x1="147.5" x2="349.5" y1="73.5352" y2="73.5352"/><rect fill="#FEFECE" filter="url(#f1qf281tcgad19)" height="30.4883" style="stroke: #A80036; stroke-width: 1.5;" width="184" x="410.5" y="51"/><text fill="#000000" font-family="sans-serif" font-size="14" lengthAdjust="spacingAndGlyphs" text-decoration="underline" textLength="170" x="417.5" y="71.5352">:LocalSoundSpaceLibrary</text><line style="stroke: #000000; stroke-width: 1.0;" x1="417.5" x2="587.5" y1="73.5352" y2="73.5352"/><polygon fill="#A80036" points="238.5,113.7988,248.5,117.7988,238.5,121.7988,242.5,117.7988" style="stroke: #A80036; stroke-width: 1.0;"/><line style="stroke: #A80036; stroke-width: 1.0;" x1="3" x2="244.5" y1="117.7988" y2="117.7988"/><text fill="#000000" font-family="sans-serif" font-size="13" lengthAdjust="spacingAndGlyphs" textLength="78" x="10" y="113.0566">&lt;&lt;create&gt;&gt;</text><polygon fill="#A80036" points="596.5,143.1094,606.5,147.1094,596.5,151.1094,600.5,147.1094" style="stroke: #A80036; stroke-width: 1.0;"/><line style="stroke: #A80036; stroke-width: 1.0;" x1="250.5" x2="602.5" y1="147.1094" y2="147.1094"/><text fill="#000000" font-family="sans-serif" font-size="13" lengthAdjust="spacingAndGlyphs" textLength="78" x="257.5" y="142.3672">&lt;&lt;create&gt;&gt;</text><rect fill="#FEFECE" filter="url(#f1qf281tcgad19)" height="30.4883" style="stroke: #A80036; stroke-width: 1.5;" width="351" x="608.5" y="125.7988"/><text fill="#000000" font-family="sans-serif" font-size="14" lengthAdjust="spacingAndGlyphs" text-decoration="underline" textLength="337" x="615.5" y="146.334">newSoundSpace:ConcertModeVirtualSoundSpace</text><line style="stroke: #000000; stroke-width: 1.0;" x1="615.5" x2="952.5" y1="148.334" y2="148.334"/><path d="M13,178.2871 L87,178.2871 L87,185.2871 L77,195.2871 L13,195.2871 L13,178.2871 " fill="#EEEEEE" style="stroke: #000000; stroke-width: 1.0;"/><rect fill="none" height="740.2539" style="stroke: #000000; stroke-width: 2.0;" width="1083.5" x="13" y="178.2871"/><text fill="#000000" font-family="sans-serif" font-size="13" font-weight="bold" lengthAdjust="spacingAndGlyphs" textLength="29" x="28" y="191.8555">loop</text><text fill="#000000" font-family="sans-serif" font-size="11" font-weight="bold" lengthAdjust="spacingAndGlyphs" textLength="144" x="102" y="190.9219">[add virual sound source]</text><path d="M23,202.5977 L85,202.5977 L85,209.5977 L75,219.5977 L23,219.5977 L23,202.5977 " fill="#EEEEEE" style="stroke: #000000; stroke-width: 1.0;"/><rect fill="none" height="343.7051" style="stroke: #000000; stroke-width: 2.0;" width="724" x="23" y="202.5977"/><text fill="#000000" font-family="sans-serif" font-size="13" font-weight="bold" lengthAdjust="spacingAndGlyphs" textLength="17" x="38" y="216.166">alt</text><text fill="#000000" font-family="sans-serif" font-size="11" font-weight="bold" lengthAdjust="spacingAndGlyphs" textLength="101" x="100" y="215.2324">[add from library]</text><path d="M56,224.9082 L56,249.9082 L733,249.9082 L733,234.9082 L723,224.9082 L56,224.9082 " fill="#FBFB77" filter="url(#f1qf281tcgad19)" style="stroke: #A80036; stroke-width: 1.0;"/><path d="M723,224.9082 L723,234.9082 L733,234.9082 L723,224.9082 " fill="#FBFB77" style="stroke: #A80036; stroke-width: 1.0;"/><text fill="#000000" font-family="sans-serif" font-size="13" lengthAdjust="spacingAndGlyphs" textLength="656" x="62" y="242.4766">Notice that there are no shared SoundSources here, each time, only the SoundFragment object is reused.</text><polygon fill="#A80036" points="238.5,276.5293,248.5,280.5293,238.5,284.5293,242.5,280.5293" style="stroke: #A80036; stroke-width: 1.0;"/><line style="stroke: #A80036; stroke-width: 1.0;" x1="51.5" x2="244.5" y1="280.5293" y2="280.5293"/><text fill="#000000" font-family="sans-serif" font-size="13" lengthAdjust="spacingAndGlyphs" textLength="164" x="58.5" y="275.7871">selectExistedSoundSource</text><polygon fill="#A80036" points="492.5,305.8398,502.5,309.8398,492.5,313.8398,496.5,309.8398" style="stroke: #A80036; stroke-width: 1.0;"/><line style="stroke: #A80036; stroke-width: 1.0;" x1="250.5" x2="498.5" y1="309.8398" y2="309.8398"/><text fill="#000000" font-family="sans-serif" font-size="13" lengthAdjust="spacingAndGlyphs" textLength="158" x="257.5" y="305.0977">getLocalSoundFragments</text><polygon fill="#A80036" points="261.5,335.1504,251.5,339.1504,261.5,343.1504,257.5,339.1504" style="stroke: #A80036; stroke-width: 1.0;"/><line style="stroke: #A80036; stroke-width: 1.0; stroke-dasharray: 2.0,2.0;" x1="255.5" x2="503.5" y1="339.1504" y2="339.1504"/><text fill="#000000" font-family="sans-serif" font-size="13" lengthAdjust="spacingAndGlyphs" textLength="150" x="267.5" y="334.4082">filteredSoundFragments</text><line style="stroke: #A80036; stroke-width: 1.0; stroke-dasharray: 2.0,2.0;" x1="250.5" x2="292.5" y1="368.4609" y2="368.4609"/><line style="stroke: #A80036; stroke-width: 1.0; stroke-dasharray: 2.0,2.0;" x1="292.5" x2="292.5" y1="368.4609" y2="381.4609"/><line style="stroke: #A80036; stroke-width: 1.0; stroke-dasharray: 2.0,2.0;" x1="251.5" x2="292.5" y1="381.4609" y2="381.4609"/><polygon fill="#A80036" points="261.5,377.4609,251.5,381.4609,261.5,385.4609,257.5,381.4609" style="stroke: #A80036; stroke-width: 1.0;"/><text fill="#000000" font-family="sans-serif" font-size="13" lengthAdjust="spacingAndGlyphs" textLength="240" x="257.5" y="363.7188">displayAvailableLocalSoundFragments</text><polygon fill="#A80036" points="238.5,406.7715,248.5,410.7715,238.5,414.7715,242.5,410.7715" style="stroke: #A80036; stroke-width: 1.0;"/><line style="stroke: #A80036; stroke-width: 1.0;" x1="51.5" x2="244.5" y1="410.7715" y2="410.7715"/><text fill="#000000" font-family="sans-serif" font-size="13" lengthAdjust="spacingAndGlyphs" textLength="135" x="58.5" y="406.0293">selectSoundFragment</text><line style="stroke: #A80036; stroke-width: 1.0;" x1="250.5" x2="292.5" y1="440.082" y2="440.082"/><line style="stroke: #A80036; stroke-width: 1.0;" x1="292.5" x2="292.5" y1="440.082" y2="453.082"/><line style="stroke: #A80036; stroke-width: 1.0;" x1="251.5" x2="292.5" y1="453.082" y2="453.082"/><polygon fill="#A80036" points="261.5,449.082,251.5,453.082,261.5,457.082,257.5,453.082" style="stroke: #A80036; stroke-width: 1.0;"/><text fill="#000000" font-family="sans-serif" font-size="13" lengthAdjust="spacingAndGlyphs" textLength="121" x="257.5" y="435.3398">addSoundFragment</text><line style="stroke: #000000; stroke-width: 1.0; stroke-dasharray: 2.0,2.0;" x1="23" x2="747" y1="462.082" y2="462.082"/><text fill="#000000" font-family="sans-serif" font-size="11" font-weight="bold" lengthAdjust="spacingAndGlyphs" textLength="83" x="28" y="472.7168">[add from file]</text><polygon fill="#A80036" points="238.5,493.3477,248.5,497.3477,238.5,501.3477,242.5,497.3477" style="stroke: #A80036; stroke-width: 1.0;"/><line style="stroke: #A80036; stroke-width: 1.0;" x1="51.5" x2="244.5" y1="497.3477" y2="497.3477"/><text fill="#000000" font-family="sans-serif" font-size="13" lengthAdjust="spacingAndGlyphs" textLength="136" x="58.5" y="492.6055">selectFromFileSystem</text><text fill="#000000" font-family="sans-serif" font-size="11" lengthAdjust="spacingAndGlyphs" textLength="500" x="290.75" y="529.9824">somehow CreateMapVSSControl got the new SoundFragment # specify during implementation</text><line style="stroke: #A80036; stroke-width: 1.0;" x1="51.5" x2="93.5" y1="574.6133" y2="574.6133"/><line style="stroke: #A80036; stroke-width: 1.0;" x1="93.5" x2="93.5" y1="574.6133" y2="587.6133"/><line style="stroke: #A80036; stroke-width: 1.0;" x1="52.5" x2="93.5" y1="587.6133" y2="587.6133"/><polygon fill="#A80036" points="62.5,583.6133,52.5,587.6133,62.5,591.6133,58.5,587.6133" style="stroke: #A80036; stroke-width: 1.0;"/><text fill="#000000" font-family="sans-serif" font-size="13" lengthAdjust="spacingAndGlyphs" textLength="80" x="58.5" y="569.8711">wakeUp(self)</text><polygon fill="#A80036" points="961.5,612.9238,971.5,616.9238,961.5,620.9238,965.5,616.9238" style="stroke: #A80036; stroke-width: 1.0;"/><line style="stroke: #A80036; stroke-width: 1.0;" x1="250.5" x2="967.5" y1="616.9238" y2="616.9238"/><text fill="#000000" font-family="sans-serif" font-size="13" lengthAdjust="spacingAndGlyphs" textLength="78" x="257.5" y="612.1816">&lt;&lt;create&gt;&gt;</text><rect fill="#FEFECE" filter="url(#f1qf281tcgad19)" height="30.4883" style="stroke: #A80036; stroke-width: 1.5;" width="109" x="973.5" y="595.6133"/><text fill="#000000" font-family="sans-serif" font-size="14" lengthAdjust="spacingAndGlyphs" text-decoration="underline" textLength="95" x="980.5" y="616.1484">:SoundSource</text><line style="stroke: #000000; stroke-width: 1.0;" x1="980.5" x2="1075.5" y1="618.1484" y2="618.1484"/><polygon fill="#A80036" points="1018,658.4121,1028,662.4121,1018,666.4121,1022,662.4121" style="stroke: #A80036; stroke-width: 1.0;"/><line style="stroke: #A80036; stroke-width: 1.0;" x1="250.5" x2="1024" y1="662.4121" y2="662.4121"/><text fill="#000000" font-family="sans-serif" font-size="13" lengthAdjust="spacingAndGlyphs" textLength="117" x="257.5" y="657.6699">setSoundFragment</text><path d="M23,677.4121 L85,677.4121 L85,684.4121 L75,694.4121 L23,694.4121 L23,677.4121 " fill="#EEEEEE" style="stroke: #000000; stroke-width: 1.0;"/><rect fill="none" height="234.1289" style="stroke: #000000; stroke-width: 2.0;" width="950.5" x="23" y="677.4121"/><text fill="#000000" font-family="sans-serif" font-size="13" font-weight="bold" lengthAdjust="spacingAndGlyphs" textLength="17" x="38" y="690.9805">alt</text><text fill="#000000" font-family="sans-serif" font-size="11" font-weight="bold" lengthAdjust="spacingAndGlyphs" textLength="53" x="100" y="690.0469">[confirm]</text><polygon fill="#A80036" points="238.5,712.0332,248.5,716.0332,238.5,720.0332,242.5,716.0332" style="stroke: #A80036; stroke-width: 1.0;"/><line style="stroke: #A80036; stroke-width: 1.0;" x1="51.5" x2="244.5" y1="716.0332" y2="716.0332"/><text fill="#000000" font-family="sans-serif" font-size="13" lengthAdjust="spacingAndGlyphs" textLength="103" x="58.5" y="711.291">confirmAddition</text><line style="stroke: #A80036; stroke-width: 1.0;" x1="250.5" x2="292.5" y1="745.3438" y2="745.3438"/><line style="stroke: #A80036; stroke-width: 1.0;" x1="292.5" x2="292.5" y1="745.3438" y2="758.3438"/><line style="stroke: #A80036; stroke-width: 1.0;" x1="251.5" x2="292.5" y1="758.3438" y2="758.3438"/><polygon fill="#A80036" points="261.5,754.3438,251.5,758.3438,261.5,762.3438,257.5,758.3438" style="stroke: #A80036; stroke-width: 1.0;"/><text fill="#000000" font-family="sans-serif" font-size="13" lengthAdjust="spacingAndGlyphs" textLength="103" x="257.5" y="740.6016">confirmAddition</text><polygon fill="#A80036" points="774,783.6543,784,787.6543,774,791.6543,778,787.6543" style="stroke: #A80036; stroke-width: 1.0;"/><line style="stroke: #A80036; stroke-width: 1.0;" x1="250.5" x2="780" y1="787.6543" y2="787.6543"/><text fill="#000000" font-family="sans-serif" font-size="13" lengthAdjust="spacingAndGlyphs" textLength="193" x="257.5" y="782.9121">addSoundSource(soundSource)</text><line style="stroke: #000000; stroke-width: 1.0; stroke-dasharray: 2.0,2.0;" x1="23" x2="973.5" y1="796.6543" y2="796.6543"/><text fill="#000000" font-family="sans-serif" font-size="11" font-weight="bold" lengthAdjust="spacingAndGlyphs" textLength="43" x="28" y="807.2891">[cancel]</text><polygon fill="#A80036" points="238.5,827.9199,248.5,831.9199,238.5,835.9199,242.5,831.9199" style="stroke: #A80036; stroke-width: 1.0;"/><line style="stroke: #A80036; stroke-width: 1.0;" x1="51.5" x2="244.5" y1="831.9199" y2="831.9199"/><text fill="#000000" font-family="sans-serif" font-size="13" lengthAdjust="spacingAndGlyphs" textLength="94" x="58.5" y="827.1777">cancelAddition</text><line style="stroke: #A80036; stroke-width: 1.0;" x1="250.5" x2="292.5" y1="861.2305" y2="861.2305"/><line style="stroke: #A80036; stroke-width: 1.0;" x1="292.5" x2="292.5" y1="861.2305" y2="874.2305"/><line style="stroke: #A80036; stroke-width: 1.0;" x1="251.5" x2="292.5" y1="874.2305" y2="874.2305"/><polygon fill="#A80036" points="261.5,870.2305,251.5,874.2305,261.5,878.2305,257.5,874.2305" style="stroke: #A80036; stroke-width: 1.0;"/><text fill="#000000" font-family="sans-serif" font-size="13" lengthAdjust="spacingAndGlyphs" textLength="103" x="257.5" y="856.4883">confirmAddition</text><polygon fill="#A80036" points="774,899.541,784,903.541,774,907.541,778,903.541" style="stroke: #A80036; stroke-width: 1.0;"/><line style="stroke: #A80036; stroke-width: 1.0;" x1="250.5" x2="780" y1="903.541" y2="903.541"/><text fill="#000000" font-family="sans-serif" font-size="13" lengthAdjust="spacingAndGlyphs" textLength="87" x="257.5" y="898.7988">&lt;&lt;destroy&gt;&gt;</text><line style="stroke: #A80036; stroke-width: 2.0;" x1="777" x2="795" y1="894.541" y2="912.541"/><line style="stroke: #A80036; stroke-width: 2.0;" x1="777" x2="795" y1="912.541" y2="894.541"/><polygon fill="#A80036" points="238.5,942.8516,248.5,946.8516,238.5,950.8516,242.5,946.8516" style="stroke: #A80036; stroke-width: 1.0;"/><line style="stroke: #A80036; stroke-width: 1.0;" x1="51.5" x2="244.5" y1="946.8516" y2="946.8516"/><text fill="#000000" font-family="sans-serif" font-size="13" lengthAdjust="spacingAndGlyphs" textLength="175" x="58.5" y="942.1094">setVSSNameAndDescription</text><polygon fill="#A80036" points="774,972.1621,784,976.1621,774,980.1621,778,976.1621" style="stroke: #A80036; stroke-width: 1.0;"/><line style="stroke: #A80036; stroke-width: 1.0;" x1="250.5" x2="780" y1="976.1621" y2="976.1621"/><text fill="#000000" font-family="sans-serif" font-size="13" lengthAdjust="spacingAndGlyphs" textLength="175" x="257.5" y="971.4199">setVSSNameAndDescription</text><path d="M23,991.1621 L85,991.1621 L85,998.1621 L75,1008.1621 L23,1008.1621 L23,991.1621 " fill="#EEEEEE" style="stroke: #000000; stroke-width: 1.0;"/><rect fill="none" height="133.1973" style="stroke: #000000; stroke-width: 2.0;" width="585.5" x="23" y="991.1621"/><text fill="#000000" font-family="sans-serif" font-size="13" font-weight="bold" lengthAdjust="spacingAndGlyphs" textLength="17" x="38" y="1004.7305">alt</text><text fill="#000000" font-family="sans-serif" font-size="11" font-weight="bold" lengthAdjust="spacingAndGlyphs" textLength="53" x="100" y="1003.7969">[confirm]</text><polygon fill="#A80036" points="238.5,1025.7832,248.5,1029.7832,238.5,1033.7832,242.5,1029.7832" style="stroke: #A80036; stroke-width: 1.0;"/><line style="stroke: #A80036; stroke-width: 1.0;" x1="51.5" x2="244.5" y1="1029.7832" y2="1029.7832"/><text fill="#000000" font-family="sans-serif" font-size="13" lengthAdjust="spacingAndGlyphs" textLength="128" x="58.5" y="1025.041">comfirmVSSCreation</text><line style="stroke: #A80036; stroke-width: 1.0;" x1="250.5" x2="292.5" y1="1059.0938" y2="1059.0938"/><line style="stroke: #A80036; stroke-width: 1.0;" x1="292.5" x2="292.5" y1="1059.0938" y2="1072.0938"/><line style="stroke: #A80036; stroke-width: 1.0;" x1="251.5" x2="292.5" y1="1072.0938" y2="1072.0938"/><polygon fill="#A80036" points="261.5,1068.0938,251.5,1072.0938,261.5,1076.0938,257.5,1072.0938" style="stroke: #A80036; stroke-width: 1.0;"/><text fill="#000000" font-family="sans-serif" font-size="13" lengthAdjust="spacingAndGlyphs" textLength="128" x="257.5" y="1054.3516">comfirmVSSCreation</text><polygon fill="#A80036" points="492.5,1097.4043,502.5,1101.4043,492.5,1105.4043,496.5,1101.4043" style="stroke: #A80036; stroke-width: 1.0;"/><line style="stroke: #A80036; stroke-width: 1.0;" x1="250.5" x2="498.5" y1="1101.4043" y2="1101.4043"/><text fill="#000000" font-family="sans-serif" font-size="13" lengthAdjust="spacingAndGlyphs" textLength="206" x="257.5" y="1096.6621">addSoundSpace(newSoundSpace)</text><line style="stroke: #000000; stroke-width: 1.0; stroke-dasharray: 2.0,2.0;" x1="23" x2="608.5" y1="1110.4043" y2="1110.4043"/><text fill="#000000" font-family="sans-serif" font-size="11" font-weight="bold" lengthAdjust="spacingAndGlyphs" textLength="43" x="28" y="1121.0391">[cancel]</text><line style="stroke: #A80036; stroke-width: 1.0;" x1="250.5" x2="292.5" y1="1152.6699" y2="1152.6699"/><line style="stroke: #A80036; stroke-width: 1.0;" x1="292.5" x2="292.5" y1="1152.6699" y2="1165.6699"/><line style="stroke: #A80036; stroke-width: 1.0;" x1="251.5" x2="292.5" y1="1165.6699" y2="1165.6699"/><polygon fill="#A80036" points="261.5,1161.6699,251.5,1165.6699,261.5,1169.6699,257.5,1165.6699" style="stroke: #A80036; stroke-width: 1.0;"/><text fill="#000000" font-family="sans-serif" font-size="13" lengthAdjust="spacingAndGlyphs" textLength="87" x="257.5" y="1147.9277">&lt;&lt;destroy&gt;&gt;</text><line style="stroke: #A80036; stroke-width: 2.0;" x1="241.5" x2="259.5" y1="1156.3594" y2="1174.3594"/><line style="stroke: #A80036; stroke-width: 2.0;" x1="241.5" x2="259.5" y1="1174.3594" y2="1156.3594"/><!--
@startuml Diagrams/CreateConcertModeVSS
hide footbox
skinparam sequenceParticipant underline


actor User as user
participant ":CreateConcertVSSViewModel" as createboundary
participant ":LocalSoundSpaceLibrary" as library
participant "newSoundSpace:ConcertModeVirtualSoundSpace" as newspace

create createboundary
-> createboundary: <<create>>
create newspace
createboundary -> newspace: <<create>>

loop add virual sound source
    alt add from library
        note right of user: Notice that there are no shared SoundSources here, each time, only the SoundFragment object is reused.
        user -> createboundary: selectExistedSoundSource
        createboundary -> library: getLocalSoundFragments
        library - -> createboundary: filteredSoundFragments
        createboundary - -> createboundary: displayAvailableLocalSoundFragments
        user -> createboundary: selectSoundFragment
        createboundary -> createboundary: addSoundFragment
    else add from file
        user -> createboundary: selectFromFileSystem
        ...somehow CreateMapVSSControl got the new SoundFragment # specify during implementation...
    end


    participant ":SoundSource" as source
    user -> user: wakeUp(self)
    create source
    createboundary -> source: <<create>>
    createboundary -> source: setSoundFragment
    alt confirm
        user -> createboundary: confirmAddition
        createboundary -> createboundary: confirmAddition
        createboundary -> newspace: addSoundSource(soundSource)
    else cancel
        user -> createboundary: cancelAddition
        createboundary -> createboundary: confirmAddition
        createboundary -> newspace: <<destroy>>
        destroy newspace
    end

end
user -> createboundary: setVSSNameAndDescription
createboundary -> newspace: setVSSNameAndDescription
alt confirm
    user -> createboundary: comfirmVSSCreation
    createboundary -> createboundary: comfirmVSSCreation
    createboundary -> library: addSoundSpace(newSoundSpace)
else cancel
end
createboundary -> createboundary: <<destroy>>
destroy createboundary
@enduml

PlantUML version 1.2018.02(Sat Mar 10 01:20:44 CST 2018)
(GPL source distribution)
Java Runtime: Java(TM) SE Runtime Environment
JVM: Java HotSpot(TM) 64-Bit Server VM
Java Version: 1.8.0_151-b12
Operating System: Mac OS X
OS Version: 10.11.6
Default Encoding: UTF-8
Language: zh
Country: CN
--></g></svg>
