<?xml version="1.0" encoding="UTF-8" standalone="no"?><svg xmlns="http://www.w3.org/2000/svg" xmlns:xlink="http://www.w3.org/1999/xlink" contentScriptType="application/ecmascript" contentStyleType="text/css" height="438px" preserveAspectRatio="none" style="width:644px;height:438px;" version="1.1" viewBox="0 0 644 438"
    width="644px" zoomAndPan="magnify"><defs><filter height="300%" id="fhu2q4tkwd7f7" width="300%" x="-1" y="-1"><feGaussianBlur result="blurOut" stdDeviation="2.0"/><feColorMatrix in="blurOut" result="blurOut2" type="matrix" values="0 0 0 0 0 0 0 0 0 0 0 0 0 0 0 0 0 0 .4 0"/><feOffset dx="4.0" dy="4.0" in="blurOut2" result="blurOut3"/><feBlend in="SourceGraphic" in2="blurOut3" mode="normal"/></filter></defs><g><rect fill="#FFFFFF" filter="url(#fhu2q4tkwd7f7)" height="272.0811" style="stroke: #000000; stroke-width: 2.0;" width="619.5" x="13" y="137.8745"/><rect fill="#FFFFFF" height="48.7773" style="stroke: none; stroke-width: 1.0;" width="619.5" x="13" y="361.1782"/><line style="stroke: #A80036; stroke-width: 1.0; stroke-dasharray: 5.0,5.0;" x1="40" x2="40" y1="89.1201" y2="426.9556"/><line style="stroke: #A80036; stroke-width: 1.0; stroke-dasharray: 5.0,5.0;" x1="171" x2="171" y1="89.1201" y2="426.9556"/><line style="stroke: #A80036; stroke-width: 1.0; stroke-dasharray: 5.0,5.0;" x1="369.5" x2="369.5" y1="89.1201" y2="426.9556"/><line style="stroke: #A80036; stroke-width: 1.0; stroke-dasharray: 5.0,5.0;" x1="531.5" x2="531.5" y1="89.1201" y2="426.9556"/><text fill="#000000" font-family="sans-serif" font-size="14" lengthAdjust="spacingAndGlyphs" text-decoration="underline" textLength="29" x="23" y="86.0439">User</text><line style="stroke: #000000; stroke-width: 1.0;" x1="23" x2="52" y1="88.0439" y2="88.0439"/><ellipse cx="40.5" cy="13" fill="#FEFECE" filter="url(#fhu2q4tkwd7f7)" rx="8" ry="8" style="stroke: #A80036; stroke-width: 2.0;"/><path d="M40.5,21 L40.5,48 M27.5,29 L53.5,29 M40.5,48 L27.5,63 M40.5,48 L53.5,63 " fill="none" filter="url(#fhu2q4tkwd7f7)" style="stroke: #A80036; stroke-width: 2.0;"/><rect fill="#FEFECE" filter="url(#fhu2q4tkwd7f7)" height="33.1201" style="stroke: #A80036; stroke-width: 1.5;" width="202" x="68" y="51"/><text fill="#000000" font-family="sans-serif" font-size="14" lengthAdjust="spacingAndGlyphs" text-decoration="underline" textLength="188" x="75" y="74.0439">:LocalVSSManagerViewModel</text><line style="stroke: #000000; stroke-width: 1.0;" x1="75" x2="263" y1="76.0439" y2="76.0439"/><rect fill="#FEFECE" filter="url(#fhu2q4tkwd7f7)" height="33.1201" style="stroke: #A80036; stroke-width: 1.5;" width="119" x="308.5" y="51"/><text fill="#000000" font-family="sans-serif" font-size="14" lengthAdjust="spacingAndGlyphs" text-decoration="underline" textLength="105" x="315.5" y="74.0439">:DeleteVSSPage</text><line style="stroke: #000000; stroke-width: 1.0;" x1="315.5" x2="420.5" y1="76.0439" y2="76.0439"/><rect fill="#FEFECE" filter="url(#fhu2q4tkwd7f7)" height="33.1201" style="stroke: #A80036; stroke-width: 1.5;" width="177" x="441.5" y="51"/><text fill="#000000" font-family="sans-serif" font-size="14" lengthAdjust="spacingAndGlyphs" text-decoration="underline" textLength="163" x="448.5" y="74.0439">:LocalSoundSpaceLibrary</text><line style="stroke: #000000; stroke-width: 1.0;" x1="448.5" x2="611.5" y1="76.0439" y2="76.0439"/><polygon fill="#A80036" points="358,118.8745,368,122.8745,358,126.8745,362,122.8745" style="stroke: #A80036; stroke-width: 1.0;"/><line style="stroke: #A80036; stroke-width: 1.0;" x1="171" x2="364" y1="122.8745" y2="122.8745"/><text fill="#000000" font-family="sans-serif" font-size="13" lengthAdjust="spacingAndGlyphs" textLength="68" x="178" y="118.0181">&lt;&lt;create&gt;&gt;</text><path d="M13,137.8745 L74,137.8745 L74,146.8745 L64,156.8745 L13,156.8745 L13,137.8745 " fill="#EEEEEE" style="stroke: #000000; stroke-width: 1.0;"/><rect fill="none" height="272.0811" style="stroke: #000000; stroke-width: 2.0;" width="619.5" x="13" y="137.8745"/><text fill="#000000" font-family="sans-serif" font-size="13" font-weight="bold" lengthAdjust="spacingAndGlyphs" textLength="16" x="28" y="153.7725">alt</text><text fill="#000000" font-family="sans-serif" font-size="11" font-weight="bold" lengthAdjust="spacingAndGlyphs" textLength="51" x="89" y="152.4805">[confirm]</text><polygon fill="#A80036" points="358,177.4063,368,181.4063,358,185.4063,362,181.4063" style="stroke: #A80036; stroke-width: 1.0;"/><line style="stroke: #A80036; stroke-width: 1.0;" x1="40.5" x2="364" y1="181.4063" y2="181.4063"/><text fill="#000000" font-family="sans-serif" font-size="13" lengthAdjust="spacingAndGlyphs" textLength="147" x="47.5" y="176.5498">onConfirmButtonClicked()</text><polygon fill="#A80036" points="182,209.1606,172,213.1606,182,217.1606,178,213.1606" style="stroke: #A80036; stroke-width: 1.0;"/><line style="stroke: #A80036; stroke-width: 1.0;" x1="176" x2="369" y1="213.1606" y2="213.1606"/><text fill="#000000" font-family="sans-serif" font-size="13" lengthAdjust="spacingAndGlyphs" textLength="132" x="188" y="208.3042">confirmDeleteMessage</text><polygon fill="#A80036" points="520,240.915,530,244.915,520,248.915,524,244.915" style="stroke: #A80036; stroke-width: 1.0;"/><line style="stroke: #A80036; stroke-width: 1.0;" x1="171" x2="526" y1="244.915" y2="244.915"/><text fill="#000000" font-family="sans-serif" font-size="13" lengthAdjust="spacingAndGlyphs" textLength="130" x="178" y="240.0586">deleteVSS(whichVSS)</text><polygon fill="#A80036" points="520,272.6694,530,276.6694,520,280.6694,524,276.6694" style="stroke: #A80036; stroke-width: 1.0;"/><line style="stroke: #A80036; stroke-width: 1.0;" x1="171" x2="526" y1="276.6694" y2="276.6694"/><text fill="#000000" font-family="sans-serif" font-size="13" lengthAdjust="spacingAndGlyphs" textLength="149" x="178" y="271.813">getVSSList(viewModelNo)</text><polygon fill="#A80036" points="182,304.4238,172,308.4238,182,312.4238,178,308.4238" style="stroke: #A80036; stroke-width: 1.0;"/><line style="stroke: #A80036; stroke-width: 1.0; stroke-dasharray: 2.0,2.0;" x1="176" x2="531" y1="308.4238" y2="308.4238"/><text fill="#000000" font-family="sans-serif" font-size="13" lengthAdjust="spacingAndGlyphs" textLength="184" x="188" y="303.5674">receiveVSSList(listOfLocalVSS)</text><line style="stroke: #A80036; stroke-width: 1.0;" x1="171" x2="213" y1="340.1782" y2="340.1782"/><line style="stroke: #A80036; stroke-width: 1.0;" x1="213" x2="213" y1="340.1782" y2="353.1782"/><line style="stroke: #A80036; stroke-width: 1.0;" x1="172" x2="213" y1="353.1782" y2="353.1782"/><polygon fill="#A80036" points="182,349.1782,172,353.1782,182,357.1782,178,353.1782" style="stroke: #A80036; stroke-width: 1.0;"/><text fill="#000000" font-family="sans-serif" font-size="13" lengthAdjust="spacingAndGlyphs" textLength="185" x="178" y="335.3218">displayVSSList(listOfLocalVSS)</text><line style="stroke: #000000; stroke-width: 1.0; stroke-dasharray: 2.0,2.0;" x1="13" x2="632.5" y1="362.1782" y2="362.1782"/><text fill="#000000" font-family="sans-serif" font-size="11" font-weight="bold" lengthAdjust="spacingAndGlyphs" textLength="43" x="18" y="374.7842">[cancel]</text><polygon fill="#A80036" points="358,397.9556,368,401.9556,358,405.9556,362,401.9556" style="stroke: #A80036; stroke-width: 1.0;"/><line style="stroke: #A80036; stroke-width: 1.0;" x1="40.5" x2="364" y1="401.9556" y2="401.9556"/><text fill="#000000" font-family="sans-serif" font-size="13" lengthAdjust="spacingAndGlyphs" textLength="143" x="47.5" y="397.0991">onCancelButtonClicked()</text><line style="stroke: #A80036; stroke-width: 2.0;" x1="361" x2="379" y1="392.9556" y2="410.9556"/><line style="stroke: #A80036; stroke-width: 2.0;" x1="361" x2="379" y1="410.9556" y2="392.9556"/><!--
@startuml Diagrams/DeleteVSS
hide footbox
skinparam sequenceParticipant underline

actor User as user
participant ":LocalVSSManagerViewModel" as viewModel
participant ":DeleteVSSPage" as page
participant ":LocalSoundSpaceLibrary" as library

viewModel -> page: <<create>>
alt confirm
    user -> page: onConfirmButtonClicked()
    page -> viewModel: confirmDeleteMessage
    viewModel -> library: deleteVSS(whichVSS)
    viewModel -> library: getVSSList(viewModelNo)
    library - -> viewModel: receiveVSSList(listOfLocalVSS)
    viewModel -> viewModel: displayVSSList(listOfLocalVSS)
else cancel
    user -> page: onCancelButtonClicked()
    destroy page
end

@enduml

PlantUML version 1.2018.02(Sat Mar 10 01:20:44 CST 2018)
(GPL source distribution)
Java Runtime: Java(TM) SE Runtime Environment
JVM: Java HotSpot(TM) Client VM
Java Version: 1.8.0_162-b12
Operating System: Windows 10
OS Version: 10.0
Default Encoding: GBK
Language: zh
Country: CN
--></g></svg>