<?xml version="1.0" encoding="UTF-8" standalone="no"?><svg xmlns="http://www.w3.org/2000/svg" xmlns:xlink="http://www.w3.org/1999/xlink" contentScriptType="application/ecmascript" contentStyleType="text/css" height="85px" preserveAspectRatio="none" style="width:257px;height:85px;" version="1.1" viewBox="0 0 257 85"
    width="257px" zoomAndPan="magnify"><defs/><g><text fill="#000000" font-family="sans-serif" font-size="12" lengthAdjust="spacingAndGlyphs" textLength="62" x="6" y="19.752">Delete VSS</text><line style="stroke: #AAAAAA; stroke-width: 1.0;" x1="6" x2="250" y1="26.8887" y2="26.8887"/><line style="stroke: #AAAAAA; stroke-width: 1.0;" x1="6" x2="250" y1="28.8887" y2="28.8887"/><text fill="#000000" font-family="sans-serif" font-size="12" lengthAdjust="spacingAndGlyphs" textLength="174" x="7" y="47.1406">Are you sure to delete this VSS?</text><rect fill="#EEEEEE" height="20.3887" rx="5" ry="5" style="stroke: #000000; stroke-width: 2.5;" width="52" x="9.5" y="54.2773"/><text fill="#000000" font-family="sans-serif" font-size="12" lengthAdjust="spacingAndGlyphs" textLength="39" x="16" y="70.0293">Cancel</text><rect fill="#EEEEEE" height="20.3887" rx="5" ry="5" style="stroke: #000000; stroke-width: 2.5;" width="60" x="185.5" y="54.2773"/><text fill="#000000" font-family="sans-serif" font-size="12" lengthAdjust="spacingAndGlyphs" textLength="44" x="193.5" y="70.0293">Confirm</text><line style="stroke: #000000; stroke-width: 1.0;" x1="6" x2="182" y1="32.3887" y2="32.3887"/><line style="stroke: #000000; stroke-width: 1.0;" x1="182" x2="249" y1="32.3887" y2="32.3887"/><line style="stroke: #000000; stroke-width: 1.0;" x1="6" x2="182" y1="78.166" y2="78.166"/><line style="stroke: #000000; stroke-width: 1.0;" x1="182" x2="249" y1="78.166" y2="78.166"/><line style="stroke: #000000; stroke-width: 1.0;" x1="6" x2="6" y1="32.3887" y2="50.7773"/><line style="stroke: #000000; stroke-width: 1.0;" x1="249" x2="249" y1="50.7773" y2="78.166"/><line style="stroke: #000000; stroke-width: 1.0;" x1="249" x2="249" y1="32.3887" y2="50.7773"/><line style="stroke: #000000; stroke-width: 1.0;" x1="6" x2="6" y1="50.7773" y2="78.166"/></g></svg>