<?xml version="1.0" encoding="UTF-8" standalone="no"?><svg xmlns="http://www.w3.org/2000/svg" xmlns:xlink="http://www.w3.org/1999/xlink" contentScriptType="application/ecmascript" contentStyleType="text/css" height="470px" preserveAspectRatio="none" style="width:678px;height:470px;" version="1.1" viewBox="0 0 678 470"
    width="678px" zoomAndPan="magnify"><defs><filter height="300%" id="fd70ujerwfrq3" width="300%" x="-1" y="-1"><feGaussianBlur result="blurOut" stdDeviation="2.0"/><feColorMatrix in="blurOut" result="blurOut2" type="matrix" values="0 0 0 0 0 0 0 0 0 0 0 0 0 0 0 0 0 0 .4 0"/><feOffset dx="4.0" dy="4.0" in="blurOut2" result="blurOut3"/><feBlend in="SourceGraphic" in2="blurOut3" mode="normal"/></filter></defs><g><rect fill="#FFFFFF" filter="url(#fd70ujerwfrq3)" height="272.0811" style="stroke: #000000; stroke-width: 2.0;" width="653" x="13" y="169.6289"/><rect fill="#FFFFFF" height="48.7773" style="stroke: none; stroke-width: 1.0;" width="653" x="13" y="392.9326"/><line style="stroke: #A80036; stroke-width: 1.0; stroke-dasharray: 5.0,5.0;" x1="40" x2="40" y1="89.1201" y2="458.71"/><line style="stroke: #A80036; stroke-width: 1.0; stroke-dasharray: 5.0,5.0;" x1="204.5" x2="204.5" y1="89.1201" y2="458.71"/><line style="stroke: #A80036; stroke-width: 1.0; stroke-dasharray: 5.0,5.0;" x1="403" x2="403" y1="89.1201" y2="458.71"/><line style="stroke: #A80036; stroke-width: 1.0; stroke-dasharray: 5.0,5.0;" x1="565" x2="565" y1="89.1201" y2="458.71"/><text fill="#000000" font-family="sans-serif" font-size="14" lengthAdjust="spacingAndGlyphs" text-decoration="underline" textLength="29" x="23" y="86.0439">User</text><line style="stroke: #000000; stroke-width: 1.0;" x1="23" x2="52" y1="88.0439" y2="88.0439"/><ellipse cx="40.5" cy="13" fill="#FEFECE" filter="url(#fd70ujerwfrq3)" rx="8" ry="8" style="stroke: #A80036; stroke-width: 2.0;"/><path d="M40.5,21 L40.5,48 M27.5,29 L53.5,29 M40.5,48 L27.5,63 M40.5,48 L53.5,63 " fill="none" filter="url(#fd70ujerwfrq3)" style="stroke: #A80036; stroke-width: 2.0;"/><rect fill="#FEFECE" filter="url(#fd70ujerwfrq3)" height="33.1201" style="stroke: #A80036; stroke-width: 1.5;" width="146" x="129.5" y="51"/><text fill="#000000" font-family="sans-serif" font-size="14" lengthAdjust="spacingAndGlyphs" text-decoration="underline" textLength="132" x="136.5" y="74.0439">:LocalVSSViewModel</text><line style="stroke: #000000; stroke-width: 1.0;" x1="136.5" x2="268.5" y1="76.0439" y2="76.0439"/><rect fill="#FEFECE" filter="url(#fd70ujerwfrq3)" height="33.1201" style="stroke: #A80036; stroke-width: 1.5;" width="119" x="342" y="51"/><text fill="#000000" font-family="sans-serif" font-size="14" lengthAdjust="spacingAndGlyphs" text-decoration="underline" textLength="105" x="349" y="74.0439">:DeleteVSSPage</text><line style="stroke: #000000; stroke-width: 1.0;" x1="349" x2="454" y1="76.0439" y2="76.0439"/><rect fill="#FEFECE" filter="url(#fd70ujerwfrq3)" height="33.1201" style="stroke: #A80036; stroke-width: 1.5;" width="177" x="475" y="51"/><text fill="#000000" font-family="sans-serif" font-size="14" lengthAdjust="spacingAndGlyphs" text-decoration="underline" textLength="163" x="482" y="74.0439">:LocalSoundSpaceLibrary</text><line style="stroke: #000000; stroke-width: 1.0;" x1="482" x2="645" y1="76.0439" y2="76.0439"/><polygon fill="#A80036" points="192.5,118.8745,202.5,122.8745,192.5,126.8745,196.5,122.8745" style="stroke: #A80036; stroke-width: 1.0;"/><line style="stroke: #A80036; stroke-width: 1.0;" x1="40.5" x2="198.5" y1="122.8745" y2="122.8745"/><text fill="#000000" font-family="sans-serif" font-size="13" lengthAdjust="spacingAndGlyphs" textLength="140" x="47.5" y="118.0181">onDeleteButtonClicked()</text><polygon fill="#A80036" points="391.5,150.6289,401.5,154.6289,391.5,158.6289,395.5,154.6289" style="stroke: #A80036; stroke-width: 1.0;"/><line style="stroke: #A80036; stroke-width: 1.0;" x1="204.5" x2="397.5" y1="154.6289" y2="154.6289"/><text fill="#000000" font-family="sans-serif" font-size="13" lengthAdjust="spacingAndGlyphs" textLength="68" x="211.5" y="149.7725">&lt;&lt;create&gt;&gt;</text><path d="M13,169.6289 L74,169.6289 L74,178.6289 L64,188.6289 L13,188.6289 L13,169.6289 " fill="#EEEEEE" style="stroke: #000000; stroke-width: 1.0;"/><rect fill="none" height="272.0811" style="stroke: #000000; stroke-width: 2.0;" width="653" x="13" y="169.6289"/><text fill="#000000" font-family="sans-serif" font-size="13" font-weight="bold" lengthAdjust="spacingAndGlyphs" textLength="16" x="28" y="185.5269">alt</text><text fill="#000000" font-family="sans-serif" font-size="11" font-weight="bold" lengthAdjust="spacingAndGlyphs" textLength="51" x="89" y="184.2349">[confirm]</text><polygon fill="#A80036" points="391.5,209.1606,401.5,213.1606,391.5,217.1606,395.5,213.1606" style="stroke: #A80036; stroke-width: 1.0;"/><line style="stroke: #A80036; stroke-width: 1.0;" x1="40.5" x2="397.5" y1="213.1606" y2="213.1606"/><text fill="#000000" font-family="sans-serif" font-size="13" lengthAdjust="spacingAndGlyphs" textLength="147" x="47.5" y="208.3042">onConfirmButtonClicked()</text><polygon fill="#A80036" points="215.5,240.915,205.5,244.915,215.5,248.915,211.5,244.915" style="stroke: #A80036; stroke-width: 1.0;"/><line style="stroke: #A80036; stroke-width: 1.0;" x1="209.5" x2="402.5" y1="244.915" y2="244.915"/><text fill="#000000" font-family="sans-serif" font-size="13" lengthAdjust="spacingAndGlyphs" textLength="132" x="221.5" y="240.0586">confirmDeleteMessage</text><polygon fill="#A80036" points="553.5,272.6694,563.5,276.6694,553.5,280.6694,557.5,276.6694" style="stroke: #A80036; stroke-width: 1.0;"/><line style="stroke: #A80036; stroke-width: 1.0;" x1="204.5" x2="559.5" y1="276.6694" y2="276.6694"/><text fill="#000000" font-family="sans-serif" font-size="13" lengthAdjust="spacingAndGlyphs" textLength="130" x="211.5" y="271.813">deleteVSS(whichVSS)</text><polygon fill="#A80036" points="553.5,304.4238,563.5,308.4238,553.5,312.4238,557.5,308.4238" style="stroke: #A80036; stroke-width: 1.0;"/><line style="stroke: #A80036; stroke-width: 1.0;" x1="204.5" x2="559.5" y1="308.4238" y2="308.4238"/><text fill="#000000" font-family="sans-serif" font-size="13" lengthAdjust="spacingAndGlyphs" textLength="149" x="211.5" y="303.5674">getVSSList(viewModelNo)</text><polygon fill="#A80036" points="215.5,336.1782,205.5,340.1782,215.5,344.1782,211.5,340.1782" style="stroke: #A80036; stroke-width: 1.0;"/><line style="stroke: #A80036; stroke-width: 1.0; stroke-dasharray: 2.0,2.0;" x1="209.5" x2="564.5" y1="340.1782" y2="340.1782"/><text fill="#000000" font-family="sans-serif" font-size="13" lengthAdjust="spacingAndGlyphs" textLength="184" x="221.5" y="335.3218">receiveVSSList(listOfLocalVSS)</text><line style="stroke: #A80036; stroke-width: 1.0;" x1="204.5" x2="246.5" y1="371.9326" y2="371.9326"/><line style="stroke: #A80036; stroke-width: 1.0;" x1="246.5" x2="246.5" y1="371.9326" y2="384.9326"/><line style="stroke: #A80036; stroke-width: 1.0;" x1="205.5" x2="246.5" y1="384.9326" y2="384.9326"/><polygon fill="#A80036" points="215.5,380.9326,205.5,384.9326,215.5,388.9326,211.5,384.9326" style="stroke: #A80036; stroke-width: 1.0;"/><text fill="#000000" font-family="sans-serif" font-size="13" lengthAdjust="spacingAndGlyphs" textLength="185" x="211.5" y="367.0762">displayVSSList(listOfLocalVSS)</text><line style="stroke: #000000; stroke-width: 1.0; stroke-dasharray: 2.0,2.0;" x1="13" x2="666" y1="393.9326" y2="393.9326"/><text fill="#000000" font-family="sans-serif" font-size="11" font-weight="bold" lengthAdjust="spacingAndGlyphs" textLength="43" x="18" y="406.5386">[cancel]</text><polygon fill="#A80036" points="391.5,429.71,401.5,433.71,391.5,437.71,395.5,433.71" style="stroke: #A80036; stroke-width: 1.0;"/><line style="stroke: #A80036; stroke-width: 1.0;" x1="40.5" x2="397.5" y1="433.71" y2="433.71"/><text fill="#000000" font-family="sans-serif" font-size="13" lengthAdjust="spacingAndGlyphs" textLength="143" x="47.5" y="428.8535">onCancelButtonClicked()</text><line style="stroke: #A80036; stroke-width: 2.0;" x1="394.5" x2="412.5" y1="424.71" y2="442.71"/><line style="stroke: #A80036; stroke-width: 2.0;" x1="394.5" x2="412.5" y1="442.71" y2="424.71"/><!--
@startuml Diagrams/DeleteVSS
hide footbox
skinparam sequenceParticipant underline

actor User as user
participant ":LocalVSSViewModel" as viewModel
participant ":DeleteVSSPage" as page
participant ":LocalSoundSpaceLibrary" as library

user -> viewModel: onDeleteButtonClicked()
viewModel -> page: <<create>>
alt confirm
    user -> page: onConfirmButtonClicked()
    page -> viewModel: confirmDeleteMessage
    viewModel -> library: deleteVSS(whichVSS)
    viewModel -> library: getVSSList(viewModelNo)
    library - -> viewModel: receiveVSSList(listOfLocalVSS)
    viewModel -> viewModel: displayVSSList(listOfLocalVSS)
else cancel
    user -> page: onCancelButtonClicked()
    destroy page
end

@enduml

PlantUML version 1.2018.02(Sat Mar 10 01:20:44 CST 2018)
(GPL source distribution)
Java Runtime: Java(TM) SE Runtime Environment
JVM: Java HotSpot(TM) Client VM
Java Version: 1.8.0_162-b12
Operating System: Windows 10
OS Version: 10.0
Default Encoding: GBK
Language: zh
Country: CN
--></g></svg>