<?xml version="1.0" encoding="UTF-8" standalone="no"?><svg xmlns="http://www.w3.org/2000/svg" xmlns:xlink="http://www.w3.org/1999/xlink" contentScriptType="application/ecmascript" contentStyleType="text/css" height="539px" preserveAspectRatio="none" style="width:520px;height:539px;" version="1.1" viewBox="0 0 520 539"
    width="520px" zoomAndPan="magnify"><defs><filter height="300%" id="f1a4ona3uliuw6" width="300%" x="-1" y="-1"><feGaussianBlur result="blurOut" stdDeviation="2.0"/><feColorMatrix in="blurOut" result="blurOut2" type="matrix" values="0 0 0 0 0 0 0 0 0 0 0 0 0 0 0 0 0 0 .4 0"/><feOffset dx="4.0" dy="4.0" in="blurOut2" result="blurOut3"/><feBlend in="SourceGraphic" in2="blurOut3" mode="normal"/></filter></defs><g><rect fill="#FFFFFF" filter="url(#f1a4ona3uliuw6)" height="292.75" style="stroke: #000000; stroke-width: 2.0;" width="495.5" x="13" y="217.4199"/><rect fill="#FFFFFF" height="86.5762" style="stroke: none; stroke-width: 1.0;" width="495.5" x="13" y="423.5938"/><line style="stroke: #A80036; stroke-width: 1.0; stroke-dasharray: 5.0,5.0;" x1="41" x2="41" y1="86.4883" y2="527.1699"/><line style="stroke: #A80036; stroke-width: 1.0; stroke-dasharray: 5.0,5.0;" x1="192.5" x2="192.5" y1="86.4883" y2="527.1699"/><line style="stroke: #A80036; stroke-width: 1.0; stroke-dasharray: 5.0,5.0;" x1="404.5" x2="404.5" y1="86.4883" y2="527.1699"/><text fill="#000000" font-family="sans-serif" font-size="14" lengthAdjust="spacingAndGlyphs" text-decoration="underline" textLength="31" x="23" y="83.5352">User</text><line style="stroke: #000000; stroke-width: 1.0;" x1="23" x2="54" y1="85.5352" y2="85.5352"/><ellipse cx="41.5" cy="13" fill="#FEFECE" filter="url(#f1a4ona3uliuw6)" rx="8" ry="8" style="stroke: #A80036; stroke-width: 2.0;"/><path d="M41.5,21 L41.5,48 M28.5,29 L54.5,29 M41.5,48 L28.5,63 M41.5,48 L54.5,63 " fill="none" filter="url(#f1a4ona3uliuw6)" style="stroke: #A80036; stroke-width: 2.0;"/><rect fill="#FEFECE" filter="url(#f1a4ona3uliuw6)" height="30.4883" style="stroke: #A80036; stroke-width: 1.5;" width="212" x="84.5" y="51"/><text fill="#000000" font-family="sans-serif" font-size="14" lengthAdjust="spacingAndGlyphs" text-decoration="underline" textLength="198" x="91.5" y="71.5352">:LocalVSSManagerViewModel</text><line style="stroke: #000000; stroke-width: 1.0;" x1="91.5" x2="289.5" y1="73.5352" y2="73.5352"/><rect fill="#FEFECE" filter="url(#f1a4ona3uliuw6)" height="30.4883" style="stroke: #A80036; stroke-width: 1.5;" width="184" x="310.5" y="51"/><text fill="#000000" font-family="sans-serif" font-size="14" lengthAdjust="spacingAndGlyphs" text-decoration="underline" textLength="170" x="317.5" y="71.5352">:LocalSoundSpaceLibrary</text><line style="stroke: #000000; stroke-width: 1.0;" x1="317.5" x2="487.5" y1="73.5352" y2="73.5352"/><polygon fill="#A80036" points="180.5,113.7988,190.5,117.7988,180.5,121.7988,184.5,117.7988" style="stroke: #A80036; stroke-width: 1.0;"/><line style="stroke: #A80036; stroke-width: 1.0;" x1="41.5" x2="186.5" y1="117.7988" y2="117.7988"/><text fill="#000000" font-family="sans-serif" font-size="13" lengthAdjust="spacingAndGlyphs" textLength="127" x="48.5" y="113.0566">deleteVSS(whichVSS)</text><line style="stroke: #A80036; stroke-width: 1.0;" x1="192.5" x2="234.5" y1="147.1094" y2="147.1094"/><line style="stroke: #A80036; stroke-width: 1.0;" x1="234.5" x2="234.5" y1="147.1094" y2="160.1094"/><line style="stroke: #A80036; stroke-width: 1.0;" x1="193.5" x2="234.5" y1="160.1094" y2="160.1094"/><polygon fill="#A80036" points="203.5,156.1094,193.5,160.1094,203.5,164.1094,199.5,160.1094" style="stroke: #A80036; stroke-width: 1.0;"/><text fill="#000000" font-family="sans-serif" font-size="13" lengthAdjust="spacingAndGlyphs" textLength="127" x="199.5" y="142.3672">deleteVSS(whichVSS)</text><line style="stroke: #A80036; stroke-width: 1.0;" x1="192.5" x2="234.5" y1="189.4199" y2="189.4199"/><line style="stroke: #A80036; stroke-width: 1.0;" x1="234.5" x2="234.5" y1="189.4199" y2="202.4199"/><line style="stroke: #A80036; stroke-width: 1.0;" x1="193.5" x2="234.5" y1="202.4199" y2="202.4199"/><polygon fill="#A80036" points="203.5,198.4199,193.5,202.4199,203.5,206.4199,199.5,202.4199" style="stroke: #A80036; stroke-width: 1.0;"/><text fill="#000000" font-family="sans-serif" font-size="13" lengthAdjust="spacingAndGlyphs" textLength="94" x="199.5" y="184.6777">comfirmDialog</text><path d="M13,217.4199 L75,217.4199 L75,224.4199 L65,234.4199 L13,234.4199 L13,217.4199 " fill="#EEEEEE" style="stroke: #000000; stroke-width: 1.0;"/><rect fill="none" height="292.75" style="stroke: #000000; stroke-width: 2.0;" width="495.5" x="13" y="217.4199"/><text fill="#000000" font-family="sans-serif" font-size="13" font-weight="bold" lengthAdjust="spacingAndGlyphs" textLength="17" x="28" y="230.9883">alt</text><text fill="#000000" font-family="sans-serif" font-size="11" font-weight="bold" lengthAdjust="spacingAndGlyphs" textLength="53" x="90" y="230.0547">[confirm]</text><polygon fill="#A80036" points="180.5,252.041,190.5,256.041,180.5,260.041,184.5,256.041" style="stroke: #A80036; stroke-width: 1.0;"/><line style="stroke: #A80036; stroke-width: 1.0;" x1="41.5" x2="186.5" y1="256.041" y2="256.041"/><text fill="#000000" font-family="sans-serif" font-size="13" lengthAdjust="spacingAndGlyphs" textLength="89" x="48.5" y="251.2988">confirmDelete</text><line style="stroke: #A80036; stroke-width: 1.0;" x1="192.5" x2="234.5" y1="285.3516" y2="285.3516"/><line style="stroke: #A80036; stroke-width: 1.0;" x1="234.5" x2="234.5" y1="285.3516" y2="298.3516"/><line style="stroke: #A80036; stroke-width: 1.0;" x1="193.5" x2="234.5" y1="298.3516" y2="298.3516"/><polygon fill="#A80036" points="203.5,294.3516,193.5,298.3516,203.5,302.3516,199.5,298.3516" style="stroke: #A80036; stroke-width: 1.0;"/><text fill="#000000" font-family="sans-serif" font-size="13" lengthAdjust="spacingAndGlyphs" textLength="49" x="199.5" y="280.6094">confirm</text><polygon fill="#A80036" points="392.5,323.6621,402.5,327.6621,392.5,331.6621,396.5,327.6621" style="stroke: #A80036; stroke-width: 1.0;"/><line style="stroke: #A80036; stroke-width: 1.0;" x1="192.5" x2="398.5" y1="327.6621" y2="327.6621"/><text fill="#000000" font-family="sans-serif" font-size="13" lengthAdjust="spacingAndGlyphs" textLength="127" x="199.5" y="322.9199">deleteVSS(whichVSS)</text><polygon fill="#A80036" points="392.5,352.9727,402.5,356.9727,392.5,360.9727,396.5,356.9727" style="stroke: #A80036; stroke-width: 1.0;"/><line style="stroke: #A80036; stroke-width: 1.0;" x1="192.5" x2="398.5" y1="356.9727" y2="356.9727"/><text fill="#000000" font-family="sans-serif" font-size="13" lengthAdjust="spacingAndGlyphs" textLength="121" x="199.5" y="352.2305">getVSSList(pageNo)</text><polygon fill="#A80036" points="203.5,382.2832,193.5,386.2832,203.5,390.2832,199.5,386.2832" style="stroke: #A80036; stroke-width: 1.0;"/><line style="stroke: #A80036; stroke-width: 1.0; stroke-dasharray: 2.0,2.0;" x1="197.5" x2="403.5" y1="386.2832" y2="386.2832"/><text fill="#000000" font-family="sans-serif" font-size="13" lengthAdjust="spacingAndGlyphs" textLength="90" x="209.5" y="381.541">listOfLocalVSS</text><polygon fill="#A80036" points="203.5,411.5938,193.5,415.5938,203.5,419.5938,199.5,415.5938" style="stroke: #A80036; stroke-width: 1.0;"/><line style="stroke: #A80036; stroke-width: 1.0;" x1="197.5" x2="403.5" y1="415.5938" y2="415.5938"/><text fill="#000000" font-family="sans-serif" font-size="13" lengthAdjust="spacingAndGlyphs" textLength="188" x="209.5" y="410.8516">displayVSSList(listOfLocalVSS)</text><line style="stroke: #000000; stroke-width: 1.0; stroke-dasharray: 2.0,2.0;" x1="13" x2="508.5" y1="424.5938" y2="424.5938"/><text fill="#000000" font-family="sans-serif" font-size="11" font-weight="bold" lengthAdjust="spacingAndGlyphs" textLength="43" x="18" y="435.2285">[cancel]</text><polygon fill="#A80036" points="180.5,455.8594,190.5,459.8594,180.5,463.8594,184.5,459.8594" style="stroke: #A80036; stroke-width: 1.0;"/><line style="stroke: #A80036; stroke-width: 1.0;" x1="41.5" x2="186.5" y1="459.8594" y2="459.8594"/><text fill="#000000" font-family="sans-serif" font-size="13" lengthAdjust="spacingAndGlyphs" textLength="80" x="48.5" y="455.1172">cancelDelete</text><line style="stroke: #A80036; stroke-width: 1.0;" x1="192.5" x2="234.5" y1="489.1699" y2="489.1699"/><line style="stroke: #A80036; stroke-width: 1.0;" x1="234.5" x2="234.5" y1="489.1699" y2="502.1699"/><line style="stroke: #A80036; stroke-width: 1.0;" x1="193.5" x2="234.5" y1="502.1699" y2="502.1699"/><polygon fill="#A80036" points="203.5,498.1699,193.5,502.1699,203.5,506.1699,199.5,502.1699" style="stroke: #A80036; stroke-width: 1.0;"/><text fill="#000000" font-family="sans-serif" font-size="13" lengthAdjust="spacingAndGlyphs" textLength="80" x="199.5" y="484.4277">cancelDelete</text><!--
@startuml Diagrams/DeleteVSS
hide footbox
skinparam sequenceParticipant underline

actor User as user
participant ":LocalVSSManagerViewModel" as page
participant ":LocalSoundSpaceLibrary" as library

user -> page: deleteVSS(whichVSS)
page -> page: deleteVSS(whichVSS)
page -> page: comfirmDialog
alt confirm
    user -> page: confirmDelete
    page -> page: confirm
    page -> library: deleteVSS(whichVSS)
    page -> library: getVSSList(pageNo)
    library - -> page: listOfLocalVSS
    library -> page: displayVSSList(listOfLocalVSS)
else cancel
    user -> page: cancelDelete
    page -> page: cancelDelete
end


@enduml

PlantUML version 1.2018.02(Sat Mar 10 01:20:44 CST 2018)
(GPL source distribution)
Java Runtime: Java(TM) SE Runtime Environment
JVM: Java HotSpot(TM) 64-Bit Server VM
Java Version: 1.8.0_151-b12
Operating System: Mac OS X
OS Version: 10.11.6
Default Encoding: UTF-8
Language: zh
Country: CN
--></g></svg>
