<?xml version="1.0" encoding="UTF-8" standalone="no"?><svg xmlns="http://www.w3.org/2000/svg" xmlns:xlink="http://www.w3.org/1999/xlink" contentScriptType="application/ecmascript" contentStyleType="text/css" height="679px" preserveAspectRatio="none" style="width:901px;height:679px;" version="1.1" viewBox="0 0 901 679"
    width="901px" zoomAndPan="magnify"><defs><filter height="300%" id="fztsuarrekdxw" width="300%" x="-1" y="-1"><feGaussianBlur result="blurOut" stdDeviation="2.0"/><feColorMatrix in="blurOut" result="blurOut2" type="matrix" values="0 0 0 0 0 0 0 0 0 0 0 0 0 0 0 0 0 0 .4 0"/><feOffset dx="4.0" dy="4.0" in="blurOut2" result="blurOut3"/><feBlend in="SourceGraphic" in2="blurOut3" mode="normal"/></filter></defs><g><!--cluster ClientPhone--><polygon fill="#FFFFFF" filter="url(#fztsuarrekdxw)" points="157.5,26,167.5,16,879.5,16,879.5,508,869.5,518,157.5,518,157.5,26" style="stroke: #000000; stroke-width: 1.5;"/><line style="stroke: #000000; stroke-width: 1.5;" x1="869.5" x2="878.5" y1="26" y2="17"/><line style="stroke: #000000; stroke-width: 1.5;" x1="157.5" x2="869.5" y1="26" y2="26"/><line style="stroke: #000000; stroke-width: 1.5;" x1="869.5" x2="869.5" y1="26" y2="518"/><text fill="#000000" font-family="sans-serif" font-size="14" font-style="italic" lengthAdjust="spacingAndGlyphs" textLength="57" x="486" y="42.5352">«device»</text><text fill="#000000" font-family="sans-serif" font-size="14" font-weight="bold" lengthAdjust="spacingAndGlyphs" textLength="87" x="471" y="59.0234">ClientPhone</text><!--cluster ServerComputer--><polygon fill="#FFFFFF" filter="url(#fztsuarrekdxw)" points="428.5,575,438.5,565,619.5,565,619.5,657,609.5,667,428.5,667,428.5,575" style="stroke: #000000; stroke-width: 1.5;"/><line style="stroke: #000000; stroke-width: 1.5;" x1="609.5" x2="618.5" y1="575" y2="566"/><line style="stroke: #000000; stroke-width: 1.5;" x1="428.5" x2="609.5" y1="575" y2="575"/><line style="stroke: #000000; stroke-width: 1.5;" x1="609.5" x2="609.5" y1="575" y2="667"/><text fill="#000000" font-family="sans-serif" font-size="14" font-style="italic" lengthAdjust="spacingAndGlyphs" textLength="56" x="492" y="591.5352">«server»</text><text fill="#000000" font-family="sans-serif" font-size="14" font-weight="bold" lengthAdjust="spacingAndGlyphs" textLength="115" x="462.5" y="608.0234">ServerComputer</text><!--entity UISubsystem--><rect fill="#FEFECE" filter="url(#fztsuarrekdxw)" height="46.4883" style="stroke: #A80036; stroke-width: 1.5;" width="127" x="349" y="64"/><rect fill="#FEFECE" height="10" style="stroke: #A80036; stroke-width: 1.5;" width="15" x="456" y="69"/><rect fill="#FEFECE" height="2" style="stroke: #A80036; stroke-width: 1.5;" width="4" x="454" y="71"/><rect fill="#FEFECE" height="2" style="stroke: #A80036; stroke-width: 1.5;" width="4" x="454" y="75"/><text fill="#000000" font-family="sans-serif" font-size="14" lengthAdjust="spacingAndGlyphs" textLength="87" x="364" y="97.5352">UISubsystem</text><!--entity SensorSubsystem--><rect fill="#FEFECE" filter="url(#fztsuarrekdxw)" height="46.4883" style="stroke: #A80036; stroke-width: 1.5;" width="160" x="222.5" y="233"/><rect fill="#FEFECE" height="10" style="stroke: #A80036; stroke-width: 1.5;" width="15" x="362.5" y="238"/><rect fill="#FEFECE" height="2" style="stroke: #A80036; stroke-width: 1.5;" width="4" x="360.5" y="240"/><rect fill="#FEFECE" height="2" style="stroke: #A80036; stroke-width: 1.5;" width="4" x="360.5" y="244"/><text fill="#000000" font-family="sans-serif" font-size="14" lengthAdjust="spacingAndGlyphs" textLength="120" x="237.5" y="266.5352">SensorSubsystem</text><!--entity CommunicationSubsystem--><rect fill="#FEFECE" filter="url(#fztsuarrekdxw)" height="46.4883" style="stroke: #A80036; stroke-width: 1.5;" width="222" x="412.5" y="464"/><rect fill="#FEFECE" height="10" style="stroke: #A80036; stroke-width: 1.5;" width="15" x="614.5" y="469"/><rect fill="#FEFECE" height="2" style="stroke: #A80036; stroke-width: 1.5;" width="4" x="612.5" y="471"/><rect fill="#FEFECE" height="2" style="stroke: #A80036; stroke-width: 1.5;" width="4" x="612.5" y="475"/><text fill="#000000" font-family="sans-serif" font-size="14" lengthAdjust="spacingAndGlyphs" textLength="182" x="427.5" y="497.5352">CommunicationSubsystem</text><!--entity LocalStorageSubsystem--><rect fill="#FEFECE" filter="url(#fztsuarrekdxw)" height="46.4883" style="stroke: #A80036; stroke-width: 1.5;" width="201" x="670" y="464"/><rect fill="#FEFECE" height="10" style="stroke: #A80036; stroke-width: 1.5;" width="15" x="851" y="469"/><rect fill="#FEFECE" height="2" style="stroke: #A80036; stroke-width: 1.5;" width="4" x="849" y="471"/><rect fill="#FEFECE" height="2" style="stroke: #A80036; stroke-width: 1.5;" width="4" x="849" y="475"/><text fill="#000000" font-family="sans-serif" font-size="14" lengthAdjust="spacingAndGlyphs" textLength="161" x="685" y="497.5352">LocalStorageSubsystem</text><!--entity EntitySubsystem--><rect fill="#FEFECE" filter="url(#fztsuarrekdxw)" height="46.4883" style="stroke: #A80036; stroke-width: 1.5;" width="151" x="448" y="233"/><rect fill="#FEFECE" height="10" style="stroke: #A80036; stroke-width: 1.5;" width="15" x="579" y="238"/><rect fill="#FEFECE" height="2" style="stroke: #A80036; stroke-width: 1.5;" width="4" x="577" y="240"/><rect fill="#FEFECE" height="2" style="stroke: #A80036; stroke-width: 1.5;" width="4" x="577" y="244"/><text fill="#000000" font-family="sans-serif" font-size="14" lengthAdjust="spacingAndGlyphs" textLength="111" x="463" y="266.5352">EntitySubsystem</text><!--entity SensorHardwareWrapper--><rect fill="#FEFECE" filter="url(#fztsuarrekdxw)" height="46.4883" style="stroke: #A80036; stroke-width: 1.5;" width="211" x="166" y="464"/><rect fill="#FEFECE" height="10" style="stroke: #A80036; stroke-width: 1.5;" width="15" x="357" y="469"/><rect fill="#FEFECE" height="2" style="stroke: #A80036; stroke-width: 1.5;" width="4" x="355" y="471"/><rect fill="#FEFECE" height="2" style="stroke: #A80036; stroke-width: 1.5;" width="4" x="355" y="475"/><text fill="#000000" font-family="sans-serif" font-size="14" lengthAdjust="spacingAndGlyphs" textLength="171" x="181" y="497.5352">SensorHardwareWrapper</text><!--entity ServerSubsystem--><rect fill="#FEFECE" filter="url(#fztsuarrekdxw)" height="46.4883" style="stroke: #A80036; stroke-width: 1.5;" width="156" x="445.5" y="613"/><rect fill="#FEFECE" height="10" style="stroke: #A80036; stroke-width: 1.5;" width="15" x="581.5" y="618"/><rect fill="#FEFECE" height="2" style="stroke: #A80036; stroke-width: 1.5;" width="4" x="579.5" y="620"/><rect fill="#FEFECE" height="2" style="stroke: #A80036; stroke-width: 1.5;" width="4" x="579.5" y="624"/><text fill="#000000" font-family="sans-serif" font-size="14" lengthAdjust="spacingAndGlyphs" textLength="116" x="460.5" y="646.5352">ServerSubsystem</text><!--entity WirelessSensor--><polygon fill="#FEFECE" filter="url(#fztsuarrekdxw)" points="6,350,16,340,149,340,149,392.9766,139,402.9766,6,402.9766,6,350" style="stroke: #000000; stroke-width: 1.5;"/><line style="stroke: #000000; stroke-width: 1.5;" x1="139" x2="148" y1="350" y2="341"/><line style="stroke: #000000; stroke-width: 1.5;" x1="6" x2="139" y1="350" y2="350"/><line style="stroke: #000000; stroke-width: 1.5;" x1="139" x2="139" y1="350" y2="402.9766"/><text fill="#000000" font-family="sans-serif" font-size="14" font-style="italic" lengthAdjust="spacingAndGlyphs" textLength="57" x="44" y="373.5352">«device»</text><text fill="#000000" font-family="sans-serif" font-size="14" lengthAdjust="spacingAndGlyphs" textLength="103" x="21" y="390.0234">WirelessSensor</text><!--link SensorSubsystem to SensorHardwareWrapper--><path d="M299.357,279.4207 C293.621,322.1628 281.4784,412.6449 275.2931,458.7349 " fill="none" id="SensorSubsystem-SensorHardwareWrapper" style="stroke: #A80036; stroke-width: 1.0; stroke-dasharray: 7.0,7.0;"/><polygon fill="#A80036" points="274.6053,463.8607,279.767,455.4728,275.2704,458.9051,271.8381,454.4086,274.6053,463.8607" style="stroke: #A80036; stroke-width: 1.0;"/><!--link UISubsystem to EntitySubsystem--><path d="M427.7013,110.1444 C447.9875,141.0305 483.8583,195.6446 505.481,228.5656 " fill="none" id="UISubsystem-EntitySubsystem" style="stroke: #A80036; stroke-width: 1.0; stroke-dasharray: 7.0,7.0;"/><polygon fill="#A80036" points="508.3046,232.8646,506.7072,223.1462,505.5597,228.6854,500.0205,227.538,508.3046,232.8646" style="stroke: #A80036; stroke-width: 1.0;"/><!--link EntitySubsystem to LocalStorageSubsystem--><path d="M548.543,279.4207 C594.8017,322.683 693.3573,414.8544 742.0553,460.3978 " fill="none" id="EntitySubsystem-LocalStorageSubsystem" style="stroke: #A80036; stroke-width: 1.0; stroke-dasharray: 7.0,7.0;"/><polygon fill="#A80036" points="745.758,463.8607,741.9169,454.7917,742.1062,460.4454,736.4525,460.6347,745.758,463.8607" style="stroke: #A80036; stroke-width: 1.0;"/><!--link EntitySubsystem to CommunicationSubsystem--><path d="M523.5,279.4207 C523.5,322.1628 523.5,412.6449 523.5,458.7349 " fill="none" id="EntitySubsystem-CommunicationSubsystem" style="stroke: #A80036; stroke-width: 1.0; stroke-dasharray: 7.0,7.0;"/><polygon fill="#A80036" points="523.5,463.8607,527.5,454.8607,523.5,458.8607,519.5,454.8607,523.5,463.8607" style="stroke: #A80036; stroke-width: 1.0;"/><!--link UISubsystem to SensorSubsystem--><path d="M397.4356,110.1444 C377.3322,141.0305 341.7846,195.6446 320.3567,228.5656 " fill="none" id="UISubsystem-SensorSubsystem" style="stroke: #A80036; stroke-width: 1.0; stroke-dasharray: 7.0,7.0;"/><polygon fill="#A80036" points="317.5585,232.8646,325.8206,227.5038,320.2861,228.6741,319.1158,223.1396,317.5585,232.8646" style="stroke: #A80036; stroke-width: 1.0;"/><!--link CommunicationSubsystem to ServerSubsystem--><path d="M523.5,510.2812 C523.5,536.6332 523.5,579.5559 523.5,607.7888 " fill="none" id="CommunicationSubsystem-ServerSubsystem" style="stroke: #A80036; stroke-width: 1.0; stroke-dasharray: 7.0,7.0;"/><polygon fill="#A80036" points="523.5,612.8822,527.5,603.8822,523.5,607.8822,519.5,603.8822,523.5,612.8822" style="stroke: #A80036; stroke-width: 1.0;"/><text fill="#000000" font-family="sans-serif" font-size="13" lengthAdjust="spacingAndGlyphs" textLength="28" x="524.5" y="553.5684">Http</text><!--link WirelessSensor to SensorHardwareWrapper--><path d="M135.1074,405.7972 C166.6,424.5467 204.7664,447.2694 232.7075,463.9044 " fill="none" id="WirelessSensor-SensorHardwareWrapper" style="stroke: #A80036; stroke-width: 1.0; stroke-dasharray: 7.0,7.0;"/><polygon fill="#A80036" points="130.5114,403.0609,136.1982,411.102,134.8076,405.6188,140.2908,404.2281,130.5114,403.0609" style="stroke: #A80036; stroke-width: 1.0;"/><!--
@startuml Diagrams/DeploymentDiagram
skinparam componentStyle uml2

node ClientPhone <<device>> {
    component UISubsystem
    component SensorSubsystem
    component CommunicationSubsystem
    component LocalStorageSubsystem
    component EntitySubsystem
    component SensorHardwareWrapper
    SensorSubsystem ..> SensorHardwareWrapper
    UISubsystem ..> EntitySubsystem
    EntitySubsystem ..> LocalStorageSubsystem
    EntitySubsystem ..> CommunicationSubsystem
    UISubsystem ..> SensorSubsystem
}

node ServerComputer <<server>> {
    component ServerSubsystem
}

CommunicationSubsystem ..> ServerSubsystem: Http

node WirelessSensor <<device>>

WirelessSensor <.. SensorHardwareWrapper

@enduml

PlantUML version 1.2018.01(Mon Jan 29 02:08:22 CST 2018)
(GPL source distribution)
Java Runtime: Java(TM) SE Runtime Environment
JVM: Java HotSpot(TM) 64-Bit Server VM
Java Version: 9+181
Operating System: Mac OS X
OS Version: 10.12.6
Default Encoding: UTF-8
Language: zh
Country: CN
--></g></svg>