<?xml version="1.0" encoding="UTF-8" standalone="no"?><svg xmlns="http://www.w3.org/2000/svg" xmlns:xlink="http://www.w3.org/1999/xlink" contentScriptType="application/ecmascript" contentStyleType="text/css" height="324px" preserveAspectRatio="none" style="width:701px;height:324px;" version="1.1" viewBox="0 0 701 324"
    width="701px" zoomAndPan="magnify"><defs><filter height="300%" id="fkchfv7ljpxgu" width="300%" x="-1" y="-1"><feGaussianBlur result="blurOut" stdDeviation="2.0"/><feColorMatrix in="blurOut" result="blurOut2" type="matrix" values="0 0 0 0 0 0 0 0 0 0 0 0 0 0 0 0 0 0 .4 0"/><feOffset dx="4.0" dy="4.0" in="blurOut2" result="blurOut3"/><feBlend in="SourceGraphic" in2="blurOut3" mode="normal"/></filter></defs><g><text fill="#000000" font-family="sans-serif" font-size="14" font-weight="bold" lengthAdjust="spacingAndGlyphs" textLength="98" x="302.25" y="23.5352">DownloadVSS</text><line style="stroke: #A80036; stroke-width: 1.0; stroke-dasharray: 5.0,5.0;" x1="96" x2="96" y1="116.9766" y2="312.8398"/><line style="stroke: #A80036; stroke-width: 1.0; stroke-dasharray: 5.0,5.0;" x1="305" x2="305" y1="116.9766" y2="312.8398"/><line style="stroke: #A80036; stroke-width: 1.0; stroke-dasharray: 5.0,5.0;" x1="514" x2="514" y1="116.9766" y2="312.8398"/><line style="stroke: #A80036; stroke-width: 1.0; stroke-dasharray: 5.0,5.0;" x1="644.5" x2="644.5" y1="116.9766" y2="312.8398"/><text fill="#000000" font-family="sans-serif" font-size="14" lengthAdjust="spacingAndGlyphs" text-decoration="underline" textLength="170" x="8" y="114.0234">:LocalSoundSpaceLibrary</text><line style="stroke: #000000; stroke-width: 1.0;" x1="8" x2="178" y1="116.0234" y2="116.0234"/><ellipse cx="96" cy="43.4883" fill="#FEFECE" filter="url(#fkchfv7ljpxgu)" rx="8" ry="8" style="stroke: #A80036; stroke-width: 2.0;"/><path d="M96,51.4883 L96,78.4883 M83,59.4883 L109,59.4883 M96,78.4883 L83,93.4883 M96,78.4883 L109,93.4883 " fill="none" filter="url(#fkchfv7ljpxgu)" style="stroke: #A80036; stroke-width: 2.0;"/><rect fill="#FEFECE" filter="url(#fkchfv7ljpxgu)" height="30.4883" style="stroke: #A80036; stroke-width: 1.5;" width="120" x="243" y="81.4883"/><text fill="#000000" font-family="sans-serif" font-size="14" lengthAdjust="spacingAndGlyphs" text-decoration="underline" textLength="106" x="250" y="102.0234">:Communicator</text><line style="stroke: #000000; stroke-width: 1.0;" x1="250" x2="356" y1="104.0234" y2="104.0234"/><rect fill="#FEFECE" filter="url(#fkchfv7ljpxgu)" height="30.4883" style="stroke: #A80036; stroke-width: 1.5;" width="90" x="467" y="81.4883"/><text fill="#000000" font-family="sans-serif" font-size="14" lengthAdjust="spacingAndGlyphs" text-decoration="underline" textLength="76" x="474" y="102.0234">:WebServer</text><line style="stroke: #000000; stroke-width: 1.0;" x1="474" x2="550" y1="104.0234" y2="104.0234"/><rect fill="#FEFECE" filter="url(#fkchfv7ljpxgu)" height="30.4883" style="stroke: #A80036; stroke-width: 1.5;" width="95" x="595.5" y="81.4883"/><text fill="#000000" font-family="sans-serif" font-size="14" lengthAdjust="spacingAndGlyphs" text-decoration="underline" textLength="81" x="602.5" y="102.0234">:MainFolder</text><line style="stroke: #000000; stroke-width: 1.0;" x1="602.5" x2="683.5" y1="104.0234" y2="104.0234"/><polygon fill="#A80036" points="293,143.9766,303,147.9766,293,151.9766,297,147.9766" style="stroke: #A80036; stroke-width: 1.0;"/><line style="stroke: #A80036; stroke-width: 1.0;" x1="96" x2="299" y1="147.9766" y2="147.9766"/><text fill="#000000" font-family="sans-serif" font-size="13" lengthAdjust="spacingAndGlyphs" textLength="185" x="103" y="143.5449">DownloadRequest(SFHash):SF</text><polygon fill="#A80036" points="502,173.2871,512,177.2871,502,181.2871,506,177.2871" style="stroke: #A80036; stroke-width: 1.0;"/><line style="stroke: #A80036; stroke-width: 1.0;" x1="305" x2="508" y1="177.2871" y2="177.2871"/><text fill="#000000" font-family="sans-serif" font-size="13" lengthAdjust="spacingAndGlyphs" textLength="185" x="312" y="172.8555">DownloadRequest(SFHash):SF</text><polygon fill="#A80036" points="633,202.5977,643,206.5977,633,210.5977,637,206.5977" style="stroke: #A80036; stroke-width: 1.0;"/><line style="stroke: #A80036; stroke-width: 1.0;" x1="514" x2="639" y1="206.5977" y2="206.5977"/><text fill="#000000" font-family="sans-serif" font-size="13" lengthAdjust="spacingAndGlyphs" textLength="107" x="521" y="202.166">GetSF(SFHash):SF</text><polygon fill="#A80036" points="525,231.9082,515,235.9082,525,239.9082,521,235.9082" style="stroke: #A80036; stroke-width: 1.0;"/><line style="stroke: #A80036; stroke-width: 1.0;" x1="519" x2="644" y1="235.9082" y2="235.9082"/><text fill="#000000" font-family="sans-serif" font-size="13" lengthAdjust="spacingAndGlyphs" textLength="14" x="531" y="231.4766">SF</text><polygon fill="#A80036" points="316,261.2188,306,265.2188,316,269.2188,312,265.2188" style="stroke: #A80036; stroke-width: 1.0;"/><line style="stroke: #A80036; stroke-width: 1.0;" x1="310" x2="513" y1="265.2188" y2="265.2188"/><text fill="#000000" font-family="sans-serif" font-size="13" lengthAdjust="spacingAndGlyphs" textLength="14" x="322" y="260.7871">SF</text><polygon fill="#A80036" points="107,290.5293,97,294.5293,107,298.5293,103,294.5293" style="stroke: #A80036; stroke-width: 1.0;"/><line style="stroke: #A80036; stroke-width: 1.0;" x1="101" x2="304" y1="294.5293" y2="294.5293"/><text fill="#000000" font-family="sans-serif" font-size="13" lengthAdjust="spacingAndGlyphs" textLength="14" x="113" y="290.0977">SF</text><!--
@startuml Diagrams/DownloadVSSServerSequenceDiagram
title DownloadVSS
hide footbox
skinparam sequenceParticipant underline
actor ":LocalSoundSpaceLibrary" as Client
participant ":Communicator" as Communicator
participant ":WebServer" as WebServer
participant ":MainFolder" as Folder
Client->Communicator:DownloadRequest(SFHash):SF
Communicator->WebServer:DownloadRequest(SFHash):SF
WebServer->Folder:GetSF(SFHash):SF
Folder->WebServer:SF
WebServer->Communicator:SF
Communicator->Client:SF
@enduml

PlantUML version 1.2018.01(Mon Jan 29 02:08:22 CST 2018)
(GPL source distribution)
Java Runtime: Java(TM) SE Runtime Environment
JVM: Java HotSpot(TM) 64-Bit Server VM
Java Version: 9+181
Operating System: Mac OS X
OS Version: 10.12.6
Default Encoding: UTF-8
Language: zh
Country: CN
--></g></svg>