<?xml version="1.0" encoding="UTF-8" standalone="no"?><svg xmlns="http://www.w3.org/2000/svg" xmlns:xlink="http://www.w3.org/1999/xlink" contentScriptType="application/ecmascript" contentStyleType="text/css" height="407px" preserveAspectRatio="none" style="width:760px;height:407px;" version="1.1" viewBox="0 0 760 407"
    width="760px" zoomAndPan="magnify"><defs><filter height="300%" id="fygr4tjvpkbpd" width="300%" x="-1" y="-1"><feGaussianBlur result="blurOut" stdDeviation="2.0"/><feColorMatrix in="blurOut" result="blurOut2" type="matrix" values="0 0 0 0 0 0 0 0 0 0 0 0 0 0 0 0 0 0 .4 0"/><feOffset dx="4.0" dy="4.0" in="blurOut2" result="blurOut3"/><feBlend in="SourceGraphic" in2="blurOut3" mode="normal"/></filter></defs><g><rect fill="#FFFFFF" filter="url(#fygr4tjvpkbpd)" height="85.9316" style="stroke: #000000; stroke-width: 2.0;" width="626" x="123" y="233.7305"/><line style="stroke: #A80036; stroke-width: 1.0; stroke-dasharray: 5.0,5.0;" x1="26" x2="26" y1="86.4883" y2="395.2832"/><line style="stroke: #A80036; stroke-width: 1.0; stroke-dasharray: 5.0,5.0;" x1="141" x2="141" y1="86.4883" y2="395.2832"/><line style="stroke: #A80036; stroke-width: 1.0; stroke-dasharray: 5.0,5.0;" x1="334" x2="334" y1="86.4883" y2="395.2832"/><line style="stroke: #A80036; stroke-width: 1.0; stroke-dasharray: 5.0,5.0;" x1="534" x2="534" y1="86.4883" y2="395.2832"/><text fill="#000000" font-family="sans-serif" font-size="14" lengthAdjust="spacingAndGlyphs" text-decoration="underline" textLength="31" x="8" y="83.5352">User</text><line style="stroke: #000000; stroke-width: 1.0;" x1="8" x2="39" y1="85.5352" y2="85.5352"/><ellipse cx="26.5" cy="13" fill="#FEFECE" filter="url(#fygr4tjvpkbpd)" rx="8" ry="8" style="stroke: #A80036; stroke-width: 2.0;"/><path d="M26.5,21 L26.5,48 M13.5,29 L39.5,29 M26.5,48 L13.5,63 M26.5,48 L39.5,63 " fill="none" filter="url(#fygr4tjvpkbpd)" style="stroke: #A80036; stroke-width: 2.0;"/><rect fill="#FEFECE" filter="url(#fygr4tjvpkbpd)" height="30.4883" style="stroke: #A80036; stroke-width: 1.5;" width="169" x="55" y="51"/><text fill="#000000" font-family="sans-serif" font-size="14" lengthAdjust="spacingAndGlyphs" text-decoration="underline" textLength="155" x="62" y="71.5352">:PreviewOnline***Page</text><line style="stroke: #000000; stroke-width: 1.0;" x1="62" x2="217" y1="73.5352" y2="73.5352"/><rect fill="#FEFECE" filter="url(#fygr4tjvpkbpd)" height="30.4883" style="stroke: #A80036; stroke-width: 1.5;" width="188" x="238" y="51"/><text fill="#000000" font-family="sans-serif" font-size="14" lengthAdjust="spacingAndGlyphs" text-decoration="underline" textLength="174" x="245" y="71.5352">:PreviewOnline***Control</text><line style="stroke: #000000; stroke-width: 1.0;" x1="245" x2="419" y1="73.5352" y2="73.5352"/><rect fill="#FEFECE" filter="url(#fygr4tjvpkbpd)" height="30.4883" style="stroke: #A80036; stroke-width: 1.5;" width="184" x="440" y="51"/><text fill="#000000" font-family="sans-serif" font-size="14" lengthAdjust="spacingAndGlyphs" text-decoration="underline" textLength="170" x="447" y="71.5352">:LocalSoundSpaceLibrary</text><line style="stroke: #000000; stroke-width: 1.0;" x1="447" x2="617" y1="73.5352" y2="73.5352"/><polygon fill="#A80036" points="129.5,113.4883,139.5,117.4883,129.5,121.4883,133.5,117.4883" style="stroke: #A80036; stroke-width: 1.0;"/><line style="stroke: #A80036; stroke-width: 1.0;" x1="26.5" x2="135.5" y1="117.4883" y2="117.4883"/><text fill="#000000" font-family="sans-serif" font-size="13" lengthAdjust="spacingAndGlyphs" textLength="83" x="33.5" y="113.0566">downloadVSS</text><polygon fill="#A80036" points="322,142.7988,332,146.7988,322,150.7988,326,146.7988" style="stroke: #A80036; stroke-width: 1.0;"/><line style="stroke: #A80036; stroke-width: 1.0;" x1="141.5" x2="328" y1="146.7988" y2="146.7988"/><text fill="#000000" font-family="sans-serif" font-size="13" lengthAdjust="spacingAndGlyphs" textLength="83" x="148.5" y="142.3672">downloadVSS</text><polygon fill="#A80036" points="522,172.1094,532,176.1094,522,180.1094,526,176.1094" style="stroke: #A80036; stroke-width: 1.0;"/><line style="stroke: #A80036; stroke-width: 1.0;" x1="334" x2="528" y1="176.1094" y2="176.1094"/><text fill="#000000" font-family="sans-serif" font-size="13" lengthAdjust="spacingAndGlyphs" textLength="137" x="341" y="171.6777">downloadVSS(thisVSS)</text><line style="stroke: #A80036; stroke-width: 1.0;" x1="534" x2="576" y1="205.7305" y2="205.7305"/><line style="stroke: #A80036; stroke-width: 1.0;" x1="576" x2="576" y1="205.7305" y2="218.7305"/><line style="stroke: #A80036; stroke-width: 1.0;" x1="535" x2="576" y1="218.7305" y2="218.7305"/><polygon fill="#A80036" points="545,214.7305,535,218.7305,545,222.7305,541,218.7305" style="stroke: #A80036; stroke-width: 1.0;"/><text fill="#000000" font-family="sans-serif" font-size="13" lengthAdjust="spacingAndGlyphs" textLength="201" x="541" y="200.9883">GetVSSID(thisVSS):list&lt;SFHash&gt;</text><path d="M123,233.7305 L197,233.7305 L197,240.7305 L187,250.7305 L123,250.7305 L123,233.7305 " fill="#EEEEEE" style="stroke: #000000; stroke-width: 1.0;"/><rect fill="none" height="85.9316" style="stroke: #000000; stroke-width: 2.0;" width="626" x="123" y="233.7305"/><text fill="#000000" font-family="sans-serif" font-size="13" font-weight="bold" lengthAdjust="spacingAndGlyphs" textLength="29" x="138" y="247.2988">loop</text><text fill="#000000" font-family="sans-serif" font-size="11" font-weight="bold" lengthAdjust="spacingAndGlyphs" textLength="100" x="212" y="246.3652">[list is not empty]</text><polygon fill="#A80036" points="737,273.041,747,277.041,737,281.041,741,277.041" style="stroke: #A80036; stroke-width: 1.0;"/><line style="stroke: #A80036; stroke-width: 1.0;" x1="534" x2="743" y1="277.041" y2="277.041"/><text fill="#000000" font-family="sans-serif" font-size="13" lengthAdjust="spacingAndGlyphs" textLength="167" x="541" y="272.6094">DownloadRequest(SFHash)</text><path d="M133,256.041 L133,281.041 L525,281.041 L525,266.041 L515,256.041 L133,256.041 " fill="#FBFB77" filter="url(#fygr4tjvpkbpd)" style="stroke: #A80036; stroke-width: 1.0;"/><path d="M515,256.041 L515,266.041 L525,266.041 L515,256.041 " fill="#FBFB77" style="stroke: #A80036; stroke-width: 1.0;"/><text fill="#000000" font-family="sans-serif" font-size="13" lengthAdjust="spacingAndGlyphs" textLength="371" x="139" y="273.6094">每完成一个SF的下载便从&#8;任务列表中pop出这个SF对应的SFHash</text><polygon fill="#A80036" points="545,307.3516,535,311.3516,545,315.3516,541,311.3516" style="stroke: #A80036; stroke-width: 1.0;"/><line style="stroke: #A80036; stroke-width: 1.0;" x1="539" x2="748" y1="311.3516" y2="311.3516"/><text fill="#000000" font-family="sans-serif" font-size="13" lengthAdjust="spacingAndGlyphs" textLength="14" x="551" y="306.9199">SF</text><polygon fill="#A80036" points="345,343.6621,335,347.6621,345,351.6621,341,347.6621" style="stroke: #A80036; stroke-width: 1.0;"/><line style="stroke: #A80036; stroke-width: 1.0;" x1="339" x2="533" y1="347.6621" y2="347.6621"/><text fill="#000000" font-family="sans-serif" font-size="13" lengthAdjust="spacingAndGlyphs" textLength="60" x="351" y="343.2305">Response</text><polygon fill="#A80036" points="152.5,372.9727,142.5,376.9727,152.5,380.9727,148.5,376.9727" style="stroke: #A80036; stroke-width: 1.0;"/><line style="stroke: #A80036; stroke-width: 1.0;" x1="146.5" x2="333" y1="376.9727" y2="376.9727"/><text fill="#000000" font-family="sans-serif" font-size="13" lengthAdjust="spacingAndGlyphs" textLength="60" x="158.5" y="372.541">Response</text><!--
@startuml Diagrams/DownloadVSS
hide footbox
skinparam sequenceParticipant underline
actor User as user
participant ":PreviewOnline***Page" as page
participant ":PreviewOnline***Control" as control
participant ":LocalSoundSpaceLibrary" as library
user -> page: downloadVSS
page -> control: downloadVSS
control -> library: downloadVSS(thisVSS)
library->library:GetVSSID(thisVSS):list<SFHash>
loop list is not empty
  library->:DownloadRequest(SFHash)
  note left: 每完成一个SF的下载便从任务列表中pop出这个SF对应的SFHash
  library<-:SF
end
library->control:Response
control->page:Response


@enduml

PlantUML version 1.2018.01(Mon Jan 29 02:08:22 CST 2018)
(GPL source distribution)
Java Runtime: Java(TM) SE Runtime Environment
JVM: Java HotSpot(TM) 64-Bit Server VM
Java Version: 9+181
Operating System: Mac OS X
OS Version: 10.12.6
Default Encoding: UTF-8
Language: zh
Country: CN
--></g></svg>