<?xml version="1.0" encoding="UTF-8" standalone="no"?><svg xmlns="http://www.w3.org/2000/svg" xmlns:xlink="http://www.w3.org/1999/xlink" contentScriptType="application/ecmascript" contentStyleType="text/css" height="404px" preserveAspectRatio="none" style="width:689px;height:404px;" version="1.1" viewBox="0 0 689 404"
    width="689px" zoomAndPan="magnify"><defs><filter height="300%" id="f1dcevkypopubj" width="300%" x="-1" y="-1"><feGaussianBlur result="blurOut" stdDeviation="2.0"/><feColorMatrix in="blurOut" result="blurOut2" type="matrix" values="0 0 0 0 0 0 0 0 0 0 0 0 0 0 0 0 0 0 .4 0"/><feOffset dx="4.0" dy="4.0" in="blurOut2" result="blurOut3"/><feBlend in="SourceGraphic" in2="blurOut3" mode="normal"/></filter></defs><g><rect fill="#FFFFFF" filter="url(#f1dcevkypopubj)" height="237.3267" style="stroke: #000000; stroke-width: 2.0;" width="665.5" x="12" y="137.8745"/><rect fill="#FFFFFF" height="122.2861" style="stroke: none; stroke-width: 1.0;" width="665.5" x="12" y="252.915"/><line style="stroke: #A80036; stroke-width: 1.0; stroke-dasharray: 5.0,5.0;" x1="89" x2="89" y1="89.1201" y2="392.2012"/><line style="stroke: #A80036; stroke-width: 1.0; stroke-dasharray: 5.0,5.0;" x1="242.5" x2="242.5" y1="89.1201" y2="392.2012"/><line style="stroke: #A80036; stroke-width: 1.0; stroke-dasharray: 5.0,5.0;" x1="409.5" x2="409.5" y1="89.1201" y2="392.2012"/><line style="stroke: #A80036; stroke-width: 1.0; stroke-dasharray: 5.0,5.0;" x1="573.5" x2="573.5" y1="89.1201" y2="392.2012"/><text fill="#000000" font-family="sans-serif" font-size="14" lengthAdjust="spacingAndGlyphs" text-decoration="underline" textLength="29" x="72" y="86.0439">User</text><line style="stroke: #000000; stroke-width: 1.0;" x1="72" x2="101" y1="88.0439" y2="88.0439"/><ellipse cx="89.5" cy="13" fill="#FEFECE" filter="url(#f1dcevkypopubj)" rx="8" ry="8" style="stroke: #A80036; stroke-width: 2.0;"/><path d="M89.5,21 L89.5,48 M76.5,29 L102.5,29 M89.5,48 L76.5,63 M89.5,48 L102.5,63 " fill="none" filter="url(#f1dcevkypopubj)" style="stroke: #A80036; stroke-width: 2.0;"/><rect fill="#FEFECE" filter="url(#f1dcevkypopubj)" height="33.1201" style="stroke: #A80036; stroke-width: 1.5;" width="190" x="145.5" y="51"/><text fill="#000000" font-family="sans-serif" font-size="14" lengthAdjust="spacingAndGlyphs" text-decoration="underline" textLength="176" x="152.5" y="74.0439">:PreviewOnline***ViewModel</text><line style="stroke: #000000; stroke-width: 1.0;" x1="152.5" x2="328.5" y1="76.0439" y2="76.0439"/><rect fill="#FEFECE" filter="url(#f1dcevkypopubj)" height="33.1201" style="stroke: #A80036; stroke-width: 1.5;" width="116" x="349.5" y="51"/><text fill="#000000" font-family="sans-serif" font-size="14" lengthAdjust="spacingAndGlyphs" text-decoration="underline" textLength="102" x="356.5" y="74.0439">:UserInfoControl</text><line style="stroke: #000000; stroke-width: 1.0;" x1="356.5" x2="458.5" y1="76.0439" y2="76.0439"/><rect fill="#FEFECE" filter="url(#f1dcevkypopubj)" height="33.1201" style="stroke: #A80036; stroke-width: 1.5;" width="184" x="479.5" y="51"/><text fill="#000000" font-family="sans-serif" font-size="14" lengthAdjust="spacingAndGlyphs" text-decoration="underline" textLength="170" x="486.5" y="74.0439">:OnlineSoundSpaceLibrary</text><line style="stroke: #000000; stroke-width: 1.0;" x1="486.5" x2="656.5" y1="76.0439" y2="76.0439"/><polygon fill="#A80036" points="230.5,118.8745,240.5,122.8745,230.5,126.8745,234.5,122.8745" style="stroke: #A80036; stroke-width: 1.0;"/><line style="stroke: #A80036; stroke-width: 1.0;" x1="89.5" x2="236.5" y1="122.8745" y2="122.8745"/><text fill="#000000" font-family="sans-serif" font-size="13" lengthAdjust="spacingAndGlyphs" textLength="129" x="96.5" y="118.0181">onLikeButtonToggled()</text><path d="M12,137.8745 L73,137.8745 L73,146.8745 L63,156.8745 L12,156.8745 L12,137.8745 " fill="#EEEEEE" style="stroke: #000000; stroke-width: 1.0;"/><rect fill="none" height="237.3267" style="stroke: #000000; stroke-width: 2.0;" width="665.5" x="12" y="137.8745"/><text fill="#000000" font-family="sans-serif" font-size="13" font-weight="bold" lengthAdjust="spacingAndGlyphs" textLength="16" x="27" y="153.7725">alt</text><text fill="#000000" font-family="sans-serif" font-size="11" font-weight="bold" lengthAdjust="spacingAndGlyphs" textLength="56" x="88" y="152.4805">[not liked]</text><polygon fill="#A80036" points="397.5,177.4063,407.5,181.4063,397.5,185.4063,401.5,181.4063" style="stroke: #A80036; stroke-width: 1.0;"/><line style="stroke: #A80036; stroke-width: 1.0;" x1="242.5" x2="403.5" y1="181.4063" y2="181.4063"/><text fill="#000000" font-family="sans-serif" font-size="13" lengthAdjust="spacingAndGlyphs" textLength="107" x="249.5" y="176.5498">getCurrentUserID()</text><polygon fill="#A80036" points="253.5,209.1606,243.5,213.1606,253.5,217.1606,249.5,213.1606" style="stroke: #A80036; stroke-width: 1.0;"/><line style="stroke: #A80036; stroke-width: 1.0; stroke-dasharray: 2.0,2.0;" x1="247.5" x2="408.5" y1="213.1606" y2="213.1606"/><text fill="#000000" font-family="sans-serif" font-size="13" lengthAdjust="spacingAndGlyphs" textLength="79" x="259.5" y="208.3042">currentUserID</text><polygon fill="#A80036" points="561.5,240.915,571.5,244.915,561.5,248.915,565.5,244.915" style="stroke: #A80036; stroke-width: 1.0;"/><line style="stroke: #A80036; stroke-width: 1.0;" x1="242.5" x2="567.5" y1="244.915" y2="244.915"/><text fill="#000000" font-family="sans-serif" font-size="13" lengthAdjust="spacingAndGlyphs" textLength="101" x="249.5" y="240.0586">addLike(thisVSS)</text><line style="stroke: #000000; stroke-width: 1.0; stroke-dasharray: 2.0,2.0;" x1="12" x2="677.5" y1="253.915" y2="253.915"/><text fill="#000000" font-family="sans-serif" font-size="11" font-weight="bold" lengthAdjust="spacingAndGlyphs" textLength="78" x="17" y="266.521">[already liked]</text><polygon fill="#A80036" points="397.5,289.6924,407.5,293.6924,397.5,297.6924,401.5,293.6924" style="stroke: #A80036; stroke-width: 1.0;"/><line style="stroke: #A80036; stroke-width: 1.0;" x1="242.5" x2="403.5" y1="293.6924" y2="293.6924"/><text fill="#000000" font-family="sans-serif" font-size="13" lengthAdjust="spacingAndGlyphs" textLength="107" x="249.5" y="288.8359">getCurrentUserID()</text><polygon fill="#A80036" points="253.5,321.4468,243.5,325.4468,253.5,329.4468,249.5,325.4468" style="stroke: #A80036; stroke-width: 1.0;"/><line style="stroke: #A80036; stroke-width: 1.0; stroke-dasharray: 2.0,2.0;" x1="247.5" x2="408.5" y1="325.4468" y2="325.4468"/><text fill="#000000" font-family="sans-serif" font-size="13" lengthAdjust="spacingAndGlyphs" textLength="79" x="259.5" y="320.5903">currentUserID</text><polygon fill="#A80036" points="561.5,358.2012,571.5,362.2012,561.5,366.2012,565.5,362.2012" style="stroke: #A80036; stroke-width: 1.0;"/><line style="stroke: #A80036; stroke-width: 1.0;" x1="242.5" x2="567.5" y1="362.2012" y2="362.2012"/><text fill="#000000" font-family="sans-serif" font-size="13" lengthAdjust="spacingAndGlyphs" textLength="121" x="249.5" y="357.3447">removeLike(thisVSS)</text><path d="M22,338.4468 L22,365.4468 L233,365.4468 L233,348.4468 L223,338.4468 L22,338.4468 " fill="#FBFB77" filter="url(#f1dcevkypopubj)" style="stroke: #A80036; stroke-width: 1.0;"/><path d="M223,338.4468 L223,348.4468 L233,348.4468 L223,338.4468 " fill="#FBFB77" style="stroke: #A80036; stroke-width: 1.0;"/><text fill="#000000" font-family="sans-serif" font-size="13" lengthAdjust="spacingAndGlyphs" textLength="190" x="28" y="358.3447">In this case, the VSS is disliked.</text><!--
@startuml Diagrams/LikeVSS
hide footbox
skinparam sequenceParticipant underline
actor User as user
participant ":PreviewOnline***ViewModel" as viewModel
participant ":UserInfoControl" as info
participant ":OnlineSoundSpaceLibrary" as library

user -> viewModel: onLikeButtonToggled()
alt not liked
    viewModel -> info: getCurrentUserID()
    info - -> viewModel: currentUserID
    viewModel -> library: addLike(thisVSS)
else already liked
    viewModel -> info: getCurrentUserID()
    info - -> viewModel: currentUserID
    viewModel -> library: removeLike(thisVSS)
    note left: In this case, the VSS is disliked.
end

@enduml

PlantUML version 1.2018.02(Sat Mar 10 01:20:44 CST 2018)
(GPL source distribution)
Java Runtime: Java(TM) SE Runtime Environment
JVM: Java HotSpot(TM) Client VM
Java Version: 1.8.0_162-b12
Operating System: Windows 10
OS Version: 10.0
Default Encoding: GBK
Language: zh
Country: CN
--></g></svg>