<?xml version="1.0" encoding="UTF-8" standalone="no"?><svg xmlns="http://www.w3.org/2000/svg" xmlns:xlink="http://www.w3.org/1999/xlink" contentScriptType="application/ecmascript" contentStyleType="text/css" height="442px" preserveAspectRatio="none" style="width:1101px;height:442px;" version="1.1" viewBox="0 0 1101 442"
    width="1101px" zoomAndPan="magnify"><defs><filter height="300%" id="f1ke9m54ucqa0b" width="300%" x="-1" y="-1"><feGaussianBlur result="blurOut" stdDeviation="2.0"/><feColorMatrix in="blurOut" result="blurOut2" type="matrix" values="0 0 0 0 0 0 0 0 0 0 0 0 0 0 0 0 0 0 .4 0"/><feOffset dx="4.0" dy="4.0" in="blurOut2" result="blurOut3"/><feBlend in="SourceGraphic" in2="blurOut3" mode="normal"/></filter></defs><g><text fill="#000000" font-family="sans-serif" font-size="14" font-weight="bold" lengthAdjust="spacingAndGlyphs" textLength="56" x="523" y="23.5352">LikeVSS</text><rect fill="#FFFFFF" filter="url(#f1ke9m54ucqa0b)" height="279.7949" style="stroke: #000000; stroke-width: 2.0;" width="1076" x="13" y="133.9766"/><rect fill="#FFFFFF" height="132.2422" style="stroke: none; stroke-width: 1.0;" width="1076" x="13" y="281.5293"/><line style="stroke: #A80036; stroke-width: 1.0; stroke-dasharray: 5.0,5.0;" x1="116" x2="116" y1="116.9766" y2="430.7715"/><line style="stroke: #A80036; stroke-width: 1.0; stroke-dasharray: 5.0,5.0;" x1="297" x2="297" y1="116.9766" y2="430.7715"/><line style="stroke: #A80036; stroke-width: 1.0; stroke-dasharray: 5.0,5.0;" x1="564" x2="564" y1="116.9766" y2="430.7715"/><line style="stroke: #A80036; stroke-width: 1.0; stroke-dasharray: 5.0,5.0;" x1="830.5" x2="830.5" y1="116.9766" y2="430.7715"/><text fill="#000000" font-family="sans-serif" font-size="14" lengthAdjust="spacingAndGlyphs" text-decoration="underline" textLength="180" x="23" y="114.0234">:OnlineSoundSpaceLibrary</text><line style="stroke: #000000; stroke-width: 1.0;" x1="23" x2="203" y1="116.0234" y2="116.0234"/><ellipse cx="116" cy="43.4883" fill="#FEFECE" filter="url(#f1ke9m54ucqa0b)" rx="8" ry="8" style="stroke: #A80036; stroke-width: 2.0;"/><path d="M116,51.4883 L116,78.4883 M103,59.4883 L129,59.4883 M116,78.4883 L103,93.4883 M116,78.4883 L129,93.4883 " fill="none" filter="url(#f1ke9m54ucqa0b)" style="stroke: #A80036; stroke-width: 2.0;"/><rect fill="#FEFECE" filter="url(#f1ke9m54ucqa0b)" height="30.4883" style="stroke: #A80036; stroke-width: 1.5;" width="120" x="235" y="81.4883"/><text fill="#000000" font-family="sans-serif" font-size="14" lengthAdjust="spacingAndGlyphs" text-decoration="underline" textLength="106" x="242" y="102.0234">:Communicator</text><line style="stroke: #000000; stroke-width: 1.0;" x1="242" x2="348" y1="104.0234" y2="104.0234"/><rect fill="#FEFECE" filter="url(#f1ke9m54ucqa0b)" height="30.4883" style="stroke: #A80036; stroke-width: 1.5;" width="90" x="517" y="81.4883"/><text fill="#000000" font-family="sans-serif" font-size="14" lengthAdjust="spacingAndGlyphs" text-decoration="underline" textLength="76" x="524" y="102.0234">:WebServer</text><line style="stroke: #000000; stroke-width: 1.0;" x1="524" x2="600" y1="104.0234" y2="104.0234"/><rect fill="#FEFECE" filter="url(#f1ke9m54ucqa0b)" height="30.4883" style="stroke: #A80036; stroke-width: 1.5;" width="187" x="735.5" y="81.4883"/><text fill="#000000" font-family="sans-serif" font-size="14" lengthAdjust="spacingAndGlyphs" text-decoration="underline" textLength="173" x="742.5" y="102.0234">:VSSInformationDatabase</text><line style="stroke: #000000; stroke-width: 1.0;" x1="742.5" x2="915.5" y1="104.0234" y2="104.0234"/><path d="M13,133.9766 L75,133.9766 L75,140.9766 L65,150.9766 L13,150.9766 L13,133.9766 " fill="#EEEEEE" style="stroke: #000000; stroke-width: 1.0;"/><rect fill="none" height="279.7949" style="stroke: #000000; stroke-width: 2.0;" width="1076" x="13" y="133.9766"/><text fill="#000000" font-family="sans-serif" font-size="13" font-weight="bold" lengthAdjust="spacingAndGlyphs" textLength="17" x="28" y="147.5449">alt</text><polygon fill="#A80036" points="285,168.2871,295,172.2871,285,176.2871,289,172.2871" style="stroke: #A80036; stroke-width: 1.0;"/><line style="stroke: #A80036; stroke-width: 1.0;" x1="116" x2="291" y1="172.2871" y2="172.2871"/><text fill="#000000" font-family="sans-serif" font-size="13" lengthAdjust="spacingAndGlyphs" textLength="134" x="123" y="167.8555">addLike(thisVSS):void</text><polygon fill="#A80036" points="552,197.5977,562,201.5977,552,205.5977,556,201.5977" style="stroke: #A80036; stroke-width: 1.0;"/><line style="stroke: #A80036; stroke-width: 1.0;" x1="297" x2="558" y1="201.5977" y2="201.5977"/><text fill="#000000" font-family="sans-serif" font-size="13" lengthAdjust="spacingAndGlyphs" textLength="243" x="304" y="197.166">LikeRequest(VSSID:int, UserID:int):void</text><polygon fill="#A80036" points="819,226.9082,829,230.9082,819,234.9082,823,230.9082" style="stroke: #A80036; stroke-width: 1.0;"/><line style="stroke: #A80036; stroke-width: 1.0;" x1="564" x2="825" y1="230.9082" y2="230.9082"/><text fill="#000000" font-family="sans-serif" font-size="13" lengthAdjust="spacingAndGlyphs" textLength="243" x="571" y="226.4766">LikeRequest(VSSID:int, UserID:int):void</text><line style="stroke: #A80036; stroke-width: 1.0;" x1="831" x2="873" y1="260.5293" y2="260.5293"/><line style="stroke: #A80036; stroke-width: 1.0;" x1="873" x2="873" y1="260.5293" y2="273.5293"/><line style="stroke: #A80036; stroke-width: 1.0;" x1="832" x2="873" y1="273.5293" y2="273.5293"/><polygon fill="#A80036" points="842,269.5293,832,273.5293,842,277.5293,838,273.5293" style="stroke: #A80036; stroke-width: 1.0;"/><text fill="#000000" font-family="sans-serif" font-size="13" lengthAdjust="spacingAndGlyphs" textLength="195" x="838" y="255.7871">UpdateLike(VSSID, UserID):void</text><path d="M497,245.7188 L497,270.7188 L822,270.7188 L822,255.7188 L812,245.7188 L497,245.7188 " fill="#FBFB77" filter="url(#f1ke9m54ucqa0b)" style="stroke: #A80036; stroke-width: 1.0;"/><path d="M812,245.7188 L812,255.7188 L822,255.7188 L812,245.7188 " fill="#FBFB77" style="stroke: #A80036; stroke-width: 1.0;"/><text fill="#000000" font-family="sans-serif" font-size="13" lengthAdjust="spacingAndGlyphs" textLength="304" x="503" y="263.2871">将VSSID和UserID构成的数对存入VSS_Like_Table中</text><line style="stroke: #000000; stroke-width: 1.0; stroke-dasharray: 2.0,2.0;" x1="13" x2="1089" y1="282.5293" y2="282.5293"/><polygon fill="#A80036" points="285,300.5293,295,304.5293,285,308.5293,289,304.5293" style="stroke: #A80036; stroke-width: 1.0;"/><line style="stroke: #A80036; stroke-width: 1.0;" x1="116" x2="291" y1="304.5293" y2="304.5293"/><text fill="#000000" font-family="sans-serif" font-size="13" lengthAdjust="spacingAndGlyphs" textLength="157" x="123" y="300.0977">removeLike(thisVSS):void</text><polygon fill="#A80036" points="552,329.8398,562,333.8398,552,337.8398,556,333.8398" style="stroke: #A80036; stroke-width: 1.0;"/><line style="stroke: #A80036; stroke-width: 1.0;" x1="297" x2="558" y1="333.8398" y2="333.8398"/><text fill="#000000" font-family="sans-serif" font-size="13" lengthAdjust="spacingAndGlyphs" textLength="239" x="304" y="329.4082">removeLike(VSSID:int, UserID:int):void</text><polygon fill="#A80036" points="819,359.1504,829,363.1504,819,367.1504,823,363.1504" style="stroke: #A80036; stroke-width: 1.0;"/><line style="stroke: #A80036; stroke-width: 1.0;" x1="564" x2="825" y1="363.1504" y2="363.1504"/><text fill="#000000" font-family="sans-serif" font-size="13" lengthAdjust="spacingAndGlyphs" textLength="239" x="571" y="358.7188">removeLike(VSSID:int, UserID:int):void</text><line style="stroke: #A80036; stroke-width: 1.0;" x1="831" x2="873" y1="392.7715" y2="392.7715"/><line style="stroke: #A80036; stroke-width: 1.0;" x1="873" x2="873" y1="392.7715" y2="405.7715"/><line style="stroke: #A80036; stroke-width: 1.0;" x1="832" x2="873" y1="405.7715" y2="405.7715"/><polygon fill="#A80036" points="842,401.7715,832,405.7715,842,409.7715,838,405.7715" style="stroke: #A80036; stroke-width: 1.0;"/><text fill="#000000" font-family="sans-serif" font-size="13" lengthAdjust="spacingAndGlyphs" textLength="239" x="838" y="388.0293">removeLike(VSSID:int, UserID:int):void</text><path d="M484,377.9609 L484,402.9609 L822,402.9609 L822,387.9609 L812,377.9609 L484,377.9609 " fill="#FBFB77" filter="url(#f1ke9m54ucqa0b)" style="stroke: #A80036; stroke-width: 1.0;"/><path d="M812,377.9609 L812,387.9609 L822,387.9609 L812,377.9609 " fill="#FBFB77" style="stroke: #A80036; stroke-width: 1.0;"/><text fill="#000000" font-family="sans-serif" font-size="13" lengthAdjust="spacingAndGlyphs" textLength="317" x="490" y="395.5293">将VSSID&#8;和UserID构成的数对从VSS_Like_Table中删除</text><!--
@startuml Diagrams/LikeVSSServerSequenceDiagram
title LikeVSS
hide footbox
skinparam sequenceParticipant underline
actor ":OnlineSoundSpaceLibrary" as Client
participant ":Communicator" as Communicator
participant ":WebServer" as WebServer
participant ":VSSInformationDatabase" as VSSInformationDatabase
alt
  Client->Communicator:addLike(thisVSS):void
  Communicator->WebServer:LikeRequest(VSSID:int, UserID:int):void
  WebServer->VSSInformationDatabase:LikeRequest(VSSID:int, UserID:int):void
  VSSInformationDatabase->VSSInformationDatabase:UpdateLike(VSSID, UserID):void
  note left: 将VSSID和UserID构成的数对存入VSS_Like_Table中
else
  Client->Communicator:removeLike(thisVSS):void
  Communicator->WebServer:removeLike(VSSID:int, UserID:int):void
  WebServer->VSSInformationDatabase:removeLike(VSSID:int, UserID:int):void
  VSSInformationDatabase->VSSInformationDatabase:removeLike(VSSID:int, UserID:int):void
  note left: 将VSSID和UserID构成的数对从VSS_Like_Table中删除
end
@enduml

PlantUML version 1.2018.01(Mon Jan 29 02:08:22 CST 2018)
(GPL source distribution)
Java Runtime: Java(TM) SE Runtime Environment
JVM: Java HotSpot(TM) 64-Bit Server VM
Java Version: 9+181
Operating System: Mac OS X
OS Version: 10.12.6
Default Encoding: UTF-8
Language: zh
Country: CN
--></g></svg>