<?xml version="1.0" encoding="UTF-8" standalone="no"?><svg xmlns="http://www.w3.org/2000/svg" xmlns:xlink="http://www.w3.org/1999/xlink" contentScriptType="application/ecmascript" contentStyleType="text/css" height="379px" preserveAspectRatio="none" style="width:730px;height:379px;" version="1.1" viewBox="0 0 730 379"
    width="730px" zoomAndPan="magnify"><defs><filter height="300%" id="f1dcevkypopubj" width="300%" x="-1" y="-1"><feGaussianBlur result="blurOut" stdDeviation="2.0"/><feColorMatrix in="blurOut" result="blurOut2" type="matrix" values="0 0 0 0 0 0 0 0 0 0 0 0 0 0 0 0 0 0 .4 0"/><feOffset dx="4.0" dy="4.0" in="blurOut2" result="blurOut3"/><feBlend in="SourceGraphic" in2="blurOut3" mode="normal"/></filter></defs><g><rect fill="#FFFFFF" filter="url(#f1dcevkypopubj)" height="218.1289" style="stroke: #000000; stroke-width: 2.0;" width="706.5" x="12" y="132.7988"/><rect fill="#FFFFFF" height="112.8867" style="stroke: none; stroke-width: 1.0;" width="706.5" x="12" y="238.041"/><line style="stroke: #A80036; stroke-width: 1.0; stroke-dasharray: 5.0,5.0;" x1="85" x2="85" y1="86.4883" y2="367.9277"/><line style="stroke: #A80036; stroke-width: 1.0; stroke-dasharray: 5.0,5.0;" x1="251.5" x2="251.5" y1="86.4883" y2="367.9277"/><line style="stroke: #A80036; stroke-width: 1.0; stroke-dasharray: 5.0,5.0;" x1="434.5" x2="434.5" y1="86.4883" y2="367.9277"/><line style="stroke: #A80036; stroke-width: 1.0; stroke-dasharray: 5.0,5.0;" x1="609.5" x2="609.5" y1="86.4883" y2="367.9277"/><text fill="#000000" font-family="sans-serif" font-size="14" lengthAdjust="spacingAndGlyphs" text-decoration="underline" textLength="31" x="67" y="83.5352">User</text><line style="stroke: #000000; stroke-width: 1.0;" x1="67" x2="98" y1="85.5352" y2="85.5352"/><ellipse cx="85.5" cy="13" fill="#FEFECE" filter="url(#f1dcevkypopubj)" rx="8" ry="8" style="stroke: #A80036; stroke-width: 2.0;"/><path d="M85.5,21 L85.5,48 M72.5,29 L98.5,29 M85.5,48 L72.5,63 M85.5,48 L98.5,63 " fill="none" filter="url(#f1dcevkypopubj)" style="stroke: #A80036; stroke-width: 2.0;"/><rect fill="#FEFECE" filter="url(#f1dcevkypopubj)" height="30.4883" style="stroke: #A80036; stroke-width: 1.5;" width="210" x="144.5" y="51"/><text fill="#000000" font-family="sans-serif" font-size="14" lengthAdjust="spacingAndGlyphs" text-decoration="underline" textLength="196" x="151.5" y="71.5352">:PreviewOnline***ViewModel</text><line style="stroke: #000000; stroke-width: 1.0;" x1="151.5" x2="347.5" y1="73.5352" y2="73.5352"/><rect fill="#FEFECE" filter="url(#f1dcevkypopubj)" height="30.4883" style="stroke: #A80036; stroke-width: 1.5;" width="128" x="368.5" y="51"/><text fill="#000000" font-family="sans-serif" font-size="14" lengthAdjust="spacingAndGlyphs" text-decoration="underline" textLength="114" x="375.5" y="71.5352">:UserInfoControl</text><line style="stroke: #000000; stroke-width: 1.0;" x1="375.5" x2="489.5" y1="73.5352" y2="73.5352"/><rect fill="#FEFECE" filter="url(#f1dcevkypopubj)" height="30.4883" style="stroke: #A80036; stroke-width: 1.5;" width="194" x="510.5" y="51"/><text fill="#000000" font-family="sans-serif" font-size="14" lengthAdjust="spacingAndGlyphs" text-decoration="underline" textLength="180" x="517.5" y="71.5352">:OnlineSoundSpaceLibrary</text><line style="stroke: #000000; stroke-width: 1.0;" x1="517.5" x2="697.5" y1="73.5352" y2="73.5352"/><polygon fill="#A80036" points="239.5,113.4883,249.5,117.4883,239.5,121.4883,243.5,117.4883" style="stroke: #A80036; stroke-width: 1.0;"/><line style="stroke: #A80036; stroke-width: 1.0;" x1="85.5" x2="245.5" y1="117.4883" y2="117.4883"/><text fill="#000000" font-family="sans-serif" font-size="13" lengthAdjust="spacingAndGlyphs" textLength="142" x="92.5" y="113.0566">onLikeButtonToggled()</text><path d="M12,132.7988 L74,132.7988 L74,139.7988 L64,149.7988 L12,149.7988 L12,132.7988 " fill="#EEEEEE" style="stroke: #000000; stroke-width: 1.0;"/><rect fill="none" height="218.1289" style="stroke: #000000; stroke-width: 2.0;" width="706.5" x="12" y="132.7988"/><text fill="#000000" font-family="sans-serif" font-size="13" font-weight="bold" lengthAdjust="spacingAndGlyphs" textLength="17" x="27" y="146.3672">alt</text><text fill="#000000" font-family="sans-serif" font-size="11" font-weight="bold" lengthAdjust="spacingAndGlyphs" textLength="58" x="89" y="145.4336">[not liked]</text><polygon fill="#A80036" points="422.5,167.1094,432.5,171.1094,422.5,175.1094,426.5,171.1094" style="stroke: #A80036; stroke-width: 1.0;"/><line style="stroke: #A80036; stroke-width: 1.0;" x1="251.5" x2="428.5" y1="171.1094" y2="171.1094"/><text fill="#000000" font-family="sans-serif" font-size="13" lengthAdjust="spacingAndGlyphs" textLength="117" x="258.5" y="166.6777">getCurrentUserID()</text><polygon fill="#A80036" points="262.5,196.4199,252.5,200.4199,262.5,204.4199,258.5,200.4199" style="stroke: #A80036; stroke-width: 1.0;"/><line style="stroke: #A80036; stroke-width: 1.0; stroke-dasharray: 2.0,2.0;" x1="256.5" x2="433.5" y1="200.4199" y2="200.4199"/><text fill="#000000" font-family="sans-serif" font-size="13" lengthAdjust="spacingAndGlyphs" textLength="87" x="268.5" y="195.9883">currentUserID</text><polygon fill="#A80036" points="597.5,225.7305,607.5,229.7305,597.5,233.7305,601.5,229.7305" style="stroke: #A80036; stroke-width: 1.0;"/><line style="stroke: #A80036; stroke-width: 1.0;" x1="251.5" x2="603.5" y1="229.7305" y2="229.7305"/><text fill="#000000" font-family="sans-serif" font-size="13" lengthAdjust="spacingAndGlyphs" textLength="103" x="258.5" y="225.2988">addLike(thisVSS)</text><line style="stroke: #000000; stroke-width: 1.0; stroke-dasharray: 2.0,2.0;" x1="12" x2="718.5" y1="239.041" y2="239.041"/><text fill="#000000" font-family="sans-serif" font-size="11" font-weight="bold" lengthAdjust="spacingAndGlyphs" textLength="80" x="17" y="249.6758">[already liked]</text><polygon fill="#A80036" points="422.5,269.9961,432.5,273.9961,422.5,277.9961,426.5,273.9961" style="stroke: #A80036; stroke-width: 1.0;"/><line style="stroke: #A80036; stroke-width: 1.0;" x1="251.5" x2="428.5" y1="273.9961" y2="273.9961"/><text fill="#000000" font-family="sans-serif" font-size="13" lengthAdjust="spacingAndGlyphs" textLength="117" x="258.5" y="269.5645">getCurrentUserID()</text><polygon fill="#A80036" points="262.5,299.3066,252.5,303.3066,262.5,307.3066,258.5,303.3066" style="stroke: #A80036; stroke-width: 1.0;"/><line style="stroke: #A80036; stroke-width: 1.0; stroke-dasharray: 2.0,2.0;" x1="256.5" x2="433.5" y1="303.3066" y2="303.3066"/><text fill="#000000" font-family="sans-serif" font-size="13" lengthAdjust="spacingAndGlyphs" textLength="87" x="268.5" y="298.875">currentUserID</text><polygon fill="#A80036" points="597.5,333.6172,607.5,337.6172,597.5,341.6172,601.5,337.6172" style="stroke: #A80036; stroke-width: 1.0;"/><line style="stroke: #A80036; stroke-width: 1.0;" x1="251.5" x2="603.5" y1="337.6172" y2="337.6172"/><text fill="#000000" font-family="sans-serif" font-size="13" lengthAdjust="spacingAndGlyphs" textLength="126" x="258.5" y="333.1855">removeLike(thisVSS)</text><path d="M22,316.6172 L22,341.6172 L242,341.6172 L242,326.6172 L232,316.6172 L22,316.6172 " fill="#FBFB77" filter="url(#f1dcevkypopubj)" style="stroke: #A80036; stroke-width: 1.0;"/><path d="M232,316.6172 L232,326.6172 L242,326.6172 L232,316.6172 " fill="#FBFB77" style="stroke: #A80036; stroke-width: 1.0;"/><text fill="#000000" font-family="sans-serif" font-size="13" lengthAdjust="spacingAndGlyphs" textLength="199" x="28" y="334.1855">In this case, the VSS is disliked.</text><!--
@startuml Diagrams/LikeVSS
hide footbox
skinparam sequenceParticipant underline
actor User as user
participant ":PreviewOnline***ViewModel" as viewModel
participant ":UserInfoControl" as info
participant ":OnlineSoundSpaceLibrary" as library

user -> viewModel: onLikeButtonToggled()
alt not liked
    viewModel -> info: getCurrentUserID()
    info - -> viewModel: currentUserID
    viewModel -> library: addLike(thisVSS)
else already liked
    viewModel -> info: getCurrentUserID()
    info - -> viewModel: currentUserID
    viewModel -> library: removeLike(thisVSS)
    note left: In this case, the VSS is disliked.
end

@enduml

PlantUML version 1.2018.01(Mon Jan 29 02:08:22 CST 2018)
(GPL source distribution)
Java Runtime: Java(TM) SE Runtime Environment
JVM: Java HotSpot(TM) 64-Bit Server VM
Java Version: 9+181
Operating System: Mac OS X
OS Version: 10.12.6
Default Encoding: UTF-8
Language: zh
Country: CN
--></g></svg>