<?xml version="1.0" encoding="UTF-8" standalone="no"?><svg xmlns="http://www.w3.org/2000/svg" xmlns:xlink="http://www.w3.org/1999/xlink" contentScriptType="application/ecmascript" contentStyleType="text/css" height="526px" preserveAspectRatio="none" style="width:1191px;height:526px;" version="1.1" viewBox="0 0 1191 526"
    width="1191px" zoomAndPan="magnify"><defs><filter height="300%" id="fxw9ww8pakknx" width="300%" x="-1" y="-1"><feGaussianBlur result="blurOut" stdDeviation="2.0"/><feColorMatrix in="blurOut" result="blurOut2" type="matrix" values="0 0 0 0 0 0 0 0 0 0 0 0 0 0 0 0 0 0 .4 0"/><feOffset dx="4.0" dy="4.0" in="blurOut2" result="blurOut3"/><feBlend in="SourceGraphic" in2="blurOut3" mode="normal"/></filter></defs><g><text fill="#000000" font-family="sans-serif" font-size="14" font-weight="bold" lengthAdjust="spacingAndGlyphs" textLength="40" x="574.5" y="23.5352">Login</text><rect fill="#FFFFFF" filter="url(#fxw9ww8pakknx)" height="190.1289" style="stroke: #000000; stroke-width: 2.0;" width="1006" x="13" y="307.1504"/><rect fill="#FFFFFF" height="73.5762" style="stroke: none; stroke-width: 1.0;" width="1006" x="13" y="423.7031"/><line style="stroke: #A80036; stroke-width: 1.0; stroke-dasharray: 5.0,5.0;" x1="83" x2="83" y1="116.9766" y2="514.2793"/><line style="stroke: #A80036; stroke-width: 1.0; stroke-dasharray: 5.0,5.0;" x1="461" x2="461" y1="116.9766" y2="514.2793"/><line style="stroke: #A80036; stroke-width: 1.0; stroke-dasharray: 5.0,5.0;" x1="734" x2="734" y1="116.9766" y2="514.2793"/><line style="stroke: #A80036; stroke-width: 1.0; stroke-dasharray: 5.0,5.0;" x1="951" x2="951" y1="116.9766" y2="514.2793"/><text fill="#000000" font-family="sans-serif" font-size="14" lengthAdjust="spacingAndGlyphs" text-decoration="underline" textLength="114" x="23" y="114.0234">:UserInfoControl</text><line style="stroke: #000000; stroke-width: 1.0;" x1="23" x2="137" y1="116.0234" y2="116.0234"/><ellipse cx="83" cy="43.4883" fill="#FEFECE" filter="url(#fxw9ww8pakknx)" rx="8" ry="8" style="stroke: #A80036; stroke-width: 2.0;"/><path d="M83,51.4883 L83,78.4883 M70,59.4883 L96,59.4883 M83,78.4883 L70,93.4883 M83,78.4883 L96,93.4883 " fill="none" filter="url(#fxw9ww8pakknx)" style="stroke: #A80036; stroke-width: 2.0;"/><rect fill="#FEFECE" filter="url(#fxw9ww8pakknx)" height="30.4883" style="stroke: #A80036; stroke-width: 1.5;" width="120" x="399" y="81.4883"/><text fill="#000000" font-family="sans-serif" font-size="14" lengthAdjust="spacingAndGlyphs" text-decoration="underline" textLength="106" x="406" y="102.0234">:Communicator</text><line style="stroke: #000000; stroke-width: 1.0;" x1="406" x2="512" y1="104.0234" y2="104.0234"/><rect fill="#FEFECE" filter="url(#fxw9ww8pakknx)" height="30.4883" style="stroke: #A80036; stroke-width: 1.5;" width="90" x="687" y="81.4883"/><text fill="#000000" font-family="sans-serif" font-size="14" lengthAdjust="spacingAndGlyphs" text-decoration="underline" textLength="76" x="694" y="102.0234">:WebServer</text><line style="stroke: #000000; stroke-width: 1.0;" x1="694" x2="770" y1="104.0234" y2="104.0234"/><rect fill="#FEFECE" filter="url(#fxw9ww8pakknx)" height="30.4883" style="stroke: #A80036; stroke-width: 1.5;" width="112" x="893" y="81.4883"/><text fill="#000000" font-family="sans-serif" font-size="14" lengthAdjust="spacingAndGlyphs" text-decoration="underline" textLength="98" x="900" y="102.0234">:UserDatabase</text><line style="stroke: #000000; stroke-width: 1.0;" x1="900" x2="998" y1="104.0234" y2="104.0234"/><polygon fill="#A80036" points="449,143.9766,459,147.9766,449,151.9766,453,147.9766" style="stroke: #A80036; stroke-width: 1.0;"/><line style="stroke: #A80036; stroke-width: 1.0;" x1="83" x2="455" y1="147.9766" y2="147.9766"/><text fill="#000000" font-family="sans-serif" font-size="13" lengthAdjust="spacingAndGlyphs" textLength="354" x="90" y="143.5449">LoginRequest(username: String, password: String):int,int</text><polygon fill="#A80036" points="722,173.2871,732,177.2871,722,181.2871,726,177.2871" style="stroke: #A80036; stroke-width: 1.0;"/><line style="stroke: #A80036; stroke-width: 1.0;" x1="461" x2="728" y1="177.2871" y2="177.2871"/><text fill="#000000" font-family="sans-serif" font-size="13" lengthAdjust="spacingAndGlyphs" textLength="249" x="468" y="172.8555">LoginRequest(UserInformation):boolean</text><polygon fill="#A80036" points="939,202.5977,949,206.5977,939,210.5977,943,206.5977" style="stroke: #A80036; stroke-width: 1.0;"/><line style="stroke: #A80036; stroke-width: 1.0;" x1="734" x2="945" y1="206.5977" y2="206.5977"/><text fill="#000000" font-family="sans-serif" font-size="13" lengthAdjust="spacingAndGlyphs" textLength="193" x="741" y="202.166">Search(UserInformation):int,int</text><line style="stroke: #A80036; stroke-width: 1.0;" x1="951" x2="993" y1="257.6846" y2="257.6846"/><line style="stroke: #A80036; stroke-width: 1.0;" x1="993" x2="993" y1="257.6846" y2="270.6846"/><line style="stroke: #A80036; stroke-width: 1.0;" x1="952" x2="993" y1="270.6846" y2="270.6846"/><polygon fill="#A80036" points="962,266.6846,952,270.6846,962,274.6846,958,270.6846" style="stroke: #A80036; stroke-width: 1.0;"/><text fill="#000000" font-family="sans-serif" font-size="13" lengthAdjust="spacingAndGlyphs" textLength="221" x="958" y="252.9424">SearchUser(UserInformation):int,int</text><path d="M679,219.9082 L679,290.9082 L942,290.9082 L942,229.9082 L932,219.9082 L679,219.9082 " fill="#FBFB77" filter="url(#fxw9ww8pakknx)" style="stroke: #A80036; stroke-width: 1.0;"/><path d="M932,219.9082 L932,229.9082 L942,229.9082 L932,219.9082 " fill="#FBFB77" style="stroke: #A80036; stroke-width: 1.0;"/><text fill="#000000" font-family="sans-serif" font-size="13" lengthAdjust="spacingAndGlyphs" textLength="229" x="685" y="237.4766">根据登陆信息在User_Table中进行查询,</text><text fill="#000000" font-family="sans-serif" font-size="13" lengthAdjust="spacingAndGlyphs" textLength="237" x="685" y="252.7871">如用户名不存在则返回-1，如用户名存在</text><text fill="#000000" font-family="sans-serif" font-size="13" lengthAdjust="spacingAndGlyphs" textLength="242" x="685" y="268.0977">但是密码不匹配则返回0，如果用户名存在</text><text fill="#000000" font-family="sans-serif" font-size="13" lengthAdjust="spacingAndGlyphs" textLength="112" x="685" y="283.4082">且密码匹配则返回1</text><path d="M13,307.1504 L75,307.1504 L75,314.1504 L65,324.1504 L13,324.1504 L13,307.1504 " fill="#EEEEEE" style="stroke: #000000; stroke-width: 1.0;"/><rect fill="none" height="190.1289" style="stroke: #000000; stroke-width: 2.0;" width="1006" x="13" y="307.1504"/><text fill="#000000" font-family="sans-serif" font-size="13" font-weight="bold" lengthAdjust="spacingAndGlyphs" textLength="17" x="28" y="320.7188">alt</text><text fill="#000000" font-family="sans-serif" font-size="11" font-weight="bold" lengthAdjust="spacingAndGlyphs" textLength="35" x="90" y="319.7852">[Exist]</text><polygon fill="#A80036" points="745,361.7715,735,365.7715,745,369.7715,741,365.7715" style="stroke: #A80036; stroke-width: 1.0;"/><line style="stroke: #A80036; stroke-width: 1.0;" x1="739" x2="950" y1="365.7715" y2="365.7715"/><text fill="#000000" font-family="sans-serif" font-size="13" lengthAdjust="spacingAndGlyphs" textLength="58" x="751" y="361.3398">1, UserID</text><path d="M466,329.4609 L466,384.4609 L725,384.4609 L725,339.4609 L715,329.4609 L466,329.4609 " fill="#FBFB77" filter="url(#fxw9ww8pakknx)" style="stroke: #A80036; stroke-width: 1.0;"/><path d="M715,329.4609 L715,339.4609 L725,339.4609 L715,329.4609 " fill="#FBFB77" style="stroke: #A80036; stroke-width: 1.0;"/><text fill="#000000" font-family="sans-serif" font-size="13" lengthAdjust="spacingAndGlyphs" textLength="238" x="472" y="347.0293">当SearchUser的结果等于1时进入Exist，</text><text fill="#000000" font-family="sans-serif" font-size="13" lengthAdjust="spacingAndGlyphs" textLength="231" x="472" y="362.3398">否则进入NotExist，并通过Response传</text><text fill="#000000" font-family="sans-serif" font-size="13" lengthAdjust="spacingAndGlyphs" textLength="211" x="472" y="377.6504">递相应数值以及该用户对应的UserID</text><polygon fill="#A80036" points="94,411.3926,84,415.3926,94,419.3926,90,415.3926" style="stroke: #A80036; stroke-width: 1.0;"/><line style="stroke: #A80036; stroke-width: 1.0;" x1="88" x2="733" y1="415.3926" y2="415.3926"/><text fill="#000000" font-family="sans-serif" font-size="13" lengthAdjust="spacingAndGlyphs" textLength="110" x="100" y="410.9609">Response, UserID</text><line style="stroke: #000000; stroke-width: 1.0; stroke-dasharray: 2.0,2.0;" x1="13" x2="1019" y1="424.7031" y2="424.7031"/><text fill="#000000" font-family="sans-serif" font-size="11" font-weight="bold" lengthAdjust="spacingAndGlyphs" textLength="54" x="18" y="435.3379">[NotExist]</text><polygon fill="#A80036" points="745,455.6582,735,459.6582,745,463.6582,741,459.6582" style="stroke: #A80036; stroke-width: 1.0;"/><line style="stroke: #A80036; stroke-width: 1.0;" x1="739" x2="950" y1="459.6582" y2="459.6582"/><text fill="#000000" font-family="sans-serif" font-size="13" lengthAdjust="spacingAndGlyphs" textLength="60" x="751" y="455.2266">Response</text><polygon fill="#A80036" points="94,484.9688,84,488.9688,94,492.9688,90,488.9688" style="stroke: #A80036; stroke-width: 1.0;"/><line style="stroke: #A80036; stroke-width: 1.0;" x1="88" x2="733" y1="488.9688" y2="488.9688"/><text fill="#000000" font-family="sans-serif" font-size="13" lengthAdjust="spacingAndGlyphs" textLength="60" x="100" y="484.5371">Response</text><!--
@startuml Diagrams/LoginServerSequenceDiagram.svg
hide footbox
title Login
skinparam sequenceParticipant underline
actor ":UserInfoControl" as Client
participant ":Communicator" as Communicator
participant ":WebServer" as WebServer
participant ":UserDatabase" as UserDatabase
Client->Communicator:LoginRequest(username: String, password: String):int,int
Communicator->WebServer:LoginRequest(UserInformation):boolean
WebServer->UserDatabase:Search(UserInformation):int,int
UserDatabase->UserDatabase:SearchUser(UserInformation):int,int
note left:根据登陆信息在User_Table中进行查询,\n如用户名不存在则返回-1，如用户名存在\n但是密码不匹配则返回0，如果用户名存在\n且密码匹配则返回1
alt Exist
  UserDatabase->WebServer:1, UserID
  note left: 当SearchUser的结果等于1时进入Exist，\n否则进入NotExist，并通过Response传\n递相应数值以及该用户对应的UserID
  WebServer->Client:Response, UserID
else NotExist
  UserDatabase->WebServer:Response
  WebServer->Client:Response
end
@enduml

PlantUML version 1.2018.01(Mon Jan 29 02:08:22 CST 2018)
(GPL source distribution)
Java Runtime: Java(TM) SE Runtime Environment
JVM: Java HotSpot(TM) 64-Bit Server VM
Java Version: 9+181
Operating System: Mac OS X
OS Version: 10.12.6
Default Encoding: UTF-8
Language: zh
Country: CN
--></g></svg>