<?xml version="1.0" encoding="UTF-8" standalone="no"?><svg xmlns="http://www.w3.org/2000/svg" xmlns:xlink="http://www.w3.org/1999/xlink" contentScriptType="application/ecmascript" contentStyleType="text/css" height="584px" preserveAspectRatio="none" style="width:1530px;height:584px;" version="1.1" viewBox="0 0 1530 584"
    width="1530px" zoomAndPan="magnify"><defs><filter height="300%" id="f18zcn1phs6u1z" width="300%" x="-1" y="-1"><feGaussianBlur result="blurOut" stdDeviation="2.0"/><feColorMatrix in="blurOut" result="blurOut2" type="matrix" values="0 0 0 0 0 0 0 0 0 0 0 0 0 0 0 0 0 0 .4 0"/><feOffset dx="4.0" dy="4.0" in="blurOut2" result="blurOut3"/><feBlend in="SourceGraphic" in2="blurOut3" mode="normal"/></filter></defs><g><text fill="#000000" font-family="sans-serif" font-size="14" font-weight="bold" lengthAdjust="spacingAndGlyphs" textLength="40" x="744" y="23.5352">Login</text><rect fill="#FFFFFF" filter="url(#f18zcn1phs6u1z)" height="248.75" style="stroke: #000000; stroke-width: 2.0;" width="1228" x="13" y="307.1504"/><rect fill="#FFFFFF" height="102.8867" style="stroke: none; stroke-width: 1.0;" width="1228" x="13" y="453.0137"/><line style="stroke: #A80036; stroke-width: 1.0; stroke-dasharray: 5.0,5.0;" x1="83" x2="83" y1="116.9766" y2="572.9004"/><line style="stroke: #A80036; stroke-width: 1.0; stroke-dasharray: 5.0,5.0;" x1="461" x2="461" y1="116.9766" y2="572.9004"/><line style="stroke: #A80036; stroke-width: 1.0; stroke-dasharray: 5.0,5.0;" x1="839" x2="839" y1="116.9766" y2="572.9004"/><line style="stroke: #A80036; stroke-width: 1.0; stroke-dasharray: 5.0,5.0;" x1="1173" x2="1173" y1="116.9766" y2="572.9004"/><text fill="#000000" font-family="sans-serif" font-size="14" lengthAdjust="spacingAndGlyphs" text-decoration="underline" textLength="114" x="23" y="114.0234">:UserInfoControl</text><line style="stroke: #000000; stroke-width: 1.0;" x1="23" x2="137" y1="116.0234" y2="116.0234"/><ellipse cx="83" cy="43.4883" fill="#FEFECE" filter="url(#f18zcn1phs6u1z)" rx="8" ry="8" style="stroke: #A80036; stroke-width: 2.0;"/><path d="M83,51.4883 L83,78.4883 M70,59.4883 L96,59.4883 M83,78.4883 L70,93.4883 M83,78.4883 L96,93.4883 " fill="none" filter="url(#f18zcn1phs6u1z)" style="stroke: #A80036; stroke-width: 2.0;"/><rect fill="#FEFECE" filter="url(#f18zcn1phs6u1z)" height="30.4883" style="stroke: #A80036; stroke-width: 1.5;" width="120" x="399" y="81.4883"/><text fill="#000000" font-family="sans-serif" font-size="14" lengthAdjust="spacingAndGlyphs" text-decoration="underline" textLength="106" x="406" y="102.0234">:Communicator</text><line style="stroke: #000000; stroke-width: 1.0;" x1="406" x2="512" y1="104.0234" y2="104.0234"/><rect fill="#FEFECE" filter="url(#f18zcn1phs6u1z)" height="30.4883" style="stroke: #A80036; stroke-width: 1.5;" width="90" x="792" y="81.4883"/><text fill="#000000" font-family="sans-serif" font-size="14" lengthAdjust="spacingAndGlyphs" text-decoration="underline" textLength="76" x="799" y="102.0234">:WebServer</text><line style="stroke: #000000; stroke-width: 1.0;" x1="799" x2="875" y1="104.0234" y2="104.0234"/><rect fill="#FEFECE" filter="url(#f18zcn1phs6u1z)" height="30.4883" style="stroke: #A80036; stroke-width: 1.5;" width="112" x="1115" y="81.4883"/><text fill="#000000" font-family="sans-serif" font-size="14" lengthAdjust="spacingAndGlyphs" text-decoration="underline" textLength="98" x="1122" y="102.0234">:UserDatabase</text><line style="stroke: #000000; stroke-width: 1.0;" x1="1122" x2="1220" y1="104.0234" y2="104.0234"/><polygon fill="#A80036" points="449,143.9766,459,147.9766,449,151.9766,453,147.9766" style="stroke: #A80036; stroke-width: 1.0;"/><line style="stroke: #A80036; stroke-width: 1.0;" x1="83" x2="455" y1="147.9766" y2="147.9766"/><text fill="#000000" font-family="sans-serif" font-size="13" lengthAdjust="spacingAndGlyphs" textLength="354" x="90" y="143.5449">LoginRequest(username: String, password: String):int,int</text><polygon fill="#A80036" points="827,173.2871,837,177.2871,827,181.2871,831,177.2871" style="stroke: #A80036; stroke-width: 1.0;"/><line style="stroke: #A80036; stroke-width: 1.0;" x1="461" x2="833" y1="177.2871" y2="177.2871"/><text fill="#000000" font-family="sans-serif" font-size="13" lengthAdjust="spacingAndGlyphs" textLength="354" x="468" y="172.8555">LoginRequest(username: String, password: String):int,int</text><polygon fill="#A80036" points="1161,202.5977,1171,206.5977,1161,210.5977,1165,206.5977" style="stroke: #A80036; stroke-width: 1.0;"/><line style="stroke: #A80036; stroke-width: 1.0;" x1="839" x2="1167" y1="206.5977" y2="206.5977"/><text fill="#000000" font-family="sans-serif" font-size="13" lengthAdjust="spacingAndGlyphs" textLength="310" x="846" y="202.166">Search(username: String, password: String):int,int</text><line style="stroke: #A80036; stroke-width: 1.0;" x1="1173" x2="1215" y1="257.6846" y2="257.6846"/><line style="stroke: #A80036; stroke-width: 1.0;" x1="1215" x2="1215" y1="257.6846" y2="270.6846"/><line style="stroke: #A80036; stroke-width: 1.0;" x1="1174" x2="1215" y1="270.6846" y2="270.6846"/><polygon fill="#A80036" points="1184,266.6846,1174,270.6846,1184,274.6846,1180,270.6846" style="stroke: #A80036; stroke-width: 1.0;"/><text fill="#000000" font-family="sans-serif" font-size="13" lengthAdjust="spacingAndGlyphs" textLength="338" x="1180" y="252.9424">SearchUser(username: String, password: String):int,int</text><path d="M901,219.9082 L901,290.9082 L1164,290.9082 L1164,229.9082 L1154,219.9082 L901,219.9082 " fill="#FBFB77" filter="url(#f18zcn1phs6u1z)" style="stroke: #A80036; stroke-width: 1.0;"/><path d="M1154,219.9082 L1154,229.9082 L1164,229.9082 L1154,219.9082 " fill="#FBFB77" style="stroke: #A80036; stroke-width: 1.0;"/><text fill="#000000" font-family="sans-serif" font-size="13" lengthAdjust="spacingAndGlyphs" textLength="229" x="907" y="237.4766">根据登陆信息在User_Table中进行查询,</text><text fill="#000000" font-family="sans-serif" font-size="13" lengthAdjust="spacingAndGlyphs" textLength="237" x="907" y="252.7871">如用户名不存在则返回-1，如用户名存在</text><text fill="#000000" font-family="sans-serif" font-size="13" lengthAdjust="spacingAndGlyphs" textLength="242" x="907" y="268.0977">但是密码不匹配则返回0，如果用户名存在</text><text fill="#000000" font-family="sans-serif" font-size="13" lengthAdjust="spacingAndGlyphs" textLength="112" x="907" y="283.4082">且密码匹配则返回1</text><path d="M13,307.1504 L75,307.1504 L75,314.1504 L65,324.1504 L13,324.1504 L13,307.1504 " fill="#EEEEEE" style="stroke: #000000; stroke-width: 1.0;"/><rect fill="none" height="248.75" style="stroke: #000000; stroke-width: 2.0;" width="1228" x="13" y="307.1504"/><text fill="#000000" font-family="sans-serif" font-size="13" font-weight="bold" lengthAdjust="spacingAndGlyphs" textLength="17" x="28" y="320.7188">alt</text><text fill="#000000" font-family="sans-serif" font-size="11" font-weight="bold" lengthAdjust="spacingAndGlyphs" textLength="35" x="90" y="319.7852">[Exist]</text><polygon fill="#A80036" points="850,361.7715,840,365.7715,850,369.7715,846,365.7715" style="stroke: #A80036; stroke-width: 1.0;"/><line style="stroke: #A80036; stroke-width: 1.0;" x1="844" x2="1172" y1="365.7715" y2="365.7715"/><text fill="#000000" font-family="sans-serif" font-size="13" lengthAdjust="spacingAndGlyphs" textLength="58" x="856" y="361.3398">1, UserID</text><path d="M571,329.4609 L571,384.4609 L830,384.4609 L830,339.4609 L820,329.4609 L571,329.4609 " fill="#FBFB77" filter="url(#f18zcn1phs6u1z)" style="stroke: #A80036; stroke-width: 1.0;"/><path d="M820,329.4609 L820,339.4609 L830,339.4609 L820,329.4609 " fill="#FBFB77" style="stroke: #A80036; stroke-width: 1.0;"/><text fill="#000000" font-family="sans-serif" font-size="13" lengthAdjust="spacingAndGlyphs" textLength="238" x="577" y="347.0293">当SearchUser的结果等于1时进入Exist，</text><text fill="#000000" font-family="sans-serif" font-size="13" lengthAdjust="spacingAndGlyphs" textLength="231" x="577" y="362.3398">否则进入NotExist，并通过Response传</text><text fill="#000000" font-family="sans-serif" font-size="13" lengthAdjust="spacingAndGlyphs" textLength="211" x="577" y="377.6504">递相应数值以及该用户对应的UserID</text><polygon fill="#A80036" points="472,411.3926,462,415.3926,472,419.3926,468,415.3926" style="stroke: #A80036; stroke-width: 1.0;"/><line style="stroke: #A80036; stroke-width: 1.0;" x1="466" x2="838" y1="415.3926" y2="415.3926"/><text fill="#000000" font-family="sans-serif" font-size="13" lengthAdjust="spacingAndGlyphs" textLength="58" x="478" y="410.9609">1, UserID</text><polygon fill="#A80036" points="94,440.7031,84,444.7031,94,448.7031,90,444.7031" style="stroke: #A80036; stroke-width: 1.0;"/><line style="stroke: #A80036; stroke-width: 1.0;" x1="88" x2="460" y1="444.7031" y2="444.7031"/><text fill="#000000" font-family="sans-serif" font-size="13" lengthAdjust="spacingAndGlyphs" textLength="58" x="100" y="440.2715">1, UserID</text><line style="stroke: #000000; stroke-width: 1.0; stroke-dasharray: 2.0,2.0;" x1="13" x2="1241" y1="454.0137" y2="454.0137"/><text fill="#000000" font-family="sans-serif" font-size="11" font-weight="bold" lengthAdjust="spacingAndGlyphs" textLength="54" x="18" y="464.6484">[NotExist]</text><polygon fill="#A80036" points="850,484.9688,840,488.9688,850,492.9688,846,488.9688" style="stroke: #A80036; stroke-width: 1.0;"/><line style="stroke: #A80036; stroke-width: 1.0;" x1="844" x2="1172" y1="488.9688" y2="488.9688"/><text fill="#000000" font-family="sans-serif" font-size="13" lengthAdjust="spacingAndGlyphs" textLength="76" x="856" y="484.5371">Response, 0</text><polygon fill="#A80036" points="472,514.2793,462,518.2793,472,522.2793,468,518.2793" style="stroke: #A80036; stroke-width: 1.0;"/><line style="stroke: #A80036; stroke-width: 1.0;" x1="466" x2="838" y1="518.2793" y2="518.2793"/><text fill="#000000" font-family="sans-serif" font-size="13" lengthAdjust="spacingAndGlyphs" textLength="76" x="478" y="513.8477">Response, 0</text><polygon fill="#A80036" points="94,543.5898,84,547.5898,94,551.5898,90,547.5898" style="stroke: #A80036; stroke-width: 1.0;"/><line style="stroke: #A80036; stroke-width: 1.0;" x1="88" x2="460" y1="547.5898" y2="547.5898"/><text fill="#000000" font-family="sans-serif" font-size="13" lengthAdjust="spacingAndGlyphs" textLength="76" x="100" y="543.1582">Response, 0</text><!--
@startuml Diagrams/LoginServerSequenceDiagram.svg
hide footbox
title Login
skinparam sequenceParticipant underline
actor ":UserInfoControl" as Client
participant ":Communicator" as Communicator
participant ":WebServer" as WebServer
participant ":UserDatabase" as UserDatabase
Client->Communicator:LoginRequest(username: String, password: String):int,int
Communicator->WebServer:LoginRequest(username: String, password: String):int,int
WebServer->UserDatabase:Search(username: String, password: String):int,int
UserDatabase->UserDatabase:SearchUser(username: String, password: String):int,int
note left:根据登陆信息在User_Table中进行查询,\n如用户名不存在则返回-1，如用户名存在\n但是密码不匹配则返回0，如果用户名存在\n且密码匹配则返回1
alt Exist
  UserDatabase->WebServer:1, UserID
  note left: 当SearchUser的结果等于1时进入Exist，\n否则进入NotExist，并通过Response传\n递相应数值以及该用户对应的UserID
  WebServer->Communicator:1, UserID
  Communicator->Client:1, UserID
else NotExist
  UserDatabase->WebServer:Response, 0
  WebServer->Communicator:Response, 0
  Communicator->Client:Response, 0
end
@enduml

PlantUML version 1.2018.01(Mon Jan 29 02:08:22 CST 2018)
(GPL source distribution)
Java Runtime: Java(TM) SE Runtime Environment
JVM: Java HotSpot(TM) 64-Bit Server VM
Java Version: 9+181
Operating System: Mac OS X
OS Version: 10.12.6
Default Encoding: UTF-8
Language: zh
Country: CN
--></g></svg>