<?xml version="1.0" encoding="UTF-8" standalone="no"?><svg xmlns="http://www.w3.org/2000/svg" xmlns:xlink="http://www.w3.org/1999/xlink" contentScriptType="application/ecmascript" contentStyleType="text/css" height="601px" preserveAspectRatio="none" style="width:1228px;height:601px;" version="1.1" viewBox="0 0 1228 601"
    width="1228px" zoomAndPan="magnify"><defs><filter height="300%" id="f13bc3iv9ainmv" width="300%" x="-1" y="-1"><feGaussianBlur result="blurOut" stdDeviation="2.0"/><feColorMatrix in="blurOut" result="blurOut2" type="matrix" values="0 0 0 0 0 0 0 0 0 0 0 0 0 0 0 0 0 0 .4 0"/><feOffset dx="4.0" dy="4.0" in="blurOut2" result="blurOut3"/><feBlend in="SourceGraphic" in2="blurOut3" mode="normal"/></filter></defs><g><rect fill="#FFFFFF" filter="url(#f13bc3iv9ainmv)" height="147.5527" style="stroke: #000000; stroke-width: 2.0;" width="1105.5" x="13" y="233.7305"/><rect fill="#FFFFFF" filter="url(#f13bc3iv9ainmv)" height="59.6211" style="stroke: #000000; stroke-width: 2.0;" width="276" x="637.5" y="466.9043"/><rect fill="#FEFECE" filter="url(#f13bc3iv9ainmv)" height="30.4883" style="stroke: #A80036; stroke-width: 1.5;" width="212" x="1005.5" y="533.5254"/><text fill="#000000" font-family="sans-serif" font-size="14" lengthAdjust="spacingAndGlyphs" text-decoration="underline" textLength="198" x="1012.5" y="554.0605">:LocalVSSManagerViewModel</text><line style="stroke: #000000; stroke-width: 1.0;" x1="1012.5" x2="1210.5" y1="556.0605" y2="556.0605"/><line style="stroke: #A80036; stroke-width: 1.0; stroke-dasharray: 5.0,5.0;" x1="41" x2="41" y1="86.4883" y2="589.0137"/><line style="stroke: #A80036; stroke-width: 1.0; stroke-dasharray: 5.0,5.0;" x1="243.5" x2="243.5" y1="86.4883" y2="589.0137"/><line style="stroke: #A80036; stroke-width: 1.0; stroke-dasharray: 5.0,5.0;" x1="713.5" x2="713.5" y1="86.4883" y2="589.0137"/><line style="stroke: #A80036; stroke-width: 1.0; stroke-dasharray: 5.0,5.0;" x1="1113.5" x2="1113.5" y1="566.2695" y2="589.0137"/><text fill="#000000" font-family="sans-serif" font-size="14" lengthAdjust="spacingAndGlyphs" text-decoration="underline" textLength="31" x="23" y="83.5352">User</text><line style="stroke: #000000; stroke-width: 1.0;" x1="23" x2="54" y1="85.5352" y2="85.5352"/><ellipse cx="41.5" cy="13" fill="#FEFECE" filter="url(#f13bc3iv9ainmv)" rx="8" ry="8" style="stroke: #A80036; stroke-width: 2.0;"/><path d="M41.5,21 L41.5,48 M28.5,29 L54.5,29 M41.5,48 L28.5,63 M41.5,48 L54.5,63 " fill="none" filter="url(#f13bc3iv9ainmv)" style="stroke: #A80036; stroke-width: 2.0;"/><rect fill="#FEFECE" filter="url(#f13bc3iv9ainmv)" height="30.4883" style="stroke: #A80036; stroke-width: 1.5;" width="130" x="176.5" y="51"/><text fill="#000000" font-family="sans-serif" font-size="14" lengthAdjust="spacingAndGlyphs" text-decoration="underline" textLength="116" x="183.5" y="71.5352">:LoginViewModel</text><line style="stroke: #000000; stroke-width: 1.0;" x1="183.5" x2="299.5" y1="73.5352" y2="73.5352"/><rect fill="#FEFECE" filter="url(#f13bc3iv9ainmv)" height="30.4883" style="stroke: #A80036; stroke-width: 1.5;" width="128" x="647.5" y="51"/><text fill="#000000" font-family="sans-serif" font-size="14" lengthAdjust="spacingAndGlyphs" text-decoration="underline" textLength="114" x="654.5" y="71.5352">:UserInfoControl</text><line style="stroke: #000000; stroke-width: 1.0;" x1="654.5" x2="768.5" y1="73.5352" y2="73.5352"/><polygon fill="#A80036" points="231.5,113.4883,241.5,117.4883,231.5,121.4883,235.5,117.4883" style="stroke: #A80036; stroke-width: 1.0;"/><line style="stroke: #A80036; stroke-width: 1.0;" x1="3" x2="237.5" y1="117.4883" y2="117.4883"/><text fill="#000000" font-family="sans-serif" font-size="13" lengthAdjust="spacingAndGlyphs" textLength="78" x="10" y="113.0566">&lt;&lt;create&gt;&gt;</text><polygon fill="#A80036" points="231.5,142.7988,241.5,146.7988,231.5,150.7988,235.5,146.7988" style="stroke: #A80036; stroke-width: 1.0;"/><line style="stroke: #A80036; stroke-width: 1.0;" x1="41.5" x2="237.5" y1="146.7988" y2="146.7988"/><text fill="#000000" font-family="sans-serif" font-size="13" lengthAdjust="spacingAndGlyphs" textLength="178" x="48.5" y="142.3672">onLoginDataChanged(): void</text><polygon fill="#A80036" points="701.5,172.1094,711.5,176.1094,701.5,180.1094,705.5,176.1094" style="stroke: #A80036; stroke-width: 1.0;"/><line style="stroke: #A80036; stroke-width: 1.0;" x1="243.5" x2="707.5" y1="176.1094" y2="176.1094"/><text fill="#000000" font-family="sans-serif" font-size="13" lengthAdjust="spacingAndGlyphs" textLength="446" x="250.5" y="171.6777">login(username: String, password: String, remember: boolean): boolean</text><line style="stroke: #A80036; stroke-width: 1.0;" x1="713.5" x2="755.5" y1="205.7305" y2="205.7305"/><line style="stroke: #A80036; stroke-width: 1.0;" x1="755.5" x2="755.5" y1="205.7305" y2="218.7305"/><line style="stroke: #A80036; stroke-width: 1.0;" x1="714.5" x2="755.5" y1="218.7305" y2="218.7305"/><polygon fill="#A80036" points="724.5,214.7305,714.5,218.7305,724.5,222.7305,720.5,218.7305" style="stroke: #A80036; stroke-width: 1.0;"/><text fill="#000000" font-family="sans-serif" font-size="13" lengthAdjust="spacingAndGlyphs" textLength="386" x="720.5" y="200.9883">checkLoginData(username: String, password: String): boolean</text><path d="M13,233.7305 L87,233.7305 L87,240.7305 L77,250.7305 L13,250.7305 L13,233.7305 " fill="#EEEEEE" style="stroke: #000000; stroke-width: 1.0;"/><rect fill="none" height="147.5527" style="stroke: #000000; stroke-width: 2.0;" width="1105.5" x="13" y="233.7305"/><text fill="#000000" font-family="sans-serif" font-size="13" font-weight="bold" lengthAdjust="spacingAndGlyphs" textLength="29" x="28" y="247.2988">loop</text><text fill="#000000" font-family="sans-serif" font-size="11" font-weight="bold" lengthAdjust="spacingAndGlyphs" textLength="174" x="102" y="246.3652">[wrong password or username]</text><polygon fill="#A80036" points="254.5,268.041,244.5,272.041,254.5,276.041,250.5,272.041" style="stroke: #A80036; stroke-width: 1.0;"/><line style="stroke: #A80036; stroke-width: 1.0; stroke-dasharray: 2.0,2.0;" x1="248.5" x2="712.5" y1="272.041" y2="272.041"/><text fill="#000000" font-family="sans-serif" font-size="13" lengthAdjust="spacingAndGlyphs" textLength="30" x="260.5" y="267.6094">false</text><polygon fill="#A80036" points="231.5,297.3516,241.5,301.3516,231.5,305.3516,235.5,301.3516" style="stroke: #A80036; stroke-width: 1.0;"/><line style="stroke: #A80036; stroke-width: 1.0;" x1="41.5" x2="237.5" y1="301.3516" y2="301.3516"/><text fill="#000000" font-family="sans-serif" font-size="13" lengthAdjust="spacingAndGlyphs" textLength="178" x="48.5" y="296.9199">onLoginDataChanged(): void</text><polygon fill="#A80036" points="701.5,326.6621,711.5,330.6621,701.5,334.6621,705.5,330.6621" style="stroke: #A80036; stroke-width: 1.0;"/><line style="stroke: #A80036; stroke-width: 1.0;" x1="243.5" x2="707.5" y1="330.6621" y2="330.6621"/><text fill="#000000" font-family="sans-serif" font-size="13" lengthAdjust="spacingAndGlyphs" textLength="446" x="250.5" y="326.2305">login(username: String, password: String, remember: boolean): boolean</text><line style="stroke: #A80036; stroke-width: 1.0;" x1="713.5" x2="755.5" y1="360.2832" y2="360.2832"/><line style="stroke: #A80036; stroke-width: 1.0;" x1="755.5" x2="755.5" y1="360.2832" y2="373.2832"/><line style="stroke: #A80036; stroke-width: 1.0;" x1="714.5" x2="755.5" y1="373.2832" y2="373.2832"/><polygon fill="#A80036" points="724.5,369.2832,714.5,373.2832,724.5,377.2832,720.5,373.2832" style="stroke: #A80036; stroke-width: 1.0;"/><text fill="#000000" font-family="sans-serif" font-size="13" lengthAdjust="spacingAndGlyphs" textLength="386" x="720.5" y="355.541">checkLoginData(username: String, password: String): boolean</text><polygon fill="#A80036" points="254.5,405.2832,244.5,409.2832,254.5,413.2832,250.5,409.2832" style="stroke: #A80036; stroke-width: 1.0;"/><line style="stroke: #A80036; stroke-width: 1.0; stroke-dasharray: 2.0,2.0;" x1="248.5" x2="712.5" y1="409.2832" y2="409.2832"/><text fill="#000000" font-family="sans-serif" font-size="13" lengthAdjust="spacingAndGlyphs" textLength="25" x="260.5" y="404.8516">true</text><line style="stroke: #A80036; stroke-width: 1.0;" x1="713.5" x2="755.5" y1="438.9043" y2="438.9043"/><line style="stroke: #A80036; stroke-width: 1.0;" x1="755.5" x2="755.5" y1="438.9043" y2="451.9043"/><line style="stroke: #A80036; stroke-width: 1.0;" x1="714.5" x2="755.5" y1="451.9043" y2="451.9043"/><polygon fill="#A80036" points="724.5,447.9043,714.5,451.9043,724.5,455.9043,720.5,451.9043" style="stroke: #A80036; stroke-width: 1.0;"/><text fill="#000000" font-family="sans-serif" font-size="13" lengthAdjust="spacingAndGlyphs" textLength="317" x="720.5" y="434.1621">setCurrentUser(userID: int, username: String): void</text><path d="M637.5,466.9043 L699.5,466.9043 L699.5,473.9043 L689.5,483.9043 L637.5,483.9043 L637.5,466.9043 " fill="#EEEEEE" style="stroke: #000000; stroke-width: 1.0;"/><rect fill="none" height="59.6211" style="stroke: #000000; stroke-width: 2.0;" width="276" x="637.5" y="466.9043"/><text fill="#000000" font-family="sans-serif" font-size="13" font-weight="bold" lengthAdjust="spacingAndGlyphs" textLength="17" x="652.5" y="480.4727">alt</text><text fill="#000000" font-family="sans-serif" font-size="11" font-weight="bold" lengthAdjust="spacingAndGlyphs" textLength="135" x="714.5" y="479.5391">[remember me selected]</text><line style="stroke: #A80036; stroke-width: 1.0;" x1="713.5" x2="755.5" y1="505.5254" y2="505.5254"/><line style="stroke: #A80036; stroke-width: 1.0;" x1="755.5" x2="755.5" y1="505.5254" y2="518.5254"/><line style="stroke: #A80036; stroke-width: 1.0;" x1="714.5" x2="755.5" y1="518.5254" y2="518.5254"/><polygon fill="#A80036" points="724.5,514.5254,714.5,518.5254,724.5,522.5254,720.5,518.5254" style="stroke: #A80036; stroke-width: 1.0;"/><text fill="#000000" font-family="sans-serif" font-size="13" lengthAdjust="spacingAndGlyphs" textLength="181" x="720.5" y="500.7832">rememberCurrentUser(): void</text><polygon fill="#A80036" points="993.5,550.5254,1003.5,554.5254,993.5,558.5254,997.5,554.5254" style="stroke: #A80036; stroke-width: 1.0;"/><line style="stroke: #A80036; stroke-width: 1.0;" x1="713.5" x2="999.5" y1="554.5254" y2="554.5254"/><text fill="#000000" font-family="sans-serif" font-size="13" lengthAdjust="spacingAndGlyphs" textLength="78" x="720.5" y="550.0938">&lt;&lt;create&gt;&gt;</text><rect fill="#FEFECE" filter="url(#f13bc3iv9ainmv)" height="30.4883" style="stroke: #A80036; stroke-width: 1.5;" width="212" x="1005.5" y="533.5254"/><text fill="#000000" font-family="sans-serif" font-size="14" lengthAdjust="spacingAndGlyphs" text-decoration="underline" textLength="198" x="1012.5" y="554.0605">:LocalVSSManagerViewModel</text><line style="stroke: #000000; stroke-width: 1.0;" x1="1012.5" x2="1210.5" y1="556.0605" y2="556.0605"/><!--
@startuml Diagrams/Login
hide footbox
skinparam sequenceParticipant underline

actor User as user
participant ":LoginViewModel" as boundary
participant ":UserInfoControl" as control
participant ":LocalVSSManagerViewModel" as nextpage


[-> boundary: <<create>>
user -> boundary: onLoginDataChanged(): void
boundary -> control: login(username: String, password: String, remember: boolean): boolean
control -> control: checkLoginData(username: String, password: String): boolean

loop wrong password or username
    control - -> boundary: false
    user -> boundary: onLoginDataChanged(): void
    boundary -> control: login(username: String, password: String, remember: boolean): boolean
    control -> control: checkLoginData(username: String, password: String): boolean
end
control - -> boundary: true
control -> control: setCurrentUser(userID: int, username: String): void

alt remember me selected
    control -> control: rememberCurrentUser(): void
end
create nextpage
control -> nextpage: <<create>>
@enduml

PlantUML version 1.2018.01(Mon Jan 29 02:08:22 CST 2018)
(GPL source distribution)
Java Runtime: Java(TM) SE Runtime Environment
JVM: Java HotSpot(TM) 64-Bit Server VM
Java Version: 9+181
Operating System: Mac OS X
OS Version: 10.12.6
Default Encoding: UTF-8
Language: zh
Country: CN
--></g></svg>