<?xml version="1.0" encoding="UTF-8" standalone="no"?><svg xmlns="http://www.w3.org/2000/svg" xmlns:xlink="http://www.w3.org/1999/xlink" contentScriptType="application/ecmascript" contentStyleType="text/css" height="1019px" preserveAspectRatio="none" style="width:1070px;height:1019px;" version="1.1" viewBox="0 0 1070 1019"
    width="1070px" zoomAndPan="magnify"><defs><filter height="300%" id="f1ojgecxstpfth" width="300%" x="-1" y="-1"><feGaussianBlur result="blurOut" stdDeviation="2.0"/><feColorMatrix in="blurOut" result="blurOut2" type="matrix" values="0 0 0 0 0 0 0 0 0 0 0 0 0 0 0 0 0 0 .4 0"/><feOffset dx="4.0" dy="4.0" in="blurOut2" result="blurOut3"/><feBlend in="SourceGraphic" in2="blurOut3" mode="normal"/></filter></defs><g><rect fill="#FFFFFF" filter="url(#f1ojgecxstpfth)" height="757.1641" style="stroke: #000000; stroke-width: 2.0;" width="1046.5" x="13" y="233.7305"/><rect fill="#FFFFFF" filter="url(#f1ojgecxstpfth)" height="725.8535" style="stroke: #000000; stroke-width: 2.0;" width="1026.5" x="23" y="258.041"/><rect fill="#FFFFFF" height="85.2207" style="stroke: none; stroke-width: 1.0;" width="1026.5" x="23" y="345.6172"/><rect fill="#FFFFFF" height="85.2207" style="stroke: none; stroke-width: 1.0;" width="1026.5" x="23" y="430.8379"/><rect fill="#FFFFFF" height="85.2207" style="stroke: none; stroke-width: 1.0;" width="1026.5" x="23" y="516.0586"/><rect fill="#FFFFFF" height="181.5078" style="stroke: none; stroke-width: 1.0;" width="1026.5" x="23" y="601.2793"/><rect fill="#FFFFFF" filter="url(#f1ojgecxstpfth)" height="123.2422" style="stroke: #000000; stroke-width: 2.0;" width="890" x="149.5" y="652.5449"/><rect fill="#FEFECE" filter="url(#f1ojgecxstpfth)" height="30.4883" style="stroke: #A80036; stroke-width: 1.5;" width="167" x="652.5" y="669.8555"/><text fill="#000000" font-family="sans-serif" font-size="14" lengthAdjust="spacingAndGlyphs" text-decoration="underline" textLength="153" x="659.5" y="690.3906">:PreviewLocalMapPage</text><line style="stroke: #000000; stroke-width: 1.0;" x1="659.5" x2="812.5" y1="692.3906" y2="692.3906"/><rect fill="#FFFFFF" height="60.4434" style="stroke: none; stroke-width: 1.0;" width="890" x="149.5" y="715.3438"/><rect fill="#FEFECE" filter="url(#f1ojgecxstpfth)" height="30.4883" style="stroke: #A80036; stroke-width: 1.5;" width="192" x="833.5" y="730.2988"/><text fill="#000000" font-family="sans-serif" font-size="14" lengthAdjust="spacingAndGlyphs" text-decoration="underline" textLength="178" x="840.5" y="750.834">:PreviewLocalConcertPage</text><line style="stroke: #000000; stroke-width: 1.0;" x1="840.5" x2="1018.5" y1="752.834" y2="752.834"/><rect fill="#FFFFFF" height="145.1973" style="stroke: none; stroke-width: 1.0;" width="1026.5" x="23" y="782.7871"/><rect fill="#FFFFFF" height="55.9102" style="stroke: none; stroke-width: 1.0;" width="1026.5" x="23" y="927.9844"/><line style="stroke: #A80036; stroke-width: 1.0;" x1="51" x2="51" y1="86.4883" y2="304.6621"/><line style="stroke: #A80036; stroke-width: 1.0; stroke-dasharray: 1.0,4.0;" x1="51" x2="51" y1="304.6621" y2="345.6172"/><line style="stroke: #A80036; stroke-width: 1.0;" x1="51" x2="51" y1="345.6172" y2="389.8828"/><line style="stroke: #A80036; stroke-width: 1.0; stroke-dasharray: 1.0,4.0;" x1="51" x2="51" y1="389.8828" y2="430.8379"/><line style="stroke: #A80036; stroke-width: 1.0;" x1="51" x2="51" y1="430.8379" y2="475.1035"/><line style="stroke: #A80036; stroke-width: 1.0; stroke-dasharray: 1.0,4.0;" x1="51" x2="51" y1="475.1035" y2="516.0586"/><line style="stroke: #A80036; stroke-width: 1.0;" x1="51" x2="51" y1="516.0586" y2="560.3242"/><line style="stroke: #A80036; stroke-width: 1.0; stroke-dasharray: 1.0,4.0;" x1="51" x2="51" y1="560.3242" y2="601.2793"/><line style="stroke: #A80036; stroke-width: 1.0;" x1="51" x2="51" y1="601.2793" y2="942.9395"/><line style="stroke: #A80036; stroke-width: 1.0; stroke-dasharray: 1.0,4.0;" x1="51" x2="51" y1="942.9395" y2="983.8945"/><line style="stroke: #A80036; stroke-width: 1.0;" x1="51" x2="51" y1="983.8945" y2="1007.8945"/><line style="stroke: #A80036; stroke-width: 1.0;" x1="267.5" x2="267.5" y1="86.4883" y2="304.6621"/><line style="stroke: #A80036; stroke-width: 1.0; stroke-dasharray: 1.0,4.0;" x1="267.5" x2="267.5" y1="304.6621" y2="345.6172"/><line style="stroke: #A80036; stroke-width: 1.0;" x1="267.5" x2="267.5" y1="345.6172" y2="389.8828"/><line style="stroke: #A80036; stroke-width: 1.0; stroke-dasharray: 1.0,4.0;" x1="267.5" x2="267.5" y1="389.8828" y2="430.8379"/><line style="stroke: #A80036; stroke-width: 1.0;" x1="267.5" x2="267.5" y1="430.8379" y2="475.1035"/><line style="stroke: #A80036; stroke-width: 1.0; stroke-dasharray: 1.0,4.0;" x1="267.5" x2="267.5" y1="475.1035" y2="516.0586"/><line style="stroke: #A80036; stroke-width: 1.0;" x1="267.5" x2="267.5" y1="516.0586" y2="560.3242"/><line style="stroke: #A80036; stroke-width: 1.0; stroke-dasharray: 1.0,4.0;" x1="267.5" x2="267.5" y1="560.3242" y2="601.2793"/><line style="stroke: #A80036; stroke-width: 1.0;" x1="267.5" x2="267.5" y1="601.2793" y2="942.9395"/><line style="stroke: #A80036; stroke-width: 1.0; stroke-dasharray: 1.0,4.0;" x1="267.5" x2="267.5" y1="942.9395" y2="983.8945"/><line style="stroke: #A80036; stroke-width: 1.0;" x1="267.5" x2="267.5" y1="983.8945" y2="1007.8945"/><line style="stroke: #A80036; stroke-width: 1.0;" x1="548.5" x2="548.5" y1="86.4883" y2="304.6621"/><line style="stroke: #A80036; stroke-width: 1.0; stroke-dasharray: 1.0,4.0;" x1="548.5" x2="548.5" y1="304.6621" y2="345.6172"/><line style="stroke: #A80036; stroke-width: 1.0;" x1="548.5" x2="548.5" y1="345.6172" y2="389.8828"/><line style="stroke: #A80036; stroke-width: 1.0; stroke-dasharray: 1.0,4.0;" x1="548.5" x2="548.5" y1="389.8828" y2="430.8379"/><line style="stroke: #A80036; stroke-width: 1.0;" x1="548.5" x2="548.5" y1="430.8379" y2="475.1035"/><line style="stroke: #A80036; stroke-width: 1.0; stroke-dasharray: 1.0,4.0;" x1="548.5" x2="548.5" y1="475.1035" y2="516.0586"/><line style="stroke: #A80036; stroke-width: 1.0;" x1="548.5" x2="548.5" y1="516.0586" y2="560.3242"/><line style="stroke: #A80036; stroke-width: 1.0; stroke-dasharray: 1.0,4.0;" x1="548.5" x2="548.5" y1="560.3242" y2="601.2793"/><line style="stroke: #A80036; stroke-width: 1.0;" x1="548.5" x2="548.5" y1="601.2793" y2="942.9395"/><line style="stroke: #A80036; stroke-width: 1.0; stroke-dasharray: 1.0,4.0;" x1="548.5" x2="548.5" y1="942.9395" y2="983.8945"/><line style="stroke: #A80036; stroke-width: 1.0;" x1="548.5" x2="548.5" y1="983.8945" y2="1007.8945"/><line style="stroke: #A80036; stroke-width: 1.0;" x1="737.5" x2="737.5" y1="702.5996" y2="942.9395"/><line style="stroke: #A80036; stroke-width: 1.0; stroke-dasharray: 1.0,4.0;" x1="737.5" x2="737.5" y1="942.9395" y2="983.8945"/><line style="stroke: #A80036; stroke-width: 1.0;" x1="737.5" x2="737.5" y1="983.8945" y2="1007.8945"/><line style="stroke: #A80036; stroke-width: 1.0;" x1="931.5" x2="931.5" y1="763.043" y2="942.9395"/><line style="stroke: #A80036; stroke-width: 1.0; stroke-dasharray: 1.0,4.0;" x1="931.5" x2="931.5" y1="942.9395" y2="983.8945"/><line style="stroke: #A80036; stroke-width: 1.0;" x1="931.5" x2="931.5" y1="983.8945" y2="1007.8945"/><text fill="#000000" font-family="sans-serif" font-size="14" lengthAdjust="spacingAndGlyphs" text-decoration="underline" textLength="31" x="33" y="83.5352">User</text><line style="stroke: #000000; stroke-width: 1.0;" x1="33" x2="64" y1="85.5352" y2="85.5352"/><ellipse cx="51.5" cy="13" fill="#FEFECE" filter="url(#f1ojgecxstpfth)" rx="8" ry="8" style="stroke: #A80036; stroke-width: 2.0;"/><path d="M51.5,21 L51.5,48 M38.5,29 L64.5,29 M51.5,48 L38.5,63 M51.5,48 L64.5,63 " fill="none" filter="url(#f1ojgecxstpfth)" style="stroke: #A80036; stroke-width: 2.0;"/><rect fill="#FEFECE" filter="url(#f1ojgecxstpfth)" height="30.4883" style="stroke: #A80036; stroke-width: 1.5;" width="212" x="159.5" y="51"/><text fill="#000000" font-family="sans-serif" font-size="14" lengthAdjust="spacingAndGlyphs" text-decoration="underline" textLength="198" x="166.5" y="71.5352">:LocalVSSManagerViewModel</text><line style="stroke: #000000; stroke-width: 1.0;" x1="166.5" x2="364.5" y1="73.5352" y2="73.5352"/><rect fill="#FEFECE" filter="url(#f1ojgecxstpfth)" height="30.4883" style="stroke: #A80036; stroke-width: 1.5;" width="184" x="454.5" y="51"/><text fill="#000000" font-family="sans-serif" font-size="14" lengthAdjust="spacingAndGlyphs" text-decoration="underline" textLength="170" x="461.5" y="71.5352">:LocalSoundSpaceLibrary</text><line style="stroke: #000000; stroke-width: 1.0;" x1="461.5" x2="631.5" y1="73.5352" y2="73.5352"/><polygon fill="#A80036" points="255.5,113.7988,265.5,117.7988,255.5,121.7988,259.5,117.7988" style="stroke: #A80036; stroke-width: 1.0;"/><line style="stroke: #A80036; stroke-width: 1.0;" x1="3" x2="261.5" y1="117.7988" y2="117.7988"/><text fill="#000000" font-family="sans-serif" font-size="13" lengthAdjust="spacingAndGlyphs" textLength="78" x="10" y="113.0566">&lt;&lt;create&gt;&gt;</text><polygon fill="#A80036" points="536.5,143.1094,546.5,147.1094,536.5,151.1094,540.5,147.1094" style="stroke: #A80036; stroke-width: 1.0;"/><line style="stroke: #A80036; stroke-width: 1.0;" x1="267.5" x2="542.5" y1="147.1094" y2="147.1094"/><text fill="#000000" font-family="sans-serif" font-size="13" lengthAdjust="spacingAndGlyphs" textLength="177" x="274.5" y="142.3672">getVSSList(pageNo: int): List</text><polygon fill="#A80036" points="278.5,172.4199,268.5,176.4199,278.5,180.4199,274.5,176.4199" style="stroke: #A80036; stroke-width: 1.0;"/><line style="stroke: #A80036; stroke-width: 1.0; stroke-dasharray: 2.0,2.0;" x1="272.5" x2="547.5" y1="176.4199" y2="176.4199"/><text fill="#000000" font-family="sans-serif" font-size="13" lengthAdjust="spacingAndGlyphs" textLength="257" x="284.5" y="171.6777">listOfLocalVSS: List&lt;VirtualSoundSpace&gt;</text><line style="stroke: #A80036; stroke-width: 1.0;" x1="267.5" x2="309.5" y1="205.7305" y2="205.7305"/><line style="stroke: #A80036; stroke-width: 1.0;" x1="309.5" x2="309.5" y1="205.7305" y2="218.7305"/><line style="stroke: #A80036; stroke-width: 1.0;" x1="268.5" x2="309.5" y1="218.7305" y2="218.7305"/><polygon fill="#A80036" points="278.5,214.7305,268.5,218.7305,278.5,222.7305,274.5,218.7305" style="stroke: #A80036; stroke-width: 1.0;"/><text fill="#000000" font-family="sans-serif" font-size="13" lengthAdjust="spacingAndGlyphs" textLength="219" x="274.5" y="200.9883">displayVSSList(listOfLocalVSS):void</text><path d="M13,233.7305 L87,233.7305 L87,240.7305 L77,250.7305 L13,250.7305 L13,233.7305 " fill="#EEEEEE" style="stroke: #000000; stroke-width: 1.0;"/><rect fill="none" height="757.1641" style="stroke: #000000; stroke-width: 2.0;" width="1046.5" x="13" y="233.7305"/><text fill="#000000" font-family="sans-serif" font-size="13" font-weight="bold" lengthAdjust="spacingAndGlyphs" textLength="29" x="28" y="247.2988">loop</text><path d="M23,258.041 L85,258.041 L85,265.041 L75,275.041 L23,275.041 L23,258.041 " fill="#EEEEEE" style="stroke: #000000; stroke-width: 1.0;"/><rect fill="none" height="725.8535" style="stroke: #000000; stroke-width: 2.0;" width="1026.5" x="23" y="258.041"/><text fill="#000000" font-family="sans-serif" font-size="13" font-weight="bold" lengthAdjust="spacingAndGlyphs" textLength="17" x="38" y="271.6094">alt</text><text fill="#000000" font-family="sans-serif" font-size="11" font-weight="bold" lengthAdjust="spacingAndGlyphs" textLength="63" x="100" y="270.6758">[CreateVSS]</text><polygon fill="#A80036" points="255.5,292.6621,265.5,296.6621,255.5,300.6621,259.5,296.6621" style="stroke: #A80036; stroke-width: 1.0;"/><line style="stroke: #A80036; stroke-width: 1.0;" x1="51.5" x2="261.5" y1="296.6621" y2="296.6621"/><text fill="#000000" font-family="sans-serif" font-size="13" lengthAdjust="spacingAndGlyphs" textLength="183" x="58.5" y="291.9199">onCreateButtonClicked():void</text><text fill="#000000" font-family="sans-serif" font-size="11" lengthAdjust="spacingAndGlyphs" textLength="109" x="437" y="329.2969">described in PlayVSS</text><line style="stroke: #000000; stroke-width: 1.0; stroke-dasharray: 2.0,2.0;" x1="23" x2="1049.5" y1="346.6172" y2="346.6172"/><text fill="#000000" font-family="sans-serif" font-size="11" font-weight="bold" lengthAdjust="spacingAndGlyphs" textLength="72" x="28" y="357.252">[RenameVSS]</text><polygon fill="#A80036" points="255.5,377.8828,265.5,381.8828,255.5,385.8828,259.5,381.8828" style="stroke: #A80036; stroke-width: 1.0;"/><line style="stroke: #A80036; stroke-width: 1.0;" x1="51.5" x2="261.5" y1="381.8828" y2="381.8828"/><text fill="#000000" font-family="sans-serif" font-size="13" lengthAdjust="spacingAndGlyphs" textLength="192" x="58.5" y="377.1406">onRenameButtonClicked():void</text><text fill="#000000" font-family="sans-serif" font-size="11" lengthAdjust="spacingAndGlyphs" textLength="130" x="426.5" y="414.5176">described in RenameVSS</text><line style="stroke: #000000; stroke-width: 1.0; stroke-dasharray: 2.0,2.0;" x1="23" x2="1049.5" y1="431.8379" y2="431.8379"/><text fill="#000000" font-family="sans-serif" font-size="11" font-weight="bold" lengthAdjust="spacingAndGlyphs" textLength="63" x="28" y="442.4727">[DeleteVSS]</text><polygon fill="#A80036" points="255.5,463.1035,265.5,467.1035,255.5,471.1035,259.5,467.1035" style="stroke: #A80036; stroke-width: 1.0;"/><line style="stroke: #A80036; stroke-width: 1.0;" x1="51.5" x2="261.5" y1="467.1035" y2="467.1035"/><text fill="#000000" font-family="sans-serif" font-size="13" lengthAdjust="spacingAndGlyphs" textLength="183" x="58.5" y="462.3613">onDeleteButtonClicked():void</text><text fill="#000000" font-family="sans-serif" font-size="11" lengthAdjust="spacingAndGlyphs" textLength="121" x="431" y="499.7383">described in DeleteVSS</text><line style="stroke: #000000; stroke-width: 1.0; stroke-dasharray: 2.0,2.0;" x1="23" x2="1049.5" y1="517.0586" y2="517.0586"/><text fill="#000000" font-family="sans-serif" font-size="11" font-weight="bold" lengthAdjust="spacingAndGlyphs" textLength="67" x="28" y="527.6934">[UploadVSS]</text><polygon fill="#A80036" points="255.5,548.3242,265.5,552.3242,255.5,556.3242,259.5,552.3242" style="stroke: #A80036; stroke-width: 1.0;"/><line style="stroke: #A80036; stroke-width: 1.0;" x1="51.5" x2="261.5" y1="552.3242" y2="552.3242"/><text fill="#000000" font-family="sans-serif" font-size="13" lengthAdjust="spacingAndGlyphs" textLength="187" x="58.5" y="547.582">onUploadButtonClicked():void</text><text fill="#000000" font-family="sans-serif" font-size="11" lengthAdjust="spacingAndGlyphs" textLength="126" x="428.5" y="584.959">described in UploadVSS</text><line style="stroke: #000000; stroke-width: 1.0; stroke-dasharray: 2.0,2.0;" x1="23" x2="1049.5" y1="602.2793" y2="602.2793"/><text fill="#000000" font-family="sans-serif" font-size="11" font-weight="bold" lengthAdjust="spacingAndGlyphs" textLength="72" x="28" y="612.9141">[PreviewVSS]</text><polygon fill="#A80036" points="255.5,633.5449,265.5,637.5449,255.5,641.5449,259.5,637.5449" style="stroke: #A80036; stroke-width: 1.0;"/><line style="stroke: #A80036; stroke-width: 1.0;" x1="51.5" x2="261.5" y1="637.5449" y2="637.5449"/><text fill="#000000" font-family="sans-serif" font-size="13" lengthAdjust="spacingAndGlyphs" textLength="190" x="58.5" y="632.8027">onPreviewButtonClicked():void</text><path d="M149.5,652.5449 L211.5,652.5449 L211.5,659.5449 L201.5,669.5449 L149.5,669.5449 L149.5,652.5449 " fill="#EEEEEE" style="stroke: #000000; stroke-width: 1.0;"/><rect fill="none" height="123.2422" style="stroke: #000000; stroke-width: 2.0;" width="890" x="149.5" y="652.5449"/><text fill="#000000" font-family="sans-serif" font-size="13" font-weight="bold" lengthAdjust="spacingAndGlyphs" textLength="17" x="164.5" y="666.1133">alt</text><text fill="#000000" font-family="sans-serif" font-size="11" font-weight="bold" lengthAdjust="spacingAndGlyphs" textLength="63" x="226.5" y="665.1797">[local map]</text><polygon fill="#A80036" points="640.5,687.166,650.5,691.166,640.5,695.166,644.5,691.166" style="stroke: #A80036; stroke-width: 1.0;"/><line style="stroke: #A80036; stroke-width: 1.0;" x1="267.5" x2="646.5" y1="691.166" y2="691.166"/><text fill="#000000" font-family="sans-serif" font-size="13" lengthAdjust="spacingAndGlyphs" textLength="78" x="274.5" y="686.4238">&lt;&lt;create&gt;&gt;</text><rect fill="#FEFECE" filter="url(#f1ojgecxstpfth)" height="30.4883" style="stroke: #A80036; stroke-width: 1.5;" width="167" x="652.5" y="669.8555"/><text fill="#000000" font-family="sans-serif" font-size="14" lengthAdjust="spacingAndGlyphs" text-decoration="underline" textLength="153" x="659.5" y="690.3906">:PreviewLocalMapPage</text><line style="stroke: #000000; stroke-width: 1.0;" x1="659.5" x2="812.5" y1="692.3906" y2="692.3906"/><line style="stroke: #000000; stroke-width: 1.0; stroke-dasharray: 2.0,2.0;" x1="149.5" x2="1039.5" y1="716.3438" y2="716.3438"/><text fill="#000000" font-family="sans-serif" font-size="11" font-weight="bold" lengthAdjust="spacingAndGlyphs" textLength="80" x="154.5" y="726.9785">[local concert]</text><polygon fill="#A80036" points="821.5,747.6094,831.5,751.6094,821.5,755.6094,825.5,751.6094" style="stroke: #A80036; stroke-width: 1.0;"/><line style="stroke: #A80036; stroke-width: 1.0;" x1="267.5" x2="827.5" y1="751.6094" y2="751.6094"/><text fill="#000000" font-family="sans-serif" font-size="13" lengthAdjust="spacingAndGlyphs" textLength="78" x="274.5" y="746.8672">&lt;&lt;create&gt;&gt;</text><rect fill="#FEFECE" filter="url(#f1ojgecxstpfth)" height="30.4883" style="stroke: #A80036; stroke-width: 1.5;" width="192" x="833.5" y="730.2988"/><text fill="#000000" font-family="sans-serif" font-size="14" lengthAdjust="spacingAndGlyphs" text-decoration="underline" textLength="178" x="840.5" y="750.834">:PreviewLocalConcertPage</text><line style="stroke: #000000; stroke-width: 1.0;" x1="840.5" x2="1018.5" y1="752.834" y2="752.834"/><line style="stroke: #000000; stroke-width: 1.0; stroke-dasharray: 2.0,2.0;" x1="23" x2="1049.5" y1="783.7871" y2="783.7871"/><text fill="#000000" font-family="sans-serif" font-size="11" font-weight="bold" lengthAdjust="spacingAndGlyphs" textLength="59" x="28" y="794.4219">[prevPage]</text><polygon fill="#A80036" points="255.5,815.0527,265.5,819.0527,255.5,823.0527,259.5,819.0527" style="stroke: #A80036; stroke-width: 1.0;"/><line style="stroke: #A80036; stroke-width: 1.0;" x1="51.5" x2="261.5" y1="819.0527" y2="819.0527"/><text fill="#000000" font-family="sans-serif" font-size="13" lengthAdjust="spacingAndGlyphs" textLength="169" x="58.5" y="814.3105">onPrevButtonClicked():void</text><polygon fill="#A80036" points="536.5,844.3633,546.5,848.3633,536.5,852.3633,540.5,848.3633" style="stroke: #A80036; stroke-width: 1.0;"/><line style="stroke: #A80036; stroke-width: 1.0;" x1="267.5" x2="542.5" y1="848.3633" y2="848.3633"/><text fill="#000000" font-family="sans-serif" font-size="13" lengthAdjust="spacingAndGlyphs" textLength="148" x="274.5" y="843.6211">getVSSList(nextPageNo)</text><polygon fill="#A80036" points="278.5,873.6738,268.5,877.6738,278.5,881.6738,274.5,877.6738" style="stroke: #A80036; stroke-width: 1.0;"/><line style="stroke: #A80036; stroke-width: 1.0; stroke-dasharray: 2.0,2.0;" x1="272.5" x2="547.5" y1="877.6738" y2="877.6738"/><text fill="#000000" font-family="sans-serif" font-size="13" lengthAdjust="spacingAndGlyphs" textLength="257" x="284.5" y="872.9316">listOfLocalVSS: List&lt;VirtualSoundSpace&gt;</text><line style="stroke: #A80036; stroke-width: 1.0;" x1="267.5" x2="309.5" y1="906.9844" y2="906.9844"/><line style="stroke: #A80036; stroke-width: 1.0;" x1="309.5" x2="309.5" y1="906.9844" y2="919.9844"/><line style="stroke: #A80036; stroke-width: 1.0;" x1="268.5" x2="309.5" y1="919.9844" y2="919.9844"/><polygon fill="#A80036" points="278.5,915.9844,268.5,919.9844,278.5,923.9844,274.5,919.9844" style="stroke: #A80036; stroke-width: 1.0;"/><text fill="#000000" font-family="sans-serif" font-size="13" lengthAdjust="spacingAndGlyphs" textLength="219" x="274.5" y="902.2422">displayVSSList(listOfLocalVSS):void</text><line style="stroke: #000000; stroke-width: 1.0; stroke-dasharray: 2.0,2.0;" x1="23" x2="1049.5" y1="928.9844" y2="928.9844"/><text fill="#000000" font-family="sans-serif" font-size="11" font-weight="bold" lengthAdjust="spacingAndGlyphs" textLength="57" x="28" y="939.6191">[nextPage]</text><text fill="#000000" font-family="sans-serif" font-size="11" lengthAdjust="spacingAndGlyphs" textLength="83" x="450" y="967.5742">similar, omitted</text><!--
@startuml Diagrams/ManageLocalVSSLibrary
hide footbox
skinparam sequenceParticipant underline

actor User as user
participant ":LocalVSSManagerViewModel" as boundary
participant ":LocalSoundSpaceLibrary" as library

create boundary
[-> boundary: <<create>>
boundary -> library: getVSSList(pageNo: int): List
library - -> boundary: listOfLocalVSS: List<VirtualSoundSpace>
boundary -> boundary: displayVSSList(listOfLocalVSS):void

loop
    alt CreateVSS
        user -> boundary: onCreateButtonClicked():void
        ...described in PlayVSS...
    else RenameVSS
        user -> boundary: onRenameButtonClicked():void
        ...described in RenameVSS...
    else DeleteVSS
        user -> boundary: onDeleteButtonClicked():void
        ...described in DeleteVSS...
    else UploadVSS
        user -> boundary: onUploadButtonClicked():void
        ...described in UploadVSS...
    else PreviewVSS
        user -> boundary: onPreviewButtonClicked():void
        alt local map
            participant ":PreviewLocalMapPage" as plmp
            create plmp
            boundary -> plmp: <<create>>

        else local concert
            participant ":PreviewLocalConcertPage" as plcp
            create plcp
            boundary -> plcp: <<create>>
        end
    else prevPage
        user -> boundary: onPrevButtonClicked():void
        boundary -> library: getVSSList(nextPageNo)
        library - -> boundary: listOfLocalVSS: List<VirtualSoundSpace>
        boundary -> boundary: displayVSSList(listOfLocalVSS):void
    else nextPage
    ...similar, omitted...
    end
end
@enduml

PlantUML version 1.2018.02(Sat Mar 10 01:20:44 CST 2018)
(GPL source distribution)
Java Runtime: Java(TM) SE Runtime Environment
JVM: Java HotSpot(TM) 64-Bit Server VM
Java Version: 1.8.0_151-b12
Operating System: Mac OS X
OS Version: 10.11.6
Default Encoding: UTF-8
Language: zh
Country: CN
--></g></svg>
