<?xml version="1.0" encoding="UTF-8" standalone="no"?><svg xmlns="http://www.w3.org/2000/svg" xmlns:xlink="http://www.w3.org/1999/xlink" contentScriptType="application/ecmascript" contentStyleType="text/css" height="1104px" preserveAspectRatio="none" style="width:1015px;height:1104px;" version="1.1" viewBox="0 0 1015 1104"
    width="1015px" zoomAndPan="magnify"><defs><filter height="300%" id="fy3xtt72d3g3i" width="300%" x="-1" y="-1"><feGaussianBlur result="blurOut" stdDeviation="2.0"/><feColorMatrix in="blurOut" result="blurOut2" type="matrix" values="0 0 0 0 0 0 0 0 0 0 0 0 0 0 0 0 0 0 .4 0"/><feOffset dx="4.0" dy="4.0" in="blurOut2" result="blurOut3"/><feBlend in="SourceGraphic" in2="blurOut3" mode="normal"/></filter></defs><g><rect fill="#FFFFFF" filter="url(#fy3xtt72d3g3i)" height="841.7852" style="stroke: #000000; stroke-width: 2.0;" width="991.5" x="13" y="233.7305"/><rect fill="#FFFFFF" filter="url(#fy3xtt72d3g3i)" height="810.4746" style="stroke: #000000; stroke-width: 2.0;" width="971.5" x="23" y="258.041"/><rect fill="#FFFFFF" height="85.2207" style="stroke: none; stroke-width: 1.0;" width="971.5" x="23" y="345.6172"/><rect fill="#FFFFFF" height="85.2207" style="stroke: none; stroke-width: 1.0;" width="971.5" x="23" y="430.8379"/><rect fill="#FFFFFF" height="85.2207" style="stroke: none; stroke-width: 1.0;" width="971.5" x="23" y="516.0586"/><rect fill="#FFFFFF" height="223.8184" style="stroke: none; stroke-width: 1.0;" width="971.5" x="23" y="601.2793"/><rect fill="#FFFFFF" filter="url(#fy3xtt72d3g3i)" height="123.2422" style="stroke: #000000; stroke-width: 2.0;" width="890" x="94.5" y="694.8555"/><rect fill="#FEFECE" filter="url(#fy3xtt72d3g3i)" height="30.4883" style="stroke: #A80036; stroke-width: 1.5;" width="167" x="597.5" y="712.166"/><text fill="#000000" font-family="sans-serif" font-size="14" lengthAdjust="spacingAndGlyphs" text-decoration="underline" textLength="153" x="604.5" y="732.7012">:PreviewLocalMapPage</text><line style="stroke: #000000; stroke-width: 1.0;" x1="604.5" x2="757.5" y1="734.7012" y2="734.7012"/><rect fill="#FFFFFF" height="60.4434" style="stroke: none; stroke-width: 1.0;" width="890" x="94.5" y="757.6543"/><rect fill="#FEFECE" filter="url(#fy3xtt72d3g3i)" height="30.4883" style="stroke: #A80036; stroke-width: 1.5;" width="192" x="778.5" y="772.6094"/><text fill="#000000" font-family="sans-serif" font-size="14" lengthAdjust="spacingAndGlyphs" text-decoration="underline" textLength="178" x="785.5" y="793.1445">:PreviewLocalConcertPage</text><line style="stroke: #000000; stroke-width: 1.0;" x1="785.5" x2="963.5" y1="795.1445" y2="795.1445"/><rect fill="#FFFFFF" height="187.5078" style="stroke: none; stroke-width: 1.0;" width="971.5" x="23" y="825.0977"/><rect fill="#FFFFFF" height="55.9102" style="stroke: none; stroke-width: 1.0;" width="971.5" x="23" y="1012.6055"/><line style="stroke: #A80036; stroke-width: 1.0;" x1="51" x2="51" y1="86.4883" y2="304.6621"/><line style="stroke: #A80036; stroke-width: 1.0; stroke-dasharray: 1.0,4.0;" x1="51" x2="51" y1="304.6621" y2="345.6172"/><line style="stroke: #A80036; stroke-width: 1.0;" x1="51" x2="51" y1="345.6172" y2="389.8828"/><line style="stroke: #A80036; stroke-width: 1.0; stroke-dasharray: 1.0,4.0;" x1="51" x2="51" y1="389.8828" y2="430.8379"/><line style="stroke: #A80036; stroke-width: 1.0;" x1="51" x2="51" y1="430.8379" y2="475.1035"/><line style="stroke: #A80036; stroke-width: 1.0; stroke-dasharray: 1.0,4.0;" x1="51" x2="51" y1="475.1035" y2="516.0586"/><line style="stroke: #A80036; stroke-width: 1.0;" x1="51" x2="51" y1="516.0586" y2="560.3242"/><line style="stroke: #A80036; stroke-width: 1.0; stroke-dasharray: 1.0,4.0;" x1="51" x2="51" y1="560.3242" y2="601.2793"/><line style="stroke: #A80036; stroke-width: 1.0;" x1="51" x2="51" y1="601.2793" y2="1027.5605"/><line style="stroke: #A80036; stroke-width: 1.0; stroke-dasharray: 1.0,4.0;" x1="51" x2="51" y1="1027.5605" y2="1068.5156"/><line style="stroke: #A80036; stroke-width: 1.0;" x1="51" x2="51" y1="1068.5156" y2="1092.5156"/><line style="stroke: #A80036; stroke-width: 1.0;" x1="212.5" x2="212.5" y1="86.4883" y2="304.6621"/><line style="stroke: #A80036; stroke-width: 1.0; stroke-dasharray: 1.0,4.0;" x1="212.5" x2="212.5" y1="304.6621" y2="345.6172"/><line style="stroke: #A80036; stroke-width: 1.0;" x1="212.5" x2="212.5" y1="345.6172" y2="389.8828"/><line style="stroke: #A80036; stroke-width: 1.0; stroke-dasharray: 1.0,4.0;" x1="212.5" x2="212.5" y1="389.8828" y2="430.8379"/><line style="stroke: #A80036; stroke-width: 1.0;" x1="212.5" x2="212.5" y1="430.8379" y2="475.1035"/><line style="stroke: #A80036; stroke-width: 1.0; stroke-dasharray: 1.0,4.0;" x1="212.5" x2="212.5" y1="475.1035" y2="516.0586"/><line style="stroke: #A80036; stroke-width: 1.0;" x1="212.5" x2="212.5" y1="516.0586" y2="560.3242"/><line style="stroke: #A80036; stroke-width: 1.0; stroke-dasharray: 1.0,4.0;" x1="212.5" x2="212.5" y1="560.3242" y2="601.2793"/><line style="stroke: #A80036; stroke-width: 1.0;" x1="212.5" x2="212.5" y1="601.2793" y2="1027.5605"/><line style="stroke: #A80036; stroke-width: 1.0; stroke-dasharray: 1.0,4.0;" x1="212.5" x2="212.5" y1="1027.5605" y2="1068.5156"/><line style="stroke: #A80036; stroke-width: 1.0;" x1="212.5" x2="212.5" y1="1068.5156" y2="1092.5156"/><line style="stroke: #A80036; stroke-width: 1.0;" x1="493.5" x2="493.5" y1="86.4883" y2="304.6621"/><line style="stroke: #A80036; stroke-width: 1.0; stroke-dasharray: 1.0,4.0;" x1="493.5" x2="493.5" y1="304.6621" y2="345.6172"/><line style="stroke: #A80036; stroke-width: 1.0;" x1="493.5" x2="493.5" y1="345.6172" y2="389.8828"/><line style="stroke: #A80036; stroke-width: 1.0; stroke-dasharray: 1.0,4.0;" x1="493.5" x2="493.5" y1="389.8828" y2="430.8379"/><line style="stroke: #A80036; stroke-width: 1.0;" x1="493.5" x2="493.5" y1="430.8379" y2="475.1035"/><line style="stroke: #A80036; stroke-width: 1.0; stroke-dasharray: 1.0,4.0;" x1="493.5" x2="493.5" y1="475.1035" y2="516.0586"/><line style="stroke: #A80036; stroke-width: 1.0;" x1="493.5" x2="493.5" y1="516.0586" y2="560.3242"/><line style="stroke: #A80036; stroke-width: 1.0; stroke-dasharray: 1.0,4.0;" x1="493.5" x2="493.5" y1="560.3242" y2="601.2793"/><line style="stroke: #A80036; stroke-width: 1.0;" x1="493.5" x2="493.5" y1="601.2793" y2="1027.5605"/><line style="stroke: #A80036; stroke-width: 1.0; stroke-dasharray: 1.0,4.0;" x1="493.5" x2="493.5" y1="1027.5605" y2="1068.5156"/><line style="stroke: #A80036; stroke-width: 1.0;" x1="493.5" x2="493.5" y1="1068.5156" y2="1092.5156"/><line style="stroke: #A80036; stroke-width: 1.0;" x1="682.5" x2="682.5" y1="744.9102" y2="1027.5605"/><line style="stroke: #A80036; stroke-width: 1.0; stroke-dasharray: 1.0,4.0;" x1="682.5" x2="682.5" y1="1027.5605" y2="1068.5156"/><line style="stroke: #A80036; stroke-width: 1.0;" x1="682.5" x2="682.5" y1="1068.5156" y2="1092.5156"/><line style="stroke: #A80036; stroke-width: 1.0;" x1="876.5" x2="876.5" y1="805.3535" y2="1027.5605"/><line style="stroke: #A80036; stroke-width: 1.0; stroke-dasharray: 1.0,4.0;" x1="876.5" x2="876.5" y1="1027.5605" y2="1068.5156"/><line style="stroke: #A80036; stroke-width: 1.0;" x1="876.5" x2="876.5" y1="1068.5156" y2="1092.5156"/><text fill="#000000" font-family="sans-serif" font-size="14" lengthAdjust="spacingAndGlyphs" text-decoration="underline" textLength="31" x="33" y="83.5352">User</text><line style="stroke: #000000; stroke-width: 1.0;" x1="33" x2="64" y1="85.5352" y2="85.5352"/><ellipse cx="51.5" cy="13" fill="#FEFECE" filter="url(#fy3xtt72d3g3i)" rx="8" ry="8" style="stroke: #A80036; stroke-width: 2.0;"/><path d="M51.5,21 L51.5,48 M38.5,29 L64.5,29 M51.5,48 L38.5,63 M51.5,48 L64.5,63 " fill="none" filter="url(#fy3xtt72d3g3i)" style="stroke: #A80036; stroke-width: 2.0;"/><rect fill="#FEFECE" filter="url(#fy3xtt72d3g3i)" height="30.4883" style="stroke: #A80036; stroke-width: 1.5;" width="212" x="104.5" y="51"/><text fill="#000000" font-family="sans-serif" font-size="14" lengthAdjust="spacingAndGlyphs" text-decoration="underline" textLength="198" x="111.5" y="71.5352">:LocalVSSManagerViewModel</text><line style="stroke: #000000; stroke-width: 1.0;" x1="111.5" x2="309.5" y1="73.5352" y2="73.5352"/><rect fill="#FEFECE" filter="url(#fy3xtt72d3g3i)" height="30.4883" style="stroke: #A80036; stroke-width: 1.5;" width="184" x="399.5" y="51"/><text fill="#000000" font-family="sans-serif" font-size="14" lengthAdjust="spacingAndGlyphs" text-decoration="underline" textLength="170" x="406.5" y="71.5352">:LocalSoundSpaceLibrary</text><line style="stroke: #000000; stroke-width: 1.0;" x1="406.5" x2="576.5" y1="73.5352" y2="73.5352"/><polygon fill="#A80036" points="200.5,113.7988,210.5,117.7988,200.5,121.7988,204.5,117.7988" style="stroke: #A80036; stroke-width: 1.0;"/><line style="stroke: #A80036; stroke-width: 1.0;" x1="3" x2="206.5" y1="117.7988" y2="117.7988"/><text fill="#000000" font-family="sans-serif" font-size="13" lengthAdjust="spacingAndGlyphs" textLength="78" x="10" y="113.0566">&lt;&lt;create&gt;&gt;</text><polygon fill="#A80036" points="481.5,143.1094,491.5,147.1094,481.5,151.1094,485.5,147.1094" style="stroke: #A80036; stroke-width: 1.0;"/><line style="stroke: #A80036; stroke-width: 1.0;" x1="212.5" x2="487.5" y1="147.1094" y2="147.1094"/><text fill="#000000" font-family="sans-serif" font-size="13" lengthAdjust="spacingAndGlyphs" textLength="177" x="219.5" y="142.3672">getVSSList(pageNo: int): List</text><polygon fill="#A80036" points="223.5,172.4199,213.5,176.4199,223.5,180.4199,219.5,176.4199" style="stroke: #A80036; stroke-width: 1.0;"/><line style="stroke: #A80036; stroke-width: 1.0; stroke-dasharray: 2.0,2.0;" x1="217.5" x2="492.5" y1="176.4199" y2="176.4199"/><text fill="#000000" font-family="sans-serif" font-size="13" lengthAdjust="spacingAndGlyphs" textLength="257" x="229.5" y="171.6777">listOfLocalVSS: List&lt;VirtualSoundSpace&gt;</text><line style="stroke: #A80036; stroke-width: 1.0;" x1="212.5" x2="254.5" y1="205.7305" y2="205.7305"/><line style="stroke: #A80036; stroke-width: 1.0;" x1="254.5" x2="254.5" y1="205.7305" y2="218.7305"/><line style="stroke: #A80036; stroke-width: 1.0;" x1="213.5" x2="254.5" y1="218.7305" y2="218.7305"/><polygon fill="#A80036" points="223.5,214.7305,213.5,218.7305,223.5,222.7305,219.5,218.7305" style="stroke: #A80036; stroke-width: 1.0;"/><text fill="#000000" font-family="sans-serif" font-size="13" lengthAdjust="spacingAndGlyphs" textLength="188" x="219.5" y="200.9883">displayVSSList(listOfLocalVSS)</text><path d="M13,233.7305 L87,233.7305 L87,240.7305 L77,250.7305 L13,250.7305 L13,233.7305 " fill="#EEEEEE" style="stroke: #000000; stroke-width: 1.0;"/><rect fill="none" height="841.7852" style="stroke: #000000; stroke-width: 2.0;" width="991.5" x="13" y="233.7305"/><text fill="#000000" font-family="sans-serif" font-size="13" font-weight="bold" lengthAdjust="spacingAndGlyphs" textLength="29" x="28" y="247.2988">loop</text><path d="M23,258.041 L85,258.041 L85,265.041 L75,275.041 L23,275.041 L23,258.041 " fill="#EEEEEE" style="stroke: #000000; stroke-width: 1.0;"/><rect fill="none" height="810.4746" style="stroke: #000000; stroke-width: 2.0;" width="971.5" x="23" y="258.041"/><text fill="#000000" font-family="sans-serif" font-size="13" font-weight="bold" lengthAdjust="spacingAndGlyphs" textLength="17" x="38" y="271.6094">alt</text><text fill="#000000" font-family="sans-serif" font-size="11" font-weight="bold" lengthAdjust="spacingAndGlyphs" textLength="63" x="100" y="270.6758">[CreateVSS]</text><polygon fill="#A80036" points="200.5,292.6621,210.5,296.6621,200.5,300.6621,204.5,296.6621" style="stroke: #A80036; stroke-width: 1.0;"/><line style="stroke: #A80036; stroke-width: 1.0;" x1="51.5" x2="206.5" y1="296.6621" y2="296.6621"/><text fill="#000000" font-family="sans-serif" font-size="13" lengthAdjust="spacingAndGlyphs" textLength="60" x="58.5" y="291.9199">createVSS</text><text fill="#000000" font-family="sans-serif" font-size="11" lengthAdjust="spacingAndGlyphs" textLength="109" x="409.5" y="329.2969">described in PlayVSS</text><line style="stroke: #000000; stroke-width: 1.0; stroke-dasharray: 2.0,2.0;" x1="23" x2="994.5" y1="346.6172" y2="346.6172"/><text fill="#000000" font-family="sans-serif" font-size="11" font-weight="bold" lengthAdjust="spacingAndGlyphs" textLength="72" x="28" y="357.252">[RenameVSS]</text><polygon fill="#A80036" points="200.5,377.8828,210.5,381.8828,200.5,385.8828,204.5,381.8828" style="stroke: #A80036; stroke-width: 1.0;"/><line style="stroke: #A80036; stroke-width: 1.0;" x1="51.5" x2="206.5" y1="381.8828" y2="381.8828"/><text fill="#000000" font-family="sans-serif" font-size="13" lengthAdjust="spacingAndGlyphs" textLength="135" x="58.5" y="377.1406">renameVSS(whichVSS)</text><text fill="#000000" font-family="sans-serif" font-size="11" lengthAdjust="spacingAndGlyphs" textLength="130" x="399" y="414.5176">described in RenameVSS</text><line style="stroke: #000000; stroke-width: 1.0; stroke-dasharray: 2.0,2.0;" x1="23" x2="994.5" y1="431.8379" y2="431.8379"/><text fill="#000000" font-family="sans-serif" font-size="11" font-weight="bold" lengthAdjust="spacingAndGlyphs" textLength="63" x="28" y="442.4727">[DeleteVSS]</text><polygon fill="#A80036" points="200.5,463.1035,210.5,467.1035,200.5,471.1035,204.5,467.1035" style="stroke: #A80036; stroke-width: 1.0;"/><line style="stroke: #A80036; stroke-width: 1.0;" x1="51.5" x2="206.5" y1="467.1035" y2="467.1035"/><text fill="#000000" font-family="sans-serif" font-size="13" lengthAdjust="spacingAndGlyphs" textLength="127" x="58.5" y="462.3613">deleteVSS(whichVSS)</text><text fill="#000000" font-family="sans-serif" font-size="11" lengthAdjust="spacingAndGlyphs" textLength="121" x="403.5" y="499.7383">described in DeleteVSS</text><line style="stroke: #000000; stroke-width: 1.0; stroke-dasharray: 2.0,2.0;" x1="23" x2="994.5" y1="517.0586" y2="517.0586"/><text fill="#000000" font-family="sans-serif" font-size="11" font-weight="bold" lengthAdjust="spacingAndGlyphs" textLength="67" x="28" y="527.6934">[UploadVSS]</text><polygon fill="#A80036" points="200.5,548.3242,210.5,552.3242,200.5,556.3242,204.5,552.3242" style="stroke: #A80036; stroke-width: 1.0;"/><line style="stroke: #A80036; stroke-width: 1.0;" x1="51.5" x2="206.5" y1="552.3242" y2="552.3242"/><text fill="#000000" font-family="sans-serif" font-size="13" lengthAdjust="spacingAndGlyphs" textLength="132" x="58.5" y="547.582">uploadVSS(whichVSS)</text><text fill="#000000" font-family="sans-serif" font-size="11" lengthAdjust="spacingAndGlyphs" textLength="126" x="401" y="584.959">described in UploadVSS</text><line style="stroke: #000000; stroke-width: 1.0; stroke-dasharray: 2.0,2.0;" x1="23" x2="994.5" y1="602.2793" y2="602.2793"/><text fill="#000000" font-family="sans-serif" font-size="11" font-weight="bold" lengthAdjust="spacingAndGlyphs" textLength="72" x="28" y="612.9141">[PreviewVSS]</text><polygon fill="#A80036" points="200.5,633.5449,210.5,637.5449,200.5,641.5449,204.5,637.5449" style="stroke: #A80036; stroke-width: 1.0;"/><line style="stroke: #A80036; stroke-width: 1.0;" x1="51.5" x2="206.5" y1="637.5449" y2="637.5449"/><text fill="#000000" font-family="sans-serif" font-size="13" lengthAdjust="spacingAndGlyphs" textLength="137" x="58.5" y="632.8027">previewVSS(whichVSS)</text><line style="stroke: #A80036; stroke-width: 1.0;" x1="212.5" x2="254.5" y1="666.8555" y2="666.8555"/><line style="stroke: #A80036; stroke-width: 1.0;" x1="254.5" x2="254.5" y1="666.8555" y2="679.8555"/><line style="stroke: #A80036; stroke-width: 1.0;" x1="213.5" x2="254.5" y1="679.8555" y2="679.8555"/><polygon fill="#A80036" points="223.5,675.8555,213.5,679.8555,223.5,683.8555,219.5,679.8555" style="stroke: #A80036; stroke-width: 1.0;"/><text fill="#000000" font-family="sans-serif" font-size="13" lengthAdjust="spacingAndGlyphs" textLength="137" x="219.5" y="662.1133">previewVSS(whichVSS)</text><path d="M94.5,694.8555 L156.5,694.8555 L156.5,701.8555 L146.5,711.8555 L94.5,711.8555 L94.5,694.8555 " fill="#EEEEEE" style="stroke: #000000; stroke-width: 1.0;"/><rect fill="none" height="123.2422" style="stroke: #000000; stroke-width: 2.0;" width="890" x="94.5" y="694.8555"/><text fill="#000000" font-family="sans-serif" font-size="13" font-weight="bold" lengthAdjust="spacingAndGlyphs" textLength="17" x="109.5" y="708.4238">alt</text><text fill="#000000" font-family="sans-serif" font-size="11" font-weight="bold" lengthAdjust="spacingAndGlyphs" textLength="63" x="171.5" y="707.4902">[local map]</text><polygon fill="#A80036" points="585.5,729.4766,595.5,733.4766,585.5,737.4766,589.5,733.4766" style="stroke: #A80036; stroke-width: 1.0;"/><line style="stroke: #A80036; stroke-width: 1.0;" x1="212.5" x2="591.5" y1="733.4766" y2="733.4766"/><text fill="#000000" font-family="sans-serif" font-size="13" lengthAdjust="spacingAndGlyphs" textLength="78" x="219.5" y="728.7344">&lt;&lt;create&gt;&gt;</text><rect fill="#FEFECE" filter="url(#fy3xtt72d3g3i)" height="30.4883" style="stroke: #A80036; stroke-width: 1.5;" width="167" x="597.5" y="712.166"/><text fill="#000000" font-family="sans-serif" font-size="14" lengthAdjust="spacingAndGlyphs" text-decoration="underline" textLength="153" x="604.5" y="732.7012">:PreviewLocalMapPage</text><line style="stroke: #000000; stroke-width: 1.0;" x1="604.5" x2="757.5" y1="734.7012" y2="734.7012"/><line style="stroke: #000000; stroke-width: 1.0; stroke-dasharray: 2.0,2.0;" x1="94.5" x2="984.5" y1="758.6543" y2="758.6543"/><text fill="#000000" font-family="sans-serif" font-size="11" font-weight="bold" lengthAdjust="spacingAndGlyphs" textLength="80" x="99.5" y="769.2891">[local concert]</text><polygon fill="#A80036" points="766.5,789.9199,776.5,793.9199,766.5,797.9199,770.5,793.9199" style="stroke: #A80036; stroke-width: 1.0;"/><line style="stroke: #A80036; stroke-width: 1.0;" x1="212.5" x2="772.5" y1="793.9199" y2="793.9199"/><text fill="#000000" font-family="sans-serif" font-size="13" lengthAdjust="spacingAndGlyphs" textLength="78" x="219.5" y="789.1777">&lt;&lt;create&gt;&gt;</text><rect fill="#FEFECE" filter="url(#fy3xtt72d3g3i)" height="30.4883" style="stroke: #A80036; stroke-width: 1.5;" width="192" x="778.5" y="772.6094"/><text fill="#000000" font-family="sans-serif" font-size="14" lengthAdjust="spacingAndGlyphs" text-decoration="underline" textLength="178" x="785.5" y="793.1445">:PreviewLocalConcertPage</text><line style="stroke: #000000; stroke-width: 1.0;" x1="785.5" x2="963.5" y1="795.1445" y2="795.1445"/><line style="stroke: #000000; stroke-width: 1.0; stroke-dasharray: 2.0,2.0;" x1="23" x2="994.5" y1="826.0977" y2="826.0977"/><text fill="#000000" font-family="sans-serif" font-size="11" font-weight="bold" lengthAdjust="spacingAndGlyphs" textLength="59" x="28" y="836.7324">[prevPage]</text><polygon fill="#A80036" points="200.5,857.3633,210.5,861.3633,200.5,865.3633,204.5,861.3633" style="stroke: #A80036; stroke-width: 1.0;"/><line style="stroke: #A80036; stroke-width: 1.0;" x1="51.5" x2="206.5" y1="861.3633" y2="861.3633"/><text fill="#000000" font-family="sans-serif" font-size="13" lengthAdjust="spacingAndGlyphs" textLength="64" x="58.5" y="856.6211">prevPage()</text><line style="stroke: #A80036; stroke-width: 1.0;" x1="212.5" x2="254.5" y1="890.6738" y2="890.6738"/><line style="stroke: #A80036; stroke-width: 1.0;" x1="254.5" x2="254.5" y1="890.6738" y2="903.6738"/><line style="stroke: #A80036; stroke-width: 1.0;" x1="213.5" x2="254.5" y1="903.6738" y2="903.6738"/><polygon fill="#A80036" points="223.5,899.6738,213.5,903.6738,223.5,907.6738,219.5,903.6738" style="stroke: #A80036; stroke-width: 1.0;"/><text fill="#000000" font-family="sans-serif" font-size="13" lengthAdjust="spacingAndGlyphs" textLength="64" x="219.5" y="885.9316">prevPage()</text><polygon fill="#A80036" points="481.5,928.9844,491.5,932.9844,481.5,936.9844,485.5,932.9844" style="stroke: #A80036; stroke-width: 1.0;"/><line style="stroke: #A80036; stroke-width: 1.0;" x1="212.5" x2="487.5" y1="932.9844" y2="932.9844"/><text fill="#000000" font-family="sans-serif" font-size="13" lengthAdjust="spacingAndGlyphs" textLength="148" x="219.5" y="928.2422">getVSSList(nextPageNo)</text><polygon fill="#A80036" points="223.5,958.2949,213.5,962.2949,223.5,966.2949,219.5,962.2949" style="stroke: #A80036; stroke-width: 1.0;"/><line style="stroke: #A80036; stroke-width: 1.0; stroke-dasharray: 2.0,2.0;" x1="217.5" x2="492.5" y1="962.2949" y2="962.2949"/><text fill="#000000" font-family="sans-serif" font-size="13" lengthAdjust="spacingAndGlyphs" textLength="257" x="229.5" y="957.5527">listOfLocalVSS: List&lt;VirtualSoundSpace&gt;</text><line style="stroke: #A80036; stroke-width: 1.0;" x1="212.5" x2="254.5" y1="991.6055" y2="991.6055"/><line style="stroke: #A80036; stroke-width: 1.0;" x1="254.5" x2="254.5" y1="991.6055" y2="1004.6055"/><line style="stroke: #A80036; stroke-width: 1.0;" x1="213.5" x2="254.5" y1="1004.6055" y2="1004.6055"/><polygon fill="#A80036" points="223.5,1000.6055,213.5,1004.6055,223.5,1008.6055,219.5,1004.6055" style="stroke: #A80036; stroke-width: 1.0;"/><text fill="#000000" font-family="sans-serif" font-size="13" lengthAdjust="spacingAndGlyphs" textLength="188" x="219.5" y="986.8633">displayVSSList(listOfLocalVSS)</text><line style="stroke: #000000; stroke-width: 1.0; stroke-dasharray: 2.0,2.0;" x1="23" x2="994.5" y1="1013.6055" y2="1013.6055"/><text fill="#000000" font-family="sans-serif" font-size="11" font-weight="bold" lengthAdjust="spacingAndGlyphs" textLength="57" x="28" y="1024.2402">[nextPage]</text><text fill="#000000" font-family="sans-serif" font-size="11" lengthAdjust="spacingAndGlyphs" textLength="83" x="422.5" y="1052.1953">similar, omitted</text><!--
@startuml Diagrams/ManageLocalVSSLibrary
hide footbox
skinparam sequenceParticipant underline

actor User as user
participant ":LocalVSSManagerViewModel" as boundary
participant ":LocalSoundSpaceLibrary" as library

create boundary
[-> boundary: <<create>>
boundary -> library: getVSSList(pageNo: int): List
library - -> boundary: listOfLocalVSS: List<VirtualSoundSpace>
boundary -> boundary: displayVSSList(listOfLocalVSS)

loop
    alt CreateVSS
        user -> boundary: createVSS
        ...described in PlayVSS...
    else RenameVSS
        user -> boundary: renameVSS(whichVSS)
        ...described in RenameVSS...
    else DeleteVSS
        user -> boundary: deleteVSS(whichVSS)
        ...described in DeleteVSS...
    else UploadVSS
        user -> boundary: uploadVSS(whichVSS)
        ...described in UploadVSS...
    else PreviewVSS
        user -> boundary: previewVSS(whichVSS)
        boundary -> boundary: previewVSS(whichVSS)
        alt local map
            participant ":PreviewLocalMapPage" as plmp
            create plmp
            boundary -> plmp: <<create>>

        else local concert
            participant ":PreviewLocalConcertPage" as plcp
            create plcp
            boundary -> plcp: <<create>>
        end
    else prevPage
        user -> boundary: prevPage()
        boundary -> boundary: prevPage()
        boundary -> library: getVSSList(nextPageNo)
        library - -> boundary: listOfLocalVSS: List<VirtualSoundSpace>
        boundary -> boundary: displayVSSList(listOfLocalVSS)
    else nextPage
    ...similar, omitted...
    end
end
@enduml

PlantUML version 1.2018.02(Sat Mar 10 01:20:44 CST 2018)
(GPL source distribution)
Java Runtime: Java(TM) SE Runtime Environment
JVM: Java HotSpot(TM) 64-Bit Server VM
Java Version: 1.8.0_151-b12
Operating System: Mac OS X
OS Version: 10.11.6
Default Encoding: UTF-8
Language: zh
Country: CN
--></g></svg>
