<?xml version="1.0" encoding="UTF-8" standalone="no"?><svg xmlns="http://www.w3.org/2000/svg" xmlns:xlink="http://www.w3.org/1999/xlink" contentScriptType="application/ecmascript" contentStyleType="text/css" height="1039px" preserveAspectRatio="none" style="width:1227px;height:1039px;" version="1.1" viewBox="0 0 1227 1039"
    width="1227px" zoomAndPan="magnify"><defs><filter height="300%" id="f2sqb2anxma52" width="300%" x="-1" y="-1"><feGaussianBlur result="blurOut" stdDeviation="2.0"/><feColorMatrix in="blurOut" result="blurOut2" type="matrix" values="0 0 0 0 0 0 0 0 0 0 0 0 0 0 0 0 0 0 .4 0"/><feOffset dx="4.0" dy="4.0" in="blurOut2" result="blurOut3"/><feBlend in="SourceGraphic" in2="blurOut3" mode="normal"/></filter></defs><g><rect fill="#FEFECE" filter="url(#f2sqb2anxma52)" height="30.4883" style="stroke: #A80036; stroke-width: 1.5;" width="152" x="643.5" y="184.4199"/><text fill="#000000" font-family="sans-serif" font-size="14" lengthAdjust="spacingAndGlyphs" text-decoration="underline" textLength="138" x="650.5" y="204.9551">:LocalVSSViewModel</text><line style="stroke: #000000; stroke-width: 1.0;" x1="650.5" x2="788.5" y1="206.9551" y2="206.9551"/><rect fill="#FFFFFF" filter="url(#f2sqb2anxma52)" height="744.1641" style="stroke: #000000; stroke-width: 2.0;" width="1203.5" x="13" y="266.2188"/><rect fill="#FFFFFF" filter="url(#f2sqb2anxma52)" height="712.8535" style="stroke: #000000; stroke-width: 2.0;" width="1183.5" x="23" y="290.5293"/><rect fill="#FFFFFF" height="85.2207" style="stroke: none; stroke-width: 1.0;" width="1183.5" x="23" y="378.1055"/><rect fill="#FFFFFF" height="85.2207" style="stroke: none; stroke-width: 1.0;" width="1183.5" x="23" y="463.3262"/><rect fill="#FFFFFF" height="85.2207" style="stroke: none; stroke-width: 1.0;" width="1183.5" x="23" y="548.5469"/><rect fill="#FFFFFF" height="181.5078" style="stroke: none; stroke-width: 1.0;" width="1183.5" x="23" y="633.7676"/><rect fill="#FFFFFF" filter="url(#f2sqb2anxma52)" height="123.2422" style="stroke: #000000; stroke-width: 2.0;" width="1056" x="140.5" y="685.0332"/><rect fill="#FEFECE" filter="url(#f2sqb2anxma52)" height="30.4883" style="stroke: #A80036; stroke-width: 1.5;" width="167" x="809.5" y="702.3438"/><text fill="#000000" font-family="sans-serif" font-size="14" lengthAdjust="spacingAndGlyphs" text-decoration="underline" textLength="153" x="816.5" y="722.8789">:PreviewLocalMapPage</text><line style="stroke: #000000; stroke-width: 1.0;" x1="816.5" x2="969.5" y1="724.8789" y2="724.8789"/><rect fill="#FFFFFF" height="60.4434" style="stroke: none; stroke-width: 1.0;" width="1056" x="140.5" y="747.832"/><rect fill="#FEFECE" filter="url(#f2sqb2anxma52)" height="30.4883" style="stroke: #A80036; stroke-width: 1.5;" width="192" x="990.5" y="762.7871"/><text fill="#000000" font-family="sans-serif" font-size="14" lengthAdjust="spacingAndGlyphs" text-decoration="underline" textLength="178" x="997.5" y="783.3223">:PreviewLocalConcertPage</text><line style="stroke: #000000; stroke-width: 1.0;" x1="997.5" x2="1175.5" y1="785.3223" y2="785.3223"/><rect fill="#FFFFFF" height="132.1973" style="stroke: none; stroke-width: 1.0;" width="1183.5" x="23" y="815.2754"/><rect fill="#FFFFFF" height="55.9102" style="stroke: none; stroke-width: 1.0;" width="1183.5" x="23" y="947.4727"/><line style="stroke: #A80036; stroke-width: 1.0;" x1="51" x2="51" y1="86.4883" y2="337.1504"/><line style="stroke: #A80036; stroke-width: 1.0; stroke-dasharray: 1.0,4.0;" x1="51" x2="51" y1="337.1504" y2="378.1055"/><line style="stroke: #A80036; stroke-width: 1.0;" x1="51" x2="51" y1="378.1055" y2="422.3711"/><line style="stroke: #A80036; stroke-width: 1.0; stroke-dasharray: 1.0,4.0;" x1="51" x2="51" y1="422.3711" y2="463.3262"/><line style="stroke: #A80036; stroke-width: 1.0;" x1="51" x2="51" y1="463.3262" y2="507.5918"/><line style="stroke: #A80036; stroke-width: 1.0; stroke-dasharray: 1.0,4.0;" x1="51" x2="51" y1="507.5918" y2="548.5469"/><line style="stroke: #A80036; stroke-width: 1.0;" x1="51" x2="51" y1="548.5469" y2="592.8125"/><line style="stroke: #A80036; stroke-width: 1.0; stroke-dasharray: 1.0,4.0;" x1="51" x2="51" y1="592.8125" y2="633.7676"/><line style="stroke: #A80036; stroke-width: 1.0;" x1="51" x2="51" y1="633.7676" y2="962.4277"/><line style="stroke: #A80036; stroke-width: 1.0; stroke-dasharray: 1.0,4.0;" x1="51" x2="51" y1="962.4277" y2="1003.3828"/><line style="stroke: #A80036; stroke-width: 1.0;" x1="51" x2="51" y1="1003.3828" y2="1027.3828"/><line style="stroke: #A80036; stroke-width: 1.0;" x1="258.5" x2="258.5" y1="86.4883" y2="337.1504"/><line style="stroke: #A80036; stroke-width: 1.0; stroke-dasharray: 1.0,4.0;" x1="258.5" x2="258.5" y1="337.1504" y2="378.1055"/><line style="stroke: #A80036; stroke-width: 1.0;" x1="258.5" x2="258.5" y1="378.1055" y2="422.3711"/><line style="stroke: #A80036; stroke-width: 1.0; stroke-dasharray: 1.0,4.0;" x1="258.5" x2="258.5" y1="422.3711" y2="463.3262"/><line style="stroke: #A80036; stroke-width: 1.0;" x1="258.5" x2="258.5" y1="463.3262" y2="507.5918"/><line style="stroke: #A80036; stroke-width: 1.0; stroke-dasharray: 1.0,4.0;" x1="258.5" x2="258.5" y1="507.5918" y2="548.5469"/><line style="stroke: #A80036; stroke-width: 1.0;" x1="258.5" x2="258.5" y1="548.5469" y2="592.8125"/><line style="stroke: #A80036; stroke-width: 1.0; stroke-dasharray: 1.0,4.0;" x1="258.5" x2="258.5" y1="592.8125" y2="633.7676"/><line style="stroke: #A80036; stroke-width: 1.0;" x1="258.5" x2="258.5" y1="633.7676" y2="962.4277"/><line style="stroke: #A80036; stroke-width: 1.0; stroke-dasharray: 1.0,4.0;" x1="258.5" x2="258.5" y1="962.4277" y2="1003.3828"/><line style="stroke: #A80036; stroke-width: 1.0;" x1="258.5" x2="258.5" y1="1003.3828" y2="1027.3828"/><line style="stroke: #A80036; stroke-width: 1.0;" x1="539.5" x2="539.5" y1="86.4883" y2="337.1504"/><line style="stroke: #A80036; stroke-width: 1.0; stroke-dasharray: 1.0,4.0;" x1="539.5" x2="539.5" y1="337.1504" y2="378.1055"/><line style="stroke: #A80036; stroke-width: 1.0;" x1="539.5" x2="539.5" y1="378.1055" y2="422.3711"/><line style="stroke: #A80036; stroke-width: 1.0; stroke-dasharray: 1.0,4.0;" x1="539.5" x2="539.5" y1="422.3711" y2="463.3262"/><line style="stroke: #A80036; stroke-width: 1.0;" x1="539.5" x2="539.5" y1="463.3262" y2="507.5918"/><line style="stroke: #A80036; stroke-width: 1.0; stroke-dasharray: 1.0,4.0;" x1="539.5" x2="539.5" y1="507.5918" y2="548.5469"/><line style="stroke: #A80036; stroke-width: 1.0;" x1="539.5" x2="539.5" y1="548.5469" y2="592.8125"/><line style="stroke: #A80036; stroke-width: 1.0; stroke-dasharray: 1.0,4.0;" x1="539.5" x2="539.5" y1="592.8125" y2="633.7676"/><line style="stroke: #A80036; stroke-width: 1.0;" x1="539.5" x2="539.5" y1="633.7676" y2="962.4277"/><line style="stroke: #A80036; stroke-width: 1.0; stroke-dasharray: 1.0,4.0;" x1="539.5" x2="539.5" y1="962.4277" y2="1003.3828"/><line style="stroke: #A80036; stroke-width: 1.0;" x1="539.5" x2="539.5" y1="1003.3828" y2="1027.3828"/><line style="stroke: #A80036; stroke-width: 1.0;" x1="721.5" x2="721.5" y1="217.1641" y2="337.1504"/><line style="stroke: #A80036; stroke-width: 1.0; stroke-dasharray: 1.0,4.0;" x1="721.5" x2="721.5" y1="337.1504" y2="378.1055"/><line style="stroke: #A80036; stroke-width: 1.0;" x1="721.5" x2="721.5" y1="378.1055" y2="422.3711"/><line style="stroke: #A80036; stroke-width: 1.0; stroke-dasharray: 1.0,4.0;" x1="721.5" x2="721.5" y1="422.3711" y2="463.3262"/><line style="stroke: #A80036; stroke-width: 1.0;" x1="721.5" x2="721.5" y1="463.3262" y2="507.5918"/><line style="stroke: #A80036; stroke-width: 1.0; stroke-dasharray: 1.0,4.0;" x1="721.5" x2="721.5" y1="507.5918" y2="548.5469"/><line style="stroke: #A80036; stroke-width: 1.0;" x1="721.5" x2="721.5" y1="548.5469" y2="592.8125"/><line style="stroke: #A80036; stroke-width: 1.0; stroke-dasharray: 1.0,4.0;" x1="721.5" x2="721.5" y1="592.8125" y2="633.7676"/><line style="stroke: #A80036; stroke-width: 1.0;" x1="721.5" x2="721.5" y1="633.7676" y2="962.4277"/><line style="stroke: #A80036; stroke-width: 1.0; stroke-dasharray: 1.0,4.0;" x1="721.5" x2="721.5" y1="962.4277" y2="1003.3828"/><line style="stroke: #A80036; stroke-width: 1.0;" x1="721.5" x2="721.5" y1="1003.3828" y2="1027.3828"/><line style="stroke: #A80036; stroke-width: 1.0;" x1="894.5" x2="894.5" y1="735.0879" y2="962.4277"/><line style="stroke: #A80036; stroke-width: 1.0; stroke-dasharray: 1.0,4.0;" x1="894.5" x2="894.5" y1="962.4277" y2="1003.3828"/><line style="stroke: #A80036; stroke-width: 1.0;" x1="894.5" x2="894.5" y1="1003.3828" y2="1027.3828"/><line style="stroke: #A80036; stroke-width: 1.0;" x1="1088.5" x2="1088.5" y1="795.5313" y2="962.4277"/><line style="stroke: #A80036; stroke-width: 1.0; stroke-dasharray: 1.0,4.0;" x1="1088.5" x2="1088.5" y1="962.4277" y2="1003.3828"/><line style="stroke: #A80036; stroke-width: 1.0;" x1="1088.5" x2="1088.5" y1="1003.3828" y2="1027.3828"/><text fill="#000000" font-family="sans-serif" font-size="14" lengthAdjust="spacingAndGlyphs" text-decoration="underline" textLength="31" x="33" y="83.5352">User</text><line style="stroke: #000000; stroke-width: 1.0;" x1="33" x2="64" y1="85.5352" y2="85.5352"/><ellipse cx="51.5" cy="13" fill="#FEFECE" filter="url(#f2sqb2anxma52)" rx="8" ry="8" style="stroke: #A80036; stroke-width: 2.0;"/><path d="M51.5,21 L51.5,48 M38.5,29 L64.5,29 M51.5,48 L38.5,63 M51.5,48 L64.5,63 " fill="none" filter="url(#f2sqb2anxma52)" style="stroke: #A80036; stroke-width: 2.0;"/><rect fill="#FEFECE" filter="url(#f2sqb2anxma52)" height="30.4883" style="stroke: #A80036; stroke-width: 1.5;" width="212" x="150.5" y="51"/><text fill="#000000" font-family="sans-serif" font-size="14" lengthAdjust="spacingAndGlyphs" text-decoration="underline" textLength="198" x="157.5" y="71.5352">:LocalVSSManagerViewModel</text><line style="stroke: #000000; stroke-width: 1.0;" x1="157.5" x2="355.5" y1="73.5352" y2="73.5352"/><rect fill="#FEFECE" filter="url(#f2sqb2anxma52)" height="30.4883" style="stroke: #A80036; stroke-width: 1.5;" width="184" x="445.5" y="51"/><text fill="#000000" font-family="sans-serif" font-size="14" lengthAdjust="spacingAndGlyphs" text-decoration="underline" textLength="170" x="452.5" y="71.5352">:LocalSoundSpaceLibrary</text><line style="stroke: #000000; stroke-width: 1.0;" x1="452.5" x2="622.5" y1="73.5352" y2="73.5352"/><polygon fill="#A80036" points="246.5,113.7988,256.5,117.7988,246.5,121.7988,250.5,117.7988" style="stroke: #A80036; stroke-width: 1.0;"/><line style="stroke: #A80036; stroke-width: 1.0;" x1="3" x2="252.5" y1="117.7988" y2="117.7988"/><text fill="#000000" font-family="sans-serif" font-size="13" lengthAdjust="spacingAndGlyphs" textLength="78" x="10" y="113.0566">&lt;&lt;create&gt;&gt;</text><polygon fill="#A80036" points="527.5,143.1094,537.5,147.1094,527.5,151.1094,531.5,147.1094" style="stroke: #A80036; stroke-width: 1.0;"/><line style="stroke: #A80036; stroke-width: 1.0;" x1="258.5" x2="533.5" y1="147.1094" y2="147.1094"/><text fill="#000000" font-family="sans-serif" font-size="13" lengthAdjust="spacingAndGlyphs" textLength="177" x="265.5" y="142.3672">getVSSList(pageNo: int): List</text><polygon fill="#A80036" points="269.5,172.4199,259.5,176.4199,269.5,180.4199,265.5,176.4199" style="stroke: #A80036; stroke-width: 1.0;"/><line style="stroke: #A80036; stroke-width: 1.0; stroke-dasharray: 2.0,2.0;" x1="263.5" x2="538.5" y1="176.4199" y2="176.4199"/><text fill="#000000" font-family="sans-serif" font-size="13" lengthAdjust="spacingAndGlyphs" textLength="257" x="275.5" y="171.6777">listOfLocalVSS: List&lt;VirtualSoundSpace&gt;</text><polygon fill="#A80036" points="631.5,201.7305,641.5,205.7305,631.5,209.7305,635.5,205.7305" style="stroke: #A80036; stroke-width: 1.0;"/><line style="stroke: #A80036; stroke-width: 1.0;" x1="258.5" x2="637.5" y1="205.7305" y2="205.7305"/><text fill="#000000" font-family="sans-serif" font-size="13" lengthAdjust="spacingAndGlyphs" textLength="78" x="265.5" y="200.9883">&lt;&lt;create&gt;&gt;</text><rect fill="#FEFECE" filter="url(#f2sqb2anxma52)" height="30.4883" style="stroke: #A80036; stroke-width: 1.5;" width="152" x="643.5" y="184.4199"/><text fill="#000000" font-family="sans-serif" font-size="14" lengthAdjust="spacingAndGlyphs" text-decoration="underline" textLength="138" x="650.5" y="204.9551">:LocalVSSViewModel</text><line style="stroke: #000000; stroke-width: 1.0;" x1="650.5" x2="788.5" y1="206.9551" y2="206.9551"/><polygon fill="#A80036" points="709.5,247.2188,719.5,251.2188,709.5,255.2188,713.5,251.2188" style="stroke: #A80036; stroke-width: 1.0;"/><line style="stroke: #A80036; stroke-width: 1.0;" x1="258.5" x2="715.5" y1="251.2188" y2="251.2188"/><text fill="#000000" font-family="sans-serif" font-size="13" lengthAdjust="spacingAndGlyphs" textLength="219" x="265.5" y="246.4766">displayVSSList(listOfLocalVSS):void</text><path d="M13,266.2188 L87,266.2188 L87,273.2188 L77,283.2188 L13,283.2188 L13,266.2188 " fill="#EEEEEE" style="stroke: #000000; stroke-width: 1.0;"/><rect fill="none" height="744.1641" style="stroke: #000000; stroke-width: 2.0;" width="1203.5" x="13" y="266.2188"/><text fill="#000000" font-family="sans-serif" font-size="13" font-weight="bold" lengthAdjust="spacingAndGlyphs" textLength="29" x="28" y="279.7871">loop</text><path d="M23,290.5293 L85,290.5293 L85,297.5293 L75,307.5293 L23,307.5293 L23,290.5293 " fill="#EEEEEE" style="stroke: #000000; stroke-width: 1.0;"/><rect fill="none" height="712.8535" style="stroke: #000000; stroke-width: 2.0;" width="1183.5" x="23" y="290.5293"/><text fill="#000000" font-family="sans-serif" font-size="13" font-weight="bold" lengthAdjust="spacingAndGlyphs" textLength="17" x="38" y="304.0977">alt</text><text fill="#000000" font-family="sans-serif" font-size="11" font-weight="bold" lengthAdjust="spacingAndGlyphs" textLength="63" x="100" y="303.1641">[CreateVSS]</text><polygon fill="#A80036" points="246.5,325.1504,256.5,329.1504,246.5,333.1504,250.5,329.1504" style="stroke: #A80036; stroke-width: 1.0;"/><line style="stroke: #A80036; stroke-width: 1.0;" x1="51.5" x2="252.5" y1="329.1504" y2="329.1504"/><text fill="#000000" font-family="sans-serif" font-size="13" lengthAdjust="spacingAndGlyphs" textLength="183" x="58.5" y="324.4082">onCreateButtonClicked():void</text><text fill="#000000" font-family="sans-serif" font-size="11" lengthAdjust="spacingAndGlyphs" textLength="109" x="515.5" y="361.7852">described in PlayVSS</text><line style="stroke: #000000; stroke-width: 1.0; stroke-dasharray: 2.0,2.0;" x1="23" x2="1206.5" y1="379.1055" y2="379.1055"/><text fill="#000000" font-family="sans-serif" font-size="11" font-weight="bold" lengthAdjust="spacingAndGlyphs" textLength="72" x="28" y="389.7402">[RenameVSS]</text><polygon fill="#A80036" points="709.5,410.3711,719.5,414.3711,709.5,418.3711,713.5,414.3711" style="stroke: #A80036; stroke-width: 1.0;"/><line style="stroke: #A80036; stroke-width: 1.0;" x1="51.5" x2="715.5" y1="414.3711" y2="414.3711"/><text fill="#000000" font-family="sans-serif" font-size="13" lengthAdjust="spacingAndGlyphs" textLength="192" x="58.5" y="409.6289">onRenameButtonClicked():void</text><text fill="#000000" font-family="sans-serif" font-size="11" lengthAdjust="spacingAndGlyphs" textLength="130" x="505" y="447.0059">described in RenameVSS</text><line style="stroke: #000000; stroke-width: 1.0; stroke-dasharray: 2.0,2.0;" x1="23" x2="1206.5" y1="464.3262" y2="464.3262"/><text fill="#000000" font-family="sans-serif" font-size="11" font-weight="bold" lengthAdjust="spacingAndGlyphs" textLength="63" x="28" y="474.9609">[DeleteVSS]</text><polygon fill="#A80036" points="709.5,495.5918,719.5,499.5918,709.5,503.5918,713.5,499.5918" style="stroke: #A80036; stroke-width: 1.0;"/><line style="stroke: #A80036; stroke-width: 1.0;" x1="51.5" x2="715.5" y1="499.5918" y2="499.5918"/><text fill="#000000" font-family="sans-serif" font-size="13" lengthAdjust="spacingAndGlyphs" textLength="183" x="58.5" y="494.8496">onDeleteButtonClicked():void</text><text fill="#000000" font-family="sans-serif" font-size="11" lengthAdjust="spacingAndGlyphs" textLength="121" x="509.5" y="532.2266">described in DeleteVSS</text><line style="stroke: #000000; stroke-width: 1.0; stroke-dasharray: 2.0,2.0;" x1="23" x2="1206.5" y1="549.5469" y2="549.5469"/><text fill="#000000" font-family="sans-serif" font-size="11" font-weight="bold" lengthAdjust="spacingAndGlyphs" textLength="67" x="28" y="560.1816">[UploadVSS]</text><polygon fill="#A80036" points="709.5,580.8125,719.5,584.8125,709.5,588.8125,713.5,584.8125" style="stroke: #A80036; stroke-width: 1.0;"/><line style="stroke: #A80036; stroke-width: 1.0;" x1="51.5" x2="715.5" y1="584.8125" y2="584.8125"/><text fill="#000000" font-family="sans-serif" font-size="13" lengthAdjust="spacingAndGlyphs" textLength="187" x="58.5" y="580.0703">onUploadButtonClicked():void</text><text fill="#000000" font-family="sans-serif" font-size="11" lengthAdjust="spacingAndGlyphs" textLength="126" x="507" y="617.4473">described in UploadVSS</text><line style="stroke: #000000; stroke-width: 1.0; stroke-dasharray: 2.0,2.0;" x1="23" x2="1206.5" y1="634.7676" y2="634.7676"/><text fill="#000000" font-family="sans-serif" font-size="11" font-weight="bold" lengthAdjust="spacingAndGlyphs" textLength="72" x="28" y="645.4023">[PreviewVSS]</text><polygon fill="#A80036" points="709.5,666.0332,719.5,670.0332,709.5,674.0332,713.5,670.0332" style="stroke: #A80036; stroke-width: 1.0;"/><line style="stroke: #A80036; stroke-width: 1.0;" x1="51.5" x2="715.5" y1="670.0332" y2="670.0332"/><text fill="#000000" font-family="sans-serif" font-size="13" lengthAdjust="spacingAndGlyphs" textLength="190" x="58.5" y="665.291">onPreviewButtonClicked():void</text><path d="M140.5,685.0332 L202.5,685.0332 L202.5,692.0332 L192.5,702.0332 L140.5,702.0332 L140.5,685.0332 " fill="#EEEEEE" style="stroke: #000000; stroke-width: 1.0;"/><rect fill="none" height="123.2422" style="stroke: #000000; stroke-width: 2.0;" width="1056" x="140.5" y="685.0332"/><text fill="#000000" font-family="sans-serif" font-size="13" font-weight="bold" lengthAdjust="spacingAndGlyphs" textLength="17" x="155.5" y="698.6016">alt</text><text fill="#000000" font-family="sans-serif" font-size="11" font-weight="bold" lengthAdjust="spacingAndGlyphs" textLength="63" x="217.5" y="697.668">[local map]</text><polygon fill="#A80036" points="797.5,719.6543,807.5,723.6543,797.5,727.6543,801.5,723.6543" style="stroke: #A80036; stroke-width: 1.0;"/><line style="stroke: #A80036; stroke-width: 1.0;" x1="258.5" x2="803.5" y1="723.6543" y2="723.6543"/><text fill="#000000" font-family="sans-serif" font-size="13" lengthAdjust="spacingAndGlyphs" textLength="78" x="265.5" y="718.9121">&lt;&lt;create&gt;&gt;</text><rect fill="#FEFECE" filter="url(#f2sqb2anxma52)" height="30.4883" style="stroke: #A80036; stroke-width: 1.5;" width="167" x="809.5" y="702.3438"/><text fill="#000000" font-family="sans-serif" font-size="14" lengthAdjust="spacingAndGlyphs" text-decoration="underline" textLength="153" x="816.5" y="722.8789">:PreviewLocalMapPage</text><line style="stroke: #000000; stroke-width: 1.0;" x1="816.5" x2="969.5" y1="724.8789" y2="724.8789"/><line style="stroke: #000000; stroke-width: 1.0; stroke-dasharray: 2.0,2.0;" x1="140.5" x2="1196.5" y1="748.832" y2="748.832"/><text fill="#000000" font-family="sans-serif" font-size="11" font-weight="bold" lengthAdjust="spacingAndGlyphs" textLength="80" x="145.5" y="759.4668">[local concert]</text><polygon fill="#A80036" points="978.5,780.0977,988.5,784.0977,978.5,788.0977,982.5,784.0977" style="stroke: #A80036; stroke-width: 1.0;"/><line style="stroke: #A80036; stroke-width: 1.0;" x1="258.5" x2="984.5" y1="784.0977" y2="784.0977"/><text fill="#000000" font-family="sans-serif" font-size="13" lengthAdjust="spacingAndGlyphs" textLength="78" x="265.5" y="779.3555">&lt;&lt;create&gt;&gt;</text><rect fill="#FEFECE" filter="url(#f2sqb2anxma52)" height="30.4883" style="stroke: #A80036; stroke-width: 1.5;" width="192" x="990.5" y="762.7871"/><text fill="#000000" font-family="sans-serif" font-size="14" lengthAdjust="spacingAndGlyphs" text-decoration="underline" textLength="178" x="997.5" y="783.3223">:PreviewLocalConcertPage</text><line style="stroke: #000000; stroke-width: 1.0;" x1="997.5" x2="1175.5" y1="785.3223" y2="785.3223"/><line style="stroke: #000000; stroke-width: 1.0; stroke-dasharray: 2.0,2.0;" x1="23" x2="1206.5" y1="816.2754" y2="816.2754"/><text fill="#000000" font-family="sans-serif" font-size="11" font-weight="bold" lengthAdjust="spacingAndGlyphs" textLength="59" x="28" y="826.9102">[prevPage]</text><polygon fill="#A80036" points="246.5,847.541,256.5,851.541,246.5,855.541,250.5,851.541" style="stroke: #A80036; stroke-width: 1.0;"/><line style="stroke: #A80036; stroke-width: 1.0;" x1="51.5" x2="252.5" y1="851.541" y2="851.541"/><text fill="#000000" font-family="sans-serif" font-size="13" lengthAdjust="spacingAndGlyphs" textLength="169" x="58.5" y="846.7988">onPrevButtonClicked():void</text><polygon fill="#A80036" points="527.5,876.8516,537.5,880.8516,527.5,884.8516,531.5,880.8516" style="stroke: #A80036; stroke-width: 1.0;"/><line style="stroke: #A80036; stroke-width: 1.0;" x1="258.5" x2="533.5" y1="880.8516" y2="880.8516"/><text fill="#000000" font-family="sans-serif" font-size="13" lengthAdjust="spacingAndGlyphs" textLength="148" x="265.5" y="876.1094">getVSSList(nextPageNo)</text><polygon fill="#A80036" points="269.5,906.1621,259.5,910.1621,269.5,914.1621,265.5,910.1621" style="stroke: #A80036; stroke-width: 1.0;"/><line style="stroke: #A80036; stroke-width: 1.0; stroke-dasharray: 2.0,2.0;" x1="263.5" x2="538.5" y1="910.1621" y2="910.1621"/><text fill="#000000" font-family="sans-serif" font-size="13" lengthAdjust="spacingAndGlyphs" textLength="257" x="275.5" y="905.4199">listOfLocalVSS: List&lt;VirtualSoundSpace&gt;</text><polygon fill="#A80036" points="709.5,935.4727,719.5,939.4727,709.5,943.4727,713.5,939.4727" style="stroke: #A80036; stroke-width: 1.0;"/><line style="stroke: #A80036; stroke-width: 1.0;" x1="258.5" x2="715.5" y1="939.4727" y2="939.4727"/><text fill="#000000" font-family="sans-serif" font-size="13" lengthAdjust="spacingAndGlyphs" textLength="219" x="265.5" y="934.7305">displayVSSList(listOfLocalVSS):void</text><line style="stroke: #000000; stroke-width: 1.0; stroke-dasharray: 2.0,2.0;" x1="23" x2="1206.5" y1="948.4727" y2="948.4727"/><text fill="#000000" font-family="sans-serif" font-size="11" font-weight="bold" lengthAdjust="spacingAndGlyphs" textLength="57" x="28" y="959.1074">[nextPage]</text><text fill="#000000" font-family="sans-serif" font-size="11" lengthAdjust="spacingAndGlyphs" textLength="83" x="528.5" y="987.0625">similar, omitted</text><!--
@startuml Diagrams/ManageLocalVSSLibrary
hide footbox
skinparam sequenceParticipant underline

actor User as user
participant ":LocalVSSManagerViewModel" as boundary
participant ":LocalSoundSpaceLibrary" as library

create boundary
[-> boundary: <<create>>
boundary -> library: getVSSList(pageNo: int): List
library - -> boundary: listOfLocalVSS: List<VirtualSoundSpace>
participant ":LocalVSSViewModel" as lvvw
create lvvw
boundary -> lvvw: <<create>>
boundary -> lvvw: displayVSSList(listOfLocalVSS):void

loop
    alt CreateVSS
        user -> boundary: onCreateButtonClicked():void
        ...described in PlayVSS...
    else RenameVSS
        user -> lvvw: onRenameButtonClicked():void
        ...described in RenameVSS...
    else DeleteVSS
        user -> lvvw: onDeleteButtonClicked():void
        ...described in DeleteVSS...
    else UploadVSS
        user -> lvvw: onUploadButtonClicked():void
        ...described in UploadVSS...
    else PreviewVSS
        user -> lvvw: onPreviewButtonClicked():void
        alt local map
            participant ":PreviewLocalMapPage" as plmp
            create plmp
            boundary -> plmp: <<create>>

        else local concert
            participant ":PreviewLocalConcertPage" as plcp
            create plcp
            boundary -> plcp: <<create>>
        end
    else prevPage
        user -> boundary: onPrevButtonClicked():void
        boundary -> library: getVSSList(nextPageNo)
        library - -> boundary: listOfLocalVSS: List<VirtualSoundSpace>
        boundary -> lvvw: displayVSSList(listOfLocalVSS):void
    else nextPage
    ...similar, omitted...
    end
end
@enduml

PlantUML version 1.2018.02(Sat Mar 10 01:20:44 CST 2018)
(GPL source distribution)
Java Runtime: Java(TM) SE Runtime Environment
JVM: Java HotSpot(TM) 64-Bit Server VM
Java Version: 1.8.0_151-b12
Operating System: Mac OS X
OS Version: 10.11.6
Default Encoding: UTF-8
Language: zh
Country: CN
--></g></svg>
