<?xml version="1.0" encoding="UTF-8" standalone="no"?><svg xmlns="http://www.w3.org/2000/svg" xmlns:xlink="http://www.w3.org/1999/xlink" contentScriptType="application/ecmascript" contentStyleType="text/css" height="496px" preserveAspectRatio="none" style="width:798px;height:496px;" version="1.1" viewBox="0 0 798 496" width="798px" zoomAndPan="magnify"><defs><filter height="300%" id="fb00946dye0tg" width="300%" x="-1" y="-1"><feGaussianBlur result="blurOut" stdDeviation="2.0"/><feColorMatrix in="blurOut" result="blurOut2" type="matrix" values="0 0 0 0 0 0 0 0 0 0 0 0 0 0 0 0 0 0 .4 0"/><feOffset dx="4.0" dy="4.0" in="blurOut2" result="blurOut3"/><feBlend in="SourceGraphic" in2="blurOut3" mode="normal"/></filter></defs><g><!--cluster OnlineVSSSubsystem--><rect fill="#FFFFFF" filter="url(#fb00946dye0tg)" height="192" style="stroke: #000000; stroke-width: 1.5;" width="288" x="499.5" y="24.5"/><rect fill="#FFFFFF" height="10" style="stroke: #000000; stroke-width: 1.5;" width="15" x="767.5" y="29.5"/><rect fill="#FFFFFF" height="2" style="stroke: #000000; stroke-width: 1.5;" width="4" x="765.5" y="31.5"/><rect fill="#FFFFFF" height="2" style="stroke: #000000; stroke-width: 1.5;" width="4" x="765.5" y="35.5"/><text fill="#000000" font-family="sans-serif" font-size="14" font-weight="bold" lengthAdjust="spacingAndGlyphs" textLength="149" x="569" y="53.5439">OnlineVSSSubsystem</text><!--class OnlineSoundSpaceLibrary--><rect fill="#FEFECE" filter="url(#fb00946dye0tg)" height="138.1377" id="OnlineSoundSpaceLibrary" style="stroke: #A80036; stroke-width: 1.5;" width="255" x="516" y="62.5"/><ellipse cx="567.25" cy="78.5" fill="#ADD1B2" rx="11" ry="11" style="stroke: #A80036; stroke-width: 1.0;"/><path d="M565.8281,83.8594 Q563.9688,83.8594 562.875,82.4688 Q561.7813,81.0781 561.7813,78.0938 Q561.7813,75.5625 562.9453,73.9063 Q564.1094,72.25 566.0938,72.25 Q567.5625,72.25 568.0313,72.375 Q568.5,72.5781 568.5,72.5781 Q568.5,72.5781 568.5,72.5078 Q568.5,72.4375 569.1094,71.5156 L570.1563,75.1719 L568.8281,75.5781 Q568.3594,74.0313 567.6953,73.3672 Q567.0313,72.7031 565.9688,72.7031 Q565.5781,72.7031 564.8125,74.2344 Q564.0469,75.7656 564.0469,78.0156 Q564.0469,80.4844 564.7109,81.875 Q565.375,83.2656 565.9063,83.2656 Q566.9688,83.2656 567.7266,82.5 Q568.4844,81.7344 568.8281,80.0781 L570.1563,80.6719 Q569.8281,82.0781 568.9297,82.9688 Q568.0313,83.8594 565.8281,83.8594 Z "/><text fill="#000000" font-family="sans-serif" font-size="12" lengthAdjust="spacingAndGlyphs" textLength="144" x="587.75" y="84.0576">OnlineSoundSpaceLibrary</text><line style="stroke: #A80036; stroke-width: 1.5;" x1="517" x2="770" y1="94.5" y2="94.5"/><rect fill="none" height="6" style="stroke: #C82930; stroke-width: 1.0;" width="6" x="524" y="123.5344"/><text fill="#000000" font-family="sans-serif" font-size="11" lengthAdjust="spacingAndGlyphs" textLength="229" x="536" y="130.1289">nowPreviewVSSList: List&lt;VirtualSoundSpace&gt;</text><line style="stroke: #A80036; stroke-width: 1.0; stroke-dasharray: 1.0,2.0;" x1="517" x2="627" y1="110.0115" y2="110.0115"/><text fill="#000000" font-family="sans-serif" font-size="11" lengthAdjust="spacingAndGlyphs" textLength="33" x="627" y="114.606">private</text><line style="stroke: #A80036; stroke-width: 1.0; stroke-dasharray: 1.0,2.0;" x1="660" x2="770" y1="110.0115" y2="110.0115"/><ellipse cx="527" cy="160.5803" fill="#84BE84" rx="3" ry="3" style="stroke: #038048; stroke-width: 1.0;"/><text fill="#000000" font-family="sans-serif" font-size="11" lengthAdjust="spacingAndGlyphs" textLength="225" x="536" y="164.1748">getPreview(int num): List&lt;VirtualSoundSpace&gt;</text><ellipse cx="527" cy="175.6033" fill="#84BE84" rx="3" ry="3" style="stroke: #038048; stroke-width: 1.0;"/><text fill="#000000" font-family="sans-serif" font-size="11" lengthAdjust="spacingAndGlyphs" textLength="210" x="536" y="179.1978">commentVSS(VirtualSoundSpace vss):void</text><ellipse cx="527" cy="190.6262" fill="#84BE84" rx="3" ry="3" style="stroke: #038048; stroke-width: 1.0;"/><text fill="#000000" font-family="sans-serif" font-size="11" lengthAdjust="spacingAndGlyphs" textLength="182" x="536" y="194.2207">likeVSS(VirtualSoundSpace vss):void</text><line style="stroke: #A80036; stroke-width: 1.0; stroke-dasharray: 1.0,2.0;" x1="517" x2="629.5" y1="144.0574" y2="144.0574"/><text fill="#000000" font-family="sans-serif" font-size="11" lengthAdjust="spacingAndGlyphs" textLength="28" x="629.5" y="148.6519">public</text><line style="stroke: #A80036; stroke-width: 1.0; stroke-dasharray: 1.0,2.0;" x1="657.5" x2="770" y1="144.0574" y2="144.0574"/><!--class OnlineVSSViewerViewModel--><rect fill="#FEFECE" filter="url(#fb00946dye0tg)" height="209.0068" id="OnlineVSSViewerViewModel" style="stroke: #A80036; stroke-width: 1.5;" width="257" x="6" y="27"/><ellipse cx="52.75" cy="48.3887" fill="#ADD1B2" rx="11" ry="11" style="stroke: #A80036; stroke-width: 1.0;"/><path d="M51.3281,53.748 Q49.4688,53.748 48.375,52.3574 Q47.2813,50.9668 47.2813,47.9824 Q47.2813,45.4512 48.4453,43.7949 Q49.6094,42.1387 51.5938,42.1387 Q53.0625,42.1387 53.5313,42.2637 Q54,42.4668 54,42.4668 Q54,42.4668 54,42.3965 Q54,42.3262 54.6094,41.4043 L55.6563,45.0605 L54.3281,45.4668 Q53.8594,43.9199 53.1953,43.2559 Q52.5313,42.5918 51.4688,42.5918 Q51.0781,42.5918 50.3125,44.123 Q49.5469,45.6543 49.5469,47.9043 Q49.5469,50.373 50.2109,51.7637 Q50.875,53.1543 51.4063,53.1543 Q52.4688,53.1543 53.2266,52.3887 Q53.9844,51.623 54.3281,49.9668 L55.6563,50.5605 Q55.3281,51.9668 54.4297,52.8574 Q53.5313,53.748 51.3281,53.748 Z "/><text fill="#000000" font-family="sans-serif" font-size="12" font-style="italic" lengthAdjust="spacingAndGlyphs" textLength="71" x="115.25" y="45.752">«viewModel»</text><text fill="#000000" font-family="sans-serif" font-size="12" lengthAdjust="spacingAndGlyphs" textLength="155" x="73.25" y="62.1406">OnlineVSSViewerViewModel</text><line style="stroke: #A80036; stroke-width: 1.5;" x1="7" x2="262" y1="69.7773" y2="69.7773"/><rect fill="none" height="6" style="stroke: #C82930; stroke-width: 1.0;" width="6" x="14" y="98.8118"/><text fill="#000000" font-family="sans-serif" font-size="11" lengthAdjust="spacingAndGlyphs" textLength="87" x="26" y="105.4063">prevPage:boolean</text><rect fill="none" height="6" style="stroke: #C82930; stroke-width: 1.0;" width="6" x="14" y="113.8347"/><text fill="#000000" font-family="sans-serif" font-size="11" lengthAdjust="spacingAndGlyphs" textLength="86" x="26" y="120.4292">nextPage:boolean</text><rect fill="none" height="6" style="stroke: #C82930; stroke-width: 1.0;" width="6" x="14" y="128.8577"/><text fill="#000000" font-family="sans-serif" font-size="11" lengthAdjust="spacingAndGlyphs" textLength="231" x="26" y="135.4521">virtualSoundSpaces:List&lt;LocalVSSViewModel&gt;</text><ellipse cx="17" cy="146.8806" fill="#84BE84" rx="3" ry="3" style="stroke: #038048; stroke-width: 1.0;"/><text fill="#000000" font-family="sans-serif" font-size="11" lengthAdjust="spacingAndGlyphs" textLength="180" x="26" y="150.4751">displayVSSList(listOfLocalVSS): void</text><line style="stroke: #A80036; stroke-width: 1.0; stroke-dasharray: 1.0,2.0;" x1="7" x2="118" y1="85.2888" y2="85.2888"/><text fill="#000000" font-family="sans-serif" font-size="11" lengthAdjust="spacingAndGlyphs" textLength="33" x="118" y="89.8833">private</text><line style="stroke: #A80036; stroke-width: 1.0; stroke-dasharray: 1.0,2.0;" x1="151" x2="262" y1="85.2888" y2="85.2888"/><ellipse cx="17" cy="180.9265" fill="#84BE84" rx="3" ry="3" style="stroke: #038048; stroke-width: 1.0;"/><text fill="#000000" font-family="sans-serif" font-size="11" lengthAdjust="spacingAndGlyphs" textLength="182" x="26" y="184.521">receiveVSSList(listOfLocalVSS): void</text><ellipse cx="17" cy="195.9495" fill="#84BE84" rx="3" ry="3" style="stroke: #038048; stroke-width: 1.0;"/><text fill="#000000" font-family="sans-serif" font-size="11" lengthAdjust="spacingAndGlyphs" textLength="140" x="26" y="199.5439">onCreateButtonClicked():void</text><ellipse cx="17" cy="210.9724" fill="#84BE84" rx="3" ry="3" style="stroke: #038048; stroke-width: 1.0;"/><text fill="#000000" font-family="sans-serif" font-size="11" lengthAdjust="spacingAndGlyphs" textLength="130" x="26" y="214.5669">onPrevButtonClicked():void</text><ellipse cx="17" cy="225.9954" fill="#84BE84" rx="3" ry="3" style="stroke: #038048; stroke-width: 1.0;"/><text fill="#000000" font-family="sans-serif" font-size="11" lengthAdjust="spacingAndGlyphs" textLength="130" x="26" y="229.5898">onNextButtonClicked():void</text><line style="stroke: #A80036; stroke-width: 1.0; stroke-dasharray: 1.0,2.0;" x1="7" x2="120.5" y1="164.4036" y2="164.4036"/><text fill="#000000" font-family="sans-serif" font-size="11" lengthAdjust="spacingAndGlyphs" textLength="28" x="120.5" y="168.998">public</text><line style="stroke: #A80036; stroke-width: 1.0; stroke-dasharray: 1.0,2.0;" x1="148.5" x2="262" y1="164.4036" y2="164.4036"/><!--class OnlineVSSViewModel--><rect fill="#FEFECE" filter="url(#fb00946dye0tg)" height="133.8921" id="OnlineVSSViewModel" style="stroke: #A80036; stroke-width: 1.5;" width="183" x="298" y="64.5"/><ellipse cx="327.85" cy="85.8887" fill="#ADD1B2" rx="11" ry="11" style="stroke: #A80036; stroke-width: 1.0;"/><path d="M326.4281,91.248 Q324.5688,91.248 323.475,89.8574 Q322.3813,88.4668 322.3813,85.4824 Q322.3813,82.9512 323.5453,81.2949 Q324.7094,79.6387 326.6938,79.6387 Q328.1625,79.6387 328.6313,79.7637 Q329.1,79.9668 329.1,79.9668 Q329.1,79.9668 329.1,79.8965 Q329.1,79.8262 329.7094,78.9043 L330.7563,82.5605 L329.4281,82.9668 Q328.9594,81.4199 328.2953,80.7559 Q327.6313,80.0918 326.5688,80.0918 Q326.1781,80.0918 325.4125,81.623 Q324.6469,83.1543 324.6469,85.4043 Q324.6469,87.873 325.3109,89.2637 Q325.975,90.6543 326.5063,90.6543 Q327.5688,90.6543 328.3266,89.8887 Q329.0844,89.123 329.4281,87.4668 L330.7563,88.0605 Q330.4281,89.4668 329.5297,90.3574 Q328.6313,91.248 326.4281,91.248 Z "/><text fill="#000000" font-family="sans-serif" font-size="12" font-style="italic" lengthAdjust="spacingAndGlyphs" textLength="71" x="368.65" y="83.252">«viewModel»</text><text fill="#000000" font-family="sans-serif" font-size="12" lengthAdjust="spacingAndGlyphs" textLength="118" x="345.15" y="99.6406">OnlineVSSViewModel</text><line style="stroke: #A80036; stroke-width: 1.5;" x1="299" x2="480" y1="107.2773" y2="107.2773"/><rect fill="none" height="6" style="stroke: #C82930; stroke-width: 1.0;" width="6" x="306" y="136.3118"/><text fill="#000000" font-family="sans-serif" font-size="11" lengthAdjust="spacingAndGlyphs" textLength="135" x="318" y="142.9063">thisVSS:VirtualSoundSpace</text><line style="stroke: #A80036; stroke-width: 1.0; stroke-dasharray: 1.0,2.0;" x1="299" x2="373" y1="122.7888" y2="122.7888"/><text fill="#000000" font-family="sans-serif" font-size="11" lengthAdjust="spacingAndGlyphs" textLength="33" x="373" y="127.3833">private</text><line style="stroke: #A80036; stroke-width: 1.0; stroke-dasharray: 1.0,2.0;" x1="406" x2="480" y1="122.7888" y2="122.7888"/><ellipse cx="309" cy="173.3577" fill="#84BE84" rx="3" ry="3" style="stroke: #038048; stroke-width: 1.0;"/><text fill="#000000" font-family="sans-serif" font-size="11" lengthAdjust="spacingAndGlyphs" textLength="148" x="318" y="176.9521">onPreviewButtonClicked():void</text><ellipse cx="309" cy="188.3806" fill="#84BE84" rx="3" ry="3" style="stroke: #038048; stroke-width: 1.0;"/><text fill="#000000" font-family="sans-serif" font-size="11" lengthAdjust="spacingAndGlyphs" textLength="157" x="318" y="191.9751">onDownloadButtonClicked():void</text><line style="stroke: #A80036; stroke-width: 1.0; stroke-dasharray: 1.0,2.0;" x1="299" x2="375.5" y1="156.8347" y2="156.8347"/><text fill="#000000" font-family="sans-serif" font-size="11" lengthAdjust="spacingAndGlyphs" textLength="28" x="375.5" y="161.4292">public</text><line style="stroke: #A80036; stroke-width: 1.0; stroke-dasharray: 1.0,2.0;" x1="403.5" x2="480" y1="156.8347" y2="156.8347"/><!--class PreviewOnlineMapViewModel--><rect fill="#FEFECE" filter="url(#fb00946dye0tg)" height="189.9839" id="PreviewOnlineMapViewModel" style="stroke: #A80036; stroke-width: 1.5;" width="209" x="30" y="296"/><ellipse cx="52.2" cy="317.3887" fill="#ADD1B2" rx="11" ry="11" style="stroke: #A80036; stroke-width: 1.0;"/><path d="M50.7781,322.748 Q48.9188,322.748 47.825,321.3574 Q46.7313,319.9668 46.7313,316.9824 Q46.7313,314.4512 47.8953,312.7949 Q49.0594,311.1387 51.0438,311.1387 Q52.5125,311.1387 52.9813,311.2637 Q53.45,311.4668 53.45,311.4668 Q53.45,311.4668 53.45,311.3965 Q53.45,311.3262 54.0594,310.4043 L55.1063,314.0605 L53.7781,314.4668 Q53.3094,312.9199 52.6453,312.2559 Q51.9813,311.5918 50.9188,311.5918 Q50.5281,311.5918 49.7625,313.123 Q48.9969,314.6543 48.9969,316.9043 Q48.9969,319.373 49.6609,320.7637 Q50.325,322.1543 50.8563,322.1543 Q51.9188,322.1543 52.6766,321.3887 Q53.4344,320.623 53.7781,318.9668 L55.1063,319.5605 Q54.7781,320.9668 53.8797,321.8574 Q52.9813,322.748 50.7781,322.748 Z "/><text fill="#000000" font-family="sans-serif" font-size="12" font-style="italic" lengthAdjust="spacingAndGlyphs" textLength="71" x="112.8" y="314.752">«viewModel»</text><text fill="#000000" font-family="sans-serif" font-size="12" lengthAdjust="spacingAndGlyphs" textLength="161" x="67.8" y="331.1406">PreviewOnlineMapViewModel</text><line style="stroke: #A80036; stroke-width: 1.5;" x1="31" x2="238" y1="338.7773" y2="338.7773"/><rect fill="none" height="6" style="stroke: #C82930; stroke-width: 1.0;" width="6" x="38" y="367.8118"/><text fill="#000000" font-family="sans-serif" font-size="11" lengthAdjust="spacingAndGlyphs" textLength="80" x="50" y="374.4063">VSSName:String</text><rect fill="none" height="6" style="stroke: #C82930; stroke-width: 1.0;" width="6" x="38" y="382.8347"/><text fill="#000000" font-family="sans-serif" font-size="11" lengthAdjust="spacingAndGlyphs" textLength="107" x="50" y="389.4292">VSSDescription:String</text><rect fill="none" height="6" style="stroke: #C82930; stroke-width: 1.0;" width="6" x="38" y="397.8577"/><text fill="#000000" font-family="sans-serif" font-size="11" lengthAdjust="spacingAndGlyphs" textLength="183" x="50" y="404.4521">soundSourceList: List&lt;SoundSource&gt;</text><line style="stroke: #A80036; stroke-width: 1.0; stroke-dasharray: 1.0,2.0;" x1="50" x2="50" y1="414.3806" y2="414.3806"/><text fill="#000000" font-family="sans-serif" font-size="11" lengthAdjust="spacingAndGlyphs" textLength="28" x="50" y="418.9751">public</text><line style="stroke: #A80036; stroke-width: 1.0; stroke-dasharray: 1.0,2.0;" x1="78" x2="78" y1="414.3806" y2="414.3806"/><ellipse cx="41" cy="430.9036" fill="#84BE84" rx="3" ry="3" style="stroke: #038048; stroke-width: 1.0;"/><text fill="#000000" font-family="sans-serif" font-size="11" lengthAdjust="spacingAndGlyphs" textLength="157" x="50" y="434.498">onDownloadButtonClicked():void</text><ellipse cx="41" cy="445.9265" fill="#84BE84" rx="3" ry="3" style="stroke: #038048; stroke-width: 1.0;"/><text fill="#000000" font-family="sans-serif" font-size="11" lengthAdjust="spacingAndGlyphs" textLength="152" x="50" y="449.521">onCommentButtonClicked():void</text><ellipse cx="41" cy="460.9495" fill="#84BE84" rx="3" ry="3" style="stroke: #038048; stroke-width: 1.0;"/><text fill="#000000" font-family="sans-serif" font-size="11" lengthAdjust="spacingAndGlyphs" textLength="127" x="50" y="464.5439">onLikeButtonClicked():void</text><ellipse cx="41" cy="475.9724" fill="#84BE84" rx="3" ry="3" style="stroke: #038048; stroke-width: 1.0;"/><text fill="#000000" font-family="sans-serif" font-size="11" lengthAdjust="spacingAndGlyphs" textLength="125" x="50" y="479.5669">onExitButtonClicked():void</text><line style="stroke: #A80036; stroke-width: 1.0; stroke-dasharray: 1.0,2.0;" x1="31" x2="118" y1="354.2888" y2="354.2888"/><text fill="#000000" font-family="sans-serif" font-size="11" lengthAdjust="spacingAndGlyphs" textLength="33" x="118" y="358.8833">private</text><line style="stroke: #A80036; stroke-width: 1.0; stroke-dasharray: 1.0,2.0;" x1="151" x2="238" y1="354.2888" y2="354.2888"/><!--class PreviewOnlineConcertViewModel--><rect fill="#FEFECE" filter="url(#fb00946dye0tg)" height="189.9839" id="PreviewOnlineConcertViewModel" style="stroke: #A80036; stroke-width: 1.5;" width="213" x="274" y="296"/><ellipse cx="289" cy="317.3887" fill="#ADD1B2" rx="11" ry="11" style="stroke: #A80036; stroke-width: 1.0;"/><path d="M287.5781,322.748 Q285.7188,322.748 284.625,321.3574 Q283.5313,319.9668 283.5313,316.9824 Q283.5313,314.4512 284.6953,312.7949 Q285.8594,311.1387 287.8438,311.1387 Q289.3125,311.1387 289.7813,311.2637 Q290.25,311.4668 290.25,311.4668 Q290.25,311.4668 290.25,311.3965 Q290.25,311.3262 290.8594,310.4043 L291.9063,314.0605 L290.5781,314.4668 Q290.1094,312.9199 289.4453,312.2559 Q288.7813,311.5918 287.7188,311.5918 Q287.3281,311.5918 286.5625,313.123 Q285.7969,314.6543 285.7969,316.9043 Q285.7969,319.373 286.4609,320.7637 Q287.125,322.1543 287.6563,322.1543 Q288.7188,322.1543 289.4766,321.3887 Q290.2344,320.623 290.5781,318.9668 L291.9063,319.5605 Q291.5781,320.9668 290.6797,321.8574 Q289.7813,322.748 287.5781,322.748 Z "/><text fill="#000000" font-family="sans-serif" font-size="12" font-style="italic" lengthAdjust="spacingAndGlyphs" textLength="71" x="358" y="314.752">«viewModel»</text><text fill="#000000" font-family="sans-serif" font-size="12" lengthAdjust="spacingAndGlyphs" textLength="181" x="303" y="331.1406">PreviewOnlineConcertViewModel</text><line style="stroke: #A80036; stroke-width: 1.5;" x1="275" x2="486" y1="338.7773" y2="338.7773"/><rect fill="none" height="6" style="stroke: #C82930; stroke-width: 1.0;" width="6" x="282" y="367.8118"/><text fill="#000000" font-family="sans-serif" font-size="11" lengthAdjust="spacingAndGlyphs" textLength="80" x="294" y="374.4063">VSSName:String</text><rect fill="none" height="6" style="stroke: #C82930; stroke-width: 1.0;" width="6" x="282" y="382.8347"/><text fill="#000000" font-family="sans-serif" font-size="11" lengthAdjust="spacingAndGlyphs" textLength="107" x="294" y="389.4292">VSSDescription:String</text><rect fill="none" height="6" style="stroke: #C82930; stroke-width: 1.0;" width="6" x="282" y="397.8577"/><text fill="#000000" font-family="sans-serif" font-size="11" lengthAdjust="spacingAndGlyphs" textLength="183" x="294" y="404.4521">soundSourceList: List&lt;SoundSource&gt;</text><line style="stroke: #A80036; stroke-width: 1.0; stroke-dasharray: 1.0,2.0;" x1="294" x2="294" y1="414.3806" y2="414.3806"/><text fill="#000000" font-family="sans-serif" font-size="11" lengthAdjust="spacingAndGlyphs" textLength="28" x="294" y="418.9751">public</text><line style="stroke: #A80036; stroke-width: 1.0; stroke-dasharray: 1.0,2.0;" x1="322" x2="322" y1="414.3806" y2="414.3806"/><ellipse cx="285" cy="430.9036" fill="#84BE84" rx="3" ry="3" style="stroke: #038048; stroke-width: 1.0;"/><text fill="#000000" font-family="sans-serif" font-size="11" lengthAdjust="spacingAndGlyphs" textLength="157" x="294" y="434.498">onDownloadButtonClicked():void</text><ellipse cx="285" cy="445.9265" fill="#84BE84" rx="3" ry="3" style="stroke: #038048; stroke-width: 1.0;"/><text fill="#000000" font-family="sans-serif" font-size="11" lengthAdjust="spacingAndGlyphs" textLength="152" x="294" y="449.521">onCommentButtonClicked():void</text><ellipse cx="285" cy="460.9495" fill="#84BE84" rx="3" ry="3" style="stroke: #038048; stroke-width: 1.0;"/><text fill="#000000" font-family="sans-serif" font-size="11" lengthAdjust="spacingAndGlyphs" textLength="127" x="294" y="464.5439">onLikeButtonClicked():void</text><ellipse cx="285" cy="475.9724" fill="#84BE84" rx="3" ry="3" style="stroke: #038048; stroke-width: 1.0;"/><text fill="#000000" font-family="sans-serif" font-size="11" lengthAdjust="spacingAndGlyphs" textLength="125" x="294" y="479.5669">onExitButtonClicked():void</text><line style="stroke: #A80036; stroke-width: 1.0; stroke-dasharray: 1.0,2.0;" x1="275" x2="364" y1="354.2888" y2="354.2888"/><text fill="#000000" font-family="sans-serif" font-size="11" lengthAdjust="spacingAndGlyphs" textLength="33" x="364" y="358.8833">private</text><line style="stroke: #A80036; stroke-width: 1.0; stroke-dasharray: 1.0,2.0;" x1="397" x2="486" y1="354.2888" y2="354.2888"/><ellipse cx="643.5" cy="391" fill="#FEFECE" filter="url(#fb00946dye0tg)" rx="5" ry="5" style="stroke: #A80036; stroke-width: 1.5;"/><text fill="#000000" font-family="sans-serif" font-size="12" lengthAdjust="spacingAndGlyphs" textLength="99" x="594" y="409.752">OnlineVSSAccess</text><!--link OnlineSoundSpaceLibrary to OnlineSoundSpaceLibrarylol8--><path d="M643.5,200.829 C643.5,268.473 643.5,364.894 643.5,385.871 " fill="none" id="OnlineSoundSpaceLibrary-OnlineSoundSpaceLibrarylol8" style="stroke: #A80036; stroke-width: 1.0;"/><!--link OnlineVSSViewerViewModel to OnlineVSSViewModel--><!--link OnlineVSSViewerViewModel to PreviewOnlineMapViewModel--><!--link PreviewOnlineMapViewModel to PreviewOnlineConcertViewModel--><!--
@startuml Diagrams/OnlineVSSSubsystemClassDiagram
component OnlineVSSSubsystem {
    class OnlineSoundSpaceLibrary {
    ..private..
    - nowPreviewVSSList: List<VirtualSoundSpace>
    ..public..
    + getPreview(int num): List<VirtualSoundSpace>
    + commentVSS(VirtualSoundSpace vss):void
    + likeVSS(VirtualSoundSpace vss):void
    }
}

class OnlineVSSViewerViewModel <<viewModel>> {
  ..private..
  -prevPage:boolean
  -nextPage:boolean
  -virtualSoundSpaces:List<LocalVSSViewModel>
	+displayVSSList(listOfLocalVSS): void
  ..public..
	+receiveVSSList(listOfLocalVSS): void
  +onCreateButtonClicked():void
  +onPrevButtonClicked():void
  +onNextButtonClicked():void
}

class OnlineVSSViewModel <<viewModel>> {
  ..private..
  -thisVSS:VirtualSoundSpace
  ..public..
  +onPreviewButtonClicked():void
  +onDownloadButtonClicked():void
}

class PreviewOnlineMapViewModel <<viewModel>> {
	..private..
  - VSSName:String
  - VSSDescription:String
	- soundSourceList: List<SoundSource>
  ..public..
  +onDownloadButtonClicked():void
  +onCommentButtonClicked():void
  +onLikeButtonClicked():void
  +onExitButtonClicked():void
}
class PreviewOnlineConcertViewModel <<viewModel>> {
	..private..
  - VSSName:String
  - VSSDescription:String
	- soundSourceList: List<SoundSource>
  ..public..
  +onDownloadButtonClicked():void
  +onCommentButtonClicked():void
  +onLikeButtonClicked():void
  +onExitButtonClicked():void
}

OnlineSoundSpaceLibrary - -() OnlineVSSAccess
@enduml

PlantUML version 1.2018.03(Fri Apr 06 00:59:15 CST 2018)
(GPL source distribution)
Java Runtime: Java(TM) SE Runtime Environment
JVM: Java HotSpot(TM) Client VM
Java Version: 1.8.0_171-b11
Operating System: Windows 8.1
OS Version: 6.3
Default Encoding: GBK
Language: zh
Country: CN
--></g></svg>