<?xml version="1.0" encoding="UTF-8" standalone="no"?><svg xmlns="http://www.w3.org/2000/svg" xmlns:xlink="http://www.w3.org/1999/xlink" contentScriptType="application/ecmascript" contentStyleType="text/css" height="1403px" preserveAspectRatio="none" style="width:1436px;height:1403px;" version="1.1" viewBox="0 0 1436 1403"
    width="1436px" zoomAndPan="magnify"><defs><filter height="300%" id="f1aqbgbnptw5w8" width="300%" x="-1" y="-1"><feGaussianBlur result="blurOut" stdDeviation="2.0"/><feColorMatrix in="blurOut" result="blurOut2" type="matrix" values="0 0 0 0 0 0 0 0 0 0 0 0 0 0 0 0 0 0 .4 0"/><feOffset dx="4.0" dy="4.0" in="blurOut2" result="blurOut3"/><feBlend in="SourceGraphic" in2="blurOut3" mode="normal"/></filter></defs><g><rect fill="#FEFECE" filter="url(#f1aqbgbnptw5w8)" height="30.4883" style="stroke: #A80036; stroke-width: 1.5;" width="176" x="300" y="125.7988"/><text fill="#000000" font-family="sans-serif" font-size="14" lengthAdjust="spacingAndGlyphs" text-decoration="underline" textLength="162" x="307" y="146.334">:ConcertVSSPlayControl</text><line style="stroke: #000000; stroke-width: 1.0;" x1="307" x2="469" y1="148.334" y2="148.334"/><rect fill="#FFFFFF" filter="url(#f1aqbgbnptw5w8)" height="149.5078" style="stroke: #000000; stroke-width: 2.0;" width="860" x="81" y="207.5977"/><rect fill="#FFFFFF" height="102.8867" style="stroke: none; stroke-width: 1.0;" width="860" x="81" y="254.2188"/><rect fill="#FEFECE" filter="url(#f1aqbgbnptw5w8)" height="30.4883" style="stroke: #A80036; stroke-width: 1.5;" width="65" x="941" y="452.0371"/><text fill="#000000" font-family="sans-serif" font-size="14" lengthAdjust="spacingAndGlyphs" text-decoration="underline" textLength="51" x="948" y="472.5723">:Sensor</text><line style="stroke: #000000; stroke-width: 1.0;" x1="948" x2="999" y1="474.5723" y2="474.5723"/><rect fill="#FEFECE" filter="url(#f1aqbgbnptw5w8)" height="30.4883" style="stroke: #A80036; stroke-width: 1.5;" width="134" x="1020" y="497.5254"/><text fill="#000000" font-family="sans-serif" font-size="14" lengthAdjust="spacingAndGlyphs" text-decoration="underline" textLength="120" x="1027" y="518.0605">:GVRAudioEngine</text><line style="stroke: #000000; stroke-width: 1.0;" x1="1027" x2="1147" y1="520.0605" y2="520.0605"/><rect fill="#FEFECE" filter="url(#f1aqbgbnptw5w8)" height="30.4883" style="stroke: #A80036; stroke-width: 1.5;" width="142" x="1168" y="543.0137"/><text fill="#000000" font-family="sans-serif" font-size="14" lengthAdjust="spacingAndGlyphs" text-decoration="underline" textLength="128" x="1175" y="563.5488">:AdjustSensorPage</text><line style="stroke: #000000; stroke-width: 1.0;" x1="1175" x2="1303" y1="565.5488" y2="565.5488"/><rect fill="#FEFECE" filter="url(#f1aqbgbnptw5w8)" height="30.4883" style="stroke: #A80036; stroke-width: 1.5;" width="101" x="1324" y="671.7676"/><text fill="#000000" font-family="sans-serif" font-size="14" lengthAdjust="spacingAndGlyphs" text-decoration="underline" textLength="87" x="1331" y="692.3027">task:Callable</text><line style="stroke: #000000; stroke-width: 1.0;" x1="1331" x2="1418" y1="694.3027" y2="694.3027"/><rect fill="#FFFFFF" filter="url(#f1aqbgbnptw5w8)" height="503.834" style="stroke: #000000; stroke-width: 2.0;" width="1165" x="13" y="753.5664"/><rect fill="#FFFFFF" filter="url(#f1aqbgbnptw5w8)" height="413.9023" style="stroke: #000000; stroke-width: 2.0;" width="1145" x="23" y="836.498"/><rect fill="#FFFFFF" height="102.8867" style="stroke: none; stroke-width: 1.0;" width="1145" x="23" y="941.7402"/><rect fill="#FFFFFF" height="102.8867" style="stroke: none; stroke-width: 1.0;" width="1145" x="23" y="1044.627"/><rect fill="#FFFFFF" height="102.8867" style="stroke: none; stroke-width: 1.0;" width="1145" x="23" y="1147.5137"/><line style="stroke: #A80036; stroke-width: 1.0;" x1="51" x2="51" y1="86.4883" y2="588.502"/><line style="stroke: #A80036; stroke-width: 1.0; stroke-dasharray: 1.0,4.0;" x1="51" x2="51" y1="588.502" y2="629.457"/><line style="stroke: #A80036; stroke-width: 1.0;" x1="51" x2="51" y1="629.457" y2="1391.6426"/><line style="stroke: #A80036; stroke-width: 1.0;" x1="190" x2="190" y1="86.4883" y2="588.502"/><line style="stroke: #A80036; stroke-width: 1.0; stroke-dasharray: 1.0,4.0;" x1="190" x2="190" y1="588.502" y2="629.457"/><line style="stroke: #A80036; stroke-width: 1.0;" x1="190" x2="190" y1="629.457" y2="1391.6426"/><line style="stroke: #A80036; stroke-width: 1.0;" x1="390" x2="390" y1="158.543" y2="588.502"/><line style="stroke: #A80036; stroke-width: 1.0; stroke-dasharray: 1.0,4.0;" x1="390" x2="390" y1="588.502" y2="629.457"/><line style="stroke: #A80036; stroke-width: 1.0;" x1="390" x2="390" y1="629.457" y2="1391.6426"/><line style="stroke: #A80036; stroke-width: 1.0;" x1="611" x2="611" y1="86.4883" y2="588.502"/><line style="stroke: #A80036; stroke-width: 1.0; stroke-dasharray: 1.0,4.0;" x1="611" x2="611" y1="588.502" y2="629.457"/><line style="stroke: #A80036; stroke-width: 1.0;" x1="611" x2="611" y1="629.457" y2="1391.6426"/><line style="stroke: #A80036; stroke-width: 1.0;" x1="837" x2="837" y1="86.4883" y2="588.502"/><line style="stroke: #A80036; stroke-width: 1.0; stroke-dasharray: 1.0,4.0;" x1="837" x2="837" y1="588.502" y2="629.457"/><line style="stroke: #A80036; stroke-width: 1.0;" x1="837" x2="837" y1="629.457" y2="1391.6426"/><line style="stroke: #A80036; stroke-width: 1.0;" x1="975" x2="975" y1="484.7813" y2="588.502"/><line style="stroke: #A80036; stroke-width: 1.0; stroke-dasharray: 1.0,4.0;" x1="975" x2="975" y1="588.502" y2="629.457"/><line style="stroke: #A80036; stroke-width: 1.0;" x1="975" x2="975" y1="629.457" y2="1391.6426"/><line style="stroke: #A80036; stroke-width: 1.0;" x1="1089" x2="1089" y1="530.2695" y2="588.502"/><line style="stroke: #A80036; stroke-width: 1.0; stroke-dasharray: 1.0,4.0;" x1="1089" x2="1089" y1="588.502" y2="629.457"/><line style="stroke: #A80036; stroke-width: 1.0;" x1="1089" x2="1089" y1="629.457" y2="1391.6426"/><line style="stroke: #A80036; stroke-width: 1.0;" x1="1241" x2="1241" y1="575.7578" y2="588.502"/><line style="stroke: #A80036; stroke-width: 1.0; stroke-dasharray: 1.0,4.0;" x1="1241" x2="1241" y1="588.502" y2="629.457"/><line style="stroke: #A80036; stroke-width: 1.0;" x1="1241" x2="1241" y1="629.457" y2="1391.6426"/><line style="stroke: #A80036; stroke-width: 1.0;" x1="1376" x2="1376" y1="704.5117" y2="1391.6426"/><text fill="#000000" font-family="sans-serif" font-size="14" lengthAdjust="spacingAndGlyphs" text-decoration="underline" textLength="31" x="33" y="83.5352">User</text><line style="stroke: #000000; stroke-width: 1.0;" x1="33" x2="64" y1="85.5352" y2="85.5352"/><ellipse cx="51.5" cy="13" fill="#FEFECE" filter="url(#f1aqbgbnptw5w8)" rx="8" ry="8" style="stroke: #A80036; stroke-width: 2.0;"/><path d="M51.5,21 L51.5,48 M38.5,29 L64.5,29 M51.5,48 L38.5,63 M51.5,48 L64.5,63 " fill="none" filter="url(#f1aqbgbnptw5w8)" style="stroke: #A80036; stroke-width: 2.0;"/><rect fill="#FEFECE" filter="url(#f1aqbgbnptw5w8)" height="30.4883" style="stroke: #A80036; stroke-width: 1.5;" width="195" x="91" y="51"/><text fill="#000000" font-family="sans-serif" font-size="14" lengthAdjust="spacingAndGlyphs" text-decoration="underline" textLength="181" x="98" y="71.5352">:PlayConcertModeVSSPage</text><line style="stroke: #000000; stroke-width: 1.0;" x1="98" x2="279" y1="73.5352" y2="73.5352"/><rect fill="#FEFECE" filter="url(#f1aqbgbnptw5w8)" height="30.4883" style="stroke: #A80036; stroke-width: 1.5;" width="239" x="490" y="51"/><text fill="#000000" font-family="sans-serif" font-size="14" lengthAdjust="spacingAndGlyphs" text-decoration="underline" textLength="225" x="497" y="71.5352">:ConcertModeVirtualSoundSpace</text><line style="stroke: #000000; stroke-width: 1.0;" x1="497" x2="722" y1="73.5352" y2="73.5352"/><rect fill="#FEFECE" filter="url(#f1aqbgbnptw5w8)" height="30.4883" style="stroke: #A80036; stroke-width: 1.5;" width="184" x="743" y="51"/><text fill="#000000" font-family="sans-serif" font-size="14" lengthAdjust="spacingAndGlyphs" text-decoration="underline" textLength="170" x="750" y="71.5352">:LocalSoundSpaceLibrary</text><line style="stroke: #000000; stroke-width: 1.0;" x1="750" x2="920" y1="73.5352" y2="73.5352"/><polygon fill="#A80036" points="178.5,113.4883,188.5,117.4883,178.5,121.4883,182.5,117.4883" style="stroke: #A80036; stroke-width: 1.0;"/><line style="stroke: #A80036; stroke-width: 1.0;" x1="3" x2="184.5" y1="117.4883" y2="117.4883"/><text fill="#000000" font-family="sans-serif" font-size="13" lengthAdjust="spacingAndGlyphs" textLength="78" x="10" y="113.0566">&lt;&lt;create&gt;&gt;</text><polygon fill="#A80036" points="288,142.7988,298,146.7988,288,150.7988,292,146.7988" style="stroke: #A80036; stroke-width: 1.0;"/><line style="stroke: #A80036; stroke-width: 1.0;" x1="190.5" x2="294" y1="146.7988" y2="146.7988"/><text fill="#000000" font-family="sans-serif" font-size="13" lengthAdjust="spacingAndGlyphs" textLength="78" x="197.5" y="142.3672">&lt;&lt;create&gt;&gt;</text><rect fill="#FEFECE" filter="url(#f1aqbgbnptw5w8)" height="30.4883" style="stroke: #A80036; stroke-width: 1.5;" width="176" x="300" y="125.7988"/><text fill="#000000" font-family="sans-serif" font-size="14" lengthAdjust="spacingAndGlyphs" text-decoration="underline" textLength="162" x="307" y="146.334">:ConcertVSSPlayControl</text><line style="stroke: #000000; stroke-width: 1.0;" x1="307" x2="469" y1="148.334" y2="148.334"/><polygon fill="#A80036" points="825,188.2871,835,192.2871,825,196.2871,829,192.2871" style="stroke: #A80036; stroke-width: 1.0;"/><line style="stroke: #A80036; stroke-width: 1.0;" x1="390" x2="831" y1="192.2871" y2="192.2871"/><text fill="#000000" font-family="sans-serif" font-size="13" lengthAdjust="spacingAndGlyphs" textLength="288" x="397" y="187.8555">checkAllNessarySoundFragmentDownloaded()</text><path d="M81,207.5977 L143,207.5977 L143,214.5977 L133,224.5977 L81,224.5977 L81,207.5977 " fill="#EEEEEE" style="stroke: #000000; stroke-width: 1.0;"/><rect fill="none" height="149.5078" style="stroke: #000000; stroke-width: 2.0;" width="860" x="81" y="207.5977"/><text fill="#000000" font-family="sans-serif" font-size="13" font-weight="bold" lengthAdjust="spacingAndGlyphs" textLength="17" x="96" y="221.166">alt</text><text fill="#000000" font-family="sans-serif" font-size="11" font-weight="bold" lengthAdjust="spacingAndGlyphs" textLength="75" x="158" y="220.2324">[downloaded]</text><polygon fill="#A80036" points="401,241.9082,391,245.9082,401,249.9082,397,245.9082" style="stroke: #A80036; stroke-width: 1.0;"/><line style="stroke: #A80036; stroke-width: 1.0; stroke-dasharray: 2.0,2.0;" x1="395" x2="836" y1="245.9082" y2="245.9082"/><text fill="#000000" font-family="sans-serif" font-size="13" lengthAdjust="spacingAndGlyphs" textLength="49" x="407" y="241.4766">confirm</text><line style="stroke: #000000; stroke-width: 1.0; stroke-dasharray: 2.0,2.0;" x1="81" x2="941" y1="255.2188" y2="255.2188"/><text fill="#000000" font-family="sans-serif" font-size="11" font-weight="bold" lengthAdjust="spacingAndGlyphs" textLength="46" x="86" y="265.8535">[not yet]</text><polygon fill="#A80036" points="401,286.1738,391,290.1738,401,294.1738,397,290.1738" style="stroke: #A80036; stroke-width: 1.0;"/><line style="stroke: #A80036; stroke-width: 1.0; stroke-dasharray: 2.0,2.0;" x1="395" x2="836" y1="290.1738" y2="290.1738"/><text fill="#000000" font-family="sans-serif" font-size="13" lengthAdjust="spacingAndGlyphs" textLength="30" x="407" y="285.7422">deny</text><polygon fill="#A80036" points="201.5,315.4844,191.5,319.4844,201.5,323.4844,197.5,319.4844" style="stroke: #A80036; stroke-width: 1.0;"/><line style="stroke: #A80036; stroke-width: 1.0;" x1="195.5" x2="389" y1="319.4844" y2="319.4844"/><text fill="#000000" font-family="sans-serif" font-size="13" lengthAdjust="spacingAndGlyphs" textLength="50" x="207.5" y="315.0527">warning</text><polygon fill="#A80036" points="201.5,344.7949,191.5,348.7949,201.5,352.7949,197.5,348.7949" style="stroke: #A80036; stroke-width: 1.0;"/><line style="stroke: #A80036; stroke-width: 1.0;" x1="195.5" x2="389" y1="348.7949" y2="348.7949"/><text fill="#000000" font-family="sans-serif" font-size="13" lengthAdjust="spacingAndGlyphs" textLength="87" x="207.5" y="344.3633">&lt;&lt;destroy&gt;&gt;</text><line style="stroke: #A80036; stroke-width: 2.0;" x1="381" x2="399" y1="339.7949" y2="357.7949"/><line style="stroke: #A80036; stroke-width: 2.0;" x1="381" x2="399" y1="357.7949" y2="339.7949"/><line style="stroke: #A80036; stroke-width: 2.0;" x1="181.5" x2="199.5" y1="339.7949" y2="357.7949"/><line style="stroke: #A80036; stroke-width: 2.0;" x1="181.5" x2="199.5" y1="357.7949" y2="339.7949"/><polygon fill="#A80036" points="599.5,381.1055,609.5,385.1055,599.5,389.1055,603.5,385.1055" style="stroke: #A80036; stroke-width: 1.0;"/><line style="stroke: #A80036; stroke-width: 1.0;" x1="390" x2="605.5" y1="385.1055" y2="385.1055"/><text fill="#000000" font-family="sans-serif" font-size="13" lengthAdjust="spacingAndGlyphs" textLength="116" x="397" y="380.6738">getSoundSources()</text><polygon fill="#A80036" points="401,410.416,391,414.416,401,418.416,397,414.416" style="stroke: #A80036; stroke-width: 1.0;"/><line style="stroke: #A80036; stroke-width: 1.0; stroke-dasharray: 2.0,2.0;" x1="395" x2="610.5" y1="414.416" y2="414.416"/><text fill="#000000" font-family="sans-serif" font-size="13" lengthAdjust="spacingAndGlyphs" textLength="104" x="407" y="409.9844">soundSourceList</text><polygon fill="#A80036" points="201.5,439.7266,191.5,443.7266,201.5,447.7266,197.5,443.7266" style="stroke: #A80036; stroke-width: 1.0;"/><line style="stroke: #A80036; stroke-width: 1.0;" x1="195.5" x2="389" y1="443.7266" y2="443.7266"/><text fill="#000000" font-family="sans-serif" font-size="13" lengthAdjust="spacingAndGlyphs" textLength="149" x="207.5" y="439.2949">displaySoundSourceList</text><polygon fill="#A80036" points="929,469.0371,939,473.0371,929,477.0371,933,473.0371" style="stroke: #A80036; stroke-width: 1.0;"/><line style="stroke: #A80036; stroke-width: 1.0;" x1="390" x2="935" y1="473.0371" y2="473.0371"/><text fill="#000000" font-family="sans-serif" font-size="13" lengthAdjust="spacingAndGlyphs" textLength="78" x="397" y="468.6055">&lt;&lt;create&gt;&gt;</text><rect fill="#FEFECE" filter="url(#f1aqbgbnptw5w8)" height="30.4883" style="stroke: #A80036; stroke-width: 1.5;" width="65" x="941" y="452.0371"/><text fill="#000000" font-family="sans-serif" font-size="14" lengthAdjust="spacingAndGlyphs" text-decoration="underline" textLength="51" x="948" y="472.5723">:Sensor</text><line style="stroke: #000000; stroke-width: 1.0;" x1="948" x2="999" y1="474.5723" y2="474.5723"/><polygon fill="#A80036" points="1008,514.5254,1018,518.5254,1008,522.5254,1012,518.5254" style="stroke: #A80036; stroke-width: 1.0;"/><line style="stroke: #A80036; stroke-width: 1.0;" x1="390" x2="1014" y1="518.5254" y2="518.5254"/><text fill="#000000" font-family="sans-serif" font-size="13" lengthAdjust="spacingAndGlyphs" textLength="78" x="397" y="514.0938">&lt;&lt;create&gt;&gt;</text><rect fill="#FEFECE" filter="url(#f1aqbgbnptw5w8)" height="30.4883" style="stroke: #A80036; stroke-width: 1.5;" width="134" x="1020" y="497.5254"/><text fill="#000000" font-family="sans-serif" font-size="14" lengthAdjust="spacingAndGlyphs" text-decoration="underline" textLength="120" x="1027" y="518.0605">:GVRAudioEngine</text><line style="stroke: #000000; stroke-width: 1.0;" x1="1027" x2="1147" y1="520.0605" y2="520.0605"/><polygon fill="#A80036" points="1156,560.0137,1166,564.0137,1156,568.0137,1160,564.0137" style="stroke: #A80036; stroke-width: 1.0;"/><line style="stroke: #A80036; stroke-width: 1.0;" x1="390" x2="1162" y1="564.0137" y2="564.0137"/><text fill="#000000" font-family="sans-serif" font-size="13" lengthAdjust="spacingAndGlyphs" textLength="78" x="397" y="559.582">&lt;&lt;create&gt;&gt;</text><rect fill="#FEFECE" filter="url(#f1aqbgbnptw5w8)" height="30.4883" style="stroke: #A80036; stroke-width: 1.5;" width="142" x="1168" y="543.0137"/><text fill="#000000" font-family="sans-serif" font-size="14" lengthAdjust="spacingAndGlyphs" text-decoration="underline" textLength="128" x="1175" y="563.5488">:AdjustSensorPage</text><line style="stroke: #000000; stroke-width: 1.0;" x1="1175" x2="1303" y1="565.5488" y2="565.5488"/><text fill="#000000" font-family="sans-serif" font-size="11" lengthAdjust="spacingAndGlyphs" textLength="73" x="677.5" y="613.1367">adjust sensor</text><line style="stroke: #A80036; stroke-width: 1.0;" x1="51.5" x2="93.5" y1="650.7676" y2="650.7676"/><line style="stroke: #A80036; stroke-width: 1.0;" x1="93.5" x2="93.5" y1="650.7676" y2="663.7676"/><line style="stroke: #A80036; stroke-width: 1.0;" x1="52.5" x2="93.5" y1="663.7676" y2="663.7676"/><polygon fill="#A80036" points="62.5,659.7676,52.5,663.7676,62.5,667.7676,58.5,663.7676" style="stroke: #A80036; stroke-width: 1.0;"/><text fill="#000000" font-family="sans-serif" font-size="13" lengthAdjust="spacingAndGlyphs" textLength="48" x="58.5" y="646.0254">wakeup</text><line style="stroke: #A80036; stroke-width: 2.0;" x1="1232" x2="1250" y1="654.457" y2="672.457"/><line style="stroke: #A80036; stroke-width: 2.0;" x1="1232" x2="1250" y1="672.457" y2="654.457"/><polygon fill="#A80036" points="1312,688.7676,1322,692.7676,1312,696.7676,1316,692.7676" style="stroke: #A80036; stroke-width: 1.0;"/><line style="stroke: #A80036; stroke-width: 1.0;" x1="390" x2="1318" y1="692.7676" y2="692.7676"/><text fill="#000000" font-family="sans-serif" font-size="13" lengthAdjust="spacingAndGlyphs" textLength="87" x="397" y="688.3359">new Callable()</text><rect fill="#FEFECE" filter="url(#f1aqbgbnptw5w8)" height="30.4883" style="stroke: #A80036; stroke-width: 1.5;" width="101" x="1324" y="671.7676"/><text fill="#000000" font-family="sans-serif" font-size="14" lengthAdjust="spacingAndGlyphs" text-decoration="underline" textLength="87" x="1331" y="692.3027">task:Callable</text><line style="stroke: #000000; stroke-width: 1.0;" x1="1331" x2="1418" y1="694.3027" y2="694.3027"/><polygon fill="#A80036" points="963.5,734.2559,973.5,738.2559,963.5,742.2559,967.5,738.2559" style="stroke: #A80036; stroke-width: 1.0;"/><line style="stroke: #A80036; stroke-width: 1.0;" x1="390" x2="969.5" y1="738.2559" y2="738.2559"/><text fill="#000000" font-family="sans-serif" font-size="13" lengthAdjust="spacingAndGlyphs" textLength="202" x="397" y="733.8242">callWhenUpdatedDelay(task, 50)</text><path d="M13,753.5664 L87,753.5664 L87,760.5664 L77,770.5664 L13,770.5664 L13,753.5664 " fill="#EEEEEE" style="stroke: #000000; stroke-width: 1.0;"/><rect fill="none" height="503.834" style="stroke: #000000; stroke-width: 2.0;" width="1165" x="13" y="753.5664"/><text fill="#000000" font-family="sans-serif" font-size="13" font-weight="bold" lengthAdjust="spacingAndGlyphs" textLength="29" x="28" y="767.1348">loop</text><polygon fill="#A80036" points="401,787.877,391,791.877,401,791.877" style="stroke: #A80036; stroke-width: 1.0;"/><line style="stroke: #A80036; stroke-width: 1.0; stroke-dasharray: 2.0,2.0;" x1="390" x2="974.5" y1="791.877" y2="791.877"/><text fill="#000000" font-family="sans-serif" font-size="13" lengthAdjust="spacingAndGlyphs" textLength="154" x="407" y="787.4453">currentLocation: Positon</text><polygon fill="#A80036" points="1077,817.1875,1087,821.1875,1077,825.1875,1081,821.1875" style="stroke: #A80036; stroke-width: 1.0;"/><line style="stroke: #A80036; stroke-width: 1.0;" x1="390" x2="1083" y1="821.1875" y2="821.1875"/><text fill="#000000" font-family="sans-serif" font-size="13" lengthAdjust="spacingAndGlyphs" textLength="310" x="397" y="816.7559">updateCurrentLocation(currentLocation: Position)</text><path d="M23,836.498 L85,836.498 L85,843.498 L75,853.498 L23,853.498 L23,836.498 " fill="#EEEEEE" style="stroke: #000000; stroke-width: 1.0;"/><rect fill="none" height="413.9023" style="stroke: #000000; stroke-width: 2.0;" width="1145" x="23" y="836.498"/><text fill="#000000" font-family="sans-serif" font-size="13" font-weight="bold" lengthAdjust="spacingAndGlyphs" textLength="17" x="38" y="850.0664">alt</text><text fill="#000000" font-family="sans-serif" font-size="11" font-weight="bold" lengthAdjust="spacingAndGlyphs" textLength="56" x="100" y="849.1328">[startPlay&#8;]</text><polygon fill="#A80036" points="178.5,870.8086,188.5,874.8086,178.5,878.8086,182.5,874.8086" style="stroke: #A80036; stroke-width: 1.0;"/><line style="stroke: #A80036; stroke-width: 1.0;" x1="51.5" x2="184.5" y1="874.8086" y2="874.8086"/><text fill="#000000" font-family="sans-serif" font-size="13" lengthAdjust="spacingAndGlyphs" textLength="115" x="58.5" y="870.377">play(soundSource)</text><polygon fill="#A80036" points="378,900.1191,388,904.1191,378,908.1191,382,904.1191" style="stroke: #A80036; stroke-width: 1.0;"/><line style="stroke: #A80036; stroke-width: 1.0;" x1="190.5" x2="384" y1="904.1191" y2="904.1191"/><text fill="#000000" font-family="sans-serif" font-size="13" lengthAdjust="spacingAndGlyphs" textLength="115" x="197.5" y="899.6875">play(soundSource)</text><polygon fill="#A80036" points="1077,929.4297,1087,933.4297,1077,937.4297,1081,933.4297" style="stroke: #A80036; stroke-width: 1.0;"/><line style="stroke: #A80036; stroke-width: 1.0;" x1="390" x2="1083" y1="933.4297" y2="933.4297"/><text fill="#000000" font-family="sans-serif" font-size="13" lengthAdjust="spacingAndGlyphs" textLength="132" x="397" y="928.998">play(soundFragment)</text><line style="stroke: #000000; stroke-width: 1.0; stroke-dasharray: 2.0,2.0;" x1="23" x2="1168" y1="942.7402" y2="942.7402"/><text fill="#000000" font-family="sans-serif" font-size="11" font-weight="bold" lengthAdjust="spacingAndGlyphs" textLength="40" x="28" y="953.375">[pause]</text><polygon fill="#A80036" points="178.5,973.6953,188.5,977.6953,178.5,981.6953,182.5,977.6953" style="stroke: #A80036; stroke-width: 1.0;"/><line style="stroke: #A80036; stroke-width: 1.0;" x1="51.5" x2="184.5" y1="977.6953" y2="977.6953"/><text fill="#000000" font-family="sans-serif" font-size="13" lengthAdjust="spacingAndGlyphs" textLength="45" x="58.5" y="973.2637">pause()</text><polygon fill="#A80036" points="378,1003.0059,388,1007.0059,378,1011.0059,382,1007.0059" style="stroke: #A80036; stroke-width: 1.0;"/><line style="stroke: #A80036; stroke-width: 1.0;" x1="190.5" x2="384" y1="1007.0059" y2="1007.0059"/><text fill="#000000" font-family="sans-serif" font-size="13" lengthAdjust="spacingAndGlyphs" textLength="45" x="197.5" y="1002.5742">pause()</text><polygon fill="#A80036" points="1077,1032.3164,1087,1036.3164,1077,1040.3164,1081,1036.3164" style="stroke: #A80036; stroke-width: 1.0;"/><line style="stroke: #A80036; stroke-width: 1.0;" x1="390" x2="1083" y1="1036.3164" y2="1036.3164"/><text fill="#000000" font-family="sans-serif" font-size="13" lengthAdjust="spacingAndGlyphs" textLength="45" x="397" y="1031.8848">pause()</text><line style="stroke: #000000; stroke-width: 1.0; stroke-dasharray: 2.0,2.0;" x1="23" x2="1168" y1="1045.627" y2="1045.627"/><text fill="#000000" font-family="sans-serif" font-size="11" font-weight="bold" lengthAdjust="spacingAndGlyphs" textLength="31" x="28" y="1056.2617">[next]</text><polygon fill="#A80036" points="178.5,1076.582,188.5,1080.582,178.5,1084.582,182.5,1080.582" style="stroke: #A80036; stroke-width: 1.0;"/><line style="stroke: #A80036; stroke-width: 1.0;" x1="51.5" x2="184.5" y1="1080.582" y2="1080.582"/><text fill="#000000" font-family="sans-serif" font-size="13" lengthAdjust="spacingAndGlyphs" textLength="36" x="58.5" y="1076.1504">next()</text><polygon fill="#A80036" points="378,1105.8926,388,1109.8926,378,1113.8926,382,1109.8926" style="stroke: #A80036; stroke-width: 1.0;"/><line style="stroke: #A80036; stroke-width: 1.0;" x1="190.5" x2="384" y1="1109.8926" y2="1109.8926"/><text fill="#000000" font-family="sans-serif" font-size="13" lengthAdjust="spacingAndGlyphs" textLength="115" x="197.5" y="1105.4609">play(soundSource)</text><polygon fill="#A80036" points="1077,1135.2031,1087,1139.2031,1077,1143.2031,1081,1139.2031" style="stroke: #A80036; stroke-width: 1.0;"/><line style="stroke: #A80036; stroke-width: 1.0;" x1="390" x2="1083" y1="1139.2031" y2="1139.2031"/><text fill="#000000" font-family="sans-serif" font-size="13" lengthAdjust="spacingAndGlyphs" textLength="132" x="397" y="1134.7715">play(soundFragment)</text><line style="stroke: #000000; stroke-width: 1.0; stroke-dasharray: 2.0,2.0;" x1="23" x2="1168" y1="1148.5137" y2="1148.5137"/><text fill="#000000" font-family="sans-serif" font-size="11" font-weight="bold" lengthAdjust="spacingAndGlyphs" textLength="33" x="28" y="1159.1484">[prev]</text><polygon fill="#A80036" points="178.5,1179.4688,188.5,1183.4688,178.5,1187.4688,182.5,1183.4688" style="stroke: #A80036; stroke-width: 1.0;"/><line style="stroke: #A80036; stroke-width: 1.0;" x1="51.5" x2="184.5" y1="1183.4688" y2="1183.4688"/><text fill="#000000" font-family="sans-serif" font-size="13" lengthAdjust="spacingAndGlyphs" textLength="35" x="58.5" y="1179.0371">prev()</text><polygon fill="#A80036" points="378,1208.7793,388,1212.7793,378,1216.7793,382,1212.7793" style="stroke: #A80036; stroke-width: 1.0;"/><line style="stroke: #A80036; stroke-width: 1.0;" x1="190.5" x2="384" y1="1212.7793" y2="1212.7793"/><text fill="#000000" font-family="sans-serif" font-size="13" lengthAdjust="spacingAndGlyphs" textLength="115" x="197.5" y="1208.3477">play(soundSource)</text><polygon fill="#A80036" points="1077,1238.0898,1087,1242.0898,1077,1246.0898,1081,1242.0898" style="stroke: #A80036; stroke-width: 1.0;"/><line style="stroke: #A80036; stroke-width: 1.0;" x1="390" x2="1083" y1="1242.0898" y2="1242.0898"/><text fill="#000000" font-family="sans-serif" font-size="13" lengthAdjust="spacingAndGlyphs" textLength="132" x="397" y="1237.6582">play(soundFragment)</text><polygon fill="#A80036" points="1077,1281.4004,1087,1285.4004,1077,1289.4004,1081,1285.4004" style="stroke: #A80036; stroke-width: 1.0;"/><line style="stroke: #A80036; stroke-width: 1.0;" x1="390" x2="1083" y1="1285.4004" y2="1285.4004"/><text fill="#000000" font-family="sans-serif" font-size="13" lengthAdjust="spacingAndGlyphs" textLength="53" x="397" y="1280.9688">stopAll()</text><polygon fill="#A80036" points="1077,1310.7109,1087,1314.7109,1077,1318.7109,1081,1314.7109" style="stroke: #A80036; stroke-width: 1.0;"/><line style="stroke: #A80036; stroke-width: 1.0;" x1="390" x2="1083" y1="1314.7109" y2="1314.7109"/><text fill="#000000" font-family="sans-serif" font-size="13" lengthAdjust="spacingAndGlyphs" textLength="87" x="397" y="1310.2793">&lt;&lt;destroy&gt;&gt;</text><line style="stroke: #A80036; stroke-width: 2.0;" x1="1080" x2="1098" y1="1305.7109" y2="1323.7109"/><line style="stroke: #A80036; stroke-width: 2.0;" x1="1080" x2="1098" y1="1323.7109" y2="1305.7109"/><polygon fill="#A80036" points="963.5,1340.0215,973.5,1344.0215,963.5,1348.0215,967.5,1344.0215" style="stroke: #A80036; stroke-width: 1.0;"/><line style="stroke: #A80036; stroke-width: 1.0;" x1="390" x2="969.5" y1="1344.0215" y2="1344.0215"/><text fill="#000000" font-family="sans-serif" font-size="13" lengthAdjust="spacingAndGlyphs" textLength="87" x="397" y="1339.5898">&lt;&lt;destroy&gt;&gt;</text><line style="stroke: #A80036; stroke-width: 2.0;" x1="966.5" x2="984.5" y1="1335.0215" y2="1353.0215"/><line style="stroke: #A80036; stroke-width: 2.0;" x1="966.5" x2="984.5" y1="1353.0215" y2="1335.0215"/><polygon fill="#A80036" points="201.5,1369.332,191.5,1373.332,201.5,1377.332,197.5,1373.332" style="stroke: #A80036; stroke-width: 1.0;"/><line style="stroke: #A80036; stroke-width: 1.0;" x1="195.5" x2="389" y1="1373.332" y2="1373.332"/><text fill="#000000" font-family="sans-serif" font-size="13" lengthAdjust="spacingAndGlyphs" textLength="87" x="207.5" y="1368.9004">&lt;&lt;destroy&gt;&gt;</text><line style="stroke: #A80036; stroke-width: 2.0;" x1="181.5" x2="199.5" y1="1364.332" y2="1382.332"/><line style="stroke: #A80036; stroke-width: 2.0;" x1="181.5" x2="199.5" y1="1382.332" y2="1364.332"/><line style="stroke: #A80036; stroke-width: 2.0;" x1="381" x2="399" y1="1364.332" y2="1382.332"/><line style="stroke: #A80036; stroke-width: 2.0;" x1="381" x2="399" y1="1382.332" y2="1364.332"/><!--
@startuml Diagrams/PlayConcertModeVSS
hide footbox
skinparam sequenceParticipant underline

actor User as user
participant ":PlayConcertModeVSSPage" as page
participant ":ConcertVSSPlayControl" as control
participant ":ConcertModeVirtualSoundSpace" as vss
participant ":LocalSoundSpaceLibrary" as library
participant ":Sensor" as sensor
participant ":GVRAudioEngine" as audio
participant ":AdjustSensorPage" as adpage
participant "task:Callable" as task


create page
[-> page: <<create>>
create control
page -> control: <<create>>
control -> library: checkAllNessarySoundFragmentDownloaded()
alt downloaded
    library - -> control: confirm
else not yet
    library - -> control: deny
    control -> page: warning
    control -> page: <<destroy>>
    destroy control
    destroy page
end
control -> vss: getSoundSources()
vss - -> control: soundSourceList
control -> page: displaySoundSourceList
create sensor
control -> sensor: <<create>>
create audio
control -> audio: <<create>>
create adpage
control -> adpage: <<create>>
...adjust sensor...
user -> user: wakeup
destroy adpage
create task
control -> task: new Callable()
control -> sensor: callWhenUpdatedDelay(task, 50)
loop
    sensor - -\ control: currentLocation: Positon
    control -> audio: updateCurrentLocation(currentLocation: Position)
    alt startPlay
        user -> page: play(soundSource)
        page -> control: play(soundSource)
        control -> audio: play(soundFragment)
    else pause
        user -> page: pause()
        page -> control: pause()
        control -> audio: pause()
    else next
        user -> page: next()
        page -> control: play(soundSource)
        control -> audio: play(soundFragment)
    else prev
        user -> page: prev()
        page -> control: play(soundSource)
        control -> audio: play(soundFragment)
    end
end
control -> audio: stopAll()
control -> audio: <<destroy>>
destroy audio
control -> sensor: <<destroy>>
destroy sensor
control -> page: <<destroy>>
destroy page
destroy control

@enduml

PlantUML version 1.2018.01(Mon Jan 29 02:08:22 CST 2018)
(GPL source distribution)
Java Runtime: Java(TM) SE Runtime Environment
JVM: Java HotSpot(TM) 64-Bit Server VM
Java Version: 9+181
Operating System: Mac OS X
OS Version: 10.12.6
Default Encoding: UTF-8
Language: zh
Country: CN
--></g></svg>