<?xml version="1.0" encoding="UTF-8" standalone="no"?><svg xmlns="http://www.w3.org/2000/svg" xmlns:xlink="http://www.w3.org/1999/xlink" contentScriptType="application/ecmascript" contentStyleType="text/css" height="1491px" preserveAspectRatio="none" style="width:1604px;height:1491px;" version="1.1" viewBox="0 0 1604 1491"
    width="1604px" zoomAndPan="magnify"><defs><filter height="300%" id="f18u8jimlakd85" width="300%" x="-1" y="-1"><feGaussianBlur result="blurOut" stdDeviation="2.0"/><feColorMatrix in="blurOut" result="blurOut2" type="matrix" values="0 0 0 0 0 0 0 0 0 0 0 0 0 0 0 0 0 0 .4 0"/><feOffset dx="4.0" dy="4.0" in="blurOut2" result="blurOut3"/><feBlend in="SourceGraphic" in2="blurOut3" mode="normal"/></filter></defs><g><rect fill="#FFFFFF" filter="url(#f18u8jimlakd85)" height="175.5078" style="stroke: #000000; stroke-width: 2.0;" width="624.5" x="207" y="162.1094"/><rect fill="#FFFFFF" height="128.8867" style="stroke: none; stroke-width: 1.0;" width="624.5" x="207" y="208.7305"/><rect fill="#FEFECE" filter="url(#f18u8jimlakd85)" height="30.4883" style="stroke: #A80036; stroke-width: 1.5;" width="65" x="1109.5" y="445.5488"/><text fill="#000000" font-family="sans-serif" font-size="14" lengthAdjust="spacingAndGlyphs" text-decoration="underline" textLength="51" x="1116.5" y="466.084">:Sensor</text><line style="stroke: #000000; stroke-width: 1.0;" x1="1116.5" x2="1167.5" y1="468.084" y2="468.084"/><rect fill="#FEFECE" filter="url(#f18u8jimlakd85)" height="30.4883" style="stroke: #A80036; stroke-width: 1.5;" width="134" x="1188.5" y="491.0371"/><text fill="#000000" font-family="sans-serif" font-size="14" lengthAdjust="spacingAndGlyphs" text-decoration="underline" textLength="120" x="1195.5" y="511.5723">:GVRAudioEngine</text><line style="stroke: #000000; stroke-width: 1.0;" x1="1195.5" x2="1315.5" y1="513.5723" y2="513.5723"/><rect fill="#FEFECE" filter="url(#f18u8jimlakd85)" height="30.4883" style="stroke: #A80036; stroke-width: 1.5;" width="142" x="1336.5" y="536.5254"/><text fill="#000000" font-family="sans-serif" font-size="14" lengthAdjust="spacingAndGlyphs" text-decoration="underline" textLength="128" x="1343.5" y="557.0605">:AdjustSensorPage</text><line style="stroke: #000000; stroke-width: 1.0;" x1="1343.5" x2="1471.5" y1="559.0605" y2="559.0605"/><rect fill="#FEFECE" filter="url(#f18u8jimlakd85)" height="30.4883" style="stroke: #A80036; stroke-width: 1.5;" width="101" x="1492.5" y="665.2793"/><text fill="#000000" font-family="sans-serif" font-size="14" lengthAdjust="spacingAndGlyphs" text-decoration="underline" textLength="87" x="1499.5" y="685.8145">task:Callable</text><line style="stroke: #000000; stroke-width: 1.0;" x1="1499.5" x2="1586.5" y1="687.8145" y2="687.8145"/><rect fill="#FFFFFF" filter="url(#f18u8jimlakd85)" height="555.834" style="stroke: #000000; stroke-width: 2.0;" width="1333.5" x="13" y="747.0781"/><rect fill="#FFFFFF" filter="url(#f18u8jimlakd85)" height="465.9023" style="stroke: #000000; stroke-width: 2.0;" width="1313.5" x="23" y="830.0098"/><rect fill="#FFFFFF" height="115.8867" style="stroke: none; stroke-width: 1.0;" width="1313.5" x="23" y="948.252"/><rect fill="#FFFFFF" height="115.8867" style="stroke: none; stroke-width: 1.0;" width="1313.5" x="23" y="1064.1387"/><rect fill="#FFFFFF" height="115.8867" style="stroke: none; stroke-width: 1.0;" width="1313.5" x="23" y="1180.0254"/><line style="stroke: #A80036; stroke-width: 1.0;" x1="51" x2="51" y1="86.4883" y2="582.0137"/><line style="stroke: #A80036; stroke-width: 1.0; stroke-dasharray: 1.0,4.0;" x1="51" x2="51" y1="582.0137" y2="622.9688"/><line style="stroke: #A80036; stroke-width: 1.0;" x1="51" x2="51" y1="622.9688" y2="1479.4648"/><line style="stroke: #A80036; stroke-width: 1.0;" x1="324" x2="324" y1="86.4883" y2="582.0137"/><line style="stroke: #A80036; stroke-width: 1.0; stroke-dasharray: 1.0,4.0;" x1="324" x2="324" y1="582.0137" y2="622.9688"/><line style="stroke: #A80036; stroke-width: 1.0;" x1="324" x2="324" y1="622.9688" y2="1479.4648"/><line style="stroke: #A80036; stroke-width: 1.0;" x1="727.5" x2="727.5" y1="86.4883" y2="582.0137"/><line style="stroke: #A80036; stroke-width: 1.0; stroke-dasharray: 1.0,4.0;" x1="727.5" x2="727.5" y1="582.0137" y2="622.9688"/><line style="stroke: #A80036; stroke-width: 1.0;" x1="727.5" x2="727.5" y1="622.9688" y2="1479.4648"/><line style="stroke: #A80036; stroke-width: 1.0;" x1="965.5" x2="965.5" y1="86.4883" y2="582.0137"/><line style="stroke: #A80036; stroke-width: 1.0; stroke-dasharray: 1.0,4.0;" x1="965.5" x2="965.5" y1="582.0137" y2="622.9688"/><line style="stroke: #A80036; stroke-width: 1.0;" x1="965.5" x2="965.5" y1="622.9688" y2="1479.4648"/><line style="stroke: #A80036; stroke-width: 1.0;" x1="1143.5" x2="1143.5" y1="478.293" y2="582.0137"/><line style="stroke: #A80036; stroke-width: 1.0; stroke-dasharray: 1.0,4.0;" x1="1143.5" x2="1143.5" y1="582.0137" y2="622.9688"/><line style="stroke: #A80036; stroke-width: 1.0;" x1="1143.5" x2="1143.5" y1="622.9688" y2="1479.4648"/><line style="stroke: #A80036; stroke-width: 1.0;" x1="1257.5" x2="1257.5" y1="523.7813" y2="582.0137"/><line style="stroke: #A80036; stroke-width: 1.0; stroke-dasharray: 1.0,4.0;" x1="1257.5" x2="1257.5" y1="582.0137" y2="622.9688"/><line style="stroke: #A80036; stroke-width: 1.0;" x1="1257.5" x2="1257.5" y1="622.9688" y2="1479.4648"/><line style="stroke: #A80036; stroke-width: 1.0;" x1="1409.5" x2="1409.5" y1="569.2695" y2="582.0137"/><line style="stroke: #A80036; stroke-width: 1.0; stroke-dasharray: 1.0,4.0;" x1="1409.5" x2="1409.5" y1="582.0137" y2="622.9688"/><line style="stroke: #A80036; stroke-width: 1.0;" x1="1409.5" x2="1409.5" y1="622.9688" y2="1479.4648"/><line style="stroke: #A80036; stroke-width: 1.0;" x1="1544.5" x2="1544.5" y1="698.0234" y2="1479.4648"/><text fill="#000000" font-family="sans-serif" font-size="14" lengthAdjust="spacingAndGlyphs" text-decoration="underline" textLength="31" x="33" y="83.5352">User</text><line style="stroke: #000000; stroke-width: 1.0;" x1="33" x2="64" y1="85.5352" y2="85.5352"/><ellipse cx="51.5" cy="13" fill="#FEFECE" filter="url(#f18u8jimlakd85)" rx="8" ry="8" style="stroke: #A80036; stroke-width: 2.0;"/><path d="M51.5,21 L51.5,48 M38.5,29 L64.5,29 M51.5,48 L38.5,63 M51.5,48 L64.5,63 " fill="none" filter="url(#f18u8jimlakd85)" style="stroke: #A80036; stroke-width: 2.0;"/><rect fill="#FEFECE" filter="url(#f18u8jimlakd85)" height="30.4883" style="stroke: #A80036; stroke-width: 1.5;" width="211" x="217" y="51"/><text fill="#000000" font-family="sans-serif" font-size="14" lengthAdjust="spacingAndGlyphs" text-decoration="underline" textLength="197" x="224" y="71.5352">:PlayMapModeVSSViewModel</text><line style="stroke: #000000; stroke-width: 1.0;" x1="224" x2="421" y1="73.5352" y2="73.5352"/><rect fill="#FEFECE" filter="url(#f18u8jimlakd85)" height="30.4883" style="stroke: #A80036; stroke-width: 1.5;" width="184" x="633.5" y="51"/><text fill="#000000" font-family="sans-serif" font-size="14" lengthAdjust="spacingAndGlyphs" text-decoration="underline" textLength="170" x="640.5" y="71.5352">:LocalSoundSpaceLibrary</text><line style="stroke: #000000; stroke-width: 1.0;" x1="640.5" x2="810.5" y1="73.5352" y2="73.5352"/><rect fill="#FEFECE" filter="url(#f18u8jimlakd85)" height="30.4883" style="stroke: #A80036; stroke-width: 1.5;" width="264" x="831.5" y="51"/><text fill="#000000" font-family="sans-serif" font-size="14" lengthAdjust="spacingAndGlyphs" text-decoration="underline" textLength="250" x="838.5" y="71.5352">thisVSS:MapModeVirtualSoundSpace</text><line style="stroke: #000000; stroke-width: 1.0;" x1="838.5" x2="1088.5" y1="73.5352" y2="73.5352"/><polygon fill="#A80036" points="312.5,113.7988,322.5,117.7988,312.5,121.7988,316.5,117.7988" style="stroke: #A80036; stroke-width: 1.0;"/><line style="stroke: #A80036; stroke-width: 1.0;" x1="3" x2="318.5" y1="117.7988" y2="117.7988"/><text fill="#000000" font-family="sans-serif" font-size="13" lengthAdjust="spacingAndGlyphs" textLength="78" x="10" y="113.0566">&lt;&lt;create&gt;&gt;</text><polygon fill="#A80036" points="715.5,143.1094,725.5,147.1094,715.5,151.1094,719.5,147.1094" style="stroke: #A80036; stroke-width: 1.0;"/><line style="stroke: #A80036; stroke-width: 1.0;" x1="324.5" x2="721.5" y1="147.1094" y2="147.1094"/><text fill="#000000" font-family="sans-serif" font-size="13" lengthAdjust="spacingAndGlyphs" textLength="288" x="331.5" y="142.3672">checkAllNessarySoundFragmentDownloaded()</text><path d="M207,162.1094 L269,162.1094 L269,169.1094 L259,179.1094 L207,179.1094 L207,162.1094 " fill="#EEEEEE" style="stroke: #000000; stroke-width: 1.0;"/><rect fill="none" height="175.5078" style="stroke: #000000; stroke-width: 2.0;" width="624.5" x="207" y="162.1094"/><text fill="#000000" font-family="sans-serif" font-size="13" font-weight="bold" lengthAdjust="spacingAndGlyphs" textLength="17" x="222" y="175.6777">alt</text><text fill="#000000" font-family="sans-serif" font-size="11" font-weight="bold" lengthAdjust="spacingAndGlyphs" textLength="75" x="284" y="174.7441">[downloaded]</text><polygon fill="#A80036" points="335.5,196.7305,325.5,200.7305,335.5,204.7305,331.5,200.7305" style="stroke: #A80036; stroke-width: 1.0;"/><line style="stroke: #A80036; stroke-width: 1.0; stroke-dasharray: 2.0,2.0;" x1="329.5" x2="726.5" y1="200.7305" y2="200.7305"/><text fill="#000000" font-family="sans-serif" font-size="13" lengthAdjust="spacingAndGlyphs" textLength="49" x="341.5" y="195.9883">confirm</text><line style="stroke: #000000; stroke-width: 1.0; stroke-dasharray: 2.0,2.0;" x1="207" x2="831.5" y1="209.7305" y2="209.7305"/><text fill="#000000" font-family="sans-serif" font-size="11" font-weight="bold" lengthAdjust="spacingAndGlyphs" textLength="46" x="212" y="220.3652">[not yet]</text><polygon fill="#A80036" points="335.5,240.9961,325.5,244.9961,335.5,248.9961,331.5,244.9961" style="stroke: #A80036; stroke-width: 1.0;"/><line style="stroke: #A80036; stroke-width: 1.0; stroke-dasharray: 2.0,2.0;" x1="329.5" x2="726.5" y1="244.9961" y2="244.9961"/><text fill="#000000" font-family="sans-serif" font-size="13" lengthAdjust="spacingAndGlyphs" textLength="30" x="341.5" y="240.2539">deny</text><line style="stroke: #A80036; stroke-width: 1.0;" x1="324.5" x2="366.5" y1="274.3066" y2="274.3066"/><line style="stroke: #A80036; stroke-width: 1.0;" x1="366.5" x2="366.5" y1="274.3066" y2="287.3066"/><line style="stroke: #A80036; stroke-width: 1.0;" x1="325.5" x2="366.5" y1="287.3066" y2="287.3066"/><polygon fill="#A80036" points="335.5,283.3066,325.5,287.3066,335.5,291.3066,331.5,287.3066" style="stroke: #A80036; stroke-width: 1.0;"/><text fill="#000000" font-family="sans-serif" font-size="13" lengthAdjust="spacingAndGlyphs" textLength="50" x="331.5" y="269.5645">warning</text><line style="stroke: #A80036; stroke-width: 1.0;" x1="324.5" x2="366.5" y1="316.6172" y2="316.6172"/><line style="stroke: #A80036; stroke-width: 1.0;" x1="366.5" x2="366.5" y1="316.6172" y2="329.6172"/><line style="stroke: #A80036; stroke-width: 1.0;" x1="325.5" x2="366.5" y1="329.6172" y2="329.6172"/><polygon fill="#A80036" points="335.5,325.6172,325.5,329.6172,335.5,333.6172,331.5,329.6172" style="stroke: #A80036; stroke-width: 1.0;"/><text fill="#000000" font-family="sans-serif" font-size="13" lengthAdjust="spacingAndGlyphs" textLength="87" x="331.5" y="311.875">&lt;&lt;destroy&gt;&gt;</text><line style="stroke: #A80036; stroke-width: 2.0;" x1="315.5" x2="333.5" y1="320.3066" y2="338.3066"/><line style="stroke: #A80036; stroke-width: 2.0;" x1="315.5" x2="333.5" y1="338.3066" y2="320.3066"/><polygon fill="#A80036" points="953.5,361.9277,963.5,365.9277,953.5,369.9277,957.5,365.9277" style="stroke: #A80036; stroke-width: 1.0;"/><line style="stroke: #A80036; stroke-width: 1.0;" x1="324.5" x2="959.5" y1="365.9277" y2="365.9277"/><text fill="#000000" font-family="sans-serif" font-size="13" lengthAdjust="spacingAndGlyphs" textLength="116" x="331.5" y="361.1855">getSoundSources()</text><polygon fill="#A80036" points="335.5,391.2383,325.5,395.2383,335.5,399.2383,331.5,395.2383" style="stroke: #A80036; stroke-width: 1.0;"/><line style="stroke: #A80036; stroke-width: 1.0; stroke-dasharray: 2.0,2.0;" x1="329.5" x2="964.5" y1="395.2383" y2="395.2383"/><text fill="#000000" font-family="sans-serif" font-size="13" lengthAdjust="spacingAndGlyphs" textLength="104" x="341.5" y="390.4961">soundSourceList</text><line style="stroke: #A80036; stroke-width: 1.0;" x1="324.5" x2="366.5" y1="424.5488" y2="424.5488"/><line style="stroke: #A80036; stroke-width: 1.0;" x1="366.5" x2="366.5" y1="424.5488" y2="437.5488"/><line style="stroke: #A80036; stroke-width: 1.0;" x1="325.5" x2="366.5" y1="437.5488" y2="437.5488"/><polygon fill="#A80036" points="335.5,433.5488,325.5,437.5488,335.5,441.5488,331.5,437.5488" style="stroke: #A80036; stroke-width: 1.0;"/><text fill="#000000" font-family="sans-serif" font-size="13" lengthAdjust="spacingAndGlyphs" textLength="389" x="331.5" y="419.8066">displayMapSoundSourceList(listOfLocalMapSoundSource):void</text><polygon fill="#A80036" points="1097.5,462.8594,1107.5,466.8594,1097.5,470.8594,1101.5,466.8594" style="stroke: #A80036; stroke-width: 1.0;"/><line style="stroke: #A80036; stroke-width: 1.0;" x1="324.5" x2="1103.5" y1="466.8594" y2="466.8594"/><text fill="#000000" font-family="sans-serif" font-size="13" lengthAdjust="spacingAndGlyphs" textLength="78" x="331.5" y="462.1172">&lt;&lt;create&gt;&gt;</text><rect fill="#FEFECE" filter="url(#f18u8jimlakd85)" height="30.4883" style="stroke: #A80036; stroke-width: 1.5;" width="65" x="1109.5" y="445.5488"/><text fill="#000000" font-family="sans-serif" font-size="14" lengthAdjust="spacingAndGlyphs" text-decoration="underline" textLength="51" x="1116.5" y="466.084">:Sensor</text><line style="stroke: #000000; stroke-width: 1.0;" x1="1116.5" x2="1167.5" y1="468.084" y2="468.084"/><polygon fill="#A80036" points="1176.5,508.3477,1186.5,512.3477,1176.5,516.3477,1180.5,512.3477" style="stroke: #A80036; stroke-width: 1.0;"/><line style="stroke: #A80036; stroke-width: 1.0;" x1="324.5" x2="1182.5" y1="512.3477" y2="512.3477"/><text fill="#000000" font-family="sans-serif" font-size="13" lengthAdjust="spacingAndGlyphs" textLength="78" x="331.5" y="507.6055">&lt;&lt;create&gt;&gt;</text><rect fill="#FEFECE" filter="url(#f18u8jimlakd85)" height="30.4883" style="stroke: #A80036; stroke-width: 1.5;" width="134" x="1188.5" y="491.0371"/><text fill="#000000" font-family="sans-serif" font-size="14" lengthAdjust="spacingAndGlyphs" text-decoration="underline" textLength="120" x="1195.5" y="511.5723">:GVRAudioEngine</text><line style="stroke: #000000; stroke-width: 1.0;" x1="1195.5" x2="1315.5" y1="513.5723" y2="513.5723"/><polygon fill="#A80036" points="1324.5,553.8359,1334.5,557.8359,1324.5,561.8359,1328.5,557.8359" style="stroke: #A80036; stroke-width: 1.0;"/><line style="stroke: #A80036; stroke-width: 1.0;" x1="324.5" x2="1330.5" y1="557.8359" y2="557.8359"/><text fill="#000000" font-family="sans-serif" font-size="13" lengthAdjust="spacingAndGlyphs" textLength="78" x="331.5" y="553.0938">&lt;&lt;create&gt;&gt;</text><rect fill="#FEFECE" filter="url(#f18u8jimlakd85)" height="30.4883" style="stroke: #A80036; stroke-width: 1.5;" width="142" x="1336.5" y="536.5254"/><text fill="#000000" font-family="sans-serif" font-size="14" lengthAdjust="spacingAndGlyphs" text-decoration="underline" textLength="128" x="1343.5" y="557.0605">:AdjustSensorPage</text><line style="stroke: #000000; stroke-width: 1.0;" x1="1343.5" x2="1471.5" y1="559.0605" y2="559.0605"/><text fill="#000000" font-family="sans-serif" font-size="11" lengthAdjust="spacingAndGlyphs" textLength="73" x="761.75" y="606.6484">adjust sensor</text><line style="stroke: #A80036; stroke-width: 1.0;" x1="51.5" x2="93.5" y1="644.2793" y2="644.2793"/><line style="stroke: #A80036; stroke-width: 1.0;" x1="93.5" x2="93.5" y1="644.2793" y2="657.2793"/><line style="stroke: #A80036; stroke-width: 1.0;" x1="52.5" x2="93.5" y1="657.2793" y2="657.2793"/><polygon fill="#A80036" points="62.5,653.2793,52.5,657.2793,62.5,661.2793,58.5,657.2793" style="stroke: #A80036; stroke-width: 1.0;"/><text fill="#000000" font-family="sans-serif" font-size="13" lengthAdjust="spacingAndGlyphs" textLength="48" x="58.5" y="639.5371">wakeup</text><line style="stroke: #A80036; stroke-width: 2.0;" x1="1400.5" x2="1418.5" y1="647.9688" y2="665.9688"/><line style="stroke: #A80036; stroke-width: 2.0;" x1="1400.5" x2="1418.5" y1="665.9688" y2="647.9688"/><polygon fill="#A80036" points="1480.5,682.5898,1490.5,686.5898,1480.5,690.5898,1484.5,686.5898" style="stroke: #A80036; stroke-width: 1.0;"/><line style="stroke: #A80036; stroke-width: 1.0;" x1="324.5" x2="1486.5" y1="686.5898" y2="686.5898"/><text fill="#000000" font-family="sans-serif" font-size="13" lengthAdjust="spacingAndGlyphs" textLength="87" x="331.5" y="681.8477">new Callable()</text><rect fill="#FEFECE" filter="url(#f18u8jimlakd85)" height="30.4883" style="stroke: #A80036; stroke-width: 1.5;" width="101" x="1492.5" y="665.2793"/><text fill="#000000" font-family="sans-serif" font-size="14" lengthAdjust="spacingAndGlyphs" text-decoration="underline" textLength="87" x="1499.5" y="685.8145">task:Callable</text><line style="stroke: #000000; stroke-width: 1.0;" x1="1499.5" x2="1586.5" y1="687.8145" y2="687.8145"/><polygon fill="#A80036" points="1132,728.0781,1142,732.0781,1132,736.0781,1136,732.0781" style="stroke: #A80036; stroke-width: 1.0;"/><line style="stroke: #A80036; stroke-width: 1.0;" x1="324.5" x2="1138" y1="732.0781" y2="732.0781"/><text fill="#000000" font-family="sans-serif" font-size="13" lengthAdjust="spacingAndGlyphs" textLength="202" x="331.5" y="727.3359">callWhenUpdatedDelay(task, 50)</text><path d="M13,747.0781 L87,747.0781 L87,754.0781 L77,764.0781 L13,764.0781 L13,747.0781 " fill="#EEEEEE" style="stroke: #000000; stroke-width: 1.0;"/><rect fill="none" height="555.834" style="stroke: #000000; stroke-width: 2.0;" width="1333.5" x="13" y="747.0781"/><text fill="#000000" font-family="sans-serif" font-size="13" font-weight="bold" lengthAdjust="spacingAndGlyphs" textLength="29" x="28" y="760.6465">loop</text><polygon fill="#A80036" points="335.5,781.6992,325.5,785.6992,335.5,789.6992,331.5,785.6992" style="stroke: #A80036; stroke-width: 1.0;"/><line style="stroke: #A80036; stroke-width: 1.0; stroke-dasharray: 2.0,2.0;" x1="329.5" x2="1143" y1="785.6992" y2="785.6992"/><text fill="#000000" font-family="sans-serif" font-size="13" lengthAdjust="spacingAndGlyphs" textLength="154" x="341.5" y="780.957">currentLocation: Positon</text><polygon fill="#A80036" points="1245.5,811.0098,1255.5,815.0098,1245.5,819.0098,1249.5,815.0098" style="stroke: #A80036; stroke-width: 1.0;"/><line style="stroke: #A80036; stroke-width: 1.0;" x1="324.5" x2="1251.5" y1="815.0098" y2="815.0098"/><text fill="#000000" font-family="sans-serif" font-size="13" lengthAdjust="spacingAndGlyphs" textLength="310" x="331.5" y="810.2676">updateCurrentLocation(currentLocation: Position)</text><path d="M23,830.0098 L85,830.0098 L85,837.0098 L75,847.0098 L23,847.0098 L23,830.0098 " fill="#EEEEEE" style="stroke: #000000; stroke-width: 1.0;"/><rect fill="none" height="465.9023" style="stroke: #000000; stroke-width: 2.0;" width="1313.5" x="23" y="830.0098"/><text fill="#000000" font-family="sans-serif" font-size="13" font-weight="bold" lengthAdjust="spacingAndGlyphs" textLength="17" x="38" y="843.5781">alt</text><text fill="#000000" font-family="sans-serif" font-size="11" font-weight="bold" lengthAdjust="spacingAndGlyphs" textLength="56" x="100" y="842.6445">[startPlay&#8;]</text><polygon fill="#A80036" points="312.5,864.6309,322.5,868.6309,312.5,872.6309,316.5,868.6309" style="stroke: #A80036; stroke-width: 1.0;"/><line style="stroke: #A80036; stroke-width: 1.0;" x1="51.5" x2="318.5" y1="868.6309" y2="868.6309"/><text fill="#000000" font-family="sans-serif" font-size="13" lengthAdjust="spacingAndGlyphs" textLength="249" x="58.5" y="863.8887">onPlayButtonClicked(soundSource):void</text><line style="stroke: #A80036; stroke-width: 1.0;" x1="324.5" x2="366.5" y1="897.9414" y2="897.9414"/><line style="stroke: #A80036; stroke-width: 1.0;" x1="366.5" x2="366.5" y1="897.9414" y2="910.9414"/><line style="stroke: #A80036; stroke-width: 1.0;" x1="325.5" x2="366.5" y1="910.9414" y2="910.9414"/><polygon fill="#A80036" points="335.5,906.9414,325.5,910.9414,335.5,914.9414,331.5,910.9414" style="stroke: #A80036; stroke-width: 1.0;"/><text fill="#000000" font-family="sans-serif" font-size="13" lengthAdjust="spacingAndGlyphs" textLength="146" x="331.5" y="893.1992">play(soundSource):void</text><polygon fill="#A80036" points="1245.5,936.252,1255.5,940.252,1245.5,944.252,1249.5,940.252" style="stroke: #A80036; stroke-width: 1.0;"/><line style="stroke: #A80036; stroke-width: 1.0;" x1="324.5" x2="1251.5" y1="940.252" y2="940.252"/><text fill="#000000" font-family="sans-serif" font-size="13" lengthAdjust="spacingAndGlyphs" textLength="132" x="331.5" y="935.5098">play(soundFragment)</text><line style="stroke: #000000; stroke-width: 1.0; stroke-dasharray: 2.0,2.0;" x1="23" x2="1336.5" y1="949.252" y2="949.252"/><text fill="#000000" font-family="sans-serif" font-size="11" font-weight="bold" lengthAdjust="spacingAndGlyphs" textLength="40" x="28" y="959.8867">[pause]</text><polygon fill="#A80036" points="312.5,980.5176,322.5,984.5176,312.5,988.5176,316.5,984.5176" style="stroke: #A80036; stroke-width: 1.0;"/><line style="stroke: #A80036; stroke-width: 1.0;" x1="51.5" x2="318.5" y1="984.5176" y2="984.5176"/><text fill="#000000" font-family="sans-serif" font-size="13" lengthAdjust="spacingAndGlyphs" textLength="179" x="58.5" y="979.7754">onPauseButtonClicked():void</text><line style="stroke: #A80036; stroke-width: 1.0;" x1="324.5" x2="366.5" y1="1013.8281" y2="1013.8281"/><line style="stroke: #A80036; stroke-width: 1.0;" x1="366.5" x2="366.5" y1="1013.8281" y2="1026.8281"/><line style="stroke: #A80036; stroke-width: 1.0;" x1="325.5" x2="366.5" y1="1026.8281" y2="1026.8281"/><polygon fill="#A80036" points="335.5,1022.8281,325.5,1026.8281,335.5,1030.8281,331.5,1026.8281" style="stroke: #A80036; stroke-width: 1.0;"/><text fill="#000000" font-family="sans-serif" font-size="13" lengthAdjust="spacingAndGlyphs" textLength="45" x="331.5" y="1009.0859">pause()</text><polygon fill="#A80036" points="1245.5,1052.1387,1255.5,1056.1387,1245.5,1060.1387,1249.5,1056.1387" style="stroke: #A80036; stroke-width: 1.0;"/><line style="stroke: #A80036; stroke-width: 1.0;" x1="324.5" x2="1251.5" y1="1056.1387" y2="1056.1387"/><text fill="#000000" font-family="sans-serif" font-size="13" lengthAdjust="spacingAndGlyphs" textLength="45" x="331.5" y="1051.3965">pause()</text><line style="stroke: #000000; stroke-width: 1.0; stroke-dasharray: 2.0,2.0;" x1="23" x2="1336.5" y1="1065.1387" y2="1065.1387"/><text fill="#000000" font-family="sans-serif" font-size="11" font-weight="bold" lengthAdjust="spacingAndGlyphs" textLength="31" x="28" y="1075.7734">[next]</text><polygon fill="#A80036" points="312.5,1096.4043,322.5,1100.4043,312.5,1104.4043,316.5,1100.4043" style="stroke: #A80036; stroke-width: 1.0;"/><line style="stroke: #A80036; stroke-width: 1.0;" x1="51.5" x2="318.5" y1="1100.4043" y2="1100.4043"/><text fill="#000000" font-family="sans-serif" font-size="13" lengthAdjust="spacingAndGlyphs" textLength="173" x="58.5" y="1095.6621">onNextButtonClicked():void</text><line style="stroke: #A80036; stroke-width: 1.0;" x1="324.5" x2="366.5" y1="1129.7148" y2="1129.7148"/><line style="stroke: #A80036; stroke-width: 1.0;" x1="366.5" x2="366.5" y1="1129.7148" y2="1142.7148"/><line style="stroke: #A80036; stroke-width: 1.0;" x1="325.5" x2="366.5" y1="1142.7148" y2="1142.7148"/><polygon fill="#A80036" points="335.5,1138.7148,325.5,1142.7148,335.5,1146.7148,331.5,1142.7148" style="stroke: #A80036; stroke-width: 1.0;"/><text fill="#000000" font-family="sans-serif" font-size="13" lengthAdjust="spacingAndGlyphs" textLength="146" x="331.5" y="1124.9727">play(soundSource):void</text><polygon fill="#A80036" points="1245.5,1168.0254,1255.5,1172.0254,1245.5,1176.0254,1249.5,1172.0254" style="stroke: #A80036; stroke-width: 1.0;"/><line style="stroke: #A80036; stroke-width: 1.0;" x1="324.5" x2="1251.5" y1="1172.0254" y2="1172.0254"/><text fill="#000000" font-family="sans-serif" font-size="13" lengthAdjust="spacingAndGlyphs" textLength="132" x="331.5" y="1167.2832">play(soundFragment)</text><line style="stroke: #000000; stroke-width: 1.0; stroke-dasharray: 2.0,2.0;" x1="23" x2="1336.5" y1="1181.0254" y2="1181.0254"/><text fill="#000000" font-family="sans-serif" font-size="11" font-weight="bold" lengthAdjust="spacingAndGlyphs" textLength="33" x="28" y="1191.6602">[prev]</text><polygon fill="#A80036" points="312.5,1212.291,322.5,1216.291,312.5,1220.291,316.5,1216.291" style="stroke: #A80036; stroke-width: 1.0;"/><line style="stroke: #A80036; stroke-width: 1.0;" x1="51.5" x2="318.5" y1="1216.291" y2="1216.291"/><text fill="#000000" font-family="sans-serif" font-size="13" lengthAdjust="spacingAndGlyphs" textLength="169" x="58.5" y="1211.5488">onPrevButtonClicked():void</text><line style="stroke: #A80036; stroke-width: 1.0;" x1="324.5" x2="366.5" y1="1245.6016" y2="1245.6016"/><line style="stroke: #A80036; stroke-width: 1.0;" x1="366.5" x2="366.5" y1="1245.6016" y2="1258.6016"/><line style="stroke: #A80036; stroke-width: 1.0;" x1="325.5" x2="366.5" y1="1258.6016" y2="1258.6016"/><polygon fill="#A80036" points="335.5,1254.6016,325.5,1258.6016,335.5,1262.6016,331.5,1258.6016" style="stroke: #A80036; stroke-width: 1.0;"/><text fill="#000000" font-family="sans-serif" font-size="13" lengthAdjust="spacingAndGlyphs" textLength="146" x="331.5" y="1240.8594">play(soundSource):void</text><polygon fill="#A80036" points="1245.5,1283.9121,1255.5,1287.9121,1245.5,1291.9121,1249.5,1287.9121" style="stroke: #A80036; stroke-width: 1.0;"/><line style="stroke: #A80036; stroke-width: 1.0;" x1="324.5" x2="1251.5" y1="1287.9121" y2="1287.9121"/><text fill="#000000" font-family="sans-serif" font-size="13" lengthAdjust="spacingAndGlyphs" textLength="132" x="331.5" y="1283.1699">play(soundFragment)</text><polygon fill="#A80036" points="1132,1327.2227,1142,1331.2227,1132,1335.2227,1136,1331.2227" style="stroke: #A80036; stroke-width: 1.0;"/><line style="stroke: #A80036; stroke-width: 1.0;" x1="324.5" x2="1138" y1="1331.2227" y2="1331.2227"/><text fill="#000000" font-family="sans-serif" font-size="13" lengthAdjust="spacingAndGlyphs" textLength="68" x="331.5" y="1326.4805">clearTask()</text><polygon fill="#A80036" points="1245.5,1356.5332,1255.5,1360.5332,1245.5,1364.5332,1249.5,1360.5332" style="stroke: #A80036; stroke-width: 1.0;"/><line style="stroke: #A80036; stroke-width: 1.0;" x1="324.5" x2="1251.5" y1="1360.5332" y2="1360.5332"/><text fill="#000000" font-family="sans-serif" font-size="13" lengthAdjust="spacingAndGlyphs" textLength="53" x="331.5" y="1355.791">stopAll()</text><polygon fill="#A80036" points="1245.5,1385.8438,1255.5,1389.8438,1245.5,1393.8438,1249.5,1389.8438" style="stroke: #A80036; stroke-width: 1.0;"/><line style="stroke: #A80036; stroke-width: 1.0;" x1="324.5" x2="1251.5" y1="1389.8438" y2="1389.8438"/><text fill="#000000" font-family="sans-serif" font-size="13" lengthAdjust="spacingAndGlyphs" textLength="87" x="331.5" y="1385.1016">&lt;&lt;destroy&gt;&gt;</text><line style="stroke: #A80036; stroke-width: 2.0;" x1="1248.5" x2="1266.5" y1="1380.8438" y2="1398.8438"/><line style="stroke: #A80036; stroke-width: 2.0;" x1="1248.5" x2="1266.5" y1="1398.8438" y2="1380.8438"/><polygon fill="#A80036" points="1132,1415.1543,1142,1419.1543,1132,1423.1543,1136,1419.1543" style="stroke: #A80036; stroke-width: 1.0;"/><line style="stroke: #A80036; stroke-width: 1.0;" x1="324.5" x2="1138" y1="1419.1543" y2="1419.1543"/><text fill="#000000" font-family="sans-serif" font-size="13" lengthAdjust="spacingAndGlyphs" textLength="87" x="331.5" y="1414.4121">&lt;&lt;destroy&gt;&gt;</text><line style="stroke: #A80036; stroke-width: 2.0;" x1="1135" x2="1153" y1="1410.1543" y2="1428.1543"/><line style="stroke: #A80036; stroke-width: 2.0;" x1="1135" x2="1153" y1="1428.1543" y2="1410.1543"/><line style="stroke: #A80036; stroke-width: 1.0;" x1="324.5" x2="366.5" y1="1448.4648" y2="1448.4648"/><line style="stroke: #A80036; stroke-width: 1.0;" x1="366.5" x2="366.5" y1="1448.4648" y2="1461.4648"/><line style="stroke: #A80036; stroke-width: 1.0;" x1="325.5" x2="366.5" y1="1461.4648" y2="1461.4648"/><polygon fill="#A80036" points="335.5,1457.4648,325.5,1461.4648,335.5,1465.4648,331.5,1461.4648" style="stroke: #A80036; stroke-width: 1.0;"/><text fill="#000000" font-family="sans-serif" font-size="13" lengthAdjust="spacingAndGlyphs" textLength="87" x="331.5" y="1443.7227">&lt;&lt;destroy&gt;&gt;</text><line style="stroke: #A80036; stroke-width: 2.0;" x1="315.5" x2="333.5" y1="1452.1543" y2="1470.1543"/><line style="stroke: #A80036; stroke-width: 2.0;" x1="315.5" x2="333.5" y1="1470.1543" y2="1452.1543"/><!--
@startuml Diagrams/PlayMapModeVSS
hide footbox
skinparam sequenceParticipant underline

actor User as user
participant ":PlayMapModeVSSViewModel" as page
participant ":LocalSoundSpaceLibrary" as library
participant "thisVSS:MapModeVirtualSoundSpace" as vss
participant ":Sensor" as sensor
participant ":GVRAudioEngine" as audio
participant ":AdjustSensorPage" as adpage
participant "task:Callable" as task

create page
[-> page: <<create>>
page -> library: checkAllNessarySoundFragmentDownloaded()
alt downloaded
    library - -> page: confirm
else not yet
    library - -> page: deny
    page -> page: warning
    page -> page: <<destroy>>
    destroy page
end
page -> vss: getSoundSources()
vss - -> page: soundSourceList
page -> page: displayMapSoundSourceList(listOfLocalMapSoundSource):void
create sensor
page -> sensor: <<create>>
create audio
page -> audio: <<create>>
create adpage
page -> adpage: <<create>>
...adjust sensor...
user -> user: wakeup
destroy adpage
create task
page -> task: new Callable()
page -> sensor: callWhenUpdatedDelay(task, 50)

loop
    sensor - -> page: currentLocation: Positon
    page -> audio: updateCurrentLocation(currentLocation: Position)

    alt startPlay
        user -> page: onPlayButtonClicked(soundSource):void
        page -> page: play(soundSource):void
        page -> audio: play(soundFragment)
    else pause
        user -> page: onPauseButtonClicked():void
        page -> page: pause()
        page -> audio: pause()
    else next
        user -> page: onNextButtonClicked():void
        page -> page: play(soundSource):void
        page -> audio: play(soundFragment)
    else prev
        user -> page: onPrevButtonClicked():void
        page -> page: play(soundSource):void
        page -> audio: play(soundFragment)
    end
end
page -> sensor: clearTask()
page -> audio: stopAll()
page -> audio: <<destroy>>
destroy audio
page -> sensor: <<destroy>>
destroy sensor
page -> page: <<destroy>>
destroy page

@enduml

PlantUML version 1.2018.02(Sat Mar 10 01:20:44 CST 2018)
(GPL source distribution)
Java Runtime: Java(TM) SE Runtime Environment
JVM: Java HotSpot(TM) 64-Bit Server VM
Java Version: 1.8.0_151-b12
Operating System: Mac OS X
OS Version: 10.11.6
Default Encoding: UTF-8
Language: zh
Country: CN
--></g></svg>
