<?xml version="1.0" encoding="UTF-8" standalone="no"?><svg xmlns="http://www.w3.org/2000/svg" xmlns:xlink="http://www.w3.org/1999/xlink" contentScriptType="application/ecmascript" contentStyleType="text/css" height="261px" preserveAspectRatio="none" style="width:633px;height:261px;" version="1.1" viewBox="0 0 633 261"
    width="633px" zoomAndPan="magnify"><defs><filter height="300%" id="f1jvev97olxzh9" width="300%" x="-1" y="-1"><feGaussianBlur result="blurOut" stdDeviation="2.0"/><feColorMatrix in="blurOut" result="blurOut2" type="matrix" values="0 0 0 0 0 0 0 0 0 0 0 0 0 0 0 0 0 0 .4 0"/><feOffset dx="4.0" dy="4.0" in="blurOut2" result="blurOut3"/><feBlend in="SourceGraphic" in2="blurOut3" mode="normal"/></filter></defs><g><line style="stroke: #A80036; stroke-width: 1.0; stroke-dasharray: 5.0,5.0;" x1="25" x2="25" y1="89.1201" y2="249.1377"/><line style="stroke: #A80036; stroke-width: 1.0; stroke-dasharray: 5.0,5.0;" x1="152" x2="152" y1="89.1201" y2="249.1377"/><line style="stroke: #A80036; stroke-width: 1.0; stroke-dasharray: 5.0,5.0;" x1="535" x2="535" y1="89.1201" y2="249.1377"/><text fill="#000000" font-family="sans-serif" font-size="14" lengthAdjust="spacingAndGlyphs" text-decoration="underline" textLength="29" x="8" y="86.0439">User</text><line style="stroke: #000000; stroke-width: 1.0;" x1="8" x2="37" y1="88.0439" y2="88.0439"/><ellipse cx="25.5" cy="13" fill="#FEFECE" filter="url(#f1jvev97olxzh9)" rx="8" ry="8" style="stroke: #A80036; stroke-width: 2.0;"/><path d="M25.5,21 L25.5,48 M12.5,29 L38.5,29 M25.5,48 L12.5,63 M25.5,48 L38.5,63 " fill="none" filter="url(#f1jvev97olxzh9)" style="stroke: #A80036; stroke-width: 2.0;"/><rect fill="#FEFECE" filter="url(#f1jvev97olxzh9)" height="33.1201" style="stroke: #A80036; stroke-width: 1.5;" width="195" x="53" y="51"/><text fill="#000000" font-family="sans-serif" font-size="14" lengthAdjust="spacingAndGlyphs" text-decoration="underline" textLength="181" x="60" y="74.0439">:PreviewLocalMapViewModel</text><line style="stroke: #000000; stroke-width: 1.0;" x1="60" x2="241" y1="76.0439" y2="76.0439"/><rect fill="#FEFECE" filter="url(#f1jvev97olxzh9)" height="33.1201" style="stroke: #A80036; stroke-width: 1.5;" width="177" x="445" y="51"/><text fill="#000000" font-family="sans-serif" font-size="14" lengthAdjust="spacingAndGlyphs" text-decoration="underline" textLength="163" x="452" y="74.0439">:LocalSoundSpaceLibrary</text><line style="stroke: #000000; stroke-width: 1.0;" x1="452" x2="615" y1="76.0439" y2="76.0439"/><polygon fill="#A80036" points="140.5,118.8745,150.5,122.8745,140.5,126.8745,144.5,122.8745" style="stroke: #A80036; stroke-width: 1.0;"/><line style="stroke: #A80036; stroke-width: 1.0;" x1="3" x2="146.5" y1="122.8745" y2="122.8745"/><text fill="#000000" font-family="sans-serif" font-size="13" lengthAdjust="spacingAndGlyphs" textLength="68" x="10" y="118.0181">&lt;&lt;create&gt;&gt;</text><polygon fill="#A80036" points="523.5,150.6289,533.5,154.6289,523.5,158.6289,527.5,154.6289" style="stroke: #A80036; stroke-width: 1.0;"/><line style="stroke: #A80036; stroke-width: 1.0;" x1="152.5" x2="529.5" y1="154.6289" y2="154.6289"/><text fill="#000000" font-family="sans-serif" font-size="13" lengthAdjust="spacingAndGlyphs" textLength="126" x="159.5" y="149.7725">getMetadata(VSS_ID)</text><polygon fill="#A80036" points="163.5,182.3833,153.5,186.3833,163.5,190.3833,159.5,186.3833" style="stroke: #A80036; stroke-width: 1.0;"/><line style="stroke: #A80036; stroke-width: 1.0; stroke-dasharray: 2.0,2.0;" x1="157.5" x2="534.5" y1="186.3833" y2="186.3833"/><text fill="#000000" font-family="sans-serif" font-size="13" lengthAdjust="spacingAndGlyphs" textLength="61" x="169.5" y="181.5269">metadatas</text><line style="stroke: #A80036; stroke-width: 1.0;" x1="152.5" x2="194.5" y1="218.1377" y2="218.1377"/><line style="stroke: #A80036; stroke-width: 1.0;" x1="194.5" x2="194.5" y1="218.1377" y2="231.1377"/><line style="stroke: #A80036; stroke-width: 1.0;" x1="153.5" x2="194.5" y1="231.1377" y2="231.1377"/><polygon fill="#A80036" points="163.5,227.1377,153.5,231.1377,163.5,235.1377,159.5,231.1377" style="stroke: #A80036; stroke-width: 1.0;"/><text fill="#000000" font-family="sans-serif" font-size="13" lengthAdjust="spacingAndGlyphs" textLength="369" x="159.5" y="213.2813">displayMetadata(VSSName, VSSDescription, soundSourceList)</text><!--
@startuml Diagrams/PreviewLocalMapVSS
hide footbox
skinparam sequenceParticipant underline
actor User as user
participant ":PreviewLocalMapViewModel" as viewModel
participant ":LocalSoundSpaceLibrary" as library
create viewModel
[-> viewModel: <<create>>
viewModel -> library: getMetadata(VSS_ID)
library - -> viewModel: metadatas
viewModel -> viewModel: displayMetadata(VSSName, VSSDescription, soundSourceList)

@enduml

PlantUML version 1.2018.02(Sat Mar 10 01:20:44 CST 2018)
(GPL source distribution)
Java Runtime: Java(TM) SE Runtime Environment
JVM: Java HotSpot(TM) Client VM
Java Version: 1.8.0_162-b12
Operating System: Windows 10
OS Version: 10.0
Default Encoding: GBK
Language: zh
Country: CN
--></g></svg>