<?xml version="1.0" encoding="UTF-8" standalone="no"?><svg xmlns="http://www.w3.org/2000/svg" xmlns:xlink="http://www.w3.org/1999/xlink" contentScriptType="application/ecmascript" contentStyleType="text/css" height="248px" preserveAspectRatio="none" style="width:795px;height:248px;" version="1.1" viewBox="0 0 795 248"
    width="795px" zoomAndPan="magnify"><defs><filter height="300%" id="fhh8cvvr03kv7" width="300%" x="-1" y="-1"><feGaussianBlur result="blurOut" stdDeviation="2.0"/><feColorMatrix in="blurOut" result="blurOut2" type="matrix" values="0 0 0 0 0 0 0 0 0 0 0 0 0 0 0 0 0 0 .4 0"/><feOffset dx="4.0" dy="4.0" in="blurOut2" result="blurOut3"/><feBlend in="SourceGraphic" in2="blurOut3" mode="normal"/></filter></defs><g><line style="stroke: #A80036; stroke-width: 1.0; stroke-dasharray: 5.0,5.0;" x1="26" x2="26" y1="86.4883" y2="236.7305"/><line style="stroke: #A80036; stroke-width: 1.0; stroke-dasharray: 5.0,5.0;" x1="166" x2="166" y1="86.4883" y2="236.7305"/><line style="stroke: #A80036; stroke-width: 1.0; stroke-dasharray: 5.0,5.0;" x1="563" x2="563" y1="86.4883" y2="236.7305"/><text fill="#000000" font-family="sans-serif" font-size="14" lengthAdjust="spacingAndGlyphs" text-decoration="underline" textLength="31" x="8" y="83.5352">User</text><line style="stroke: #000000; stroke-width: 1.0;" x1="8" x2="39" y1="85.5352" y2="85.5352"/><ellipse cx="26.5" cy="13" fill="#FEFECE" filter="url(#fhh8cvvr03kv7)" rx="8" ry="8" style="stroke: #A80036; stroke-width: 2.0;"/><path d="M26.5,21 L26.5,48 M13.5,29 L39.5,29 M26.5,48 L13.5,63 M26.5,48 L39.5,63 " fill="none" filter="url(#fhh8cvvr03kv7)" style="stroke: #A80036; stroke-width: 2.0;"/><rect fill="#FEFECE" filter="url(#fhh8cvvr03kv7)" height="30.4883" style="stroke: #A80036; stroke-width: 1.5;" width="218" x="55" y="51"/><text fill="#000000" font-family="sans-serif" font-size="14" lengthAdjust="spacingAndGlyphs" text-decoration="underline" textLength="204" x="62" y="71.5352">:PreviewOnlineMapViewModel</text><line style="stroke: #000000; stroke-width: 1.0;" x1="62" x2="266" y1="73.5352" y2="73.5352"/><rect fill="#FEFECE" filter="url(#fhh8cvvr03kv7)" height="30.4883" style="stroke: #A80036; stroke-width: 1.5;" width="194" x="464" y="51"/><text fill="#000000" font-family="sans-serif" font-size="14" lengthAdjust="spacingAndGlyphs" text-decoration="underline" textLength="180" x="471" y="71.5352">:OnlineSoundSpaceLibrary</text><line style="stroke: #000000; stroke-width: 1.0;" x1="471" x2="651" y1="73.5352" y2="73.5352"/><polygon fill="#A80036" points="154,113.4883,164,117.4883,154,121.4883,158,117.4883" style="stroke: #A80036; stroke-width: 1.0;"/><line style="stroke: #A80036; stroke-width: 1.0;" x1="3" x2="160" y1="117.4883" y2="117.4883"/><text fill="#000000" font-family="sans-serif" font-size="13" lengthAdjust="spacingAndGlyphs" textLength="78" x="10" y="113.0566">&lt;&lt;create&gt;&gt;</text><polygon fill="#A80036" points="551,142.7988,561,146.7988,551,150.7988,555,146.7988" style="stroke: #A80036; stroke-width: 1.0;"/><line style="stroke: #A80036; stroke-width: 1.0;" x1="166" x2="557" y1="146.7988" y2="146.7988"/><text fill="#000000" font-family="sans-serif" font-size="13" lengthAdjust="spacingAndGlyphs" textLength="128" x="173" y="142.3672">getMetadata(VSS_ID)</text><polygon fill="#A80036" points="177,172.1094,167,176.1094,177,180.1094,173,176.1094" style="stroke: #A80036; stroke-width: 1.0;"/><line style="stroke: #A80036; stroke-width: 1.0; stroke-dasharray: 2.0,2.0;" x1="171" x2="562" y1="176.1094" y2="176.1094"/><text fill="#000000" font-family="sans-serif" font-size="13" lengthAdjust="spacingAndGlyphs" textLength="65" x="183" y="171.6777">metadatas</text><line style="stroke: #A80036; stroke-width: 1.0;" x1="166" x2="208" y1="205.7305" y2="205.7305"/><line style="stroke: #A80036; stroke-width: 1.0;" x1="208" x2="208" y1="205.7305" y2="218.7305"/><line style="stroke: #A80036; stroke-width: 1.0;" x1="167" x2="208" y1="218.7305" y2="218.7305"/><polygon fill="#A80036" points="177,214.7305,167,218.7305,177,222.7305,173,218.7305" style="stroke: #A80036; stroke-width: 1.0;"/><text fill="#000000" font-family="sans-serif" font-size="13" lengthAdjust="spacingAndGlyphs" textLength="383" x="173" y="200.9883">displayMetadata(VSSName, VSSDescription, soundSourceList)</text><path d="M568,190.9199 L568,215.9199 L783,215.9199 L783,200.9199 L773,190.9199 L568,190.9199 " fill="#FBFB77" filter="url(#fhh8cvvr03kv7)" style="stroke: #A80036; stroke-width: 1.0;"/><path d="M773,190.9199 L773,200.9199 L783,200.9199 L773,190.9199 " fill="#FBFB77" style="stroke: #A80036; stroke-width: 1.0;"/><text fill="#000000" font-family="sans-serif" font-size="13" lengthAdjust="spacingAndGlyphs" textLength="194" x="574" y="208.4883">details are left out for designs.</text><!--
@startuml Diagrams/PreviewOnlineMapVSS
hide footbox
skinparam sequenceParticipant underline
actor User as user

participant ":PreviewOnlineMapViewModel" as viewModel
participant ":OnlineSoundSpaceLibrary" as library
create viewModel
[-> viewModel: <<create>>
viewModel -> library: getMetadata(VSS_ID)
library - -> viewModel: metadatas
viewModel -> viewModel: displayMetadata(VSSName, VSSDescription, soundSourceList)
note right
details are left out for designs.
end note

@enduml

PlantUML version 1.2018.01(Mon Jan 29 02:08:22 CST 2018)
(GPL source distribution)
Java Runtime: Java(TM) SE Runtime Environment
JVM: Java HotSpot(TM) 64-Bit Server VM
Java Version: 9+181
Operating System: Mac OS X
OS Version: 10.12.6
Default Encoding: UTF-8
Language: zh
Country: CN
--></g></svg>