<?xml version="1.0" encoding="UTF-8" standalone="no"?><svg xmlns="http://www.w3.org/2000/svg" xmlns:xlink="http://www.w3.org/1999/xlink" contentScriptType="application/ecmascript" contentStyleType="text/css" height="227px" preserveAspectRatio="none" style="width:201px;height:227px;" version="1.1" viewBox="0 0 201 227"
    width="201px" zoomAndPan="magnify"><defs/><g><text fill="#000000" font-family="sans-serif" font-size="12" lengthAdjust="spacingAndGlyphs" textLength="187" x="6" y="19.752">Preview Online Concert Mode VSS</text><line style="stroke: #AAAAAA; stroke-width: 1.0;" x1="6" x2="194" y1="26.8887" y2="26.8887"/><line style="stroke: #AAAAAA; stroke-width: 1.0;" x1="6" x2="194" y1="28.8887" y2="28.8887"/><text fill="#000000" font-family="sans-serif" font-size="12" lengthAdjust="spacingAndGlyphs" textLength="99" x="7" y="47.1406">SoundSource1.ss</text><line style="stroke: #000000; stroke-width: 1.0;" x1="6" x2="107" y1="32.3887" y2="32.3887"/><line style="stroke: #000000; stroke-width: 1.0;" x1="6" x2="107" y1="50.7773" y2="50.7773"/><line style="stroke: #000000; stroke-width: 1.0;" x1="6" x2="6" y1="32.3887" y2="50.7773"/><line style="stroke: #000000; stroke-width: 1.0;" x1="107" x2="107" y1="32.3887" y2="50.7773"/><text fill="#000000" font-family="sans-serif" font-size="12" lengthAdjust="spacingAndGlyphs" textLength="99" x="7" y="67.5293">SoundSource2.ss</text><line style="stroke: #000000; stroke-width: 1.0;" x1="6" x2="107" y1="52.7773" y2="52.7773"/><line style="stroke: #000000; stroke-width: 1.0;" x1="6" x2="107" y1="71.166" y2="71.166"/><line style="stroke: #000000; stroke-width: 1.0;" x1="6" x2="6" y1="52.7773" y2="71.166"/><line style="stroke: #000000; stroke-width: 1.0;" x1="107" x2="107" y1="52.7773" y2="71.166"/><text fill="#000000" font-family="sans-serif" font-size="12" lengthAdjust="spacingAndGlyphs" textLength="57" x="7" y="87.918">VSSName</text><text fill="#000000" font-family="sans-serif" font-size="12" lengthAdjust="spacingAndGlyphs" textLength="32" x="98" y="87.918">name</text><line style="stroke: #000000; stroke-width: 1.0;" x1="96" x2="131" y1="90.5547" y2="90.5547"/><line style="stroke: #000000; stroke-width: 1.0;" x1="96" x2="96" y1="87.5547" y2="89.5547"/><line style="stroke: #000000; stroke-width: 1.0;" x1="131" x2="131" y1="87.5547" y2="89.5547"/><text fill="#000000" font-family="sans-serif" font-size="12" lengthAdjust="spacingAndGlyphs" textLength="86" x="7" y="108.3066">VSSDescription</text><text fill="#000000" font-family="sans-serif" font-size="12" lengthAdjust="spacingAndGlyphs" textLength="61" x="98" y="108.3066">description</text><line style="stroke: #000000; stroke-width: 1.0;" x1="96" x2="187" y1="110.9434" y2="110.9434"/><line style="stroke: #000000; stroke-width: 1.0;" x1="96" x2="96" y1="107.9434" y2="109.9434"/><line style="stroke: #000000; stroke-width: 1.0;" x1="187" x2="187" y1="107.9434" y2="109.9434"/><line style="stroke: #000000; stroke-width: 1.0;" x1="6" x2="94" y1="73.166" y2="73.166"/><line style="stroke: #000000; stroke-width: 1.0;" x1="94" x2="190" y1="73.166" y2="73.166"/><line style="stroke: #000000; stroke-width: 1.0;" x1="6" x2="94" y1="113.9434" y2="113.9434"/><line style="stroke: #000000; stroke-width: 1.0;" x1="94" x2="190" y1="113.9434" y2="113.9434"/><line style="stroke: #000000; stroke-width: 1.0;" x1="6" x2="6" y1="73.166" y2="93.5547"/><line style="stroke: #000000; stroke-width: 1.0;" x1="190" x2="190" y1="93.5547" y2="113.9434"/><line style="stroke: #000000; stroke-width: 1.0;" x1="190" x2="190" y1="73.166" y2="93.5547"/><line style="stroke: #000000; stroke-width: 1.0;" x1="6" x2="6" y1="93.5547" y2="113.9434"/><rect fill="#EEEEEE" height="20.3887" rx="5" ry="5" style="stroke: #000000; stroke-width: 2.5;" width="68" x="73.5" y="119.4434"/><text fill="#000000" font-family="sans-serif" font-size="12" lengthAdjust="spacingAndGlyphs" textLength="56" x="79.5" y="135.1953">Download</text><text fill="#000000" font-family="sans-serif" font-size="12" lengthAdjust="spacingAndGlyphs" textLength="52" x="10" y="158.084">comment</text><line style="stroke: #000000; stroke-width: 1.0;" x1="8" x2="67" y1="160.7207" y2="160.7207"/><line style="stroke: #000000; stroke-width: 1.0;" x1="8" x2="8" y1="157.7207" y2="159.7207"/><line style="stroke: #000000; stroke-width: 1.0;" x1="67" x2="67" y1="157.7207" y2="159.7207"/><rect fill="#EEEEEE" height="20.3887" rx="5" ry="5" style="stroke: #000000; stroke-width: 2.5;" width="60" x="73.5" y="146.832"/><text fill="#000000" font-family="sans-serif" font-size="12" lengthAdjust="spacingAndGlyphs" textLength="55" x="76" y="162.584">Comment</text><rect fill="#EEEEEE" height="20.3887" rx="5" ry="5" style="stroke: #000000; stroke-width: 2.5;" width="36" x="73.5" y="174.2207"/><text fill="#000000" font-family="sans-serif" font-size="12" lengthAdjust="spacingAndGlyphs" textLength="23" x="80" y="189.9727">Like</text><rect fill="#EEEEEE" height="20.3887" rx="5" ry="5" style="stroke: #000000; stroke-width: 2.5;" width="36" x="73.5" y="201.6094"/><text fill="#000000" font-family="sans-serif" font-size="12" lengthAdjust="spacingAndGlyphs" textLength="19" x="82" y="217.3613">Exit</text></g></svg>