<?xml version="1.0" encoding="UTF-8" standalone="no"?><svg xmlns="http://www.w3.org/2000/svg" xmlns:xlink="http://www.w3.org/1999/xlink" contentScriptType="application/ecmascript" contentStyleType="text/css" height="162px" preserveAspectRatio="none" style="width:233px;height:162px;" version="1.1" viewBox="0 0 233 162"
    width="233px" zoomAndPan="magnify"><defs/><g><text fill="#000000" font-family="sans-serif" font-size="12" lengthAdjust="spacingAndGlyphs" textLength="161" x="6" y="19.752">Preview Local Map Mode VSS</text><line style="stroke: #AAAAAA; stroke-width: 1.0;" x1="6" x2="226" y1="26.8887" y2="26.8887"/><line style="stroke: #AAAAAA; stroke-width: 1.0;" x1="6" x2="226" y1="28.8887" y2="28.8887"/><text fill="#000000" font-family="sans-serif" font-size="12" lengthAdjust="spacingAndGlyphs" textLength="99" x="7" y="47.1406">SoundSource1.ss</text><rect fill="#EEEEEE" height="20.3887" rx="5" ry="5" style="stroke: #000000; stroke-width: 2.5;" width="68" x="110.5" y="35.8887"/><text fill="#000000" font-family="sans-serif" font-size="12" lengthAdjust="spacingAndGlyphs" textLength="45" x="122" y="51.6406">Position</text><rect fill="#EEEEEE" height="20.3887" rx="5" ry="5" style="stroke: #000000; stroke-width: 2.5;" width="36" x="185.5" y="35.8887"/><text fill="#000000" font-family="sans-serif" font-size="12" lengthAdjust="spacingAndGlyphs" textLength="30" x="188.5" y="51.6406">Mode</text><line style="stroke: #000000; stroke-width: 1.0;" x1="6" x2="107" y1="32.3887" y2="32.3887"/><line style="stroke: #000000; stroke-width: 1.0;" x1="107" x2="182" y1="59.7773" y2="59.7773"/><line style="stroke: #000000; stroke-width: 1.0;" x1="107" x2="182" y1="32.3887" y2="32.3887"/><line style="stroke: #000000; stroke-width: 1.0;" x1="182" x2="225" y1="59.7773" y2="59.7773"/><line style="stroke: #000000; stroke-width: 1.0;" x1="182" x2="225" y1="32.3887" y2="32.3887"/><line style="stroke: #000000; stroke-width: 1.0;" x1="6" x2="107" y1="59.7773" y2="59.7773"/><line style="stroke: #000000; stroke-width: 1.0;" x1="6" x2="6" y1="32.3887" y2="59.7773"/><line style="stroke: #000000; stroke-width: 1.0;" x1="225" x2="225" y1="32.3887" y2="59.7773"/><text fill="#000000" font-family="sans-serif" font-size="12" lengthAdjust="spacingAndGlyphs" textLength="99" x="7" y="76.5293">SoundSource2.ss</text><rect fill="#EEEEEE" height="20.3887" rx="5" ry="5" style="stroke: #000000; stroke-width: 2.5;" width="68" x="110.5" y="65.2773"/><text fill="#000000" font-family="sans-serif" font-size="12" lengthAdjust="spacingAndGlyphs" textLength="45" x="122" y="81.0293">Position</text><rect fill="#EEEEEE" height="20.3887" rx="5" ry="5" style="stroke: #000000; stroke-width: 2.5;" width="36" x="185.5" y="65.2773"/><text fill="#000000" font-family="sans-serif" font-size="12" lengthAdjust="spacingAndGlyphs" textLength="30" x="188.5" y="81.0293">Mode</text><line style="stroke: #000000; stroke-width: 1.0;" x1="6" x2="107" y1="61.7773" y2="61.7773"/><line style="stroke: #000000; stroke-width: 1.0;" x1="107" x2="182" y1="89.166" y2="89.166"/><line style="stroke: #000000; stroke-width: 1.0;" x1="107" x2="182" y1="61.7773" y2="61.7773"/><line style="stroke: #000000; stroke-width: 1.0;" x1="182" x2="225" y1="89.166" y2="89.166"/><line style="stroke: #000000; stroke-width: 1.0;" x1="182" x2="225" y1="61.7773" y2="61.7773"/><line style="stroke: #000000; stroke-width: 1.0;" x1="6" x2="107" y1="89.166" y2="89.166"/><line style="stroke: #000000; stroke-width: 1.0;" x1="6" x2="6" y1="61.7773" y2="89.166"/><line style="stroke: #000000; stroke-width: 1.0;" x1="225" x2="225" y1="61.7773" y2="89.166"/><text fill="#000000" font-family="sans-serif" font-size="12" lengthAdjust="spacingAndGlyphs" textLength="57" x="7" y="105.918">VSSName</text><text fill="#000000" font-family="sans-serif" font-size="12" lengthAdjust="spacingAndGlyphs" textLength="32" x="98" y="105.918">name</text><line style="stroke: #000000; stroke-width: 1.0;" x1="96" x2="131" y1="108.5547" y2="108.5547"/><line style="stroke: #000000; stroke-width: 1.0;" x1="96" x2="96" y1="105.5547" y2="107.5547"/><line style="stroke: #000000; stroke-width: 1.0;" x1="131" x2="131" y1="105.5547" y2="107.5547"/><text fill="#000000" font-family="sans-serif" font-size="12" lengthAdjust="spacingAndGlyphs" textLength="86" x="7" y="126.3066">VSSDescription</text><text fill="#000000" font-family="sans-serif" font-size="12" lengthAdjust="spacingAndGlyphs" textLength="61" x="98" y="126.3066">description</text><line style="stroke: #000000; stroke-width: 1.0;" x1="96" x2="187" y1="128.9434" y2="128.9434"/><line style="stroke: #000000; stroke-width: 1.0;" x1="96" x2="96" y1="125.9434" y2="127.9434"/><line style="stroke: #000000; stroke-width: 1.0;" x1="187" x2="187" y1="125.9434" y2="127.9434"/><line style="stroke: #000000; stroke-width: 1.0;" x1="6" x2="94" y1="91.166" y2="91.166"/><line style="stroke: #000000; stroke-width: 1.0;" x1="94" x2="190" y1="91.166" y2="91.166"/><line style="stroke: #000000; stroke-width: 1.0;" x1="6" x2="94" y1="131.9434" y2="131.9434"/><line style="stroke: #000000; stroke-width: 1.0;" x1="94" x2="190" y1="131.9434" y2="131.9434"/><line style="stroke: #000000; stroke-width: 1.0;" x1="6" x2="6" y1="91.166" y2="111.5547"/><line style="stroke: #000000; stroke-width: 1.0;" x1="190" x2="190" y1="111.5547" y2="131.9434"/><line style="stroke: #000000; stroke-width: 1.0;" x1="190" x2="190" y1="91.166" y2="111.5547"/><line style="stroke: #000000; stroke-width: 1.0;" x1="6" x2="6" y1="111.5547" y2="131.9434"/><rect fill="#EEEEEE" height="20.3887" rx="5" ry="5" style="stroke: #000000; stroke-width: 2.5;" width="36" x="8.5" y="136.4434"/><text fill="#000000" font-family="sans-serif" font-size="12" lengthAdjust="spacingAndGlyphs" textLength="19" x="17" y="152.1953">Exit</text></g></svg>