<?xml version="1.0" encoding="UTF-8" standalone="no"?><svg xmlns="http://www.w3.org/2000/svg" xmlns:xlink="http://www.w3.org/1999/xlink" contentScriptType="application/ecmascript" contentStyleType="text/css" height="261px" preserveAspectRatio="none" style="width:759px;height:261px;" version="1.1" viewBox="0 0 759 261"
    width="759px" zoomAndPan="magnify"><defs><filter height="300%" id="fw6qruoft948i" width="300%" x="-1" y="-1"><feGaussianBlur result="blurOut" stdDeviation="2.0"/><feColorMatrix in="blurOut" result="blurOut2" type="matrix" values="0 0 0 0 0 0 0 0 0 0 0 0 0 0 0 0 0 0 .4 0"/><feOffset dx="4.0" dy="4.0" in="blurOut2" result="blurOut3"/><feBlend in="SourceGraphic" in2="blurOut3" mode="normal"/></filter></defs><g><line style="stroke: #A80036; stroke-width: 1.0; stroke-dasharray: 5.0,5.0;" x1="25" x2="25" y1="89.1201" y2="249.1377"/><line style="stroke: #A80036; stroke-width: 1.0; stroke-dasharray: 5.0,5.0;" x1="164" x2="164" y1="89.1201" y2="249.1377"/><line style="stroke: #A80036; stroke-width: 1.0; stroke-dasharray: 5.0,5.0;" x1="546.5" x2="546.5" y1="89.1201" y2="249.1377"/><text fill="#000000" font-family="sans-serif" font-size="14" lengthAdjust="spacingAndGlyphs" text-decoration="underline" textLength="29" x="8" y="86.0439">User</text><line style="stroke: #000000; stroke-width: 1.0;" x1="8" x2="37" y1="88.0439" y2="88.0439"/><ellipse cx="25.5" cy="13" fill="#FEFECE" filter="url(#fw6qruoft948i)" rx="8" ry="8" style="stroke: #A80036; stroke-width: 2.0;"/><path d="M25.5,21 L25.5,48 M12.5,29 L38.5,29 M25.5,48 L12.5,63 M25.5,48 L38.5,63 " fill="none" filter="url(#fw6qruoft948i)" style="stroke: #A80036; stroke-width: 2.0;"/><rect fill="#FEFECE" filter="url(#fw6qruoft948i)" height="33.1201" style="stroke: #A80036; stroke-width: 1.5;" width="218" x="53" y="51"/><text fill="#000000" font-family="sans-serif" font-size="14" lengthAdjust="spacingAndGlyphs" text-decoration="underline" textLength="204" x="60" y="74.0439">:PreviewLocalConcertViewModel</text><line style="stroke: #000000; stroke-width: 1.0;" x1="60" x2="264" y1="76.0439" y2="76.0439"/><rect fill="#FEFECE" filter="url(#fw6qruoft948i)" height="33.1201" style="stroke: #A80036; stroke-width: 1.5;" width="177" x="456.5" y="51"/><text fill="#000000" font-family="sans-serif" font-size="14" lengthAdjust="spacingAndGlyphs" text-decoration="underline" textLength="163" x="463.5" y="74.0439">:LocalSoundSpaceLibrary</text><line style="stroke: #000000; stroke-width: 1.0;" x1="463.5" x2="626.5" y1="76.0439" y2="76.0439"/><polygon fill="#A80036" points="152,118.8745,162,122.8745,152,126.8745,156,122.8745" style="stroke: #A80036; stroke-width: 1.0;"/><line style="stroke: #A80036; stroke-width: 1.0;" x1="3" x2="158" y1="122.8745" y2="122.8745"/><text fill="#000000" font-family="sans-serif" font-size="13" lengthAdjust="spacingAndGlyphs" textLength="68" x="10" y="118.0181">&lt;&lt;create&gt;&gt;</text><polygon fill="#A80036" points="535,150.6289,545,154.6289,535,158.6289,539,154.6289" style="stroke: #A80036; stroke-width: 1.0;"/><line style="stroke: #A80036; stroke-width: 1.0;" x1="164" x2="541" y1="154.6289" y2="154.6289"/><text fill="#000000" font-family="sans-serif" font-size="13" lengthAdjust="spacingAndGlyphs" textLength="126" x="171" y="149.7725">getMetadata(VSS_ID)</text><polygon fill="#A80036" points="175,182.3833,165,186.3833,175,190.3833,171,186.3833" style="stroke: #A80036; stroke-width: 1.0;"/><line style="stroke: #A80036; stroke-width: 1.0; stroke-dasharray: 2.0,2.0;" x1="169" x2="546" y1="186.3833" y2="186.3833"/><text fill="#000000" font-family="sans-serif" font-size="13" lengthAdjust="spacingAndGlyphs" textLength="61" x="181" y="181.5269">metadatas</text><line style="stroke: #A80036; stroke-width: 1.0;" x1="164" x2="206" y1="218.1377" y2="218.1377"/><line style="stroke: #A80036; stroke-width: 1.0;" x1="206" x2="206" y1="218.1377" y2="231.1377"/><line style="stroke: #A80036; stroke-width: 1.0;" x1="165" x2="206" y1="231.1377" y2="231.1377"/><polygon fill="#A80036" points="175,227.1377,165,231.1377,175,235.1377,171,231.1377" style="stroke: #A80036; stroke-width: 1.0;"/><text fill="#000000" font-family="sans-serif" font-size="13" lengthAdjust="spacingAndGlyphs" textLength="369" x="171" y="213.2813">displayMetadata(VSSName, VSSDescription, soundSourceList)</text><path d="M552,200.8833 L552,227.8833 L747,227.8833 L747,210.8833 L737,200.8833 L552,200.8833 " fill="#FBFB77" filter="url(#fw6qruoft948i)" style="stroke: #A80036; stroke-width: 1.0;"/><path d="M737,200.8833 L737,210.8833 L747,210.8833 L737,200.8833 " fill="#FBFB77" style="stroke: #A80036; stroke-width: 1.0;"/><text fill="#000000" font-family="sans-serif" font-size="13" lengthAdjust="spacingAndGlyphs" textLength="174" x="558" y="220.7813">details are left out for designs.</text><!--
@startuml Diagrams/PreviewLocalConcertVSS
hide footbox
skinparam sequenceParticipant underline
actor User as user
participant ":PreviewLocalConcertViewModel" as viewModel
participant ":LocalSoundSpaceLibrary" as library
create viewModel
[-> viewModel: <<create>>
viewModel -> library: getMetadata(VSS_ID)
library - -> viewModel: metadatas
viewModel -> viewModel: displayMetadata(VSSName, VSSDescription, soundSourceList)

note right
details are left out for designs.
end note
@enduml

PlantUML version 1.2018.02(Sat Mar 10 01:20:44 CST 2018)
(GPL source distribution)
Java Runtime: Java(TM) SE Runtime Environment
JVM: Java HotSpot(TM) Client VM
Java Version: 1.8.0_162-b12
Operating System: Windows 10
OS Version: 10.0
Default Encoding: GBK
Language: zh
Country: CN
--></g></svg>