<?xml version="1.0" encoding="UTF-8" standalone="no"?><svg xmlns="http://www.w3.org/2000/svg" xmlns:xlink="http://www.w3.org/1999/xlink" contentScriptType="application/ecmascript" contentStyleType="text/css" height="261px" preserveAspectRatio="none" style="width:762px;height:261px;" version="1.1" viewBox="0 0 762 261"
    width="762px" zoomAndPan="magnify"><defs><filter height="300%" id="fkd9kwezky492" width="300%" x="-1" y="-1"><feGaussianBlur result="blurOut" stdDeviation="2.0"/><feColorMatrix in="blurOut" result="blurOut2" type="matrix" values="0 0 0 0 0 0 0 0 0 0 0 0 0 0 0 0 0 0 .4 0"/><feOffset dx="4.0" dy="4.0" in="blurOut2" result="blurOut3"/><feBlend in="SourceGraphic" in2="blurOut3" mode="normal"/></filter></defs><g><line style="stroke: #A80036; stroke-width: 1.0; stroke-dasharray: 5.0,5.0;" x1="25" x2="25" y1="89.1201" y2="249.1377"/><line style="stroke: #A80036; stroke-width: 1.0; stroke-dasharray: 5.0,5.0;" x1="167" x2="167" y1="89.1201" y2="249.1377"/><line style="stroke: #A80036; stroke-width: 1.0; stroke-dasharray: 5.0,5.0;" x1="550.5" x2="550.5" y1="89.1201" y2="249.1377"/><text fill="#000000" font-family="sans-serif" font-size="14" lengthAdjust="spacingAndGlyphs" text-decoration="underline" textLength="29" x="8" y="86.0439">User</text><line style="stroke: #000000; stroke-width: 1.0;" x1="8" x2="37" y1="88.0439" y2="88.0439"/><ellipse cx="25.5" cy="13" fill="#FEFECE" filter="url(#fkd9kwezky492)" rx="8" ry="8" style="stroke: #A80036; stroke-width: 2.0;"/><path d="M25.5,21 L25.5,48 M12.5,29 L38.5,29 M25.5,48 L12.5,63 M25.5,48 L38.5,63 " fill="none" filter="url(#fkd9kwezky492)" style="stroke: #A80036; stroke-width: 2.0;"/><rect fill="#FEFECE" filter="url(#fkd9kwezky492)" height="33.1201" style="stroke: #A80036; stroke-width: 1.5;" width="225" x="53" y="51"/><text fill="#000000" font-family="sans-serif" font-size="14" lengthAdjust="spacingAndGlyphs" text-decoration="underline" textLength="211" x="60" y="74.0439">:PreviewOnlineConcertViewModel</text><line style="stroke: #000000; stroke-width: 1.0;" x1="60" x2="271" y1="76.0439" y2="76.0439"/><rect fill="#FEFECE" filter="url(#fkd9kwezky492)" height="33.1201" style="stroke: #A80036; stroke-width: 1.5;" width="184" x="456.5" y="51"/><text fill="#000000" font-family="sans-serif" font-size="14" lengthAdjust="spacingAndGlyphs" text-decoration="underline" textLength="170" x="463.5" y="74.0439">:OnlineSoundSpaceLibrary</text><line style="stroke: #000000; stroke-width: 1.0;" x1="463.5" x2="633.5" y1="76.0439" y2="76.0439"/><polygon fill="#A80036" points="155.5,118.8745,165.5,122.8745,155.5,126.8745,159.5,122.8745" style="stroke: #A80036; stroke-width: 1.0;"/><line style="stroke: #A80036; stroke-width: 1.0;" x1="3" x2="161.5" y1="122.8745" y2="122.8745"/><text fill="#000000" font-family="sans-serif" font-size="13" lengthAdjust="spacingAndGlyphs" textLength="68" x="10" y="118.0181">&lt;&lt;create&gt;&gt;</text><polygon fill="#A80036" points="538.5,150.6289,548.5,154.6289,538.5,158.6289,542.5,154.6289" style="stroke: #A80036; stroke-width: 1.0;"/><line style="stroke: #A80036; stroke-width: 1.0;" x1="167.5" x2="544.5" y1="154.6289" y2="154.6289"/><text fill="#000000" font-family="sans-serif" font-size="13" lengthAdjust="spacingAndGlyphs" textLength="126" x="174.5" y="149.7725">getMetadata(VSS_ID)</text><polygon fill="#A80036" points="178.5,182.3833,168.5,186.3833,178.5,190.3833,174.5,186.3833" style="stroke: #A80036; stroke-width: 1.0;"/><line style="stroke: #A80036; stroke-width: 1.0; stroke-dasharray: 2.0,2.0;" x1="172.5" x2="549.5" y1="186.3833" y2="186.3833"/><text fill="#000000" font-family="sans-serif" font-size="13" lengthAdjust="spacingAndGlyphs" textLength="61" x="184.5" y="181.5269">metadatas</text><line style="stroke: #A80036; stroke-width: 1.0;" x1="167.5" x2="209.5" y1="218.1377" y2="218.1377"/><line style="stroke: #A80036; stroke-width: 1.0;" x1="209.5" x2="209.5" y1="218.1377" y2="231.1377"/><line style="stroke: #A80036; stroke-width: 1.0;" x1="168.5" x2="209.5" y1="231.1377" y2="231.1377"/><polygon fill="#A80036" points="178.5,227.1377,168.5,231.1377,178.5,235.1377,174.5,231.1377" style="stroke: #A80036; stroke-width: 1.0;"/><text fill="#000000" font-family="sans-serif" font-size="13" lengthAdjust="spacingAndGlyphs" textLength="369" x="174.5" y="213.2813">displayMetadata(VSSName, VSSDescription, soundSourceList)</text><path d="M555,200.8833 L555,227.8833 L750,227.8833 L750,210.8833 L740,200.8833 L555,200.8833 " fill="#FBFB77" filter="url(#fkd9kwezky492)" style="stroke: #A80036; stroke-width: 1.0;"/><path d="M740,200.8833 L740,210.8833 L750,210.8833 L740,200.8833 " fill="#FBFB77" style="stroke: #A80036; stroke-width: 1.0;"/><text fill="#000000" font-family="sans-serif" font-size="13" lengthAdjust="spacingAndGlyphs" textLength="174" x="561" y="220.7813">details are left out for designs.</text><!--
@startuml Diagrams/PreviewOnlineConcertVSS
hide footbox
skinparam sequenceParticipant underline
actor User as user

participant ":PreviewOnlineConcertViewModel" as viewModel
participant ":OnlineSoundSpaceLibrary" as library
create viewModel
[-> viewModel: <<create>>
viewModel -> library: getMetadata(VSS_ID)
library - -> viewModel: metadatas
viewModel -> viewModel: displayMetadata(VSSName, VSSDescription, soundSourceList)
note right
details are left out for designs.
end note
@enduml

PlantUML version 1.2018.02(Sat Mar 10 01:20:44 CST 2018)
(GPL source distribution)
Java Runtime: Java(TM) SE Runtime Environment
JVM: Java HotSpot(TM) Client VM
Java Version: 1.8.0_162-b12
Operating System: Windows 10
OS Version: 10.0
Default Encoding: GBK
Language: zh
Country: CN
--></g></svg>