<?xml version="1.0" encoding="UTF-8" standalone="no"?><svg xmlns="http://www.w3.org/2000/svg" xmlns:xlink="http://www.w3.org/1999/xlink" contentScriptType="application/ecmascript" contentStyleType="text/css" height="248px" preserveAspectRatio="none" style="width:802px;height:248px;" version="1.1" viewBox="0 0 802 248"
    width="802px" zoomAndPan="magnify"><defs><filter height="300%" id="fw6qruoft948i" width="300%" x="-1" y="-1"><feGaussianBlur result="blurOut" stdDeviation="2.0"/><feColorMatrix in="blurOut" result="blurOut2" type="matrix" values="0 0 0 0 0 0 0 0 0 0 0 0 0 0 0 0 0 0 .4 0"/><feOffset dx="4.0" dy="4.0" in="blurOut2" result="blurOut3"/><feBlend in="SourceGraphic" in2="blurOut3" mode="normal"/></filter></defs><g><line style="stroke: #A80036; stroke-width: 1.0; stroke-dasharray: 5.0,5.0;" x1="26" x2="26" y1="86.4883" y2="236.7305"/><line style="stroke: #A80036; stroke-width: 1.0; stroke-dasharray: 5.0,5.0;" x1="173" x2="173" y1="86.4883" y2="236.7305"/><line style="stroke: #A80036; stroke-width: 1.0; stroke-dasharray: 5.0,5.0;" x1="570.5" x2="570.5" y1="86.4883" y2="236.7305"/><text fill="#000000" font-family="sans-serif" font-size="14" lengthAdjust="spacingAndGlyphs" text-decoration="underline" textLength="31" x="8" y="83.5352">User</text><line style="stroke: #000000; stroke-width: 1.0;" x1="8" x2="39" y1="85.5352" y2="85.5352"/><ellipse cx="26.5" cy="13" fill="#FEFECE" filter="url(#fw6qruoft948i)" rx="8" ry="8" style="stroke: #A80036; stroke-width: 2.0;"/><path d="M26.5,21 L26.5,48 M13.5,29 L39.5,29 M26.5,48 L13.5,63 M26.5,48 L39.5,63 " fill="none" filter="url(#fw6qruoft948i)" style="stroke: #A80036; stroke-width: 2.0;"/><rect fill="#FEFECE" filter="url(#fw6qruoft948i)" height="30.4883" style="stroke: #A80036; stroke-width: 1.5;" width="233" x="55" y="51"/><text fill="#000000" font-family="sans-serif" font-size="14" lengthAdjust="spacingAndGlyphs" text-decoration="underline" textLength="219" x="62" y="71.5352">:PreviewLocalConcertViewModel</text><line style="stroke: #000000; stroke-width: 1.0;" x1="62" x2="281" y1="73.5352" y2="73.5352"/><rect fill="#FEFECE" filter="url(#fw6qruoft948i)" height="30.4883" style="stroke: #A80036; stroke-width: 1.5;" width="184" x="476.5" y="51"/><text fill="#000000" font-family="sans-serif" font-size="14" lengthAdjust="spacingAndGlyphs" text-decoration="underline" textLength="170" x="483.5" y="71.5352">:LocalSoundSpaceLibrary</text><line style="stroke: #000000; stroke-width: 1.0;" x1="483.5" x2="653.5" y1="73.5352" y2="73.5352"/><polygon fill="#A80036" points="161.5,113.4883,171.5,117.4883,161.5,121.4883,165.5,117.4883" style="stroke: #A80036; stroke-width: 1.0;"/><line style="stroke: #A80036; stroke-width: 1.0;" x1="3" x2="167.5" y1="117.4883" y2="117.4883"/><text fill="#000000" font-family="sans-serif" font-size="13" lengthAdjust="spacingAndGlyphs" textLength="78" x="10" y="113.0566">&lt;&lt;create&gt;&gt;</text><polygon fill="#A80036" points="558.5,142.7988,568.5,146.7988,558.5,150.7988,562.5,146.7988" style="stroke: #A80036; stroke-width: 1.0;"/><line style="stroke: #A80036; stroke-width: 1.0;" x1="173.5" x2="564.5" y1="146.7988" y2="146.7988"/><text fill="#000000" font-family="sans-serif" font-size="13" lengthAdjust="spacingAndGlyphs" textLength="128" x="180.5" y="142.3672">getMetadata(VSS_ID)</text><polygon fill="#A80036" points="184.5,172.1094,174.5,176.1094,184.5,180.1094,180.5,176.1094" style="stroke: #A80036; stroke-width: 1.0;"/><line style="stroke: #A80036; stroke-width: 1.0; stroke-dasharray: 2.0,2.0;" x1="178.5" x2="569.5" y1="176.1094" y2="176.1094"/><text fill="#000000" font-family="sans-serif" font-size="13" lengthAdjust="spacingAndGlyphs" textLength="65" x="190.5" y="171.6777">metadatas</text><line style="stroke: #A80036; stroke-width: 1.0;" x1="173.5" x2="215.5" y1="205.7305" y2="205.7305"/><line style="stroke: #A80036; stroke-width: 1.0;" x1="215.5" x2="215.5" y1="205.7305" y2="218.7305"/><line style="stroke: #A80036; stroke-width: 1.0;" x1="174.5" x2="215.5" y1="218.7305" y2="218.7305"/><polygon fill="#A80036" points="184.5,214.7305,174.5,218.7305,184.5,222.7305,180.5,218.7305" style="stroke: #A80036; stroke-width: 1.0;"/><text fill="#000000" font-family="sans-serif" font-size="13" lengthAdjust="spacingAndGlyphs" textLength="383" x="180.5" y="200.9883">displayMetadata(VSSName, VSSDescription, soundSourceList)</text><path d="M575,190.9199 L575,215.9199 L790,215.9199 L790,200.9199 L780,190.9199 L575,190.9199 " fill="#FBFB77" filter="url(#fw6qruoft948i)" style="stroke: #A80036; stroke-width: 1.0;"/><path d="M780,190.9199 L780,200.9199 L790,200.9199 L780,190.9199 " fill="#FBFB77" style="stroke: #A80036; stroke-width: 1.0;"/><text fill="#000000" font-family="sans-serif" font-size="13" lengthAdjust="spacingAndGlyphs" textLength="194" x="581" y="208.4883">details are left out for designs.</text><!--
@startuml Diagrams/PreviewLocalConcertVSS
hide footbox
skinparam sequenceParticipant underline
actor User as user
participant ":PreviewLocalConcertViewModel" as viewModel
participant ":LocalSoundSpaceLibrary" as library
create viewModel
[-> viewModel: <<create>>
viewModel -> library: getMetadata(VSS_ID)
library - -> viewModel: metadatas
viewModel -> viewModel: displayMetadata(VSSName, VSSDescription, soundSourceList)

note right
details are left out for designs.
end note
@enduml

PlantUML version 1.2018.01(Mon Jan 29 02:08:22 CST 2018)
(GPL source distribution)
Java Runtime: Java(TM) SE Runtime Environment
JVM: Java HotSpot(TM) 64-Bit Server VM
Java Version: 9+181
Operating System: Mac OS X
OS Version: 10.12.6
Default Encoding: UTF-8
Language: zh
Country: CN
--></g></svg>