<?xml version="1.0" encoding="UTF-8" standalone="no"?><svg xmlns="http://www.w3.org/2000/svg" xmlns:xlink="http://www.w3.org/1999/xlink" contentScriptType="application/ecmascript" contentStyleType="text/css" height="608px" preserveAspectRatio="none" style="width:1866px;height:608px;" version="1.1" viewBox="0 0 1866 608"
    width="1866px" zoomAndPan="magnify"><defs><filter height="300%" id="f1fghqhgix9tmh" width="300%" x="-1" y="-1"><feGaussianBlur result="blurOut" stdDeviation="2.0"/><feColorMatrix in="blurOut" result="blurOut2" type="matrix" values="0 0 0 0 0 0 0 0 0 0 0 0 0 0 0 0 0 0 .4 0"/><feOffset dx="4.0" dy="4.0" in="blurOut2" result="blurOut3"/><feBlend in="SourceGraphic" in2="blurOut3" mode="normal"/></filter></defs><g><text fill="#000000" font-family="sans-serif" font-size="14" font-weight="bold" lengthAdjust="spacingAndGlyphs" textLength="60" x="902" y="23.5352">Register</text><rect fill="#FFFFFF" filter="url(#f1fghqhgix9tmh)" height="288.0605" style="stroke: #000000; stroke-width: 2.0;" width="1617" x="13" y="291.8398"/><rect fill="#FFFFFF" height="157.5078" style="stroke: none; stroke-width: 1.0;" width="1617" x="13" y="422.3926"/><line style="stroke: #A80036; stroke-width: 1.0; stroke-dasharray: 5.0,5.0;" x1="83" x2="83" y1="116.9766" y2="596.9004"/><line style="stroke: #A80036; stroke-width: 1.0; stroke-dasharray: 5.0,5.0;" x1="552" x2="552" y1="116.9766" y2="596.9004"/><line style="stroke: #A80036; stroke-width: 1.0; stroke-dasharray: 5.0,5.0;" x1="1021" x2="1021" y1="116.9766" y2="596.9004"/><line style="stroke: #A80036; stroke-width: 1.0; stroke-dasharray: 5.0,5.0;" x1="1434" x2="1434" y1="116.9766" y2="596.9004"/><text fill="#000000" font-family="sans-serif" font-size="14" lengthAdjust="spacingAndGlyphs" text-decoration="underline" textLength="114" x="23" y="114.0234">:UserInfoControl</text><line style="stroke: #000000; stroke-width: 1.0;" x1="23" x2="137" y1="116.0234" y2="116.0234"/><ellipse cx="83" cy="43.4883" fill="#FEFECE" filter="url(#f1fghqhgix9tmh)" rx="8" ry="8" style="stroke: #A80036; stroke-width: 2.0;"/><path d="M83,51.4883 L83,78.4883 M70,59.4883 L96,59.4883 M83,78.4883 L70,93.4883 M83,78.4883 L96,93.4883 " fill="none" filter="url(#f1fghqhgix9tmh)" style="stroke: #A80036; stroke-width: 2.0;"/><rect fill="#FEFECE" filter="url(#f1fghqhgix9tmh)" height="30.4883" style="stroke: #A80036; stroke-width: 1.5;" width="120" x="490" y="81.4883"/><text fill="#000000" font-family="sans-serif" font-size="14" lengthAdjust="spacingAndGlyphs" text-decoration="underline" textLength="106" x="497" y="102.0234">:Communicator</text><line style="stroke: #000000; stroke-width: 1.0;" x1="497" x2="603" y1="104.0234" y2="104.0234"/><rect fill="#FEFECE" filter="url(#f1fghqhgix9tmh)" height="30.4883" style="stroke: #A80036; stroke-width: 1.5;" width="90" x="974" y="81.4883"/><text fill="#000000" font-family="sans-serif" font-size="14" lengthAdjust="spacingAndGlyphs" text-decoration="underline" textLength="76" x="981" y="102.0234">:WebServer</text><line style="stroke: #000000; stroke-width: 1.0;" x1="981" x2="1057" y1="104.0234" y2="104.0234"/><rect fill="#FEFECE" filter="url(#f1fghqhgix9tmh)" height="30.4883" style="stroke: #A80036; stroke-width: 1.5;" width="112" x="1376" y="81.4883"/><text fill="#000000" font-family="sans-serif" font-size="14" lengthAdjust="spacingAndGlyphs" text-decoration="underline" textLength="98" x="1383" y="102.0234">:UserDatabase</text><line style="stroke: #000000; stroke-width: 1.0;" x1="1383" x2="1481" y1="104.0234" y2="104.0234"/><polygon fill="#A80036" points="540,143.9766,550,147.9766,540,151.9766,544,147.9766" style="stroke: #A80036; stroke-width: 1.0;"/><line style="stroke: #A80036; stroke-width: 1.0;" x1="83" x2="546" y1="147.9766" y2="147.9766"/><text fill="#000000" font-family="sans-serif" font-size="13" lengthAdjust="spacingAndGlyphs" textLength="445" x="90" y="143.5449">RegisterRequest(username:String, password:String, email:String):int,int</text><polygon fill="#A80036" points="1009,173.2871,1019,177.2871,1009,181.2871,1013,177.2871" style="stroke: #A80036; stroke-width: 1.0;"/><line style="stroke: #A80036; stroke-width: 1.0;" x1="552" x2="1015" y1="177.2871" y2="177.2871"/><text fill="#000000" font-family="sans-serif" font-size="13" lengthAdjust="spacingAndGlyphs" textLength="445" x="559" y="172.8555">RegisterRequest(username:String, password:String, email:String):int,int</text><polygon fill="#A80036" points="1422,202.5977,1432,206.5977,1422,210.5977,1426,206.5977" style="stroke: #A80036; stroke-width: 1.0;"/><line style="stroke: #A80036; stroke-width: 1.0;" x1="1021" x2="1428" y1="206.5977" y2="206.5977"/><text fill="#000000" font-family="sans-serif" font-size="13" lengthAdjust="spacingAndGlyphs" textLength="389" x="1028" y="202.166">Search(username:String, password:String, email:String):int, int</text><line style="stroke: #A80036; stroke-width: 1.0;" x1="1434" x2="1476" y1="250.0293" y2="250.0293"/><line style="stroke: #A80036; stroke-width: 1.0;" x1="1476" x2="1476" y1="250.0293" y2="263.0293"/><line style="stroke: #A80036; stroke-width: 1.0;" x1="1435" x2="1476" y1="263.0293" y2="263.0293"/><polygon fill="#A80036" points="1445,259.0293,1435,263.0293,1445,267.0293,1441,263.0293" style="stroke: #A80036; stroke-width: 1.0;"/><text fill="#000000" font-family="sans-serif" font-size="13" lengthAdjust="spacingAndGlyphs" textLength="413" x="1441" y="245.2871">SearchUser(username:String, password:String, email:String):int,int</text><path d="M1076,219.9082 L1076,274.9082 L1425,274.9082 L1425,229.9082 L1415,219.9082 L1076,219.9082 " fill="#FBFB77" filter="url(#f1fghqhgix9tmh)" style="stroke: #A80036; stroke-width: 1.0;"/><path d="M1415,219.9082 L1415,229.9082 L1425,229.9082 L1415,219.9082 " fill="#FBFB77" style="stroke: #A80036; stroke-width: 1.0;"/><text fill="#000000" font-family="sans-serif" font-size="13" lengthAdjust="spacingAndGlyphs" textLength="325" x="1082" y="237.4766">根据RegisterList提供的信息在User_Table中进行查询，</text><text fill="#000000" font-family="sans-serif" font-size="13" lengthAdjust="spacingAndGlyphs" textLength="328" x="1082" y="252.7871">若已存在相同的用户名则返回-1，若已存在相同的电子邮</text><text fill="#000000" font-family="sans-serif" font-size="13" lengthAdjust="spacingAndGlyphs" textLength="211" x="1082" y="268.0977">箱地址则返回0，若均不存在则返回1</text><path d="M13,291.8398 L75,291.8398 L75,298.8398 L65,308.8398 L13,308.8398 L13,291.8398 " fill="#EEEEEE" style="stroke: #000000; stroke-width: 1.0;"/><rect fill="none" height="288.0605" style="stroke: #000000; stroke-width: 2.0;" width="1617" x="13" y="291.8398"/><text fill="#000000" font-family="sans-serif" font-size="13" font-weight="bold" lengthAdjust="spacingAndGlyphs" textLength="17" x="28" y="305.4082">alt</text><text fill="#000000" font-family="sans-serif" font-size="11" font-weight="bold" lengthAdjust="spacingAndGlyphs" textLength="35" x="90" y="304.4746">[Exist]</text><polygon fill="#A80036" points="1032,338.8057,1022,342.8057,1032,346.8057,1028,342.8057" style="stroke: #A80036; stroke-width: 1.0;"/><line style="stroke: #A80036; stroke-width: 1.0;" x1="1026" x2="1433" y1="342.8057" y2="342.8057"/><text fill="#000000" font-family="sans-serif" font-size="13" lengthAdjust="spacingAndGlyphs" textLength="72" x="1038" y="338.374">Response,0</text><path d="M753,314.1504 L753,354.1504 L1012,354.1504 L1012,324.1504 L1002,314.1504 L753,314.1504 " fill="#FBFB77" filter="url(#f1fghqhgix9tmh)" style="stroke: #A80036; stroke-width: 1.0;"/><path d="M1002,314.1504 L1002,324.1504 L1012,324.1504 L1002,314.1504 " fill="#FBFB77" style="stroke: #A80036; stroke-width: 1.0;"/><text fill="#000000" font-family="sans-serif" font-size="13" lengthAdjust="spacingAndGlyphs" textLength="238" x="759" y="331.7188">当SearchUser小于等于0的时候进入Exist</text><text fill="#000000" font-family="sans-serif" font-size="13" lengthAdjust="spacingAndGlyphs" textLength="190" x="759" y="347.0293">并利用Response传递相应的信息</text><polygon fill="#A80036" points="563,380.7715,553,384.7715,563,388.7715,559,384.7715" style="stroke: #A80036; stroke-width: 1.0;"/><line style="stroke: #A80036; stroke-width: 1.0;" x1="557" x2="1020" y1="384.7715" y2="384.7715"/><text fill="#000000" font-family="sans-serif" font-size="13" lengthAdjust="spacingAndGlyphs" textLength="72" x="569" y="380.3398">Response,0</text><polygon fill="#A80036" points="94,410.082,84,414.082,94,418.082,90,414.082" style="stroke: #A80036; stroke-width: 1.0;"/><line style="stroke: #A80036; stroke-width: 1.0;" x1="88" x2="551" y1="414.082" y2="414.082"/><text fill="#000000" font-family="sans-serif" font-size="13" lengthAdjust="spacingAndGlyphs" textLength="72" x="100" y="409.6504">Response,0</text><line style="stroke: #000000; stroke-width: 1.0; stroke-dasharray: 2.0,2.0;" x1="13" x2="1630" y1="423.3926" y2="423.3926"/><text fill="#000000" font-family="sans-serif" font-size="11" font-weight="bold" lengthAdjust="spacingAndGlyphs" textLength="54" x="18" y="434.0273">[NotExist]</text><line style="stroke: #A80036; stroke-width: 1.0;" x1="1434" x2="1476" y1="464.8135" y2="464.8135"/><line style="stroke: #A80036; stroke-width: 1.0;" x1="1476" x2="1476" y1="464.8135" y2="477.8135"/><line style="stroke: #A80036; stroke-width: 1.0;" x1="1435" x2="1476" y1="477.8135" y2="477.8135"/><polygon fill="#A80036" points="1445,473.8135,1435,477.8135,1445,481.8135,1441,477.8135" style="stroke: #A80036; stroke-width: 1.0;"/><text fill="#000000" font-family="sans-serif" font-size="13" lengthAdjust="spacingAndGlyphs" textLength="177" x="1441" y="460.0713">AddUser(RegisterList):int,int</text><path d="M1167,442.3477 L1167,482.3477 L1425,482.3477 L1425,452.3477 L1415,442.3477 L1167,442.3477 " fill="#FBFB77" filter="url(#f1fghqhgix9tmh)" style="stroke: #A80036; stroke-width: 1.0;"/><path d="M1415,442.3477 L1415,452.3477 L1425,452.3477 L1415,442.3477 " fill="#FBFB77" style="stroke: #A80036; stroke-width: 1.0;"/><text fill="#000000" font-family="sans-serif" font-size="13" lengthAdjust="spacingAndGlyphs" textLength="234" x="1173" y="459.916">根据RegisterList的内容更新User_Table</text><text fill="#000000" font-family="sans-serif" font-size="13" lengthAdjust="spacingAndGlyphs" textLength="237" x="1173" y="475.2266">并给该用户创建一个UserID传送到客户端</text><polygon fill="#A80036" points="1032,508.9688,1022,512.9688,1032,516.9688,1028,512.9688" style="stroke: #A80036; stroke-width: 1.0;"/><line style="stroke: #A80036; stroke-width: 1.0;" x1="1026" x2="1433" y1="512.9688" y2="512.9688"/><text fill="#000000" font-family="sans-serif" font-size="13" lengthAdjust="spacingAndGlyphs" textLength="58" x="1038" y="508.5371">1, UserID</text><polygon fill="#A80036" points="563,538.2793,553,542.2793,563,546.2793,559,542.2793" style="stroke: #A80036; stroke-width: 1.0;"/><line style="stroke: #A80036; stroke-width: 1.0;" x1="557" x2="1020" y1="542.2793" y2="542.2793"/><text fill="#000000" font-family="sans-serif" font-size="13" lengthAdjust="spacingAndGlyphs" textLength="58" x="569" y="537.8477">1, UserID</text><polygon fill="#A80036" points="94,567.5898,84,571.5898,94,575.5898,90,571.5898" style="stroke: #A80036; stroke-width: 1.0;"/><line style="stroke: #A80036; stroke-width: 1.0;" x1="88" x2="551" y1="571.5898" y2="571.5898"/><text fill="#000000" font-family="sans-serif" font-size="13" lengthAdjust="spacingAndGlyphs" textLength="58" x="100" y="567.1582">1, UserID</text><!--
@startuml Diagrams/RegisterServerSequence
hide footbox
skinparam sequenceParticipant underline
title Register
actor ":UserInfoControl" as Client
participant ":Communicator" as Communicator
participant ":WebServer" as WebServer
participant ":UserDatabase" as UserDatabase
Client->Communicator:RegisterRequest(username:String, password:String, email:String):int,int
Communicator->WebServer:RegisterRequest(username:String, password:String, email:String):int,int
WebServer->UserDatabase:Search(username:String, password:String, email:String):int, int
UserDatabase->UserDatabase:SearchUser(username:String, password:String, email:String):int,int
note left: 根据RegisterList提供的信息在User_Table中进行查询，\n若已存在相同的用户名则返回-1，若已存在相同的电子邮\n箱地址则返回0，若均不存在则返回1
alt Exist
  UserDatabase->WebServer:Response,0
  note left: 当SearchUser小于等于0的时候进入Exist\n并利用Response传递相应的信息
  WebServer->Communicator:Response,0
  Communicator->Client:Response,0
else NotExist
  UserDatabase->UserDatabase:AddUser(RegisterList):int,int
  note left: 根据RegisterList的内容更新User_Table\n并给该用户创建一个UserID传送到客户端
  UserDatabase->WebServer:1, UserID
  WebServer->Communicator:1, UserID
  Communicator->Client:1, UserID
end
@enduml

PlantUML version 1.2018.01(Mon Jan 29 02:08:22 CST 2018)
(GPL source distribution)
Java Runtime: Java(TM) SE Runtime Environment
JVM: Java HotSpot(TM) 64-Bit Server VM
Java Version: 9+181
Operating System: Mac OS X
OS Version: 10.12.6
Default Encoding: UTF-8
Language: zh
Country: CN
--></g></svg>