<?xml version="1.0" encoding="UTF-8" standalone="no"?><svg xmlns="http://www.w3.org/2000/svg" xmlns:xlink="http://www.w3.org/1999/xlink" contentScriptType="application/ecmascript" contentStyleType="text/css" height="666px" preserveAspectRatio="none" style="width:1400px;height:666px;" version="1.1" viewBox="0 0 1400 666"
    width="1400px" zoomAndPan="magnify"><defs><filter height="300%" id="f1757dhtoey9dg" width="300%" x="-1" y="-1"><feGaussianBlur result="blurOut" stdDeviation="2.0"/><feColorMatrix in="blurOut" result="blurOut2" type="matrix" values="0 0 0 0 0 0 0 0 0 0 0 0 0 0 0 0 0 0 .4 0"/><feOffset dx="4.0" dy="4.0" in="blurOut2" result="blurOut3"/><feBlend in="SourceGraphic" in2="blurOut3" mode="normal"/></filter></defs><g><rect fill="#FEFECE" filter="url(#f1757dhtoey9dg)" height="30.4883" style="stroke: #A80036; stroke-width: 1.5;" width="148" x="365.5" y="165.1094"/><text fill="#000000" font-family="sans-serif" font-size="14" lengthAdjust="spacingAndGlyphs" text-decoration="underline" textLength="134" x="372.5" y="185.6445">:RegisterViewModel</text><line style="stroke: #000000; stroke-width: 1.0;" x1="372.5" x2="506.5" y1="187.6445" y2="187.6445"/><rect fill="#FFFFFF" filter="url(#f1757dhtoey9dg)" height="199.8633" style="stroke: #000000; stroke-width: 2.0;" width="986.5" x="13" y="246.9082"/><rect fill="#FFFFFF" filter="url(#f1757dhtoey9dg)" height="59.6211" style="stroke: #000000; stroke-width: 2.0;" width="276" x="847.5" y="532.3926"/><rect fill="#FEFECE" filter="url(#f1757dhtoey9dg)" height="30.4883" style="stroke: #A80036; stroke-width: 1.5;" width="212" x="1146.5" y="599.0137"/><text fill="#000000" font-family="sans-serif" font-size="14" lengthAdjust="spacingAndGlyphs" text-decoration="underline" textLength="198" x="1153.5" y="619.5488">:LocalVSSManagerViewModel</text><line style="stroke: #000000; stroke-width: 1.0;" x1="1153.5" x2="1351.5" y1="621.5488" y2="621.5488"/><line style="stroke: #A80036; stroke-width: 1.0; stroke-dasharray: 5.0,5.0;" x1="41" x2="41" y1="86.4883" y2="654.502"/><line style="stroke: #A80036; stroke-width: 1.0; stroke-dasharray: 5.0,5.0;" x1="263.5" x2="263.5" y1="86.4883" y2="654.502"/><line style="stroke: #A80036; stroke-width: 1.0; stroke-dasharray: 5.0,5.0;" x1="441.5" x2="441.5" y1="197.8535" y2="654.502"/><line style="stroke: #A80036; stroke-width: 1.0; stroke-dasharray: 5.0,5.0;" x1="923.5" x2="923.5" y1="86.4883" y2="654.502"/><line style="stroke: #A80036; stroke-width: 1.0; stroke-dasharray: 5.0,5.0;" x1="1254.5" x2="1254.5" y1="631.7578" y2="654.502"/><text fill="#000000" font-family="sans-serif" font-size="14" lengthAdjust="spacingAndGlyphs" text-decoration="underline" textLength="31" x="23" y="83.5352">User</text><line style="stroke: #000000; stroke-width: 1.0;" x1="23" x2="54" y1="85.5352" y2="85.5352"/><ellipse cx="41.5" cy="13" fill="#FEFECE" filter="url(#f1757dhtoey9dg)" rx="8" ry="8" style="stroke: #A80036; stroke-width: 2.0;"/><path d="M41.5,21 L41.5,48 M28.5,29 L54.5,29 M41.5,48 L28.5,63 M41.5,48 L54.5,63 " fill="none" filter="url(#f1757dhtoey9dg)" style="stroke: #A80036; stroke-width: 2.0;"/><rect fill="#FEFECE" filter="url(#f1757dhtoey9dg)" height="30.4883" style="stroke: #A80036; stroke-width: 1.5;" width="130" x="196.5" y="51"/><text fill="#000000" font-family="sans-serif" font-size="14" lengthAdjust="spacingAndGlyphs" text-decoration="underline" textLength="116" x="203.5" y="71.5352">:LoginViewModel</text><line style="stroke: #000000; stroke-width: 1.0;" x1="203.5" x2="319.5" y1="73.5352" y2="73.5352"/><rect fill="#FEFECE" filter="url(#f1757dhtoey9dg)" height="30.4883" style="stroke: #A80036; stroke-width: 1.5;" width="128" x="857.5" y="51"/><text fill="#000000" font-family="sans-serif" font-size="14" lengthAdjust="spacingAndGlyphs" text-decoration="underline" textLength="114" x="864.5" y="71.5352">:UserInfoControl</text><line style="stroke: #000000; stroke-width: 1.0;" x1="864.5" x2="978.5" y1="73.5352" y2="73.5352"/><path d="M928,101.4883 L928,126.4883 L1388,126.4883 L1388,111.4883 L1378,101.4883 L928,101.4883 " fill="#FBFB77" filter="url(#f1757dhtoey9dg)" style="stroke: #A80036; stroke-width: 1.0;"/><path d="M1378,101.4883 L1378,111.4883 L1388,111.4883 L1378,101.4883 " fill="#FBFB77" style="stroke: #A80036; stroke-width: 1.0;"/><text fill="#000000" font-family="sans-serif" font-size="13" lengthAdjust="spacingAndGlyphs" textLength="439" x="934" y="119.0566">The UserInfoControl is activated since the start of the entire program.</text><polygon fill="#A80036" points="251.5,152.7988,261.5,156.7988,251.5,160.7988,255.5,156.7988" style="stroke: #A80036; stroke-width: 1.0;"/><line style="stroke: #A80036; stroke-width: 1.0;" x1="41.5" x2="257.5" y1="156.7988" y2="156.7988"/><text fill="#000000" font-family="sans-serif" font-size="13" lengthAdjust="spacingAndGlyphs" textLength="198" x="48.5" y="152.3672">onRegisterButtonClicked(): void</text><polygon fill="#A80036" points="353.5,182.1094,363.5,186.1094,353.5,190.1094,357.5,186.1094" style="stroke: #A80036; stroke-width: 1.0;"/><line style="stroke: #A80036; stroke-width: 1.0;" x1="263.5" x2="359.5" y1="186.1094" y2="186.1094"/><text fill="#000000" font-family="sans-serif" font-size="13" lengthAdjust="spacingAndGlyphs" textLength="78" x="270.5" y="181.6777">&lt;&lt;create&gt;&gt;</text><rect fill="#FEFECE" filter="url(#f1757dhtoey9dg)" height="30.4883" style="stroke: #A80036; stroke-width: 1.5;" width="148" x="365.5" y="165.1094"/><text fill="#000000" font-family="sans-serif" font-size="14" lengthAdjust="spacingAndGlyphs" text-decoration="underline" textLength="134" x="372.5" y="185.6445">:RegisterViewModel</text><line style="stroke: #000000; stroke-width: 1.0;" x1="372.5" x2="506.5" y1="187.6445" y2="187.6445"/><polygon fill="#A80036" points="429.5,227.5977,439.5,231.5977,429.5,235.5977,433.5,231.5977" style="stroke: #A80036; stroke-width: 1.0;"/><line style="stroke: #A80036; stroke-width: 1.0;" x1="41.5" x2="435.5" y1="231.5977" y2="231.5977"/><text fill="#000000" font-family="sans-serif" font-size="13" lengthAdjust="spacingAndGlyphs" textLength="217" x="48.5" y="227.166">onRememberButtonToggled(): void</text><path d="M13,246.9082 L87,246.9082 L87,253.9082 L77,263.9082 L13,263.9082 L13,246.9082 " fill="#EEEEEE" style="stroke: #000000; stroke-width: 1.0;"/><rect fill="none" height="199.8633" style="stroke: #000000; stroke-width: 2.0;" width="986.5" x="13" y="246.9082"/><text fill="#000000" font-family="sans-serif" font-size="13" font-weight="bold" lengthAdjust="spacingAndGlyphs" textLength="29" x="28" y="260.4766">loop</text><text fill="#000000" font-family="sans-serif" font-size="11" font-weight="bold" lengthAdjust="spacingAndGlyphs" textLength="146" x="102" y="259.543">[not finished or incorrect]</text><path d="M46,269.2188 L46,294.2188 L478,294.2188 L478,279.2188 L468,269.2188 L46,269.2188 " fill="#FBFB77" filter="url(#f1757dhtoey9dg)" style="stroke: #A80036; stroke-width: 1.0;"/><path d="M468,269.2188 L468,279.2188 L478,279.2188 L468,269.2188 " fill="#FBFB77" style="stroke: #A80036; stroke-width: 1.0;"/><text fill="#000000" font-family="sans-serif" font-size="13" lengthAdjust="spacingAndGlyphs" textLength="411" x="52" y="286.7871">the UI will give the user some reaction if the form is not finished.</text><polygon fill="#A80036" points="429.5,320.5293,439.5,324.5293,429.5,328.5293,433.5,324.5293" style="stroke: #A80036; stroke-width: 1.0;"/><line style="stroke: #A80036; stroke-width: 1.0;" x1="41.5" x2="435.5" y1="324.5293" y2="324.5293"/><text fill="#000000" font-family="sans-serif" font-size="13" lengthAdjust="spacingAndGlyphs" textLength="186" x="48.5" y="320.0977">onChangeRegisterData(): void</text><line style="stroke: #A80036; stroke-width: 1.0;" x1="441.5" x2="483.5" y1="354.1504" y2="354.1504"/><line style="stroke: #A80036; stroke-width: 1.0;" x1="483.5" x2="483.5" y1="354.1504" y2="367.1504"/><line style="stroke: #A80036; stroke-width: 1.0;" x1="442.5" x2="483.5" y1="367.1504" y2="367.1504"/><polygon fill="#A80036" points="452.5,363.1504,442.5,367.1504,452.5,371.1504,448.5,367.1504" style="stroke: #A80036; stroke-width: 1.0;"/><text fill="#000000" font-family="sans-serif" font-size="13" lengthAdjust="spacingAndGlyphs" textLength="179" x="448.5" y="349.4082">checkInputLegitimate(): void</text><line style="stroke: #A80036; stroke-width: 1.0;" x1="441.5" x2="483.5" y1="396.4609" y2="396.4609"/><line style="stroke: #A80036; stroke-width: 1.0;" x1="483.5" x2="483.5" y1="396.4609" y2="409.4609"/><line style="stroke: #A80036; stroke-width: 1.0;" x1="442.5" x2="483.5" y1="409.4609" y2="409.4609"/><polygon fill="#A80036" points="452.5,405.4609,442.5,409.4609,452.5,413.4609,448.5,409.4609" style="stroke: #A80036; stroke-width: 1.0;"/><text fill="#000000" font-family="sans-serif" font-size="13" lengthAdjust="spacingAndGlyphs" textLength="182" x="448.5" y="391.7188">checkPasswordStrength(): int</text><polygon fill="#A80036" points="911.5,434.4609,921.5,438.4609,911.5,442.4609,915.5,438.4609" style="stroke: #A80036; stroke-width: 1.0;"/><line style="stroke: #A80036; stroke-width: 1.0;" x1="441.5" x2="917.5" y1="438.4609" y2="438.4609"/><text fill="#000000" font-family="sans-serif" font-size="13" lengthAdjust="spacingAndGlyphs" textLength="196" x="448.5" y="434.0293">isUsernameAvailable(): boolean</text><polygon fill="#A80036" points="911.5,470.7715,921.5,474.7715,911.5,478.7715,915.5,474.7715" style="stroke: #A80036; stroke-width: 1.0;"/><line style="stroke: #A80036; stroke-width: 1.0;" x1="441.5" x2="917.5" y1="474.7715" y2="474.7715"/><text fill="#000000" font-family="sans-serif" font-size="13" lengthAdjust="spacingAndGlyphs" textLength="458" x="448.5" y="470.3398">signUp(username: String, password: String, remember: boolean): boolean</text><line style="stroke: #A80036; stroke-width: 1.0;" x1="923.5" x2="965.5" y1="504.3926" y2="504.3926"/><line style="stroke: #A80036; stroke-width: 1.0;" x1="965.5" x2="965.5" y1="504.3926" y2="517.3926"/><line style="stroke: #A80036; stroke-width: 1.0;" x1="924.5" x2="965.5" y1="517.3926" y2="517.3926"/><polygon fill="#A80036" points="934.5,513.3926,924.5,517.3926,934.5,521.3926,930.5,517.3926" style="stroke: #A80036; stroke-width: 1.0;"/><text fill="#000000" font-family="sans-serif" font-size="13" lengthAdjust="spacingAndGlyphs" textLength="317" x="930.5" y="499.6504">setCurrentUser(userID: int, username: String): void</text><path d="M847.5,532.3926 L909.5,532.3926 L909.5,539.3926 L899.5,549.3926 L847.5,549.3926 L847.5,532.3926 " fill="#EEEEEE" style="stroke: #000000; stroke-width: 1.0;"/><rect fill="none" height="59.6211" style="stroke: #000000; stroke-width: 2.0;" width="276" x="847.5" y="532.3926"/><text fill="#000000" font-family="sans-serif" font-size="13" font-weight="bold" lengthAdjust="spacingAndGlyphs" textLength="17" x="862.5" y="545.9609">alt</text><text fill="#000000" font-family="sans-serif" font-size="11" font-weight="bold" lengthAdjust="spacingAndGlyphs" textLength="135" x="924.5" y="545.0273">[remember me selected]</text><line style="stroke: #A80036; stroke-width: 1.0;" x1="923.5" x2="965.5" y1="571.0137" y2="571.0137"/><line style="stroke: #A80036; stroke-width: 1.0;" x1="965.5" x2="965.5" y1="571.0137" y2="584.0137"/><line style="stroke: #A80036; stroke-width: 1.0;" x1="924.5" x2="965.5" y1="584.0137" y2="584.0137"/><polygon fill="#A80036" points="934.5,580.0137,924.5,584.0137,934.5,588.0137,930.5,584.0137" style="stroke: #A80036; stroke-width: 1.0;"/><text fill="#000000" font-family="sans-serif" font-size="13" lengthAdjust="spacingAndGlyphs" textLength="181" x="930.5" y="566.2715">rememberCurrentUser(): void</text><polygon fill="#A80036" points="1134.5,616.0137,1144.5,620.0137,1134.5,624.0137,1138.5,620.0137" style="stroke: #A80036; stroke-width: 1.0;"/><line style="stroke: #A80036; stroke-width: 1.0;" x1="923.5" x2="1140.5" y1="620.0137" y2="620.0137"/><text fill="#000000" font-family="sans-serif" font-size="13" lengthAdjust="spacingAndGlyphs" textLength="78" x="930.5" y="615.582">&lt;&lt;create&gt;&gt;</text><rect fill="#FEFECE" filter="url(#f1757dhtoey9dg)" height="30.4883" style="stroke: #A80036; stroke-width: 1.5;" width="212" x="1146.5" y="599.0137"/><text fill="#000000" font-family="sans-serif" font-size="14" lengthAdjust="spacingAndGlyphs" text-decoration="underline" textLength="198" x="1153.5" y="619.5488">:LocalVSSManagerViewModel</text><line style="stroke: #000000; stroke-width: 1.0;" x1="1153.5" x2="1351.5" y1="621.5488" y2="621.5488"/><!--
@startuml Diagrams/Register
hide footbox
skinparam sequenceParticipant underline

actor User as user
participant ":LoginViewModel" as loginpage
participant ":RegisterViewModel" as boundary
participant ":UserInfoControl" as control
participant ":LocalVSSManagerViewModel" as nextpage

note right of control: The UserInfoControl is activated since the start of the entire program.

user -> loginpage: onRegisterButtonClicked(): void

create boundary
loginpage -> boundary: <<create>>

user -> boundary: onRememberButtonToggled(): void
loop not finished or incorrect
    note right of user
        the UI will give the user some reaction if the form is not finished.
    end note
    user -> boundary: onChangeRegisterData(): void
    boundary -> boundary: checkInputLegitimate(): void
    boundary -> boundary: checkPasswordStrength(): int
    boundary -> control: isUsernameAvailable(): boolean
end

boundary -> control: signUp(username: String, password: String, remember: boolean): boolean

control -> control: setCurrentUser(userID: int, username: String): void
alt remember me selected
    control -> control: rememberCurrentUser(): void
end
create nextpage
control -> nextpage: <<create>>
@enduml

PlantUML version 1.2018.01(Mon Jan 29 02:08:22 CST 2018)
(GPL source distribution)
Java Runtime: Java(TM) SE Runtime Environment
JVM: Java HotSpot(TM) 64-Bit Server VM
Java Version: 9+181
Operating System: Mac OS X
OS Version: 10.12.6
Default Encoding: UTF-8
Language: zh
Country: CN
--></g></svg>