<?xml version="1.0" encoding="UTF-8" standalone="no"?><svg xmlns="http://www.w3.org/2000/svg" xmlns:xlink="http://www.w3.org/1999/xlink" contentScriptType="application/ecmascript" contentStyleType="text/css" height="530px" preserveAspectRatio="none" style="width:976px;height:530px;" version="1.1" viewBox="0 0 976 530"
    width="976px" zoomAndPan="magnify"><defs><filter height="300%" id="f1imrzvwed49b5" width="300%" x="-1" y="-1"><feGaussianBlur result="blurOut" stdDeviation="2.0"/><feColorMatrix in="blurOut" result="blurOut2" type="matrix" values="0 0 0 0 0 0 0 0 0 0 0 0 0 0 0 0 0 0 .4 0"/><feOffset dx="4.0" dy="4.0" in="blurOut2" result="blurOut3"/><feBlend in="SourceGraphic" in2="blurOut3" mode="normal"/></filter></defs><g><rect fill="#FFFFFF" filter="url(#f1imrzvwed49b5)" height="159.7949" style="stroke: #000000; stroke-width: 2.0;" width="952.5" x="13" y="277.8921"/><line style="stroke: #A80036; stroke-width: 1.0; stroke-dasharray: 5.0,5.0;" x1="40" x2="40" y1="89.1201" y2="518.1958"/><line style="stroke: #A80036; stroke-width: 1.0; stroke-dasharray: 5.0,5.0;" x1="212" x2="212" y1="89.1201" y2="518.1958"/><line style="stroke: #A80036; stroke-width: 1.0; stroke-dasharray: 5.0,5.0;" x1="535" x2="535" y1="89.1201" y2="518.1958"/><text fill="#000000" font-family="sans-serif" font-size="14" lengthAdjust="spacingAndGlyphs" text-decoration="underline" textLength="29" x="23" y="86.0439">User</text><line style="stroke: #000000; stroke-width: 1.0;" x1="23" x2="52" y1="88.0439" y2="88.0439"/><ellipse cx="40.5" cy="13" fill="#FEFECE" filter="url(#f1imrzvwed49b5)" rx="8" ry="8" style="stroke: #A80036; stroke-width: 2.0;"/><path d="M40.5,21 L40.5,48 M27.5,29 L53.5,29 M40.5,48 L27.5,63 M40.5,48 L53.5,63 " fill="none" filter="url(#f1imrzvwed49b5)" style="stroke: #A80036; stroke-width: 2.0;"/><rect fill="#FEFECE" filter="url(#f1imrzvwed49b5)" height="33.1201" style="stroke: #A80036; stroke-width: 1.5;" width="165" x="128" y="51"/><text fill="#000000" font-family="sans-serif" font-size="14" lengthAdjust="spacingAndGlyphs" text-decoration="underline" textLength="151" x="135" y="74.0439">:RenameVSSViewModel</text><line style="stroke: #000000; stroke-width: 1.0;" x1="135" x2="286" y1="76.0439" y2="76.0439"/><rect fill="#FEFECE" filter="url(#f1imrzvwed49b5)" height="33.1201" style="stroke: #A80036; stroke-width: 1.5;" width="177" x="445" y="51"/><text fill="#000000" font-family="sans-serif" font-size="14" lengthAdjust="spacingAndGlyphs" text-decoration="underline" textLength="163" x="452" y="74.0439">:LocalSoundSpaceLibrary</text><line style="stroke: #000000; stroke-width: 1.0;" x1="452" x2="615" y1="76.0439" y2="76.0439"/><polygon fill="#A80036" points="200.5,118.8745,210.5,122.8745,200.5,126.8745,204.5,122.8745" style="stroke: #A80036; stroke-width: 1.0;"/><line style="stroke: #A80036; stroke-width: 1.0;" x1="3" x2="206.5" y1="122.8745" y2="122.8745"/><text fill="#000000" font-family="sans-serif" font-size="13" lengthAdjust="spacingAndGlyphs" textLength="68" x="10" y="118.0181">&lt;&lt;create&gt;&gt;</text><polygon fill="#A80036" points="200.5,150.6289,210.5,154.6289,200.5,158.6289,204.5,154.6289" style="stroke: #A80036; stroke-width: 1.0;"/><line style="stroke: #A80036; stroke-width: 1.0;" x1="40.5" x2="206.5" y1="154.6289" y2="154.6289"/><text fill="#000000" font-family="sans-serif" font-size="13" lengthAdjust="spacingAndGlyphs" textLength="148" x="47.5" y="149.7725">onRenameDataChanged()</text><polygon fill="#A80036" points="200.5,182.3833,210.5,186.3833,200.5,190.3833,204.5,186.3833" style="stroke: #A80036; stroke-width: 1.0;"/><line style="stroke: #A80036; stroke-width: 1.0;" x1="40.5" x2="206.5" y1="186.3833" y2="186.3833"/><text fill="#000000" font-family="sans-serif" font-size="13" lengthAdjust="spacingAndGlyphs" textLength="131" x="47.5" y="181.5269">onSaveButtonClicked()</text><polygon fill="#A80036" points="523.5,214.1377,533.5,218.1377,523.5,222.1377,527.5,218.1377" style="stroke: #A80036; stroke-width: 1.0;"/><line style="stroke: #A80036; stroke-width: 1.0;" x1="212.5" x2="529.5" y1="218.1377" y2="218.1377"/><text fill="#000000" font-family="sans-serif" font-size="13" lengthAdjust="spacingAndGlyphs" textLength="299" x="219.5" y="213.2813">renameVSS(whichVSS, newName, newDescription)</text><line style="stroke: #A80036; stroke-width: 1.0;" x1="535.5" x2="577.5" y1="249.8921" y2="249.8921"/><line style="stroke: #A80036; stroke-width: 1.0;" x1="577.5" x2="577.5" y1="249.8921" y2="262.8921"/><line style="stroke: #A80036; stroke-width: 1.0;" x1="536.5" x2="577.5" y1="262.8921" y2="262.8921"/><polygon fill="#A80036" points="546.5,258.8921,536.5,262.8921,546.5,266.8921,542.5,262.8921" style="stroke: #A80036; stroke-width: 1.0;"/><text fill="#000000" font-family="sans-serif" font-size="13" lengthAdjust="spacingAndGlyphs" textLength="411" x="542.5" y="245.0356">checkNewNameAndDescription(whichVSS, newName, newDescription)</text><path d="M13,277.8921 L86,277.8921 L86,286.8921 L76,296.8921 L13,296.8921 L13,277.8921 " fill="#EEEEEE" style="stroke: #000000; stroke-width: 1.0;"/><rect fill="none" height="159.7949" style="stroke: #000000; stroke-width: 2.0;" width="952.5" x="13" y="277.8921"/><text fill="#000000" font-family="sans-serif" font-size="13" font-weight="bold" lengthAdjust="spacingAndGlyphs" textLength="28" x="28" y="293.79">loop</text><text fill="#000000" font-family="sans-serif" font-size="11" font-weight="bold" lengthAdjust="spacingAndGlyphs" textLength="75" x="101" y="292.498">[wrong input]</text><polygon fill="#A80036" points="223.5,317.4238,213.5,321.4238,223.5,325.4238,219.5,321.4238" style="stroke: #A80036; stroke-width: 1.0;"/><line style="stroke: #A80036; stroke-width: 1.0;" x1="217.5" x2="534.5" y1="321.4238" y2="321.4238"/><text fill="#000000" font-family="sans-serif" font-size="13" lengthAdjust="spacingAndGlyphs" textLength="97" x="229.5" y="316.5674">notifyWrongInput</text><polygon fill="#A80036" points="200.5,349.1782,210.5,353.1782,200.5,357.1782,204.5,353.1782" style="stroke: #A80036; stroke-width: 1.0;"/><line style="stroke: #A80036; stroke-width: 1.0;" x1="40.5" x2="206.5" y1="353.1782" y2="353.1782"/><text fill="#000000" font-family="sans-serif" font-size="13" lengthAdjust="spacingAndGlyphs" textLength="148" x="47.5" y="348.3218">onRenameDataChanged()</text><polygon fill="#A80036" points="200.5,380.9326,210.5,384.9326,200.5,388.9326,204.5,384.9326" style="stroke: #A80036; stroke-width: 1.0;"/><line style="stroke: #A80036; stroke-width: 1.0;" x1="40.5" x2="206.5" y1="384.9326" y2="384.9326"/><text fill="#000000" font-family="sans-serif" font-size="13" lengthAdjust="spacingAndGlyphs" textLength="131" x="47.5" y="380.0762">onSaveButtonClicked()</text><line style="stroke: #A80036; stroke-width: 1.0;" x1="535.5" x2="577.5" y1="416.687" y2="416.687"/><line style="stroke: #A80036; stroke-width: 1.0;" x1="577.5" x2="577.5" y1="416.687" y2="429.687"/><line style="stroke: #A80036; stroke-width: 1.0;" x1="536.5" x2="577.5" y1="429.687" y2="429.687"/><polygon fill="#A80036" points="546.5,425.687,536.5,429.687,546.5,433.687,542.5,429.687" style="stroke: #A80036; stroke-width: 1.0;"/><text fill="#000000" font-family="sans-serif" font-size="13" lengthAdjust="spacingAndGlyphs" textLength="411" x="542.5" y="411.8306">checkNewNameAndDescription(whichVSS, newName, newDescription)</text><polygon fill="#A80036" points="223.5,464.4414,213.5,468.4414,223.5,472.4414,219.5,468.4414" style="stroke: #A80036; stroke-width: 1.0;"/><line style="stroke: #A80036; stroke-width: 1.0;" x1="217.5" x2="534.5" y1="468.4414" y2="468.4414"/><text fill="#000000" font-family="sans-serif" font-size="13" lengthAdjust="spacingAndGlyphs" textLength="88" x="229.5" y="463.585">notifyValidInput</text><polygon fill="#A80036" points="223.5,496.1958,213.5,500.1958,223.5,504.1958,219.5,500.1958" style="stroke: #A80036; stroke-width: 1.0;"/><line style="stroke: #A80036; stroke-width: 1.0;" x1="217.5" x2="534.5" y1="500.1958" y2="500.1958"/><text fill="#000000" font-family="sans-serif" font-size="13" lengthAdjust="spacingAndGlyphs" textLength="75" x="229.5" y="495.3394">&lt;&lt;destroy&gt;&gt;</text><line style="stroke: #A80036; stroke-width: 2.0;" x1="203.5" x2="221.5" y1="491.1958" y2="509.1958"/><line style="stroke: #A80036; stroke-width: 2.0;" x1="203.5" x2="221.5" y1="509.1958" y2="491.1958"/><!--
@startuml Diagrams/RenameVSS
hide footbox
skinparam sequenceParticipant underline

actor User as user
participant ":RenameVSSViewModel" as viewModel
participant ":LocalSoundSpaceLibrary" as library

-> viewModel: <<create>>
user -> viewModel: onRenameDataChanged()
user -> viewModel: onSaveButtonClicked()
viewModel -> library: renameVSS(whichVSS, newName, newDescription)
library -> library: checkNewNameAndDescription(whichVSS, newName, newDescription)
loop wrong input
    library -> viewModel: notifyWrongInput
    user -> viewModel: onRenameDataChanged()
    user -> viewModel: onSaveButtonClicked()
    library -> library: checkNewNameAndDescription(whichVSS, newName, newDescription)
end
    library -> viewModel: notifyValidInput
    library -> viewModel: <<destroy>>
    destroy viewModel


@enduml

PlantUML version 1.2018.02(Sat Mar 10 01:20:44 CST 2018)
(GPL source distribution)
Java Runtime: Java(TM) SE Runtime Environment
JVM: Java HotSpot(TM) Client VM
Java Version: 1.8.0_162-b12
Operating System: Windows 10
OS Version: 10.0
Default Encoding: GBK
Language: zh
Country: CN
--></g></svg>