<?xml version="1.0" encoding="UTF-8" standalone="no"?><svg xmlns="http://www.w3.org/2000/svg" xmlns:xlink="http://www.w3.org/1999/xlink" contentScriptType="application/ecmascript" contentStyleType="text/css" height="379px" preserveAspectRatio="none" style="width:876px;height:379px;" version="1.1" viewBox="0 0 876 379"
    width="876px" zoomAndPan="magnify"><defs><filter height="300%" id="f1lbbar018vb7c" width="300%" x="-1" y="-1"><feGaussianBlur result="blurOut" stdDeviation="2.0"/><feColorMatrix in="blurOut" result="blurOut2" type="matrix" values="0 0 0 0 0 0 0 0 0 0 0 0 0 0 0 0 0 0 .4 0"/><feOffset dx="4.0" dy="4.0" in="blurOut2" result="blurOut3"/><feBlend in="SourceGraphic" in2="blurOut3" mode="normal"/></filter></defs><g><rect fill="#FFFFFF" filter="url(#f1lbbar018vb7c)" height="103.8867" style="stroke: #000000; stroke-width: 2.0;" width="684" x="180.5" y="246.7305"/><rect fill="#FFFFFF" height="44.2656" style="stroke: none; stroke-width: 1.0;" width="684" x="180.5" y="306.3516"/><line style="stroke: #A80036; stroke-width: 1.0; stroke-dasharray: 5.0,5.0;" x1="26" x2="26" y1="86.4883" y2="367.6172"/><line style="stroke: #A80036; stroke-width: 1.0; stroke-dasharray: 5.0,5.0;" x1="298.5" x2="298.5" y1="86.4883" y2="367.6172"/><line style="stroke: #A80036; stroke-width: 1.0; stroke-dasharray: 5.0,5.0;" x1="760.5" x2="760.5" y1="86.4883" y2="367.6172"/><text fill="#000000" font-family="sans-serif" font-size="14" lengthAdjust="spacingAndGlyphs" text-decoration="underline" textLength="31" x="8" y="83.5352">User</text><line style="stroke: #000000; stroke-width: 1.0;" x1="8" x2="39" y1="85.5352" y2="85.5352"/><ellipse cx="26.5" cy="13" fill="#FEFECE" filter="url(#f1lbbar018vb7c)" rx="8" ry="8" style="stroke: #A80036; stroke-width: 2.0;"/><path d="M26.5,21 L26.5,48 M13.5,29 L39.5,29 M26.5,48 L13.5,63 M26.5,48 L39.5,63 " fill="none" filter="url(#f1lbbar018vb7c)" style="stroke: #A80036; stroke-width: 2.0;"/><rect fill="#FEFECE" filter="url(#f1lbbar018vb7c)" height="30.4883" style="stroke: #A80036; stroke-width: 1.5;" width="212" x="190.5" y="51"/><text fill="#000000" font-family="sans-serif" font-size="14" lengthAdjust="spacingAndGlyphs" text-decoration="underline" textLength="198" x="197.5" y="71.5352">:LocalVSSManagerViewModel</text><line style="stroke: #000000; stroke-width: 1.0;" x1="197.5" x2="395.5" y1="73.5352" y2="73.5352"/><rect fill="#FEFECE" filter="url(#f1lbbar018vb7c)" height="30.4883" style="stroke: #A80036; stroke-width: 1.5;" width="184" x="666.5" y="51"/><text fill="#000000" font-family="sans-serif" font-size="14" lengthAdjust="spacingAndGlyphs" text-decoration="underline" textLength="170" x="673.5" y="71.5352">:LocalSoundSpaceLibrary</text><line style="stroke: #000000; stroke-width: 1.0;" x1="673.5" x2="843.5" y1="73.5352" y2="73.5352"/><polygon fill="#A80036" points="286.5,113.7988,296.5,117.7988,286.5,121.7988,290.5,117.7988" style="stroke: #A80036; stroke-width: 1.0;"/><line style="stroke: #A80036; stroke-width: 1.0;" x1="26.5" x2="292.5" y1="117.7988" y2="117.7988"/><text fill="#000000" font-family="sans-serif" font-size="13" lengthAdjust="spacingAndGlyphs" textLength="68" x="33.5" y="113.0566">renameVSS</text><polygon fill="#A80036" points="286.5,143.1094,296.5,147.1094,286.5,151.1094,290.5,147.1094" style="stroke: #A80036; stroke-width: 1.0;"/><line style="stroke: #A80036; stroke-width: 1.0;" x1="26.5" x2="292.5" y1="147.1094" y2="147.1094"/><text fill="#000000" font-family="sans-serif" font-size="13" lengthAdjust="spacingAndGlyphs" textLength="248" x="33.5" y="142.3672">enterNewLocalVSSNameAndDescription</text><line style="stroke: #A80036; stroke-width: 1.0;" x1="298.5" x2="340.5" y1="176.4199" y2="176.4199"/><line style="stroke: #A80036; stroke-width: 1.0;" x1="340.5" x2="340.5" y1="176.4199" y2="189.4199"/><line style="stroke: #A80036; stroke-width: 1.0;" x1="299.5" x2="340.5" y1="189.4199" y2="189.4199"/><polygon fill="#A80036" points="309.5,185.4199,299.5,189.4199,309.5,193.4199,305.5,189.4199" style="stroke: #A80036; stroke-width: 1.0;"/><text fill="#000000" font-family="sans-serif" font-size="13" lengthAdjust="spacingAndGlyphs" textLength="448" x="305.5" y="171.6777">newNameAndDescriptionEntered(whichVSS, newName, newDescription)</text><line style="stroke: #A80036; stroke-width: 1.0;" x1="298.5" x2="340.5" y1="218.7305" y2="218.7305"/><line style="stroke: #A80036; stroke-width: 1.0;" x1="340.5" x2="340.5" y1="218.7305" y2="231.7305"/><line style="stroke: #A80036; stroke-width: 1.0;" x1="299.5" x2="340.5" y1="231.7305" y2="231.7305"/><polygon fill="#A80036" points="309.5,227.7305,299.5,231.7305,309.5,235.7305,305.5,231.7305" style="stroke: #A80036; stroke-width: 1.0;"/><text fill="#000000" font-family="sans-serif" font-size="13" lengthAdjust="spacingAndGlyphs" textLength="198" x="305.5" y="213.9883">checkNewNameAndDescription</text><path d="M180.5,246.7305 L242.5,246.7305 L242.5,253.7305 L232.5,263.7305 L180.5,263.7305 L180.5,246.7305 " fill="#EEEEEE" style="stroke: #000000; stroke-width: 1.0;"/><rect fill="none" height="103.8867" style="stroke: #000000; stroke-width: 2.0;" width="684" x="180.5" y="246.7305"/><text fill="#000000" font-family="sans-serif" font-size="13" font-weight="bold" lengthAdjust="spacingAndGlyphs" textLength="17" x="195.5" y="260.2988">alt</text><text fill="#000000" font-family="sans-serif" font-size="11" font-weight="bold" lengthAdjust="spacingAndGlyphs" textLength="76" x="257.5" y="259.3652">[wrong input]</text><line style="stroke: #A80036; stroke-width: 1.0;" x1="298.5" x2="340.5" y1="285.3516" y2="285.3516"/><line style="stroke: #A80036; stroke-width: 1.0;" x1="340.5" x2="340.5" y1="285.3516" y2="298.3516"/><line style="stroke: #A80036; stroke-width: 1.0;" x1="299.5" x2="340.5" y1="298.3516" y2="298.3516"/><polygon fill="#A80036" points="309.5,294.3516,299.5,298.3516,309.5,302.3516,305.5,298.3516" style="stroke: #A80036; stroke-width: 1.0;"/><text fill="#000000" font-family="sans-serif" font-size="13" lengthAdjust="spacingAndGlyphs" textLength="110" x="305.5" y="280.6094">notifyWrongInput</text><line style="stroke: #000000; stroke-width: 1.0; stroke-dasharray: 2.0,2.0;" x1="180.5" x2="864.5" y1="307.3516" y2="307.3516"/><text fill="#000000" font-family="sans-serif" font-size="11" font-weight="bold" lengthAdjust="spacingAndGlyphs" textLength="69" x="185.5" y="317.9863">[good input]</text><polygon fill="#A80036" points="748.5,338.6172,758.5,342.6172,748.5,346.6172,752.5,342.6172" style="stroke: #A80036; stroke-width: 1.0;"/><line style="stroke: #A80036; stroke-width: 1.0;" x1="298.5" x2="754.5" y1="342.6172" y2="342.6172"/><text fill="#000000" font-family="sans-serif" font-size="13" lengthAdjust="spacingAndGlyphs" textLength="395" x="305.5" y="337.875">setNameAndDescription(whichVSS, newName, newDescription)</text><!--
@startuml Diagrams/RenameVSS
hide footbox
skinparam sequenceParticipant underline

actor User as user
participant ":LocalVSSManagerViewModel" as page
participant ":LocalSoundSpaceLibrary" as library

user -> page: renameVSS
user -> page: enterNewLocalVSSNameAndDescription
page -> page: newNameAndDescriptionEntered(whichVSS, newName, newDescription)
page -> page: checkNewNameAndDescription
alt wrong input
    page -> page: notifyWrongInput
else good input
    page -> library: setNameAndDescription(whichVSS, newName, newDescription)
end

@enduml

PlantUML version 1.2018.02(Sat Mar 10 01:20:44 CST 2018)
(GPL source distribution)
Java Runtime: Java(TM) SE Runtime Environment
JVM: Java HotSpot(TM) 64-Bit Server VM
Java Version: 1.8.0_151-b12
Operating System: Mac OS X
OS Version: 10.11.6
Default Encoding: UTF-8
Language: zh
Country: CN
--></g></svg>
