<?xml version="1.0" encoding="UTF-8" standalone="no"?><svg xmlns="http://www.w3.org/2000/svg" xmlns:xlink="http://www.w3.org/1999/xlink" contentScriptType="application/ecmascript" contentStyleType="text/css" height="107px" preserveAspectRatio="none" style="width:199px;height:107px;" version="1.1" viewBox="0 0 199 107"
    width="199px" zoomAndPan="magnify"><defs/><g><text fill="#000000" font-family="sans-serif" font-size="12" lengthAdjust="spacingAndGlyphs" textLength="74" x="6" y="19.752">Rename VSS</text><line style="stroke: #AAAAAA; stroke-width: 1.0;" x1="6" x2="192" y1="26.8887" y2="26.8887"/><line style="stroke: #AAAAAA; stroke-width: 1.0;" x1="6" x2="192" y1="28.8887" y2="28.8887"/><text fill="#000000" font-family="sans-serif" font-size="12" lengthAdjust="spacingAndGlyphs" textLength="34" x="7" y="47.1406">Name</text><text fill="#000000" font-family="sans-serif" font-size="12" lengthAdjust="spacingAndGlyphs" textLength="57" x="75" y="47.1406">newName</text><line style="stroke: #000000; stroke-width: 1.0;" x1="73" x2="156" y1="49.7773" y2="49.7773"/><line style="stroke: #000000; stroke-width: 1.0;" x1="73" x2="73" y1="46.7773" y2="48.7773"/><line style="stroke: #000000; stroke-width: 1.0;" x1="156" x2="156" y1="46.7773" y2="48.7773"/><text fill="#000000" font-family="sans-serif" font-size="12" lengthAdjust="spacingAndGlyphs" textLength="63" x="7" y="67.5293">Description</text><text fill="#000000" font-family="sans-serif" font-size="12" lengthAdjust="spacingAndGlyphs" textLength="86" x="75" y="67.5293">newDescription</text><line style="stroke: #000000; stroke-width: 1.0;" x1="73" x2="188" y1="70.166" y2="70.166"/><line style="stroke: #000000; stroke-width: 1.0;" x1="73" x2="73" y1="67.166" y2="69.166"/><line style="stroke: #000000; stroke-width: 1.0;" x1="188" x2="188" y1="67.166" y2="69.166"/><rect fill="#EEEEEE" height="20.3887" rx="5" ry="5" style="stroke: #000000; stroke-width: 2.5;" width="52" x="9.5" y="76.666"/><text fill="#000000" font-family="sans-serif" font-size="12" lengthAdjust="spacingAndGlyphs" textLength="39" x="16" y="92.418">Cancel</text><rect fill="#EEEEEE" height="20.3887" rx="5" ry="5" style="stroke: #000000; stroke-width: 2.5;" width="36" x="74.5" y="76.666"/><text fill="#000000" font-family="sans-serif" font-size="12" lengthAdjust="spacingAndGlyphs" textLength="27" x="79" y="92.418">Save</text><line style="stroke: #000000; stroke-width: 1.0;" x1="6" x2="71" y1="32.3887" y2="32.3887"/><line style="stroke: #000000; stroke-width: 1.0;" x1="71" x2="191" y1="32.3887" y2="32.3887"/><line style="stroke: #000000; stroke-width: 1.0;" x1="6" x2="71" y1="100.5547" y2="100.5547"/><line style="stroke: #000000; stroke-width: 1.0;" x1="71" x2="191" y1="100.5547" y2="100.5547"/><line style="stroke: #000000; stroke-width: 1.0;" x1="6" x2="6" y1="32.3887" y2="52.7773"/><line style="stroke: #000000; stroke-width: 1.0;" x1="191" x2="191" y1="73.166" y2="100.5547"/><line style="stroke: #000000; stroke-width: 1.0;" x1="191" x2="191" y1="52.7773" y2="73.166"/><line style="stroke: #000000; stroke-width: 1.0;" x1="191" x2="191" y1="32.3887" y2="52.7773"/><line style="stroke: #000000; stroke-width: 1.0;" x1="6" x2="6" y1="73.166" y2="100.5547"/><line style="stroke: #000000; stroke-width: 1.0;" x1="6" x2="6" y1="52.7773" y2="73.166"/></g></svg>