<?xml version="1.0" encoding="UTF-8" standalone="no"?><svg xmlns="http://www.w3.org/2000/svg" xmlns:xlink="http://www.w3.org/1999/xlink" contentScriptType="application/ecmascript" contentStyleType="text/css" height="525px" preserveAspectRatio="none" style="width:819px;height:525px;" version="1.1" viewBox="0 0 819 525"
    width="819px" zoomAndPan="magnify"><defs><filter height="300%" id="fuq2fgf0wqocr" width="300%" x="-1" y="-1"><feGaussianBlur result="blurOut" stdDeviation="2.0"/><feColorMatrix in="blurOut" result="blurOut2" type="matrix" values="0 0 0 0 0 0 0 0 0 0 0 0 0 0 0 0 0 0 .4 0"/><feOffset dx="4.0" dy="4.0" in="blurOut2" result="blurOut3"/><feBlend in="SourceGraphic" in2="blurOut3" mode="normal"/></filter></defs><g><!--entity WA--><ellipse cx="697.5" cy="379" fill="#FEFECE" filter="url(#fuq2fgf0wqocr)" rx="8" ry="8" style="stroke: #A80036; stroke-width: 2.0;"/><text fill="#000000" font-family="sans-serif" font-size="14" lengthAdjust="spacingAndGlyphs" textLength="75" x="660" y="409.5352">WebAccess</text><!--entity CI--><ellipse cx="694.5" cy="143" fill="#FEFECE" filter="url(#fuq2fgf0wqocr)" rx="8" ry="8" style="stroke: #A80036; stroke-width: 2.0;"/><text fill="#000000" font-family="sans-serif" font-size="14" lengthAdjust="spacingAndGlyphs" textLength="148" x="620.5" y="173.5352">CommnicationService</text><!--entity LS--><ellipse cx="499.5" cy="261" fill="#FEFECE" filter="url(#fuq2fgf0wqocr)" rx="8" ry="8" style="stroke: #A80036; stroke-width: 2.0;"/><text fill="#000000" font-family="sans-serif" font-size="14" lengthAdjust="spacingAndGlyphs" textLength="88" x="455.5" y="291.5352">LocalStorage</text><!--entity SA--><ellipse cx="333.5" cy="143" fill="#FEFECE" filter="url(#fuq2fgf0wqocr)" rx="8" ry="8" style="stroke: #A80036; stroke-width: 2.0;"/><text fill="#000000" font-family="sans-serif" font-size="14" lengthAdjust="spacingAndGlyphs" textLength="93" x="287" y="173.5352">SensorAccess</text><!--entity BC--><ellipse cx="195.5" cy="379" fill="#FEFECE" filter="url(#fuq2fgf0wqocr)" rx="8" ry="8" style="stroke: #A80036; stroke-width: 2.0;"/><text fill="#000000" font-family="sans-serif" font-size="14" lengthAdjust="spacingAndGlyphs" textLength="152" x="119.5" y="409.5352">RawSensorDataAccess</text><!--entity ServerSubsystem--><rect fill="#FEFECE" filter="url(#fuq2fgf0wqocr)" height="46.4883" style="stroke: #A80036; stroke-width: 1.5;" width="156" x="619.5" y="468"/><rect fill="#FEFECE" height="10" style="stroke: #A80036; stroke-width: 1.5;" width="15" x="755.5" y="473"/><rect fill="#FEFECE" height="2" style="stroke: #A80036; stroke-width: 1.5;" width="4" x="753.5" y="475"/><rect fill="#FEFECE" height="2" style="stroke: #A80036; stroke-width: 1.5;" width="4" x="753.5" y="479"/><text fill="#000000" font-family="sans-serif" font-size="14" lengthAdjust="spacingAndGlyphs" textLength="116" x="634.5" y="501.5352">ServerSubsystem</text><!--entity CommunicationSubsystem--><rect fill="#FEFECE" filter="url(#fuq2fgf0wqocr)" height="46.4883" style="stroke: #A80036; stroke-width: 1.5;" width="222" x="586.5" y="238"/><rect fill="#FEFECE" height="10" style="stroke: #A80036; stroke-width: 1.5;" width="15" x="788.5" y="243"/><rect fill="#FEFECE" height="2" style="stroke: #A80036; stroke-width: 1.5;" width="4" x="786.5" y="245"/><rect fill="#FEFECE" height="2" style="stroke: #A80036; stroke-width: 1.5;" width="4" x="786.5" y="249"/><text fill="#000000" font-family="sans-serif" font-size="14" lengthAdjust="spacingAndGlyphs" textLength="182" x="601.5" y="271.5352">CommunicationSubsystem</text><!--entity LocalStorageSubsystem--><rect fill="#FEFECE" filter="url(#fuq2fgf0wqocr)" height="46.4883" style="stroke: #A80036; stroke-width: 1.5;" width="201" x="399" y="356"/><rect fill="#FEFECE" height="10" style="stroke: #A80036; stroke-width: 1.5;" width="15" x="580" y="361"/><rect fill="#FEFECE" height="2" style="stroke: #A80036; stroke-width: 1.5;" width="4" x="578" y="363"/><rect fill="#FEFECE" height="2" style="stroke: #A80036; stroke-width: 1.5;" width="4" x="578" y="367"/><text fill="#000000" font-family="sans-serif" font-size="14" lengthAdjust="spacingAndGlyphs" textLength="161" x="414" y="389.5352">LocalStorageSubsystem</text><!--entity EntitySubsystem--><rect fill="#FEFECE" filter="url(#fuq2fgf0wqocr)" height="46.4883" style="stroke: #A80036; stroke-width: 1.5;" width="151" x="424" y="120"/><rect fill="#FEFECE" height="10" style="stroke: #A80036; stroke-width: 1.5;" width="15" x="555" y="125"/><rect fill="#FEFECE" height="2" style="stroke: #A80036; stroke-width: 1.5;" width="4" x="553" y="127"/><rect fill="#FEFECE" height="2" style="stroke: #A80036; stroke-width: 1.5;" width="4" x="553" y="131"/><text fill="#000000" font-family="sans-serif" font-size="14" lengthAdjust="spacingAndGlyphs" textLength="111" x="439" y="153.5352">EntitySubsystem</text><!--entity SensorSubsystem--><rect fill="#FEFECE" filter="url(#fuq2fgf0wqocr)" height="46.4883" style="stroke: #A80036; stroke-width: 1.5;" width="160" x="252.5" y="238"/><rect fill="#FEFECE" height="10" style="stroke: #A80036; stroke-width: 1.5;" width="15" x="392.5" y="243"/><rect fill="#FEFECE" height="2" style="stroke: #A80036; stroke-width: 1.5;" width="4" x="390.5" y="245"/><rect fill="#FEFECE" height="2" style="stroke: #A80036; stroke-width: 1.5;" width="4" x="390.5" y="249"/><text fill="#000000" font-family="sans-serif" font-size="14" lengthAdjust="spacingAndGlyphs" textLength="120" x="267.5" y="271.5352">SensorSubsystem</text><!--entity UISubsystem--><rect fill="#FEFECE" filter="url(#fuq2fgf0wqocr)" height="46.4883" style="stroke: #A80036; stroke-width: 1.5;" width="127" x="352" y="8"/><rect fill="#FEFECE" height="10" style="stroke: #A80036; stroke-width: 1.5;" width="15" x="459" y="13"/><rect fill="#FEFECE" height="2" style="stroke: #A80036; stroke-width: 1.5;" width="4" x="457" y="15"/><rect fill="#FEFECE" height="2" style="stroke: #A80036; stroke-width: 1.5;" width="4" x="457" y="19"/><text fill="#000000" font-family="sans-serif" font-size="14" lengthAdjust="spacingAndGlyphs" textLength="87" x="367" y="41.5352">UISubsystem</text><!--entity SensorHardwareWrapper--><rect fill="#FEFECE" filter="url(#fuq2fgf0wqocr)" height="46.4883" style="stroke: #A80036; stroke-width: 1.5;" width="211" x="6" y="238"/><rect fill="#FEFECE" height="10" style="stroke: #A80036; stroke-width: 1.5;" width="15" x="197" y="243"/><rect fill="#FEFECE" height="2" style="stroke: #A80036; stroke-width: 1.5;" width="4" x="195" y="245"/><rect fill="#FEFECE" height="2" style="stroke: #A80036; stroke-width: 1.5;" width="4" x="195" y="249"/><text fill="#000000" font-family="sans-serif" font-size="14" lengthAdjust="spacingAndGlyphs" textLength="171" x="21" y="271.5352">SensorHardwareWrapper</text><!--link WA to ServerSubsystem--><path d="M697.5,388.1654 C697.5,405.4059 697.5,443.1419 697.5,467.7914 " fill="none" id="WA-ServerSubsystem" style="stroke: #A80036; stroke-width: 1.0;"/><!--link CI to CommunicationSubsystem--><path d="M694.7354,152.2593 C695.1995,170.5144 696.2451,211.6404 696.9091,237.7574 " fill="none" id="CI-CommunicationSubsystem" style="stroke: #A80036; stroke-width: 1.0;"/><!--link LS to LocalStorageSubsystem--><path d="M499.5,270.2593 C499.5,288.5144 499.5,329.6404 499.5,355.7574 " fill="none" id="LS-LocalStorageSubsystem" style="stroke: #A80036; stroke-width: 1.0;"/><!--link SA to SensorSubsystem--><path d="M333.4215,152.2593 C333.2668,170.5144 332.9183,211.6404 332.697,237.7574 " fill="none" id="SA-SensorSubsystem" style="stroke: #A80036; stroke-width: 1.0;"/><!--link CommunicationSubsystem to WA--><path d="M697.5,284.0317 C697.5,307.9413 697.5,344.5947 697.5,364.6552 " fill="none" id="CommunicationSubsystem-WA" style="stroke: #A80036; stroke-width: 1.0; stroke-dasharray: 7.0,7.0;"/><polygon fill="#A80036" points="697.5,369.8489,701.5,360.8489,697.5,364.8489,693.5,360.8489,697.5,369.8489" style="stroke: #A80036; stroke-width: 1.0;"/><!--link EntitySubsystem to LS--><path d="M499.5,166.0317 C499.5,189.9413 499.5,226.5947 499.5,246.6552 " fill="none" id="EntitySubsystem-LS" style="stroke: #A80036; stroke-width: 1.0; stroke-dasharray: 7.0,7.0;"/><polygon fill="#A80036" points="499.5,251.8489,503.5,242.8489,499.5,246.8489,495.5,242.8489,499.5,251.8489" style="stroke: #A80036; stroke-width: 1.0;"/><!--link EntitySubsystem to CI--><path d="M575.1712,143 C617.5657,143 665.7644,143 685.4282,143 " fill="none" id="EntitySubsystem-CI" style="stroke: #A80036; stroke-width: 1.0; stroke-dasharray: 7.0,7.0;"/><polygon fill="#A80036" points="685.4282,143,676.4282,139,680.4282,143,676.4282,147,685.4282,143" style="stroke: #A80036; stroke-width: 1.0;"/><!--link UISubsystem to SA--><path d="M398.5095,54.2065 C381.9031,76.8884 357.1829,110.6526 343.5074,129.3314 " fill="none" id="UISubsystem-SA" style="stroke: #A80036; stroke-width: 1.0; stroke-dasharray: 7.0,7.0;"/><polygon fill="#A80036" points="340.2802,133.7393,348.8244,128.8407,343.234,129.7051,342.3697,124.1146,340.2802,133.7393" style="stroke: #A80036; stroke-width: 1.0;"/><!--link UISubsystem to EntitySubsystem--><path d="M432.9049,54.2065 C446.3077,72.0769 464.8699,96.8265 478.9933,115.6577 " fill="none" id="UISubsystem-EntitySubsystem" style="stroke: #A80036; stroke-width: 1.0; stroke-dasharray: 7.0,7.0;"/><polygon fill="#A80036" points="482.1174,119.8233,479.9172,110.2234,479.1173,115.8234,473.5173,115.0235,482.1174,119.8233" style="stroke: #A80036; stroke-width: 1.0;"/><!--link SensorHardwareWrapper to BC--><path d="M127.8955,284.0317 C146.5161,310.1892 175.9945,351.5995 188.9856,369.8489 " fill="none" id="SensorHardwareWrapper-BC" style="stroke: #A80036; stroke-width: 1.0;"/><!--link SensorSubsystem to BC--><path d="M305.7598,284.0317 C276.4368,309.288 230.6045,348.764 208.4086,367.8816 " fill="none" id="SensorSubsystem-BC" style="stroke: #A80036; stroke-width: 1.0; stroke-dasharray: 7.0,7.0;"/><polygon fill="#A80036" points="204.5486,371.2063,213.9783,368.3636,208.3371,367.9433,208.7574,362.302,204.5486,371.2063" style="stroke: #A80036; stroke-width: 1.0;"/><!--
@startuml Diagrams/SubsystemDecomposition
skinparam componentStyle uml2

interface "WebAccess" as WA
interface "CommnicationService" as CI
interface "LocalStorage" as LS
interface "SensorAccess" as SA
interface "RawSensorDataAccess" as BC

[ServerSubsystem] -up- WA
[CommunicationSubsystem] -up- CI
[LocalStorageSubsystem] -up- LS
[EntitySubsystem]
[SensorSubsystem] -up- SA
[UISubsystem]

[CommunicationSubsystem] .down.> WA
[EntitySubsystem] ..> LS
[EntitySubsystem] .right.> CI
[UISubsystem] ..> SA
[UISubsystem] ..> [EntitySubsystem]
[SensorHardwareWrapper] -down- BC
[SensorSubsystem] ..> BC
@enduml

PlantUML version 1.2018.01(Mon Jan 29 02:08:22 CST 2018)
(GPL source distribution)
Java Runtime: Java(TM) SE Runtime Environment
JVM: Java HotSpot(TM) 64-Bit Server VM
Java Version: 9+181
Operating System: Mac OS X
OS Version: 10.12.6
Default Encoding: UTF-8
Language: zh
Country: CN
--></g></svg>