<?xml version="1.0" encoding="UTF-8" standalone="no"?><svg xmlns="http://www.w3.org/2000/svg" xmlns:xlink="http://www.w3.org/1999/xlink" contentScriptType="application/ecmascript" contentStyleType="text/css" height="807px" preserveAspectRatio="none" style="width:1031px;height:807px;" version="1.1" viewBox="0 0 1031 807" width="1031px" zoomAndPan="magnify"><defs><filter height="300%" id="f1hab7q4bra038" width="300%" x="-1" y="-1"><feGaussianBlur result="blurOut" stdDeviation="2.0"/><feColorMatrix in="blurOut" result="blurOut2" type="matrix" values="0 0 0 0 0 0 0 0 0 0 0 0 0 0 0 0 0 0 .4 0"/><feOffset dx="4.0" dy="4.0" in="blurOut2" result="blurOut3"/><feBlend in="SourceGraphic" in2="blurOut3" mode="normal"/></filter></defs><g><!--cluster  --><polygon fill="#FFFFFF" filter="url(#f1hab7q4bra038)" points="22,430,32,430,39,455.1201,575,455.1201,575,703,22,703,22,430" style="stroke: #000000; stroke-width: 1.5;"/><line style="stroke: #000000; stroke-width: 1.5;" x1="22" x2="39" y1="455.1201" y2="455.1201"/><text fill="#000000" font-family="sans-serif" font-size="14" font-weight="bold" lengthAdjust="spacingAndGlyphs" textLength="0" x="30" y="448.0439"/><!--cluster CommunicationService--><polygon fill="#FFFFFF" filter="url(#f1hab7q4bra038)" points="46,476,214,476,221,501.1201,551,501.1201,551,594,46,594,46,476" style="stroke: #000000; stroke-width: 1.5;"/><line style="stroke: #000000; stroke-width: 1.5;" x1="46" x2="221" y1="501.1201" y2="501.1201"/><text fill="#000000" font-family="sans-serif" font-size="14" font-weight="bold" lengthAdjust="spacingAndGlyphs" textLength="162" x="50" y="494.0439">CommunicationService</text><!--entity CommunicationSubsystem--><rect fill="#FEFECE" filter="url(#f1hab7q4bra038)" height="49.1201" style="stroke: #A80036; stroke-width: 1.5;" width="206" x="38" y="638"/><rect fill="#FEFECE" height="10" style="stroke: #A80036; stroke-width: 1.5;" width="15" x="224" y="643"/><rect fill="#FEFECE" height="2" style="stroke: #A80036; stroke-width: 1.5;" width="4" x="222" y="645"/><rect fill="#FEFECE" height="2" style="stroke: #A80036; stroke-width: 1.5;" width="4" x="222" y="649"/><text fill="#000000" font-family="sans-serif" font-size="14" lengthAdjust="spacingAndGlyphs" textLength="166" x="53" y="674.0439">CommunicationSubsystem</text><!--entity UL--><ellipse cx="492" cy="546" fill="#FEFECE" filter="url(#f1hab7q4bra038)" rx="8" ry="8" style="stroke: #A80036; stroke-width: 2.0;"/><text fill="#000000" font-family="sans-serif" font-size="14" lengthAdjust="spacingAndGlyphs" textLength="71" x="456.5" y="579.0439">UploadVSS</text><!--entity DL--><ellipse cx="362" cy="546" fill="#FEFECE" filter="url(#f1hab7q4bra038)" rx="8" ry="8" style="stroke: #A80036; stroke-width: 2.0;"/><text fill="#000000" font-family="sans-serif" font-size="14" lengthAdjust="spacingAndGlyphs" textLength="89" x="317.5" y="579.0439">DownloadVSS</text><!--entity GR--><ellipse cx="220" cy="546" fill="#FEFECE" filter="url(#f1hab7q4bra038)" rx="8" ry="8" style="stroke: #A80036; stroke-width: 2.0;"/><text fill="#000000" font-family="sans-serif" font-size="14" lengthAdjust="spacingAndGlyphs" textLength="95" x="172.5" y="579.0439">GetVSSReview</text><!--entity US--><ellipse cx="96" cy="546" fill="#FEFECE" filter="url(#f1hab7q4bra038)" rx="8" ry="8" style="stroke: #A80036; stroke-width: 2.0;"/><text fill="#000000" font-family="sans-serif" font-size="14" lengthAdjust="spacingAndGlyphs" textLength="52" x="70" y="579.0439">UserInfo</text><!--entity LS--><ellipse cx="642" cy="382" fill="#FEFECE" filter="url(#f1hab7q4bra038)" rx="8" ry="8" style="stroke: #A80036; stroke-width: 2.0;"/><text fill="#000000" font-family="sans-serif" font-size="14" lengthAdjust="spacingAndGlyphs" textLength="84" x="600" y="415.0439">LocalStorage</text><!--entity SA--><ellipse cx="766" cy="149" fill="#FEFECE" filter="url(#f1hab7q4bra038)" rx="8" ry="8" style="stroke: #A80036; stroke-width: 2.0;"/><text fill="#000000" font-family="sans-serif" font-size="14" lengthAdjust="spacingAndGlyphs" textLength="90" x="721" y="182.0439">SensorAccess</text><!--entity BC--><ellipse cx="907" cy="382" fill="#FEFECE" filter="url(#f1hab7q4bra038)" rx="8" ry="8" style="stroke: #A80036; stroke-width: 2.0;"/><text fill="#000000" font-family="sans-serif" font-size="14" lengthAdjust="spacingAndGlyphs" textLength="147" x="833.5" y="415.0439">RawSensorDataAccess</text><!--entity LocalVSSSubsystem--><rect fill="#FEFECE" filter="url(#f1hab7q4bra038)" height="49.1201" style="stroke: #A80036; stroke-width: 1.5;" width="170" x="413" y="241"/><rect fill="#FEFECE" height="10" style="stroke: #A80036; stroke-width: 1.5;" width="15" x="563" y="246"/><rect fill="#FEFECE" height="2" style="stroke: #A80036; stroke-width: 1.5;" width="4" x="561" y="248"/><rect fill="#FEFECE" height="2" style="stroke: #A80036; stroke-width: 1.5;" width="4" x="561" y="252"/><text fill="#000000" font-family="sans-serif" font-size="14" lengthAdjust="spacingAndGlyphs" textLength="130" x="428" y="277.0439">LocalVSSSubsystem</text><!--entity OnlineVSSSubsystem--><rect fill="#FEFECE" filter="url(#f1hab7q4bra038)" height="49.1201" style="stroke: #A80036; stroke-width: 1.5;" width="177" x="200.5" y="241"/><rect fill="#FEFECE" height="10" style="stroke: #A80036; stroke-width: 1.5;" width="15" x="357.5" y="246"/><rect fill="#FEFECE" height="2" style="stroke: #A80036; stroke-width: 1.5;" width="4" x="355.5" y="248"/><rect fill="#FEFECE" height="2" style="stroke: #A80036; stroke-width: 1.5;" width="4" x="355.5" y="252"/><text fill="#000000" font-family="sans-serif" font-size="14" lengthAdjust="spacingAndGlyphs" textLength="137" x="215.5" y="277.0439">OnlineVSSSubsystem</text><!--entity PlayVSSSubsystem--><rect fill="#FEFECE" filter="url(#f1hab7q4bra038)" height="49.1201" style="stroke: #A80036; stroke-width: 1.5;" width="163" x="618.5" y="241"/><rect fill="#FEFECE" height="10" style="stroke: #A80036; stroke-width: 1.5;" width="15" x="761.5" y="246"/><rect fill="#FEFECE" height="2" style="stroke: #A80036; stroke-width: 1.5;" width="4" x="759.5" y="248"/><rect fill="#FEFECE" height="2" style="stroke: #A80036; stroke-width: 1.5;" width="4" x="759.5" y="252"/><text fill="#000000" font-family="sans-serif" font-size="14" lengthAdjust="spacingAndGlyphs" textLength="123" x="633.5" y="277.0439">PlayVSSSubsystem</text><!--entity SensorSubsystem--><rect fill="#FEFECE" filter="url(#f1hab7q4bra038)" height="49.1201" style="stroke: #A80036; stroke-width: 1.5;" width="154" x="817" y="241"/><rect fill="#FEFECE" height="10" style="stroke: #A80036; stroke-width: 1.5;" width="15" x="951" y="246"/><rect fill="#FEFECE" height="2" style="stroke: #A80036; stroke-width: 1.5;" width="4" x="949" y="248"/><rect fill="#FEFECE" height="2" style="stroke: #A80036; stroke-width: 1.5;" width="4" x="949" y="252"/><text fill="#000000" font-family="sans-serif" font-size="14" lengthAdjust="spacingAndGlyphs" textLength="114" x="832" y="277.0439">SensorSubsystem</text><!--entity SensorHardwareWrapper--><rect fill="#FEFECE" filter="url(#f1hab7q4bra038)" height="49.1201" style="stroke: #A80036; stroke-width: 1.5;" width="200" x="820" y="521.5"/><rect fill="#FEFECE" height="10" style="stroke: #A80036; stroke-width: 1.5;" width="15" x="1000" y="526.5"/><rect fill="#FEFECE" height="2" style="stroke: #A80036; stroke-width: 1.5;" width="4" x="998" y="528.5"/><rect fill="#FEFECE" height="2" style="stroke: #A80036; stroke-width: 1.5;" width="4" x="998" y="532.5"/><text fill="#000000" font-family="sans-serif" font-size="14" lengthAdjust="spacingAndGlyphs" textLength="160" x="835" y="557.5439">SensorHardwareWrapper</text><!--entity LocalStorageSubsystem--><rect fill="#FEFECE" filter="url(#f1hab7q4bra038)" height="49.1201" style="stroke: #A80036; stroke-width: 1.5;" width="193" x="591.5" y="521.5"/><rect fill="#FEFECE" height="10" style="stroke: #A80036; stroke-width: 1.5;" width="15" x="764.5" y="526.5"/><rect fill="#FEFECE" height="2" style="stroke: #A80036; stroke-width: 1.5;" width="4" x="762.5" y="528.5"/><rect fill="#FEFECE" height="2" style="stroke: #A80036; stroke-width: 1.5;" width="4" x="762.5" y="532.5"/><text fill="#000000" font-family="sans-serif" font-size="14" lengthAdjust="spacingAndGlyphs" textLength="153" x="606.5" y="557.5439">LocalStorageSubsystem</text><!--entity UISubsystem--><rect fill="#FEFECE" filter="url(#f1hab7q4bra038)" height="49.1201" style="stroke: #A80036; stroke-width: 1.5;" width="121" x="507.5" y="8"/><rect fill="#FEFECE" height="10" style="stroke: #A80036; stroke-width: 1.5;" width="15" x="608.5" y="13"/><rect fill="#FEFECE" height="2" style="stroke: #A80036; stroke-width: 1.5;" width="4" x="606.5" y="15"/><rect fill="#FEFECE" height="2" style="stroke: #A80036; stroke-width: 1.5;" width="4" x="606.5" y="19"/><text fill="#000000" font-family="sans-serif" font-size="14" lengthAdjust="spacingAndGlyphs" textLength="81" x="522.5" y="44.0439">UISubsystem</text><!--entity UserSubsystem--><rect fill="#FEFECE" filter="url(#f1hab7q4bra038)" height="49.1201" style="stroke: #A80036; stroke-width: 1.5;" width="138" x="27" y="241"/><rect fill="#FEFECE" height="10" style="stroke: #A80036; stroke-width: 1.5;" width="15" x="145" y="246"/><rect fill="#FEFECE" height="2" style="stroke: #A80036; stroke-width: 1.5;" width="4" x="143" y="248"/><rect fill="#FEFECE" height="2" style="stroke: #A80036; stroke-width: 1.5;" width="4" x="143" y="252"/><text fill="#000000" font-family="sans-serif" font-size="14" lengthAdjust="spacingAndGlyphs" textLength="98" x="42" y="277.0439">UserSubsystem</text><!--entity ServerSubsystem--><rect fill="#FEFECE" filter="url(#f1hab7q4bra038)" height="49.1201" style="stroke: #A80036; stroke-width: 1.5;" width="151" x="327.5" y="747"/><rect fill="#FEFECE" height="10" style="stroke: #A80036; stroke-width: 1.5;" width="15" x="458.5" y="752"/><rect fill="#FEFECE" height="2" style="stroke: #A80036; stroke-width: 1.5;" width="4" x="456.5" y="754"/><rect fill="#FEFECE" height="2" style="stroke: #A80036; stroke-width: 1.5;" width="4" x="456.5" y="758"/><text fill="#000000" font-family="sans-serif" font-size="14" lengthAdjust="spacingAndGlyphs" textLength="111" x="342.5" y="783.0439">ServerSubsystem</text><!--link UL to DL--><!--link DL to GR--><!--link GR to US--><!--link UL to CommunicationSubsystem--><path d="M485.462,555.195 C475.221,567.433 454.161,590.292 431,602 C372.976,631.331 301.486,646.203 244.005,653.744 " fill="none" id="UL-CommunicationSubsystem" style="stroke: #A80036; stroke-width: 1.0;"/><!--link DL to CommunicationSubsystem--><path d="M353.536,555.005 C340.936,566.592 316.133,588.161 292,602 C267.434,616.087 238.885,628.283 213.266,637.903 " fill="none" id="DL-CommunicationSubsystem" style="stroke: #A80036; stroke-width: 1.0;"/><!--link GR to CommunicationSubsystem--><path d="M214.319,555.235 C202.573,572.259 175.231,611.886 157.459,637.645 " fill="none" id="GR-CommunicationSubsystem" style="stroke: #A80036; stroke-width: 1.0;"/><!--link US to CommunicationSubsystem--><path d="M99.2363,555.235 C105.9269,572.259 121.501,611.886 131.625,637.645 " fill="none" id="US-CommunicationSubsystem" style="stroke: #A80036; stroke-width: 1.0;"/><!--link SA to SensorSubsystem--><path d="M775.205,158.235 C794.294,175.31 838.804,215.125 867.592,240.878 " fill="none" id="SA-SensorSubsystem" style="stroke: #A80036; stroke-width: 1.0;"/><!--link BC to SensorHardwareWrapper--><path d="M907.663,391.256 C909.572,415.048 915.137,484.403 918.097,521.288 " fill="none" id="BC-SensorHardwareWrapper" style="stroke: #A80036; stroke-width: 1.0;"/><!--link SensorSubsystem to BC--><path d="M896.694,290.224 C899.349,313.613 903.313,348.529 905.469,367.518 " fill="none" id="SensorSubsystem-BC" style="stroke: #A80036; stroke-width: 1.0; stroke-dasharray: 7.0,7.0;"/><polygon fill="#A80036" points="906.077,372.87,909.0385,363.4769,905.5142,367.9018,901.0894,364.3775,906.077,372.87" style="stroke: #A80036; stroke-width: 1.0;"/><!--link LS to LocalStorageSubsystem--><path d="M644.344,391.256 C651.1,415.048 670.793,484.403 681.267,521.288 " fill="none" id="LS-LocalStorageSubsystem" style="stroke: #A80036; stroke-width: 1.0;"/><!--link LocalVSSSubsystem to LS--><path d="M527.837,290.224 C558.858,314.891 606.002,352.377 628.773,370.483 " fill="none" id="LocalVSSSubsystem-LS" style="stroke: #A80036; stroke-width: 1.0; stroke-dasharray: 7.0,7.0;"/><polygon fill="#A80036" points="632.732,373.63,628.1772,364.8976,628.8185,370.518,623.1981,371.1593,632.732,373.63" style="stroke: #A80036; stroke-width: 1.0;"/><!--link UserSubsystem to OnlineVSSSubsystem--><path d="M170.521,265.5 C180.392,265.5 190.263,265.5 200.133,265.5 " fill="none" id="UserSubsystem-OnlineVSSSubsystem" style="stroke: #A80036; stroke-width: 1.0; stroke-dasharray: 7.0,7.0;"/><polygon fill="#A80036" points="165.359,265.5,174.359,269.5,170.359,265.5,174.359,261.5,165.359,265.5" style="stroke: #A80036; stroke-width: 1.0;"/><!--link OnlineVSSSubsystem to LocalVSSSubsystem--><!--link LocalVSSSubsystem to PlayVSSSubsystem--><!--link PlayVSSSubsystem to SensorSubsystem--><path d="M781.844,265.5 C791.793,265.5 801.741,265.5 811.69,265.5 " fill="none" id="PlayVSSSubsystem-SensorSubsystem" style="stroke: #A80036; stroke-width: 1.0; stroke-dasharray: 7.0,7.0;"/><polygon fill="#A80036" points="816.893,265.5,807.893,261.5,811.893,265.5,807.893,269.5,816.893,265.5" style="stroke: #A80036; stroke-width: 1.0;"/><!--link UL to ServerSubsystem--><path d="M486.78,560.108 C472.241,596.62 431.123,699.8763 412.443,746.7858 " fill="none" id="UL-ServerSubsystem" style="stroke: #A80036; stroke-width: 1.0; stroke-dasharray: 7.0,7.0;"/><polygon fill="#A80036" points="488.727,555.22,481.6812,562.1016,486.8772,559.8652,489.1135,565.0613,488.727,555.22" style="stroke: #A80036; stroke-width: 1.0;"/><!--link DL to ServerSubsystem--><path d="M367.938,560.243 C375.454,577.676 388.126,609.459 394,638 C401.716,675.488 403.209,720.0712 403.306,746.7854 " fill="none" id="DL-ServerSubsystem" style="stroke: #A80036; stroke-width: 1.0; stroke-dasharray: 7.0,7.0;"/><polygon fill="#A80036" points="365.785,555.314,365.7224,565.1627,367.7866,559.8959,373.0534,561.9601,365.785,555.314" style="stroke: #A80036; stroke-width: 1.0;"/><!--link GR to ServerSubsystem--><path d="M233.214,556.565 C254.008,572.053 294.89,604.299 323,638 C351.916,672.667 377.333,718.8969 391.39,746.5831 " fill="none" id="GR-ServerSubsystem" style="stroke: #A80036; stroke-width: 1.0; stroke-dasharray: 7.0,7.0;"/><polygon fill="#A80036" points="229.093,553.521,233.9523,562.0876,233.1136,556.4933,238.708,555.6546,229.093,553.521" style="stroke: #A80036; stroke-width: 1.0;"/><!--link US to ServerSubsystem--><path d="M104.2826,559.329 C113.34,571.873 128.99,590.992 147,602 C197.423,632.82 228,602.176 275,638 C305.128,660.964 293.221,683.242 319,711 C331.648,724.6186 347.883,736.9919 362.703,746.8842 " fill="none" id="US-ServerSubsystem" style="stroke: #A80036; stroke-width: 1.0; stroke-dasharray: 7.0,7.0;"/><polygon fill="#A80036" points="101.2516,555.032,103.1696,564.6923,104.1332,559.1181,109.7074,560.0817,101.2516,555.032" style="stroke: #A80036; stroke-width: 1.0;"/><!--link LocalVSSSubsystem to UL--><path d="M497.488,290.245 C496.271,346.758 493.232,487.805 492.286,531.727 " fill="none" id="LocalVSSSubsystem-UL" style="stroke: #A80036; stroke-width: 1.0; stroke-dasharray: 7.0,7.0;"/><polygon fill="#A80036" points="492.176,536.816,496.3705,527.905,492.2846,531.8172,488.3724,527.7313,492.176,536.816" style="stroke: #A80036; stroke-width: 1.0;"/><!--link LocalVSSSubsystem to DL--><path d="M486.405,290.245 C458.695,346.988 389.368,488.955 368.222,532.259 " fill="none" id="LocalVSSSubsystem-DL" style="stroke: #A80036; stroke-width: 1.0; stroke-dasharray: 7.0,7.0;"/><polygon fill="#A80036" points="365.997,536.816,373.5409,530.4844,368.1913,532.3232,366.3524,526.9736,365.997,536.816" style="stroke: #A80036; stroke-width: 1.0;"/><!--link OnlineVSSSubsystem to DL--><path d="M295.224,290.245 C310.037,346.758 347.008,487.805 358.521,531.727 " fill="none" id="OnlineVSSSubsystem-DL" style="stroke: #A80036; stroke-width: 1.0; stroke-dasharray: 7.0,7.0;"/><polygon fill="#A80036" points="359.855,536.816,361.4411,527.0957,358.5866,531.9796,353.7027,529.1251,359.855,536.816" style="stroke: #A80036; stroke-width: 1.0;"/><!--link OnlineVSSSubsystem to GR--><path d="M283.117,290.245 C269.116,346.758 234.17,487.805 223.288,531.727 " fill="none" id="OnlineVSSSubsystem-GR" style="stroke: #A80036; stroke-width: 1.0; stroke-dasharray: 7.0,7.0;"/><polygon fill="#A80036" points="222.028,536.816,228.0736,529.041,223.2296,531.9625,220.3081,527.1185,222.028,536.816" style="stroke: #A80036; stroke-width: 1.0;"/><!--link UserSubsystem to US--><path d="M96,290.245 C96,346.758 96,487.805 96,531.727 " fill="none" id="UserSubsystem-US" style="stroke: #A80036; stroke-width: 1.0; stroke-dasharray: 7.0,7.0;"/><polygon fill="#A80036" points="96,536.816,100,527.816,96,531.816,92,527.816,96,536.816" style="stroke: #A80036; stroke-width: 1.0;"/><!--link UISubsystem to UserSubsystem--><path d="M511.079,59.316 C475.552,75.575 428.946,97.168 388,117 C300.21,159.521 198.786,211.378 141.536,240.905 " fill="none" id="UISubsystem-UserSubsystem" style="stroke: #A80036; stroke-width: 1.0; stroke-dasharray: 7.0,7.0;"/><polygon fill="#A80036" points="515.796,57.159,505.9477,57.2653,511.2491,59.2389,509.2755,64.5403,515.796,57.159" style="stroke: #A80036; stroke-width: 1.0;"/><!--link UISubsystem to OnlineVSSSubsystem--><path d="M535.594,60.33 C480.642,105.829 370.056,197.389 317.715,240.725 " fill="none" id="UISubsystem-OnlineVSSSubsystem" style="stroke: #A80036; stroke-width: 1.0; stroke-dasharray: 7.0,7.0;"/><polygon fill="#A80036" points="539.453,57.135,529.9697,59.7933,535.6016,60.3235,535.0713,65.9555,539.453,57.135" style="stroke: #A80036; stroke-width: 1.0;"/><!--link UISubsystem to LocalVSSSubsystem--><path d="M559.299,62.214 C545.324,108.332 518.135,198.054 505.188,240.779 " fill="none" id="UISubsystem-LocalVSSSubsystem" style="stroke: #A80036; stroke-width: 1.0; stroke-dasharray: 7.0,7.0;"/><polygon fill="#A80036" points="560.772,57.351,554.3335,64.8039,559.3218,62.1361,561.9896,67.1243,560.772,57.351" style="stroke: #A80036; stroke-width: 1.0;"/><!--link UISubsystem to PlayVSSSubsystem--><path d="M584.248,61.935 C610.554,107.969 661.981,197.967 686.445,240.779 " fill="none" id="UISubsystem-PlayVSSSubsystem" style="stroke: #A80036; stroke-width: 1.0; stroke-dasharray: 7.0,7.0;"/><polygon fill="#A80036" points="581.629,57.351,582.6199,67.1499,584.1091,61.6926,589.5664,63.1818,581.629,57.351" style="stroke: #A80036; stroke-width: 1.0;"/><!--link UISubsystem to SensorSubsystem--><!--link UISubsystem to SA--><path d="M613.542,59.836 C660.992,87.276 731.844,128.248 756.857,142.713 " fill="none" id="UISubsystem-SA" style="stroke: #A80036; stroke-width: 1.0; stroke-dasharray: 7.0,7.0;"/><polygon fill="#A80036" points="609.026,57.224,614.8139,65.1927,613.3541,59.7274,618.8194,58.2677,609.026,57.224" style="stroke: #A80036; stroke-width: 1.0;"/><!--
@startuml Diagrams/SubsystemDecomposition
skinparam componentStyle uml2

interface "LocalStorage" as LS

interface "SensorAccess" as SA
interface "RawSensorDataAccess" as BC

package  " "{

package "CommunicationService" {
    interface "UploadVSS" as UL
    interface "DownloadVSS" as DL
    interface "GetVSSReview" as GR
    interface "UserInfo" as US    
    UL -[hidden] DL
    DL -[hidden] GR
    GR -[hidden] US
}
    component "CommunicationSubsystem" as CommunicationSubsystem
    UL - - CommunicationSubsystem
    DL - - CommunicationSubsystem
    GR - - CommunicationSubsystem
    US - - CommunicationSubsystem
}
[LocalVSSSubsystem]
[OnlineVSSSubsystem]
[PlayVSSSubsystem]
[SensorSubsystem] -up- SA
[SensorHardwareWrapper] -up- BC
[SensorSubsystem] ..> BC

[LocalStorageSubsystem] -up- LS
[LocalVSSSubsystem] ..> LS

[UISubsystem] 

[UserSubsystem] <. [OnlineVSSSubsystem]
[OnlineVSSSubsystem] -[hidden] [LocalVSSSubsystem]
[LocalVSSSubsystem] -[hidden] [PlayVSSSubsystem]
[PlayVSSSubsystem] .> [SensorSubsystem]
 

[ServerSubsystem] .-up.> UL
[ServerSubsystem] .-up.> DL
[ServerSubsystem] .-up.> GR
[ServerSubsystem] .-up.> US


[LocalVSSSubsystem] .-down.> UL
[LocalVSSSubsystem] .-down.> DL
[OnlineVSSSubsystem] .-down.> DL
[OnlineVSSSubsystem] .-down.> GR
[UserSubsystem] .-down-> US

[UISubsystem] <.-down. [UserSubsystem]
[UISubsystem] <.-down. [OnlineVSSSubsystem]
[UISubsystem] <.-down. [LocalVSSSubsystem]
[UISubsystem] <.-down. [PlayVSSSubsystem]
[UISubsystem] <.[hidden]. [SensorSubsystem]
[UISubsystem] <.. SA
@enduml

PlantUML version 1.2018.03(Fri Apr 06 00:59:15 CST 2018)
(GPL source distribution)
Java Runtime: Java(TM) SE Runtime Environment
JVM: Java HotSpot(TM) Client VM
Java Version: 1.8.0_171-b11
Operating System: Windows 8.1
OS Version: 6.3
Default Encoding: GBK
Language: zh
Country: CN
--></g></svg>