<?xml version="1.0" encoding="UTF-8" standalone="no"?><svg xmlns="http://www.w3.org/2000/svg" xmlns:xlink="http://www.w3.org/1999/xlink" contentScriptType="application/ecmascript" contentStyleType="text/css" height="867px" preserveAspectRatio="none" style="width:1019px;height:867px;" version="1.1" viewBox="0 0 1019 867"
    width="1019px" zoomAndPan="magnify"><defs><filter height="300%" id="f1oohulrpnoryr" width="300%" x="-1" y="-1"><feGaussianBlur result="blurOut" stdDeviation="2.0"/><feColorMatrix in="blurOut" result="blurOut2" type="matrix" values="0 0 0 0 0 0 0 0 0 0 0 0 0 0 0 0 0 0 .4 0"/><feOffset dx="4.0" dy="4.0" in="blurOut2" result="blurOut3"/><feBlend in="SourceGraphic" in2="blurOut3" mode="normal"/></filter></defs><g><!--cluster CommunicationService--><polygon fill="#FFFFFF" filter="url(#f1oohulrpnoryr)" points="185.5,441,355.5,441,362.5,463.4883,750.5,463.4883,750.5,534,185.5,534,185.5,441" style="stroke: #000000; stroke-width: 1.5;"/><line style="stroke: #000000; stroke-width: 1.5;" x1="185.5" x2="362.5" y1="463.4883" y2="463.4883"/><text fill="#000000" font-family="sans-serif" font-size="14" font-weight="bold" lengthAdjust="spacingAndGlyphs" textLength="164" x="189.5" y="456.5352">CommunicationService</text><!--entity UL--><ellipse cx="254.5" cy="497" fill="#FEFECE" filter="url(#f1oohulrpnoryr)" rx="8" ry="8" style="stroke: #A80036; stroke-width: 2.0;"/><text fill="#000000" font-family="sans-serif" font-size="14" lengthAdjust="spacingAndGlyphs" textLength="107" x="201" y="527.5352">UploadVSSMeta</text><!--entity DL--><ellipse cx="671.5" cy="497" fill="#FEFECE" filter="url(#f1oohulrpnoryr)" rx="8" ry="8" style="stroke: #A80036; stroke-width: 2.0;"/><text fill="#000000" font-family="sans-serif" font-size="14" lengthAdjust="spacingAndGlyphs" textLength="127" x="608" y="527.5352">DownloadVSSMeta</text><!--entity GR--><ellipse cx="390.5" cy="497" fill="#FEFECE" filter="url(#f1oohulrpnoryr)" rx="8" ry="8" style="stroke: #A80036; stroke-width: 2.0;"/><text fill="#000000" font-family="sans-serif" font-size="14" lengthAdjust="spacingAndGlyphs" textLength="65" x="358" y="527.5352">UploadSF</text><!--entity US--><ellipse cx="515.5" cy="497" fill="#FEFECE" filter="url(#f1oohulrpnoryr)" rx="8" ry="8" style="stroke: #A80036; stroke-width: 2.0;"/><text fill="#000000" font-family="sans-serif" font-size="14" lengthAdjust="spacingAndGlyphs" textLength="85" x="473" y="527.5352">DownloadSF</text><!--entity LS--><ellipse cx="106.5" cy="497" fill="#FEFECE" filter="url(#f1oohulrpnoryr)" rx="8" ry="8" style="stroke: #A80036; stroke-width: 2.0;"/><text fill="#000000" font-family="sans-serif" font-size="14" lengthAdjust="spacingAndGlyphs" textLength="88" x="62.5" y="527.5352">LocalStorage</text><!--entity SA--><ellipse cx="876.5" cy="143" fill="#FEFECE" filter="url(#f1oohulrpnoryr)" rx="8" ry="8" style="stroke: #A80036; stroke-width: 2.0;"/><text fill="#000000" font-family="sans-serif" font-size="14" lengthAdjust="spacingAndGlyphs" textLength="93" x="830" y="173.5352">SensorAccess</text><!--entity BC--><ellipse cx="902.5" cy="379" fill="#FEFECE" filter="url(#f1oohulrpnoryr)" rx="8" ry="8" style="stroke: #A80036; stroke-width: 2.0;"/><text fill="#000000" font-family="sans-serif" font-size="14" lengthAdjust="spacingAndGlyphs" textLength="152" x="826.5" y="409.5352">RawSensorDataAccess</text><!--entity UIA--><ellipse cx="534.5" cy="143" fill="#FEFECE" filter="url(#f1oohulrpnoryr)" rx="8" ry="8" style="stroke: #A80036; stroke-width: 2.0;"/><text fill="#000000" font-family="sans-serif" font-size="14" lengthAdjust="spacingAndGlyphs" textLength="104" x="482.5" y="173.5352">UserInfoAccess</text><!--entity OVA--><ellipse cx="695.5" cy="143" fill="#FEFECE" filter="url(#f1oohulrpnoryr)" rx="8" ry="8" style="stroke: #A80036; stroke-width: 2.0;"/><text fill="#000000" font-family="sans-serif" font-size="14" lengthAdjust="spacingAndGlyphs" textLength="116" x="637.5" y="173.5352">OnlineVSSAccess</text><!--entity LVA--><ellipse cx="328.5" cy="261" fill="#FEFECE" filter="url(#f1oohulrpnoryr)" rx="8" ry="8" style="stroke: #A80036; stroke-width: 2.0;"/><text fill="#000000" font-family="sans-serif" font-size="14" lengthAdjust="spacingAndGlyphs" textLength="106" x="275.5" y="291.5352">LocalVSSAccess</text><!--entity CommunicationSubsystem--><rect fill="#FEFECE" filter="url(#f1oohulrpnoryr)" height="46.4883" style="stroke: #A80036; stroke-width: 1.5;" width="222" x="341.5" y="586"/><rect fill="#FEFECE" height="10" style="stroke: #A80036; stroke-width: 1.5;" width="15" x="543.5" y="591"/><rect fill="#FEFECE" height="2" style="stroke: #A80036; stroke-width: 1.5;" width="4" x="541.5" y="593"/><rect fill="#FEFECE" height="2" style="stroke: #A80036; stroke-width: 1.5;" width="4" x="541.5" y="597"/><text fill="#000000" font-family="sans-serif" font-size="14" lengthAdjust="spacingAndGlyphs" textLength="182" x="356.5" y="619.5352">CommunicationSubsystem</text><!--entity LocalVSSSubsystem--><rect fill="#FEFECE" filter="url(#f1oohulrpnoryr)" height="46.4883" style="stroke: #A80036; stroke-width: 1.5;" width="173" x="242" y="356"/><rect fill="#FEFECE" height="10" style="stroke: #A80036; stroke-width: 1.5;" width="15" x="395" y="361"/><rect fill="#FEFECE" height="2" style="stroke: #A80036; stroke-width: 1.5;" width="4" x="393" y="363"/><rect fill="#FEFECE" height="2" style="stroke: #A80036; stroke-width: 1.5;" width="4" x="393" y="367"/><text fill="#000000" font-family="sans-serif" font-size="14" lengthAdjust="spacingAndGlyphs" textLength="133" x="257" y="389.5352">LocalVSSSubsystem</text><!--entity OnlineVSSSubsystem--><rect fill="#FEFECE" filter="url(#f1oohulrpnoryr)" height="46.4883" style="stroke: #A80036; stroke-width: 1.5;" width="183" x="604" y="238"/><rect fill="#FEFECE" height="10" style="stroke: #A80036; stroke-width: 1.5;" width="15" x="767" y="243"/><rect fill="#FEFECE" height="2" style="stroke: #A80036; stroke-width: 1.5;" width="4" x="765" y="245"/><rect fill="#FEFECE" height="2" style="stroke: #A80036; stroke-width: 1.5;" width="4" x="765" y="249"/><text fill="#000000" font-family="sans-serif" font-size="14" lengthAdjust="spacingAndGlyphs" textLength="143" x="619" y="271.5352">OnlineVSSSubsystem</text><!--entity SensorSubsystem--><rect fill="#FEFECE" filter="url(#f1oohulrpnoryr)" height="46.4883" style="stroke: #A80036; stroke-width: 1.5;" width="160" x="822.5" y="238"/><rect fill="#FEFECE" height="10" style="stroke: #A80036; stroke-width: 1.5;" width="15" x="962.5" y="243"/><rect fill="#FEFECE" height="2" style="stroke: #A80036; stroke-width: 1.5;" width="4" x="960.5" y="245"/><rect fill="#FEFECE" height="2" style="stroke: #A80036; stroke-width: 1.5;" width="4" x="960.5" y="249"/><text fill="#000000" font-family="sans-serif" font-size="14" lengthAdjust="spacingAndGlyphs" textLength="120" x="837.5" y="271.5352">SensorSubsystem</text><!--entity SensorHardwareWrapper--><rect fill="#FEFECE" filter="url(#f1oohulrpnoryr)" height="46.4883" style="stroke: #A80036; stroke-width: 1.5;" width="211" x="797" y="474"/><rect fill="#FEFECE" height="10" style="stroke: #A80036; stroke-width: 1.5;" width="15" x="988" y="479"/><rect fill="#FEFECE" height="2" style="stroke: #A80036; stroke-width: 1.5;" width="4" x="986" y="481"/><rect fill="#FEFECE" height="2" style="stroke: #A80036; stroke-width: 1.5;" width="4" x="986" y="485"/><text fill="#000000" font-family="sans-serif" font-size="14" lengthAdjust="spacingAndGlyphs" textLength="171" x="812" y="507.5352">SensorHardwareWrapper</text><!--entity UserSubsystem--><rect fill="#FEFECE" filter="url(#f1oohulrpnoryr)" height="46.4883" style="stroke: #A80036; stroke-width: 1.5;" width="144" x="424.5" y="238"/><rect fill="#FEFECE" height="10" style="stroke: #A80036; stroke-width: 1.5;" width="15" x="548.5" y="243"/><rect fill="#FEFECE" height="2" style="stroke: #A80036; stroke-width: 1.5;" width="4" x="546.5" y="245"/><rect fill="#FEFECE" height="2" style="stroke: #A80036; stroke-width: 1.5;" width="4" x="546.5" y="249"/><text fill="#000000" font-family="sans-serif" font-size="14" lengthAdjust="spacingAndGlyphs" textLength="104" x="439.5" y="271.5352">UserSubsystem</text><!--entity UISubsystem--><rect fill="#FEFECE" filter="url(#f1oohulrpnoryr)" height="46.4883" style="stroke: #A80036; stroke-width: 1.5;" width="127" x="551" y="8"/><rect fill="#FEFECE" height="10" style="stroke: #A80036; stroke-width: 1.5;" width="15" x="658" y="13"/><rect fill="#FEFECE" height="2" style="stroke: #A80036; stroke-width: 1.5;" width="4" x="656" y="15"/><rect fill="#FEFECE" height="2" style="stroke: #A80036; stroke-width: 1.5;" width="4" x="656" y="19"/><text fill="#000000" font-family="sans-serif" font-size="14" lengthAdjust="spacingAndGlyphs" textLength="87" x="566" y="41.5352">UISubsystem</text><!--entity LocalStorageSubsystem--><rect fill="#FEFECE" filter="url(#f1oohulrpnoryr)" height="46.4883" style="stroke: #A80036; stroke-width: 1.5;" width="201" x="6" y="586"/><rect fill="#FEFECE" height="10" style="stroke: #A80036; stroke-width: 1.5;" width="15" x="187" y="591"/><rect fill="#FEFECE" height="2" style="stroke: #A80036; stroke-width: 1.5;" width="4" x="185" y="593"/><rect fill="#FEFECE" height="2" style="stroke: #A80036; stroke-width: 1.5;" width="4" x="185" y="597"/><text fill="#000000" font-family="sans-serif" font-size="14" lengthAdjust="spacingAndGlyphs" textLength="161" x="21" y="619.5352">LocalStorageSubsystem</text><!--entity HttpService--><ellipse cx="452.5" cy="721" fill="#FEFECE" filter="url(#f1oohulrpnoryr)" rx="8" ry="8" style="stroke: #A80036; stroke-width: 2.0;"/><text fill="#000000" font-family="sans-serif" font-size="14" lengthAdjust="spacingAndGlyphs" textLength="77" x="414" y="751.5352">HttpService</text><!--entity ServerSubsystem--><rect fill="#FEFECE" filter="url(#f1oohulrpnoryr)" height="46.4883" style="stroke: #A80036; stroke-width: 1.5;" width="156" x="374.5" y="810"/><rect fill="#FEFECE" height="10" style="stroke: #A80036; stroke-width: 1.5;" width="15" x="510.5" y="815"/><rect fill="#FEFECE" height="2" style="stroke: #A80036; stroke-width: 1.5;" width="4" x="508.5" y="817"/><rect fill="#FEFECE" height="2" style="stroke: #A80036; stroke-width: 1.5;" width="4" x="508.5" y="821"/><text fill="#000000" font-family="sans-serif" font-size="14" lengthAdjust="spacingAndGlyphs" textLength="116" x="389.5" y="843.5352">ServerSubsystem</text><!--link UL to CommunicationSubsystem--><path d="M263.5222,502.1034 C289.2443,516.6534 364.1395,559.0183 411.5569,585.8402 " fill="none" id="UL-CommunicationSubsystem" style="stroke: #A80036; stroke-width: 1.0;"/><!--link DL to CommunicationSubsystem--><path d="M662.3687,501.6699 C634.764,515.7873 550.8368,558.7091 497.8551,585.8047 " fill="none" id="DL-CommunicationSubsystem" style="stroke: #A80036; stroke-width: 1.0;"/><!--link GR to CommunicationSubsystem--><path d="M395.5737,506.1654 C405.1176,523.4059 426.0071,561.1419 439.6524,585.7914 " fill="none" id="GR-CommunicationSubsystem" style="stroke: #A80036; stroke-width: 1.0;"/><!--link US to CommunicationSubsystem--><path d="M510.3444,506.1654 C500.6467,523.4059 479.4202,561.1419 465.5548,585.7914 " fill="none" id="US-CommunicationSubsystem" style="stroke: #A80036; stroke-width: 1.0;"/><!--link SA to SensorSubsystem--><path d="M878.5402,152.2593 C882.5625,170.5144 891.6242,211.6404 897.3788,237.7574 " fill="none" id="SA-SensorSubsystem" style="stroke: #A80036; stroke-width: 1.0;"/><!--link BC to SensorHardwareWrapper--><path d="M902.5,388.2593 C902.5,406.5144 902.5,447.6404 902.5,473.7574 " fill="none" id="BC-SensorHardwareWrapper" style="stroke: #A80036; stroke-width: 1.0;"/><!--link SensorSubsystem to BC--><path d="M902.5,284.0317 C902.5,307.9413 902.5,344.5947 902.5,364.6552 " fill="none" id="SensorSubsystem-BC" style="stroke: #A80036; stroke-width: 1.0; stroke-dasharray: 7.0,7.0;"/><polygon fill="#A80036" points="902.5,369.8489,906.5,360.8489,902.5,364.8489,898.5,360.8489,902.5,369.8489" style="stroke: #A80036; stroke-width: 1.0;"/><!--link UIA to UserSubsystem--><path d="M531.5182,152.2593 C525.6394,170.5144 512.3955,211.6404 503.9849,237.7574 " fill="none" id="UIA-UserSubsystem" style="stroke: #A80036; stroke-width: 1.0;"/><!--link UISubsystem to UIA--><path d="M597.9239,54.2065 C581.7226,76.8884 557.6053,110.6526 544.2633,129.3314 " fill="none" id="UISubsystem-UIA" style="stroke: #A80036; stroke-width: 1.0; stroke-dasharray: 7.0,7.0;"/><polygon fill="#A80036" points="541.1148,133.7393,549.6009,128.7407,544.021,129.6707,543.0911,124.0908,541.1148,133.7393" style="stroke: #A80036; stroke-width: 1.0;"/><!--link LS to LocalStorageSubsystem--><path d="M106.5,506.1654 C106.5,523.4059 106.5,561.1419 106.5,585.7914 " fill="none" id="LS-LocalStorageSubsystem" style="stroke: #A80036; stroke-width: 1.0;"/><!--link LocalVSSSubsystem to LS--><path d="M261.1952,402.0157 C234.3572,412.3636 203.6823,425.7043 177.5,441 C155.6334,453.7744 133.133,472.6852 119.4799,484.9267 " fill="none" id="LocalVSSSubsystem-LS" style="stroke: #A80036; stroke-width: 1.0; stroke-dasharray: 7.0,7.0;"/><polygon fill="#A80036" points="115.5373,488.4976,124.8932,485.4208,119.2433,485.1412,119.523,479.4912,115.5373,488.4976" style="stroke: #A80036; stroke-width: 1.0;"/><!--link UIA to OnlineVSSSubsystem--><path d="M547.6753,152.6564 C572.8756,171.1262 628.5385,211.9226 663.9107,237.8476 " fill="none" id="UIA-OnlineVSSSubsystem" style="stroke: #A80036; stroke-width: 1.0; stroke-dasharray: 7.0,7.0;"/><polygon fill="#A80036" points="543.6174,149.6823,548.512,158.2288,547.6502,152.638,553.2411,151.7763,543.6174,149.6823" style="stroke: #A80036; stroke-width: 1.0;"/><!--link CommunicationSubsystem to HttpService--><path d="M452.5,632.2065 C452.5,654.504 452.5,687.5112 452.5,706.3687 " fill="none" id="CommunicationSubsystem-HttpService" style="stroke: #A80036; stroke-width: 1.0; stroke-dasharray: 7.0,7.0;"/><polygon fill="#A80036" points="452.5,711.7393,456.5,702.7393,452.5,706.7393,448.5,702.7393,452.5,711.7393" style="stroke: #A80036; stroke-width: 1.0;"/><!--link HttpService to ServerSubsystem--><path d="M452.5,730.1654 C452.5,747.4059 452.5,785.1419 452.5,809.7914 " fill="none" id="HttpService-ServerSubsystem" style="stroke: #A80036; stroke-width: 1.0;"/><!--link OVA to OnlineVSSSubsystem--><path d="M695.5,152.2593 C695.5,170.5144 695.5,211.6404 695.5,237.7574 " fill="none" id="OVA-OnlineVSSSubsystem" style="stroke: #A80036; stroke-width: 1.0;"/><!--link LVA to LocalVSSSubsystem--><path d="M328.5,270.2593 C328.5,288.5144 328.5,329.6404 328.5,355.7574 " fill="none" id="LVA-LocalVSSSubsystem" style="stroke: #A80036; stroke-width: 1.0;"/><!--link LocalVSSSubsystem to UL--><path d="M314.0564,402.0317 C298.87,426.2479 275.4855,463.5367 263.0172,483.4185 " fill="none" id="LocalVSSSubsystem-UL" style="stroke: #A80036; stroke-width: 1.0; stroke-dasharray: 7.0,7.0;"/><polygon fill="#A80036" points="260.2388,487.8489,268.4093,482.3495,262.8953,483.613,261.6318,478.0991,260.2388,487.8489" style="stroke: #A80036; stroke-width: 1.0;"/><!--link GR to LocalVSSSubsystem--><path d="M383.364,483.4185 C372.9176,463.5367 353.3252,426.2479 340.6014,402.0317 " fill="none" id="GR-LocalVSSSubsystem" style="stroke: #A80036; stroke-width: 1.0; stroke-dasharray: 7.0,7.0;"/><polygon fill="#A80036" points="385.6918,487.8489,385.0468,478.0212,383.3662,483.4226,377.9648,481.7421,385.6918,487.8489" style="stroke: #A80036; stroke-width: 1.0;"/><!--link LocalVSSSubsystem to US--><path d="M379.2231,402.1285 C401.1526,412.9013 426.7238,426.5282 448.5,441 C468.6385,454.3834 489.6911,472.8283 502.7012,484.8324 " fill="none" id="LocalVSSSubsystem-US" style="stroke: #A80036; stroke-width: 1.0; stroke-dasharray: 7.0,7.0;"/><polygon fill="#A80036" points="506.4708,488.3383,502.6046,479.28,502.8095,484.9332,497.1564,485.1381,506.4708,488.3383" style="stroke: #A80036; stroke-width: 1.0;"/><!--link OnlineVSSSubsystem to DL--><path d="M693.1551,284.0584 C688.2535,332.2569 677.0429,442.4944 672.9937,482.3119 " fill="none" id="OnlineVSSSubsystem-DL" style="stroke: #A80036; stroke-width: 1.0; stroke-dasharray: 7.0,7.0;"/><polygon fill="#A80036" points="672.4498,487.6599,677.3398,479.1108,672.9557,482.6856,669.3809,478.3014,672.4498,487.6599" style="stroke: #A80036; stroke-width: 1.0;"/><!--link UserSubsystem to US--><path d="M498.3564,284.0584 C502.2368,332.2569 511.1118,442.4944 514.3175,482.3119 " fill="none" id="UserSubsystem-US" style="stroke: #A80036; stroke-width: 1.0; stroke-dasharray: 7.0,7.0;"/><polygon fill="#A80036" points="514.748,487.6599,518.0128,478.3679,514.3467,482.676,510.0386,479.01,514.748,487.6599" style="stroke: #A80036; stroke-width: 1.0;"/><!--link UISubsystem to OVA--><path d="M631.2833,54.2065 C647.6871,76.8884 672.1059,110.6526 685.6147,129.3314 " fill="none" id="UISubsystem-OVA" style="stroke: #A80036; stroke-width: 1.0; stroke-dasharray: 7.0,7.0;"/><polygon fill="#A80036" points="688.8025,133.7393,686.7694,124.1026,685.8723,129.6879,680.2871,128.7908,688.8025,133.7393" style="stroke: #A80036; stroke-width: 1.0;"/><!--link UISubsystem to LVA--><path d="M559.2288,54.1566 C527.7217,68.7922 488.4717,89.5422 457.5,114 C405.1411,155.3469 357.1618,219.8222 337.6841,247.5646 " fill="none" id="UISubsystem-LVA" style="stroke: #A80036; stroke-width: 1.0; stroke-dasharray: 7.0,7.0;"/><polygon fill="#A80036" points="334.8065,251.6925,343.2348,246.597,337.6659,247.5908,336.6721,242.0219,334.8065,251.6925" style="stroke: #A80036; stroke-width: 1.0;"/><!--link UISubsystem to SA--><path d="M668.4689,54.0707 C729.863,80.3155 826.2665,121.5261 862.292,136.9264 " fill="none" id="UISubsystem-SA" style="stroke: #A80036; stroke-width: 1.0; stroke-dasharray: 7.0,7.0;"/><polygon fill="#A80036" points="867.1578,139.0064,860.4546,131.7907,862.5603,137.041,857.3099,139.1467,867.1578,139.0064" style="stroke: #A80036; stroke-width: 1.0;"/><!--
@startuml Diagrams/SubsystemDecomposition
skinparam componentStyle uml2

interface "LocalStorage" as LS

interface "SensorAccess" as SA
interface "RawSensorDataAccess" as BC
interface "UserInfoAccess" as UIA
interface "OnlineVSSAccess" as OVA
interface "LocalVSSAccess" as LVA




package "CommunicationService" {
    interface "UploadVSSMeta" as UL
    interface "DownloadVSSMeta" as DL
    interface "UploadSF" as GR
    interface "DownloadSF" as US    
}
component "CommunicationSubsystem" as CommunicationSubsystem

    UL - - CommunicationSubsystem
    DL - - CommunicationSubsystem
    GR - - CommunicationSubsystem
    US - - CommunicationSubsystem

[LocalVSSSubsystem]
[OnlineVSSSubsystem]
[SensorSubsystem] -up- SA
[SensorHardwareWrapper] -up- BC
[SensorSubsystem] ..> BC
[UserSubsystem] -up- UIA
[UISubsystem] ..> UIA

[LocalStorageSubsystem] -up- LS
[LocalVSSSubsystem] ..> LS


UIA <. [OnlineVSSSubsystem]


[CommunicationSubsystem] .down.> HttpService
[ServerSubsystem] -up- HttpService
[OnlineVSSSubsystem] -up- OVA
[LocalVSSSubsystem] -up- LVA

[LocalVSSSubsystem] .down.> UL
[LocalVSSSubsystem] .up.> GR
[LocalVSSSubsystem] .down.> US
[OnlineVSSSubsystem] .-down.> DL
[UserSubsystem] .-down-> US

[UISubsystem] -down.> OVA
[UISubsystem] .down.> LVA
[UISubsystem] ..> SA
@enduml

PlantUML version 1.2018.01(Mon Jan 29 02:08:22 CST 2018)
(GPL source distribution)
Java Runtime: Java(TM) SE Runtime Environment
JVM: Java HotSpot(TM) 64-Bit Server VM
Java Version: 9+181
Operating System: Mac OS X
OS Version: 10.12.6
Default Encoding: UTF-8
Language: zh
Country: CN
--></g></svg>