<?xml version="1.0" encoding="UTF-8" standalone="no"?><svg xmlns="http://www.w3.org/2000/svg" xmlns:xlink="http://www.w3.org/1999/xlink" contentScriptType="application/ecmascript" contentStyleType="text/css" height="879px" preserveAspectRatio="none" style="width:1104px;height:879px;" version="1.1" viewBox="0 0 1104 879"
    width="1104px" zoomAndPan="magnify"><defs><filter height="300%" id="fgzspptmyuz2c" width="300%" x="-1" y="-1"><feGaussianBlur result="blurOut" stdDeviation="2.0"/><feColorMatrix in="blurOut" result="blurOut2" type="matrix" values="0 0 0 0 0 0 0 0 0 0 0 0 0 0 0 0 0 0 .4 0"/><feOffset dx="4.0" dy="4.0" in="blurOut2" result="blurOut3"/><feBlend in="SourceGraphic" in2="blurOut3" mode="normal"/></filter></defs><g><!--cluster CommunicationService--><polygon fill="#FFFFFF" filter="url(#fgzspptmyuz2c)" points="185.5,453,355.5,453,362.5,475.4883,750.5,475.4883,750.5,546,185.5,546,185.5,453" style="stroke: #000000; stroke-width: 1.5;"/><line style="stroke: #000000; stroke-width: 1.5;" x1="185.5" x2="362.5" y1="475.4883" y2="475.4883"/><text fill="#000000" font-family="sans-serif" font-size="14" font-weight="bold" lengthAdjust="spacingAndGlyphs" textLength="164" x="189.5" y="468.5352">CommunicationService</text><!--entity UL--><ellipse cx="254.5" cy="509" fill="#FEFECE" filter="url(#fgzspptmyuz2c)" rx="8" ry="8" style="stroke: #A80036; stroke-width: 2.0;"/><text fill="#000000" font-family="sans-serif" font-size="14" lengthAdjust="spacingAndGlyphs" textLength="107" x="201" y="539.5352">UploadVSSMeta</text><!--entity DL--><ellipse cx="671.5" cy="509" fill="#FEFECE" filter="url(#fgzspptmyuz2c)" rx="8" ry="8" style="stroke: #A80036; stroke-width: 2.0;"/><text fill="#000000" font-family="sans-serif" font-size="14" lengthAdjust="spacingAndGlyphs" textLength="127" x="608" y="539.5352">DownloadVSSMeta</text><!--entity GR--><ellipse cx="390.5" cy="509" fill="#FEFECE" filter="url(#fgzspptmyuz2c)" rx="8" ry="8" style="stroke: #A80036; stroke-width: 2.0;"/><text fill="#000000" font-family="sans-serif" font-size="14" lengthAdjust="spacingAndGlyphs" textLength="65" x="358" y="539.5352">UploadSF</text><!--entity US--><ellipse cx="515.5" cy="509" fill="#FEFECE" filter="url(#fgzspptmyuz2c)" rx="8" ry="8" style="stroke: #A80036; stroke-width: 2.0;"/><text fill="#000000" font-family="sans-serif" font-size="14" lengthAdjust="spacingAndGlyphs" textLength="85" x="473" y="539.5352">DownloadSF</text><!--entity LS--><ellipse cx="106.5" cy="509" fill="#FEFECE" filter="url(#fgzspptmyuz2c)" rx="8" ry="8" style="stroke: #A80036; stroke-width: 2.0;"/><text fill="#000000" font-family="sans-serif" font-size="14" lengthAdjust="spacingAndGlyphs" textLength="88" x="62.5" y="539.5352">LocalStorage</text><!--entity SA--><ellipse cx="850.5" cy="155" fill="#FEFECE" filter="url(#fgzspptmyuz2c)" rx="8" ry="8" style="stroke: #A80036; stroke-width: 2.0;"/><text fill="#000000" font-family="sans-serif" font-size="14" lengthAdjust="spacingAndGlyphs" textLength="93" x="804" y="185.5352">SensorAccess</text><!--entity BC--><ellipse cx="902.5" cy="391" fill="#FEFECE" filter="url(#fgzspptmyuz2c)" rx="8" ry="8" style="stroke: #A80036; stroke-width: 2.0;"/><text fill="#000000" font-family="sans-serif" font-size="14" lengthAdjust="spacingAndGlyphs" textLength="152" x="826.5" y="421.5352">RawSensorDataAccess</text><!--entity UIA--><ellipse cx="534.5" cy="155" fill="#FEFECE" filter="url(#fgzspptmyuz2c)" rx="8" ry="8" style="stroke: #A80036; stroke-width: 2.0;"/><text fill="#000000" font-family="sans-serif" font-size="14" lengthAdjust="spacingAndGlyphs" textLength="104" x="482.5" y="185.5352">UserInfoAccess</text><!--entity OVA--><ellipse cx="695.5" cy="155" fill="#FEFECE" filter="url(#fgzspptmyuz2c)" rx="8" ry="8" style="stroke: #A80036; stroke-width: 2.0;"/><text fill="#000000" font-family="sans-serif" font-size="14" lengthAdjust="spacingAndGlyphs" textLength="116" x="637.5" y="185.5352">OnlineVSSAccess</text><!--entity LVA--><ellipse cx="328.5" cy="273" fill="#FEFECE" filter="url(#fgzspptmyuz2c)" rx="8" ry="8" style="stroke: #A80036; stroke-width: 2.0;"/><text fill="#000000" font-family="sans-serif" font-size="14" lengthAdjust="spacingAndGlyphs" textLength="106" x="275.5" y="303.5352">LocalVSSAccess</text><!--entity AC--><ellipse cx="932.5" cy="37" fill="#FEFECE" filter="url(#fgzspptmyuz2c)" rx="8" ry="8" style="stroke: #A80036; stroke-width: 2.0;"/><text fill="#000000" font-family="sans-serif" font-size="14" lengthAdjust="spacingAndGlyphs" textLength="93" x="886" y="67.5352">AudioControl</text><!--entity CommunicationSubsystem--><rect fill="#FEFECE" filter="url(#fgzspptmyuz2c)" height="46.4883" style="stroke: #A80036; stroke-width: 1.5;" width="222" x="341.5" y="598"/><rect fill="#FEFECE" height="10" style="stroke: #A80036; stroke-width: 1.5;" width="15" x="543.5" y="603"/><rect fill="#FEFECE" height="2" style="stroke: #A80036; stroke-width: 1.5;" width="4" x="541.5" y="605"/><rect fill="#FEFECE" height="2" style="stroke: #A80036; stroke-width: 1.5;" width="4" x="541.5" y="609"/><text fill="#000000" font-family="sans-serif" font-size="14" lengthAdjust="spacingAndGlyphs" textLength="182" x="356.5" y="631.5352">CommunicationSubsystem</text><!--entity LocalVSSSubsystem--><rect fill="#FEFECE" filter="url(#fgzspptmyuz2c)" height="46.4883" style="stroke: #A80036; stroke-width: 1.5;" width="173" x="242" y="368"/><rect fill="#FEFECE" height="10" style="stroke: #A80036; stroke-width: 1.5;" width="15" x="395" y="373"/><rect fill="#FEFECE" height="2" style="stroke: #A80036; stroke-width: 1.5;" width="4" x="393" y="375"/><rect fill="#FEFECE" height="2" style="stroke: #A80036; stroke-width: 1.5;" width="4" x="393" y="379"/><text fill="#000000" font-family="sans-serif" font-size="14" lengthAdjust="spacingAndGlyphs" textLength="133" x="257" y="401.5352">LocalVSSSubsystem</text><!--entity OnlineVSSSubsystem--><rect fill="#FEFECE" filter="url(#fgzspptmyuz2c)" height="46.4883" style="stroke: #A80036; stroke-width: 1.5;" width="183" x="604" y="250"/><rect fill="#FEFECE" height="10" style="stroke: #A80036; stroke-width: 1.5;" width="15" x="767" y="255"/><rect fill="#FEFECE" height="2" style="stroke: #A80036; stroke-width: 1.5;" width="4" x="765" y="257"/><rect fill="#FEFECE" height="2" style="stroke: #A80036; stroke-width: 1.5;" width="4" x="765" y="261"/><text fill="#000000" font-family="sans-serif" font-size="14" lengthAdjust="spacingAndGlyphs" textLength="143" x="619" y="283.5352">OnlineVSSSubsystem</text><!--entity SensorSubsystem--><rect fill="#FEFECE" filter="url(#fgzspptmyuz2c)" height="46.4883" style="stroke: #A80036; stroke-width: 1.5;" width="160" x="822.5" y="250"/><rect fill="#FEFECE" height="10" style="stroke: #A80036; stroke-width: 1.5;" width="15" x="962.5" y="255"/><rect fill="#FEFECE" height="2" style="stroke: #A80036; stroke-width: 1.5;" width="4" x="960.5" y="257"/><rect fill="#FEFECE" height="2" style="stroke: #A80036; stroke-width: 1.5;" width="4" x="960.5" y="261"/><text fill="#000000" font-family="sans-serif" font-size="14" lengthAdjust="spacingAndGlyphs" textLength="120" x="837.5" y="283.5352">SensorSubsystem</text><!--entity SensorHardwareWrapper--><rect fill="#FEFECE" filter="url(#fgzspptmyuz2c)" height="46.4883" style="stroke: #A80036; stroke-width: 1.5;" width="211" x="797" y="486"/><rect fill="#FEFECE" height="10" style="stroke: #A80036; stroke-width: 1.5;" width="15" x="988" y="491"/><rect fill="#FEFECE" height="2" style="stroke: #A80036; stroke-width: 1.5;" width="4" x="986" y="493"/><rect fill="#FEFECE" height="2" style="stroke: #A80036; stroke-width: 1.5;" width="4" x="986" y="497"/><text fill="#000000" font-family="sans-serif" font-size="14" lengthAdjust="spacingAndGlyphs" textLength="171" x="812" y="519.5352">SensorHardwareWrapper</text><!--entity UserSubsystem--><rect fill="#FEFECE" filter="url(#fgzspptmyuz2c)" height="46.4883" style="stroke: #A80036; stroke-width: 1.5;" width="144" x="424.5" y="250"/><rect fill="#FEFECE" height="10" style="stroke: #A80036; stroke-width: 1.5;" width="15" x="548.5" y="255"/><rect fill="#FEFECE" height="2" style="stroke: #A80036; stroke-width: 1.5;" width="4" x="546.5" y="257"/><rect fill="#FEFECE" height="2" style="stroke: #A80036; stroke-width: 1.5;" width="4" x="546.5" y="261"/><text fill="#000000" font-family="sans-serif" font-size="14" lengthAdjust="spacingAndGlyphs" textLength="104" x="439.5" y="283.5352">UserSubsystem</text><!--entity UISubsystem--><rect fill="#FEFECE" filter="url(#fgzspptmyuz2c)" height="46.4883" style="stroke: #A80036; stroke-width: 1.5;" width="127" x="632" y="14"/><rect fill="#FEFECE" height="10" style="stroke: #A80036; stroke-width: 1.5;" width="15" x="739" y="19"/><rect fill="#FEFECE" height="2" style="stroke: #A80036; stroke-width: 1.5;" width="4" x="737" y="21"/><rect fill="#FEFECE" height="2" style="stroke: #A80036; stroke-width: 1.5;" width="4" x="737" y="25"/><text fill="#000000" font-family="sans-serif" font-size="14" lengthAdjust="spacingAndGlyphs" textLength="87" x="647" y="47.5352">UISubsystem</text><!--entity LocalStorageSubsystem--><rect fill="#FEFECE" filter="url(#fgzspptmyuz2c)" height="46.4883" style="stroke: #A80036; stroke-width: 1.5;" width="201" x="6" y="598"/><rect fill="#FEFECE" height="10" style="stroke: #A80036; stroke-width: 1.5;" width="15" x="187" y="603"/><rect fill="#FEFECE" height="2" style="stroke: #A80036; stroke-width: 1.5;" width="4" x="185" y="605"/><rect fill="#FEFECE" height="2" style="stroke: #A80036; stroke-width: 1.5;" width="4" x="185" y="609"/><text fill="#000000" font-family="sans-serif" font-size="14" lengthAdjust="spacingAndGlyphs" textLength="161" x="21" y="631.5352">LocalStorageSubsystem</text><!--entity AudioSubsystem--><rect fill="#FEFECE" filter="url(#fgzspptmyuz2c)" height="46.4883" style="stroke: #A80036; stroke-width: 1.5;" width="154" x="939.5" y="132"/><rect fill="#FEFECE" height="10" style="stroke: #A80036; stroke-width: 1.5;" width="15" x="1073.5" y="137"/><rect fill="#FEFECE" height="2" style="stroke: #A80036; stroke-width: 1.5;" width="4" x="1071.5" y="139"/><rect fill="#FEFECE" height="2" style="stroke: #A80036; stroke-width: 1.5;" width="4" x="1071.5" y="143"/><text fill="#000000" font-family="sans-serif" font-size="14" lengthAdjust="spacingAndGlyphs" textLength="114" x="954.5" y="165.5352">AudioSubsystem</text><!--entity HttpService--><ellipse cx="452.5" cy="733" fill="#FEFECE" filter="url(#fgzspptmyuz2c)" rx="8" ry="8" style="stroke: #A80036; stroke-width: 2.0;"/><text fill="#000000" font-family="sans-serif" font-size="14" lengthAdjust="spacingAndGlyphs" textLength="77" x="414" y="763.5352">HttpService</text><!--entity ServerSubsystem--><rect fill="#FEFECE" filter="url(#fgzspptmyuz2c)" height="46.4883" style="stroke: #A80036; stroke-width: 1.5;" width="156" x="374.5" y="822"/><rect fill="#FEFECE" height="10" style="stroke: #A80036; stroke-width: 1.5;" width="15" x="510.5" y="827"/><rect fill="#FEFECE" height="2" style="stroke: #A80036; stroke-width: 1.5;" width="4" x="508.5" y="829"/><rect fill="#FEFECE" height="2" style="stroke: #A80036; stroke-width: 1.5;" width="4" x="508.5" y="833"/><text fill="#000000" font-family="sans-serif" font-size="14" lengthAdjust="spacingAndGlyphs" textLength="116" x="389.5" y="855.5352">ServerSubsystem</text><!--link UL to CommunicationSubsystem--><path d="M263.5222,514.1034 C289.2443,528.6534 364.1395,571.0183 411.5569,597.8402 " fill="none" id="UL-CommunicationSubsystem" style="stroke: #A80036; stroke-width: 1.0;"/><!--link DL to CommunicationSubsystem--><path d="M662.3687,513.6699 C634.764,527.7873 550.8368,570.7091 497.8551,597.8047 " fill="none" id="DL-CommunicationSubsystem" style="stroke: #A80036; stroke-width: 1.0;"/><!--link GR to CommunicationSubsystem--><path d="M395.5737,518.1654 C405.1176,535.4059 426.0071,573.1419 439.6524,597.7914 " fill="none" id="GR-CommunicationSubsystem" style="stroke: #A80036; stroke-width: 1.0;"/><!--link US to CommunicationSubsystem--><path d="M510.3444,518.1654 C500.6467,535.4059 479.4202,573.1419 465.5548,597.7914 " fill="none" id="US-CommunicationSubsystem" style="stroke: #A80036; stroke-width: 1.0;"/><!--link SA to SensorSubsystem--><path d="M854.5804,164.2593 C862.625,182.5144 880.7483,223.6404 892.2575,249.7574 " fill="none" id="SA-SensorSubsystem" style="stroke: #A80036; stroke-width: 1.0;"/><!--link BC to SensorHardwareWrapper--><path d="M902.5,400.2593 C902.5,418.5144 902.5,459.6404 902.5,485.7574 " fill="none" id="BC-SensorHardwareWrapper" style="stroke: #A80036; stroke-width: 1.0;"/><!--link SensorSubsystem to BC--><path d="M902.5,296.0317 C902.5,319.9413 902.5,356.5947 902.5,376.6552 " fill="none" id="SensorSubsystem-BC" style="stroke: #A80036; stroke-width: 1.0; stroke-dasharray: 7.0,7.0;"/><polygon fill="#A80036" points="902.5,381.8489,906.5,372.8489,902.5,376.8489,898.5,372.8489,902.5,381.8489" style="stroke: #A80036; stroke-width: 1.0;"/><!--link UIA to UserSubsystem--><path d="M531.5182,164.2593 C525.6394,182.5144 512.3955,223.6404 503.9849,249.7574 " fill="none" id="UIA-UserSubsystem" style="stroke: #A80036; stroke-width: 1.0;"/><!--link UISubsystem to UIA--><path d="M664.0754,60.0317 C628.7805,85.9 573.1324,126.6855 547.8234,145.235 " fill="none" id="UISubsystem-UIA" style="stroke: #A80036; stroke-width: 1.0; stroke-dasharray: 7.0,7.0;"/><polygon fill="#A80036" points="543.7453,148.2239,553.3689,146.1295,547.778,145.268,548.6395,139.6772,543.7453,148.2239" style="stroke: #A80036; stroke-width: 1.0;"/><!--link LS to LocalStorageSubsystem--><path d="M106.5,518.1654 C106.5,535.4059 106.5,573.1419 106.5,597.7914 " fill="none" id="LS-LocalStorageSubsystem" style="stroke: #A80036; stroke-width: 1.0;"/><!--link LocalVSSSubsystem to LS--><path d="M261.1952,414.0157 C234.3572,424.3636 203.6823,437.7043 177.5,453 C155.6334,465.7744 133.133,484.6852 119.4799,496.9267 " fill="none" id="LocalVSSSubsystem-LS" style="stroke: #A80036; stroke-width: 1.0; stroke-dasharray: 7.0,7.0;"/><polygon fill="#A80036" points="115.5373,500.4976,124.8932,497.4208,119.2433,497.1412,119.523,491.4912,115.5373,500.4976" style="stroke: #A80036; stroke-width: 1.0;"/><!--link AC to AudioSubsystem--><path d="M939.0913,46.2593 C952.0865,64.5144 981.3627,105.6404 999.9544,131.7574 " fill="none" id="AC-AudioSubsystem" style="stroke: #A80036; stroke-width: 1.0;"/><!--link UISubsystem to AC--><path d="M759.0117,37 C816.5994,37 896.4498,37 923.2866,37 " fill="none" id="UISubsystem-AC" style="stroke: #A80036; stroke-width: 1.0; stroke-dasharray: 7.0,7.0;"/><polygon fill="#A80036" points="923.2866,37,914.2866,33,918.2866,37,914.2866,41,923.2866,37" style="stroke: #A80036; stroke-width: 1.0;"/><!--link UIA to OnlineVSSSubsystem--><path d="M547.6753,164.6564 C572.8756,183.1262 628.5385,223.9226 663.9107,249.8476 " fill="none" id="UIA-OnlineVSSSubsystem" style="stroke: #A80036; stroke-width: 1.0; stroke-dasharray: 7.0,7.0;"/><polygon fill="#A80036" points="543.6174,161.6823,548.512,170.2288,547.6502,164.638,553.2411,163.7763,543.6174,161.6823" style="stroke: #A80036; stroke-width: 1.0;"/><!--link CommunicationSubsystem to HttpService--><path d="M452.5,644.2065 C452.5,666.504 452.5,699.5112 452.5,718.3687 " fill="none" id="CommunicationSubsystem-HttpService" style="stroke: #A80036; stroke-width: 1.0; stroke-dasharray: 7.0,7.0;"/><polygon fill="#A80036" points="452.5,723.7393,456.5,714.7393,452.5,718.7393,448.5,714.7393,452.5,723.7393" style="stroke: #A80036; stroke-width: 1.0;"/><!--link HttpService to ServerSubsystem--><path d="M452.5,742.1654 C452.5,759.4059 452.5,797.1419 452.5,821.7914 " fill="none" id="HttpService-ServerSubsystem" style="stroke: #A80036; stroke-width: 1.0;"/><!--link OVA to OnlineVSSSubsystem--><path d="M695.5,164.2593 C695.5,182.5144 695.5,223.6404 695.5,249.7574 " fill="none" id="OVA-OnlineVSSSubsystem" style="stroke: #A80036; stroke-width: 1.0;"/><!--link LVA to LocalVSSSubsystem--><path d="M328.5,282.2593 C328.5,300.5144 328.5,341.6404 328.5,367.7574 " fill="none" id="LVA-LocalVSSSubsystem" style="stroke: #A80036; stroke-width: 1.0;"/><!--link LocalVSSSubsystem to UL--><path d="M314.0564,414.0317 C298.87,438.2479 275.4855,475.5367 263.0172,495.4185 " fill="none" id="LocalVSSSubsystem-UL" style="stroke: #A80036; stroke-width: 1.0; stroke-dasharray: 7.0,7.0;"/><polygon fill="#A80036" points="260.2388,499.8489,268.4093,494.3495,262.8953,495.613,261.6318,490.0991,260.2388,499.8489" style="stroke: #A80036; stroke-width: 1.0;"/><!--link GR to LocalVSSSubsystem--><path d="M383.364,495.4185 C372.9176,475.5367 353.3252,438.2479 340.6014,414.0317 " fill="none" id="GR-LocalVSSSubsystem" style="stroke: #A80036; stroke-width: 1.0; stroke-dasharray: 7.0,7.0;"/><polygon fill="#A80036" points="385.6918,499.8489,385.0468,490.0212,383.3662,495.4226,377.9648,493.7421,385.6918,499.8489" style="stroke: #A80036; stroke-width: 1.0;"/><!--link LocalVSSSubsystem to US--><path d="M379.2231,414.1285 C401.1526,424.9013 426.7238,438.5282 448.5,453 C468.6385,466.3834 489.6911,484.8283 502.7012,496.8324 " fill="none" id="LocalVSSSubsystem-US" style="stroke: #A80036; stroke-width: 1.0; stroke-dasharray: 7.0,7.0;"/><polygon fill="#A80036" points="506.4708,500.3383,502.6046,491.28,502.8095,496.9332,497.1564,497.1381,506.4708,500.3383" style="stroke: #A80036; stroke-width: 1.0;"/><!--link OnlineVSSSubsystem to DL--><path d="M693.1551,296.0584 C688.2535,344.2569 677.0429,454.4944 672.9937,494.3119 " fill="none" id="OnlineVSSSubsystem-DL" style="stroke: #A80036; stroke-width: 1.0; stroke-dasharray: 7.0,7.0;"/><polygon fill="#A80036" points="672.4498,499.6599,677.3398,491.1108,672.9557,494.6856,669.3809,490.3014,672.4498,499.6599" style="stroke: #A80036; stroke-width: 1.0;"/><!--link UserSubsystem to US--><path d="M498.3564,296.0584 C502.2368,344.2569 511.1118,454.4944 514.3175,494.3119 " fill="none" id="UserSubsystem-US" style="stroke: #A80036; stroke-width: 1.0; stroke-dasharray: 7.0,7.0;"/><polygon fill="#A80036" points="514.748,499.6599,518.0128,490.3679,514.3467,494.676,510.0386,491.01,514.748,499.6599" style="stroke: #A80036; stroke-width: 1.0;"/><!--link UISubsystem to OVA--><path d="M695.5,60.0317 C695.5,83.9413 695.5,120.5947 695.5,140.6552 " fill="none" id="UISubsystem-OVA" style="stroke: #A80036; stroke-width: 1.0; stroke-dasharray: 7.0,7.0;"/><polygon fill="#A80036" points="695.5,145.8489,699.5,136.8489,695.5,140.8489,691.5,136.8489,695.5,145.8489" style="stroke: #A80036; stroke-width: 1.0;"/><!--link UISubsystem to LVA--><path d="M631.8263,51.6288 C581.4206,65.2832 510.8672,89.1606 457.5,126 C402.3299,164.084 355.5279,230.8614 337.0022,259.4205 " fill="none" id="UISubsystem-LVA" style="stroke: #A80036; stroke-width: 1.0; stroke-dasharray: 7.0,7.0;"/><polygon fill="#A80036" points="334.2748,263.6656,342.505,258.2559,336.9775,259.459,335.7744,253.9316,334.2748,263.6656" style="stroke: #A80036; stroke-width: 1.0;"/><!--link UISubsystem to SA--><path d="M725.7535,60.0317 C759.4268,85.6668 812.343,125.9515 837.0072,144.728 " fill="none" id="UISubsystem-SA" style="stroke: #A80036; stroke-width: 1.0; stroke-dasharray: 7.0,7.0;"/><polygon fill="#A80036" points="841.2727,147.9754,836.5346,139.3411,837.2944,144.9467,831.6887,145.7065,841.2727,147.9754" style="stroke: #A80036; stroke-width: 1.0;"/><!--
@startuml Diagrams/SubsystemDecomposition
skinparam componentStyle uml2

interface "LocalStorage" as LS

interface "SensorAccess" as SA
interface "RawSensorDataAccess" as BC
interface "UserInfoAccess" as UIA
interface "OnlineVSSAccess" as OVA
interface "LocalVSSAccess" as LVA
interface "AudioControl" as AC




package "CommunicationService" {
    interface "UploadVSSMeta" as UL
    interface "DownloadVSSMeta" as DL
    interface "UploadSF" as GR
    interface "DownloadSF" as US
}
component "CommunicationSubsystem" as CommunicationSubsystem

    UL - - CommunicationSubsystem
    DL - - CommunicationSubsystem
    GR - - CommunicationSubsystem
    US - - CommunicationSubsystem

[LocalVSSSubsystem]
[OnlineVSSSubsystem]
[SensorSubsystem] -up- SA
[SensorHardwareWrapper] -up- BC
[SensorSubsystem] ..> BC
[UserSubsystem] -up- UIA
[UISubsystem] ..> UIA

[LocalStorageSubsystem] -up- LS
[LocalVSSSubsystem] ..> LS
[AudioSubsystem] -up- AC
[UISubsystem] .-r.> AC


UIA <. [OnlineVSSSubsystem]


[CommunicationSubsystem] .down.> HttpService
[ServerSubsystem] -up- HttpService
[OnlineVSSSubsystem] -up- OVA
[LocalVSSSubsystem] -up- LVA

[LocalVSSSubsystem] .down.> UL
[LocalVSSSubsystem] .up.> GR
[LocalVSSSubsystem] .down.> US
[OnlineVSSSubsystem] .-down.> DL
[UserSubsystem] .-down-> US

[UISubsystem] -down.> OVA
[UISubsystem] .down.> LVA
[UISubsystem] ..> SA
@enduml

PlantUML version 1.2018.01(Mon Jan 29 02:08:22 CST 2018)
(GPL source distribution)
Java Runtime: Java(TM) SE Runtime Environment
JVM: Java HotSpot(TM) 64-Bit Server VM
Java Version: 9+181
Operating System: Mac OS X
OS Version: 10.12.6
Default Encoding: UTF-8
Language: zh
Country: CN
--></g></svg>