<?xml version="1.0" encoding="UTF-8" standalone="no"?><svg xmlns="http://www.w3.org/2000/svg" xmlns:xlink="http://www.w3.org/1999/xlink" contentScriptType="application/ecmascript" contentStyleType="text/css" height="921px" preserveAspectRatio="none" style="width:1144px;height:921px;" version="1.1" viewBox="0 0 1144 921" width="1144px" zoomAndPan="magnify"><defs><filter height="300%" id="f8pl04y0rhl55" width="300%" x="-1" y="-1"><feGaussianBlur result="blurOut" stdDeviation="2.0"/><feColorMatrix in="blurOut" result="blurOut2" type="matrix" values="0 0 0 0 0 0 0 0 0 0 0 0 0 0 0 0 0 0 .4 0"/><feOffset dx="4.0" dy="4.0" in="blurOut2" result="blurOut3"/><feBlend in="SourceGraphic" in2="blurOut3" mode="normal"/></filter></defs><g><!--cluster CommunicationService--><polygon fill="#FFFFFF" filter="url(#f8pl04y0rhl55)" points="22,466,190,466,197,491.1201,779,491.1201,779,584,22,584,22,466" style="stroke: #000000; stroke-width: 1.5;"/><line style="stroke: #000000; stroke-width: 1.5;" x1="22" x2="197" y1="491.1201" y2="491.1201"/><text fill="#000000" font-family="sans-serif" font-size="14" font-weight="bold" lengthAdjust="spacingAndGlyphs" textLength="162" x="26" y="484.0439">CommunicationService</text><!--entity UM--><ellipse cx="591" cy="536" fill="#FEFECE" filter="url(#f8pl04y0rhl55)" rx="8" ry="8" style="stroke: #A80036; stroke-width: 2.0;"/><text fill="#000000" font-family="sans-serif" font-size="14" lengthAdjust="spacingAndGlyphs" textLength="102" x="540" y="569.0439">UploadVSSMeta</text><!--entity DL--><ellipse cx="298" cy="536" fill="#FEFECE" filter="url(#f8pl04y0rhl55)" rx="8" ry="8" style="stroke: #A80036; stroke-width: 2.0;"/><text fill="#000000" font-family="sans-serif" font-size="14" lengthAdjust="spacingAndGlyphs" textLength="120" x="238" y="569.0439">DownloadVSSMeta</text><!--entity GR--><ellipse cx="724" cy="536" fill="#FEFECE" filter="url(#f8pl04y0rhl55)" rx="8" ry="8" style="stroke: #A80036; stroke-width: 2.0;"/><text fill="#000000" font-family="sans-serif" font-size="14" lengthAdjust="spacingAndGlyphs" textLength="62" x="693" y="569.0439">UploadSF</text><!--entity US--><ellipse cx="449" cy="536" fill="#FEFECE" filter="url(#f8pl04y0rhl55)" rx="8" ry="8" style="stroke: #A80036; stroke-width: 2.0;"/><text fill="#000000" font-family="sans-serif" font-size="14" lengthAdjust="spacingAndGlyphs" textLength="80" x="409" y="569.0439">DownloadSF</text><!--entity RG--><ellipse cx="161" cy="536" fill="#FEFECE" filter="url(#f8pl04y0rhl55)" rx="8" ry="8" style="stroke: #A80036; stroke-width: 2.0;"/><text fill="#000000" font-family="sans-serif" font-size="14" lengthAdjust="spacingAndGlyphs" textLength="53" x="134.5" y="569.0439">Register</text><!--entity LG--><ellipse cx="65" cy="536" fill="#FEFECE" filter="url(#f8pl04y0rhl55)" rx="8" ry="8" style="stroke: #A80036; stroke-width: 2.0;"/><text fill="#000000" font-family="sans-serif" font-size="14" lengthAdjust="spacingAndGlyphs" textLength="35" x="47.5" y="569.0439">Login</text><!--entity LS--><ellipse cx="848" cy="536" fill="#FEFECE" filter="url(#f8pl04y0rhl55)" rx="8" ry="8" style="stroke: #A80036; stroke-width: 2.0;"/><text fill="#000000" font-family="sans-serif" font-size="14" lengthAdjust="spacingAndGlyphs" textLength="84" x="806" y="569.0439">LocalStorage</text><!--entity SA--><ellipse cx="749" cy="164" fill="#FEFECE" filter="url(#f8pl04y0rhl55)" rx="8" ry="8" style="stroke: #A80036; stroke-width: 2.0;"/><text fill="#000000" font-family="sans-serif" font-size="14" lengthAdjust="spacingAndGlyphs" textLength="90" x="704" y="197.0439">SensorAccess</text><!--entity BC--><ellipse cx="921" cy="412" fill="#FEFECE" filter="url(#f8pl04y0rhl55)" rx="8" ry="8" style="stroke: #A80036; stroke-width: 2.0;"/><text fill="#000000" font-family="sans-serif" font-size="14" lengthAdjust="spacingAndGlyphs" textLength="147" x="847.5" y="445.0439">RawSensorDataAccess</text><!--entity UIA--><ellipse cx="260" cy="288" fill="#FEFECE" filter="url(#f8pl04y0rhl55)" rx="8" ry="8" style="stroke: #A80036; stroke-width: 2.0;"/><text fill="#000000" font-family="sans-serif" font-size="14" lengthAdjust="spacingAndGlyphs" textLength="97" x="211.5" y="321.0439">UserInfoAccess</text><!--entity OVA--><ellipse cx="440" cy="164" fill="#FEFECE" filter="url(#f8pl04y0rhl55)" rx="8" ry="8" style="stroke: #A80036; stroke-width: 2.0;"/><text fill="#000000" font-family="sans-serif" font-size="14" lengthAdjust="spacingAndGlyphs" textLength="113" x="383.5" y="197.0439">OnlineVSSAccess</text><!--entity LVA--><ellipse cx="600" cy="164" fill="#FEFECE" filter="url(#f8pl04y0rhl55)" rx="8" ry="8" style="stroke: #A80036; stroke-width: 2.0;"/><text fill="#000000" font-family="sans-serif" font-size="14" lengthAdjust="spacingAndGlyphs" textLength="106" x="547" y="197.0439">LocalVSSAccess</text><!--entity AC--><ellipse cx="827" cy="40" fill="#FEFECE" filter="url(#f8pl04y0rhl55)" rx="8" ry="8" style="stroke: #A80036; stroke-width: 2.0;"/><text fill="#000000" font-family="sans-serif" font-size="14" lengthAdjust="spacingAndGlyphs" textLength="82" x="786" y="73.0439">AudioControl</text><!--entity CommunicationSubsystem--><rect fill="#FEFECE" filter="url(#f8pl04y0rhl55)" height="49.1201" style="stroke: #A80036; stroke-width: 1.5;" width="206" x="270" y="628"/><rect fill="#FEFECE" height="10" style="stroke: #A80036; stroke-width: 1.5;" width="15" x="456" y="633"/><rect fill="#FEFECE" height="2" style="stroke: #A80036; stroke-width: 1.5;" width="4" x="454" y="635"/><rect fill="#FEFECE" height="2" style="stroke: #A80036; stroke-width: 1.5;" width="4" x="454" y="639"/><text fill="#000000" font-family="sans-serif" font-size="14" lengthAdjust="spacingAndGlyphs" textLength="166" x="285" y="664.0439">CommunicationSubsystem</text><!--entity LocalVSSSubsystem--><rect fill="#FEFECE" filter="url(#f8pl04y0rhl55)" height="49.1201" style="stroke: #A80036; stroke-width: 1.5;" width="170" x="515" y="387.5"/><rect fill="#FEFECE" height="10" style="stroke: #A80036; stroke-width: 1.5;" width="15" x="665" y="392.5"/><rect fill="#FEFECE" height="2" style="stroke: #A80036; stroke-width: 1.5;" width="4" x="663" y="394.5"/><rect fill="#FEFECE" height="2" style="stroke: #A80036; stroke-width: 1.5;" width="4" x="663" y="398.5"/><text fill="#000000" font-family="sans-serif" font-size="14" lengthAdjust="spacingAndGlyphs" textLength="130" x="530" y="423.5439">LocalVSSSubsystem</text><!--entity OnlineVSSSubsystem--><rect fill="#FEFECE" filter="url(#f8pl04y0rhl55)" height="49.1201" style="stroke: #A80036; stroke-width: 1.5;" width="177" x="351.5" y="263.5"/><rect fill="#FEFECE" height="10" style="stroke: #A80036; stroke-width: 1.5;" width="15" x="508.5" y="268.5"/><rect fill="#FEFECE" height="2" style="stroke: #A80036; stroke-width: 1.5;" width="4" x="506.5" y="270.5"/><rect fill="#FEFECE" height="2" style="stroke: #A80036; stroke-width: 1.5;" width="4" x="506.5" y="274.5"/><text fill="#000000" font-family="sans-serif" font-size="14" lengthAdjust="spacingAndGlyphs" textLength="137" x="366.5" y="299.5439">OnlineVSSSubsystem</text><!--entity SensorSubsystem--><rect fill="#FEFECE" filter="url(#f8pl04y0rhl55)" height="49.1201" style="stroke: #A80036; stroke-width: 1.5;" width="154" x="758" y="263.5"/><rect fill="#FEFECE" height="10" style="stroke: #A80036; stroke-width: 1.5;" width="15" x="892" y="268.5"/><rect fill="#FEFECE" height="2" style="stroke: #A80036; stroke-width: 1.5;" width="4" x="890" y="270.5"/><rect fill="#FEFECE" height="2" style="stroke: #A80036; stroke-width: 1.5;" width="4" x="890" y="274.5"/><text fill="#000000" font-family="sans-serif" font-size="14" lengthAdjust="spacingAndGlyphs" textLength="114" x="773" y="299.5439">SensorSubsystem</text><!--entity SensorHardwareWrapper--><rect fill="#FEFECE" filter="url(#f8pl04y0rhl55)" height="49.1201" style="stroke: #A80036; stroke-width: 1.5;" width="200" x="933" y="511.5"/><rect fill="#FEFECE" height="10" style="stroke: #A80036; stroke-width: 1.5;" width="15" x="1113" y="516.5"/><rect fill="#FEFECE" height="2" style="stroke: #A80036; stroke-width: 1.5;" width="4" x="1111" y="518.5"/><rect fill="#FEFECE" height="2" style="stroke: #A80036; stroke-width: 1.5;" width="4" x="1111" y="522.5"/><text fill="#000000" font-family="sans-serif" font-size="14" lengthAdjust="spacingAndGlyphs" textLength="160" x="948" y="547.5439">SensorHardwareWrapper</text><!--entity UserSubsystem--><rect fill="#FEFECE" filter="url(#f8pl04y0rhl55)" height="49.1201" style="stroke: #A80036; stroke-width: 1.5;" width="138" x="92" y="387.5"/><rect fill="#FEFECE" height="10" style="stroke: #A80036; stroke-width: 1.5;" width="15" x="210" y="392.5"/><rect fill="#FEFECE" height="2" style="stroke: #A80036; stroke-width: 1.5;" width="4" x="208" y="394.5"/><rect fill="#FEFECE" height="2" style="stroke: #A80036; stroke-width: 1.5;" width="4" x="208" y="398.5"/><text fill="#000000" font-family="sans-serif" font-size="14" lengthAdjust="spacingAndGlyphs" textLength="98" x="107" y="423.5439">UserSubsystem</text><!--entity UISubsystem--><rect fill="#FEFECE" filter="url(#f8pl04y0rhl55)" height="49.1201" style="stroke: #A80036; stroke-width: 1.5;" width="121" x="539.5" y="15.5"/><rect fill="#FEFECE" height="10" style="stroke: #A80036; stroke-width: 1.5;" width="15" x="640.5" y="20.5"/><rect fill="#FEFECE" height="2" style="stroke: #A80036; stroke-width: 1.5;" width="4" x="638.5" y="22.5"/><rect fill="#FEFECE" height="2" style="stroke: #A80036; stroke-width: 1.5;" width="4" x="638.5" y="26.5"/><text fill="#000000" font-family="sans-serif" font-size="14" lengthAdjust="spacingAndGlyphs" textLength="81" x="554.5" y="51.5439">UISubsystem</text><!--entity LocalStorageSubsystem--><rect fill="#FEFECE" filter="url(#f8pl04y0rhl55)" height="49.1201" style="stroke: #A80036; stroke-width: 1.5;" width="193" x="751.5" y="628"/><rect fill="#FEFECE" height="10" style="stroke: #A80036; stroke-width: 1.5;" width="15" x="924.5" y="633"/><rect fill="#FEFECE" height="2" style="stroke: #A80036; stroke-width: 1.5;" width="4" x="922.5" y="635"/><rect fill="#FEFECE" height="2" style="stroke: #A80036; stroke-width: 1.5;" width="4" x="922.5" y="639"/><text fill="#000000" font-family="sans-serif" font-size="14" lengthAdjust="spacingAndGlyphs" textLength="153" x="766.5" y="664.0439">LocalStorageSubsystem</text><!--entity AudioSubsystem--><rect fill="#FEFECE" filter="url(#f8pl04y0rhl55)" height="49.1201" style="stroke: #A80036; stroke-width: 1.5;" width="145" x="837.5" y="139.5"/><rect fill="#FEFECE" height="10" style="stroke: #A80036; stroke-width: 1.5;" width="15" x="962.5" y="144.5"/><rect fill="#FEFECE" height="2" style="stroke: #A80036; stroke-width: 1.5;" width="4" x="960.5" y="146.5"/><rect fill="#FEFECE" height="2" style="stroke: #A80036; stroke-width: 1.5;" width="4" x="960.5" y="150.5"/><text fill="#000000" font-family="sans-serif" font-size="14" lengthAdjust="spacingAndGlyphs" textLength="105" x="852.5" y="175.5439">AudioSubsystem</text><!--entity HttpService--><ellipse cx="373" cy="769" fill="#FEFECE" filter="url(#f8pl04y0rhl55)" rx="8" ry="8" style="stroke: #A80036; stroke-width: 2.0;"/><text fill="#000000" font-family="sans-serif" font-size="14" lengthAdjust="spacingAndGlyphs" textLength="72" x="337" y="802.0439">HttpService</text><!--entity ServerSubsystem--><rect fill="#FEFECE" filter="url(#f8pl04y0rhl55)" height="49.1201" style="stroke: #A80036; stroke-width: 1.5;" width="151" x="297.5" y="861"/><rect fill="#FEFECE" height="10" style="stroke: #A80036; stroke-width: 1.5;" width="15" x="428.5" y="866"/><rect fill="#FEFECE" height="2" style="stroke: #A80036; stroke-width: 1.5;" width="4" x="426.5" y="868"/><rect fill="#FEFECE" height="2" style="stroke: #A80036; stroke-width: 1.5;" width="4" x="426.5" y="872"/><text fill="#000000" font-family="sans-serif" font-size="14" lengthAdjust="spacingAndGlyphs" textLength="111" x="312.5" y="897.0439">ServerSubsystem</text><!--link UM to CommunicationSubsystem--><path d="M581.96,544.473 C568.006,555.766 540.097,577.41 514,592 C489.765,605.549 461.821,617.951 437.234,627.885 " fill="none" id="UM-CommunicationSubsystem" style="stroke: #A80036; stroke-width: 1.0;"/><!--link DL to CommunicationSubsystem--><path d="M303.394,545.235 C314.545,562.259 340.502,601.886 357.375,627.645 " fill="none" id="DL-CommunicationSubsystem" style="stroke: #A80036; stroke-width: 1.0;"/><!--link GR to CommunicationSubsystem--><path d="M718.16,545.217 C708.971,557.482 689.91,580.378 668,592 C608.921,623.338 535.171,638.213 476.191,645.254 " fill="none" id="GR-CommunicationSubsystem" style="stroke: #A80036; stroke-width: 1.0;"/><!--link US to CommunicationSubsystem--><path d="M443.534,545.235 C432.235,562.259 405.932,601.886 388.834,627.645 " fill="none" id="US-CommunicationSubsystem" style="stroke: #A80036; stroke-width: 1.0;"/><!--link RG to CommunicationSubsystem--><path d="M166.661,545.223 C175.211,557.083 192.504,578.987 212,592 C234.555,607.054 261.418,618.924 286.677,627.972 " fill="none" id="RG-CommunicationSubsystem" style="stroke: #A80036; stroke-width: 1.0;"/><!--link LG to CommunicationSubsystem--><path d="M69.1741,545.172 C75.8522,557.379 90.1307,580.2 109,592 C157.001,622.018 218.306,636.96 269.755,644.368 " fill="none" id="LG-CommunicationSubsystem" style="stroke: #A80036; stroke-width: 1.0;"/><!--link SA to SensorSubsystem--><path d="M754.643,173.005 C767.348,191.029 798.615,235.384 818.189,263.151 " fill="none" id="SA-SensorSubsystem" style="stroke: #A80036; stroke-width: 1.0;"/><!--link BC to SensorHardwareWrapper--><path d="M928.349,421.005 C944.895,439.029 985.615,483.384 1011.11,511.151 " fill="none" id="BC-SensorHardwareWrapper" style="stroke: #A80036; stroke-width: 1.0;"/><!--link SensorSubsystem to BC--><path d="M851.582,312.523 C869.733,338.272 898.138,378.568 912.326,398.695 " fill="none" id="SensorSubsystem-BC" style="stroke: #A80036; stroke-width: 1.0; stroke-dasharray: 7.0,7.0;"/><polygon fill="#A80036" points="915.291,402.901,913.3751,393.2403,912.4103,398.8143,906.8363,397.8494,915.291,402.901" style="stroke: #A80036; stroke-width: 1.0;"/><!--link UIA to UserSubsystem--><path d="M253.504,297.005 C238.878,315.029 202.885,359.384 180.353,387.151 " fill="none" id="UIA-UserSubsystem" style="stroke: #A80036; stroke-width: 1.0;"/><!--link UISubsystem to UIA--><path d="M539.346,52.403 C486.798,64.761 411.082,88.781 358,132 C308.494,172.307 276.417,244.567 264.838,273.995 " fill="none" id="UISubsystem-UIA" style="stroke: #A80036; stroke-width: 1.0; stroke-dasharray: 7.0,7.0;"/><polygon fill="#A80036" points="262.915,278.974,269.8889,272.0195,264.7164,274.3098,262.4261,269.1373,262.915,278.974" style="stroke: #A80036; stroke-width: 1.0;"/><!--link LS to LocalStorageSubsystem--><path d="M848,545.235 C848,562.259 848,601.886 848,627.645 " fill="none" id="LS-LocalStorageSubsystem" style="stroke: #A80036; stroke-width: 1.0;"/><!--link LocalVSSSubsystem to LS--><path d="M685.111,423.727 C716.251,430.324 750.746,440.94 779,458 C806.249,474.453 828.855,505.058 840.176,522.315 " fill="none" id="LocalVSSSubsystem-LS" style="stroke: #A80036; stroke-width: 1.0; stroke-dasharray: 7.0,7.0;"/><polygon fill="#A80036" points="843.064,526.806,841.5594,517.0728,840.3591,522.6008,834.8311,521.4005,843.064,526.806" style="stroke: #A80036; stroke-width: 1.0;"/><!--link AC to AudioSubsystem--><path d="M832.446,49.005 C844.708,67.029 874.884,111.384 893.775,139.151 " fill="none" id="AC-AudioSubsystem" style="stroke: #A80036; stroke-width: 1.0;"/><!--link UISubsystem to AC--><path d="M660.705,40 C715.906,40 793.038,40 817.922,40 " fill="none" id="UISubsystem-AC" style="stroke: #A80036; stroke-width: 1.0; stroke-dasharray: 7.0,7.0;"/><polygon fill="#A80036" points="817.922,40,808.922,36,812.922,40,808.922,44,817.922,40" style="stroke: #A80036; stroke-width: 1.0;"/><!--link UIA to OnlineVSSSubsystem--><path d="M269.111,288 C282.615,288 311.195,288 341.127,288 " fill="none" id="UIA-OnlineVSSSubsystem" style="stroke: #A80036; stroke-width: 1.0; stroke-dasharray: 7.0,7.0;"/><polygon fill="#A80036" points="351.31,288,342.31,284,346.31,288,342.31,292,351.31,288" style="stroke: #A80036; stroke-width: 1.0;"/><!--link CommunicationSubsystem to HttpService--><path d="M373,677.224 C373,700.613 373,735.529 373,754.518 " fill="none" id="CommunicationSubsystem-HttpService" style="stroke: #A80036; stroke-width: 1.0; stroke-dasharray: 7.0,7.0;"/><polygon fill="#A80036" points="373,759.87,377,750.87,373,754.87,369,750.87,373,759.87" style="stroke: #A80036; stroke-width: 1.0;"/><!--link HttpService to ServerSubsystem--><path d="M373,778.235 C373,795.259 373,834.8861 373,860.6451 " fill="none" id="HttpService-ServerSubsystem" style="stroke: #A80036; stroke-width: 1.0;"/><!--link OVA to OnlineVSSSubsystem--><path d="M440,173.005 C440,191.029 440,235.384 440,263.151 " fill="none" id="OVA-OnlineVSSSubsystem" style="stroke: #A80036; stroke-width: 1.0;"/><!--link LVA to LocalVSSSubsystem--><path d="M600,173.185 C600,206.699 600,334.191 600,387.426 " fill="none" id="LVA-LocalVSSSubsystem" style="stroke: #A80036; stroke-width: 1.0;"/><!--link UserSubsystem to LG--><path d="M130.206,436.628 C122.789,443.105 115.219,450.439 109,458 C92.1596,478.475 78.0675,506.242 70.6453,522.228 " fill="none" id="UserSubsystem-LG" style="stroke: #A80036; stroke-width: 1.0; stroke-dasharray: 7.0,7.0;"/><polygon fill="#A80036" points="68.5603,526.79,75.9397,520.2673,70.6388,522.2425,68.6637,516.9417,68.5603,526.79" style="stroke: #A80036; stroke-width: 1.0;"/><!--link UserSubsystem to RG--><path d="M161,436.523 C161,461.839 161,501.217 161,521.663 " fill="none" id="UserSubsystem-RG" style="stroke: #A80036; stroke-width: 1.0; stroke-dasharray: 7.0,7.0;"/><polygon fill="#A80036" points="161,526.901,165,517.901,161,521.901,157,517.901,161,526.901" style="stroke: #A80036; stroke-width: 1.0;"/><!--link LocalVSSSubsystem to UM--><path d="M598.265,436.523 C596.397,461.839 593.492,501.217 591.984,521.663 " fill="none" id="LocalVSSSubsystem-UM" style="stroke: #A80036; stroke-width: 1.0; stroke-dasharray: 7.0,7.0;"/><polygon fill="#A80036" points="591.597,526.901,596.247,518.219,591.9641,521.9145,588.2686,517.6316,591.597,526.901" style="stroke: #A80036; stroke-width: 1.0;"/><!--link GR to LocalVSSSubsystem--><path d="M716.536,521.971 C706.8,505.718 688.565,477.676 668,458 C659.919,450.269 650.35,443.024 640.981,436.701 " fill="none" id="GR-LocalVSSSubsystem" style="stroke: #A80036; stroke-width: 1.0; stroke-dasharray: 7.0,7.0;"/><polygon fill="#A80036" points="719.278,526.614,718.1455,516.8305,716.7354,522.3087,711.2571,520.8986,719.278,526.614" style="stroke: #A80036; stroke-width: 1.0;"/><!--link LocalVSSSubsystem to US--><path d="M547.057,436.574 C535.63,442.767 523.991,449.988 514,458 C490.047,477.207 468.388,506.268 457.134,522.645 " fill="none" id="LocalVSSSubsystem-US" style="stroke: #A80036; stroke-width: 1.0; stroke-dasharray: 7.0,7.0;"/><polygon fill="#A80036" points="454.243,526.909,462.605,521.7055,457.0494,522.7709,455.984,517.2152,454.243,526.909" style="stroke: #A80036; stroke-width: 1.0;"/><!--link OnlineVSSSubsystem to DL--><path d="M426.384,312.588 C396.901,363.665 327.984,483.056 305.348,522.271 " fill="none" id="OnlineVSSSubsystem-DL" style="stroke: #A80036; stroke-width: 1.0; stroke-dasharray: 7.0,7.0;"/><polygon fill="#A80036" points="302.823,526.645,310.7872,520.8509,305.3231,522.3149,303.859,516.8508,302.823,526.645" style="stroke: #A80036; stroke-width: 1.0;"/><!--link OnlineVSSSubsystem to US--><!--link UISubsystem to OVA--><path d="M569.15,64.523 C534.127,91.229 478.582,133.581 453.308,152.853 " fill="none" id="UISubsystem-OVA" style="stroke: #A80036; stroke-width: 1.0; stroke-dasharray: 7.0,7.0;"/><polygon fill="#A80036" points="449.235,155.958,458.8172,153.6818,453.211,152.9263,453.9665,147.3201,449.235,155.958" style="stroke: #A80036; stroke-width: 1.0;"/><!--link UISubsystem to LVA--><path d="M600,64.523 C600,89.839 600,129.217 600,149.663 " fill="none" id="UISubsystem-LVA" style="stroke: #A80036; stroke-width: 1.0; stroke-dasharray: 7.0,7.0;"/><polygon fill="#A80036" points="600,154.901,604,145.901,600,149.901,596,145.901,600,154.901" style="stroke: #A80036; stroke-width: 1.0;"/><!--link UISubsystem to SA--><path d="M628.729,64.523 C660.891,90.857 711.636,132.407 735.61,152.036 " fill="none" id="UISubsystem-SA" style="stroke: #A80036; stroke-width: 1.0; stroke-dasharray: 7.0,7.0;"/><polygon fill="#A80036" points="739.764,155.437,735.3359,146.6397,735.8959,152.2688,730.2668,152.8287,739.764,155.437" style="stroke: #A80036; stroke-width: 1.0;"/><!--
@startuml Diagrams/SubsystemDecomposition
skinparam componentStyle uml2

interface "LocalStorage" as LS

interface "SensorAccess" as SA
interface "RawSensorDataAccess" as BC
interface "UserInfoAccess" as UIA
interface "OnlineVSSAccess" as OVA
interface "LocalVSSAccess" as LVA
interface "AudioControl" as AC




package "CommunicationService" {
    interface "UploadVSSMeta" as UM
    interface "DownloadVSSMeta" as DL
    interface "UploadSF" as GR
    interface "DownloadSF" as US
    interface "Register" as RG
    interface "Login" as LG
}
component "CommunicationSubsystem" as CommunicationSubsystem

    UM - - CommunicationSubsystem
    DL - - CommunicationSubsystem
    GR - - CommunicationSubsystem
    US - - CommunicationSubsystem
    RG - - CommunicationSubsystem
    LG - - CommunicationSubsystem

[LocalVSSSubsystem]
[OnlineVSSSubsystem]
[SensorSubsystem] -up- SA
[SensorHardwareWrapper] -up- BC
[SensorSubsystem] ..> BC
[UserSubsystem] -up- UIA
[UISubsystem] ..> UIA

[LocalStorageSubsystem] -up- LS
[LocalVSSSubsystem] ..> LS
[AudioSubsystem] -up- AC
[UISubsystem] .-r.> AC


UIA <. [OnlineVSSSubsystem]


[CommunicationSubsystem] .down.> HttpService
[ServerSubsystem] -up- HttpService
[OnlineVSSSubsystem] -up- OVA
[LocalVSSSubsystem] -up- LVA
[UserSubsystem] ..> LG
[UserSubsystem] ..> RG

[LocalVSSSubsystem] .down.> UM
[LocalVSSSubsystem] .up.> GR
[LocalVSSSubsystem] .down.> US

[OnlineVSSSubsystem] .-down.> DL
[OnlineVSSSubsystem] .[hidden].> US 
[UISubsystem] -down.> OVA
[UISubsystem] .down.> LVA
[UISubsystem] ..> SA
@enduml

PlantUML version 1.2018.03(Fri Apr 06 00:59:15 CST 2018)
(GPL source distribution)
Java Runtime: Java(TM) SE Runtime Environment
JVM: Java HotSpot(TM) Client VM
Java Version: 1.8.0_171-b11
Operating System: Windows 8.1
OS Version: 6.3
Default Encoding: GBK
Language: zh
Country: CN
--></g></svg>