<?xml version="1.0" encoding="UTF-8" standalone="no"?><svg xmlns="http://www.w3.org/2000/svg" xmlns:xlink="http://www.w3.org/1999/xlink" contentScriptType="application/ecmascript" contentStyleType="text/css" height="484px" preserveAspectRatio="none" style="width:1181px;height:484px;" version="1.1" viewBox="0 0 1181 484"
    width="1181px" zoomAndPan="magnify"><defs><filter height="300%" id="f1ie9y1g9gr05u" width="300%" x="-1" y="-1"><feGaussianBlur result="blurOut" stdDeviation="2.0"/><feColorMatrix in="blurOut" result="blurOut2" type="matrix" values="0 0 0 0 0 0 0 0 0 0 0 0 0 0 0 0 0 0 .4 0"/><feOffset dx="4.0" dy="4.0" in="blurOut2" result="blurOut3"/><feBlend in="SourceGraphic" in2="blurOut3" mode="normal"/></filter></defs><g><!--cluster UISubsystem--><rect fill="#FFFFFF" filter="url(#f1ie9y1g9gr05u)" height="457" style="stroke: #000000; stroke-width: 1.5;" width="903" x="14" y="16"/><rect fill="#FFFFFF" height="10" style="stroke: #000000; stroke-width: 1.5;" width="15" x="897" y="21"/><rect fill="#FFFFFF" height="2" style="stroke: #000000; stroke-width: 1.5;" width="4" x="895" y="23"/><rect fill="#FFFFFF" height="2" style="stroke: #000000; stroke-width: 1.5;" width="4" x="895" y="27"/><text fill="#000000" font-family="sans-serif" font-size="14" font-weight="bold" lengthAdjust="spacingAndGlyphs" textLength="93" x="419" y="42.5352">UISubsystem</text><!--class RegisterViewModel--><rect fill="#FEFECE" filter="url(#f1ie9y1g9gr05u)" height="80.1758" id="RegisterViewModel" style="stroke: #A80036; stroke-width: 1.5;" width="199" x="28.5" y="43"/><ellipse cx="69.6" cy="62.1328" fill="#ADD1B2" rx="11" ry="11" style="stroke: #A80036; stroke-width: 1.0;"/><path d="M72.5731,67.7759 Q71.9921,68.0747 71.3529,68.2241 Q70.7138,68.3735 70.0082,68.3735 Q67.5014,68.3735 66.1815,66.7217 Q64.8617,65.0698 64.8617,61.9487 Q64.8617,58.8193 66.1815,57.1675 Q67.5014,55.5156 70.0082,55.5156 Q70.7138,55.5156 71.3612,55.665 Q72.0087,55.8145 72.5731,56.1133 L72.5731,58.8359 Q71.9423,58.2549 71.3488,57.9851 Q70.7553,57.7153 70.1244,57.7153 Q68.7797,57.7153 68.0949,58.782 Q67.4101,59.8486 67.4101,61.9487 Q67.4101,64.0405 68.0949,65.1072 Q68.7797,66.1738 70.1244,66.1738 Q70.7553,66.1738 71.3488,65.9041 Q71.9423,65.6343 72.5731,65.0532 Z "/><text fill="#000000" font-family="sans-serif" font-size="12" font-style="italic" lengthAdjust="spacingAndGlyphs" textLength="72" x="107.9" y="59.6016">«viewModel»</text><text fill="#000000" font-family="sans-serif" font-size="12" lengthAdjust="spacingAndGlyphs" textLength="109" x="89.4" y="73.7344">RegisterViewModel</text><line style="stroke: #A80036; stroke-width: 1.5;" x1="29.5" x2="226.5" y1="81.2656" y2="81.2656"/><text fill="#000000" font-family="sans-serif" font-size="11" lengthAdjust="spacingAndGlyphs" textLength="120" x="34.5" y="95.9004">allowRegister: boolean</text><line style="stroke: #A80036; stroke-width: 1.5;" x1="29.5" x2="226.5" y1="102.2207" y2="102.2207"/><text fill="#000000" font-family="sans-serif" font-size="11" lengthAdjust="spacingAndGlyphs" textLength="187" x="34.5" y="116.8555">onRememberButtonToggled(): void</text><!--class LocalVSSManagerViewModel--><rect fill="#FEFECE" filter="url(#f1ie9y1g9gr05u)" height="54.2656" id="LocalVSSManagerViewModel" style="stroke: #A80036; stroke-width: 1.5;" width="193" x="262.5" y="56"/><ellipse cx="277.5" cy="75.1328" fill="#ADD1B2" rx="11" ry="11" style="stroke: #A80036; stroke-width: 1.0;"/><path d="M280.4731,80.7759 Q279.8921,81.0747 279.2529,81.2241 Q278.6138,81.3735 277.9082,81.3735 Q275.4014,81.3735 274.0815,79.7217 Q272.7617,78.0698 272.7617,74.9487 Q272.7617,71.8193 274.0815,70.1675 Q275.4014,68.5156 277.9082,68.5156 Q278.6138,68.5156 279.2612,68.665 Q279.9087,68.8145 280.4731,69.1133 L280.4731,71.8359 Q279.8423,71.2549 279.2488,70.9851 Q278.6553,70.7153 278.0244,70.7153 Q276.6797,70.7153 275.9949,71.782 Q275.3101,72.8486 275.3101,74.9487 Q275.3101,77.0405 275.9949,78.1072 Q276.6797,79.1738 278.0244,79.1738 Q278.6553,79.1738 279.2488,78.9041 Q279.8423,78.6343 280.4731,78.0532 Z "/><text fill="#000000" font-family="sans-serif" font-size="12" font-style="italic" lengthAdjust="spacingAndGlyphs" textLength="72" x="336" y="72.6016">«viewModel»</text><text fill="#000000" font-family="sans-serif" font-size="12" lengthAdjust="spacingAndGlyphs" textLength="161" x="291.5" y="86.7344">LocalVSSManagerViewModel</text><line style="stroke: #A80036; stroke-width: 1.5;" x1="263.5" x2="454.5" y1="94.2656" y2="94.2656"/><line style="stroke: #A80036; stroke-width: 1.5;" x1="263.5" x2="454.5" y1="102.2656" y2="102.2656"/><!--class LoginViewModel--><rect fill="#FEFECE" filter="url(#f1ie9y1g9gr05u)" height="80.1758" id="LoginViewModel" style="stroke: #A80036; stroke-width: 1.5;" width="181" x="490.5" y="43"/><ellipse cx="531.15" cy="62.1328" fill="#ADD1B2" rx="11" ry="11" style="stroke: #A80036; stroke-width: 1.0;"/><path d="M534.1231,67.7759 Q533.5421,68.0747 532.9029,68.2241 Q532.2638,68.3735 531.5582,68.3735 Q529.0514,68.3735 527.7315,66.7217 Q526.4117,65.0698 526.4117,61.9487 Q526.4117,58.8193 527.7315,57.1675 Q529.0514,55.5156 531.5582,55.5156 Q532.2638,55.5156 532.9112,55.665 Q533.5587,55.8145 534.1231,56.1133 L534.1231,58.8359 Q533.4923,58.2549 532.8988,57.9851 Q532.3053,57.7153 531.6744,57.7153 Q530.3297,57.7153 529.6449,58.782 Q528.9601,59.8486 528.9601,61.9487 Q528.9601,64.0405 529.6449,65.1072 Q530.3297,66.1738 531.6744,66.1738 Q532.3053,66.1738 532.8988,65.9041 Q533.4923,65.6343 534.1231,65.0532 Z "/><text fill="#000000" font-family="sans-serif" font-size="12" font-style="italic" lengthAdjust="spacingAndGlyphs" textLength="72" x="560.85" y="59.6016">«viewModel»</text><text fill="#000000" font-family="sans-serif" font-size="12" lengthAdjust="spacingAndGlyphs" textLength="92" x="550.85" y="73.7344">LoginViewModel</text><line style="stroke: #A80036; stroke-width: 1.5;" x1="491.5" x2="670.5" y1="81.2656" y2="81.2656"/><line style="stroke: #A80036; stroke-width: 1.5;" x1="491.5" x2="670.5" y1="89.2656" y2="89.2656"/><text fill="#000000" font-family="sans-serif" font-size="11" lengthAdjust="spacingAndGlyphs" textLength="169" x="496.5" y="103.9004">onRegisterButtonClicked(): void</text><text fill="#000000" font-family="sans-serif" font-size="11" lengthAdjust="spacingAndGlyphs" textLength="153" x="496.5" y="116.8555">onLoginDataChanged(): void</text><!--class PreviewLocalMapViewModel--><rect fill="#FEFECE" filter="url(#f1ie9y1g9gr05u)" height="54.2656" id="PreviewLocalMapViewModel" style="stroke: #A80036; stroke-width: 1.5;" width="192" x="707" y="56"/><ellipse cx="722" cy="75.1328" fill="#ADD1B2" rx="11" ry="11" style="stroke: #A80036; stroke-width: 1.0;"/><path d="M724.9731,80.7759 Q724.3921,81.0747 723.7529,81.2241 Q723.1138,81.3735 722.4082,81.3735 Q719.9014,81.3735 718.5815,79.7217 Q717.2617,78.0698 717.2617,74.9487 Q717.2617,71.8193 718.5815,70.1675 Q719.9014,68.5156 722.4082,68.5156 Q723.1138,68.5156 723.7612,68.665 Q724.4087,68.8145 724.9731,69.1133 L724.9731,71.8359 Q724.3423,71.2549 723.7488,70.9851 Q723.1553,70.7153 722.5244,70.7153 Q721.1797,70.7153 720.4949,71.782 Q719.8101,72.8486 719.8101,74.9487 Q719.8101,77.0405 720.4949,78.1072 Q721.1797,79.1738 722.5244,79.1738 Q723.1553,79.1738 723.7488,78.9041 Q724.3423,78.6343 724.9731,78.0532 Z "/><text fill="#000000" font-family="sans-serif" font-size="12" font-style="italic" lengthAdjust="spacingAndGlyphs" textLength="72" x="780" y="72.6016">«viewModel»</text><text fill="#000000" font-family="sans-serif" font-size="12" lengthAdjust="spacingAndGlyphs" textLength="160" x="736" y="86.7344">PreviewLocalMapViewModel</text><line style="stroke: #A80036; stroke-width: 1.5;" x1="708" x2="898" y1="94.2656" y2="94.2656"/><line style="stroke: #A80036; stroke-width: 1.5;" x1="708" x2="898" y1="102.2656" y2="102.2656"/><!--class PreviewLocalConcertViewModel--><rect fill="#FEFECE" filter="url(#f1ie9y1g9gr05u)" height="54.2656" id="PreviewLocalConcertViewModel" style="stroke: #A80036; stroke-width: 1.5;" width="211" x="22.5" y="183"/><ellipse cx="37.5" cy="202.1328" fill="#ADD1B2" rx="11" ry="11" style="stroke: #A80036; stroke-width: 1.0;"/><path d="M40.4731,207.7759 Q39.8921,208.0747 39.2529,208.2241 Q38.6138,208.3735 37.9082,208.3735 Q35.4014,208.3735 34.0815,206.7217 Q32.7617,205.0698 32.7617,201.9487 Q32.7617,198.8193 34.0815,197.1675 Q35.4014,195.5156 37.9082,195.5156 Q38.6138,195.5156 39.2612,195.665 Q39.9087,195.8145 40.4731,196.1133 L40.4731,198.8359 Q39.8423,198.2549 39.2488,197.9851 Q38.6553,197.7153 38.0244,197.7153 Q36.6797,197.7153 35.9949,198.782 Q35.3101,199.8486 35.3101,201.9487 Q35.3101,204.0405 35.9949,205.1072 Q36.6797,206.1738 38.0244,206.1738 Q38.6553,206.1738 39.2488,205.9041 Q39.8423,205.6343 40.4731,205.0532 Z "/><text fill="#000000" font-family="sans-serif" font-size="12" font-style="italic" lengthAdjust="spacingAndGlyphs" textLength="72" x="105" y="199.6016">«viewModel»</text><text fill="#000000" font-family="sans-serif" font-size="12" lengthAdjust="spacingAndGlyphs" textLength="179" x="51.5" y="213.7344">PreviewLocalConcertViewModel</text><line style="stroke: #A80036; stroke-width: 1.5;" x1="23.5" x2="232.5" y1="221.2656" y2="221.2656"/><line style="stroke: #A80036; stroke-width: 1.5;" x1="23.5" x2="232.5" y1="229.2656" y2="229.2656"/><!--class CreateVSSViewModel--><rect fill="#FEFECE" filter="url(#f1ie9y1g9gr05u)" height="54.2656" id="CreateVSSViewModel" style="stroke: #A80036; stroke-width: 1.5;" width="152" x="269" y="183"/><ellipse cx="284" cy="202.1328" fill="#ADD1B2" rx="11" ry="11" style="stroke: #A80036; stroke-width: 1.0;"/><path d="M286.9731,207.7759 Q286.3921,208.0747 285.7529,208.2241 Q285.1138,208.3735 284.4082,208.3735 Q281.9014,208.3735 280.5815,206.7217 Q279.2617,205.0698 279.2617,201.9487 Q279.2617,198.8193 280.5815,197.1675 Q281.9014,195.5156 284.4082,195.5156 Q285.1138,195.5156 285.7612,195.665 Q286.4087,195.8145 286.9731,196.1133 L286.9731,198.8359 Q286.3423,198.2549 285.7488,197.9851 Q285.1553,197.7153 284.5244,197.7153 Q283.1797,197.7153 282.4949,198.782 Q281.8101,199.8486 281.8101,201.9487 Q281.8101,204.0405 282.4949,205.1072 Q283.1797,206.1738 284.5244,206.1738 Q285.1553,206.1738 285.7488,205.9041 Q286.3423,205.6343 286.9731,205.0532 Z "/><text fill="#000000" font-family="sans-serif" font-size="12" font-style="italic" lengthAdjust="spacingAndGlyphs" textLength="72" x="322" y="199.6016">«viewModel»</text><text fill="#000000" font-family="sans-serif" font-size="12" lengthAdjust="spacingAndGlyphs" textLength="120" x="298" y="213.7344">CreateVSSViewModel</text><line style="stroke: #A80036; stroke-width: 1.5;" x1="270" x2="420" y1="221.2656" y2="221.2656"/><line style="stroke: #A80036; stroke-width: 1.5;" x1="270" x2="420" y1="229.2656" y2="229.2656"/><!--class CreateMapVSSViewModel--><rect fill="#FEFECE" filter="url(#f1ie9y1g9gr05u)" height="54.2656" id="CreateMapVSSViewModel" style="stroke: #A80036; stroke-width: 1.5;" width="177" x="456.5" y="183"/><ellipse cx="471.5" cy="202.1328" fill="#ADD1B2" rx="11" ry="11" style="stroke: #A80036; stroke-width: 1.0;"/><path d="M474.4731,207.7759 Q473.8921,208.0747 473.2529,208.2241 Q472.6138,208.3735 471.9082,208.3735 Q469.4014,208.3735 468.0815,206.7217 Q466.7617,205.0698 466.7617,201.9487 Q466.7617,198.8193 468.0815,197.1675 Q469.4014,195.5156 471.9082,195.5156 Q472.6138,195.5156 473.2612,195.665 Q473.9087,195.8145 474.4731,196.1133 L474.4731,198.8359 Q473.8423,198.2549 473.2488,197.9851 Q472.6553,197.7153 472.0244,197.7153 Q470.6797,197.7153 469.9949,198.782 Q469.3101,199.8486 469.3101,201.9487 Q469.3101,204.0405 469.9949,205.1072 Q470.6797,206.1738 472.0244,206.1738 Q472.6553,206.1738 473.2488,205.9041 Q473.8423,205.6343 474.4731,205.0532 Z "/><text fill="#000000" font-family="sans-serif" font-size="12" font-style="italic" lengthAdjust="spacingAndGlyphs" textLength="72" x="522" y="199.6016">«viewModel»</text><text fill="#000000" font-family="sans-serif" font-size="12" lengthAdjust="spacingAndGlyphs" textLength="145" x="485.5" y="213.7344">CreateMapVSSViewModel</text><line style="stroke: #A80036; stroke-width: 1.5;" x1="457.5" x2="632.5" y1="221.2656" y2="221.2656"/><line style="stroke: #A80036; stroke-width: 1.5;" x1="457.5" x2="632.5" y1="229.2656" y2="229.2656"/><!--class CreateConcertVSSViewModel--><rect fill="#FEFECE" filter="url(#f1ie9y1g9gr05u)" height="54.2656" id="CreateConcertVSSViewModel" style="stroke: #A80036; stroke-width: 1.5;" width="196" x="669" y="183"/><ellipse cx="684" cy="202.1328" fill="#ADD1B2" rx="11" ry="11" style="stroke: #A80036; stroke-width: 1.0;"/><path d="M686.9731,207.7759 Q686.3921,208.0747 685.7529,208.2241 Q685.1138,208.3735 684.4082,208.3735 Q681.9014,208.3735 680.5815,206.7217 Q679.2617,205.0698 679.2617,201.9487 Q679.2617,198.8193 680.5815,197.1675 Q681.9014,195.5156 684.4082,195.5156 Q685.1138,195.5156 685.7612,195.665 Q686.4087,195.8145 686.9731,196.1133 L686.9731,198.8359 Q686.3423,198.2549 685.7488,197.9851 Q685.1553,197.7153 684.5244,197.7153 Q683.1797,197.7153 682.4949,198.782 Q681.8101,199.8486 681.8101,201.9487 Q681.8101,204.0405 682.4949,205.1072 Q683.1797,206.1738 684.5244,206.1738 Q685.1553,206.1738 685.7488,205.9041 Q686.3423,205.6343 686.9731,205.0532 Z "/><text fill="#000000" font-family="sans-serif" font-size="12" font-style="italic" lengthAdjust="spacingAndGlyphs" textLength="72" x="744" y="199.6016">«viewModel»</text><text fill="#000000" font-family="sans-serif" font-size="12" lengthAdjust="spacingAndGlyphs" textLength="164" x="698" y="213.7344">CreateConcertVSSViewModel</text><line style="stroke: #A80036; stroke-width: 1.5;" x1="670" x2="864" y1="221.2656" y2="221.2656"/><line style="stroke: #A80036; stroke-width: 1.5;" x1="670" x2="864" y1="229.2656" y2="229.2656"/><!--class PreviewOnlineMapViewModel--><rect fill="#FEFECE" filter="url(#f1ie9y1g9gr05u)" height="54.2656" id="PreviewOnlineMapViewModel" style="stroke: #A80036; stroke-width: 1.5;" width="199" x="22.5" y="297"/><ellipse cx="37.5" cy="316.1328" fill="#ADD1B2" rx="11" ry="11" style="stroke: #A80036; stroke-width: 1.0;"/><path d="M40.4731,321.7759 Q39.8921,322.0747 39.2529,322.2241 Q38.6138,322.3735 37.9082,322.3735 Q35.4014,322.3735 34.0815,320.7217 Q32.7617,319.0698 32.7617,315.9487 Q32.7617,312.8193 34.0815,311.1675 Q35.4014,309.5156 37.9082,309.5156 Q38.6138,309.5156 39.2612,309.665 Q39.9087,309.8145 40.4731,310.1133 L40.4731,312.8359 Q39.8423,312.2549 39.2488,311.9851 Q38.6553,311.7153 38.0244,311.7153 Q36.6797,311.7153 35.9949,312.782 Q35.3101,313.8486 35.3101,315.9487 Q35.3101,318.0405 35.9949,319.1072 Q36.6797,320.1738 38.0244,320.1738 Q38.6553,320.1738 39.2488,319.9041 Q39.8423,319.6343 40.4731,319.0532 Z "/><text fill="#000000" font-family="sans-serif" font-size="12" font-style="italic" lengthAdjust="spacingAndGlyphs" textLength="72" x="99" y="313.6016">«viewModel»</text><text fill="#000000" font-family="sans-serif" font-size="12" lengthAdjust="spacingAndGlyphs" textLength="167" x="51.5" y="327.7344">PreviewOnlineMapViewModel</text><line style="stroke: #A80036; stroke-width: 1.5;" x1="23.5" x2="220.5" y1="335.2656" y2="335.2656"/><line style="stroke: #A80036; stroke-width: 1.5;" x1="23.5" x2="220.5" y1="343.2656" y2="343.2656"/><!--class PreviewOnlineConcertViewModel--><rect fill="#FEFECE" filter="url(#f1ie9y1g9gr05u)" height="54.2656" id="PreviewOnlineConcertViewModel" style="stroke: #A80036; stroke-width: 1.5;" width="218" x="257" y="297"/><ellipse cx="272" cy="316.1328" fill="#ADD1B2" rx="11" ry="11" style="stroke: #A80036; stroke-width: 1.0;"/><path d="M274.9731,321.7759 Q274.3921,322.0747 273.7529,322.2241 Q273.1138,322.3735 272.4082,322.3735 Q269.9014,322.3735 268.5815,320.7217 Q267.2617,319.0698 267.2617,315.9487 Q267.2617,312.8193 268.5815,311.1675 Q269.9014,309.5156 272.4082,309.5156 Q273.1138,309.5156 273.7612,309.665 Q274.4087,309.8145 274.9731,310.1133 L274.9731,312.8359 Q274.3423,312.2549 273.7488,311.9851 Q273.1553,311.7153 272.5244,311.7153 Q271.1797,311.7153 270.4949,312.782 Q269.8101,313.8486 269.8101,315.9487 Q269.8101,318.0405 270.4949,319.1072 Q271.1797,320.1738 272.5244,320.1738 Q273.1553,320.1738 273.7488,319.9041 Q274.3423,319.6343 274.9731,319.0532 Z "/><text fill="#000000" font-family="sans-serif" font-size="12" font-style="italic" lengthAdjust="spacingAndGlyphs" textLength="72" x="343" y="313.6016">«viewModel»</text><text fill="#000000" font-family="sans-serif" font-size="12" lengthAdjust="spacingAndGlyphs" textLength="186" x="286" y="327.7344">PreviewOnlineConcertViewModel</text><line style="stroke: #A80036; stroke-width: 1.5;" x1="258" x2="474" y1="335.2656" y2="335.2656"/><line style="stroke: #A80036; stroke-width: 1.5;" x1="258" x2="474" y1="343.2656" y2="343.2656"/><!--class PlayMapModeVSSViewModel--><rect fill="#FEFECE" filter="url(#f1ie9y1g9gr05u)" height="54.2656" id="PlayMapModeVSSViewModel" style="stroke: #A80036; stroke-width: 1.5;" width="194" x="510" y="297"/><ellipse cx="525" cy="316.1328" fill="#ADD1B2" rx="11" ry="11" style="stroke: #A80036; stroke-width: 1.0;"/><path d="M527.9731,321.7759 Q527.3921,322.0747 526.7529,322.2241 Q526.1138,322.3735 525.4082,322.3735 Q522.9014,322.3735 521.5815,320.7217 Q520.2617,319.0698 520.2617,315.9487 Q520.2617,312.8193 521.5815,311.1675 Q522.9014,309.5156 525.4082,309.5156 Q526.1138,309.5156 526.7612,309.665 Q527.4087,309.8145 527.9731,310.1133 L527.9731,312.8359 Q527.3423,312.2549 526.7488,311.9851 Q526.1553,311.7153 525.5244,311.7153 Q524.1797,311.7153 523.4949,312.782 Q522.8101,313.8486 522.8101,315.9487 Q522.8101,318.0405 523.4949,319.1072 Q524.1797,320.1738 525.5244,320.1738 Q526.1553,320.1738 526.7488,319.9041 Q527.3423,319.6343 527.9731,319.0532 Z "/><text fill="#000000" font-family="sans-serif" font-size="12" font-style="italic" lengthAdjust="spacingAndGlyphs" textLength="72" x="584" y="313.6016">«viewModel»</text><text fill="#000000" font-family="sans-serif" font-size="12" lengthAdjust="spacingAndGlyphs" textLength="162" x="539" y="327.7344">PlayMapModeVSSViewModel</text><line style="stroke: #A80036; stroke-width: 1.5;" x1="511" x2="703" y1="335.2656" y2="335.2656"/><line style="stroke: #A80036; stroke-width: 1.5;" x1="511" x2="703" y1="343.2656" y2="343.2656"/><!--class AdjustSensorViewModel--><rect fill="#FEFECE" filter="url(#f1ie9y1g9gr05u)" height="54.2656" id="AdjustSensorViewModel" style="stroke: #A80036; stroke-width: 1.5;" width="169" x="739.5" y="297"/><ellipse cx="754.5" cy="316.1328" fill="#ADD1B2" rx="11" ry="11" style="stroke: #A80036; stroke-width: 1.0;"/><path d="M757.4731,321.7759 Q756.8921,322.0747 756.2529,322.2241 Q755.6138,322.3735 754.9082,322.3735 Q752.4014,322.3735 751.0815,320.7217 Q749.7617,319.0698 749.7617,315.9487 Q749.7617,312.8193 751.0815,311.1675 Q752.4014,309.5156 754.9082,309.5156 Q755.6138,309.5156 756.2612,309.665 Q756.9087,309.8145 757.4731,310.1133 L757.4731,312.8359 Q756.8423,312.2549 756.2488,311.9851 Q755.6553,311.7153 755.0244,311.7153 Q753.6797,311.7153 752.9949,312.782 Q752.3101,313.8486 752.3101,315.9487 Q752.3101,318.0405 752.9949,319.1072 Q753.6797,320.1738 755.0244,320.1738 Q755.6553,320.1738 756.2488,319.9041 Q756.8423,319.6343 757.4731,319.0532 Z "/><text fill="#000000" font-family="sans-serif" font-size="12" font-style="italic" lengthAdjust="spacingAndGlyphs" textLength="72" x="801" y="313.6016">«viewModel»</text><text fill="#000000" font-family="sans-serif" font-size="12" lengthAdjust="spacingAndGlyphs" textLength="137" x="768.5" y="327.7344">AdjustSensorViewModel</text><line style="stroke: #A80036; stroke-width: 1.5;" x1="740.5" x2="907.5" y1="335.2656" y2="335.2656"/><line style="stroke: #A80036; stroke-width: 1.5;" x1="740.5" x2="907.5" y1="343.2656" y2="343.2656"/><!--class PlayConcertModeVSSViewModel--><rect fill="#FEFECE" filter="url(#f1ie9y1g9gr05u)" height="54.2656" id="PlayConcertModeVSSViewModel" style="stroke: #A80036; stroke-width: 1.5;" width="213" x="22.5" y="411"/><ellipse cx="37.5" cy="430.1328" fill="#ADD1B2" rx="11" ry="11" style="stroke: #A80036; stroke-width: 1.0;"/><path d="M40.4731,435.7759 Q39.8921,436.0747 39.2529,436.2241 Q38.6138,436.3735 37.9082,436.3735 Q35.4014,436.3735 34.0815,434.7217 Q32.7617,433.0698 32.7617,429.9487 Q32.7617,426.8193 34.0815,425.1675 Q35.4014,423.5156 37.9082,423.5156 Q38.6138,423.5156 39.2612,423.665 Q39.9087,423.8145 40.4731,424.1133 L40.4731,426.8359 Q39.8423,426.2549 39.2488,425.9851 Q38.6553,425.7153 38.0244,425.7153 Q36.6797,425.7153 35.9949,426.782 Q35.3101,427.8486 35.3101,429.9487 Q35.3101,432.0405 35.9949,433.1072 Q36.6797,434.1738 38.0244,434.1738 Q38.6553,434.1738 39.2488,433.9041 Q39.8423,433.6343 40.4731,433.0532 Z "/><text fill="#000000" font-family="sans-serif" font-size="12" font-style="italic" lengthAdjust="spacingAndGlyphs" textLength="72" x="106" y="427.6016">«viewModel»</text><text fill="#000000" font-family="sans-serif" font-size="12" lengthAdjust="spacingAndGlyphs" textLength="181" x="51.5" y="441.7344">PlayConcertModeVSSViewModel</text><line style="stroke: #A80036; stroke-width: 1.5;" x1="23.5" x2="234.5" y1="449.2656" y2="449.2656"/><line style="stroke: #A80036; stroke-width: 1.5;" x1="23.5" x2="234.5" y1="457.2656" y2="457.2656"/><!--class OnlineVSSViewerViewModel--><rect fill="#FEFECE" filter="url(#f1ie9y1g9gr05u)" height="54.2656" id="OnlineVSSViewerViewModel" style="stroke: #A80036; stroke-width: 1.5;" width="189" x="270.5" y="411"/><ellipse cx="285.5" cy="430.1328" fill="#ADD1B2" rx="11" ry="11" style="stroke: #A80036; stroke-width: 1.0;"/><path d="M288.4731,435.7759 Q287.8921,436.0747 287.2529,436.2241 Q286.6138,436.3735 285.9082,436.3735 Q283.4014,436.3735 282.0815,434.7217 Q280.7617,433.0698 280.7617,429.9487 Q280.7617,426.8193 282.0815,425.1675 Q283.4014,423.5156 285.9082,423.5156 Q286.6138,423.5156 287.2612,423.665 Q287.9087,423.8145 288.4731,424.1133 L288.4731,426.8359 Q287.8423,426.2549 287.2488,425.9851 Q286.6553,425.7153 286.0244,425.7153 Q284.6797,425.7153 283.9949,426.782 Q283.3101,427.8486 283.3101,429.9487 Q283.3101,432.0405 283.9949,433.1072 Q284.6797,434.1738 286.0244,434.1738 Q286.6553,434.1738 287.2488,433.9041 Q287.8423,433.6343 288.4731,433.0532 Z "/><text fill="#000000" font-family="sans-serif" font-size="12" font-style="italic" lengthAdjust="spacingAndGlyphs" textLength="72" x="342" y="427.6016">«viewModel»</text><text fill="#000000" font-family="sans-serif" font-size="12" lengthAdjust="spacingAndGlyphs" textLength="157" x="299.5" y="441.7344">OnlineVSSViewerViewModel</text><line style="stroke: #A80036; stroke-width: 1.5;" x1="271.5" x2="458.5" y1="449.2656" y2="449.2656"/><line style="stroke: #A80036; stroke-width: 1.5;" x1="271.5" x2="458.5" y1="457.2656" y2="457.2656"/><path d="M934.5,70.5 L934.5,95.8105 L1169.5,95.8105 L1169.5,80.5 L1159.5,70.5 L934.5,70.5 " fill="#FBFB77" filter="url(#f1ie9y1g9gr05u)" style="stroke: #A80036; stroke-width: 1.0;"/><path d="M1159.5,70.5 L1159.5,80.5 L1169.5,80.5 L1159.5,70.5 " fill="#FBFB77" style="stroke: #A80036; stroke-width: 1.0;"/><text fill="#000000" font-family="sans-serif" font-size="13" lengthAdjust="spacingAndGlyphs" textLength="214" x="940.5" y="88.0684">This diagram will be updated later</text><!--link RegisterViewModel to LocalVSSManagerViewModel--><!--link LocalVSSManagerViewModel to LoginViewModel--><!--link LoginViewModel to PreviewLocalMapViewModel--><!--link RegisterViewModel to PreviewLocalConcertViewModel--><!--link PreviewLocalConcertViewModel to CreateVSSViewModel--><!--link CreateVSSViewModel to CreateMapVSSViewModel--><!--link CreateMapVSSViewModel to CreateConcertVSSViewModel--><!--link PreviewLocalConcertViewModel to PreviewOnlineMapViewModel--><!--link PreviewOnlineMapViewModel to PreviewOnlineConcertViewModel--><!--link PreviewOnlineConcertViewModel to PlayMapModeVSSViewModel--><!--link PlayMapModeVSSViewModel to AdjustSensorViewModel--><!--link PreviewOnlineMapViewModel to PlayConcertModeVSSViewModel--><!--link PlayConcertModeVSSViewModel to OnlineVSSViewerViewModel--><!--
@startuml Diagrams/UISubsystemClassDiagram
note "This diagram will be updated later" as notes

component UISubsystem {
    class RegisterViewModel <<viewModel>> {
    	allowRegister: boolean
    	onRememberButtonToggled(): void

    }
    class LocalVSSManagerViewModel <<viewModel>> {

    }
    class LoginViewModel <<viewModel>> {

    	onRegisterButtonClicked(): void
    	onLoginDataChanged(): void
    }
    class PreviewLocalMapViewModel <<viewModel>> {

    }
    class PreviewLocalConcertViewModel <<viewModel>> {

    }
    class CreateVSSViewModel <<viewModel>> {

    }
    class CreateMapVSSViewModel <<viewModel>> {

    }
    class CreateConcertVSSViewModel <<viewModel>> {

    }
    class PreviewOnlineMapViewModel <<viewModel>> {

    }
    class PreviewOnlineConcertViewModel <<viewModel>> {

    }
    class PlayMapModeVSSViewModel <<viewModel>> {

    }

    class AdjustSensorViewModel <<viewModel>> {

    }
    class PlayConcertModeVSSViewModel <<viewModel>> {

    }

    class OnlineVSSViewerViewModel <<viewModel>> {

    }
}

@enduml

PlantUML version 1.2018.01(Mon Jan 29 02:08:22 CST 2018)
(GPL source distribution)
Java Runtime: Java(TM) SE Runtime Environment
JVM: Java HotSpot(TM) 64-Bit Server VM
Java Version: 9+181
Operating System: Mac OS X
OS Version: 10.12.6
Default Encoding: UTF-8
Language: zh
Country: CN
--></g></svg>