<?xml version="1.0" encoding="UTF-8" standalone="no"?><svg xmlns="http://www.w3.org/2000/svg" xmlns:xlink="http://www.w3.org/1999/xlink" contentScriptType="application/ecmascript" contentStyleType="text/css" height="704px" preserveAspectRatio="none" style="width:1349px;height:704px;" version="1.1" viewBox="0 0 1349 704"
    width="1349px" zoomAndPan="magnify"><defs><filter height="300%" id="fcr5d44b7ney0" width="300%" x="-1" y="-1"><feGaussianBlur result="blurOut" stdDeviation="2.0"/><feColorMatrix in="blurOut" result="blurOut2" type="matrix" values="0 0 0 0 0 0 0 0 0 0 0 0 0 0 0 0 0 0 .4 0"/><feOffset dx="4.0" dy="4.0" in="blurOut2" result="blurOut3"/><feBlend in="SourceGraphic" in2="blurOut3" mode="normal"/></filter></defs><g><text fill="#000000" font-family="sans-serif" font-size="14" font-weight="bold" lengthAdjust="spacingAndGlyphs" textLength="76" x="637.75" y="23.5352">UploadVSS</text><rect fill="#FFFFFF" filter="url(#fcr5d44b7ney0)" height="105.2422" style="stroke: #000000; stroke-width: 2.0;" width="1325.5" x="13" y="570.3242"/><line style="stroke: #A80036; stroke-width: 1.0; stroke-dasharray: 5.0,5.0;" x1="111" x2="111" y1="116.9766" y2="692.5664"/><line style="stroke: #A80036; stroke-width: 1.0; stroke-dasharray: 5.0,5.0;" x1="419" x2="419" y1="116.9766" y2="692.5664"/><line style="stroke: #A80036; stroke-width: 1.0; stroke-dasharray: 5.0,5.0;" x1="727" x2="727" y1="116.9766" y2="692.5664"/><line style="stroke: #A80036; stroke-width: 1.0; stroke-dasharray: 5.0,5.0;" x1="981.5" x2="981.5" y1="116.9766" y2="692.5664"/><line style="stroke: #A80036; stroke-width: 1.0; stroke-dasharray: 5.0,5.0;" x1="1278.5" x2="1278.5" y1="116.9766" y2="692.5664"/><text fill="#000000" font-family="sans-serif" font-size="14" lengthAdjust="spacingAndGlyphs" text-decoration="underline" textLength="170" x="23" y="114.0234">:LocalSoundSpaceLibrary</text><line style="stroke: #000000; stroke-width: 1.0;" x1="23" x2="193" y1="116.0234" y2="116.0234"/><ellipse cx="111" cy="43.4883" fill="#FEFECE" filter="url(#fcr5d44b7ney0)" rx="8" ry="8" style="stroke: #A80036; stroke-width: 2.0;"/><path d="M111,51.4883 L111,78.4883 M98,59.4883 L124,59.4883 M111,78.4883 L98,93.4883 M111,78.4883 L124,93.4883 " fill="none" filter="url(#fcr5d44b7ney0)" style="stroke: #A80036; stroke-width: 2.0;"/><rect fill="#FEFECE" filter="url(#fcr5d44b7ney0)" height="30.4883" style="stroke: #A80036; stroke-width: 1.5;" width="120" x="357" y="81.4883"/><text fill="#000000" font-family="sans-serif" font-size="14" lengthAdjust="spacingAndGlyphs" text-decoration="underline" textLength="106" x="364" y="102.0234">:Communicator</text><line style="stroke: #000000; stroke-width: 1.0;" x1="364" x2="470" y1="104.0234" y2="104.0234"/><rect fill="#FEFECE" filter="url(#fcr5d44b7ney0)" height="30.4883" style="stroke: #A80036; stroke-width: 1.5;" width="90" x="680" y="81.4883"/><text fill="#000000" font-family="sans-serif" font-size="14" lengthAdjust="spacingAndGlyphs" text-decoration="underline" textLength="76" x="687" y="102.0234">:WebServer</text><line style="stroke: #000000; stroke-width: 1.0;" x1="687" x2="763" y1="104.0234" y2="104.0234"/><rect fill="#FEFECE" filter="url(#fcr5d44b7ney0)" height="30.4883" style="stroke: #A80036; stroke-width: 1.5;" width="187" x="886.5" y="81.4883"/><text fill="#000000" font-family="sans-serif" font-size="14" lengthAdjust="spacingAndGlyphs" text-decoration="underline" textLength="173" x="893.5" y="102.0234">:VSSInformationDatabase</text><line style="stroke: #000000; stroke-width: 1.0;" x1="893.5" x2="1066.5" y1="104.0234" y2="104.0234"/><rect fill="#FEFECE" filter="url(#fcr5d44b7ney0)" height="30.4883" style="stroke: #A80036; stroke-width: 1.5;" width="95" x="1229.5" y="81.4883"/><text fill="#000000" font-family="sans-serif" font-size="14" lengthAdjust="spacingAndGlyphs" text-decoration="underline" textLength="81" x="1236.5" y="102.0234">:MainFolder</text><line style="stroke: #000000; stroke-width: 1.0;" x1="1236.5" x2="1317.5" y1="104.0234" y2="104.0234"/><polygon fill="#A80036" points="407,143.9766,417,147.9766,407,151.9766,411,147.9766" style="stroke: #A80036; stroke-width: 1.0;"/><line style="stroke: #A80036; stroke-width: 1.0;" x1="111" x2="413" y1="147.9766" y2="147.9766"/><text fill="#000000" font-family="sans-serif" font-size="13" lengthAdjust="spacingAndGlyphs" textLength="284" x="118" y="143.5449">UploadRequest(VSSID:int, UserID:int):boolean</text><polygon fill="#A80036" points="715,173.2871,725,177.2871,715,181.2871,719,177.2871" style="stroke: #A80036; stroke-width: 1.0;"/><line style="stroke: #A80036; stroke-width: 1.0;" x1="419" x2="721" y1="177.2871" y2="177.2871"/><text fill="#000000" font-family="sans-serif" font-size="13" lengthAdjust="spacingAndGlyphs" textLength="284" x="426" y="172.8555">UploadRequest(VSSID:int, UserID:int):boolean</text><polygon fill="#A80036" points="970,202.5977,980,206.5977,970,210.5977,974,206.5977" style="stroke: #A80036; stroke-width: 1.0;"/><line style="stroke: #A80036; stroke-width: 1.0;" x1="727" x2="976" y1="206.5977" y2="206.5977"/><text fill="#000000" font-family="sans-serif" font-size="13" lengthAdjust="spacingAndGlyphs" textLength="231" x="734" y="202.166">Search(VSSID:int, UserID:int):boolean</text><line style="stroke: #A80036; stroke-width: 1.0;" x1="982" x2="1024" y1="236.2188" y2="236.2188"/><line style="stroke: #A80036; stroke-width: 1.0;" x1="1024" x2="1024" y1="236.2188" y2="249.2188"/><line style="stroke: #A80036; stroke-width: 1.0;" x1="983" x2="1024" y1="249.2188" y2="249.2188"/><polygon fill="#A80036" points="993,245.2188,983,249.2188,993,253.2188,989,249.2188" style="stroke: #A80036; stroke-width: 1.0;"/><text fill="#000000" font-family="sans-serif" font-size="13" lengthAdjust="spacingAndGlyphs" textLength="231" x="989" y="231.4766">Search(VSSID:int, UserID:int):boolean</text><polygon fill="#A80036" points="738,274.2188,728,278.2188,738,282.2188,734,278.2188" style="stroke: #A80036; stroke-width: 1.0;"/><line style="stroke: #A80036; stroke-width: 1.0;" x1="732" x2="981" y1="278.2188" y2="278.2188"/><text fill="#000000" font-family="sans-serif" font-size="13" lengthAdjust="spacingAndGlyphs" textLength="60" x="744" y="273.7871">Response</text><polygon fill="#A80036" points="430,303.5293,420,307.5293,430,311.5293,426,307.5293" style="stroke: #A80036; stroke-width: 1.0;"/><line style="stroke: #A80036; stroke-width: 1.0;" x1="424" x2="726" y1="307.5293" y2="307.5293"/><text fill="#000000" font-family="sans-serif" font-size="13" lengthAdjust="spacingAndGlyphs" textLength="60" x="436" y="303.0977">Response</text><polygon fill="#A80036" points="122,332.8398,112,336.8398,122,340.8398,118,336.8398" style="stroke: #A80036; stroke-width: 1.0;"/><line style="stroke: #A80036; stroke-width: 1.0;" x1="116" x2="418" y1="336.8398" y2="336.8398"/><text fill="#000000" font-family="sans-serif" font-size="13" lengthAdjust="spacingAndGlyphs" textLength="60" x="128" y="332.4082">Response</text><polygon fill="#A80036" points="407,362.1504,417,366.1504,407,370.1504,411,366.1504" style="stroke: #A80036; stroke-width: 1.0;"/><line style="stroke: #A80036; stroke-width: 1.0;" x1="111" x2="413" y1="366.1504" y2="366.1504"/><text fill="#000000" font-family="sans-serif" font-size="13" lengthAdjust="spacingAndGlyphs" textLength="278" x="118" y="361.7188">UploadRequest(list&lt;SFHash&gt;):list&lt;SFHash&gt;</text><polygon fill="#A80036" points="715,391.4609,725,395.4609,715,399.4609,719,395.4609" style="stroke: #A80036; stroke-width: 1.0;"/><line style="stroke: #A80036; stroke-width: 1.0;" x1="419" x2="721" y1="395.4609" y2="395.4609"/><text fill="#000000" font-family="sans-serif" font-size="13" lengthAdjust="spacingAndGlyphs" textLength="278" x="426" y="391.0293">UploadRequest(list&lt;SFHash&gt;):list&lt;SFHash&gt;</text><polygon fill="#A80036" points="970,420.7715,980,424.7715,970,428.7715,974,424.7715" style="stroke: #A80036; stroke-width: 1.0;"/><line style="stroke: #A80036; stroke-width: 1.0;" x1="727" x2="976" y1="424.7715" y2="424.7715"/><text fill="#000000" font-family="sans-serif" font-size="13" lengthAdjust="spacingAndGlyphs" textLength="216" x="734" y="420.3398">Filter(list&lt;SFHash&gt;):list&lt;SFHash&gt;</text><line style="stroke: #A80036; stroke-width: 1.0;" x1="982" x2="1024" y1="454.3926" y2="454.3926"/><line style="stroke: #A80036; stroke-width: 1.0;" x1="1024" x2="1024" y1="454.3926" y2="467.3926"/><line style="stroke: #A80036; stroke-width: 1.0;" x1="983" x2="1024" y1="467.3926" y2="467.3926"/><polygon fill="#A80036" points="993,463.3926,983,467.3926,993,471.3926,989,467.3926" style="stroke: #A80036; stroke-width: 1.0;"/><text fill="#000000" font-family="sans-serif" font-size="13" lengthAdjust="spacingAndGlyphs" textLength="283" x="989" y="449.6504">FilterandUpdate(list&lt;SFHash&gt;):list&lt;SFHash&gt;</text><polygon fill="#A80036" points="738,492.3926,728,496.3926,738,500.3926,734,496.3926" style="stroke: #A80036; stroke-width: 1.0;"/><line style="stroke: #A80036; stroke-width: 1.0;" x1="732" x2="981" y1="496.3926" y2="496.3926"/><text fill="#000000" font-family="sans-serif" font-size="13" lengthAdjust="spacingAndGlyphs" textLength="79" x="744" y="491.9609">MisssionList</text><polygon fill="#A80036" points="430,521.7031,420,525.7031,430,529.7031,426,525.7031" style="stroke: #A80036; stroke-width: 1.0;"/><line style="stroke: #A80036; stroke-width: 1.0;" x1="424" x2="726" y1="525.7031" y2="525.7031"/><text fill="#000000" font-family="sans-serif" font-size="13" lengthAdjust="spacingAndGlyphs" textLength="79" x="436" y="521.2715">MisssionList</text><polygon fill="#A80036" points="122,551.0137,112,555.0137,122,559.0137,118,555.0137" style="stroke: #A80036; stroke-width: 1.0;"/><line style="stroke: #A80036; stroke-width: 1.0;" x1="116" x2="418" y1="555.0137" y2="555.0137"/><text fill="#000000" font-family="sans-serif" font-size="13" lengthAdjust="spacingAndGlyphs" textLength="79" x="128" y="550.582">MisssionList</text><path d="M13,570.3242 L87,570.3242 L87,577.3242 L77,587.3242 L13,587.3242 L13,570.3242 " fill="#EEEEEE" style="stroke: #000000; stroke-width: 1.0;"/><rect fill="none" height="105.2422" style="stroke: #000000; stroke-width: 2.0;" width="1325.5" x="13" y="570.3242"/><text fill="#000000" font-family="sans-serif" font-size="13" font-weight="bold" lengthAdjust="spacingAndGlyphs" textLength="29" x="28" y="583.8926">loop</text><polygon fill="#A80036" points="407,604.6348,417,608.6348,407,612.6348,411,608.6348" style="stroke: #A80036; stroke-width: 1.0;"/><line style="stroke: #A80036; stroke-width: 1.0;" x1="111" x2="413" y1="608.6348" y2="608.6348"/><text fill="#000000" font-family="sans-serif" font-size="13" lengthAdjust="spacingAndGlyphs" textLength="198" x="118" y="604.2031">UploadRequest(SFAddress):void</text><polygon fill="#A80036" points="715,633.9453,725,637.9453,715,641.9453,719,637.9453" style="stroke: #A80036; stroke-width: 1.0;"/><line style="stroke: #A80036; stroke-width: 1.0;" x1="419" x2="721" y1="637.9453" y2="637.9453"/><text fill="#000000" font-family="sans-serif" font-size="13" lengthAdjust="spacingAndGlyphs" textLength="147" x="426" y="633.5137">UploadRequest(SF):void</text><polygon fill="#A80036" points="1267,663.2559,1277,667.2559,1267,671.2559,1271,667.2559" style="stroke: #A80036; stroke-width: 1.0;"/><line style="stroke: #A80036; stroke-width: 1.0;" x1="727" x2="1273" y1="667.2559" y2="667.2559"/><text fill="#000000" font-family="sans-serif" font-size="13" lengthAdjust="spacingAndGlyphs" textLength="85" x="734" y="662.8242">Store(SF):void</text><!--
@startuml Diagrams/UploadVSSServerSequenceDiagram
title UploadVSS
hide footbox
skinparam sequenceParticipant underline
actor ":LocalSoundSpaceLibrary" as Client
participant ":Communicator" as Communicator
participant ":WebServer" as WebServer
participant ":VSSInformationDatabase" as VSSInformationDatabase
participant ":MainFolder" as MainFolder
Client->Communicator:UploadRequest(VSSID:int, UserID:int):boolean
Communicator->WebServer:UploadRequest(VSSID:int, UserID:int):boolean
WebServer->VSSInformationDatabase:Search(VSSID:int, UserID:int):boolean
VSSInformationDatabase->VSSInformationDatabase:Search(VSSID:int, UserID:int):boolean
VSSInformationDatabase->WebServer:Response
WebServer->Communicator:Response
Communicator->Client:Response
Client->Communicator:UploadRequest(list<SFHash>):list<SFHash>
Communicator->WebServer:UploadRequest(list<SFHash>):list<SFHash>
WebServer->VSSInformationDatabase:Filter(list<SFHash>):list<SFHash>
VSSInformationDatabase->VSSInformationDatabase:FilterandUpdate(list<SFHash>):list<SFHash>
VSSInformationDatabase->WebServer:MisssionList
WebServer->Communicator:MisssionList
Communicator->Client:MisssionList
loop
  Client->Communicator:UploadRequest(SFAddress):void
  Communicator->WebServer:UploadRequest(SF):void
  WebServer->MainFolder:Store(SF):void
end
@enduml

PlantUML version 1.2018.01(Mon Jan 29 02:08:22 CST 2018)
(GPL source distribution)
Java Runtime: Java(TM) SE Runtime Environment
JVM: Java HotSpot(TM) 64-Bit Server VM
Java Version: 9+181
Operating System: Mac OS X
OS Version: 10.12.6
Default Encoding: UTF-8
Language: zh
Country: CN
--></g></svg>