<?xml version="1.0" encoding="UTF-8" standalone="no"?><svg xmlns="http://www.w3.org/2000/svg" xmlns:xlink="http://www.w3.org/1999/xlink" contentScriptType="application/ecmascript" contentStyleType="text/css" height="526px" preserveAspectRatio="none" style="width:758px;height:526px;" version="1.1" viewBox="0 0 758 526"
    width="758px" zoomAndPan="magnify"><defs><filter height="300%" id="f1w03ev9q8vfem" width="300%" x="-1" y="-1"><feGaussianBlur result="blurOut" stdDeviation="2.0"/><feColorMatrix in="blurOut" result="blurOut2" type="matrix" values="0 0 0 0 0 0 0 0 0 0 0 0 0 0 0 0 0 0 .4 0"/><feOffset dx="4.0" dy="4.0" in="blurOut2" result="blurOut3"/><feBlend in="SourceGraphic" in2="blurOut3" mode="normal"/></filter></defs><g><rect fill="#FFFFFF" filter="url(#f1w03ev9q8vfem)" height="247.4844" style="stroke: #000000; stroke-width: 2.0;" width="602.5" x="135" y="250.041"/><rect fill="#FFFFFF" filter="url(#f1w03ev9q8vfem)" height="46.6211" style="stroke: #000000; stroke-width: 2.0;" width="323" x="284.5" y="385.2832"/><line style="stroke: #A80036; stroke-width: 1.0; stroke-dasharray: 5.0,5.0;" x1="26" x2="26" y1="86.4883" y2="514.5254"/><line style="stroke: #A80036; stroke-width: 1.0; stroke-dasharray: 5.0,5.0;" x1="206.5" x2="206.5" y1="86.4883" y2="514.5254"/><line style="stroke: #A80036; stroke-width: 1.0; stroke-dasharray: 5.0,5.0;" x1="388.5" x2="388.5" y1="86.4883" y2="514.5254"/><line style="stroke: #A80036; stroke-width: 1.0; stroke-dasharray: 5.0,5.0;" x1="617" x2="617" y1="86.4883" y2="514.5254"/><line style="stroke: #A80036; stroke-width: 1.0; stroke-dasharray: 5.0,5.0;" x1="701.5" x2="701.5" y1="86.4883" y2="514.5254"/><text fill="#000000" font-family="sans-serif" font-size="14" lengthAdjust="spacingAndGlyphs" text-decoration="underline" textLength="31" x="8" y="83.5352">User</text><line style="stroke: #000000; stroke-width: 1.0;" x1="8" x2="39" y1="85.5352" y2="85.5352"/><ellipse cx="26.5" cy="13" fill="#FEFECE" filter="url(#f1w03ev9q8vfem)" rx="8" ry="8" style="stroke: #A80036; stroke-width: 2.0;"/><path d="M26.5,21 L26.5,48 M13.5,29 L39.5,29 M26.5,48 L13.5,63 M26.5,48 L39.5,63 " fill="none" filter="url(#f1w03ev9q8vfem)" style="stroke: #A80036; stroke-width: 2.0;"/><rect fill="#FEFECE" filter="url(#f1w03ev9q8vfem)" height="30.4883" style="stroke: #A80036; stroke-width: 1.5;" width="152" x="128.5" y="51"/><text fill="#000000" font-family="sans-serif" font-size="14" lengthAdjust="spacingAndGlyphs" text-decoration="underline" textLength="138" x="135.5" y="71.5352">:LocalVSSViewModel</text><line style="stroke: #000000; stroke-width: 1.0;" x1="135.5" x2="273.5" y1="73.5352" y2="73.5352"/><rect fill="#FEFECE" filter="url(#f1w03ev9q8vfem)" height="30.4883" style="stroke: #A80036; stroke-width: 1.5;" width="184" x="294.5" y="51"/><text fill="#000000" font-family="sans-serif" font-size="14" lengthAdjust="spacingAndGlyphs" text-decoration="underline" textLength="170" x="301.5" y="71.5352">:LocalSoundSpaceLibrary</text><line style="stroke: #000000; stroke-width: 1.0;" x1="301.5" x2="471.5" y1="73.5352" y2="73.5352"/><rect fill="#FEFECE" filter="url(#f1w03ev9q8vfem)" height="30.4883" style="stroke: #A80036; stroke-width: 1.5;" width="63" x="584" y="51"/><text fill="#000000" font-family="sans-serif" font-size="14" lengthAdjust="spacingAndGlyphs" text-decoration="underline" textLength="49" x="591" y="71.5352">control</text><line style="stroke: #000000; stroke-width: 1.0;" x1="591" x2="640" y1="73.5352" y2="73.5352"/><rect fill="#FEFECE" filter="url(#f1w03ev9q8vfem)" height="30.4883" style="stroke: #A80036; stroke-width: 1.5;" width="48" x="675.5" y="51"/><text fill="#000000" font-family="sans-serif" font-size="14" lengthAdjust="spacingAndGlyphs" text-decoration="underline" textLength="34" x="682.5" y="71.5352">page</text><line style="stroke: #000000; stroke-width: 1.0;" x1="682.5" x2="716.5" y1="73.5352" y2="73.5352"/><polygon fill="#A80036" points="194.5,113.4883,204.5,117.4883,194.5,121.4883,198.5,117.4883" style="stroke: #A80036; stroke-width: 1.0;"/><line style="stroke: #A80036; stroke-width: 1.0;" x1="26.5" x2="200.5" y1="117.4883" y2="117.4883"/><text fill="#000000" font-family="sans-serif" font-size="13" lengthAdjust="spacingAndGlyphs" textLength="156" x="33.5" y="113.0566">onUploadButtonClicked()</text><polygon fill="#A80036" points="376.5,142.7988,386.5,146.7988,376.5,150.7988,380.5,146.7988" style="stroke: #A80036; stroke-width: 1.0;"/><line style="stroke: #A80036; stroke-width: 1.0;" x1="206.5" x2="382.5" y1="146.7988" y2="146.7988"/><text fill="#000000" font-family="sans-serif" font-size="13" lengthAdjust="spacingAndGlyphs" textLength="132" x="213.5" y="142.3672">uploadVSS(whichVSS)</text><polygon fill="#A80036" points="399.5,172.1094,389.5,176.1094,399.5,180.1094,395.5,176.1094" style="stroke: #A80036; stroke-width: 1.0;"/><line style="stroke: #A80036; stroke-width: 1.0;" x1="393.5" x2="616.5" y1="176.1094" y2="176.1094"/><text fill="#000000" font-family="sans-serif" font-size="13" lengthAdjust="spacingAndGlyphs" textLength="136" x="405.5" y="171.6777">beamMeUp(whichVSS)</text><polygon fill="#A80036" points="735.5,201.4199,745.5,205.4199,735.5,209.4199,739.5,205.4199" style="stroke: #A80036; stroke-width: 1.0;"/><line style="stroke: #A80036; stroke-width: 1.0;" x1="388.5" x2="741.5" y1="205.4199" y2="205.4199"/><text fill="#000000" font-family="sans-serif" font-size="13" lengthAdjust="spacingAndGlyphs" textLength="284" x="395.5" y="200.9883">UploadRequest(VSSID:int, UserID:int):boolean</text><polygon fill="#A80036" points="399.5,230.7305,389.5,234.7305,399.5,238.7305,395.5,234.7305" style="stroke: #A80036; stroke-width: 1.0;"/><line style="stroke: #A80036; stroke-width: 1.0;" x1="393.5" x2="746.5" y1="234.7305" y2="234.7305"/><text fill="#000000" font-family="sans-serif" font-size="13" lengthAdjust="spacingAndGlyphs" textLength="60" x="405.5" y="230.2988">Response</text><path d="M135,250.041 L197,250.041 L197,257.041 L187,267.041 L135,267.041 L135,250.041 " fill="#EEEEEE" style="stroke: #000000; stroke-width: 1.0;"/><rect fill="none" height="247.4844" style="stroke: #000000; stroke-width: 2.0;" width="602.5" x="135" y="250.041"/><text fill="#000000" font-family="sans-serif" font-size="13" font-weight="bold" lengthAdjust="spacingAndGlyphs" textLength="17" x="150" y="263.6094">alt</text><text fill="#000000" font-family="sans-serif" font-size="11" font-weight="bold" lengthAdjust="spacingAndGlyphs" textLength="105" x="212" y="262.6758">[Response is True]</text><line style="stroke: #A80036; stroke-width: 1.0;" x1="388.5" x2="430.5" y1="288.6621" y2="288.6621"/><line style="stroke: #A80036; stroke-width: 1.0;" x1="430.5" x2="430.5" y1="288.6621" y2="301.6621"/><line style="stroke: #A80036; stroke-width: 1.0;" x1="389.5" x2="430.5" y1="301.6621" y2="301.6621"/><polygon fill="#A80036" points="399.5,297.6621,389.5,301.6621,399.5,305.6621,395.5,301.6621" style="stroke: #A80036; stroke-width: 1.0;"/><text fill="#000000" font-family="sans-serif" font-size="13" lengthAdjust="spacingAndGlyphs" textLength="215" x="395.5" y="283.9199">GetSFList(whichVSS):list&lt;SFHash&gt;</text><polygon fill="#A80036" points="735.5,326.6621,745.5,330.6621,735.5,334.6621,739.5,330.6621" style="stroke: #A80036; stroke-width: 1.0;"/><line style="stroke: #A80036; stroke-width: 1.0;" x1="388.5" x2="741.5" y1="330.6621" y2="330.6621"/><text fill="#000000" font-family="sans-serif" font-size="13" lengthAdjust="spacingAndGlyphs" textLength="278" x="395.5" y="326.2305">UploadRequest(list&lt;SFHash&gt;):list&lt;SFHash&gt;</text><polygon fill="#A80036" points="399.5,360.9727,389.5,364.9727,399.5,368.9727,395.5,364.9727" style="stroke: #A80036; stroke-width: 1.0;"/><line style="stroke: #A80036; stroke-width: 1.0;" x1="393.5" x2="746.5" y1="364.9727" y2="364.9727"/><text fill="#000000" font-family="sans-serif" font-size="13" lengthAdjust="spacingAndGlyphs" textLength="79" x="405.5" y="360.541">MisssionList</text><path d="M145,343.9727 L145,368.9727 L379,368.9727 L379,353.9727 L369,343.9727 L145,343.9727 " fill="#FBFB77" filter="url(#f1w03ev9q8vfem)" style="stroke: #A80036; stroke-width: 1.0;"/><path d="M369,343.9727 L369,353.9727 L379,353.9727 L369,343.9727 " fill="#FBFB77" style="stroke: #A80036; stroke-width: 1.0;"/><text fill="#000000" font-family="sans-serif" font-size="13" lengthAdjust="spacingAndGlyphs" textLength="213" x="151" y="361.541">每上传成功一个任务push掉一个任务</text><path d="M284.5,385.2832 L358.5,385.2832 L358.5,392.2832 L348.5,402.2832 L284.5,402.2832 L284.5,385.2832 " fill="#EEEEEE" style="stroke: #000000; stroke-width: 1.0;"/><rect fill="none" height="46.6211" style="stroke: #000000; stroke-width: 2.0;" width="323" x="284.5" y="385.2832"/><text fill="#000000" font-family="sans-serif" font-size="13" font-weight="bold" lengthAdjust="spacingAndGlyphs" textLength="29" x="299.5" y="398.8516">loop</text><text fill="#000000" font-family="sans-serif" font-size="11" font-weight="bold" lengthAdjust="spacingAndGlyphs" textLength="100" x="373.5" y="397.918">[list is not empty]</text><polygon fill="#A80036" points="735.5,419.5938,745.5,423.5938,735.5,427.5938,739.5,423.5938" style="stroke: #A80036; stroke-width: 1.0;"/><line style="stroke: #A80036; stroke-width: 1.0;" x1="388.5" x2="741.5" y1="423.5938" y2="423.5938"/><text fill="#000000" font-family="sans-serif" font-size="13" lengthAdjust="spacingAndGlyphs" textLength="198" x="395.5" y="419.1621">UploadRequest(SFAddress):void</text><polygon fill="#A80036" points="605.5,455.9043,615.5,459.9043,605.5,463.9043,609.5,459.9043" style="stroke: #A80036; stroke-width: 1.0;"/><line style="stroke: #A80036; stroke-width: 1.0;" x1="388.5" x2="611.5" y1="459.9043" y2="459.9043"/><text fill="#000000" font-family="sans-serif" font-size="13" lengthAdjust="spacingAndGlyphs" textLength="60" x="395.5" y="455.4727">Response</text><polygon fill="#A80036" points="689.5,485.2148,699.5,489.2148,689.5,493.2148,693.5,489.2148" style="stroke: #A80036; stroke-width: 1.0;"/><line style="stroke: #A80036; stroke-width: 1.0;" x1="617.5" x2="695.5" y1="489.2148" y2="489.2148"/><text fill="#000000" font-family="sans-serif" font-size="13" lengthAdjust="spacingAndGlyphs" textLength="60" x="624.5" y="484.7832">Response</text><!--
@startuml Diagrams/UploadVSS
hide footbox
skinparam sequenceParticipant underline

actor User as user
participant ":LocalVSSViewModel" as viewModel
participant ":LocalSoundSpaceLibrary" as library

user -> viewModel: onUploadButtonClicked()
viewModel -> library: uploadVSS(whichVSS)
control -> library: beamMeUp(whichVSS)
library->:UploadRequest(VSSID:int, UserID:int):boolean
library<-:Response
alt Response is True
  library -> library: GetSFList(whichVSS):list<SFHash>
  library->:UploadRequest(list<SFHash>):list<SFHash>
  library<-:MisssionList
  loop list is not empty
  note left:每上传成功一个任务push掉一个任务
    library->:UploadRequest(SFAddress):void
  end
  library->control:Response
  control->page:Response
end
@enduml

PlantUML version 1.2018.01(Mon Jan 29 02:08:22 CST 2018)
(GPL source distribution)
Java Runtime: Java(TM) SE Runtime Environment
JVM: Java HotSpot(TM) 64-Bit Server VM
Java Version: 9+181
Operating System: Mac OS X
OS Version: 10.12.6
Default Encoding: UTF-8
Language: zh
Country: CN
--></g></svg>