<?xml version="1.0" encoding="UTF-8" standalone="no"?><svg xmlns="http://www.w3.org/2000/svg" xmlns:xlink="http://www.w3.org/1999/xlink" contentScriptType="application/ecmascript" contentStyleType="text/css" height="329px" preserveAspectRatio="none" style="width:951px;height:329px;" version="1.1" viewBox="0 0 951 329" width="951px" zoomAndPan="magnify"><defs><filter height="300%" id="fl768xeufcu3f" width="300%" x="-1" y="-1"><feGaussianBlur result="blurOut" stdDeviation="2.0"/><feColorMatrix in="blurOut" result="blurOut2" type="matrix" values="0 0 0 0 0 0 0 0 0 0 0 0 0 0 0 0 0 0 .4 0"/><feOffset dx="4.0" dy="4.0" in="blurOut2" result="blurOut3"/><feBlend in="SourceGraphic" in2="blurOut3" mode="normal"/></filter></defs><g><!--cluster UserSubsystem--><rect fill="#FFFFFF" filter="url(#fl768xeufcu3f)" height="162" style="stroke: #000000; stroke-width: 1.5;" width="362" x="578.5" y="28"/><rect fill="#FFFFFF" height="10" style="stroke: #000000; stroke-width: 1.5;" width="15" x="920.5" y="33"/><rect fill="#FFFFFF" height="2" style="stroke: #000000; stroke-width: 1.5;" width="4" x="918.5" y="35"/><rect fill="#FFFFFF" height="2" style="stroke: #000000; stroke-width: 1.5;" width="4" x="918.5" y="39"/><text fill="#000000" font-family="sans-serif" font-size="14" font-weight="bold" lengthAdjust="spacingAndGlyphs" textLength="109" x="705" y="57.0439">UserSubsystem</text><!--class UserInfoControl--><rect fill="#FEFECE" filter="url(#fl768xeufcu3f)" height="108.0918" id="UserInfoControl" style="stroke: #A80036; stroke-width: 1.5;" width="329" x="595" y="66"/><ellipse cx="711.75" cy="82" fill="#ADD1B2" rx="11" ry="11" style="stroke: #A80036; stroke-width: 1.0;"/><path d="M710.3281,87.3594 Q708.4688,87.3594 707.375,85.9688 Q706.2813,84.5781 706.2813,81.5938 Q706.2813,79.0625 707.4453,77.4063 Q708.6094,75.75 710.5938,75.75 Q712.0625,75.75 712.5313,75.875 Q713,76.0781 713,76.0781 Q713,76.0781 713,76.0078 Q713,75.9375 713.6094,75.0156 L714.6563,78.6719 L713.3281,79.0781 Q712.8594,77.5313 712.1953,76.8672 Q711.5313,76.2031 710.4688,76.2031 Q710.0781,76.2031 709.3125,77.7344 Q708.5469,79.2656 708.5469,81.5156 Q708.5469,83.9844 709.2109,85.375 Q709.875,86.7656 710.4063,86.7656 Q711.4688,86.7656 712.2266,86 Q712.9844,85.2344 713.3281,83.5781 L714.6563,84.1719 Q714.3281,85.5781 713.4297,86.4688 Q712.5313,87.3594 710.3281,87.3594 Z "/><text fill="#000000" font-family="sans-serif" font-size="12" lengthAdjust="spacingAndGlyphs" textLength="87" x="732.25" y="87.5576">UserInfoControl</text><line style="stroke: #A80036; stroke-width: 1.5;" x1="596" x2="923" y1="98" y2="98"/><line style="stroke: #A80036; stroke-width: 1.5;" x1="596" x2="923" y1="106" y2="106"/><text fill="#000000" font-family="sans-serif" font-size="11" lengthAdjust="spacingAndGlyphs" textLength="317" x="601" y="122.606">login(username: String, password: String, remember: boolean): int</text><text fill="#000000" font-family="sans-serif" font-size="11" lengthAdjust="spacingAndGlyphs" textLength="244" x="601" y="137.6289">setCurrentUser(userID: int, username: String): void</text><text fill="#000000" font-family="sans-serif" font-size="11" lengthAdjust="spacingAndGlyphs" textLength="141" x="601" y="152.6519">rememberCurrentUser(): void</text><text fill="#000000" font-family="sans-serif" font-size="11" lengthAdjust="spacingAndGlyphs" textLength="301" x="601" y="167.6748">checkLoginData(username: String, password: String): boolean</text><!--class RegisterViewModel--><rect fill="#ADD8E6" filter="url(#fl768xeufcu3f)" height="209.0068" id="RegisterViewModel" style="stroke: #0000FF; stroke-width: 1.5;" width="177" x="6" y="15.5"/><ellipse cx="38.55" cy="36.8887" fill="#ADD1B2" rx="11" ry="11" style="stroke: #0000FF; stroke-width: 1.0;"/><path d="M37.1281,42.248 Q35.2688,42.248 34.175,40.8574 Q33.0813,39.4668 33.0813,36.4824 Q33.0813,33.9512 34.2453,32.2949 Q35.4094,30.6387 37.3938,30.6387 Q38.8625,30.6387 39.3313,30.7637 Q39.8,30.9668 39.8,30.9668 Q39.8,30.9668 39.8,30.8965 Q39.8,30.8262 40.4094,29.9043 L41.4563,33.5605 L40.1281,33.9668 Q39.6594,32.4199 38.9953,31.7559 Q38.3313,31.0918 37.2688,31.0918 Q36.8781,31.0918 36.1125,32.623 Q35.3469,34.1543 35.3469,36.4043 Q35.3469,38.873 36.0109,40.2637 Q36.675,41.6543 37.2063,41.6543 Q38.2688,41.6543 39.0266,40.8887 Q39.7844,40.123 40.1281,38.4668 L41.4563,39.0605 Q41.1281,40.4668 40.2297,41.3574 Q39.3313,42.248 37.1281,42.248 Z "/><text fill="#000000" font-family="sans-serif" font-size="12" font-style="italic" lengthAdjust="spacingAndGlyphs" textLength="71" x="73.95" y="34.252">«viewModel»</text><text fill="#000000" font-family="sans-serif" font-size="12" lengthAdjust="spacingAndGlyphs" textLength="106" x="56.45" y="50.6406">RegisterViewModel</text><line style="stroke: #0000FF; stroke-width: 1.5;" x1="7" x2="182" y1="58.2773" y2="58.2773"/><rect fill="none" height="6" style="stroke: #C82930; stroke-width: 1.0;" width="6" x="14" y="87.3118"/><text fill="#000000" font-family="sans-serif" font-size="11" lengthAdjust="spacingAndGlyphs" textLength="82" x="26" y="93.9063">username: String</text><rect fill="none" height="6" style="stroke: #C82930; stroke-width: 1.0;" width="6" x="14" y="102.3347"/><text fill="#000000" font-family="sans-serif" font-size="11" lengthAdjust="spacingAndGlyphs" textLength="84" x="26" y="108.9292">password: String</text><rect fill="none" height="6" style="stroke: #C82930; stroke-width: 1.0;" width="6" x="14" y="117.3577"/><text fill="#000000" font-family="sans-serif" font-size="11" lengthAdjust="spacingAndGlyphs" textLength="58" x="26" y="123.9521">email: String</text><rect fill="none" height="6" style="stroke: #C82930; stroke-width: 1.0;" width="6" x="14" y="132.3806"/><text fill="#000000" font-family="sans-serif" font-size="11" lengthAdjust="spacingAndGlyphs" textLength="110" x="26" y="138.9751">allowRegister: boolean</text><line style="stroke: #0000FF; stroke-width: 1.0; stroke-dasharray: 1.0,2.0;" x1="7" x2="78" y1="73.7888" y2="73.7888"/><text fill="#000000" font-family="sans-serif" font-size="11" lengthAdjust="spacingAndGlyphs" textLength="33" x="78" y="78.3833">private</text><line style="stroke: #0000FF; stroke-width: 1.0; stroke-dasharray: 1.0,2.0;" x1="111" x2="182" y1="73.7888" y2="73.7888"/><ellipse cx="17" cy="169.4265" fill="#84BE84" rx="3" ry="3" style="stroke: #038048; stroke-width: 1.0;"/><text fill="#000000" font-family="sans-serif" font-size="11" lengthAdjust="spacingAndGlyphs" textLength="151" x="26" y="173.021">onRegisterButtonClicked(): void</text><ellipse cx="17" cy="184.4495" fill="#84BE84" rx="3" ry="3" style="stroke: #038048; stroke-width: 1.0;"/><text fill="#000000" font-family="sans-serif" font-size="11" lengthAdjust="spacingAndGlyphs" textLength="116" x="26" y="188.0439">alertUserExistent(): void</text><ellipse cx="17" cy="199.4724" fill="#84BE84" rx="3" ry="3" style="stroke: #038048; stroke-width: 1.0;"/><text fill="#000000" font-family="sans-serif" font-size="11" lengthAdjust="spacingAndGlyphs" textLength="131" x="26" y="203.0669">alertPasswordIllegal(): void</text><ellipse cx="17" cy="214.4954" fill="#84BE84" rx="3" ry="3" style="stroke: #038048; stroke-width: 1.0;"/><text fill="#000000" font-family="sans-serif" font-size="11" lengthAdjust="spacingAndGlyphs" textLength="150" x="26" y="218.0898">alertRegisterSuccessed(): void</text><line style="stroke: #0000FF; stroke-width: 1.0; stroke-dasharray: 1.0,2.0;" x1="7" x2="80.5" y1="152.9036" y2="152.9036"/><text fill="#000000" font-family="sans-serif" font-size="11" lengthAdjust="spacingAndGlyphs" textLength="28" x="80.5" y="157.498">public</text><line style="stroke: #0000FF; stroke-width: 1.0; stroke-dasharray: 1.0,2.0;" x1="108.5" x2="182" y1="152.9036" y2="152.9036"/><!--class LoginViewModel--><rect fill="#ADD8E6" filter="url(#fl768xeufcu3f)" height="224.0298" id="LoginViewModel" style="stroke: #0000FF; stroke-width: 1.5;" width="192" x="218.5" y="8"/><ellipse cx="265.25" cy="29.3887" fill="#ADD1B2" rx="11" ry="11" style="stroke: #0000FF; stroke-width: 1.0;"/><path d="M263.8281,34.748 Q261.9688,34.748 260.875,33.3574 Q259.7813,31.9668 259.7813,28.9824 Q259.7813,26.4512 260.9453,24.7949 Q262.1094,23.1387 264.0938,23.1387 Q265.5625,23.1387 266.0313,23.2637 Q266.5,23.4668 266.5,23.4668 Q266.5,23.4668 266.5,23.3965 Q266.5,23.3262 267.1094,22.4043 L268.1563,26.0605 L266.8281,26.4668 Q266.3594,24.9199 265.6953,24.2559 Q265.0313,23.5918 263.9688,23.5918 Q263.5781,23.5918 262.8125,25.123 Q262.0469,26.6543 262.0469,28.9043 Q262.0469,31.373 262.7109,32.7637 Q263.375,34.1543 263.9063,34.1543 Q264.9688,34.1543 265.7266,33.3887 Q266.4844,32.623 266.8281,30.9668 L268.1563,31.5605 Q267.8281,32.9668 266.9297,33.8574 Q266.0313,34.748 263.8281,34.748 Z "/><text fill="#000000" font-family="sans-serif" font-size="12" font-style="italic" lengthAdjust="spacingAndGlyphs" textLength="71" x="295.25" y="26.752">«viewModel»</text><text fill="#000000" font-family="sans-serif" font-size="12" lengthAdjust="spacingAndGlyphs" textLength="90" x="285.75" y="43.1406">LoginViewModel</text><line style="stroke: #0000FF; stroke-width: 1.5;" x1="219.5" x2="409.5" y1="50.7773" y2="50.7773"/><rect fill="none" height="6" style="stroke: #C82930; stroke-width: 1.0;" width="6" x="226.5" y="79.8118"/><text fill="#000000" font-family="sans-serif" font-size="11" lengthAdjust="spacingAndGlyphs" textLength="151" x="238.5" y="86.4063">isLoginButtonClickable: boolean</text><rect fill="none" height="6" style="stroke: #C82930; stroke-width: 1.0;" width="6" x="226.5" y="94.8347"/><text fill="#000000" font-family="sans-serif" font-size="11" lengthAdjust="spacingAndGlyphs" textLength="82" x="238.5" y="101.4292">username: String</text><rect fill="none" height="6" style="stroke: #C82930; stroke-width: 1.0;" width="6" x="226.5" y="109.8577"/><text fill="#000000" font-family="sans-serif" font-size="11" lengthAdjust="spacingAndGlyphs" textLength="84" x="238.5" y="116.4521">password: String</text><rect fill="none" height="6" style="stroke: #C82930; stroke-width: 1.0;" width="6" x="226.5" y="124.8806"/><text fill="#000000" font-family="sans-serif" font-size="11" lengthAdjust="spacingAndGlyphs" textLength="106" x="238.5" y="131.4751">rememberMe: boolean</text><line style="stroke: #0000FF; stroke-width: 1.0; stroke-dasharray: 1.0,2.0;" x1="219.5" x2="298" y1="66.2888" y2="66.2888"/><text fill="#000000" font-family="sans-serif" font-size="11" lengthAdjust="spacingAndGlyphs" textLength="33" x="298" y="70.8833">private</text><line style="stroke: #0000FF; stroke-width: 1.0; stroke-dasharray: 1.0,2.0;" x1="331" x2="409.5" y1="66.2888" y2="66.2888"/><ellipse cx="229.5" cy="161.9265" fill="#84BE84" rx="3" ry="3" style="stroke: #038048; stroke-width: 1.0;"/><text fill="#000000" font-family="sans-serif" font-size="11" lengthAdjust="spacingAndGlyphs" textLength="137" x="238.5" y="165.521">onLoginDataChanged(): void</text><ellipse cx="229.5" cy="176.9495" fill="#84BE84" rx="3" ry="3" style="stroke: #038048; stroke-width: 1.0;"/><text fill="#000000" font-family="sans-serif" font-size="11" lengthAdjust="spacingAndGlyphs" textLength="166" x="238.5" y="180.5439">onRememberButtonToggled(): void</text><ellipse cx="229.5" cy="191.9724" fill="#84BE84" rx="3" ry="3" style="stroke: #038048; stroke-width: 1.0;"/><text fill="#000000" font-family="sans-serif" font-size="11" lengthAdjust="spacingAndGlyphs" textLength="135" x="238.5" y="195.5669">alertUserNonexistent(): void</text><ellipse cx="229.5" cy="206.9954" fill="#84BE84" rx="3" ry="3" style="stroke: #038048; stroke-width: 1.0;"/><text fill="#000000" font-family="sans-serif" font-size="11" lengthAdjust="spacingAndGlyphs" textLength="129" x="238.5" y="210.5898">alertPasswordError(): void</text><ellipse cx="229.5" cy="222.0183" fill="#84BE84" rx="3" ry="3" style="stroke: #038048; stroke-width: 1.0;"/><text fill="#000000" font-family="sans-serif" font-size="11" lengthAdjust="spacingAndGlyphs" textLength="136" x="238.5" y="225.6128">alertLoginSuccessed(): void</text><line style="stroke: #0000FF; stroke-width: 1.0; stroke-dasharray: 1.0,2.0;" x1="219.5" x2="300.5" y1="145.4036" y2="145.4036"/><text fill="#000000" font-family="sans-serif" font-size="11" lengthAdjust="spacingAndGlyphs" textLength="28" x="300.5" y="149.998">public</text><line style="stroke: #0000FF; stroke-width: 1.0; stroke-dasharray: 1.0,2.0;" x1="328.5" x2="409.5" y1="145.4036" y2="145.4036"/><!--class Communicator--><rect fill="#FEFECE" filter="url(#fl768xeufcu3f)" height="48" id="Communicator" style="stroke: #A80036; stroke-width: 1.5;" width="114" x="445.5" y="96"/><ellipse cx="460.5" cy="112" fill="#ADD1B2" rx="11" ry="11" style="stroke: #A80036; stroke-width: 1.0;"/><path d="M459.0781,117.3594 Q457.2188,117.3594 456.125,115.9688 Q455.0313,114.5781 455.0313,111.5938 Q455.0313,109.0625 456.1953,107.4063 Q457.3594,105.75 459.3438,105.75 Q460.8125,105.75 461.2813,105.875 Q461.75,106.0781 461.75,106.0781 Q461.75,106.0781 461.75,106.0078 Q461.75,105.9375 462.3594,105.0156 L463.4063,108.6719 L462.0781,109.0781 Q461.6094,107.5313 460.9453,106.8672 Q460.2813,106.2031 459.2188,106.2031 Q458.8281,106.2031 458.0625,107.7344 Q457.2969,109.2656 457.2969,111.5156 Q457.2969,113.9844 457.9609,115.375 Q458.625,116.7656 459.1563,116.7656 Q460.2188,116.7656 460.9766,116 Q461.7344,115.2344 462.0781,113.5781 L463.4063,114.1719 Q463.0781,115.5781 462.1797,116.4688 Q461.2813,117.3594 459.0781,117.3594 Z "/><text fill="#000000" font-family="sans-serif" font-size="12" lengthAdjust="spacingAndGlyphs" textLength="82" x="474.5" y="117.5576">Communicator</text><line style="stroke: #A80036; stroke-width: 1.5;" x1="446.5" x2="558.5" y1="128" y2="128"/><line style="stroke: #A80036; stroke-width: 1.5;" x1="446.5" x2="558.5" y1="136" y2="136"/><ellipse cx="480.5" cy="297" fill="#FEFECE" filter="url(#fl768xeufcu3f)" rx="5" ry="5" style="stroke: #A80036; stroke-width: 1.5;"/><text fill="#000000" font-family="sans-serif" font-size="12" lengthAdjust="spacingAndGlyphs" textLength="47" x="457" y="315.752">Register</text><ellipse cx="525.5" cy="297" fill="#FEFECE" filter="url(#fl768xeufcu3f)" rx="5" ry="5" style="stroke: #A80036; stroke-width: 1.5;"/><text fill="#000000" font-family="sans-serif" font-size="12" lengthAdjust="spacingAndGlyphs" textLength="31" x="510" y="315.752">Login</text><ellipse cx="759.5" cy="297" fill="#FEFECE" filter="url(#fl768xeufcu3f)" rx="5" ry="5" style="stroke: #A80036; stroke-width: 1.5;"/><text fill="#000000" font-family="sans-serif" font-size="12" lengthAdjust="spacingAndGlyphs" textLength="87" x="716" y="315.752">UserInfoAccess</text><!--link Communicator to Communicatorlol7--><path d="M499.579,144.239 C494.295,186.264 483.471,272.3646 481.007,291.9675 " fill="none" id="Communicator-Communicatorlol7" style="stroke: #A80036; stroke-width: 1.0;"/><!--link Communicator to Communicatorlol10--><path d="M505.554,144.239 C511.077,186.264 522.394,272.3646 524.97,291.9675 " fill="none" id="Communicator-Communicatorlol10" style="stroke: #A80036; stroke-width: 1.0;"/><!--link UserInfoControl to UserInfoControllol13--><path d="M759.5,174.457 C759.5,218.2817 759.5,275.6054 759.5,291.6578 " fill="none" id="UserInfoControl-UserInfoControllol13" style="stroke: #A80036; stroke-width: 1.0;"/><!--
@startuml Diagrams/UserSubsystemClassDiagram

skinparam class {

	BackgroundColor<<viewModel>> LightBlue
	BorderColor<<viewModel>> Blue
    BackgroundColor<<control>> LightGray
    BorderColor<<control>> Red
    BackgroundColor<<entity>> LightYellow
    BorderColor<<entity>> Yellow
}

component UserSubsystem {

    class UserInfoControl {
        login(username: String, password: String, remember: boolean): int
        setCurrentUser(userID: int, username: String): void
        rememberCurrentUser(): void
        checkLoginData(username: String, password: String): boolean
        }
    }


    class RegisterViewModel <<viewModel>> {
        ..private..
        - username: String
        - password: String
        - email: String
        - allowRegister: boolean
        ..public..
        + onRegisterButtonClicked(): void
        + alertUserExistent(): void
        + alertPasswordIllegal(): void
        + alertRegisterSuccessed(): void 
    }
    
    class LoginViewModel <<viewModel>> {
        ..private..
        - isLoginButtonClickable: boolean
        - username: String
        - password: String
        - rememberMe: boolean
        ..public..
        + onLoginDataChanged(): void
        + onRememberButtonToggled(): void
        + alertUserNonexistent(): void
        + alertPasswordError(): void
        + alertLoginSuccessed(): void
    }
    class Communicator{
    }
Communicator - -() Register
Communicator - -() Login
UserInfoControl - -() UserInfoAccess
@enduml

PlantUML version 1.2018.03(Fri Apr 06 00:59:15 CST 2018)
(GPL source distribution)
Java Runtime: Java(TM) SE Runtime Environment
JVM: Java HotSpot(TM) Client VM
Java Version: 1.8.0_171-b11
Operating System: Windows 8.1
OS Version: 6.3
Default Encoding: GBK
Language: zh
Country: CN
--></g></svg>