<?xml version="1.0" encoding="UTF-8" standalone="no"?><svg xmlns="http://www.w3.org/2000/svg" xmlns:xlink="http://www.w3.org/1999/xlink" contentScriptType="application/ecmascript" contentStyleType="text/css" height="383px" preserveAspectRatio="none" style="width:834px;height:383px;" version="1.1" viewBox="0 0 834 383"
    width="834px" zoomAndPan="magnify"><defs><filter height="300%" id="fixcu5lcm60i" width="300%" x="-1" y="-1"><feGaussianBlur result="blurOut" stdDeviation="2.0"/><feColorMatrix in="blurOut" result="blurOut2" type="matrix" values="0 0 0 0 0 0 0 0 0 0 0 0 0 0 0 0 0 0 .4 0"/><feOffset dx="4.0" dy="4.0" in="blurOut2" result="blurOut3"/><feBlend in="SourceGraphic" in2="blurOut3" mode="normal"/></filter></defs><g><!--cluster UserSubsystem--><rect fill="#FFFFFF" filter="url(#fixcu5lcm60i)" height="278" style="stroke: #000000; stroke-width: 1.5;" width="801" x="22" y="24"/><rect fill="#FFFFFF" height="10" style="stroke: #000000; stroke-width: 1.5;" width="15" x="803" y="29"/><rect fill="#FFFFFF" height="2" style="stroke: #000000; stroke-width: 1.5;" width="4" x="801" y="31"/><rect fill="#FFFFFF" height="2" style="stroke: #000000; stroke-width: 1.5;" width="4" x="801" y="35"/><text fill="#000000" font-family="sans-serif" font-size="14" font-weight="bold" lengthAdjust="spacingAndGlyphs" textLength="109" x="368" y="53.0439">UserSubsystem</text><!--class UserInfoControl--><rect fill="#FEFECE" filter="url(#fixcu5lcm60i)" height="108.0918" id="UserInfoControl" style="stroke: #A80036; stroke-width: 1.5;" width="329" x="477.5" y="120"/><ellipse cx="594.25" cy="136" fill="#ADD1B2" rx="11" ry="11" style="stroke: #A80036; stroke-width: 1.0;"/><path d="M592.8281,141.3594 Q590.9688,141.3594 589.875,139.9688 Q588.7813,138.5781 588.7813,135.5938 Q588.7813,133.0625 589.9453,131.4063 Q591.1094,129.75 593.0938,129.75 Q594.5625,129.75 595.0313,129.875 Q595.5,130.0781 595.5,130.0781 Q595.5,130.0781 595.5,130.0078 Q595.5,129.9375 596.1094,129.0156 L597.1563,132.6719 L595.8281,133.0781 Q595.3594,131.5313 594.6953,130.8672 Q594.0313,130.2031 592.9688,130.2031 Q592.5781,130.2031 591.8125,131.7344 Q591.0469,133.2656 591.0469,135.5156 Q591.0469,137.9844 591.7109,139.375 Q592.375,140.7656 592.9063,140.7656 Q593.9688,140.7656 594.7266,140 Q595.4844,139.2344 595.8281,137.5781 L597.1563,138.1719 Q596.8281,139.5781 595.9297,140.4688 Q595.0313,141.3594 592.8281,141.3594 Z "/><text fill="#000000" font-family="sans-serif" font-size="12" lengthAdjust="spacingAndGlyphs" textLength="87" x="614.75" y="141.5576">UserInfoControl</text><line style="stroke: #A80036; stroke-width: 1.5;" x1="478.5" x2="805.5" y1="152" y2="152"/><line style="stroke: #A80036; stroke-width: 1.5;" x1="478.5" x2="805.5" y1="160" y2="160"/><text fill="#000000" font-family="sans-serif" font-size="11" lengthAdjust="spacingAndGlyphs" textLength="317" x="483.5" y="176.606">login(username: String, password: String, remember: boolean): int</text><text fill="#000000" font-family="sans-serif" font-size="11" lengthAdjust="spacingAndGlyphs" textLength="244" x="483.5" y="191.6289">setCurrentUser(userID: int, username: String): void</text><text fill="#000000" font-family="sans-serif" font-size="11" lengthAdjust="spacingAndGlyphs" textLength="141" x="483.5" y="206.6519">rememberCurrentUser(): void</text><text fill="#000000" font-family="sans-serif" font-size="11" lengthAdjust="spacingAndGlyphs" textLength="301" x="483.5" y="221.6748">checkLoginData(username: String, password: String): boolean</text><!--class RegisterViewModel--><rect fill="#FEFECE" filter="url(#fixcu5lcm60i)" height="209.0068" id="RegisterViewModel" style="stroke: #A80036; stroke-width: 1.5;" width="177" x="265.5" y="69.5"/><ellipse cx="298.05" cy="90.8887" fill="#ADD1B2" rx="11" ry="11" style="stroke: #A80036; stroke-width: 1.0;"/><path d="M296.6281,96.248 Q294.7688,96.248 293.675,94.8574 Q292.5813,93.4668 292.5813,90.4824 Q292.5813,87.9512 293.7453,86.2949 Q294.9094,84.6387 296.8938,84.6387 Q298.3625,84.6387 298.8313,84.7637 Q299.3,84.9668 299.3,84.9668 Q299.3,84.9668 299.3,84.8965 Q299.3,84.8262 299.9094,83.9043 L300.9563,87.5605 L299.6281,87.9668 Q299.1594,86.4199 298.4953,85.7559 Q297.8313,85.0918 296.7688,85.0918 Q296.3781,85.0918 295.6125,86.623 Q294.8469,88.1543 294.8469,90.4043 Q294.8469,92.873 295.5109,94.2637 Q296.175,95.6543 296.7063,95.6543 Q297.7688,95.6543 298.5266,94.8887 Q299.2844,94.123 299.6281,92.4668 L300.9563,93.0605 Q300.6281,94.4668 299.7297,95.3574 Q298.8313,96.248 296.6281,96.248 Z "/><text fill="#000000" font-family="sans-serif" font-size="12" font-style="italic" lengthAdjust="spacingAndGlyphs" textLength="71" x="333.45" y="88.252">«viewModel»</text><text fill="#000000" font-family="sans-serif" font-size="12" lengthAdjust="spacingAndGlyphs" textLength="106" x="315.95" y="104.6406">RegisterViewModel</text><line style="stroke: #A80036; stroke-width: 1.5;" x1="266.5" x2="441.5" y1="112.2773" y2="112.2773"/><rect fill="none" height="6" style="stroke: #C82930; stroke-width: 1.0;" width="6" x="273.5" y="141.3118"/><text fill="#000000" font-family="sans-serif" font-size="11" lengthAdjust="spacingAndGlyphs" textLength="82" x="285.5" y="147.9063">username: String</text><rect fill="none" height="6" style="stroke: #C82930; stroke-width: 1.0;" width="6" x="273.5" y="156.3347"/><text fill="#000000" font-family="sans-serif" font-size="11" lengthAdjust="spacingAndGlyphs" textLength="84" x="285.5" y="162.9292">password: String</text><rect fill="none" height="6" style="stroke: #C82930; stroke-width: 1.0;" width="6" x="273.5" y="171.3577"/><text fill="#000000" font-family="sans-serif" font-size="11" lengthAdjust="spacingAndGlyphs" textLength="58" x="285.5" y="177.9521">email: String</text><rect fill="none" height="6" style="stroke: #C82930; stroke-width: 1.0;" width="6" x="273.5" y="186.3806"/><text fill="#000000" font-family="sans-serif" font-size="11" lengthAdjust="spacingAndGlyphs" textLength="110" x="285.5" y="192.9751">allowRegister: boolean</text><line style="stroke: #A80036; stroke-width: 1.0; stroke-dasharray: 1.0,2.0;" x1="266.5" x2="337.5" y1="127.7888" y2="127.7888"/><text fill="#000000" font-family="sans-serif" font-size="11" lengthAdjust="spacingAndGlyphs" textLength="33" x="337.5" y="132.3833">private</text><line style="stroke: #A80036; stroke-width: 1.0; stroke-dasharray: 1.0,2.0;" x1="370.5" x2="441.5" y1="127.7888" y2="127.7888"/><ellipse cx="276.5" cy="223.4265" fill="#84BE84" rx="3" ry="3" style="stroke: #038048; stroke-width: 1.0;"/><text fill="#000000" font-family="sans-serif" font-size="11" lengthAdjust="spacingAndGlyphs" textLength="151" x="285.5" y="227.021">onRegisterButtonClicked(): void</text><ellipse cx="276.5" cy="238.4495" fill="#84BE84" rx="3" ry="3" style="stroke: #038048; stroke-width: 1.0;"/><text fill="#000000" font-family="sans-serif" font-size="11" lengthAdjust="spacingAndGlyphs" textLength="116" x="285.5" y="242.0439">alertUserExistent(): void</text><ellipse cx="276.5" cy="253.4724" fill="#84BE84" rx="3" ry="3" style="stroke: #038048; stroke-width: 1.0;"/><text fill="#000000" font-family="sans-serif" font-size="11" lengthAdjust="spacingAndGlyphs" textLength="131" x="285.5" y="257.0669">alertPasswordIllegal(): void</text><ellipse cx="276.5" cy="268.4954" fill="#84BE84" rx="3" ry="3" style="stroke: #038048; stroke-width: 1.0;"/><text fill="#000000" font-family="sans-serif" font-size="11" lengthAdjust="spacingAndGlyphs" textLength="150" x="285.5" y="272.0898">alertRegisterSuccessed(): void</text><line style="stroke: #A80036; stroke-width: 1.0; stroke-dasharray: 1.0,2.0;" x1="266.5" x2="340" y1="206.9036" y2="206.9036"/><text fill="#000000" font-family="sans-serif" font-size="11" lengthAdjust="spacingAndGlyphs" textLength="28" x="340" y="211.498">public</text><line style="stroke: #A80036; stroke-width: 1.0; stroke-dasharray: 1.0,2.0;" x1="368" x2="441.5" y1="206.9036" y2="206.9036"/><!--class LoginViewModel--><rect fill="#FEFECE" filter="url(#fixcu5lcm60i)" height="224.0298" id="LoginViewModel" style="stroke: #A80036; stroke-width: 1.5;" width="192" x="38" y="62"/><ellipse cx="84.75" cy="83.3887" fill="#ADD1B2" rx="11" ry="11" style="stroke: #A80036; stroke-width: 1.0;"/><path d="M83.3281,88.748 Q81.4688,88.748 80.375,87.3574 Q79.2813,85.9668 79.2813,82.9824 Q79.2813,80.4512 80.4453,78.7949 Q81.6094,77.1387 83.5938,77.1387 Q85.0625,77.1387 85.5313,77.2637 Q86,77.4668 86,77.4668 Q86,77.4668 86,77.3965 Q86,77.3262 86.6094,76.4043 L87.6563,80.0605 L86.3281,80.4668 Q85.8594,78.9199 85.1953,78.2559 Q84.5313,77.5918 83.4688,77.5918 Q83.0781,77.5918 82.3125,79.123 Q81.5469,80.6543 81.5469,82.9043 Q81.5469,85.373 82.2109,86.7637 Q82.875,88.1543 83.4063,88.1543 Q84.4688,88.1543 85.2266,87.3887 Q85.9844,86.623 86.3281,84.9668 L87.6563,85.5605 Q87.3281,86.9668 86.4297,87.8574 Q85.5313,88.748 83.3281,88.748 Z "/><text fill="#000000" font-family="sans-serif" font-size="12" font-style="italic" lengthAdjust="spacingAndGlyphs" textLength="71" x="114.75" y="80.752">«viewModel»</text><text fill="#000000" font-family="sans-serif" font-size="12" lengthAdjust="spacingAndGlyphs" textLength="90" x="105.25" y="97.1406">LoginViewModel</text><line style="stroke: #A80036; stroke-width: 1.5;" x1="39" x2="229" y1="104.7773" y2="104.7773"/><rect fill="none" height="6" style="stroke: #C82930; stroke-width: 1.0;" width="6" x="46" y="133.8118"/><text fill="#000000" font-family="sans-serif" font-size="11" lengthAdjust="spacingAndGlyphs" textLength="151" x="58" y="140.4063">isLoginButtonClickable: boolean</text><rect fill="none" height="6" style="stroke: #C82930; stroke-width: 1.0;" width="6" x="46" y="148.8347"/><text fill="#000000" font-family="sans-serif" font-size="11" lengthAdjust="spacingAndGlyphs" textLength="82" x="58" y="155.4292">username: String</text><rect fill="none" height="6" style="stroke: #C82930; stroke-width: 1.0;" width="6" x="46" y="163.8577"/><text fill="#000000" font-family="sans-serif" font-size="11" lengthAdjust="spacingAndGlyphs" textLength="84" x="58" y="170.4521">password: String</text><rect fill="none" height="6" style="stroke: #C82930; stroke-width: 1.0;" width="6" x="46" y="178.8806"/><text fill="#000000" font-family="sans-serif" font-size="11" lengthAdjust="spacingAndGlyphs" textLength="106" x="58" y="185.4751">rememberMe: boolean</text><line style="stroke: #A80036; stroke-width: 1.0; stroke-dasharray: 1.0,2.0;" x1="39" x2="117.5" y1="120.2888" y2="120.2888"/><text fill="#000000" font-family="sans-serif" font-size="11" lengthAdjust="spacingAndGlyphs" textLength="33" x="117.5" y="124.8833">private</text><line style="stroke: #A80036; stroke-width: 1.0; stroke-dasharray: 1.0,2.0;" x1="150.5" x2="229" y1="120.2888" y2="120.2888"/><ellipse cx="49" cy="215.9265" fill="#84BE84" rx="3" ry="3" style="stroke: #038048; stroke-width: 1.0;"/><text fill="#000000" font-family="sans-serif" font-size="11" lengthAdjust="spacingAndGlyphs" textLength="137" x="58" y="219.521">onLoginDataChanged(): void</text><ellipse cx="49" cy="230.9495" fill="#84BE84" rx="3" ry="3" style="stroke: #038048; stroke-width: 1.0;"/><text fill="#000000" font-family="sans-serif" font-size="11" lengthAdjust="spacingAndGlyphs" textLength="166" x="58" y="234.5439">onRememberButtonToggled(): void</text><ellipse cx="49" cy="245.9724" fill="#84BE84" rx="3" ry="3" style="stroke: #038048; stroke-width: 1.0;"/><text fill="#000000" font-family="sans-serif" font-size="11" lengthAdjust="spacingAndGlyphs" textLength="135" x="58" y="249.5669">alertUserNonexistent(): void</text><ellipse cx="49" cy="260.9954" fill="#84BE84" rx="3" ry="3" style="stroke: #038048; stroke-width: 1.0;"/><text fill="#000000" font-family="sans-serif" font-size="11" lengthAdjust="spacingAndGlyphs" textLength="129" x="58" y="264.5898">alertPasswordError(): void</text><ellipse cx="49" cy="276.0183" fill="#84BE84" rx="3" ry="3" style="stroke: #038048; stroke-width: 1.0;"/><text fill="#000000" font-family="sans-serif" font-size="11" lengthAdjust="spacingAndGlyphs" textLength="136" x="58" y="279.6128">alertLoginSuccessed(): void</text><line style="stroke: #A80036; stroke-width: 1.0; stroke-dasharray: 1.0,2.0;" x1="39" x2="120" y1="199.4036" y2="199.4036"/><text fill="#000000" font-family="sans-serif" font-size="11" lengthAdjust="spacingAndGlyphs" textLength="28" x="120" y="203.998">public</text><line style="stroke: #A80036; stroke-width: 1.0; stroke-dasharray: 1.0,2.0;" x1="148" x2="229" y1="199.4036" y2="199.4036"/><ellipse cx="642" cy="351" fill="#FEFECE" filter="url(#fixcu5lcm60i)" rx="5" ry="5" style="stroke: #A80036; stroke-width: 1.5;"/><text fill="#000000" font-family="sans-serif" font-size="12" lengthAdjust="spacingAndGlyphs" textLength="87" x="598.5" y="369.752">UserInfoAccess</text><!--link UserInfoControl to UserInfoControllol6--><path d="M642,228.457 C642,272.2817 642,329.6054 642,345.6578 " fill="none" id="UserInfoControl-UserInfoControllol6" style="stroke: #A80036; stroke-width: 1.0;"/><!--
@startuml Diagrams/UserSubsystemClassDiagram

component UserSubsystem {
    class UserInfoControl {
        login(username: String, password: String, remember: boolean): int
        setCurrentUser(userID: int, username: String): void
        rememberCurrentUser(): void
        checkLoginData(username: String, password: String): boolean
        }
    
    class RegisterViewModel <<viewModel>> {
        ..private..
        - username: String
        - password: String
        - email: String
        - allowRegister: boolean
        ..public..
        + onRegisterButtonClicked(): void
        + alertUserExistent(): void
        + alertPasswordIllegal(): void
        + alertRegisterSuccessed(): void
    }

    class LoginViewModel <<viewModel>> {
        ..private..
        - isLoginButtonClickable: boolean
        - username: String
        - password: String
        - rememberMe: boolean
        ..public..
        + onLoginDataChanged(): void
        + onRememberButtonToggled(): void
        + alertUserNonexistent(): void
        + alertPasswordError(): void
        + alertLoginSuccessed(): void
    }
}
UserInfoControl - -() UserInfoAccess
@enduml

PlantUML version 1.2018.02(Sat Mar 10 01:20:44 CST 2018)
(GPL source distribution)
Java Runtime: Java(TM) SE Runtime Environment
JVM: Java HotSpot(TM) Client VM
Java Version: 1.8.0_162-b12
Operating System: Windows 10
OS Version: 10.0
Default Encoding: GBK
Language: zh
Country: CN
--></g></svg>