<?xml version="1.0" encoding="UTF-8" standalone="no"?><svg xmlns="http://www.w3.org/2000/svg" xmlns:xlink="http://www.w3.org/1999/xlink" contentScriptType="application/ecmascript" contentStyleType="text/css" height="358px" preserveAspectRatio="none" style="width:429px;height:358px;" version="1.1" viewBox="0 0 429 358"
    width="429px" zoomAndPan="magnify"><defs><filter height="300%" id="f138y4dmyqn9zy" width="300%" x="-1" y="-1"><feGaussianBlur result="blurOut" stdDeviation="2.0"/><feColorMatrix in="blurOut" result="blurOut2" type="matrix" values="0 0 0 0 0 0 0 0 0 0 0 0 0 0 0 0 0 0 .4 0"/><feOffset dx="4.0" dy="4.0" in="blurOut2" result="blurOut3"/><feBlend in="SourceGraphic" in2="blurOut3" mode="normal"/></filter></defs><g><rect fill="#FFFFFF" filter="url(#f138y4dmyqn9zy)" height="150.0176" style="stroke: #A80036; stroke-width: 1.0;" width="10" x="22.5" y="99.1201"/><rect fill="#FFFFFF" filter="url(#f138y4dmyqn9zy)" height="150.0176" style="stroke: #A80036; stroke-width: 1.0;" width="10" x="198.5" y="99.1201"/><rect fill="#FFFFFF" filter="url(#f138y4dmyqn9zy)" height="127.0176" style="stroke: #A80036; stroke-width: 1.0;" width="10" x="303" y="122.1201"/><rect fill="#FFFFFF" filter="url(#f138y4dmyqn9zy)" height="31.7544" style="stroke: #A80036; stroke-width: 1.0;" width="10" x="391" y="217.3833"/><line style="stroke: #A80036; stroke-width: 1.0; stroke-dasharray: 5.0,5.0;" x1="27" x2="27" y1="89.1201" y2="267.8921"/><line style="stroke: #A80036; stroke-width: 1.0; stroke-dasharray: 5.0,5.0;" x1="203.5" x2="203.5" y1="89.1201" y2="267.8921"/><line style="stroke: #A80036; stroke-width: 1.0; stroke-dasharray: 5.0,5.0;" x1="307.5" x2="307.5" y1="89.1201" y2="267.8921"/><line style="stroke: #A80036; stroke-width: 1.0; stroke-dasharray: 5.0,5.0;" x1="395.5" x2="395.5" y1="89.1201" y2="267.8921"/><text fill="#000000" font-family="sans-serif" font-size="14" lengthAdjust="spacingAndGlyphs" textLength="4" x="8" y="86.0439">:</text><text fill="#000000" font-family="sans-serif" font-size="14" lengthAdjust="spacingAndGlyphs" text-decoration="underline" textLength="29" x="12" y="86.0439">User</text><line style="stroke: #000000; stroke-width: 1.0;" x1="12" x2="41" y1="88.0439" y2="88.0439"/><ellipse cx="27.5" cy="13" fill="#FEFECE" filter="url(#f138y4dmyqn9zy)" rx="8" ry="8" style="stroke: #A80036; stroke-width: 2.0;"/><path d="M27.5,21 L27.5,48 M14.5,29 L40.5,29 M27.5,48 L14.5,63 M27.5,48 L40.5,63 " fill="none" filter="url(#f138y4dmyqn9zy)" style="stroke: #A80036; stroke-width: 2.0;"/><text fill="#000000" font-family="sans-serif" font-size="14" lengthAdjust="spacingAndGlyphs" textLength="4" x="8" y="282.936">:</text><text fill="#000000" font-family="sans-serif" font-size="14" lengthAdjust="spacingAndGlyphs" text-decoration="underline" textLength="29" x="12" y="282.936">User</text><line style="stroke: #000000; stroke-width: 1.0;" x1="12" x2="41" y1="284.936" y2="284.936"/><ellipse cx="27.5" cy="296.0122" fill="#FEFECE" filter="url(#f138y4dmyqn9zy)" rx="8" ry="8" style="stroke: #A80036; stroke-width: 2.0;"/><path d="M27.5,304.0122 L27.5,331.0122 M14.5,312.0122 L40.5,312.0122 M27.5,331.0122 L14.5,346.0122 M27.5,331.0122 L40.5,346.0122 " fill="none" filter="url(#f138y4dmyqn9zy)" style="stroke: #A80036; stroke-width: 2.0;"/><text fill="#000000" font-family="sans-serif" font-size="14" lengthAdjust="spacingAndGlyphs" textLength="4" x="159.5" y="86.0439">:</text><text fill="#000000" font-family="sans-serif" font-size="14" lengthAdjust="spacingAndGlyphs" text-decoration="underline" textLength="78" x="163.5" y="86.0439">SensorPage</text><line style="stroke: #000000; stroke-width: 1.0;" x1="163.5" x2="241.5" y1="88.0439" y2="88.0439"/><path d="M183,42 L183,66 M183,54 L200,54 " fill="none" filter="url(#f138y4dmyqn9zy)" style="stroke: #A80036; stroke-width: 2.0;"/><ellipse cx="212" cy="54" fill="#FEFECE" filter="url(#f138y4dmyqn9zy)" rx="12" ry="12" style="stroke: #A80036; stroke-width: 2.0;"/><text fill="#000000" font-family="sans-serif" font-size="14" lengthAdjust="spacingAndGlyphs" textLength="4" x="159.5" y="282.936">:</text><text fill="#000000" font-family="sans-serif" font-size="14" lengthAdjust="spacingAndGlyphs" text-decoration="underline" textLength="78" x="163.5" y="282.936">SensorPage</text><line style="stroke: #000000; stroke-width: 1.0;" x1="163.5" x2="241.5" y1="284.936" y2="284.936"/><path d="M183,290.0122 L183,314.0122 M183,302.0122 L200,302.0122 " fill="none" filter="url(#f138y4dmyqn9zy)" style="stroke: #A80036; stroke-width: 2.0;"/><ellipse cx="212" cy="302.0122" fill="#FEFECE" filter="url(#f138y4dmyqn9zy)" rx="12" ry="12" style="stroke: #A80036; stroke-width: 2.0;"/><text fill="#000000" font-family="sans-serif" font-size="14" lengthAdjust="spacingAndGlyphs" textLength="4" x="257.5" y="86.0439">:</text><text fill="#000000" font-family="sans-serif" font-size="14" lengthAdjust="spacingAndGlyphs" text-decoration="underline" textLength="91" x="261.5" y="86.0439">SensorControl</text><line style="stroke: #000000; stroke-width: 1.0;" x1="261.5" x2="352.5" y1="88.0439" y2="88.0439"/><ellipse cx="308" cy="54" fill="#FEFECE" filter="url(#f138y4dmyqn9zy)" rx="12" ry="12" style="stroke: #A80036; stroke-width: 2.0;"/><polygon fill="#A80036" points="304,42,310,37,308,42,310,47,304,42" style="stroke: #A80036; stroke-width: 1.0;"/><text fill="#000000" font-family="sans-serif" font-size="14" lengthAdjust="spacingAndGlyphs" textLength="4" x="257.5" y="282.936">:</text><text fill="#000000" font-family="sans-serif" font-size="14" lengthAdjust="spacingAndGlyphs" text-decoration="underline" textLength="91" x="261.5" y="282.936">SensorControl</text><line style="stroke: #000000; stroke-width: 1.0;" x1="261.5" x2="352.5" y1="284.936" y2="284.936"/><ellipse cx="308" cy="302.0122" fill="#FEFECE" filter="url(#f138y4dmyqn9zy)" rx="12" ry="12" style="stroke: #A80036; stroke-width: 2.0;"/><polygon fill="#A80036" points="304,290.0122,310,285.0122,308,290.0122,310,295.0122,304,290.0122" style="stroke: #A80036; stroke-width: 1.0;"/><text fill="#000000" font-family="sans-serif" font-size="14" lengthAdjust="spacingAndGlyphs" textLength="4" x="368.5" y="86.0439">:</text><text fill="#000000" font-family="sans-serif" font-size="14" lengthAdjust="spacingAndGlyphs" text-decoration="underline" textLength="45" x="372.5" y="86.0439">Sensor</text><line style="stroke: #000000; stroke-width: 1.0;" x1="372.5" x2="417.5" y1="88.0439" y2="88.0439"/><ellipse cx="396" cy="54" fill="#FEFECE" filter="url(#f138y4dmyqn9zy)" rx="12" ry="12" style="stroke: #A80036; stroke-width: 2.0;"/><line style="stroke: #A80036; stroke-width: 2.0;" x1="384" x2="408" y1="68" y2="68"/><text fill="#000000" font-family="sans-serif" font-size="14" lengthAdjust="spacingAndGlyphs" textLength="4" x="368.5" y="282.936">:</text><text fill="#000000" font-family="sans-serif" font-size="14" lengthAdjust="spacingAndGlyphs" text-decoration="underline" textLength="45" x="372.5" y="282.936">Sensor</text><line style="stroke: #000000; stroke-width: 1.0;" x1="372.5" x2="417.5" y1="284.936" y2="284.936"/><ellipse cx="396" cy="302.0122" fill="#FEFECE" filter="url(#f138y4dmyqn9zy)" rx="12" ry="12" style="stroke: #A80036; stroke-width: 2.0;"/><line style="stroke: #A80036; stroke-width: 2.0;" x1="384" x2="408" y1="316.0122" y2="316.0122"/><rect fill="#FFFFFF" filter="url(#f138y4dmyqn9zy)" height="150.0176" style="stroke: #A80036; stroke-width: 1.0;" width="10" x="22.5" y="99.1201"/><rect fill="#FFFFFF" filter="url(#f138y4dmyqn9zy)" height="150.0176" style="stroke: #A80036; stroke-width: 1.0;" width="10" x="198.5" y="99.1201"/><rect fill="#FFFFFF" filter="url(#f138y4dmyqn9zy)" height="127.0176" style="stroke: #A80036; stroke-width: 1.0;" width="10" x="303" y="122.1201"/><rect fill="#FFFFFF" filter="url(#f138y4dmyqn9zy)" height="31.7544" style="stroke: #A80036; stroke-width: 1.0;" width="10" x="391" y="217.3833"/><polygon fill="#A80036" points="291,118.1201,301,122.1201,291,126.1201,295,122.1201" style="stroke: #A80036; stroke-width: 1.0;"/><line style="stroke: #A80036; stroke-width: 1.0;" x1="208.5" x2="297" y1="122.1201" y2="122.1201"/><text fill="#000000" font-family="sans-serif" font-size="13" lengthAdjust="spacingAndGlyphs" textLength="68" x="215.5" y="118.0181">&lt;&lt;create&gt;&gt;</text><polygon fill="#A80036" points="43.5,149.8745,33.5,153.8745,43.5,157.8745,39.5,153.8745" style="stroke: #A80036; stroke-width: 1.0;"/><line style="stroke: #A80036; stroke-width: 1.0;" x1="37.5" x2="197.5" y1="153.8745" y2="153.8745"/><text fill="#000000" font-family="sans-serif" font-size="13" lengthAdjust="spacingAndGlyphs" textLength="142" x="49.5" y="149.7725">SystemRemindMessage</text><polygon fill="#A80036" points="186.5,181.6289,196.5,185.6289,186.5,189.6289,190.5,185.6289" style="stroke: #A80036; stroke-width: 1.0;"/><line style="stroke: #A80036; stroke-width: 1.0;" x1="32.5" x2="192.5" y1="185.6289" y2="185.6289"/><text fill="#000000" font-family="sans-serif" font-size="13" lengthAdjust="spacingAndGlyphs" textLength="78" x="39.5" y="181.5269">AdjustSensor</text><polygon fill="#A80036" points="379,213.3833,389,217.3833,379,221.3833,383,217.3833" style="stroke: #A80036; stroke-width: 1.0;"/><line style="stroke: #A80036; stroke-width: 1.0;" x1="313" x2="385" y1="217.3833" y2="217.3833"/><text fill="#000000" font-family="sans-serif" font-size="13" lengthAdjust="spacingAndGlyphs" textLength="37" x="320" y="213.2813">Adjust</text><polygon fill="#A80036" points="319,245.1377,309,249.1377,319,253.1377,315,249.1377" style="stroke: #A80036; stroke-width: 1.0;"/><line style="stroke: #A80036; stroke-width: 1.0;" x1="313" x2="395" y1="249.1377" y2="249.1377"/><text fill="#000000" font-family="sans-serif" font-size="13" lengthAdjust="spacingAndGlyphs" textLength="37" x="325" y="245.0356">Adjust</text><!--
@startuml
actor ":__User__" as User
boundary ":__SensorPage__" as SensorPage
control ":__SensorControl__" as SensorControl
entity ":__Sensor__" as Sensor

activate User
activate SensorPage
SensorPage -> SensorControl: <<create>>
activate SensorControl
SensorPage -> User: SystemRemindMessage
User -> SensorPage: AdjustSensor
SensorControl -> Sensor: Adjust
activate Sensor
Sensor -> SensorControl: Adjust
deactivate Sensor
deactivate SensorControl
deactivate SensorPage
deactivate User
@enduml

PlantUML version 1.2018.01(Mon Jan 29 02:08:22 CST 2018)
(GPL source distribution)
Java Runtime: Java(TM) SE Runtime Environment
JVM: Java HotSpot(TM) Client VM
Java Version: 1.8.0_144-b01
Operating System: Windows 10
OS Version: 10.0
Default Encoding: GBK
Language: zh
Country: CN
--></g></svg>