<?xml version="1.0" encoding="UTF-8" standalone="no"?><svg xmlns="http://www.w3.org/2000/svg" xmlns:xlink="http://www.w3.org/1999/xlink" contentScriptType="application/ecmascript" contentStyleType="text/css" height="326px" preserveAspectRatio="none" style="width:466px;height:326px;" version="1.1" viewBox="0 0 466 326"
    width="466px" zoomAndPan="magnify"><defs><filter height="300%" id="f1it3ofapp4pi0" width="300%" x="-1" y="-1"><feGaussianBlur result="blurOut" stdDeviation="2.0"/><feColorMatrix in="blurOut" result="blurOut2" type="matrix" values="0 0 0 0 0 0 0 0 0 0 0 0 0 0 0 0 0 0 .4 0"/><feOffset dx="4.0" dy="4.0" in="blurOut2" result="blurOut3"/><feBlend in="SourceGraphic" in2="blurOut3" mode="normal"/></filter></defs><g><line style="stroke: #A80036; stroke-width: 1.0; stroke-dasharray: 5.0,5.0;" x1="25" x2="25" y1="89.1201" y2="236.1377"/><line style="stroke: #A80036; stroke-width: 1.0; stroke-dasharray: 5.0,5.0;" x1="161.5" x2="161.5" y1="89.1201" y2="236.1377"/><line style="stroke: #A80036; stroke-width: 1.0; stroke-dasharray: 5.0,5.0;" x1="299" x2="299" y1="89.1201" y2="236.1377"/><line style="stroke: #A80036; stroke-width: 1.0; stroke-dasharray: 5.0,5.0;" x1="435.5" x2="435.5" y1="89.1201" y2="236.1377"/><text fill="#000000" font-family="sans-serif" font-size="14" lengthAdjust="spacingAndGlyphs" textLength="28" x="8" y="86.0439">user</text><ellipse cx="25" cy="13" fill="#FEFECE" filter="url(#f1it3ofapp4pi0)" rx="8" ry="8" style="stroke: #A80036; stroke-width: 2.0;"/><path d="M25,21 L25,48 M12,29 L38,29 M25,48 L12,63 M25,48 L38,63 " fill="none" filter="url(#f1it3ofapp4pi0)" style="stroke: #A80036; stroke-width: 2.0;"/><text fill="#000000" font-family="sans-serif" font-size="14" lengthAdjust="spacingAndGlyphs" textLength="28" x="8" y="251.1816">user</text><ellipse cx="25" cy="264.2578" fill="#FEFECE" filter="url(#f1it3ofapp4pi0)" rx="8" ry="8" style="stroke: #A80036; stroke-width: 2.0;"/><path d="M25,272.2578 L25,299.2578 M12,280.2578 L38,280.2578 M25,299.2578 L12,314.2578 M25,299.2578 L38,314.2578 " fill="none" filter="url(#f1it3ofapp4pi0)" style="stroke: #A80036; stroke-width: 2.0;"/><text fill="#000000" font-family="sans-serif" font-size="14" lengthAdjust="spacingAndGlyphs" textLength="55" x="131.5" y="86.0439">interface</text><path d="M141.5,42 L141.5,66 M141.5,54 L158.5,54 " fill="none" filter="url(#f1it3ofapp4pi0)" style="stroke: #A80036; stroke-width: 2.0;"/><ellipse cx="170.5" cy="54" fill="#FEFECE" filter="url(#f1it3ofapp4pi0)" rx="12" ry="12" style="stroke: #A80036; stroke-width: 2.0;"/><text fill="#000000" font-family="sans-serif" font-size="14" lengthAdjust="spacingAndGlyphs" textLength="55" x="131.5" y="251.1816">interface</text><path d="M141.5,258.2578 L141.5,282.2578 M141.5,270.2578 L158.5,270.2578 " fill="none" filter="url(#f1it3ofapp4pi0)" style="stroke: #A80036; stroke-width: 2.0;"/><ellipse cx="170.5" cy="270.2578" fill="#FEFECE" filter="url(#f1it3ofapp4pi0)" rx="12" ry="12" style="stroke: #A80036; stroke-width: 2.0;"/><text fill="#000000" font-family="sans-serif" font-size="14" lengthAdjust="spacingAndGlyphs" textLength="94" x="249" y="86.0439">vssPlayControl</text><ellipse cx="299" cy="54" fill="#FEFECE" filter="url(#f1it3ofapp4pi0)" rx="12" ry="12" style="stroke: #A80036; stroke-width: 2.0;"/><polygon fill="#A80036" points="295,42,301,37,299,42,301,47,295,42" style="stroke: #A80036; stroke-width: 1.0;"/><text fill="#000000" font-family="sans-serif" font-size="14" lengthAdjust="spacingAndGlyphs" textLength="94" x="249" y="251.1816">vssPlayControl</text><ellipse cx="299" cy="270.2578" fill="#FEFECE" filter="url(#f1it3ofapp4pi0)" rx="12" ry="12" style="stroke: #A80036; stroke-width: 2.0;"/><polygon fill="#A80036" points="295,258.2578,301,253.2578,299,258.2578,301,263.2578,295,258.2578" style="stroke: #A80036; stroke-width: 1.0;"/><text fill="#000000" font-family="sans-serif" font-size="14" lengthAdjust="spacingAndGlyphs" textLength="43" x="411.5" y="86.0439">sensor</text><ellipse cx="436" cy="54" fill="#FEFECE" filter="url(#f1it3ofapp4pi0)" rx="12" ry="12" style="stroke: #A80036; stroke-width: 2.0;"/><line style="stroke: #A80036; stroke-width: 2.0;" x1="424" x2="448" y1="68" y2="68"/><text fill="#000000" font-family="sans-serif" font-size="14" lengthAdjust="spacingAndGlyphs" textLength="43" x="411.5" y="251.1816">sensor</text><ellipse cx="436" cy="270.2578" fill="#FEFECE" filter="url(#f1it3ofapp4pi0)" rx="12" ry="12" style="stroke: #A80036; stroke-width: 2.0;"/><line style="stroke: #A80036; stroke-width: 2.0;" x1="424" x2="448" y1="284.2578" y2="284.2578"/><polygon fill="#A80036" points="424,118.1201,434,122.1201,424,126.1201,428,122.1201" style="stroke: #A80036; stroke-width: 1.0;"/><line style="stroke: #A80036; stroke-width: 1.0;" x1="299" x2="430" y1="122.1201" y2="122.1201"/><text fill="#000000" font-family="sans-serif" font-size="13" lengthAdjust="spacingAndGlyphs" textLength="78" x="306" y="118.0181">AdjustSensor</text><polygon fill="#A80036" points="310,149.8745,300,153.8745,310,157.8745,306,153.8745" style="stroke: #A80036; stroke-width: 1.0;"/><line style="stroke: #A80036; stroke-width: 1.0;" x1="304" x2="435" y1="153.8745" y2="153.8745"/><text fill="#000000" font-family="sans-serif" font-size="13" lengthAdjust="spacingAndGlyphs" textLength="113" x="316" y="149.7725">Adjust successfully</text><polygon fill="#A80036" points="173,181.6289,163,185.6289,173,189.6289,169,185.6289" style="stroke: #A80036; stroke-width: 1.0;"/><line style="stroke: #A80036; stroke-width: 1.0;" x1="167" x2="298" y1="185.6289" y2="185.6289"/><text fill="#000000" font-family="sans-serif" font-size="13" lengthAdjust="spacingAndGlyphs" textLength="113" x="179" y="181.5269">Adjust successfully</text><polygon fill="#A80036" points="36,213.3833,26,217.3833,36,221.3833,32,217.3833" style="stroke: #A80036; stroke-width: 1.0;"/><line style="stroke: #A80036; stroke-width: 1.0;" x1="30" x2="161" y1="217.3833" y2="217.3833"/><text fill="#000000" font-family="sans-serif" font-size="13" lengthAdjust="spacingAndGlyphs" textLength="113" x="42" y="213.2813">Adjust successfully</text><!--
@startuml
actor user
boundary interface
control vssPlayControl
entity sensor

vssPlayControl -> sensor: AdjustSensor
sensor -> vssPlayControl: Adjust successfully
vssPlayControl -> interface: Adjust successfully
interface -> user: Adjust successfully
@enduml

PlantUML version 1.2018.01(Mon Jan 29 02:08:22 CST 2018)
(GPL source distribution)
Java Runtime: Java(TM) SE Runtime Environment
JVM: Java HotSpot(TM) Client VM
Java Version: 1.8.0_144-b01
Operating System: Windows 10
OS Version: 10.0
Default Encoding: GBK
Language: zh
Country: CN
--></g></svg>