<?xml version="1.0" encoding="UTF-8" standalone="no"?><svg xmlns="http://www.w3.org/2000/svg" xmlns:xlink="http://www.w3.org/1999/xlink" contentScriptType="application/ecmascript" contentStyleType="text/css" height="504px" preserveAspectRatio="none" style="width:525px;height:504px;" version="1.1" viewBox="0 0 525 504"
    width="525px" zoomAndPan="magnify"><defs><filter height="300%" id="f1882p2ipbscbd" width="300%" x="-1" y="-1"><feGaussianBlur result="blurOut" stdDeviation="2.0"/><feColorMatrix in="blurOut" result="blurOut2" type="matrix" values="0 0 0 0 0 0 0 0 0 0 0 0 0 0 0 0 0 0 .4 0"/><feOffset dx="4.0" dy="4.0" in="blurOut2" result="blurOut3"/><feBlend in="SourceGraphic" in2="blurOut3" mode="normal"/></filter></defs><g><rect fill="#FFFFFF" filter="url(#f1882p2ipbscbd)" height="100.3091" style="stroke: #000000; stroke-width: 2.0;" width="237.5" x="13" y="296.6465"/><rect fill="#FFFFFF" height="48.7773" style="stroke: none; stroke-width: 1.0;" width="237.5" x="13" y="348.1782"/><line style="stroke: #A80036; stroke-width: 1.0; stroke-dasharray: 5.0,5.0;" x1="40" x2="40" y1="89.1201" y2="413.9556"/><line style="stroke: #A80036; stroke-width: 1.0; stroke-dasharray: 5.0,5.0;" x1="209.5" x2="209.5" y1="89.1201" y2="413.9556"/><line style="stroke: #A80036; stroke-width: 1.0; stroke-dasharray: 5.0,5.0;" x1="380" x2="380" y1="89.1201" y2="413.9556"/><line style="stroke: #A80036; stroke-width: 1.0; stroke-dasharray: 5.0,5.0;" x1="485" x2="485" y1="89.1201" y2="413.9556"/><text fill="#000000" font-family="sans-serif" font-size="14" lengthAdjust="spacingAndGlyphs" textLength="28" x="23" y="86.0439">user</text><ellipse cx="40" cy="13" fill="#FEFECE" filter="url(#f1882p2ipbscbd)" rx="8" ry="8" style="stroke: #A80036; stroke-width: 2.0;"/><path d="M40,21 L40,48 M27,29 L53,29 M40,48 L27,63 M40,48 L53,63 " fill="none" filter="url(#f1882p2ipbscbd)" style="stroke: #A80036; stroke-width: 2.0;"/><text fill="#000000" font-family="sans-serif" font-size="14" lengthAdjust="spacingAndGlyphs" textLength="28" x="23" y="428.9995">user</text><ellipse cx="40" cy="442.0757" fill="#FEFECE" filter="url(#f1882p2ipbscbd)" rx="8" ry="8" style="stroke: #A80036; stroke-width: 2.0;"/><path d="M40,450.0757 L40,477.0757 M27,458.0757 L53,458.0757 M40,477.0757 L27,492.0757 M40,477.0757 L53,492.0757 " fill="none" filter="url(#f1882p2ipbscbd)" style="stroke: #A80036; stroke-width: 2.0;"/><text fill="#000000" font-family="sans-serif" font-size="14" lengthAdjust="spacingAndGlyphs" textLength="55" x="179.5" y="86.0439">interface</text><path d="M189.5,42 L189.5,66 M189.5,54 L206.5,54 " fill="none" filter="url(#f1882p2ipbscbd)" style="stroke: #A80036; stroke-width: 2.0;"/><ellipse cx="218.5" cy="54" fill="#FEFECE" filter="url(#f1882p2ipbscbd)" rx="12" ry="12" style="stroke: #A80036; stroke-width: 2.0;"/><text fill="#000000" font-family="sans-serif" font-size="14" lengthAdjust="spacingAndGlyphs" textLength="55" x="179.5" y="428.9995">interface</text><path d="M189.5,436.0757 L189.5,460.0757 M189.5,448.0757 L206.5,448.0757 " fill="none" filter="url(#f1882p2ipbscbd)" style="stroke: #A80036; stroke-width: 2.0;"/><ellipse cx="218.5" cy="448.0757" fill="#FEFECE" filter="url(#f1882p2ipbscbd)" rx="12" ry="12" style="stroke: #A80036; stroke-width: 2.0;"/><text fill="#000000" font-family="sans-serif" font-size="14" lengthAdjust="spacingAndGlyphs" textLength="118" x="318" y="86.0439">vssManageControl</text><ellipse cx="380" cy="54" fill="#FEFECE" filter="url(#f1882p2ipbscbd)" rx="12" ry="12" style="stroke: #A80036; stroke-width: 2.0;"/><polygon fill="#A80036" points="376,42,382,37,380,42,382,47,376,42" style="stroke: #A80036; stroke-width: 1.0;"/><text fill="#000000" font-family="sans-serif" font-size="14" lengthAdjust="spacingAndGlyphs" textLength="118" x="318" y="428.9995">vssManageControl</text><ellipse cx="380" cy="448.0757" fill="#FEFECE" filter="url(#f1882p2ipbscbd)" rx="12" ry="12" style="stroke: #A80036; stroke-width: 2.0;"/><polygon fill="#A80036" points="376,436.0757,382,431.0757,380,436.0757,382,441.0757,376,436.0757" style="stroke: #A80036; stroke-width: 1.0;"/><text fill="#000000" font-family="sans-serif" font-size="14" lengthAdjust="spacingAndGlyphs" textLength="61" x="452" y="86.0439">Database</text><path d="M467.5,34 C467.5,24 485.5,24 485.5,24 C485.5,24 503.5,24 503.5,34 L503.5,60 C503.5,70 485.5,70 485.5,70 C485.5,70 467.5,70 467.5,60 L467.5,34 " fill="#FEFECE" filter="url(#f1882p2ipbscbd)" style="stroke: #000000; stroke-width: 1.5;"/><path d="M467.5,34 C467.5,44 485.5,44 485.5,44 C485.5,44 503.5,44 503.5,34 " fill="none" style="stroke: #000000; stroke-width: 1.5;"/><text fill="#000000" font-family="sans-serif" font-size="14" lengthAdjust="spacingAndGlyphs" textLength="61" x="452" y="428.9995">Database</text><path d="M467.5,442.0757 C467.5,432.0757 485.5,432.0757 485.5,432.0757 C485.5,432.0757 503.5,432.0757 503.5,442.0757 L503.5,468.0757 C503.5,478.0757 485.5,478.0757 485.5,478.0757 C485.5,478.0757 467.5,478.0757 467.5,468.0757 L467.5,442.0757 " fill="#FEFECE" filter="url(#f1882p2ipbscbd)" style="stroke: #000000; stroke-width: 1.5;"/><path d="M467.5,442.0757 C467.5,452.0757 485.5,452.0757 485.5,452.0757 C485.5,452.0757 503.5,452.0757 503.5,442.0757 " fill="none" style="stroke: #000000; stroke-width: 1.5;"/><polygon fill="#A80036" points="198,118.1201,208,122.1201,198,126.1201,202,122.1201" style="stroke: #A80036; stroke-width: 1.0;"/><line style="stroke: #A80036; stroke-width: 1.0;" x1="40" x2="204" y1="122.1201" y2="122.1201"/><text fill="#000000" font-family="sans-serif" font-size="13" lengthAdjust="spacingAndGlyphs" textLength="146" x="47" y="118.0181">BrowseOnlineVSSLibrary</text><polygon fill="#A80036" points="368,149.8745,378,153.8745,368,157.8745,372,153.8745" style="stroke: #A80036; stroke-width: 1.0;"/><line style="stroke: #A80036; stroke-width: 1.0;" x1="210" x2="374" y1="153.8745" y2="153.8745"/><text fill="#000000" font-family="sans-serif" font-size="13" lengthAdjust="spacingAndGlyphs" textLength="146" x="217" y="149.7725">BrowseOnlineVSSLibrary</text><polygon fill="#A80036" points="473.5,181.6289,483.5,185.6289,473.5,189.6289,477.5,185.6289" style="stroke: #A80036; stroke-width: 1.0;"/><line style="stroke: #A80036; stroke-width: 1.0;" x1="380" x2="479.5" y1="185.6289" y2="185.6289"/><text fill="#000000" font-family="sans-serif" font-size="13" lengthAdjust="spacingAndGlyphs" textLength="41" x="387" y="181.5269">browse</text><polygon fill="#A80036" points="391,213.3833,381,217.3833,391,221.3833,387,217.3833" style="stroke: #A80036; stroke-width: 1.0;"/><line style="stroke: #A80036; stroke-width: 1.0;" x1="385" x2="484.5" y1="217.3833" y2="217.3833"/><text fill="#000000" font-family="sans-serif" font-size="13" lengthAdjust="spacingAndGlyphs" textLength="55" x="397" y="213.2813">online list</text><polygon fill="#A80036" points="221,245.1377,211,249.1377,221,253.1377,217,249.1377" style="stroke: #A80036; stroke-width: 1.0;"/><line style="stroke: #A80036; stroke-width: 1.0;" x1="215" x2="379" y1="249.1377" y2="249.1377"/><text fill="#000000" font-family="sans-serif" font-size="13" lengthAdjust="spacingAndGlyphs" textLength="55" x="227" y="245.0356">online list</text><polygon fill="#A80036" points="51,276.8921,41,280.8921,51,284.8921,47,280.8921" style="stroke: #A80036; stroke-width: 1.0;"/><line style="stroke: #A80036; stroke-width: 1.0;" x1="45" x2="209" y1="280.8921" y2="280.8921"/><text fill="#000000" font-family="sans-serif" font-size="13" lengthAdjust="spacingAndGlyphs" textLength="55" x="57" y="276.79">online list</text><path d="M13,296.6465 L74,296.6465 L74,305.6465 L64,315.6465 L13,315.6465 L13,296.6465 " fill="#EEEEEE" style="stroke: #000000; stroke-width: 1.0;"/><rect fill="none" height="100.3091" style="stroke: #000000; stroke-width: 2.0;" width="237.5" x="13" y="296.6465"/><text fill="#000000" font-family="sans-serif" font-size="13" font-weight="bold" lengthAdjust="spacingAndGlyphs" textLength="16" x="28" y="312.5444">alt</text><text fill="#000000" font-family="sans-serif" font-size="11" font-weight="bold" lengthAdjust="spacingAndGlyphs" textLength="53" x="89" y="311.2524">[preview]</text><polygon fill="#A80036" points="51,335.4238,41,339.4238,51,343.4238,47,339.4238" style="stroke: #A80036; stroke-width: 1.0;"/><line style="stroke: #A80036; stroke-width: 1.0;" x1="45" x2="209" y1="339.4238" y2="339.4238"/><text fill="#000000" font-family="sans-serif" font-size="13" lengthAdjust="spacingAndGlyphs" textLength="71" x="57" y="335.3218">PreviewVSS</text><line style="stroke: #000000; stroke-width: 1.0; stroke-dasharray: 2.0,2.0;" x1="13" x2="250.5" y1="349.1782" y2="349.1782"/><text fill="#000000" font-family="sans-serif" font-size="11" font-weight="bold" lengthAdjust="spacingAndGlyphs" textLength="43" x="18" y="361.7842">[cancel]</text><polygon fill="#A80036" points="51,384.2012,41,388.2012,51,392.2012,47,388.2012" style="stroke: #A80036; stroke-width: 1.0;"/><line style="stroke: #A80036; stroke-width: 1.0;" x1="45" x2="209" y1="388.2012" y2="388.2012"/><text fill="#000000" font-family="sans-serif" font-size="13" lengthAdjust="spacingAndGlyphs" textLength="104" x="57" y="384.0991">ManageLocalVSS</text><!--
@startuml
actor user
boundary interface
control vssManageControl
database Database

user -> interface: BrowseOnlineVSSLibrary
interface -> vssManageControl: BrowseOnlineVSSLibrary
vssManageControl -> Database: browse
Database -> vssManageControl: online list
vssManageControl -> interface: online list
interface -> user: online list

alt preview
    interface -> user: PreviewVSS
else cancel
    interface -> user: ManageLocalVSS
end
@enduml

PlantUML version 1.2018.01(Mon Jan 29 02:08:22 CST 2018)
(GPL source distribution)
Java Runtime: Java(TM) SE Runtime Environment
JVM: Java HotSpot(TM) Client VM
Java Version: 1.8.0_144-b01
Operating System: Windows 10
OS Version: 10.0
Default Encoding: GBK
Language: zh
Country: CN
--></g></svg>