<?xml version="1.0" encoding="UTF-8" standalone="no"?><svg xmlns="http://www.w3.org/2000/svg" xmlns:xlink="http://www.w3.org/1999/xlink" contentScriptType="application/ecmascript" contentStyleType="text/css" height="340px" preserveAspectRatio="none" style="width:573px;height:340px;" version="1.1" viewBox="0 0 573 340"
    width="573px" zoomAndPan="magnify"><defs><filter height="300%" id="f2edq0k1ebkhy" width="300%" x="-1" y="-1"><feGaussianBlur result="blurOut" stdDeviation="2.0"/><feColorMatrix in="blurOut" result="blurOut2" type="matrix" values="0 0 0 0 0 0 0 0 0 0 0 0 0 0 0 0 0 0 .4 0"/><feOffset dx="4.0" dy="4.0" in="blurOut2" result="blurOut3"/><feBlend in="SourceGraphic" in2="blurOut3" mode="normal"/></filter></defs><g><rect fill="#FFFFFF" filter="url(#f2edq0k1ebkhy)" height="133.0176" style="stroke: #A80036; stroke-width: 1.0;" width="10" x="22.5" y="99.1201"/><rect fill="#FFFFFF" filter="url(#f2edq0k1ebkhy)" height="133.0176" style="stroke: #A80036; stroke-width: 1.0;" width="10" x="202.5" y="99.1201"/><rect fill="#FFFFFF" filter="url(#f2edq0k1ebkhy)" height="110.0176" style="stroke: #A80036; stroke-width: 1.0;" width="10" x="373" y="122.1201"/><line style="stroke: #A80036; stroke-width: 1.0; stroke-dasharray: 5.0,5.0;" x1="27" x2="27" y1="89.1201" y2="250.1377"/><line style="stroke: #A80036; stroke-width: 1.0; stroke-dasharray: 5.0,5.0;" x1="207" x2="207" y1="89.1201" y2="250.1377"/><line style="stroke: #A80036; stroke-width: 1.0; stroke-dasharray: 5.0,5.0;" x1="378" x2="378" y1="89.1201" y2="250.1377"/><line style="stroke: #A80036; stroke-width: 1.0; stroke-dasharray: 5.0,5.0;" x1="519" x2="519" y1="89.1201" y2="250.1377"/><text fill="#000000" font-family="sans-serif" font-size="14" lengthAdjust="spacingAndGlyphs" textLength="4" x="8" y="86.0439">:</text><text fill="#000000" font-family="sans-serif" font-size="14" lengthAdjust="spacingAndGlyphs" text-decoration="underline" textLength="29" x="12" y="86.0439">User</text><line style="stroke: #000000; stroke-width: 1.0;" x1="12" x2="41" y1="88.0439" y2="88.0439"/><ellipse cx="27.5" cy="13" fill="#FEFECE" filter="url(#f2edq0k1ebkhy)" rx="8" ry="8" style="stroke: #A80036; stroke-width: 2.0;"/><path d="M27.5,21 L27.5,48 M14.5,29 L40.5,29 M27.5,48 L14.5,63 M27.5,48 L40.5,63 " fill="none" filter="url(#f2edq0k1ebkhy)" style="stroke: #A80036; stroke-width: 2.0;"/><text fill="#000000" font-family="sans-serif" font-size="14" lengthAdjust="spacingAndGlyphs" textLength="4" x="8" y="265.1816">:</text><text fill="#000000" font-family="sans-serif" font-size="14" lengthAdjust="spacingAndGlyphs" text-decoration="underline" textLength="29" x="12" y="265.1816">User</text><line style="stroke: #000000; stroke-width: 1.0;" x1="12" x2="41" y1="267.1816" y2="267.1816"/><ellipse cx="27.5" cy="278.2578" fill="#FEFECE" filter="url(#f2edq0k1ebkhy)" rx="8" ry="8" style="stroke: #A80036; stroke-width: 2.0;"/><path d="M27.5,286.2578 L27.5,313.2578 M14.5,294.2578 L40.5,294.2578 M27.5,313.2578 L14.5,328.2578 M27.5,313.2578 L40.5,328.2578 " fill="none" filter="url(#f2edq0k1ebkhy)" style="stroke: #A80036; stroke-width: 2.0;"/><text fill="#000000" font-family="sans-serif" font-size="14" lengthAdjust="spacingAndGlyphs" textLength="4" x="131" y="86.0439">:</text><text fill="#000000" font-family="sans-serif" font-size="14" lengthAdjust="spacingAndGlyphs" text-decoration="underline" textLength="143" x="135" y="86.0439">OnlineVSSViewerPage</text><line style="stroke: #000000; stroke-width: 1.0;" x1="135" x2="278" y1="88.0439" y2="88.0439"/><path d="M187,42 L187,66 M187,54 L204,54 " fill="none" filter="url(#f2edq0k1ebkhy)" style="stroke: #A80036; stroke-width: 2.0;"/><ellipse cx="216" cy="54" fill="#FEFECE" filter="url(#f2edq0k1ebkhy)" rx="12" ry="12" style="stroke: #A80036; stroke-width: 2.0;"/><text fill="#000000" font-family="sans-serif" font-size="14" lengthAdjust="spacingAndGlyphs" textLength="4" x="131" y="265.1816">:</text><text fill="#000000" font-family="sans-serif" font-size="14" lengthAdjust="spacingAndGlyphs" text-decoration="underline" textLength="143" x="135" y="265.1816">OnlineVSSViewerPage</text><line style="stroke: #000000; stroke-width: 1.0;" x1="135" x2="278" y1="267.1816" y2="267.1816"/><path d="M187,272.2578 L187,296.2578 M187,284.2578 L204,284.2578 " fill="none" filter="url(#f2edq0k1ebkhy)" style="stroke: #A80036; stroke-width: 2.0;"/><ellipse cx="216" cy="284.2578" fill="#FEFECE" filter="url(#f2edq0k1ebkhy)" rx="12" ry="12" style="stroke: #A80036; stroke-width: 2.0;"/><text fill="#000000" font-family="sans-serif" font-size="14" lengthAdjust="spacingAndGlyphs" textLength="4" x="294" y="86.0439">:</text><text fill="#000000" font-family="sans-serif" font-size="14" lengthAdjust="spacingAndGlyphs" text-decoration="underline" textLength="158" x="298" y="86.0439">OnlineVSSLibraryControl</text><line style="stroke: #000000; stroke-width: 1.0;" x1="298" x2="456" y1="88.0439" y2="88.0439"/><ellipse cx="378" cy="54" fill="#FEFECE" filter="url(#f2edq0k1ebkhy)" rx="12" ry="12" style="stroke: #A80036; stroke-width: 2.0;"/><polygon fill="#A80036" points="374,42,380,37,378,42,380,47,374,42" style="stroke: #A80036; stroke-width: 1.0;"/><text fill="#000000" font-family="sans-serif" font-size="14" lengthAdjust="spacingAndGlyphs" textLength="4" x="294" y="265.1816">:</text><text fill="#000000" font-family="sans-serif" font-size="14" lengthAdjust="spacingAndGlyphs" text-decoration="underline" textLength="158" x="298" y="265.1816">OnlineVSSLibraryControl</text><line style="stroke: #000000; stroke-width: 1.0;" x1="298" x2="456" y1="267.1816" y2="267.1816"/><ellipse cx="378" cy="284.2578" fill="#FEFECE" filter="url(#f2edq0k1ebkhy)" rx="12" ry="12" style="stroke: #A80036; stroke-width: 2.0;"/><polygon fill="#A80036" points="374,272.2578,380,267.2578,378,272.2578,380,277.2578,374,272.2578" style="stroke: #A80036; stroke-width: 1.0;"/><rect fill="#FEFECE" filter="url(#f2edq0k1ebkhy)" height="33.1201" style="stroke: #A80036; stroke-width: 1.5;" width="90" x="472" y="51"/><text fill="#000000" font-family="sans-serif" font-size="14" lengthAdjust="spacingAndGlyphs" textLength="76" x="479" y="74.0439">PreviewVSS</text><rect fill="#FEFECE" filter="url(#f2edq0k1ebkhy)" height="33.1201" style="stroke: #A80036; stroke-width: 1.5;" width="90" x="472" y="249.1377"/><text fill="#000000" font-family="sans-serif" font-size="14" lengthAdjust="spacingAndGlyphs" textLength="76" x="479" y="272.1816">PreviewVSS</text><rect fill="#FFFFFF" filter="url(#f2edq0k1ebkhy)" height="133.0176" style="stroke: #A80036; stroke-width: 1.0;" width="10" x="22.5" y="99.1201"/><rect fill="#FFFFFF" filter="url(#f2edq0k1ebkhy)" height="133.0176" style="stroke: #A80036; stroke-width: 1.0;" width="10" x="202.5" y="99.1201"/><rect fill="#FFFFFF" filter="url(#f2edq0k1ebkhy)" height="110.0176" style="stroke: #A80036; stroke-width: 1.0;" width="10" x="373" y="122.1201"/><polygon fill="#A80036" points="361,118.1201,371,122.1201,361,126.1201,365,122.1201" style="stroke: #A80036; stroke-width: 1.0;"/><line style="stroke: #A80036; stroke-width: 1.0;" x1="212.5" x2="367" y1="122.1201" y2="122.1201"/><text fill="#000000" font-family="sans-serif" font-size="13" lengthAdjust="spacingAndGlyphs" textLength="68" x="219.5" y="118.0181">&lt;&lt;create&gt;&gt;</text><polygon fill="#A80036" points="190.5,149.8745,200.5,153.8745,190.5,157.8745,194.5,153.8745" style="stroke: #A80036; stroke-width: 1.0;"/><line style="stroke: #A80036; stroke-width: 1.0;" x1="32.5" x2="196.5" y1="153.8745" y2="153.8745"/><text fill="#000000" font-family="sans-serif" font-size="13" lengthAdjust="spacingAndGlyphs" textLength="146" x="39.5" y="149.7725">BrowseOnlineVSSLibrary</text><polygon fill="#A80036" points="43.5,181.6289,33.5,185.6289,43.5,189.6289,39.5,185.6289" style="stroke: #A80036; stroke-width: 1.0;"/><line style="stroke: #A80036; stroke-width: 1.0;" x1="37.5" x2="201.5" y1="185.6289" y2="185.6289"/><text fill="#000000" font-family="sans-serif" font-size="13" lengthAdjust="spacingAndGlyphs" textLength="48" x="49.5" y="181.5269">VSSList</text><polygon fill="#A80036" points="190.5,213.3833,200.5,217.3833,190.5,221.3833,194.5,217.3833" style="stroke: #A80036; stroke-width: 1.0;"/><line style="stroke: #A80036; stroke-width: 1.0;" x1="32.5" x2="196.5" y1="217.3833" y2="217.3833"/><text fill="#000000" font-family="sans-serif" font-size="13" lengthAdjust="spacingAndGlyphs" textLength="71" x="39.5" y="213.2813">PreviewVSS</text><polygon fill="#A80036" points="507,228.1377,517,232.1377,507,236.1377,511,232.1377" style="stroke: #A80036; stroke-width: 1.0;"/><line style="stroke: #A80036; stroke-width: 1.0;" x1="378" x2="513" y1="232.1377" y2="232.1377"/><!--
@startuml
actor ":__User__" as User
boundary ":__OnlineVSSViewerPage__" as OnlineVSSViewerPage
control ":__OnlineVSSLibraryControl__" as OnlineVSSLibraryControl

activate User
activate OnlineVSSViewerPage
OnlineVSSViewerPage -> OnlineVSSLibraryControl: <<create>>
activate OnlineVSSLibraryControl
User -> OnlineVSSViewerPage: BrowseOnlineVSSLibrary
OnlineVSSViewerPage -> User: VSSList
User -> OnlineVSSViewerPage: PreviewVSS
OnlineVSSLibraryControl -> PreviewVSS
deactivate User
deactivate OnlineVSSViewerPage
deactivate OnlineVSSLibraryControl
@enduml

PlantUML version 1.2018.01(Mon Jan 29 02:08:22 CST 2018)
(GPL source distribution)
Java Runtime: Java(TM) SE Runtime Environment
JVM: Java HotSpot(TM) Client VM
Java Version: 1.8.0_144-b01
Operating System: Windows 10
OS Version: 10.0
Default Encoding: GBK
Language: zh
Country: CN
--></g></svg>