<?xml version="1.0" encoding="UTF-8" standalone="no"?><svg xmlns="http://www.w3.org/2000/svg" xmlns:xlink="http://www.w3.org/1999/xlink" contentScriptType="application/ecmascript" contentStyleType="text/css" height="1108px" preserveAspectRatio="none" style="width:1950px;height:1108px;" version="1.1" viewBox="0 0 1950 1108"
    width="1950px" zoomAndPan="magnify"><defs><filter height="300%" id="f1jfp0hxuc8qt0" width="300%" x="-1" y="-1"><feGaussianBlur result="blurOut" stdDeviation="2.0"/><feColorMatrix in="blurOut" result="blurOut2" type="matrix" values="0 0 0 0 0 0 0 0 0 0 0 0 0 0 0 0 0 0 .4 0"/><feOffset dx="4.0" dy="4.0" in="blurOut2" result="blurOut3"/><feBlend in="SourceGraphic" in2="blurOut3" mode="normal"/></filter></defs><g><rect fill="#FEFECE" filter="url(#f1jfp0hxuc8qt0)" height="30.4883" style="stroke: #A80036; stroke-width: 1.5;" width="175" x="508.5" y="155.1094"/><text fill="#000000" font-family="sans-serif" font-size="14" lengthAdjust="spacingAndGlyphs" text-decoration="underline" textLength="161" x="515.5" y="175.6445">:ConcertVSSCreatePage</text><line style="stroke: #000000; stroke-width: 1.0;" x1="515.5" x2="676.5" y1="177.6445" y2="177.6445"/><rect fill="#FEFECE" filter="url(#f1jfp0hxuc8qt0)" height="30.4883" style="stroke: #A80036; stroke-width: 1.5;" width="194" x="763" y="200.5977"/><text fill="#000000" font-family="sans-serif" font-size="14" lengthAdjust="spacingAndGlyphs" text-decoration="underline" textLength="180" x="770" y="221.1328">:ConcertVSSCreateControl</text><line style="stroke: #000000; stroke-width: 1.0;" x1="770" x2="950" y1="223.1328" y2="223.1328"/><rect fill="#FEFECE" filter="url(#f1jfp0hxuc8qt0)" height="30.4883" style="stroke: #A80036; stroke-width: 1.5;" width="351" x="1451" y="246.0859"/><text fill="#000000" font-family="sans-serif" font-size="14" lengthAdjust="spacingAndGlyphs" text-decoration="underline" textLength="337" x="1458" y="266.6211">newSoundSpace:ConcertModeVirtualSoundSpace</text><line style="stroke: #000000; stroke-width: 1.0;" x1="1458" x2="1795" y1="268.6211" y2="268.6211"/><rect fill="#FFFFFF" filter="url(#f1jfp0hxuc8qt0)" height="780.541" style="stroke: #000000; stroke-width: 2.0;" width="1926" x="13" y="298.5742"/><rect fill="#FFFFFF" filter="url(#f1jfp0hxuc8qt0)" height="397.6367" style="stroke: #000000; stroke-width: 2.0;" width="1438" x="23" y="322.8848"/><rect fill="#FFFFFF" filter="url(#f1jfp0hxuc8qt0)" height="75.9316" style="stroke: #000000; stroke-width: 2.0;" width="463" x="988" y="435.127"/><rect fill="#FFFFFF" height="85.2207" style="stroke: none; stroke-width: 1.0;" width="1438" x="23" y="635.3008"/><rect fill="#FEFECE" filter="url(#f1jfp0hxuc8qt0)" height="30.4883" style="stroke: #A80036; stroke-width: 1.5;" width="109" x="1816" y="769.832"/><text fill="#000000" font-family="sans-serif" font-size="14" lengthAdjust="spacingAndGlyphs" text-decoration="underline" textLength="95" x="1823" y="790.3672">:SoundSource</text><line style="stroke: #000000; stroke-width: 1.0;" x1="1823" x2="1918" y1="792.3672" y2="792.3672"/><line style="stroke: #A80036; stroke-width: 1.0;" x1="51" x2="51" y1="86.4883" y2="679.5664"/><line style="stroke: #A80036; stroke-width: 1.0; stroke-dasharray: 1.0,4.0;" x1="51" x2="51" y1="679.5664" y2="720.5215"/><line style="stroke: #A80036; stroke-width: 1.0;" x1="51" x2="51" y1="720.5215" y2="1096.1152"/><line style="stroke: #A80036; stroke-width: 1.0;" x1="218" x2="218" y1="86.4883" y2="679.5664"/><line style="stroke: #A80036; stroke-width: 1.0; stroke-dasharray: 1.0,4.0;" x1="218" x2="218" y1="679.5664" y2="720.5215"/><line style="stroke: #A80036; stroke-width: 1.0;" x1="218" x2="218" y1="720.5215" y2="1096.1152"/><line style="stroke: #A80036; stroke-width: 1.0;" x1="406" x2="406" y1="86.4883" y2="679.5664"/><line style="stroke: #A80036; stroke-width: 1.0; stroke-dasharray: 1.0,4.0;" x1="406" x2="406" y1="679.5664" y2="720.5215"/><line style="stroke: #A80036; stroke-width: 1.0;" x1="406" x2="406" y1="720.5215" y2="1096.1152"/><line style="stroke: #A80036; stroke-width: 1.0;" x1="597.5" x2="597.5" y1="187.8535" y2="679.5664"/><line style="stroke: #A80036; stroke-width: 1.0; stroke-dasharray: 1.0,4.0;" x1="597.5" x2="597.5" y1="679.5664" y2="720.5215"/><line style="stroke: #A80036; stroke-width: 1.0;" x1="597.5" x2="597.5" y1="720.5215" y2="1096.1152"/><line style="stroke: #A80036; stroke-width: 1.0;" x1="862" x2="862" y1="233.3418" y2="679.5664"/><line style="stroke: #A80036; stroke-width: 1.0; stroke-dasharray: 1.0,4.0;" x1="862" x2="862" y1="679.5664" y2="720.5215"/><line style="stroke: #A80036; stroke-width: 1.0;" x1="862" x2="862" y1="720.5215" y2="1096.1152"/><line style="stroke: #A80036; stroke-width: 1.0;" x1="1092" x2="1092" y1="86.4883" y2="679.5664"/><line style="stroke: #A80036; stroke-width: 1.0; stroke-dasharray: 1.0,4.0;" x1="1092" x2="1092" y1="679.5664" y2="720.5215"/><line style="stroke: #A80036; stroke-width: 1.0;" x1="1092" x2="1092" y1="720.5215" y2="1096.1152"/><line style="stroke: #A80036; stroke-width: 1.0;" x1="1318" x2="1318" y1="86.4883" y2="679.5664"/><line style="stroke: #A80036; stroke-width: 1.0; stroke-dasharray: 1.0,4.0;" x1="1318" x2="1318" y1="679.5664" y2="720.5215"/><line style="stroke: #A80036; stroke-width: 1.0;" x1="1318" x2="1318" y1="720.5215" y2="1096.1152"/><line style="stroke: #A80036; stroke-width: 1.0;" x1="1628" x2="1628" y1="278.8301" y2="679.5664"/><line style="stroke: #A80036; stroke-width: 1.0; stroke-dasharray: 1.0,4.0;" x1="1628" x2="1628" y1="679.5664" y2="720.5215"/><line style="stroke: #A80036; stroke-width: 1.0;" x1="1628" x2="1628" y1="720.5215" y2="1096.1152"/><line style="stroke: #A80036; stroke-width: 1.0;" x1="1872" x2="1872" y1="802.5762" y2="1096.1152"/><text fill="#000000" font-family="sans-serif" font-size="14" lengthAdjust="spacingAndGlyphs" text-decoration="underline" textLength="31" x="33" y="83.5352">User</text><line style="stroke: #000000; stroke-width: 1.0;" x1="33" x2="64" y1="85.5352" y2="85.5352"/><ellipse cx="51.5" cy="13" fill="#FEFECE" filter="url(#f1jfp0hxuc8qt0)" rx="8" ry="8" style="stroke: #A80036; stroke-width: 2.0;"/><path d="M51.5,21 L51.5,48 M38.5,29 L64.5,29 M51.5,48 L38.5,63 M51.5,48 L64.5,63 " fill="none" filter="url(#f1jfp0hxuc8qt0)" style="stroke: #A80036; stroke-width: 2.0;"/><rect fill="#FEFECE" filter="url(#f1jfp0hxuc8qt0)" height="30.4883" style="stroke: #A80036; stroke-width: 1.5;" width="171" x="131" y="51"/><text fill="#000000" font-family="sans-serif" font-size="14" lengthAdjust="spacingAndGlyphs" text-decoration="underline" textLength="157" x="138" y="71.5352">:LocalVSSManagerPage</text><line style="stroke: #000000; stroke-width: 1.0;" x1="138" x2="295" y1="73.5352" y2="73.5352"/><rect fill="#FEFECE" filter="url(#f1jfp0hxuc8qt0)" height="30.4883" style="stroke: #A80036; stroke-width: 1.5;" width="177" x="316" y="51"/><text fill="#000000" font-family="sans-serif" font-size="14" lengthAdjust="spacingAndGlyphs" text-decoration="underline" textLength="163" x="323" y="71.5352">:LocalVSSLibraryControl</text><line style="stroke: #000000; stroke-width: 1.0;" x1="323" x2="486" y1="73.5352" y2="73.5352"/><rect fill="#FEFECE" filter="url(#f1jfp0hxuc8qt0)" height="30.4883" style="stroke: #A80036; stroke-width: 1.5;" width="184" x="998" y="51"/><text fill="#000000" font-family="sans-serif" font-size="14" lengthAdjust="spacingAndGlyphs" text-decoration="underline" textLength="170" x="1005" y="71.5352">:LocalSoundSpaceLibrary</text><line style="stroke: #000000; stroke-width: 1.0;" x1="1005" x2="1175" y1="73.5352" y2="73.5352"/><rect fill="#FEFECE" filter="url(#f1jfp0hxuc8qt0)" height="30.4883" style="stroke: #A80036; stroke-width: 1.5;" width="237" x="1200" y="47"/><rect fill="#FEFECE" filter="url(#f1jfp0hxuc8qt0)" height="30.4883" style="stroke: #A80036; stroke-width: 1.5;" width="237" x="1196" y="51"/><text fill="#000000" font-family="sans-serif" font-size="14" lengthAdjust="spacingAndGlyphs" text-decoration="underline" textLength="223" x="1203" y="71.5352">soundSpaces:VirtualSoundSpace</text><line style="stroke: #000000; stroke-width: 1.0;" x1="1203" x2="1426" y1="73.5352" y2="73.5352"/><polygon fill="#A80036" points="206.5,113.4883,216.5,117.4883,206.5,121.4883,210.5,117.4883" style="stroke: #A80036; stroke-width: 1.0;"/><line style="stroke: #A80036; stroke-width: 1.0;" x1="51.5" x2="212.5" y1="117.4883" y2="117.4883"/><text fill="#000000" font-family="sans-serif" font-size="13" lengthAdjust="spacingAndGlyphs" textLength="143" x="58.5" y="113.0566">createConcertModeVSS</text><polygon fill="#A80036" points="394.5,142.7988,404.5,146.7988,394.5,150.7988,398.5,146.7988" style="stroke: #A80036; stroke-width: 1.0;"/><line style="stroke: #A80036; stroke-width: 1.0;" x1="218.5" x2="400.5" y1="146.7988" y2="146.7988"/><text fill="#000000" font-family="sans-serif" font-size="13" lengthAdjust="spacingAndGlyphs" textLength="143" x="225.5" y="142.3672">createConcertModeVSS</text><polygon fill="#A80036" points="496.5,172.1094,506.5,176.1094,496.5,180.1094,500.5,176.1094" style="stroke: #A80036; stroke-width: 1.0;"/><line style="stroke: #A80036; stroke-width: 1.0;" x1="406.5" x2="502.5" y1="176.1094" y2="176.1094"/><text fill="#000000" font-family="sans-serif" font-size="13" lengthAdjust="spacingAndGlyphs" textLength="78" x="413.5" y="171.6777">&lt;&lt;create&gt;&gt;</text><rect fill="#FEFECE" filter="url(#f1jfp0hxuc8qt0)" height="30.4883" style="stroke: #A80036; stroke-width: 1.5;" width="175" x="508.5" y="155.1094"/><text fill="#000000" font-family="sans-serif" font-size="14" lengthAdjust="spacingAndGlyphs" text-decoration="underline" textLength="161" x="515.5" y="175.6445">:ConcertVSSCreatePage</text><line style="stroke: #000000; stroke-width: 1.0;" x1="515.5" x2="676.5" y1="177.6445" y2="177.6445"/><polygon fill="#A80036" points="751,217.5977,761,221.5977,751,225.5977,755,221.5977" style="stroke: #A80036; stroke-width: 1.0;"/><line style="stroke: #A80036; stroke-width: 1.0;" x1="598" x2="757" y1="221.5977" y2="221.5977"/><text fill="#000000" font-family="sans-serif" font-size="13" lengthAdjust="spacingAndGlyphs" textLength="78" x="605" y="217.166">&lt;&lt;create&gt;&gt;</text><rect fill="#FEFECE" filter="url(#f1jfp0hxuc8qt0)" height="30.4883" style="stroke: #A80036; stroke-width: 1.5;" width="194" x="763" y="200.5977"/><text fill="#000000" font-family="sans-serif" font-size="14" lengthAdjust="spacingAndGlyphs" text-decoration="underline" textLength="180" x="770" y="221.1328">:ConcertVSSCreateControl</text><line style="stroke: #000000; stroke-width: 1.0;" x1="770" x2="950" y1="223.1328" y2="223.1328"/><polygon fill="#A80036" points="1439,263.0859,1449,267.0859,1439,271.0859,1443,267.0859" style="stroke: #A80036; stroke-width: 1.0;"/><line style="stroke: #A80036; stroke-width: 1.0;" x1="862" x2="1445" y1="267.0859" y2="267.0859"/><text fill="#000000" font-family="sans-serif" font-size="13" lengthAdjust="spacingAndGlyphs" textLength="78" x="869" y="262.6543">&lt;&lt;create&gt;&gt;</text><rect fill="#FEFECE" filter="url(#f1jfp0hxuc8qt0)" height="30.4883" style="stroke: #A80036; stroke-width: 1.5;" width="351" x="1451" y="246.0859"/><text fill="#000000" font-family="sans-serif" font-size="14" lengthAdjust="spacingAndGlyphs" text-decoration="underline" textLength="337" x="1458" y="266.6211">newSoundSpace:ConcertModeVirtualSoundSpace</text><line style="stroke: #000000; stroke-width: 1.0;" x1="1458" x2="1795" y1="268.6211" y2="268.6211"/><path d="M13,298.5742 L87,298.5742 L87,305.5742 L77,315.5742 L13,315.5742 L13,298.5742 " fill="#EEEEEE" style="stroke: #000000; stroke-width: 1.0;"/><rect fill="none" height="780.541" style="stroke: #000000; stroke-width: 2.0;" width="1926" x="13" y="298.5742"/><text fill="#000000" font-family="sans-serif" font-size="13" font-weight="bold" lengthAdjust="spacingAndGlyphs" textLength="29" x="28" y="312.1426">loop</text><text fill="#000000" font-family="sans-serif" font-size="11" font-weight="bold" lengthAdjust="spacingAndGlyphs" textLength="144" x="102" y="311.209">[add virual sound source]</text><path d="M23,322.8848 L85,322.8848 L85,329.8848 L75,339.8848 L23,339.8848 L23,322.8848 " fill="#EEEEEE" style="stroke: #000000; stroke-width: 1.0;"/><rect fill="none" height="397.6367" style="stroke: #000000; stroke-width: 2.0;" width="1438" x="23" y="322.8848"/><text fill="#000000" font-family="sans-serif" font-size="13" font-weight="bold" lengthAdjust="spacingAndGlyphs" textLength="17" x="38" y="336.4531">alt</text><text fill="#000000" font-family="sans-serif" font-size="11" font-weight="bold" lengthAdjust="spacingAndGlyphs" textLength="101" x="100" y="335.5195">[add from library]</text><polygon fill="#A80036" points="586,357.1953,596,361.1953,586,365.1953,590,361.1953" style="stroke: #A80036; stroke-width: 1.0;"/><line style="stroke: #A80036; stroke-width: 1.0;" x1="51.5" x2="592" y1="361.1953" y2="361.1953"/><text fill="#000000" font-family="sans-serif" font-size="13" lengthAdjust="spacingAndGlyphs" textLength="164" x="58.5" y="356.7637">selectExistedSoundSource</text><polygon fill="#A80036" points="850,386.5059,860,390.5059,850,394.5059,854,390.5059" style="stroke: #A80036; stroke-width: 1.0;"/><line style="stroke: #A80036; stroke-width: 1.0;" x1="598" x2="856" y1="390.5059" y2="390.5059"/><text fill="#000000" font-family="sans-serif" font-size="13" lengthAdjust="spacingAndGlyphs" textLength="158" x="605" y="386.0742">getLocalSoundFragments</text><polygon fill="#A80036" points="1080,415.8164,1090,419.8164,1080,423.8164,1084,419.8164" style="stroke: #A80036; stroke-width: 1.0;"/><line style="stroke: #A80036; stroke-width: 1.0;" x1="862" x2="1086" y1="419.8164" y2="419.8164"/><text fill="#000000" font-family="sans-serif" font-size="13" lengthAdjust="spacingAndGlyphs" textLength="158" x="869" y="415.3848">getLocalSoundFragments</text><path d="M988,435.127 L1062,435.127 L1062,442.127 L1052,452.127 L988,452.127 L988,435.127 " fill="#EEEEEE" style="stroke: #000000; stroke-width: 1.0;"/><rect fill="none" height="75.9316" style="stroke: #000000; stroke-width: 2.0;" width="463" x="988" y="435.127"/><text fill="#000000" font-family="sans-serif" font-size="13" font-weight="bold" lengthAdjust="spacingAndGlyphs" textLength="29" x="1003" y="448.6953">loop</text><text fill="#000000" font-family="sans-serif" font-size="11" font-weight="bold" lengthAdjust="spacingAndGlyphs" textLength="54" x="1077" y="447.7617">[for each]</text><polygon fill="#A80036" points="1306.5,469.4375,1316.5,473.4375,1306.5,477.4375,1310.5,473.4375" style="stroke: #A80036; stroke-width: 1.0;"/><line style="stroke: #A80036; stroke-width: 1.0;" x1="1092" x2="1312.5" y1="473.4375" y2="473.4375"/><text fill="#000000" font-family="sans-serif" font-size="13" lengthAdjust="spacingAndGlyphs" textLength="108" x="1099" y="469.0059">getSoundSources</text><polygon fill="#A80036" points="1103,498.748,1093,502.748,1103,506.748,1099,502.748" style="stroke: #A80036; stroke-width: 1.0;"/><line style="stroke: #A80036; stroke-width: 1.0; stroke-dasharray: 2.0,2.0;" x1="1097" x2="1317.5" y1="502.748" y2="502.748"/><text fill="#000000" font-family="sans-serif" font-size="13" lengthAdjust="spacingAndGlyphs" textLength="88" x="1109" y="498.3164">soundSources</text><polygon fill="#A80036" points="873,535.0586,863,539.0586,873,543.0586,869,539.0586" style="stroke: #A80036; stroke-width: 1.0;"/><line style="stroke: #A80036; stroke-width: 1.0; stroke-dasharray: 2.0,2.0;" x1="867" x2="1091" y1="539.0586" y2="539.0586"/><text fill="#000000" font-family="sans-serif" font-size="13" lengthAdjust="spacingAndGlyphs" textLength="150" x="879" y="534.627">filteredSoundFragments</text><polygon fill="#A80036" points="609,564.3691,599,568.3691,609,572.3691,605,568.3691" style="stroke: #A80036; stroke-width: 1.0;"/><line style="stroke: #A80036; stroke-width: 1.0; stroke-dasharray: 2.0,2.0;" x1="603" x2="861" y1="568.3691" y2="568.3691"/><text fill="#000000" font-family="sans-serif" font-size="13" lengthAdjust="spacingAndGlyphs" textLength="240" x="615" y="563.9375">displayAvailableLocalSoundFragments</text><polygon fill="#A80036" points="586,593.6797,596,597.6797,586,601.6797,590,597.6797" style="stroke: #A80036; stroke-width: 1.0;"/><line style="stroke: #A80036; stroke-width: 1.0;" x1="51.5" x2="592" y1="597.6797" y2="597.6797"/><text fill="#000000" font-family="sans-serif" font-size="13" lengthAdjust="spacingAndGlyphs" textLength="135" x="58.5" y="593.248">selectSoundFragment</text><polygon fill="#A80036" points="850,622.9902,860,626.9902,850,630.9902,854,626.9902" style="stroke: #A80036; stroke-width: 1.0;"/><line style="stroke: #A80036; stroke-width: 1.0;" x1="598" x2="856" y1="626.9902" y2="626.9902"/><text fill="#000000" font-family="sans-serif" font-size="13" lengthAdjust="spacingAndGlyphs" textLength="121" x="605" y="622.5586">addSoundFragment</text><line style="stroke: #000000; stroke-width: 1.0; stroke-dasharray: 2.0,2.0;" x1="23" x2="1461" y1="636.3008" y2="636.3008"/><text fill="#000000" font-family="sans-serif" font-size="11" font-weight="bold" lengthAdjust="spacingAndGlyphs" textLength="83" x="28" y="646.9355">[add from file]</text><polygon fill="#A80036" points="586,667.2559,596,671.2559,586,675.2559,590,671.2559" style="stroke: #A80036; stroke-width: 1.0;"/><line style="stroke: #A80036; stroke-width: 1.0;" x1="51.5" x2="592" y1="671.2559" y2="671.2559"/><text fill="#000000" font-family="sans-serif" font-size="13" lengthAdjust="spacingAndGlyphs" textLength="136" x="58.5" y="666.8242">selectFromFileSystem</text><text fill="#000000" font-family="sans-serif" font-size="11" lengthAdjust="spacingAndGlyphs" textLength="500" x="712" y="704.2012">somehow MapVSSCreateControl got the new SoundFragment # specify during implementation</text><line style="stroke: #A80036; stroke-width: 1.0;" x1="51.5" x2="93.5" y1="748.832" y2="748.832"/><line style="stroke: #A80036; stroke-width: 1.0;" x1="93.5" x2="93.5" y1="748.832" y2="761.832"/><line style="stroke: #A80036; stroke-width: 1.0;" x1="52.5" x2="93.5" y1="761.832" y2="761.832"/><polygon fill="#A80036" points="62.5,757.832,52.5,761.832,62.5,765.832,58.5,761.832" style="stroke: #A80036; stroke-width: 1.0;"/><text fill="#000000" font-family="sans-serif" font-size="13" lengthAdjust="spacingAndGlyphs" textLength="80" x="58.5" y="744.0898">wakeUp(self)</text><polygon fill="#A80036" points="1804,786.832,1814,790.832,1804,794.832,1808,790.832" style="stroke: #A80036; stroke-width: 1.0;"/><line style="stroke: #A80036; stroke-width: 1.0;" x1="862" x2="1810" y1="790.832" y2="790.832"/><text fill="#000000" font-family="sans-serif" font-size="13" lengthAdjust="spacingAndGlyphs" textLength="78" x="869" y="786.4004">&lt;&lt;create&gt;&gt;</text><rect fill="#FEFECE" filter="url(#f1jfp0hxuc8qt0)" height="30.4883" style="stroke: #A80036; stroke-width: 1.5;" width="109" x="1816" y="769.832"/><text fill="#000000" font-family="sans-serif" font-size="14" lengthAdjust="spacingAndGlyphs" text-decoration="underline" textLength="95" x="1823" y="790.3672">:SoundSource</text><line style="stroke: #000000; stroke-width: 1.0;" x1="1823" x2="1918" y1="792.3672" y2="792.3672"/><polygon fill="#A80036" points="1860.5,832.3203,1870.5,836.3203,1860.5,840.3203,1864.5,836.3203" style="stroke: #A80036; stroke-width: 1.0;"/><line style="stroke: #A80036; stroke-width: 1.0;" x1="862" x2="1866.5" y1="836.3203" y2="836.3203"/><text fill="#000000" font-family="sans-serif" font-size="13" lengthAdjust="spacingAndGlyphs" textLength="117" x="869" y="831.8887">setSoundFragment</text><polygon fill="#A80036" points="1616.5,861.6309,1626.5,865.6309,1616.5,869.6309,1620.5,865.6309" style="stroke: #A80036; stroke-width: 1.0;"/><line style="stroke: #A80036; stroke-width: 1.0;" x1="862" x2="1622.5" y1="865.6309" y2="865.6309"/><text fill="#000000" font-family="sans-serif" font-size="13" lengthAdjust="spacingAndGlyphs" textLength="193" x="869" y="861.1992">addSoundSource(soundSource)</text><polygon fill="#A80036" points="586,890.9414,596,894.9414,586,898.9414,590,894.9414" style="stroke: #A80036; stroke-width: 1.0;"/><line style="stroke: #A80036; stroke-width: 1.0;" x1="51.5" x2="592" y1="894.9414" y2="894.9414"/><text fill="#000000" font-family="sans-serif" font-size="13" lengthAdjust="spacingAndGlyphs" textLength="175" x="58.5" y="890.5098">setVSSNameAndDescription</text><polygon fill="#A80036" points="850,920.252,860,924.252,850,928.252,854,924.252" style="stroke: #A80036; stroke-width: 1.0;"/><line style="stroke: #A80036; stroke-width: 1.0;" x1="598" x2="856" y1="924.252" y2="924.252"/><text fill="#000000" font-family="sans-serif" font-size="13" lengthAdjust="spacingAndGlyphs" textLength="175" x="605" y="919.8203">setVSSNameAndDescription</text><polygon fill="#A80036" points="1616.5,949.5625,1626.5,953.5625,1616.5,957.5625,1620.5,953.5625" style="stroke: #A80036; stroke-width: 1.0;"/><line style="stroke: #A80036; stroke-width: 1.0;" x1="862" x2="1622.5" y1="953.5625" y2="953.5625"/><text fill="#000000" font-family="sans-serif" font-size="13" lengthAdjust="spacingAndGlyphs" textLength="175" x="869" y="949.1309">setVSSNameAndDescription</text><polygon fill="#A80036" points="586,978.873,596,982.873,586,986.873,590,982.873" style="stroke: #A80036; stroke-width: 1.0;"/><line style="stroke: #A80036; stroke-width: 1.0;" x1="51.5" x2="592" y1="982.873" y2="982.873"/><text fill="#000000" font-family="sans-serif" font-size="13" lengthAdjust="spacingAndGlyphs" textLength="128" x="58.5" y="978.4414">comfirmVSSCreation</text><polygon fill="#A80036" points="850,1008.1836,860,1012.1836,850,1016.1836,854,1012.1836" style="stroke: #A80036; stroke-width: 1.0;"/><line style="stroke: #A80036; stroke-width: 1.0;" x1="598" x2="856" y1="1012.1836" y2="1012.1836"/><text fill="#000000" font-family="sans-serif" font-size="13" lengthAdjust="spacingAndGlyphs" textLength="128" x="605" y="1007.752">comfirmVSSCreation</text><polygon fill="#A80036" points="1080,1037.4941,1090,1041.4941,1080,1045.4941,1084,1041.4941" style="stroke: #A80036; stroke-width: 1.0;"/><line style="stroke: #A80036; stroke-width: 1.0;" x1="862" x2="1086" y1="1041.4941" y2="1041.4941"/><text fill="#000000" font-family="sans-serif" font-size="13" lengthAdjust="spacingAndGlyphs" textLength="206" x="869" y="1037.0625">addSoundSpace(newSoundSpace)</text><polygon fill="#A80036" points="609,1066.8047,599,1070.8047,609,1074.8047,605,1070.8047" style="stroke: #A80036; stroke-width: 1.0;"/><line style="stroke: #A80036; stroke-width: 1.0;" x1="603" x2="861" y1="1070.8047" y2="1070.8047"/><text fill="#000000" font-family="sans-serif" font-size="13" lengthAdjust="spacingAndGlyphs" textLength="87" x="615" y="1066.373">&lt;&lt;destroy&gt;&gt;</text><line style="stroke: #A80036; stroke-width: 2.0;" x1="589" x2="607" y1="1061.8047" y2="1079.8047"/><line style="stroke: #A80036; stroke-width: 2.0;" x1="589" x2="607" y1="1079.8047" y2="1061.8047"/><line style="stroke: #A80036; stroke-width: 2.0;" x1="853" x2="871" y1="1061.8047" y2="1079.8047"/><line style="stroke: #A80036; stroke-width: 2.0;" x1="853" x2="871" y1="1079.8047" y2="1061.8047"/><!--
@startuml CreateConcertModeVSS
hide footbox
skinparam sequenceParticipant underline


actor User as user
participant ":LocalVSSManagerPage" as boundary
participant ":LocalVSSLibraryControl" as control
participant ":ConcertVSSCreatePage" as createboundary
participant ":ConcertVSSCreateControl" as createcontrol
participant ":LocalSoundSpaceLibrary" as library
collections "soundSpaces:VirtualSoundSpace" as vsses
participant "newSoundSpace:ConcertModeVirtualSoundSpace" as newspace



user -> boundary: createConcertModeVSS
boundary -> control: createConcertModeVSS
create createboundary
control -> createboundary: <<create>>
create createcontrol
createboundary -> createcontrol: <<create>>
create newspace
createcontrol -> newspace: <<create>>

loop add virual sound source
    alt add from library
        user -> createboundary: selectExistedSoundSource
        createboundary -> createcontrol: getLocalSoundFragments
        createcontrol -> library: getLocalSoundFragments
        loop for each
            library -> vsses: getSoundSources
            vsses - -> library: soundSources
        end
        library - -> createcontrol: filteredSoundFragments
        createcontrol - -> createboundary: displayAvailableLocalSoundFragments
        user -> createboundary: selectSoundFragment
        createboundary -> createcontrol: addSoundFragment
    else add from file
        user -> createboundary: selectFromFileSystem
        ...somehow MapVSSCreateControl got the new SoundFragment # specify during implementation...
    end


    participant ":SoundSource" as source
    user -> user: wakeUp(self)
    create source
    createcontrol -> source: <<create>>
    createcontrol -> source: setSoundFragment
    createcontrol -> newspace: addSoundSource(soundSource)
    user -> createboundary: setVSSNameAndDescription
    createboundary -> createcontrol: setVSSNameAndDescription
    createcontrol -> newspace: setVSSNameAndDescription
    user -> createboundary: comfirmVSSCreation
    createboundary -> createcontrol: comfirmVSSCreation
    createcontrol -> library: addSoundSpace(newSoundSpace)

    createcontrol -> createboundary: <<destroy>>
    destroy createboundary
    destroy createcontrol


end
@enduml

PlantUML version 1.2018.01(Mon Jan 29 02:08:22 CST 2018)
(GPL source distribution)
Java Runtime: Java(TM) SE Runtime Environment
JVM: Java HotSpot(TM) 64-Bit Server VM
Java Version: 9+181
Operating System: Mac OS X
OS Version: 10.12.6
Default Encoding: UTF-8
Language: zh
Country: CN
--></g></svg>