<?xml version="1.0" encoding="UTF-8" standalone="no"?><svg xmlns="http://www.w3.org/2000/svg" xmlns:xlink="http://www.w3.org/1999/xlink" contentScriptType="application/ecmascript" contentStyleType="text/css" height="1539px" preserveAspectRatio="none" style="width:2149px;height:1539px;" version="1.1" viewBox="0 0 2149 1539"
    width="2149px" zoomAndPan="magnify"><defs><filter height="300%" id="faa9s78h7of4k" width="300%" x="-1" y="-1"><feGaussianBlur result="blurOut" stdDeviation="2.0"/><feColorMatrix in="blurOut" result="blurOut2" type="matrix" values="0 0 0 0 0 0 0 0 0 0 0 0 0 0 0 0 0 0 .4 0"/><feOffset dx="4.0" dy="4.0" in="blurOut2" result="blurOut3"/><feBlend in="SourceGraphic" in2="blurOut3" mode="normal"/></filter></defs><g><rect fill="#FEFECE" filter="url(#faa9s78h7of4k)" height="30.4883" style="stroke: #A80036; stroke-width: 1.5;" width="150" x="485.5" y="155.1094"/><text fill="#000000" font-family="sans-serif" font-size="14" lengthAdjust="spacingAndGlyphs" text-decoration="underline" textLength="136" x="492.5" y="175.6445">:MapVSSCreatePage</text><line style="stroke: #000000; stroke-width: 1.0;" x1="492.5" x2="628.5" y1="177.6445" y2="177.6445"/><rect fill="#FEFECE" filter="url(#faa9s78h7of4k)" height="30.4883" style="stroke: #A80036; stroke-width: 1.5;" width="169" x="740" y="200.5977"/><text fill="#000000" font-family="sans-serif" font-size="14" lengthAdjust="spacingAndGlyphs" text-decoration="underline" textLength="155" x="747" y="221.1328">:MapVSSCreateControl</text><line style="stroke: #000000; stroke-width: 1.0;" x1="747" x2="902" y1="223.1328" y2="223.1328"/><rect fill="#FEFECE" filter="url(#faa9s78h7of4k)" height="30.4883" style="stroke: #A80036; stroke-width: 1.5;" width="326" x="1665.5" y="246.0859"/><text fill="#000000" font-family="sans-serif" font-size="14" lengthAdjust="spacingAndGlyphs" text-decoration="underline" textLength="312" x="1672.5" y="266.6211">newSoundSpace:MapModeVirtualSoundSpace</text><line style="stroke: #000000; stroke-width: 1.0;" x1="1672.5" x2="1984.5" y1="268.6211" y2="268.6211"/><rect fill="#FEFECE" filter="url(#faa9s78h7of4k)" height="30.4883" style="stroke: #A80036; stroke-width: 1.5;" width="117" x="1160.5" y="291.5742"/><text fill="#000000" font-family="sans-serif" font-size="14" lengthAdjust="spacingAndGlyphs" text-decoration="underline" textLength="103" x="1167.5" y="312.1094">:SensorControl</text><line style="stroke: #000000; stroke-width: 1.0;" x1="1167.5" x2="1270.5" y1="314.1094" y2="314.1094"/><rect fill="#FEFECE" filter="url(#faa9s78h7of4k)" height="30.4883" style="stroke: #A80036; stroke-width: 1.5;" width="65" x="1331.5" y="337.0625"/><text fill="#000000" font-family="sans-serif" font-size="14" lengthAdjust="spacingAndGlyphs" text-decoration="underline" textLength="51" x="1338.5" y="357.5977">:Sensor</text><line style="stroke: #000000; stroke-width: 1.0;" x1="1338.5" x2="1389.5" y1="359.5977" y2="359.5977"/><rect fill="#FFFFFF" filter="url(#faa9s78h7of4k)" height="1121.2676" style="stroke: #000000; stroke-width: 2.0;" width="2125.5" x="13" y="389.5508"/><rect fill="#FFFFFF" filter="url(#faa9s78h7of4k)" height="397.6367" style="stroke: #000000; stroke-width: 2.0;" width="1652.5" x="23" y="413.8613"/><rect fill="#FFFFFF" filter="url(#faa9s78h7of4k)" height="75.9316" style="stroke: #000000; stroke-width: 2.0;" width="713" x="952.5" y="526.1035"/><rect fill="#FFFFFF" height="85.2207" style="stroke: none; stroke-width: 1.0;" width="1652.5" x="23" y="726.2773"/><rect fill="#FEFECE" filter="url(#faa9s78h7of4k)" height="30.4883" style="stroke: #A80036; stroke-width: 1.5;" width="109" x="2005.5" y="935.7402"/><text fill="#000000" font-family="sans-serif" font-size="14" lengthAdjust="spacingAndGlyphs" text-decoration="underline" textLength="95" x="2012.5" y="956.2754">:SoundSource</text><line style="stroke: #000000; stroke-width: 1.0;" x1="2012.5" x2="2107.5" y1="958.2754" y2="958.2754"/><rect fill="#FFFFFF" filter="url(#faa9s78h7of4k)" height="75.9316" style="stroke: #000000; stroke-width: 2.0;" width="2105.5" x="23" y="1046.8496"/><line style="stroke: #A80036; stroke-width: 1.0;" x1="51" x2="51" y1="86.4883" y2="770.543"/><line style="stroke: #A80036; stroke-width: 1.0; stroke-dasharray: 1.0,4.0;" x1="51" x2="51" y1="770.543" y2="811.498"/><line style="stroke: #A80036; stroke-width: 1.0;" x1="51" x2="51" y1="811.498" y2="1527.8184"/><line style="stroke: #A80036; stroke-width: 1.0;" x1="195" x2="195" y1="86.4883" y2="770.543"/><line style="stroke: #A80036; stroke-width: 1.0; stroke-dasharray: 1.0,4.0;" x1="195" x2="195" y1="770.543" y2="811.498"/><line style="stroke: #A80036; stroke-width: 1.0;" x1="195" x2="195" y1="811.498" y2="1527.8184"/><line style="stroke: #A80036; stroke-width: 1.0;" x1="383" x2="383" y1="86.4883" y2="770.543"/><line style="stroke: #A80036; stroke-width: 1.0; stroke-dasharray: 1.0,4.0;" x1="383" x2="383" y1="770.543" y2="811.498"/><line style="stroke: #A80036; stroke-width: 1.0;" x1="383" x2="383" y1="811.498" y2="1527.8184"/><line style="stroke: #A80036; stroke-width: 1.0;" x1="562.5" x2="562.5" y1="187.8535" y2="770.543"/><line style="stroke: #A80036; stroke-width: 1.0; stroke-dasharray: 1.0,4.0;" x1="562.5" x2="562.5" y1="770.543" y2="811.498"/><line style="stroke: #A80036; stroke-width: 1.0;" x1="562.5" x2="562.5" y1="811.498" y2="1527.8184"/><line style="stroke: #A80036; stroke-width: 1.0;" x1="826" x2="826" y1="233.3418" y2="770.543"/><line style="stroke: #A80036; stroke-width: 1.0; stroke-dasharray: 1.0,4.0;" x1="826" x2="826" y1="770.543" y2="811.498"/><line style="stroke: #A80036; stroke-width: 1.0;" x1="826" x2="826" y1="811.498" y2="1527.8184"/><line style="stroke: #A80036; stroke-width: 1.0;" x1="1056.5" x2="1056.5" y1="86.4883" y2="770.543"/><line style="stroke: #A80036; stroke-width: 1.0; stroke-dasharray: 1.0,4.0;" x1="1056.5" x2="1056.5" y1="770.543" y2="811.498"/><line style="stroke: #A80036; stroke-width: 1.0;" x1="1056.5" x2="1056.5" y1="811.498" y2="1527.8184"/><line style="stroke: #A80036; stroke-width: 1.0;" x1="1220.5" x2="1220.5" y1="324.3184" y2="770.543"/><line style="stroke: #A80036; stroke-width: 1.0; stroke-dasharray: 1.0,4.0;" x1="1220.5" x2="1220.5" y1="770.543" y2="811.498"/><line style="stroke: #A80036; stroke-width: 1.0;" x1="1220.5" x2="1220.5" y1="811.498" y2="1527.8184"/><line style="stroke: #A80036; stroke-width: 1.0;" x1="1365.5" x2="1365.5" y1="369.8066" y2="770.543"/><line style="stroke: #A80036; stroke-width: 1.0; stroke-dasharray: 1.0,4.0;" x1="1365.5" x2="1365.5" y1="770.543" y2="811.498"/><line style="stroke: #A80036; stroke-width: 1.0;" x1="1365.5" x2="1365.5" y1="811.498" y2="1527.8184"/><line style="stroke: #A80036; stroke-width: 1.0;" x1="1532.5" x2="1532.5" y1="86.4883" y2="770.543"/><line style="stroke: #A80036; stroke-width: 1.0; stroke-dasharray: 1.0,4.0;" x1="1532.5" x2="1532.5" y1="770.543" y2="811.498"/><line style="stroke: #A80036; stroke-width: 1.0;" x1="1532.5" x2="1532.5" y1="811.498" y2="1527.8184"/><line style="stroke: #A80036; stroke-width: 1.0;" x1="1830.5" x2="1830.5" y1="278.8301" y2="770.543"/><line style="stroke: #A80036; stroke-width: 1.0; stroke-dasharray: 1.0,4.0;" x1="1830.5" x2="1830.5" y1="770.543" y2="811.498"/><line style="stroke: #A80036; stroke-width: 1.0;" x1="1830.5" x2="1830.5" y1="811.498" y2="1527.8184"/><line style="stroke: #A80036; stroke-width: 1.0;" x1="2061.5" x2="2061.5" y1="968.4844" y2="1527.8184"/><text fill="#000000" font-family="sans-serif" font-size="14" lengthAdjust="spacingAndGlyphs" text-decoration="underline" textLength="31" x="33" y="83.5352">User</text><line style="stroke: #000000; stroke-width: 1.0;" x1="33" x2="64" y1="85.5352" y2="85.5352"/><ellipse cx="51.5" cy="13" fill="#FEFECE" filter="url(#faa9s78h7of4k)" rx="8" ry="8" style="stroke: #A80036; stroke-width: 2.0;"/><path d="M51.5,21 L51.5,48 M38.5,29 L64.5,29 M51.5,48 L38.5,63 M51.5,48 L64.5,63 " fill="none" filter="url(#faa9s78h7of4k)" style="stroke: #A80036; stroke-width: 2.0;"/><rect fill="#FEFECE" filter="url(#faa9s78h7of4k)" height="30.4883" style="stroke: #A80036; stroke-width: 1.5;" width="171" x="108" y="51"/><text fill="#000000" font-family="sans-serif" font-size="14" lengthAdjust="spacingAndGlyphs" text-decoration="underline" textLength="157" x="115" y="71.5352">:LocalVSSManagerPage</text><line style="stroke: #000000; stroke-width: 1.0;" x1="115" x2="272" y1="73.5352" y2="73.5352"/><rect fill="#FEFECE" filter="url(#faa9s78h7of4k)" height="30.4883" style="stroke: #A80036; stroke-width: 1.5;" width="177" x="293" y="51"/><text fill="#000000" font-family="sans-serif" font-size="14" lengthAdjust="spacingAndGlyphs" text-decoration="underline" textLength="163" x="300" y="71.5352">:LocalVSSLibraryControl</text><line style="stroke: #000000; stroke-width: 1.0;" x1="300" x2="463" y1="73.5352" y2="73.5352"/><rect fill="#FEFECE" filter="url(#faa9s78h7of4k)" height="30.4883" style="stroke: #A80036; stroke-width: 1.5;" width="184" x="962.5" y="51"/><text fill="#000000" font-family="sans-serif" font-size="14" lengthAdjust="spacingAndGlyphs" text-decoration="underline" textLength="170" x="969.5" y="71.5352">:LocalSoundSpaceLibrary</text><line style="stroke: #000000; stroke-width: 1.0;" x1="969.5" x2="1139.5" y1="73.5352" y2="73.5352"/><rect fill="#FEFECE" filter="url(#faa9s78h7of4k)" height="30.4883" style="stroke: #A80036; stroke-width: 1.5;" width="237" x="1414.5" y="47"/><rect fill="#FEFECE" filter="url(#faa9s78h7of4k)" height="30.4883" style="stroke: #A80036; stroke-width: 1.5;" width="237" x="1410.5" y="51"/><text fill="#000000" font-family="sans-serif" font-size="14" lengthAdjust="spacingAndGlyphs" text-decoration="underline" textLength="223" x="1417.5" y="71.5352">soundSpaces:VirtualSoundSpace</text><line style="stroke: #000000; stroke-width: 1.0;" x1="1417.5" x2="1640.5" y1="73.5352" y2="73.5352"/><polygon fill="#A80036" points="183.5,113.4883,193.5,117.4883,183.5,121.4883,187.5,117.4883" style="stroke: #A80036; stroke-width: 1.0;"/><line style="stroke: #A80036; stroke-width: 1.0;" x1="51.5" x2="189.5" y1="117.4883" y2="117.4883"/><text fill="#000000" font-family="sans-serif" font-size="13" lengthAdjust="spacingAndGlyphs" textLength="120" x="58.5" y="113.0566">createMapModeVSS</text><polygon fill="#A80036" points="371.5,142.7988,381.5,146.7988,371.5,150.7988,375.5,146.7988" style="stroke: #A80036; stroke-width: 1.0;"/><line style="stroke: #A80036; stroke-width: 1.0;" x1="195.5" x2="377.5" y1="146.7988" y2="146.7988"/><text fill="#000000" font-family="sans-serif" font-size="13" lengthAdjust="spacingAndGlyphs" textLength="120" x="202.5" y="142.3672">createMapModeVSS</text><polygon fill="#A80036" points="473.5,172.1094,483.5,176.1094,473.5,180.1094,477.5,176.1094" style="stroke: #A80036; stroke-width: 1.0;"/><line style="stroke: #A80036; stroke-width: 1.0;" x1="383.5" x2="479.5" y1="176.1094" y2="176.1094"/><text fill="#000000" font-family="sans-serif" font-size="13" lengthAdjust="spacingAndGlyphs" textLength="78" x="390.5" y="171.6777">&lt;&lt;create&gt;&gt;</text><rect fill="#FEFECE" filter="url(#faa9s78h7of4k)" height="30.4883" style="stroke: #A80036; stroke-width: 1.5;" width="150" x="485.5" y="155.1094"/><text fill="#000000" font-family="sans-serif" font-size="14" lengthAdjust="spacingAndGlyphs" text-decoration="underline" textLength="136" x="492.5" y="175.6445">:MapVSSCreatePage</text><line style="stroke: #000000; stroke-width: 1.0;" x1="492.5" x2="628.5" y1="177.6445" y2="177.6445"/><polygon fill="#A80036" points="728,217.5977,738,221.5977,728,225.5977,732,221.5977" style="stroke: #A80036; stroke-width: 1.0;"/><line style="stroke: #A80036; stroke-width: 1.0;" x1="562.5" x2="734" y1="221.5977" y2="221.5977"/><text fill="#000000" font-family="sans-serif" font-size="13" lengthAdjust="spacingAndGlyphs" textLength="78" x="569.5" y="217.166">&lt;&lt;create&gt;&gt;</text><rect fill="#FEFECE" filter="url(#faa9s78h7of4k)" height="30.4883" style="stroke: #A80036; stroke-width: 1.5;" width="169" x="740" y="200.5977"/><text fill="#000000" font-family="sans-serif" font-size="14" lengthAdjust="spacingAndGlyphs" text-decoration="underline" textLength="155" x="747" y="221.1328">:MapVSSCreateControl</text><line style="stroke: #000000; stroke-width: 1.0;" x1="747" x2="902" y1="223.1328" y2="223.1328"/><polygon fill="#A80036" points="1653.5,263.0859,1663.5,267.0859,1653.5,271.0859,1657.5,267.0859" style="stroke: #A80036; stroke-width: 1.0;"/><line style="stroke: #A80036; stroke-width: 1.0;" x1="826.5" x2="1659.5" y1="267.0859" y2="267.0859"/><text fill="#000000" font-family="sans-serif" font-size="13" lengthAdjust="spacingAndGlyphs" textLength="78" x="833.5" y="262.6543">&lt;&lt;create&gt;&gt;</text><rect fill="#FEFECE" filter="url(#faa9s78h7of4k)" height="30.4883" style="stroke: #A80036; stroke-width: 1.5;" width="326" x="1665.5" y="246.0859"/><text fill="#000000" font-family="sans-serif" font-size="14" lengthAdjust="spacingAndGlyphs" text-decoration="underline" textLength="312" x="1672.5" y="266.6211">newSoundSpace:MapModeVirtualSoundSpace</text><line style="stroke: #000000; stroke-width: 1.0;" x1="1672.5" x2="1984.5" y1="268.6211" y2="268.6211"/><polygon fill="#A80036" points="1148.5,308.5742,1158.5,312.5742,1148.5,316.5742,1152.5,312.5742" style="stroke: #A80036; stroke-width: 1.0;"/><line style="stroke: #A80036; stroke-width: 1.0;" x1="826.5" x2="1154.5" y1="312.5742" y2="312.5742"/><text fill="#000000" font-family="sans-serif" font-size="13" lengthAdjust="spacingAndGlyphs" textLength="78" x="833.5" y="308.1426">&lt;&lt;create&gt;&gt;</text><rect fill="#FEFECE" filter="url(#faa9s78h7of4k)" height="30.4883" style="stroke: #A80036; stroke-width: 1.5;" width="117" x="1160.5" y="291.5742"/><text fill="#000000" font-family="sans-serif" font-size="14" lengthAdjust="spacingAndGlyphs" text-decoration="underline" textLength="103" x="1167.5" y="312.1094">:SensorControl</text><line style="stroke: #000000; stroke-width: 1.0;" x1="1167.5" x2="1270.5" y1="314.1094" y2="314.1094"/><polygon fill="#A80036" points="1319.5,354.0625,1329.5,358.0625,1319.5,362.0625,1323.5,358.0625" style="stroke: #A80036; stroke-width: 1.0;"/><line style="stroke: #A80036; stroke-width: 1.0;" x1="1221" x2="1325.5" y1="358.0625" y2="358.0625"/><text fill="#000000" font-family="sans-serif" font-size="13" lengthAdjust="spacingAndGlyphs" textLength="78" x="1228" y="353.6309">&lt;&lt;create&gt;&gt;</text><rect fill="#FEFECE" filter="url(#faa9s78h7of4k)" height="30.4883" style="stroke: #A80036; stroke-width: 1.5;" width="65" x="1331.5" y="337.0625"/><text fill="#000000" font-family="sans-serif" font-size="14" lengthAdjust="spacingAndGlyphs" text-decoration="underline" textLength="51" x="1338.5" y="357.5977">:Sensor</text><line style="stroke: #000000; stroke-width: 1.0;" x1="1338.5" x2="1389.5" y1="359.5977" y2="359.5977"/><path d="M13,389.5508 L87,389.5508 L87,396.5508 L77,406.5508 L13,406.5508 L13,389.5508 " fill="#EEEEEE" style="stroke: #000000; stroke-width: 1.0;"/><rect fill="none" height="1121.2676" style="stroke: #000000; stroke-width: 2.0;" width="2125.5" x="13" y="389.5508"/><text fill="#000000" font-family="sans-serif" font-size="13" font-weight="bold" lengthAdjust="spacingAndGlyphs" textLength="29" x="28" y="403.1191">loop</text><text fill="#000000" font-family="sans-serif" font-size="11" font-weight="bold" lengthAdjust="spacingAndGlyphs" textLength="144" x="102" y="402.1855">[add virual sound source]</text><path d="M23,413.8613 L85,413.8613 L85,420.8613 L75,430.8613 L23,430.8613 L23,413.8613 " fill="#EEEEEE" style="stroke: #000000; stroke-width: 1.0;"/><rect fill="none" height="397.6367" style="stroke: #000000; stroke-width: 2.0;" width="1652.5" x="23" y="413.8613"/><text fill="#000000" font-family="sans-serif" font-size="13" font-weight="bold" lengthAdjust="spacingAndGlyphs" textLength="17" x="38" y="427.4297">alt</text><text fill="#000000" font-family="sans-serif" font-size="11" font-weight="bold" lengthAdjust="spacingAndGlyphs" textLength="101" x="100" y="426.4961">[add from library]</text><polygon fill="#A80036" points="550.5,448.1719,560.5,452.1719,550.5,456.1719,554.5,452.1719" style="stroke: #A80036; stroke-width: 1.0;"/><line style="stroke: #A80036; stroke-width: 1.0;" x1="51.5" x2="556.5" y1="452.1719" y2="452.1719"/><text fill="#000000" font-family="sans-serif" font-size="13" lengthAdjust="spacingAndGlyphs" textLength="164" x="58.5" y="447.7402">selectExistedSoundSource</text><polygon fill="#A80036" points="814.5,477.4824,824.5,481.4824,814.5,485.4824,818.5,481.4824" style="stroke: #A80036; stroke-width: 1.0;"/><line style="stroke: #A80036; stroke-width: 1.0;" x1="562.5" x2="820.5" y1="481.4824" y2="481.4824"/><text fill="#000000" font-family="sans-serif" font-size="13" lengthAdjust="spacingAndGlyphs" textLength="158" x="569.5" y="477.0508">getLocalSoundFragments</text><polygon fill="#A80036" points="1044.5,506.793,1054.5,510.793,1044.5,514.793,1048.5,510.793" style="stroke: #A80036; stroke-width: 1.0;"/><line style="stroke: #A80036; stroke-width: 1.0;" x1="826.5" x2="1050.5" y1="510.793" y2="510.793"/><text fill="#000000" font-family="sans-serif" font-size="13" lengthAdjust="spacingAndGlyphs" textLength="158" x="833.5" y="506.3613">getLocalSoundFragments</text><path d="M952.5,526.1035 L1026.5,526.1035 L1026.5,533.1035 L1016.5,543.1035 L952.5,543.1035 L952.5,526.1035 " fill="#EEEEEE" style="stroke: #000000; stroke-width: 1.0;"/><rect fill="none" height="75.9316" style="stroke: #000000; stroke-width: 2.0;" width="713" x="952.5" y="526.1035"/><text fill="#000000" font-family="sans-serif" font-size="13" font-weight="bold" lengthAdjust="spacingAndGlyphs" textLength="29" x="967.5" y="539.6719">loop</text><text fill="#000000" font-family="sans-serif" font-size="11" font-weight="bold" lengthAdjust="spacingAndGlyphs" textLength="54" x="1041.5" y="538.7383">[for each]</text><polygon fill="#A80036" points="1521,560.4141,1531,564.4141,1521,568.4141,1525,564.4141" style="stroke: #A80036; stroke-width: 1.0;"/><line style="stroke: #A80036; stroke-width: 1.0;" x1="1056.5" x2="1527" y1="564.4141" y2="564.4141"/><text fill="#000000" font-family="sans-serif" font-size="13" lengthAdjust="spacingAndGlyphs" textLength="108" x="1063.5" y="559.9824">getSoundSources</text><polygon fill="#A80036" points="1067.5,589.7246,1057.5,593.7246,1067.5,597.7246,1063.5,593.7246" style="stroke: #A80036; stroke-width: 1.0;"/><line style="stroke: #A80036; stroke-width: 1.0; stroke-dasharray: 2.0,2.0;" x1="1061.5" x2="1532" y1="593.7246" y2="593.7246"/><text fill="#000000" font-family="sans-serif" font-size="13" lengthAdjust="spacingAndGlyphs" textLength="88" x="1073.5" y="589.293">soundSources</text><polygon fill="#A80036" points="837.5,626.0352,827.5,630.0352,837.5,634.0352,833.5,630.0352" style="stroke: #A80036; stroke-width: 1.0;"/><line style="stroke: #A80036; stroke-width: 1.0; stroke-dasharray: 2.0,2.0;" x1="831.5" x2="1055.5" y1="630.0352" y2="630.0352"/><text fill="#000000" font-family="sans-serif" font-size="13" lengthAdjust="spacingAndGlyphs" textLength="150" x="843.5" y="625.6035">filteredSoundFragments</text><polygon fill="#A80036" points="573.5,655.3457,563.5,659.3457,573.5,663.3457,569.5,659.3457" style="stroke: #A80036; stroke-width: 1.0;"/><line style="stroke: #A80036; stroke-width: 1.0; stroke-dasharray: 2.0,2.0;" x1="567.5" x2="825.5" y1="659.3457" y2="659.3457"/><text fill="#000000" font-family="sans-serif" font-size="13" lengthAdjust="spacingAndGlyphs" textLength="240" x="579.5" y="654.9141">displayAvailableLocalSoundFragments</text><polygon fill="#A80036" points="550.5,684.6563,560.5,688.6563,550.5,692.6563,554.5,688.6563" style="stroke: #A80036; stroke-width: 1.0;"/><line style="stroke: #A80036; stroke-width: 1.0;" x1="51.5" x2="556.5" y1="688.6563" y2="688.6563"/><text fill="#000000" font-family="sans-serif" font-size="13" lengthAdjust="spacingAndGlyphs" textLength="135" x="58.5" y="684.2246">selectSoundFragment</text><polygon fill="#A80036" points="814.5,713.9668,824.5,717.9668,814.5,721.9668,818.5,717.9668" style="stroke: #A80036; stroke-width: 1.0;"/><line style="stroke: #A80036; stroke-width: 1.0;" x1="562.5" x2="820.5" y1="717.9668" y2="717.9668"/><text fill="#000000" font-family="sans-serif" font-size="13" lengthAdjust="spacingAndGlyphs" textLength="121" x="569.5" y="713.5352">addSoundFragment</text><line style="stroke: #000000; stroke-width: 1.0; stroke-dasharray: 2.0,2.0;" x1="23" x2="1675.5" y1="727.2773" y2="727.2773"/><text fill="#000000" font-family="sans-serif" font-size="11" font-weight="bold" lengthAdjust="spacingAndGlyphs" textLength="83" x="28" y="737.9121">[add from file]</text><polygon fill="#A80036" points="550.5,758.2324,560.5,762.2324,550.5,766.2324,554.5,762.2324" style="stroke: #A80036; stroke-width: 1.0;"/><line style="stroke: #A80036; stroke-width: 1.0;" x1="51.5" x2="556.5" y1="762.2324" y2="762.2324"/><text fill="#000000" font-family="sans-serif" font-size="13" lengthAdjust="spacingAndGlyphs" textLength="136" x="58.5" y="757.8008">selectFromFileSystem</text><text fill="#000000" font-family="sans-serif" font-size="11" lengthAdjust="spacingAndGlyphs" textLength="500" x="806.75" y="795.1777">somehow MapVSSCreateControl got the new SoundFragment # specify during implementation</text><polygon fill="#A80036" points="1209,835.498,1219,839.498,1209,843.498,1213,839.498" style="stroke: #A80036; stroke-width: 1.0;"/><line style="stroke: #A80036; stroke-width: 1.0;" x1="826.5" x2="1215" y1="839.498" y2="839.498"/><text fill="#000000" font-family="sans-serif" font-size="13" lengthAdjust="spacingAndGlyphs" textLength="121" x="833.5" y="835.0664">getCurrentLocation</text><polygon fill="#A80036" points="1354,864.8086,1364,868.8086,1354,872.8086,1358,868.8086" style="stroke: #A80036; stroke-width: 1.0;"/><line style="stroke: #A80036; stroke-width: 1.0;" x1="1221" x2="1360" y1="868.8086" y2="868.8086"/><text fill="#000000" font-family="sans-serif" font-size="13" lengthAdjust="spacingAndGlyphs" textLength="121" x="1228" y="864.377">getCurrentLocation</text><polygon fill="#A80036" points="1232,894.1191,1222,898.1191,1232,902.1191,1228,898.1191" style="stroke: #A80036; stroke-width: 1.0;"/><line style="stroke: #A80036; stroke-width: 1.0; stroke-dasharray: 2.0,2.0;" x1="1226" x2="1365" y1="898.1191" y2="898.1191"/><text fill="#000000" font-family="sans-serif" font-size="13" lengthAdjust="spacingAndGlyphs" textLength="99" x="1238" y="893.6875">currentLocation</text><polygon fill="#A80036" points="837.5,923.4297,827.5,927.4297,837.5,931.4297,833.5,927.4297" style="stroke: #A80036; stroke-width: 1.0;"/><line style="stroke: #A80036; stroke-width: 1.0;" x1="831.5" x2="1220" y1="927.4297" y2="927.4297"/><text fill="#000000" font-family="sans-serif" font-size="13" lengthAdjust="spacingAndGlyphs" textLength="99" x="843.5" y="922.998">currentLocation</text><polygon fill="#A80036" points="1993.5,952.7402,2003.5,956.7402,1993.5,960.7402,1997.5,956.7402" style="stroke: #A80036; stroke-width: 1.0;"/><line style="stroke: #A80036; stroke-width: 1.0;" x1="826.5" x2="1999.5" y1="956.7402" y2="956.7402"/><text fill="#000000" font-family="sans-serif" font-size="13" lengthAdjust="spacingAndGlyphs" textLength="78" x="833.5" y="952.3086">&lt;&lt;create&gt;&gt;</text><rect fill="#FEFECE" filter="url(#faa9s78h7of4k)" height="30.4883" style="stroke: #A80036; stroke-width: 1.5;" width="109" x="2005.5" y="935.7402"/><text fill="#000000" font-family="sans-serif" font-size="14" lengthAdjust="spacingAndGlyphs" text-decoration="underline" textLength="95" x="2012.5" y="956.2754">:SoundSource</text><line style="stroke: #000000; stroke-width: 1.0;" x1="2012.5" x2="2107.5" y1="958.2754" y2="958.2754"/><polygon fill="#A80036" points="2050,998.2285,2060,1002.2285,2050,1006.2285,2054,1002.2285" style="stroke: #A80036; stroke-width: 1.0;"/><line style="stroke: #A80036; stroke-width: 1.0;" x1="826.5" x2="2056" y1="1002.2285" y2="1002.2285"/><text fill="#000000" font-family="sans-serif" font-size="13" lengthAdjust="spacingAndGlyphs" textLength="117" x="833.5" y="997.7969">setSoundFragment</text><polygon fill="#A80036" points="2050,1027.5391,2060,1031.5391,2050,1035.5391,2054,1031.5391" style="stroke: #A80036; stroke-width: 1.0;"/><line style="stroke: #A80036; stroke-width: 1.0;" x1="826.5" x2="2056" y1="1031.5391" y2="1031.5391"/><text fill="#000000" font-family="sans-serif" font-size="13" lengthAdjust="spacingAndGlyphs" textLength="73" x="833.5" y="1027.1074">setLocation</text><path d="M23,1046.8496 L85,1046.8496 L85,1053.8496 L75,1063.8496 L23,1063.8496 L23,1046.8496 " fill="#EEEEEE" style="stroke: #000000; stroke-width: 1.0;"/><rect fill="none" height="75.9316" style="stroke: #000000; stroke-width: 2.0;" width="2105.5" x="23" y="1046.8496"/><text fill="#000000" font-family="sans-serif" font-size="13" font-weight="bold" lengthAdjust="spacingAndGlyphs" textLength="17" x="38" y="1060.418">alt</text><text fill="#000000" font-family="sans-serif" font-size="11" font-weight="bold" lengthAdjust="spacingAndGlyphs" textLength="169" x="100" y="1059.4844">[user choose to alter position]</text><polygon fill="#A80036" points="550.5,1081.1602,560.5,1085.1602,550.5,1089.1602,554.5,1085.1602" style="stroke: #A80036; stroke-width: 1.0;"/><line style="stroke: #A80036; stroke-width: 1.0;" x1="51.5" x2="556.5" y1="1085.1602" y2="1085.1602"/><text fill="#000000" font-family="sans-serif" font-size="13" lengthAdjust="spacingAndGlyphs" textLength="201" x="58.5" y="1080.7285">setCurrentSoundSourceLocation</text><polygon fill="#A80036" points="2050,1110.4707,2060,1114.4707,2050,1118.4707,2054,1114.4707" style="stroke: #A80036; stroke-width: 1.0;"/><line style="stroke: #A80036; stroke-width: 1.0;" x1="562.5" x2="2056" y1="1114.4707" y2="1114.4707"/><text fill="#000000" font-family="sans-serif" font-size="13" lengthAdjust="spacingAndGlyphs" textLength="73" x="569.5" y="1110.0391">setLocation</text><polygon fill="#A80036" points="550.5,1146.7813,560.5,1150.7813,550.5,1154.7813,554.5,1150.7813" style="stroke: #A80036; stroke-width: 1.0;"/><line style="stroke: #A80036; stroke-width: 1.0;" x1="51.5" x2="556.5" y1="1150.7813" y2="1150.7813"/><text fill="#000000" font-family="sans-serif" font-size="13" lengthAdjust="spacingAndGlyphs" textLength="134" x="58.5" y="1146.3496">setSoundSourceMode</text><polygon fill="#A80036" points="814.5,1176.0918,824.5,1180.0918,814.5,1184.0918,818.5,1180.0918" style="stroke: #A80036; stroke-width: 1.0;"/><line style="stroke: #A80036; stroke-width: 1.0;" x1="562.5" x2="820.5" y1="1180.0918" y2="1180.0918"/><text fill="#000000" font-family="sans-serif" font-size="13" lengthAdjust="spacingAndGlyphs" textLength="134" x="569.5" y="1175.6602">setSoundSourceMode</text><polygon fill="#A80036" points="2050,1205.4023,2060,1209.4023,2050,1213.4023,2054,1209.4023" style="stroke: #A80036; stroke-width: 1.0;"/><line style="stroke: #A80036; stroke-width: 1.0;" x1="826.5" x2="2056" y1="1209.4023" y2="1209.4023"/><text fill="#000000" font-family="sans-serif" font-size="13" lengthAdjust="spacingAndGlyphs" textLength="134" x="833.5" y="1204.9707">setSoundSourceMode</text><polygon fill="#A80036" points="1818.5,1234.7129,1828.5,1238.7129,1818.5,1242.7129,1822.5,1238.7129" style="stroke: #A80036; stroke-width: 1.0;"/><line style="stroke: #A80036; stroke-width: 1.0;" x1="826.5" x2="1824.5" y1="1238.7129" y2="1238.7129"/><text fill="#000000" font-family="sans-serif" font-size="13" lengthAdjust="spacingAndGlyphs" textLength="193" x="833.5" y="1234.2813">addSoundSource(soundSource)</text><polygon fill="#A80036" points="550.5,1264.0234,560.5,1268.0234,550.5,1272.0234,554.5,1268.0234" style="stroke: #A80036; stroke-width: 1.0;"/><line style="stroke: #A80036; stroke-width: 1.0;" x1="51.5" x2="556.5" y1="1268.0234" y2="1268.0234"/><text fill="#000000" font-family="sans-serif" font-size="13" lengthAdjust="spacingAndGlyphs" textLength="175" x="58.5" y="1263.5918">setVSSNameAndDescription</text><polygon fill="#A80036" points="814.5,1293.334,824.5,1297.334,814.5,1301.334,818.5,1297.334" style="stroke: #A80036; stroke-width: 1.0;"/><line style="stroke: #A80036; stroke-width: 1.0;" x1="562.5" x2="820.5" y1="1297.334" y2="1297.334"/><text fill="#000000" font-family="sans-serif" font-size="13" lengthAdjust="spacingAndGlyphs" textLength="175" x="569.5" y="1292.9023">setVSSNameAndDescription</text><polygon fill="#A80036" points="1818.5,1322.6445,1828.5,1326.6445,1818.5,1330.6445,1822.5,1326.6445" style="stroke: #A80036; stroke-width: 1.0;"/><line style="stroke: #A80036; stroke-width: 1.0;" x1="826.5" x2="1824.5" y1="1326.6445" y2="1326.6445"/><text fill="#000000" font-family="sans-serif" font-size="13" lengthAdjust="spacingAndGlyphs" textLength="175" x="833.5" y="1322.2129">setVSSNameAndDescription</text><polygon fill="#A80036" points="550.5,1351.9551,560.5,1355.9551,550.5,1359.9551,554.5,1355.9551" style="stroke: #A80036; stroke-width: 1.0;"/><line style="stroke: #A80036; stroke-width: 1.0;" x1="51.5" x2="556.5" y1="1355.9551" y2="1355.9551"/><text fill="#000000" font-family="sans-serif" font-size="13" lengthAdjust="spacingAndGlyphs" textLength="128" x="58.5" y="1351.5234">comfirmVSSCreation</text><polygon fill="#A80036" points="814.5,1381.2656,824.5,1385.2656,814.5,1389.2656,818.5,1385.2656" style="stroke: #A80036; stroke-width: 1.0;"/><line style="stroke: #A80036; stroke-width: 1.0;" x1="562.5" x2="820.5" y1="1385.2656" y2="1385.2656"/><text fill="#000000" font-family="sans-serif" font-size="13" lengthAdjust="spacingAndGlyphs" textLength="128" x="569.5" y="1380.834">comfirmVSSCreation</text><polygon fill="#A80036" points="1044.5,1410.5762,1054.5,1414.5762,1044.5,1418.5762,1048.5,1414.5762" style="stroke: #A80036; stroke-width: 1.0;"/><line style="stroke: #A80036; stroke-width: 1.0;" x1="826.5" x2="1050.5" y1="1414.5762" y2="1414.5762"/><text fill="#000000" font-family="sans-serif" font-size="13" lengthAdjust="spacingAndGlyphs" textLength="206" x="833.5" y="1410.1445">addSoundSpace(newSoundSpace)</text><polygon fill="#A80036" points="1209,1439.8867,1219,1443.8867,1209,1447.8867,1213,1443.8867" style="stroke: #A80036; stroke-width: 1.0;"/><line style="stroke: #A80036; stroke-width: 1.0;" x1="826.5" x2="1215" y1="1443.8867" y2="1443.8867"/><text fill="#000000" font-family="sans-serif" font-size="13" lengthAdjust="spacingAndGlyphs" textLength="87" x="833.5" y="1439.4551">&lt;&lt;destroy&gt;&gt;</text><polygon fill="#A80036" points="1354,1469.1973,1364,1473.1973,1354,1477.1973,1358,1473.1973" style="stroke: #A80036; stroke-width: 1.0;"/><line style="stroke: #A80036; stroke-width: 1.0;" x1="1221" x2="1360" y1="1473.1973" y2="1473.1973"/><text fill="#000000" font-family="sans-serif" font-size="13" lengthAdjust="spacingAndGlyphs" textLength="87" x="1228" y="1468.7656">&lt;&lt;destroy&gt;&gt;</text><line style="stroke: #A80036; stroke-width: 2.0;" x1="1212" x2="1230" y1="1464.1973" y2="1482.1973"/><line style="stroke: #A80036; stroke-width: 2.0;" x1="1212" x2="1230" y1="1482.1973" y2="1464.1973"/><line style="stroke: #A80036; stroke-width: 2.0;" x1="1357" x2="1375" y1="1464.1973" y2="1482.1973"/><line style="stroke: #A80036; stroke-width: 2.0;" x1="1357" x2="1375" y1="1482.1973" y2="1464.1973"/><polygon fill="#A80036" points="573.5,1498.5078,563.5,1502.5078,573.5,1506.5078,569.5,1502.5078" style="stroke: #A80036; stroke-width: 1.0;"/><line style="stroke: #A80036; stroke-width: 1.0;" x1="567.5" x2="825.5" y1="1502.5078" y2="1502.5078"/><text fill="#000000" font-family="sans-serif" font-size="13" lengthAdjust="spacingAndGlyphs" textLength="87" x="579.5" y="1498.0762">&lt;&lt;destroy&gt;&gt;</text><line style="stroke: #A80036; stroke-width: 2.0;" x1="553.5" x2="571.5" y1="1493.5078" y2="1511.5078"/><line style="stroke: #A80036; stroke-width: 2.0;" x1="553.5" x2="571.5" y1="1511.5078" y2="1493.5078"/><line style="stroke: #A80036; stroke-width: 2.0;" x1="817.5" x2="835.5" y1="1493.5078" y2="1511.5078"/><line style="stroke: #A80036; stroke-width: 2.0;" x1="817.5" x2="835.5" y1="1511.5078" y2="1493.5078"/><!--
@startuml CreateMapModeVSS
hide footbox
skinparam sequenceParticipant underline


actor User as user
participant ":LocalVSSManagerPage" as boundary
participant ":LocalVSSLibraryControl" as control
participant ":MapVSSCreatePage" as createboundary
participant ":MapVSSCreateControl" as createcontrol
participant ":LocalSoundSpaceLibrary" as library
participant ":SensorControl" as sensorcontrol
participant ":Sensor" as sensor
collections "soundSpaces:VirtualSoundSpace" as vsses
participant "newSoundSpace:MapModeVirtualSoundSpace" as newspace



user -> boundary: createMapModeVSS
boundary -> control: createMapModeVSS
create createboundary
control -> createboundary: <<create>>
create createcontrol
createboundary -> createcontrol: <<create>>
create newspace
createcontrol -> newspace: <<create>>
create sensorcontrol
createcontrol -> sensorcontrol: <<create>>
create sensor
sensorcontrol -> sensor: <<create>>
loop add virual sound source
    alt add from library
        user -> createboundary: selectExistedSoundSource
        createboundary -> createcontrol: getLocalSoundFragments
        createcontrol -> library: getLocalSoundFragments
        loop for each
            library -> vsses: getSoundSources
            vsses - -> library: soundSources
        end
        library - -> createcontrol: filteredSoundFragments
        createcontrol - -> createboundary: displayAvailableLocalSoundFragments
        user -> createboundary: selectSoundFragment
        createboundary -> createcontrol: addSoundFragment
    else add from file
        user -> createboundary: selectFromFileSystem
        ...somehow MapVSSCreateControl got the new SoundFragment # specify during implementation...

    end

    createcontrol -> sensorcontrol: getCurrentLocation
    sensorcontrol -> sensor: getCurrentLocation
    sensor - -> sensorcontrol: currentLocation
    sensorcontrol -> createcontrol: currentLocation

    participant ":SoundSource" as source
    create source
    createcontrol -> source: <<create>>
    createcontrol -> source: setSoundFragment
    createcontrol -> source: setLocation

    alt user choose to alter position
        user -> createboundary: setCurrentSoundSourceLocation
        createboundary -> source: setLocation
    end
    user -> createboundary: setSoundSourceMode
    createboundary -> createcontrol: setSoundSourceMode
    createcontrol -> source: setSoundSourceMode
    createcontrol -> newspace: addSoundSource(soundSource)
    user -> createboundary: setVSSNameAndDescription
    createboundary -> createcontrol: setVSSNameAndDescription
    createcontrol -> newspace: setVSSNameAndDescription
    user -> createboundary: comfirmVSSCreation
    createboundary -> createcontrol: comfirmVSSCreation
    createcontrol -> library: addSoundSpace(newSoundSpace)
    createcontrol -> sensorcontrol: <<destroy>>
    sensorcontrol -> sensor: <<destroy>>
    destroy sensorcontrol
    destroy sensor
    createcontrol -> createboundary: <<destroy>>
    destroy createboundary
    destroy createcontrol


end
@enduml

PlantUML version 1.2018.01(Mon Jan 29 02:08:22 CST 2018)
(GPL source distribution)
Java Runtime: Java(TM) SE Runtime Environment
JVM: Java HotSpot(TM) 64-Bit Server VM
Java Version: 9+181
Operating System: Mac OS X
OS Version: 10.12.6
Default Encoding: UTF-8
Language: zh
Country: CN
--></g></svg>