<?xml version="1.0" encoding="UTF-8" standalone="no"?><svg xmlns="http://www.w3.org/2000/svg" xmlns:xlink="http://www.w3.org/1999/xlink" contentScriptType="application/ecmascript" contentStyleType="text/css" height="1126px" preserveAspectRatio="none" style="width:570px;height:1126px;" version="1.1" viewBox="0 0 570 1126"
    width="570px" zoomAndPan="magnify"><defs><filter height="300%" id="f5xqham1p5hay" width="300%" x="-1" y="-1"><feGaussianBlur result="blurOut" stdDeviation="2.0"/><feColorMatrix in="blurOut" result="blurOut2" type="matrix" values="0 0 0 0 0 0 0 0 0 0 0 0 0 0 0 0 0 0 .4 0"/><feOffset dx="4.0" dy="4.0" in="blurOut2" result="blurOut3"/><feBlend in="SourceGraphic" in2="blurOut3" mode="normal"/></filter></defs><g><rect fill="#FFFFFF" filter="url(#f5xqham1p5hay)" height="817.9517" style="stroke: #000000; stroke-width: 2.0;" width="546.5" x="13" y="169.6289"/><rect fill="#FFFFFF" filter="url(#f5xqham1p5hay)" height="784.1743" style="stroke: #000000; stroke-width: 2.0;" width="526.5" x="23" y="196.4063"/><rect fill="#FFFFFF" height="271.0581" style="stroke: none; stroke-width: 1.0;" width="526.5" x="23" y="374.9556"/><rect fill="#FFFFFF" height="334.5669" style="stroke: none; stroke-width: 1.0;" width="526.5" x="23" y="646.0137"/><line style="stroke: #A80036; stroke-width: 1.0; stroke-dasharray: 5.0,5.0;" x1="50" x2="50" y1="89.1201" y2="1036.335"/><line style="stroke: #A80036; stroke-width: 1.0; stroke-dasharray: 5.0,5.0;" x1="193.5" x2="193.5" y1="89.1201" y2="1036.335"/><line style="stroke: #A80036; stroke-width: 1.0; stroke-dasharray: 5.0,5.0;" x1="305" x2="305" y1="89.1201" y2="1036.335"/><line style="stroke: #A80036; stroke-width: 1.0; stroke-dasharray: 5.0,5.0;" x1="415.5" x2="415.5" y1="89.1201" y2="1036.335"/><line style="stroke: #A80036; stroke-width: 1.0; stroke-dasharray: 5.0,5.0;" x1="499.5" x2="499.5" y1="89.1201" y2="1036.335"/><text fill="#000000" font-family="sans-serif" font-size="14" lengthAdjust="spacingAndGlyphs" textLength="28" x="33" y="86.0439">user</text><ellipse cx="50" cy="13" fill="#FEFECE" filter="url(#f5xqham1p5hay)" rx="8" ry="8" style="stroke: #A80036; stroke-width: 2.0;"/><path d="M50,21 L50,48 M37,29 L63,29 M50,48 L37,63 M50,48 L63,63 " fill="none" filter="url(#f5xqham1p5hay)" style="stroke: #A80036; stroke-width: 2.0;"/><text fill="#000000" font-family="sans-serif" font-size="14" lengthAdjust="spacingAndGlyphs" textLength="28" x="33" y="1051.3789">user</text><ellipse cx="50" cy="1064.4551" fill="#FEFECE" filter="url(#f5xqham1p5hay)" rx="8" ry="8" style="stroke: #A80036; stroke-width: 2.0;"/><path d="M50,1072.4551 L50,1099.4551 M37,1080.4551 L63,1080.4551 M50,1099.4551 L37,1114.4551 M50,1099.4551 L63,1114.4551 " fill="none" filter="url(#f5xqham1p5hay)" style="stroke: #A80036; stroke-width: 2.0;"/><text fill="#000000" font-family="sans-serif" font-size="14" lengthAdjust="spacingAndGlyphs" textLength="55" x="163.5" y="86.0439">interface</text><path d="M173.5,42 L173.5,66 M173.5,54 L190.5,54 " fill="none" filter="url(#f5xqham1p5hay)" style="stroke: #A80036; stroke-width: 2.0;"/><ellipse cx="202.5" cy="54" fill="#FEFECE" filter="url(#f5xqham1p5hay)" rx="12" ry="12" style="stroke: #A80036; stroke-width: 2.0;"/><text fill="#000000" font-family="sans-serif" font-size="14" lengthAdjust="spacingAndGlyphs" textLength="55" x="163.5" y="1051.3789">interface</text><path d="M173.5,1058.4551 L173.5,1082.4551 M173.5,1070.4551 L190.5,1070.4551 " fill="none" filter="url(#f5xqham1p5hay)" style="stroke: #A80036; stroke-width: 2.0;"/><ellipse cx="202.5" cy="1070.4551" fill="#FEFECE" filter="url(#f5xqham1p5hay)" rx="12" ry="12" style="stroke: #A80036; stroke-width: 2.0;"/><text fill="#000000" font-family="sans-serif" font-size="14" lengthAdjust="spacingAndGlyphs" textLength="124" x="240" y="86.0439">mapManageControl</text><ellipse cx="305" cy="54" fill="#FEFECE" filter="url(#f5xqham1p5hay)" rx="12" ry="12" style="stroke: #A80036; stroke-width: 2.0;"/><polygon fill="#A80036" points="301,42,307,37,305,42,307,47,301,42" style="stroke: #A80036; stroke-width: 1.0;"/><text fill="#000000" font-family="sans-serif" font-size="14" lengthAdjust="spacingAndGlyphs" textLength="124" x="240" y="1051.3789">mapManageControl</text><ellipse cx="305" cy="1070.4551" fill="#FEFECE" filter="url(#f5xqham1p5hay)" rx="12" ry="12" style="stroke: #A80036; stroke-width: 2.0;"/><polygon fill="#A80036" points="301,1058.4551,307,1053.4551,305,1058.4551,307,1063.4551,301,1058.4551" style="stroke: #A80036; stroke-width: 1.0;"/><text fill="#000000" font-family="sans-serif" font-size="14" lengthAdjust="spacingAndGlyphs" textLength="61" x="382.5" y="86.0439">Database</text><path d="M398,34 C398,24 416,24 416,24 C416,24 434,24 434,34 L434,60 C434,70 416,70 416,70 C416,70 398,70 398,60 L398,34 " fill="#FEFECE" filter="url(#f5xqham1p5hay)" style="stroke: #000000; stroke-width: 1.5;"/><path d="M398,34 C398,44 416,44 416,44 C416,44 434,44 434,34 " fill="none" style="stroke: #000000; stroke-width: 1.5;"/><text fill="#000000" font-family="sans-serif" font-size="14" lengthAdjust="spacingAndGlyphs" textLength="61" x="382.5" y="1051.3789">Database</text><path d="M398,1064.4551 C398,1054.4551 416,1054.4551 416,1054.4551 C416,1054.4551 434,1054.4551 434,1064.4551 L434,1090.4551 C434,1100.4551 416,1100.4551 416,1100.4551 C416,1100.4551 398,1100.4551 398,1090.4551 L398,1064.4551 " fill="#FEFECE" filter="url(#f5xqham1p5hay)" style="stroke: #000000; stroke-width: 1.5;"/><path d="M398,1064.4551 C398,1074.4551 416,1074.4551 416,1074.4551 C416,1074.4551 434,1074.4551 434,1064.4551 " fill="none" style="stroke: #000000; stroke-width: 1.5;"/><text fill="#000000" font-family="sans-serif" font-size="14" lengthAdjust="spacingAndGlyphs" textLength="74" x="459.5" y="86.0439">savedAudio</text><ellipse cx="499.5" cy="54" fill="#FEFECE" filter="url(#f5xqham1p5hay)" rx="12" ry="12" style="stroke: #A80036; stroke-width: 2.0;"/><line style="stroke: #A80036; stroke-width: 2.0;" x1="487.5" x2="511.5" y1="68" y2="68"/><text fill="#000000" font-family="sans-serif" font-size="14" lengthAdjust="spacingAndGlyphs" textLength="74" x="459.5" y="1051.3789">savedAudio</text><ellipse cx="499.5" cy="1070.4551" fill="#FEFECE" filter="url(#f5xqham1p5hay)" rx="12" ry="12" style="stroke: #A80036; stroke-width: 2.0;"/><line style="stroke: #A80036; stroke-width: 2.0;" x1="487.5" x2="511.5" y1="1084.4551" y2="1084.4551"/><polygon fill="#A80036" points="182,118.1201,192,122.1201,182,126.1201,186,122.1201" style="stroke: #A80036; stroke-width: 1.0;"/><line style="stroke: #A80036; stroke-width: 1.0;" x1="50" x2="188" y1="122.1201" y2="122.1201"/><text fill="#000000" font-family="sans-serif" font-size="13" lengthAdjust="spacingAndGlyphs" textLength="120" x="57" y="118.0181">createMapModeVSS</text><polygon fill="#A80036" points="61,149.8745,51,153.8745,61,157.8745,57,153.8745" style="stroke: #A80036; stroke-width: 1.0;"/><line style="stroke: #A80036; stroke-width: 1.0;" x1="55" x2="193" y1="153.8745" y2="153.8745"/><text fill="#000000" font-family="sans-serif" font-size="13" lengthAdjust="spacingAndGlyphs" textLength="70" x="67" y="149.7725">upload page</text><path d="M13,169.6289 L86,169.6289 L86,178.6289 L76,188.6289 L13,188.6289 L13,169.6289 " fill="#EEEEEE" style="stroke: #000000; stroke-width: 1.0;"/><rect fill="none" height="817.9517" style="stroke: #000000; stroke-width: 2.0;" width="546.5" x="13" y="169.6289"/><text fill="#000000" font-family="sans-serif" font-size="13" font-weight="bold" lengthAdjust="spacingAndGlyphs" textLength="28" x="28" y="185.5269">loop</text><text fill="#000000" font-family="sans-serif" font-size="11" font-weight="bold" lengthAdjust="spacingAndGlyphs" textLength="74" x="101" y="184.2349">[not finished]</text><path d="M23,196.4063 L84,196.4063 L84,205.4063 L74,215.4063 L23,215.4063 L23,196.4063 " fill="#EEEEEE" style="stroke: #000000; stroke-width: 1.0;"/><rect fill="none" height="784.1743" style="stroke: #000000; stroke-width: 2.0;" width="526.5" x="23" y="196.4063"/><text fill="#000000" font-family="sans-serif" font-size="13" font-weight="bold" lengthAdjust="spacingAndGlyphs" textLength="16" x="38" y="212.3042">alt</text><text fill="#000000" font-family="sans-serif" font-size="11" font-weight="bold" lengthAdjust="spacingAndGlyphs" textLength="28" x="99" y="211.0122">[add]</text><polygon fill="#A80036" points="182,235.1836,192,239.1836,182,243.1836,186,239.1836" style="stroke: #A80036; stroke-width: 1.0;"/><line style="stroke: #A80036; stroke-width: 1.0;" x1="50" x2="188" y1="239.1836" y2="239.1836"/><text fill="#000000" font-family="sans-serif" font-size="13" lengthAdjust="spacingAndGlyphs" textLength="52" x="57" y="235.0815">audio list</text><polygon fill="#A80036" points="293,266.938,303,270.938,293,274.938,297,270.938" style="stroke: #A80036; stroke-width: 1.0;"/><line style="stroke: #A80036; stroke-width: 1.0;" x1="194" x2="299" y1="270.938" y2="270.938"/><text fill="#000000" font-family="sans-serif" font-size="13" lengthAdjust="spacingAndGlyphs" textLength="52" x="201" y="266.8359">audio list</text><polygon fill="#A80036" points="404,298.6924,414,302.6924,404,306.6924,408,302.6924" style="stroke: #A80036; stroke-width: 1.0;"/><line style="stroke: #A80036; stroke-width: 1.0;" x1="305" x2="410" y1="302.6924" y2="302.6924"/><text fill="#000000" font-family="sans-serif" font-size="13" lengthAdjust="spacingAndGlyphs" textLength="52" x="312" y="298.5903">audio list</text><polygon fill="#A80036" points="487.5,330.4468,497.5,334.4468,487.5,338.4468,491.5,334.4468" style="stroke: #A80036; stroke-width: 1.0;"/><line style="stroke: #A80036; stroke-width: 1.0;" x1="416" x2="493.5" y1="334.4468" y2="334.4468"/><text fill="#000000" font-family="sans-serif" font-size="13" lengthAdjust="spacingAndGlyphs" textLength="36" x="423" y="330.3447">create</text><polygon fill="#A80036" points="61,362.2012,51,366.2012,61,370.2012,57,366.2012" style="stroke: #A80036; stroke-width: 1.0;"/><line style="stroke: #A80036; stroke-width: 1.0;" x1="55" x2="193" y1="366.2012" y2="366.2012"/><text fill="#000000" font-family="sans-serif" font-size="13" lengthAdjust="spacingAndGlyphs" textLength="49" x="67" y="362.0991">success</text><line style="stroke: #000000; stroke-width: 1.0; stroke-dasharray: 2.0,2.0;" x1="23" x2="549.5" y1="375.9556" y2="375.9556"/><text fill="#000000" font-family="sans-serif" font-size="11" font-weight="bold" lengthAdjust="spacingAndGlyphs" textLength="51" x="28" y="388.5615">[reorder]</text><polygon fill="#A80036" points="316,410.9785,306,414.9785,316,418.9785,312,414.9785" style="stroke: #A80036; stroke-width: 1.0;"/><line style="stroke: #A80036; stroke-width: 1.0;" x1="310" x2="415" y1="414.9785" y2="414.9785"/><text fill="#000000" font-family="sans-serif" font-size="13" lengthAdjust="spacingAndGlyphs" textLength="87" x="322" y="410.8765">existing audios</text><polygon fill="#A80036" points="205,442.7329,195,446.7329,205,450.7329,201,446.7329" style="stroke: #A80036; stroke-width: 1.0;"/><line style="stroke: #A80036; stroke-width: 1.0;" x1="199" x2="304" y1="446.7329" y2="446.7329"/><text fill="#000000" font-family="sans-serif" font-size="13" lengthAdjust="spacingAndGlyphs" textLength="87" x="211" y="442.6309">existing audios</text><polygon fill="#A80036" points="61,474.4873,51,478.4873,61,482.4873,57,478.4873" style="stroke: #A80036; stroke-width: 1.0;"/><line style="stroke: #A80036; stroke-width: 1.0;" x1="55" x2="193" y1="478.4873" y2="478.4873"/><text fill="#000000" font-family="sans-serif" font-size="13" lengthAdjust="spacingAndGlyphs" textLength="87" x="67" y="474.3853">existing audios</text><polygon fill="#A80036" points="182,506.2417,192,510.2417,182,514.2417,186,510.2417" style="stroke: #A80036; stroke-width: 1.0;"/><line style="stroke: #A80036; stroke-width: 1.0;" x1="50" x2="188" y1="510.2417" y2="510.2417"/><text fill="#000000" font-family="sans-serif" font-size="13" lengthAdjust="spacingAndGlyphs" textLength="75" x="57" y="506.1396">reordered list</text><polygon fill="#A80036" points="293,537.9961,303,541.9961,293,545.9961,297,541.9961" style="stroke: #A80036; stroke-width: 1.0;"/><line style="stroke: #A80036; stroke-width: 1.0;" x1="194" x2="299" y1="541.9961" y2="541.9961"/><text fill="#000000" font-family="sans-serif" font-size="13" lengthAdjust="spacingAndGlyphs" textLength="75" x="201" y="537.894">reordered list</text><polygon fill="#A80036" points="404,569.7505,414,573.7505,404,577.7505,408,573.7505" style="stroke: #A80036; stroke-width: 1.0;"/><line style="stroke: #A80036; stroke-width: 1.0;" x1="305" x2="410" y1="573.7505" y2="573.7505"/><text fill="#000000" font-family="sans-serif" font-size="13" lengthAdjust="spacingAndGlyphs" textLength="75" x="312" y="569.6484">reordered list</text><polygon fill="#A80036" points="487.5,601.5049,497.5,605.5049,487.5,609.5049,491.5,605.5049" style="stroke: #A80036; stroke-width: 1.0;"/><line style="stroke: #A80036; stroke-width: 1.0;" x1="416" x2="493.5" y1="605.5049" y2="605.5049"/><text fill="#000000" font-family="sans-serif" font-size="13" lengthAdjust="spacingAndGlyphs" textLength="40" x="423" y="601.4028">reorder</text><polygon fill="#A80036" points="61,633.2593,51,637.2593,61,641.2593,57,637.2593" style="stroke: #A80036; stroke-width: 1.0;"/><line style="stroke: #A80036; stroke-width: 1.0;" x1="55" x2="193" y1="637.2593" y2="637.2593"/><text fill="#000000" font-family="sans-serif" font-size="13" lengthAdjust="spacingAndGlyphs" textLength="49" x="67" y="633.1572">success</text><line style="stroke: #000000; stroke-width: 1.0; stroke-dasharray: 2.0,2.0;" x1="23" x2="549.5" y1="647.0137" y2="647.0137"/><text fill="#000000" font-family="sans-serif" font-size="11" font-weight="bold" lengthAdjust="spacingAndGlyphs" textLength="43" x="28" y="659.6196">[delete]</text><polygon fill="#A80036" points="293,682.0366,303,686.0366,293,690.0366,297,686.0366" style="stroke: #A80036; stroke-width: 1.0;"/><line style="stroke: #A80036; stroke-width: 1.0;" x1="194" x2="299" y1="686.0366" y2="686.0366"/><text fill="#000000" font-family="sans-serif" font-size="13" lengthAdjust="spacingAndGlyphs" textLength="35" x="201" y="681.9346">delete</text><polygon fill="#A80036" points="404,713.791,414,717.791,404,721.791,408,717.791" style="stroke: #A80036; stroke-width: 1.0;"/><line style="stroke: #A80036; stroke-width: 1.0;" x1="305" x2="410" y1="717.791" y2="717.791"/><text fill="#000000" font-family="sans-serif" font-size="13" lengthAdjust="spacingAndGlyphs" textLength="35" x="312" y="713.689">delete</text><polygon fill="#A80036" points="316,745.5454,306,749.5454,316,753.5454,312,749.5454" style="stroke: #A80036; stroke-width: 1.0;"/><line style="stroke: #A80036; stroke-width: 1.0;" x1="310" x2="415" y1="749.5454" y2="749.5454"/><text fill="#000000" font-family="sans-serif" font-size="13" lengthAdjust="spacingAndGlyphs" textLength="87" x="322" y="745.4434">existing audios</text><polygon fill="#A80036" points="205,777.2998,195,781.2998,205,785.2998,201,781.2998" style="stroke: #A80036; stroke-width: 1.0;"/><line style="stroke: #A80036; stroke-width: 1.0;" x1="199" x2="304" y1="781.2998" y2="781.2998"/><text fill="#000000" font-family="sans-serif" font-size="13" lengthAdjust="spacingAndGlyphs" textLength="87" x="211" y="777.1978">existing audios</text><polygon fill="#A80036" points="61,809.0542,51,813.0542,61,817.0542,57,813.0542" style="stroke: #A80036; stroke-width: 1.0;"/><line style="stroke: #A80036; stroke-width: 1.0;" x1="55" x2="193" y1="813.0542" y2="813.0542"/><text fill="#000000" font-family="sans-serif" font-size="13" lengthAdjust="spacingAndGlyphs" textLength="87" x="67" y="808.9521">existing audios</text><polygon fill="#A80036" points="182,840.8086,192,844.8086,182,848.8086,186,844.8086" style="stroke: #A80036; stroke-width: 1.0;"/><line style="stroke: #A80036; stroke-width: 1.0;" x1="50" x2="188" y1="844.8086" y2="844.8086"/><text fill="#000000" font-family="sans-serif" font-size="13" lengthAdjust="spacingAndGlyphs" textLength="77" x="57" y="840.7065">deleted audio</text><polygon fill="#A80036" points="293,872.563,303,876.563,293,880.563,297,876.563" style="stroke: #A80036; stroke-width: 1.0;"/><line style="stroke: #A80036; stroke-width: 1.0;" x1="194" x2="299" y1="876.563" y2="876.563"/><text fill="#000000" font-family="sans-serif" font-size="13" lengthAdjust="spacingAndGlyphs" textLength="77" x="201" y="872.4609">deleted audio</text><polygon fill="#A80036" points="404,904.3174,414,908.3174,404,912.3174,408,908.3174" style="stroke: #A80036; stroke-width: 1.0;"/><line style="stroke: #A80036; stroke-width: 1.0;" x1="305" x2="410" y1="908.3174" y2="908.3174"/><text fill="#000000" font-family="sans-serif" font-size="13" lengthAdjust="spacingAndGlyphs" textLength="77" x="312" y="904.2153">deleted audio</text><polygon fill="#A80036" points="487.5,936.0718,497.5,940.0718,487.5,944.0718,491.5,940.0718" style="stroke: #A80036; stroke-width: 1.0;"/><line style="stroke: #A80036; stroke-width: 1.0;" x1="416" x2="493.5" y1="940.0718" y2="940.0718"/><text fill="#000000" font-family="sans-serif" font-size="13" lengthAdjust="spacingAndGlyphs" textLength="35" x="423" y="935.9697">delete</text><polygon fill="#A80036" points="61,967.8262,51,971.8262,61,975.8262,57,971.8262" style="stroke: #A80036; stroke-width: 1.0;"/><line style="stroke: #A80036; stroke-width: 1.0;" x1="55" x2="193" y1="971.8262" y2="971.8262"/><text fill="#000000" font-family="sans-serif" font-size="13" lengthAdjust="spacingAndGlyphs" textLength="49" x="67" y="967.7241">success</text><polygon fill="#A80036" points="61,1013.5806,51,1017.5806,61,1021.5806,57,1017.5806" style="stroke: #A80036; stroke-width: 1.0;"/><line style="stroke: #A80036; stroke-width: 1.0;" x1="55" x2="193" y1="1017.5806" y2="1017.5806"/><text fill="#000000" font-family="sans-serif" font-size="13" lengthAdjust="spacingAndGlyphs" textLength="104" x="67" y="1013.4785">ManageLocalVSS</text><!--
@startuml
actor user
boundary interface
control mapManageControl
database Database
entity savedAudio

user -> interface: createMapModeVSS
interface -> user: upload page

loop not finished
    alt add
        user -> interface: audio list
        interface -> mapManageControl: audio list
        mapManageControl -> Database: audio list
        Database -> savedAudio: create
        interface -> user: success
    else reorder
        Database -> mapManageControl: existing audios
        mapManageControl -> interface: existing audios
        interface -> user: existing audios
        user -> interface: reordered list
        interface -> mapManageControl: reordered list
        mapManageControl -> Database: reordered list
        Database -> savedAudio: reorder
        interface -> user: success
    else delete
        interface -> mapManageControl: delete
        mapManageControl -> Database: delete
        Database -> mapManageControl: existing audios
        mapManageControl -> interface: existing audios
        interface -> user: existing audios
        user -> interface: deleted audio
        interface -> mapManageControl: deleted audio
        mapManageControl -> Database: deleted audio
        Database -> savedAudio: delete
        interface -> user: success
    end
end

interface -> user: ManageLocalVSS
@enduml

PlantUML version 1.2018.01(Mon Jan 29 02:08:22 CST 2018)
(GPL source distribution)
Java Runtime: Java(TM) SE Runtime Environment
JVM: Java HotSpot(TM) Client VM
Java Version: 1.8.0_144-b01
Operating System: Windows 10
OS Version: 10.0
Default Encoding: GBK
Language: zh
Country: CN
--></g></svg>