<?xml version="1.0" encoding="UTF-8" standalone="no"?><svg xmlns="http://www.w3.org/2000/svg" xmlns:xlink="http://www.w3.org/1999/xlink" contentScriptType="application/ecmascript" contentStyleType="text/css" height="1435px" preserveAspectRatio="none" style="width:2091px;height:1435px;" version="1.1" viewBox="0 0 2091 1435"
    width="2091px" zoomAndPan="magnify"><defs><filter height="300%" id="f3nci8iexcufw" width="300%" x="-1" y="-1"><feGaussianBlur result="blurOut" stdDeviation="2.0"/><feColorMatrix in="blurOut" result="blurOut2" type="matrix" values="0 0 0 0 0 0 0 0 0 0 0 0 0 0 0 0 0 0 .4 0"/><feOffset dx="4.0" dy="4.0" in="blurOut2" result="blurOut3"/><feBlend in="SourceGraphic" in2="blurOut3" mode="normal"/></filter></defs><g><rect fill="#FEFECE" filter="url(#f3nci8iexcufw)" height="30.4883" style="stroke: #A80036; stroke-width: 1.5;" width="150" x="485.5" y="155.1094"/><text fill="#000000" font-family="sans-serif" font-size="14" lengthAdjust="spacingAndGlyphs" text-decoration="underline" textLength="136" x="492.5" y="175.6445">:MapVSSCreatePage</text><line style="stroke: #000000; stroke-width: 1.0;" x1="492.5" x2="628.5" y1="177.6445" y2="177.6445"/><rect fill="#FEFECE" filter="url(#f3nci8iexcufw)" height="30.4883" style="stroke: #A80036; stroke-width: 1.5;" width="169" x="740" y="200.5977"/><text fill="#000000" font-family="sans-serif" font-size="14" lengthAdjust="spacingAndGlyphs" text-decoration="underline" textLength="155" x="747" y="221.1328">:MapVSSCreateControl</text><line style="stroke: #000000; stroke-width: 1.0;" x1="747" x2="902" y1="223.1328" y2="223.1328"/><rect fill="#FEFECE" filter="url(#f3nci8iexcufw)" height="30.4883" style="stroke: #A80036; stroke-width: 1.5;" width="326" x="1494.5" y="246.0859"/><text fill="#000000" font-family="sans-serif" font-size="14" lengthAdjust="spacingAndGlyphs" text-decoration="underline" textLength="312" x="1501.5" y="266.6211">newSoundSpace:MapModeVirtualSoundSpace</text><line style="stroke: #000000; stroke-width: 1.0;" x1="1501.5" x2="1813.5" y1="268.6211" y2="268.6211"/><rect fill="#FEFECE" filter="url(#f3nci8iexcufw)" height="30.4883" style="stroke: #A80036; stroke-width: 1.5;" width="65" x="1160.5" y="291.5742"/><text fill="#000000" font-family="sans-serif" font-size="14" lengthAdjust="spacingAndGlyphs" text-decoration="underline" textLength="51" x="1167.5" y="312.1094">:Sensor</text><line style="stroke: #000000; stroke-width: 1.0;" x1="1167.5" x2="1218.5" y1="314.1094" y2="314.1094"/><rect fill="#FFFFFF" filter="url(#f3nci8iexcufw)" height="1062.6465" style="stroke: #000000; stroke-width: 2.0;" width="2067.5" x="13" y="344.0625"/><rect fill="#FFFFFF" filter="url(#f3nci8iexcufw)" height="397.6367" style="stroke: #000000; stroke-width: 2.0;" width="1481.5" x="23" y="368.373"/><rect fill="#FFFFFF" filter="url(#f3nci8iexcufw)" height="75.9316" style="stroke: #000000; stroke-width: 2.0;" width="542" x="952.5" y="480.6152"/><rect fill="#FFFFFF" height="85.2207" style="stroke: none; stroke-width: 1.0;" width="1481.5" x="23" y="680.7891"/><rect fill="#FEFECE" filter="url(#f3nci8iexcufw)" height="30.4883" style="stroke: #A80036; stroke-width: 1.5;" width="109" x="1834.5" y="831.6309"/><text fill="#000000" font-family="sans-serif" font-size="14" lengthAdjust="spacingAndGlyphs" text-decoration="underline" textLength="95" x="1841.5" y="852.166">:SoundSource</text><line style="stroke: #000000; stroke-width: 1.0;" x1="1841.5" x2="1936.5" y1="854.166" y2="854.166"/><rect fill="#FFFFFF" filter="url(#f3nci8iexcufw)" height="75.9316" style="stroke: #000000; stroke-width: 2.0;" width="1934.5" x="23" y="942.7402"/><line style="stroke: #A80036; stroke-width: 1.0;" x1="51" x2="51" y1="86.4883" y2="725.0547"/><line style="stroke: #A80036; stroke-width: 1.0; stroke-dasharray: 1.0,4.0;" x1="51" x2="51" y1="725.0547" y2="766.0098"/><line style="stroke: #A80036; stroke-width: 1.0;" x1="51" x2="51" y1="766.0098" y2="1423.709"/><line style="stroke: #A80036; stroke-width: 1.0;" x1="195" x2="195" y1="86.4883" y2="725.0547"/><line style="stroke: #A80036; stroke-width: 1.0; stroke-dasharray: 1.0,4.0;" x1="195" x2="195" y1="725.0547" y2="766.0098"/><line style="stroke: #A80036; stroke-width: 1.0;" x1="195" x2="195" y1="766.0098" y2="1423.709"/><line style="stroke: #A80036; stroke-width: 1.0;" x1="383" x2="383" y1="86.4883" y2="725.0547"/><line style="stroke: #A80036; stroke-width: 1.0; stroke-dasharray: 1.0,4.0;" x1="383" x2="383" y1="725.0547" y2="766.0098"/><line style="stroke: #A80036; stroke-width: 1.0;" x1="383" x2="383" y1="766.0098" y2="1423.709"/><line style="stroke: #A80036; stroke-width: 1.0;" x1="562.5" x2="562.5" y1="187.8535" y2="725.0547"/><line style="stroke: #A80036; stroke-width: 1.0; stroke-dasharray: 1.0,4.0;" x1="562.5" x2="562.5" y1="725.0547" y2="766.0098"/><line style="stroke: #A80036; stroke-width: 1.0;" x1="562.5" x2="562.5" y1="766.0098" y2="1423.709"/><line style="stroke: #A80036; stroke-width: 1.0;" x1="826" x2="826" y1="233.3418" y2="725.0547"/><line style="stroke: #A80036; stroke-width: 1.0; stroke-dasharray: 1.0,4.0;" x1="826" x2="826" y1="725.0547" y2="766.0098"/><line style="stroke: #A80036; stroke-width: 1.0;" x1="826" x2="826" y1="766.0098" y2="1423.709"/><line style="stroke: #A80036; stroke-width: 1.0;" x1="1056.5" x2="1056.5" y1="86.4883" y2="725.0547"/><line style="stroke: #A80036; stroke-width: 1.0; stroke-dasharray: 1.0,4.0;" x1="1056.5" x2="1056.5" y1="725.0547" y2="766.0098"/><line style="stroke: #A80036; stroke-width: 1.0;" x1="1056.5" x2="1056.5" y1="766.0098" y2="1423.709"/><line style="stroke: #A80036; stroke-width: 1.0;" x1="1194.5" x2="1194.5" y1="324.3184" y2="725.0547"/><line style="stroke: #A80036; stroke-width: 1.0; stroke-dasharray: 1.0,4.0;" x1="1194.5" x2="1194.5" y1="725.0547" y2="766.0098"/><line style="stroke: #A80036; stroke-width: 1.0;" x1="1194.5" x2="1194.5" y1="766.0098" y2="1423.709"/><line style="stroke: #A80036; stroke-width: 1.0;" x1="1361.5" x2="1361.5" y1="86.4883" y2="725.0547"/><line style="stroke: #A80036; stroke-width: 1.0; stroke-dasharray: 1.0,4.0;" x1="1361.5" x2="1361.5" y1="725.0547" y2="766.0098"/><line style="stroke: #A80036; stroke-width: 1.0;" x1="1361.5" x2="1361.5" y1="766.0098" y2="1423.709"/><line style="stroke: #A80036; stroke-width: 1.0;" x1="1659.5" x2="1659.5" y1="278.8301" y2="725.0547"/><line style="stroke: #A80036; stroke-width: 1.0; stroke-dasharray: 1.0,4.0;" x1="1659.5" x2="1659.5" y1="725.0547" y2="766.0098"/><line style="stroke: #A80036; stroke-width: 1.0;" x1="1659.5" x2="1659.5" y1="766.0098" y2="1423.709"/><line style="stroke: #A80036; stroke-width: 1.0;" x1="1890.5" x2="1890.5" y1="864.375" y2="1423.709"/><line style="stroke: #A80036; stroke-width: 1.0;" x1="2013.5" x2="2013.5" y1="86.4883" y2="725.0547"/><line style="stroke: #A80036; stroke-width: 1.0; stroke-dasharray: 1.0,4.0;" x1="2013.5" x2="2013.5" y1="725.0547" y2="766.0098"/><line style="stroke: #A80036; stroke-width: 1.0;" x1="2013.5" x2="2013.5" y1="766.0098" y2="1423.709"/><text fill="#000000" font-family="sans-serif" font-size="14" lengthAdjust="spacingAndGlyphs" text-decoration="underline" textLength="31" x="33" y="83.5352">User</text><line style="stroke: #000000; stroke-width: 1.0;" x1="33" x2="64" y1="85.5352" y2="85.5352"/><ellipse cx="51.5" cy="13" fill="#FEFECE" filter="url(#f3nci8iexcufw)" rx="8" ry="8" style="stroke: #A80036; stroke-width: 2.0;"/><path d="M51.5,21 L51.5,48 M38.5,29 L64.5,29 M51.5,48 L38.5,63 M51.5,48 L64.5,63 " fill="none" filter="url(#f3nci8iexcufw)" style="stroke: #A80036; stroke-width: 2.0;"/><rect fill="#FEFECE" filter="url(#f3nci8iexcufw)" height="30.4883" style="stroke: #A80036; stroke-width: 1.5;" width="171" x="108" y="51"/><text fill="#000000" font-family="sans-serif" font-size="14" lengthAdjust="spacingAndGlyphs" text-decoration="underline" textLength="157" x="115" y="71.5352">:LocalVSSManagerPage</text><line style="stroke: #000000; stroke-width: 1.0;" x1="115" x2="272" y1="73.5352" y2="73.5352"/><rect fill="#FEFECE" filter="url(#f3nci8iexcufw)" height="30.4883" style="stroke: #A80036; stroke-width: 1.5;" width="177" x="293" y="51"/><text fill="#000000" font-family="sans-serif" font-size="14" lengthAdjust="spacingAndGlyphs" text-decoration="underline" textLength="163" x="300" y="71.5352">:LocalVSSLibraryControl</text><line style="stroke: #000000; stroke-width: 1.0;" x1="300" x2="463" y1="73.5352" y2="73.5352"/><rect fill="#FEFECE" filter="url(#f3nci8iexcufw)" height="30.4883" style="stroke: #A80036; stroke-width: 1.5;" width="184" x="962.5" y="51"/><text fill="#000000" font-family="sans-serif" font-size="14" lengthAdjust="spacingAndGlyphs" text-decoration="underline" textLength="170" x="969.5" y="71.5352">:LocalSoundSpaceLibrary</text><line style="stroke: #000000; stroke-width: 1.0;" x1="969.5" x2="1139.5" y1="73.5352" y2="73.5352"/><rect fill="#FEFECE" filter="url(#f3nci8iexcufw)" height="30.4883" style="stroke: #A80036; stroke-width: 1.5;" width="237" x="1243.5" y="47"/><rect fill="#FEFECE" filter="url(#f3nci8iexcufw)" height="30.4883" style="stroke: #A80036; stroke-width: 1.5;" width="237" x="1239.5" y="51"/><text fill="#000000" font-family="sans-serif" font-size="14" lengthAdjust="spacingAndGlyphs" text-decoration="underline" textLength="223" x="1246.5" y="71.5352">soundSpaces:VirtualSoundSpace</text><line style="stroke: #000000; stroke-width: 1.0;" x1="1246.5" x2="1469.5" y1="73.5352" y2="73.5352"/><rect fill="#FEFECE" filter="url(#f3nci8iexcufw)" height="30.4883" style="stroke: #A80036; stroke-width: 1.5;" width="109" x="1957.5" y="51"/><text fill="#000000" font-family="sans-serif" font-size="14" lengthAdjust="spacingAndGlyphs" text-decoration="underline" textLength="95" x="1964.5" y="71.5352">sensorcontrol</text><line style="stroke: #000000; stroke-width: 1.0;" x1="1964.5" x2="2059.5" y1="73.5352" y2="73.5352"/><polygon fill="#A80036" points="183.5,113.4883,193.5,117.4883,183.5,121.4883,187.5,117.4883" style="stroke: #A80036; stroke-width: 1.0;"/><line style="stroke: #A80036; stroke-width: 1.0;" x1="51.5" x2="189.5" y1="117.4883" y2="117.4883"/><text fill="#000000" font-family="sans-serif" font-size="13" lengthAdjust="spacingAndGlyphs" textLength="120" x="58.5" y="113.0566">createMapModeVSS</text><polygon fill="#A80036" points="371.5,142.7988,381.5,146.7988,371.5,150.7988,375.5,146.7988" style="stroke: #A80036; stroke-width: 1.0;"/><line style="stroke: #A80036; stroke-width: 1.0;" x1="195.5" x2="377.5" y1="146.7988" y2="146.7988"/><text fill="#000000" font-family="sans-serif" font-size="13" lengthAdjust="spacingAndGlyphs" textLength="120" x="202.5" y="142.3672">createMapModeVSS</text><polygon fill="#A80036" points="473.5,172.1094,483.5,176.1094,473.5,180.1094,477.5,176.1094" style="stroke: #A80036; stroke-width: 1.0;"/><line style="stroke: #A80036; stroke-width: 1.0;" x1="383.5" x2="479.5" y1="176.1094" y2="176.1094"/><text fill="#000000" font-family="sans-serif" font-size="13" lengthAdjust="spacingAndGlyphs" textLength="78" x="390.5" y="171.6777">&lt;&lt;create&gt;&gt;</text><rect fill="#FEFECE" filter="url(#f3nci8iexcufw)" height="30.4883" style="stroke: #A80036; stroke-width: 1.5;" width="150" x="485.5" y="155.1094"/><text fill="#000000" font-family="sans-serif" font-size="14" lengthAdjust="spacingAndGlyphs" text-decoration="underline" textLength="136" x="492.5" y="175.6445">:MapVSSCreatePage</text><line style="stroke: #000000; stroke-width: 1.0;" x1="492.5" x2="628.5" y1="177.6445" y2="177.6445"/><polygon fill="#A80036" points="728,217.5977,738,221.5977,728,225.5977,732,221.5977" style="stroke: #A80036; stroke-width: 1.0;"/><line style="stroke: #A80036; stroke-width: 1.0;" x1="562.5" x2="734" y1="221.5977" y2="221.5977"/><text fill="#000000" font-family="sans-serif" font-size="13" lengthAdjust="spacingAndGlyphs" textLength="78" x="569.5" y="217.166">&lt;&lt;create&gt;&gt;</text><rect fill="#FEFECE" filter="url(#f3nci8iexcufw)" height="30.4883" style="stroke: #A80036; stroke-width: 1.5;" width="169" x="740" y="200.5977"/><text fill="#000000" font-family="sans-serif" font-size="14" lengthAdjust="spacingAndGlyphs" text-decoration="underline" textLength="155" x="747" y="221.1328">:MapVSSCreateControl</text><line style="stroke: #000000; stroke-width: 1.0;" x1="747" x2="902" y1="223.1328" y2="223.1328"/><polygon fill="#A80036" points="1482.5,263.0859,1492.5,267.0859,1482.5,271.0859,1486.5,267.0859" style="stroke: #A80036; stroke-width: 1.0;"/><line style="stroke: #A80036; stroke-width: 1.0;" x1="826.5" x2="1488.5" y1="267.0859" y2="267.0859"/><text fill="#000000" font-family="sans-serif" font-size="13" lengthAdjust="spacingAndGlyphs" textLength="78" x="833.5" y="262.6543">&lt;&lt;create&gt;&gt;</text><rect fill="#FEFECE" filter="url(#f3nci8iexcufw)" height="30.4883" style="stroke: #A80036; stroke-width: 1.5;" width="326" x="1494.5" y="246.0859"/><text fill="#000000" font-family="sans-serif" font-size="14" lengthAdjust="spacingAndGlyphs" text-decoration="underline" textLength="312" x="1501.5" y="266.6211">newSoundSpace:MapModeVirtualSoundSpace</text><line style="stroke: #000000; stroke-width: 1.0;" x1="1501.5" x2="1813.5" y1="268.6211" y2="268.6211"/><polygon fill="#A80036" points="1148.5,308.5742,1158.5,312.5742,1148.5,316.5742,1152.5,312.5742" style="stroke: #A80036; stroke-width: 1.0;"/><line style="stroke: #A80036; stroke-width: 1.0;" x1="826.5" x2="1154.5" y1="312.5742" y2="312.5742"/><text fill="#000000" font-family="sans-serif" font-size="13" lengthAdjust="spacingAndGlyphs" textLength="78" x="833.5" y="308.1426">&lt;&lt;create&gt;&gt;</text><rect fill="#FEFECE" filter="url(#f3nci8iexcufw)" height="30.4883" style="stroke: #A80036; stroke-width: 1.5;" width="65" x="1160.5" y="291.5742"/><text fill="#000000" font-family="sans-serif" font-size="14" lengthAdjust="spacingAndGlyphs" text-decoration="underline" textLength="51" x="1167.5" y="312.1094">:Sensor</text><line style="stroke: #000000; stroke-width: 1.0;" x1="1167.5" x2="1218.5" y1="314.1094" y2="314.1094"/><path d="M13,344.0625 L87,344.0625 L87,351.0625 L77,361.0625 L13,361.0625 L13,344.0625 " fill="#EEEEEE" style="stroke: #000000; stroke-width: 1.0;"/><rect fill="none" height="1062.6465" style="stroke: #000000; stroke-width: 2.0;" width="2067.5" x="13" y="344.0625"/><text fill="#000000" font-family="sans-serif" font-size="13" font-weight="bold" lengthAdjust="spacingAndGlyphs" textLength="29" x="28" y="357.6309">loop</text><text fill="#000000" font-family="sans-serif" font-size="11" font-weight="bold" lengthAdjust="spacingAndGlyphs" textLength="144" x="102" y="356.6973">[add virual sound source]</text><path d="M23,368.373 L85,368.373 L85,375.373 L75,385.373 L23,385.373 L23,368.373 " fill="#EEEEEE" style="stroke: #000000; stroke-width: 1.0;"/><rect fill="none" height="397.6367" style="stroke: #000000; stroke-width: 2.0;" width="1481.5" x="23" y="368.373"/><text fill="#000000" font-family="sans-serif" font-size="13" font-weight="bold" lengthAdjust="spacingAndGlyphs" textLength="17" x="38" y="381.9414">alt</text><text fill="#000000" font-family="sans-serif" font-size="11" font-weight="bold" lengthAdjust="spacingAndGlyphs" textLength="101" x="100" y="381.0078">[add from library]</text><polygon fill="#A80036" points="550.5,402.6836,560.5,406.6836,550.5,410.6836,554.5,406.6836" style="stroke: #A80036; stroke-width: 1.0;"/><line style="stroke: #A80036; stroke-width: 1.0;" x1="51.5" x2="556.5" y1="406.6836" y2="406.6836"/><text fill="#000000" font-family="sans-serif" font-size="13" lengthAdjust="spacingAndGlyphs" textLength="164" x="58.5" y="402.252">selectExistedSoundSource</text><polygon fill="#A80036" points="814.5,431.9941,824.5,435.9941,814.5,439.9941,818.5,435.9941" style="stroke: #A80036; stroke-width: 1.0;"/><line style="stroke: #A80036; stroke-width: 1.0;" x1="562.5" x2="820.5" y1="435.9941" y2="435.9941"/><text fill="#000000" font-family="sans-serif" font-size="13" lengthAdjust="spacingAndGlyphs" textLength="158" x="569.5" y="431.5625">getLocalSoundFragments</text><polygon fill="#A80036" points="1044.5,461.3047,1054.5,465.3047,1044.5,469.3047,1048.5,465.3047" style="stroke: #A80036; stroke-width: 1.0;"/><line style="stroke: #A80036; stroke-width: 1.0;" x1="826.5" x2="1050.5" y1="465.3047" y2="465.3047"/><text fill="#000000" font-family="sans-serif" font-size="13" lengthAdjust="spacingAndGlyphs" textLength="158" x="833.5" y="460.873">getLocalSoundFragments</text><path d="M952.5,480.6152 L1026.5,480.6152 L1026.5,487.6152 L1016.5,497.6152 L952.5,497.6152 L952.5,480.6152 " fill="#EEEEEE" style="stroke: #000000; stroke-width: 1.0;"/><rect fill="none" height="75.9316" style="stroke: #000000; stroke-width: 2.0;" width="542" x="952.5" y="480.6152"/><text fill="#000000" font-family="sans-serif" font-size="13" font-weight="bold" lengthAdjust="spacingAndGlyphs" textLength="29" x="967.5" y="494.1836">loop</text><text fill="#000000" font-family="sans-serif" font-size="11" font-weight="bold" lengthAdjust="spacingAndGlyphs" textLength="54" x="1041.5" y="493.25">[for each]</text><polygon fill="#A80036" points="1350,514.9258,1360,518.9258,1350,522.9258,1354,518.9258" style="stroke: #A80036; stroke-width: 1.0;"/><line style="stroke: #A80036; stroke-width: 1.0;" x1="1056.5" x2="1356" y1="518.9258" y2="518.9258"/><text fill="#000000" font-family="sans-serif" font-size="13" lengthAdjust="spacingAndGlyphs" textLength="108" x="1063.5" y="514.4941">getSoundSources</text><polygon fill="#A80036" points="1067.5,544.2363,1057.5,548.2363,1067.5,552.2363,1063.5,548.2363" style="stroke: #A80036; stroke-width: 1.0;"/><line style="stroke: #A80036; stroke-width: 1.0; stroke-dasharray: 2.0,2.0;" x1="1061.5" x2="1361" y1="548.2363" y2="548.2363"/><text fill="#000000" font-family="sans-serif" font-size="13" lengthAdjust="spacingAndGlyphs" textLength="88" x="1073.5" y="543.8047">soundSources</text><polygon fill="#A80036" points="837.5,580.5469,827.5,584.5469,837.5,588.5469,833.5,584.5469" style="stroke: #A80036; stroke-width: 1.0;"/><line style="stroke: #A80036; stroke-width: 1.0; stroke-dasharray: 2.0,2.0;" x1="831.5" x2="1055.5" y1="584.5469" y2="584.5469"/><text fill="#000000" font-family="sans-serif" font-size="13" lengthAdjust="spacingAndGlyphs" textLength="150" x="843.5" y="580.1152">filteredSoundFragments</text><polygon fill="#A80036" points="573.5,609.8574,563.5,613.8574,573.5,617.8574,569.5,613.8574" style="stroke: #A80036; stroke-width: 1.0;"/><line style="stroke: #A80036; stroke-width: 1.0; stroke-dasharray: 2.0,2.0;" x1="567.5" x2="825.5" y1="613.8574" y2="613.8574"/><text fill="#000000" font-family="sans-serif" font-size="13" lengthAdjust="spacingAndGlyphs" textLength="240" x="579.5" y="609.4258">displayAvailableLocalSoundFragments</text><polygon fill="#A80036" points="550.5,639.168,560.5,643.168,550.5,647.168,554.5,643.168" style="stroke: #A80036; stroke-width: 1.0;"/><line style="stroke: #A80036; stroke-width: 1.0;" x1="51.5" x2="556.5" y1="643.168" y2="643.168"/><text fill="#000000" font-family="sans-serif" font-size="13" lengthAdjust="spacingAndGlyphs" textLength="135" x="58.5" y="638.7363">selectSoundFragment</text><polygon fill="#A80036" points="814.5,668.4785,824.5,672.4785,814.5,676.4785,818.5,672.4785" style="stroke: #A80036; stroke-width: 1.0;"/><line style="stroke: #A80036; stroke-width: 1.0;" x1="562.5" x2="820.5" y1="672.4785" y2="672.4785"/><text fill="#000000" font-family="sans-serif" font-size="13" lengthAdjust="spacingAndGlyphs" textLength="121" x="569.5" y="668.0469">addSoundFragment</text><line style="stroke: #000000; stroke-width: 1.0; stroke-dasharray: 2.0,2.0;" x1="23" x2="1504.5" y1="681.7891" y2="681.7891"/><text fill="#000000" font-family="sans-serif" font-size="11" font-weight="bold" lengthAdjust="spacingAndGlyphs" textLength="83" x="28" y="692.4238">[add from file]</text><polygon fill="#A80036" points="550.5,712.7441,560.5,716.7441,550.5,720.7441,554.5,716.7441" style="stroke: #A80036; stroke-width: 1.0;"/><line style="stroke: #A80036; stroke-width: 1.0;" x1="51.5" x2="556.5" y1="716.7441" y2="716.7441"/><text fill="#000000" font-family="sans-serif" font-size="13" lengthAdjust="spacingAndGlyphs" textLength="136" x="58.5" y="712.3125">selectFromFileSystem</text><text fill="#000000" font-family="sans-serif" font-size="11" lengthAdjust="spacingAndGlyphs" textLength="500" x="782.75" y="749.6895">somehow MapVSSCreateControl got the new SoundFragment # specify during implementation</text><polygon fill="#A80036" points="1183,790.0098,1193,794.0098,1183,798.0098,1187,794.0098" style="stroke: #A80036; stroke-width: 1.0;"/><line style="stroke: #A80036; stroke-width: 1.0;" x1="826.5" x2="1189" y1="794.0098" y2="794.0098"/><text fill="#000000" font-family="sans-serif" font-size="13" lengthAdjust="spacingAndGlyphs" textLength="121" x="833.5" y="789.5781">getCurrentLocation</text><polygon fill="#A80036" points="837.5,819.3203,827.5,823.3203,837.5,827.3203,833.5,823.3203" style="stroke: #A80036; stroke-width: 1.0;"/><line style="stroke: #A80036; stroke-width: 1.0; stroke-dasharray: 2.0,2.0;" x1="831.5" x2="1194" y1="823.3203" y2="823.3203"/><text fill="#000000" font-family="sans-serif" font-size="13" lengthAdjust="spacingAndGlyphs" textLength="99" x="843.5" y="818.8887">currentLocation</text><polygon fill="#A80036" points="1822.5,848.6309,1832.5,852.6309,1822.5,856.6309,1826.5,852.6309" style="stroke: #A80036; stroke-width: 1.0;"/><line style="stroke: #A80036; stroke-width: 1.0;" x1="826.5" x2="1828.5" y1="852.6309" y2="852.6309"/><text fill="#000000" font-family="sans-serif" font-size="13" lengthAdjust="spacingAndGlyphs" textLength="78" x="833.5" y="848.1992">&lt;&lt;create&gt;&gt;</text><rect fill="#FEFECE" filter="url(#f3nci8iexcufw)" height="30.4883" style="stroke: #A80036; stroke-width: 1.5;" width="109" x="1834.5" y="831.6309"/><text fill="#000000" font-family="sans-serif" font-size="14" lengthAdjust="spacingAndGlyphs" text-decoration="underline" textLength="95" x="1841.5" y="852.166">:SoundSource</text><line style="stroke: #000000; stroke-width: 1.0;" x1="1841.5" x2="1936.5" y1="854.166" y2="854.166"/><polygon fill="#A80036" points="1879,894.1191,1889,898.1191,1879,902.1191,1883,898.1191" style="stroke: #A80036; stroke-width: 1.0;"/><line style="stroke: #A80036; stroke-width: 1.0;" x1="826.5" x2="1885" y1="898.1191" y2="898.1191"/><text fill="#000000" font-family="sans-serif" font-size="13" lengthAdjust="spacingAndGlyphs" textLength="117" x="833.5" y="893.6875">setSoundFragment</text><polygon fill="#A80036" points="1879,923.4297,1889,927.4297,1879,931.4297,1883,927.4297" style="stroke: #A80036; stroke-width: 1.0;"/><line style="stroke: #A80036; stroke-width: 1.0;" x1="826.5" x2="1885" y1="927.4297" y2="927.4297"/><text fill="#000000" font-family="sans-serif" font-size="13" lengthAdjust="spacingAndGlyphs" textLength="73" x="833.5" y="922.998">setLocation</text><path d="M23,942.7402 L85,942.7402 L85,949.7402 L75,959.7402 L23,959.7402 L23,942.7402 " fill="#EEEEEE" style="stroke: #000000; stroke-width: 1.0;"/><rect fill="none" height="75.9316" style="stroke: #000000; stroke-width: 2.0;" width="1934.5" x="23" y="942.7402"/><text fill="#000000" font-family="sans-serif" font-size="13" font-weight="bold" lengthAdjust="spacingAndGlyphs" textLength="17" x="38" y="956.3086">alt</text><text fill="#000000" font-family="sans-serif" font-size="11" font-weight="bold" lengthAdjust="spacingAndGlyphs" textLength="169" x="100" y="955.375">[user choose to alter position]</text><polygon fill="#A80036" points="550.5,977.0508,560.5,981.0508,550.5,985.0508,554.5,981.0508" style="stroke: #A80036; stroke-width: 1.0;"/><line style="stroke: #A80036; stroke-width: 1.0;" x1="51.5" x2="556.5" y1="981.0508" y2="981.0508"/><text fill="#000000" font-family="sans-serif" font-size="13" lengthAdjust="spacingAndGlyphs" textLength="201" x="58.5" y="976.6191">setCurrentSoundSourceLocation</text><polygon fill="#A80036" points="1879,1006.3613,1889,1010.3613,1879,1014.3613,1883,1010.3613" style="stroke: #A80036; stroke-width: 1.0;"/><line style="stroke: #A80036; stroke-width: 1.0;" x1="562.5" x2="1885" y1="1010.3613" y2="1010.3613"/><text fill="#000000" font-family="sans-serif" font-size="13" lengthAdjust="spacingAndGlyphs" textLength="73" x="569.5" y="1005.9297">setLocation</text><polygon fill="#A80036" points="550.5,1042.6719,560.5,1046.6719,550.5,1050.6719,554.5,1046.6719" style="stroke: #A80036; stroke-width: 1.0;"/><line style="stroke: #A80036; stroke-width: 1.0;" x1="51.5" x2="556.5" y1="1046.6719" y2="1046.6719"/><text fill="#000000" font-family="sans-serif" font-size="13" lengthAdjust="spacingAndGlyphs" textLength="134" x="58.5" y="1042.2402">setSoundSourceMode</text><polygon fill="#A80036" points="814.5,1071.9824,824.5,1075.9824,814.5,1079.9824,818.5,1075.9824" style="stroke: #A80036; stroke-width: 1.0;"/><line style="stroke: #A80036; stroke-width: 1.0;" x1="562.5" x2="820.5" y1="1075.9824" y2="1075.9824"/><text fill="#000000" font-family="sans-serif" font-size="13" lengthAdjust="spacingAndGlyphs" textLength="134" x="569.5" y="1071.5508">setSoundSourceMode</text><polygon fill="#A80036" points="1879,1101.293,1889,1105.293,1879,1109.293,1883,1105.293" style="stroke: #A80036; stroke-width: 1.0;"/><line style="stroke: #A80036; stroke-width: 1.0;" x1="826.5" x2="1885" y1="1105.293" y2="1105.293"/><text fill="#000000" font-family="sans-serif" font-size="13" lengthAdjust="spacingAndGlyphs" textLength="134" x="833.5" y="1100.8613">setSoundSourceMode</text><polygon fill="#A80036" points="1647.5,1130.6035,1657.5,1134.6035,1647.5,1138.6035,1651.5,1134.6035" style="stroke: #A80036; stroke-width: 1.0;"/><line style="stroke: #A80036; stroke-width: 1.0;" x1="826.5" x2="1653.5" y1="1134.6035" y2="1134.6035"/><text fill="#000000" font-family="sans-serif" font-size="13" lengthAdjust="spacingAndGlyphs" textLength="193" x="833.5" y="1130.1719">addSoundSource(soundSource)</text><polygon fill="#A80036" points="550.5,1159.9141,560.5,1163.9141,550.5,1167.9141,554.5,1163.9141" style="stroke: #A80036; stroke-width: 1.0;"/><line style="stroke: #A80036; stroke-width: 1.0;" x1="51.5" x2="556.5" y1="1163.9141" y2="1163.9141"/><text fill="#000000" font-family="sans-serif" font-size="13" lengthAdjust="spacingAndGlyphs" textLength="175" x="58.5" y="1159.4824">setVSSNameAndDescription</text><polygon fill="#A80036" points="814.5,1189.2246,824.5,1193.2246,814.5,1197.2246,818.5,1193.2246" style="stroke: #A80036; stroke-width: 1.0;"/><line style="stroke: #A80036; stroke-width: 1.0;" x1="562.5" x2="820.5" y1="1193.2246" y2="1193.2246"/><text fill="#000000" font-family="sans-serif" font-size="13" lengthAdjust="spacingAndGlyphs" textLength="175" x="569.5" y="1188.793">setVSSNameAndDescription</text><polygon fill="#A80036" points="1647.5,1218.5352,1657.5,1222.5352,1647.5,1226.5352,1651.5,1222.5352" style="stroke: #A80036; stroke-width: 1.0;"/><line style="stroke: #A80036; stroke-width: 1.0;" x1="826.5" x2="1653.5" y1="1222.5352" y2="1222.5352"/><text fill="#000000" font-family="sans-serif" font-size="13" lengthAdjust="spacingAndGlyphs" textLength="175" x="833.5" y="1218.1035">setVSSNameAndDescription</text><polygon fill="#A80036" points="550.5,1247.8457,560.5,1251.8457,550.5,1255.8457,554.5,1251.8457" style="stroke: #A80036; stroke-width: 1.0;"/><line style="stroke: #A80036; stroke-width: 1.0;" x1="51.5" x2="556.5" y1="1251.8457" y2="1251.8457"/><text fill="#000000" font-family="sans-serif" font-size="13" lengthAdjust="spacingAndGlyphs" textLength="128" x="58.5" y="1247.4141">comfirmVSSCreation</text><polygon fill="#A80036" points="814.5,1277.1563,824.5,1281.1563,814.5,1285.1563,818.5,1281.1563" style="stroke: #A80036; stroke-width: 1.0;"/><line style="stroke: #A80036; stroke-width: 1.0;" x1="562.5" x2="820.5" y1="1281.1563" y2="1281.1563"/><text fill="#000000" font-family="sans-serif" font-size="13" lengthAdjust="spacingAndGlyphs" textLength="128" x="569.5" y="1276.7246">comfirmVSSCreation</text><polygon fill="#A80036" points="1044.5,1306.4668,1054.5,1310.4668,1044.5,1314.4668,1048.5,1310.4668" style="stroke: #A80036; stroke-width: 1.0;"/><line style="stroke: #A80036; stroke-width: 1.0;" x1="826.5" x2="1050.5" y1="1310.4668" y2="1310.4668"/><text fill="#000000" font-family="sans-serif" font-size="13" lengthAdjust="spacingAndGlyphs" textLength="206" x="833.5" y="1306.0352">addSoundSpace(newSoundSpace)</text><polygon fill="#A80036" points="2002,1335.7773,2012,1339.7773,2002,1343.7773,2006,1339.7773" style="stroke: #A80036; stroke-width: 1.0;"/><line style="stroke: #A80036; stroke-width: 1.0;" x1="826.5" x2="2008" y1="1339.7773" y2="1339.7773"/><text fill="#000000" font-family="sans-serif" font-size="13" lengthAdjust="spacingAndGlyphs" textLength="87" x="833.5" y="1335.3457">&lt;&lt;destroy&gt;&gt;</text><polygon fill="#A80036" points="1206,1365.0879,1196,1369.0879,1206,1373.0879,1202,1369.0879" style="stroke: #A80036; stroke-width: 1.0;"/><line style="stroke: #A80036; stroke-width: 1.0;" x1="1200" x2="2013" y1="1369.0879" y2="1369.0879"/><text fill="#000000" font-family="sans-serif" font-size="13" lengthAdjust="spacingAndGlyphs" textLength="87" x="1212" y="1364.6563">&lt;&lt;destroy&gt;&gt;</text><line style="stroke: #A80036; stroke-width: 2.0;" x1="2005" x2="2023" y1="1360.0879" y2="1378.0879"/><line style="stroke: #A80036; stroke-width: 2.0;" x1="2005" x2="2023" y1="1378.0879" y2="1360.0879"/><line style="stroke: #A80036; stroke-width: 2.0;" x1="1186" x2="1204" y1="1360.0879" y2="1378.0879"/><line style="stroke: #A80036; stroke-width: 2.0;" x1="1186" x2="1204" y1="1378.0879" y2="1360.0879"/><polygon fill="#A80036" points="573.5,1394.3984,563.5,1398.3984,573.5,1402.3984,569.5,1398.3984" style="stroke: #A80036; stroke-width: 1.0;"/><line style="stroke: #A80036; stroke-width: 1.0;" x1="567.5" x2="825.5" y1="1398.3984" y2="1398.3984"/><text fill="#000000" font-family="sans-serif" font-size="13" lengthAdjust="spacingAndGlyphs" textLength="87" x="579.5" y="1393.9668">&lt;&lt;destroy&gt;&gt;</text><line style="stroke: #A80036; stroke-width: 2.0;" x1="553.5" x2="571.5" y1="1389.3984" y2="1407.3984"/><line style="stroke: #A80036; stroke-width: 2.0;" x1="553.5" x2="571.5" y1="1407.3984" y2="1389.3984"/><line style="stroke: #A80036; stroke-width: 2.0;" x1="817.5" x2="835.5" y1="1389.3984" y2="1407.3984"/><line style="stroke: #A80036; stroke-width: 2.0;" x1="817.5" x2="835.5" y1="1407.3984" y2="1389.3984"/><!--
@startuml CreateMapModeVSS
hide footbox
skinparam sequenceParticipant underline


actor User as user
participant ":LocalVSSManagerPage" as boundary
participant ":LocalVSSLibraryControl" as control
participant ":MapVSSCreatePage" as createboundary
participant ":MapVSSCreateControl" as createcontrol
participant ":LocalSoundSpaceLibrary" as library
participant ":Sensor" as sensor
collections "soundSpaces:VirtualSoundSpace" as vsses
participant "newSoundSpace:MapModeVirtualSoundSpace" as newspace



user -> boundary: createMapModeVSS
boundary -> control: createMapModeVSS
create createboundary
control -> createboundary: <<create>>
create createcontrol
createboundary -> createcontrol: <<create>>
create newspace
createcontrol -> newspace: <<create>>
create sensor
createcontrol -> sensor: <<create>>
loop add virual sound source
    alt add from library
        user -> createboundary: selectExistedSoundSource
        createboundary -> createcontrol: getLocalSoundFragments
        createcontrol -> library: getLocalSoundFragments
        loop for each
            library -> vsses: getSoundSources
            vsses - -> library: soundSources
        end
        library - -> createcontrol: filteredSoundFragments
        createcontrol - -> createboundary: displayAvailableLocalSoundFragments
        user -> createboundary: selectSoundFragment
        createboundary -> createcontrol: addSoundFragment
    else add from file
        user -> createboundary: selectFromFileSystem
        ...somehow MapVSSCreateControl got the new SoundFragment # specify during implementation...

    end

    createcontrol -> sensor: getCurrentLocation
    sensor - -> createcontrol: currentLocation

    participant ":SoundSource" as source
    create source
    createcontrol -> source: <<create>>
    createcontrol -> source: setSoundFragment
    createcontrol -> source: setLocation

    alt user choose to alter position
        user -> createboundary: setCurrentSoundSourceLocation
        createboundary -> source: setLocation
    end
    user -> createboundary: setSoundSourceMode
    createboundary -> createcontrol: setSoundSourceMode
    createcontrol -> source: setSoundSourceMode
    createcontrol -> newspace: addSoundSource(soundSource)
    user -> createboundary: setVSSNameAndDescription
    createboundary -> createcontrol: setVSSNameAndDescription
    createcontrol -> newspace: setVSSNameAndDescription
    user -> createboundary: comfirmVSSCreation
    createboundary -> createcontrol: comfirmVSSCreation
    createcontrol -> library: addSoundSpace(newSoundSpace)
    createcontrol -> sensorcontrol: <<destroy>>
    sensorcontrol -> sensor: <<destroy>>
    destroy sensorcontrol
    destroy sensor
    createcontrol -> createboundary: <<destroy>>
    destroy createboundary
    destroy createcontrol


end
@enduml

PlantUML version 1.2018.01(Mon Jan 29 02:08:22 CST 2018)
(GPL source distribution)
Java Runtime: Java(TM) SE Runtime Environment
JVM: Java HotSpot(TM) 64-Bit Server VM
Java Version: 9+181
Operating System: Mac OS X
OS Version: 10.12.6
Default Encoding: UTF-8
Language: zh
Country: CN
--></g></svg>