<?xml version="1.0" encoding="UTF-8" standalone="no"?><svg xmlns="http://www.w3.org/2000/svg" xmlns:xlink="http://www.w3.org/1999/xlink" contentScriptType="application/ecmascript" contentStyleType="text/css" height="918px" preserveAspectRatio="none" style="width:629px;height:918px;" version="1.1" viewBox="0 0 629 918"
    width="629px" zoomAndPan="magnify"><defs><filter height="300%" id="f1uenxss1nq3zf" width="300%" x="-1" y="-1"><feGaussianBlur result="blurOut" stdDeviation="2.0"/><feColorMatrix in="blurOut" result="blurOut2" type="matrix" values="0 0 0 0 0 0 0 0 0 0 0 0 0 0 0 0 0 0 .4 0"/><feOffset dx="4.0" dy="4.0" in="blurOut2" result="blurOut3"/><feBlend in="SourceGraphic" in2="blurOut3" mode="normal"/></filter></defs><g><rect fill="#FFFFFF" filter="url(#f1uenxss1nq3zf)" height="546.8936" style="stroke: #000000; stroke-width: 2.0;" width="605.5" x="13" y="233.1377"/><rect fill="#FFFFFF" filter="url(#f1uenxss1nq3zf)" height="513.1162" style="stroke: #000000; stroke-width: 2.0;" width="585.5" x="23" y="259.915"/><rect fill="#FFFFFF" height="334.5669" style="stroke: none; stroke-width: 1.0;" width="585.5" x="23" y="438.4644"/><line style="stroke: #A80036; stroke-width: 1.0; stroke-dasharray: 5.0,5.0;" x1="50" x2="50" y1="89.1201" y2="828.7856"/><line style="stroke: #A80036; stroke-width: 1.0; stroke-dasharray: 5.0,5.0;" x1="193.5" x2="193.5" y1="89.1201" y2="828.7856"/><line style="stroke: #A80036; stroke-width: 1.0; stroke-dasharray: 5.0,5.0;" x1="305" x2="305" y1="89.1201" y2="828.7856"/><line style="stroke: #A80036; stroke-width: 1.0; stroke-dasharray: 5.0,5.0;" x1="415.5" x2="415.5" y1="89.1201" y2="828.7856"/><line style="stroke: #A80036; stroke-width: 1.0; stroke-dasharray: 5.0,5.0;" x1="483.5" x2="483.5" y1="89.1201" y2="828.7856"/><line style="stroke: #A80036; stroke-width: 1.0; stroke-dasharray: 5.0,5.0;" x1="558.5" x2="558.5" y1="89.1201" y2="828.7856"/><text fill="#000000" font-family="sans-serif" font-size="14" lengthAdjust="spacingAndGlyphs" textLength="28" x="33" y="86.0439">user</text><ellipse cx="50" cy="13" fill="#FEFECE" filter="url(#f1uenxss1nq3zf)" rx="8" ry="8" style="stroke: #A80036; stroke-width: 2.0;"/><path d="M50,21 L50,48 M37,29 L63,29 M50,48 L37,63 M50,48 L63,63 " fill="none" filter="url(#f1uenxss1nq3zf)" style="stroke: #A80036; stroke-width: 2.0;"/><text fill="#000000" font-family="sans-serif" font-size="14" lengthAdjust="spacingAndGlyphs" textLength="28" x="33" y="843.8296">user</text><ellipse cx="50" cy="856.9058" fill="#FEFECE" filter="url(#f1uenxss1nq3zf)" rx="8" ry="8" style="stroke: #A80036; stroke-width: 2.0;"/><path d="M50,864.9058 L50,891.9058 M37,872.9058 L63,872.9058 M50,891.9058 L37,906.9058 M50,891.9058 L63,906.9058 " fill="none" filter="url(#f1uenxss1nq3zf)" style="stroke: #A80036; stroke-width: 2.0;"/><text fill="#000000" font-family="sans-serif" font-size="14" lengthAdjust="spacingAndGlyphs" textLength="55" x="163.5" y="86.0439">interface</text><path d="M173.5,42 L173.5,66 M173.5,54 L190.5,54 " fill="none" filter="url(#f1uenxss1nq3zf)" style="stroke: #A80036; stroke-width: 2.0;"/><ellipse cx="202.5" cy="54" fill="#FEFECE" filter="url(#f1uenxss1nq3zf)" rx="12" ry="12" style="stroke: #A80036; stroke-width: 2.0;"/><text fill="#000000" font-family="sans-serif" font-size="14" lengthAdjust="spacingAndGlyphs" textLength="55" x="163.5" y="843.8296">interface</text><path d="M173.5,850.9058 L173.5,874.9058 M173.5,862.9058 L190.5,862.9058 " fill="none" filter="url(#f1uenxss1nq3zf)" style="stroke: #A80036; stroke-width: 2.0;"/><ellipse cx="202.5" cy="862.9058" fill="#FEFECE" filter="url(#f1uenxss1nq3zf)" rx="12" ry="12" style="stroke: #A80036; stroke-width: 2.0;"/><text fill="#000000" font-family="sans-serif" font-size="14" lengthAdjust="spacingAndGlyphs" textLength="124" x="240" y="86.0439">mapManageControl</text><ellipse cx="305" cy="54" fill="#FEFECE" filter="url(#f1uenxss1nq3zf)" rx="12" ry="12" style="stroke: #A80036; stroke-width: 2.0;"/><polygon fill="#A80036" points="301,42,307,37,305,42,307,47,301,42" style="stroke: #A80036; stroke-width: 1.0;"/><text fill="#000000" font-family="sans-serif" font-size="14" lengthAdjust="spacingAndGlyphs" textLength="124" x="240" y="843.8296">mapManageControl</text><ellipse cx="305" cy="862.9058" fill="#FEFECE" filter="url(#f1uenxss1nq3zf)" rx="12" ry="12" style="stroke: #A80036; stroke-width: 2.0;"/><polygon fill="#A80036" points="301,850.9058,307,845.9058,305,850.9058,307,855.9058,301,850.9058" style="stroke: #A80036; stroke-width: 1.0;"/><text fill="#000000" font-family="sans-serif" font-size="14" lengthAdjust="spacingAndGlyphs" textLength="61" x="382.5" y="86.0439">Database</text><path d="M398,34 C398,24 416,24 416,24 C416,24 434,24 434,34 L434,60 C434,70 416,70 416,70 C416,70 398,70 398,60 L398,34 " fill="#FEFECE" filter="url(#f1uenxss1nq3zf)" style="stroke: #000000; stroke-width: 1.5;"/><path d="M398,34 C398,44 416,44 416,44 C416,44 434,44 434,34 " fill="none" style="stroke: #000000; stroke-width: 1.5;"/><text fill="#000000" font-family="sans-serif" font-size="14" lengthAdjust="spacingAndGlyphs" textLength="61" x="382.5" y="843.8296">Database</text><path d="M398,856.9058 C398,846.9058 416,846.9058 416,846.9058 C416,846.9058 434,846.9058 434,856.9058 L434,882.9058 C434,892.9058 416,892.9058 416,892.9058 C416,892.9058 398,892.9058 398,882.9058 L398,856.9058 " fill="#FEFECE" filter="url(#f1uenxss1nq3zf)" style="stroke: #000000; stroke-width: 1.5;"/><path d="M398,856.9058 C398,866.9058 416,866.9058 416,866.9058 C416,866.9058 434,866.9058 434,856.9058 " fill="none" style="stroke: #000000; stroke-width: 1.5;"/><text fill="#000000" font-family="sans-serif" font-size="14" lengthAdjust="spacingAndGlyphs" textLength="43" x="459.5" y="86.0439">sensor</text><ellipse cx="484" cy="54" fill="#FEFECE" filter="url(#f1uenxss1nq3zf)" rx="12" ry="12" style="stroke: #A80036; stroke-width: 2.0;"/><line style="stroke: #A80036; stroke-width: 2.0;" x1="472" x2="496" y1="68" y2="68"/><text fill="#000000" font-family="sans-serif" font-size="14" lengthAdjust="spacingAndGlyphs" textLength="43" x="459.5" y="843.8296">sensor</text><ellipse cx="484" cy="862.9058" fill="#FEFECE" filter="url(#f1uenxss1nq3zf)" rx="12" ry="12" style="stroke: #A80036; stroke-width: 2.0;"/><line style="stroke: #A80036; stroke-width: 2.0;" x1="472" x2="496" y1="876.9058" y2="876.9058"/><text fill="#000000" font-family="sans-serif" font-size="14" lengthAdjust="spacingAndGlyphs" textLength="74" x="518.5" y="86.0439">savedAudio</text><ellipse cx="558.5" cy="54" fill="#FEFECE" filter="url(#f1uenxss1nq3zf)" rx="12" ry="12" style="stroke: #A80036; stroke-width: 2.0;"/><line style="stroke: #A80036; stroke-width: 2.0;" x1="546.5" x2="570.5" y1="68" y2="68"/><text fill="#000000" font-family="sans-serif" font-size="14" lengthAdjust="spacingAndGlyphs" textLength="74" x="518.5" y="843.8296">savedAudio</text><ellipse cx="558.5" cy="862.9058" fill="#FEFECE" filter="url(#f1uenxss1nq3zf)" rx="12" ry="12" style="stroke: #A80036; stroke-width: 2.0;"/><line style="stroke: #A80036; stroke-width: 2.0;" x1="546.5" x2="570.5" y1="876.9058" y2="876.9058"/><polygon fill="#A80036" points="182,118.1201,192,122.1201,182,126.1201,186,122.1201" style="stroke: #A80036; stroke-width: 1.0;"/><line style="stroke: #A80036; stroke-width: 1.0;" x1="50" x2="188" y1="122.1201" y2="122.1201"/><text fill="#000000" font-family="sans-serif" font-size="13" lengthAdjust="spacingAndGlyphs" textLength="120" x="57" y="118.0181">createMapModeVSS</text><polygon fill="#A80036" points="472,149.8745,482,153.8745,472,157.8745,476,153.8745" style="stroke: #A80036; stroke-width: 1.0;"/><line style="stroke: #A80036; stroke-width: 1.0;" x1="305" x2="478" y1="153.8745" y2="153.8745"/><text fill="#000000" font-family="sans-serif" font-size="13" lengthAdjust="spacingAndGlyphs" textLength="67" x="312" y="149.7725">get location</text><polygon fill="#A80036" points="316,181.6289,306,185.6289,316,189.6289,312,185.6289" style="stroke: #A80036; stroke-width: 1.0;"/><line style="stroke: #A80036; stroke-width: 1.0;" x1="310" x2="483" y1="185.6289" y2="185.6289"/><text fill="#000000" font-family="sans-serif" font-size="13" lengthAdjust="spacingAndGlyphs" textLength="45" x="322" y="181.5269">location</text><polygon fill="#A80036" points="61,213.3833,51,217.3833,61,221.3833,57,217.3833" style="stroke: #A80036; stroke-width: 1.0;"/><line style="stroke: #A80036; stroke-width: 1.0;" x1="55" x2="193" y1="217.3833" y2="217.3833"/><text fill="#000000" font-family="sans-serif" font-size="13" lengthAdjust="spacingAndGlyphs" textLength="70" x="67" y="213.2813">upload page</text><path d="M13,233.1377 L86,233.1377 L86,242.1377 L76,252.1377 L13,252.1377 L13,233.1377 " fill="#EEEEEE" style="stroke: #000000; stroke-width: 1.0;"/><rect fill="none" height="546.8936" style="stroke: #000000; stroke-width: 2.0;" width="605.5" x="13" y="233.1377"/><text fill="#000000" font-family="sans-serif" font-size="13" font-weight="bold" lengthAdjust="spacingAndGlyphs" textLength="28" x="28" y="249.0356">loop</text><text fill="#000000" font-family="sans-serif" font-size="11" font-weight="bold" lengthAdjust="spacingAndGlyphs" textLength="74" x="101" y="247.7437">[not finished]</text><path d="M23,259.915 L84,259.915 L84,268.915 L74,278.915 L23,278.915 L23,259.915 " fill="#EEEEEE" style="stroke: #000000; stroke-width: 1.0;"/><rect fill="none" height="513.1162" style="stroke: #000000; stroke-width: 2.0;" width="585.5" x="23" y="259.915"/><text fill="#000000" font-family="sans-serif" font-size="13" font-weight="bold" lengthAdjust="spacingAndGlyphs" textLength="16" x="38" y="275.813">alt</text><text fill="#000000" font-family="sans-serif" font-size="11" font-weight="bold" lengthAdjust="spacingAndGlyphs" textLength="28" x="99" y="274.521">[add]</text><polygon fill="#A80036" points="182,298.6924,192,302.6924,182,306.6924,186,302.6924" style="stroke: #A80036; stroke-width: 1.0;"/><line style="stroke: #A80036; stroke-width: 1.0;" x1="50" x2="188" y1="302.6924" y2="302.6924"/><text fill="#000000" font-family="sans-serif" font-size="13" lengthAdjust="spacingAndGlyphs" textLength="52" x="57" y="298.5903">audio list</text><polygon fill="#A80036" points="293,330.4468,303,334.4468,293,338.4468,297,334.4468" style="stroke: #A80036; stroke-width: 1.0;"/><line style="stroke: #A80036; stroke-width: 1.0;" x1="194" x2="299" y1="334.4468" y2="334.4468"/><text fill="#000000" font-family="sans-serif" font-size="13" lengthAdjust="spacingAndGlyphs" textLength="52" x="201" y="330.3447">audio list</text><polygon fill="#A80036" points="404,362.2012,414,366.2012,404,370.2012,408,366.2012" style="stroke: #A80036; stroke-width: 1.0;"/><line style="stroke: #A80036; stroke-width: 1.0;" x1="305" x2="410" y1="366.2012" y2="366.2012"/><text fill="#000000" font-family="sans-serif" font-size="13" lengthAdjust="spacingAndGlyphs" textLength="52" x="312" y="362.0991">audio list</text><polygon fill="#A80036" points="546.5,393.9556,556.5,397.9556,546.5,401.9556,550.5,397.9556" style="stroke: #A80036; stroke-width: 1.0;"/><line style="stroke: #A80036; stroke-width: 1.0;" x1="416" x2="552.5" y1="397.9556" y2="397.9556"/><text fill="#000000" font-family="sans-serif" font-size="13" lengthAdjust="spacingAndGlyphs" textLength="36" x="423" y="393.8535">create</text><polygon fill="#A80036" points="61,425.71,51,429.71,61,433.71,57,429.71" style="stroke: #A80036; stroke-width: 1.0;"/><line style="stroke: #A80036; stroke-width: 1.0;" x1="55" x2="193" y1="429.71" y2="429.71"/><text fill="#000000" font-family="sans-serif" font-size="13" lengthAdjust="spacingAndGlyphs" textLength="49" x="67" y="425.6079">success</text><line style="stroke: #000000; stroke-width: 1.0; stroke-dasharray: 2.0,2.0;" x1="23" x2="608.5" y1="439.4644" y2="439.4644"/><text fill="#000000" font-family="sans-serif" font-size="11" font-weight="bold" lengthAdjust="spacingAndGlyphs" textLength="43" x="28" y="452.0703">[delete]</text><polygon fill="#A80036" points="293,474.4873,303,478.4873,293,482.4873,297,478.4873" style="stroke: #A80036; stroke-width: 1.0;"/><line style="stroke: #A80036; stroke-width: 1.0;" x1="194" x2="299" y1="478.4873" y2="478.4873"/><text fill="#000000" font-family="sans-serif" font-size="13" lengthAdjust="spacingAndGlyphs" textLength="35" x="201" y="474.3853">delete</text><polygon fill="#A80036" points="404,506.2417,414,510.2417,404,514.2417,408,510.2417" style="stroke: #A80036; stroke-width: 1.0;"/><line style="stroke: #A80036; stroke-width: 1.0;" x1="305" x2="410" y1="510.2417" y2="510.2417"/><text fill="#000000" font-family="sans-serif" font-size="13" lengthAdjust="spacingAndGlyphs" textLength="35" x="312" y="506.1396">delete</text><polygon fill="#A80036" points="316,537.9961,306,541.9961,316,545.9961,312,541.9961" style="stroke: #A80036; stroke-width: 1.0;"/><line style="stroke: #A80036; stroke-width: 1.0;" x1="310" x2="415" y1="541.9961" y2="541.9961"/><text fill="#000000" font-family="sans-serif" font-size="13" lengthAdjust="spacingAndGlyphs" textLength="87" x="322" y="537.894">existing audios</text><polygon fill="#A80036" points="205,569.7505,195,573.7505,205,577.7505,201,573.7505" style="stroke: #A80036; stroke-width: 1.0;"/><line style="stroke: #A80036; stroke-width: 1.0;" x1="199" x2="304" y1="573.7505" y2="573.7505"/><text fill="#000000" font-family="sans-serif" font-size="13" lengthAdjust="spacingAndGlyphs" textLength="87" x="211" y="569.6484">existing audios</text><polygon fill="#A80036" points="61,601.5049,51,605.5049,61,609.5049,57,605.5049" style="stroke: #A80036; stroke-width: 1.0;"/><line style="stroke: #A80036; stroke-width: 1.0;" x1="55" x2="193" y1="605.5049" y2="605.5049"/><text fill="#000000" font-family="sans-serif" font-size="13" lengthAdjust="spacingAndGlyphs" textLength="87" x="67" y="601.4028">existing audios</text><polygon fill="#A80036" points="182,633.2593,192,637.2593,182,641.2593,186,637.2593" style="stroke: #A80036; stroke-width: 1.0;"/><line style="stroke: #A80036; stroke-width: 1.0;" x1="50" x2="188" y1="637.2593" y2="637.2593"/><text fill="#000000" font-family="sans-serif" font-size="13" lengthAdjust="spacingAndGlyphs" textLength="77" x="57" y="633.1572">deleted audio</text><polygon fill="#A80036" points="293,665.0137,303,669.0137,293,673.0137,297,669.0137" style="stroke: #A80036; stroke-width: 1.0;"/><line style="stroke: #A80036; stroke-width: 1.0;" x1="194" x2="299" y1="669.0137" y2="669.0137"/><text fill="#000000" font-family="sans-serif" font-size="13" lengthAdjust="spacingAndGlyphs" textLength="77" x="201" y="664.9116">deleted audio</text><polygon fill="#A80036" points="404,696.7681,414,700.7681,404,704.7681,408,700.7681" style="stroke: #A80036; stroke-width: 1.0;"/><line style="stroke: #A80036; stroke-width: 1.0;" x1="305" x2="410" y1="700.7681" y2="700.7681"/><text fill="#000000" font-family="sans-serif" font-size="13" lengthAdjust="spacingAndGlyphs" textLength="77" x="312" y="696.666">deleted audio</text><polygon fill="#A80036" points="546.5,728.5225,556.5,732.5225,546.5,736.5225,550.5,732.5225" style="stroke: #A80036; stroke-width: 1.0;"/><line style="stroke: #A80036; stroke-width: 1.0;" x1="416" x2="552.5" y1="732.5225" y2="732.5225"/><text fill="#000000" font-family="sans-serif" font-size="13" lengthAdjust="spacingAndGlyphs" textLength="35" x="423" y="728.4204">delete</text><polygon fill="#A80036" points="61,760.2769,51,764.2769,61,768.2769,57,764.2769" style="stroke: #A80036; stroke-width: 1.0;"/><line style="stroke: #A80036; stroke-width: 1.0;" x1="55" x2="193" y1="764.2769" y2="764.2769"/><text fill="#000000" font-family="sans-serif" font-size="13" lengthAdjust="spacingAndGlyphs" textLength="49" x="67" y="760.1748">success</text><polygon fill="#A80036" points="61,806.0313,51,810.0313,61,814.0313,57,810.0313" style="stroke: #A80036; stroke-width: 1.0;"/><line style="stroke: #A80036; stroke-width: 1.0;" x1="55" x2="193" y1="810.0313" y2="810.0313"/><text fill="#000000" font-family="sans-serif" font-size="13" lengthAdjust="spacingAndGlyphs" textLength="104" x="67" y="805.9292">ManageLocalVSS</text><!--
@startuml
actor user
boundary interface
control mapManageControl
database Database
entity sensor
entity savedAudio

user -> interface: createMapModeVSS
mapManageControl -> sensor: get location
sensor -> mapManageControl: location
interface -> user: upload page

loop not finished
    alt add
        user -> interface: audio list
        interface -> mapManageControl: audio list
        mapManageControl -> Database: audio list
        Database -> savedAudio: create
        interface -> user: success
    else delete
        interface -> mapManageControl: delete
        mapManageControl -> Database: delete
        Database -> mapManageControl: existing audios
        mapManageControl -> interface: existing audios
        interface -> user: existing audios
        user -> interface: deleted audio
        interface -> mapManageControl: deleted audio
        mapManageControl -> Database: deleted audio
        Database -> savedAudio: delete
        interface -> user: success
    end
end

interface -> user: ManageLocalVSS
@enduml

PlantUML version 1.2018.01(Mon Jan 29 02:08:22 CST 2018)
(GPL source distribution)
Java Runtime: Java(TM) SE Runtime Environment
JVM: Java HotSpot(TM) Client VM
Java Version: 1.8.0_144-b01
Operating System: Windows 10
OS Version: 10.0
Default Encoding: GBK
Language: zh
Country: CN
--></g></svg>