<?xml version="1.0" encoding="UTF-8" standalone="no"?><svg xmlns="http://www.w3.org/2000/svg" xmlns:xlink="http://www.w3.org/1999/xlink" contentScriptType="application/ecmascript" contentStyleType="text/css" height="405px" preserveAspectRatio="none" style="width:811px;height:405px;" version="1.1" viewBox="0 0 811 405"
    width="811px" zoomAndPan="magnify"><defs><filter height="300%" id="figrg3d2u7dpp" width="300%" x="-1" y="-1"><feGaussianBlur result="blurOut" stdDeviation="2.0"/><feColorMatrix in="blurOut" result="blurOut2" type="matrix" values="0 0 0 0 0 0 0 0 0 0 0 0 0 0 0 0 0 0 .4 0"/><feOffset dx="4.0" dy="4.0" in="blurOut2" result="blurOut3"/><feBlend in="SourceGraphic" in2="blurOut3" mode="normal"/></filter></defs><g><rect fill="#FFFFFF" filter="url(#figrg3d2u7dpp)" height="205.8179" style="stroke: #A80036; stroke-width: 1.0;" width="10" x="37.5" y="99.1201"/><rect fill="#FFFFFF" filter="url(#figrg3d2u7dpp)" height="182.8179" style="stroke: #A80036; stroke-width: 1.0;" width="10" x="213.5" y="122.1201"/><rect fill="#FFFFFF" filter="url(#figrg3d2u7dpp)" height="151.0635" style="stroke: #A80036; stroke-width: 1.0;" width="10" x="360.5" y="153.8745"/><rect fill="#FFFFFF" filter="url(#figrg3d2u7dpp)" height="128.3091" style="stroke: #000000; stroke-width: 2.0;" width="786" x="13" y="169.6289"/><rect fill="#FFFFFF" height="62.7773" style="stroke: none; stroke-width: 1.0;" width="786" x="13" y="235.1606"/><line style="stroke: #A80036; stroke-width: 1.0; stroke-dasharray: 5.0,5.0;" x1="42" x2="42" y1="89.1201" y2="314.938"/><line style="stroke: #A80036; stroke-width: 1.0; stroke-dasharray: 5.0,5.0;" x1="218" x2="218" y1="89.1201" y2="314.938"/><line style="stroke: #A80036; stroke-width: 1.0; stroke-dasharray: 5.0,5.0;" x1="365" x2="365" y1="89.1201" y2="314.938"/><line style="stroke: #A80036; stroke-width: 1.0; stroke-dasharray: 5.0,5.0;" x1="531" x2="531" y1="89.1201" y2="314.938"/><line style="stroke: #A80036; stroke-width: 1.0; stroke-dasharray: 5.0,5.0;" x1="702" x2="702" y1="89.1201" y2="314.938"/><text fill="#000000" font-family="sans-serif" font-size="14" lengthAdjust="spacingAndGlyphs" textLength="4" x="23" y="86.0439">:</text><text fill="#000000" font-family="sans-serif" font-size="14" lengthAdjust="spacingAndGlyphs" text-decoration="underline" textLength="29" x="27" y="86.0439">User</text><line style="stroke: #000000; stroke-width: 1.0;" x1="27" x2="56" y1="88.0439" y2="88.0439"/><ellipse cx="42.5" cy="13" fill="#FEFECE" filter="url(#figrg3d2u7dpp)" rx="8" ry="8" style="stroke: #A80036; stroke-width: 2.0;"/><path d="M42.5,21 L42.5,48 M29.5,29 L55.5,29 M42.5,48 L29.5,63 M42.5,48 L55.5,63 " fill="none" filter="url(#figrg3d2u7dpp)" style="stroke: #A80036; stroke-width: 2.0;"/><text fill="#000000" font-family="sans-serif" font-size="14" lengthAdjust="spacingAndGlyphs" textLength="4" x="23" y="329.9819">:</text><text fill="#000000" font-family="sans-serif" font-size="14" lengthAdjust="spacingAndGlyphs" text-decoration="underline" textLength="29" x="27" y="329.9819">User</text><line style="stroke: #000000; stroke-width: 1.0;" x1="27" x2="56" y1="331.9819" y2="331.9819"/><ellipse cx="42.5" cy="343.0581" fill="#FEFECE" filter="url(#figrg3d2u7dpp)" rx="8" ry="8" style="stroke: #A80036; stroke-width: 2.0;"/><path d="M42.5,351.0581 L42.5,378.0581 M29.5,359.0581 L55.5,359.0581 M42.5,378.0581 L29.5,393.0581 M42.5,378.0581 L55.5,393.0581 " fill="none" filter="url(#figrg3d2u7dpp)" style="stroke: #A80036; stroke-width: 2.0;"/><text fill="#000000" font-family="sans-serif" font-size="14" lengthAdjust="spacingAndGlyphs" textLength="4" x="162" y="86.0439">:</text><text fill="#000000" font-family="sans-serif" font-size="14" lengthAdjust="spacingAndGlyphs" text-decoration="underline" textLength="103" x="166" y="86.0439">CreateVSSPage</text><line style="stroke: #000000; stroke-width: 1.0;" x1="166" x2="269" y1="88.0439" y2="88.0439"/><path d="M198,42 L198,66 M198,54 L215,54 " fill="none" filter="url(#figrg3d2u7dpp)" style="stroke: #A80036; stroke-width: 2.0;"/><ellipse cx="227" cy="54" fill="#FEFECE" filter="url(#figrg3d2u7dpp)" rx="12" ry="12" style="stroke: #A80036; stroke-width: 2.0;"/><text fill="#000000" font-family="sans-serif" font-size="14" lengthAdjust="spacingAndGlyphs" textLength="4" x="162" y="329.9819">:</text><text fill="#000000" font-family="sans-serif" font-size="14" lengthAdjust="spacingAndGlyphs" text-decoration="underline" textLength="103" x="166" y="329.9819">CreateVSSPage</text><line style="stroke: #000000; stroke-width: 1.0;" x1="166" x2="269" y1="331.9819" y2="331.9819"/><path d="M198,337.0581 L198,361.0581 M198,349.0581 L215,349.0581 " fill="none" filter="url(#figrg3d2u7dpp)" style="stroke: #A80036; stroke-width: 2.0;"/><ellipse cx="227" cy="349.0581" fill="#FEFECE" filter="url(#figrg3d2u7dpp)" rx="12" ry="12" style="stroke: #A80036; stroke-width: 2.0;"/><text fill="#000000" font-family="sans-serif" font-size="14" lengthAdjust="spacingAndGlyphs" textLength="4" x="285" y="86.0439">:</text><text fill="#000000" font-family="sans-serif" font-size="14" lengthAdjust="spacingAndGlyphs" text-decoration="underline" textLength="151" x="289" y="86.0439">LocalVSSLibraryControl</text><line style="stroke: #000000; stroke-width: 1.0;" x1="289" x2="440" y1="88.0439" y2="88.0439"/><ellipse cx="365.5" cy="54" fill="#FEFECE" filter="url(#figrg3d2u7dpp)" rx="12" ry="12" style="stroke: #A80036; stroke-width: 2.0;"/><polygon fill="#A80036" points="361.5,42,367.5,37,365.5,42,367.5,47,361.5,42" style="stroke: #A80036; stroke-width: 1.0;"/><text fill="#000000" font-family="sans-serif" font-size="14" lengthAdjust="spacingAndGlyphs" textLength="4" x="285" y="329.9819">:</text><text fill="#000000" font-family="sans-serif" font-size="14" lengthAdjust="spacingAndGlyphs" text-decoration="underline" textLength="151" x="289" y="329.9819">LocalVSSLibraryControl</text><line style="stroke: #000000; stroke-width: 1.0;" x1="289" x2="440" y1="331.9819" y2="331.9819"/><ellipse cx="365.5" cy="349.0581" fill="#FEFECE" filter="url(#figrg3d2u7dpp)" rx="12" ry="12" style="stroke: #A80036; stroke-width: 2.0;"/><polygon fill="#A80036" points="361.5,337.0581,367.5,332.0581,365.5,337.0581,367.5,342.0581,361.5,337.0581" style="stroke: #A80036; stroke-width: 1.0;"/><rect fill="#FEFECE" filter="url(#figrg3d2u7dpp)" height="33.1201" style="stroke: #A80036; stroke-width: 1.5;" width="146" x="456" y="51"/><text fill="#000000" font-family="sans-serif" font-size="14" lengthAdjust="spacingAndGlyphs" textLength="132" x="463" y="74.0439">CreateMapModeVSS</text><rect fill="#FEFECE" filter="url(#figrg3d2u7dpp)" height="33.1201" style="stroke: #A80036; stroke-width: 1.5;" width="146" x="456" y="313.938"/><text fill="#000000" font-family="sans-serif" font-size="14" lengthAdjust="spacingAndGlyphs" textLength="132" x="463" y="336.9819">CreateMapModeVSS</text><rect fill="#FEFECE" filter="url(#figrg3d2u7dpp)" height="33.1201" style="stroke: #A80036; stroke-width: 1.5;" width="169" x="616" y="51"/><text fill="#000000" font-family="sans-serif" font-size="14" lengthAdjust="spacingAndGlyphs" textLength="155" x="623" y="74.0439">CreateConcertModeVSS</text><rect fill="#FEFECE" filter="url(#figrg3d2u7dpp)" height="33.1201" style="stroke: #A80036; stroke-width: 1.5;" width="169" x="616" y="313.938"/><text fill="#000000" font-family="sans-serif" font-size="14" lengthAdjust="spacingAndGlyphs" textLength="155" x="623" y="336.9819">CreateConcertModeVSS</text><rect fill="#FFFFFF" filter="url(#figrg3d2u7dpp)" height="205.8179" style="stroke: #A80036; stroke-width: 1.0;" width="10" x="37.5" y="99.1201"/><rect fill="#FFFFFF" filter="url(#figrg3d2u7dpp)" height="182.8179" style="stroke: #A80036; stroke-width: 1.0;" width="10" x="213.5" y="122.1201"/><rect fill="#FFFFFF" filter="url(#figrg3d2u7dpp)" height="151.0635" style="stroke: #A80036; stroke-width: 1.0;" width="10" x="360.5" y="153.8745"/><polygon fill="#A80036" points="201.5,118.1201,211.5,122.1201,201.5,126.1201,205.5,122.1201" style="stroke: #A80036; stroke-width: 1.0;"/><line style="stroke: #A80036; stroke-width: 1.0;" x1="47.5" x2="207.5" y1="122.1201" y2="122.1201"/><text fill="#000000" font-family="sans-serif" font-size="13" lengthAdjust="spacingAndGlyphs" textLength="65" x="54.5" y="118.0181">CreateVSS</text><polygon fill="#A80036" points="348.5,149.8745,358.5,153.8745,348.5,157.8745,352.5,153.8745" style="stroke: #A80036; stroke-width: 1.0;"/><line style="stroke: #A80036; stroke-width: 1.0;" x1="223.5" x2="354.5" y1="153.8745" y2="153.8745"/><text fill="#000000" font-family="sans-serif" font-size="13" lengthAdjust="spacingAndGlyphs" textLength="68" x="230.5" y="149.7725">&lt;&lt;create&gt;&gt;</text><path d="M13,169.6289 L74,169.6289 L74,178.6289 L64,188.6289 L13,188.6289 L13,169.6289 " fill="#EEEEEE" style="stroke: #000000; stroke-width: 1.0;"/><rect fill="none" height="128.3091" style="stroke: #000000; stroke-width: 2.0;" width="786" x="13" y="169.6289"/><text fill="#000000" font-family="sans-serif" font-size="13" font-weight="bold" lengthAdjust="spacingAndGlyphs" textLength="16" x="28" y="185.5269">alt</text><text fill="#000000" font-family="sans-serif" font-size="11" font-weight="bold" lengthAdjust="spacingAndGlyphs" textLength="62" x="89" y="184.2349">[MapMode]</text><polygon fill="#A80036" points="201.5,208.4063,211.5,212.4063,201.5,216.4063,205.5,212.4063" style="stroke: #A80036; stroke-width: 1.0;"/><line style="stroke: #A80036; stroke-width: 1.0;" x1="47.5" x2="207.5" y1="212.4063" y2="212.4063"/><text fill="#000000" font-family="sans-serif" font-size="13" lengthAdjust="spacingAndGlyphs" textLength="122" x="54.5" y="208.3042">CreateMapModeVSS</text><polygon fill="#A80036" points="519,223.1606,529,227.1606,519,231.1606,523,227.1606" style="stroke: #A80036; stroke-width: 1.0;"/><line style="stroke: #A80036; stroke-width: 1.0;" x1="370.5" x2="525" y1="227.1606" y2="227.1606"/><line style="stroke: #000000; stroke-width: 1.0; stroke-dasharray: 2.0,2.0;" x1="13" x2="799" y1="236.1606" y2="236.1606"/><text fill="#000000" font-family="sans-serif" font-size="11" font-weight="bold" lengthAdjust="spacingAndGlyphs" textLength="83" x="18" y="248.7666">[ConcertMode]</text><polygon fill="#A80036" points="201.5,271.1836,211.5,275.1836,201.5,279.1836,205.5,275.1836" style="stroke: #A80036; stroke-width: 1.0;"/><line style="stroke: #A80036; stroke-width: 1.0;" x1="47.5" x2="207.5" y1="275.1836" y2="275.1836"/><text fill="#000000" font-family="sans-serif" font-size="13" lengthAdjust="spacingAndGlyphs" textLength="142" x="54.5" y="271.0815">CreateConcertModeVSS</text><polygon fill="#A80036" points="690.5,285.938,700.5,289.938,690.5,293.938,694.5,289.938" style="stroke: #A80036; stroke-width: 1.0;"/><line style="stroke: #A80036; stroke-width: 1.0;" x1="370.5" x2="696.5" y1="289.938" y2="289.938"/><!--
@startuml
actor ":__User__" as User
boundary ":__CreateVSSPage__" as CreateVSSPage
control ":__LocalVSSLibraryControl__" as LocalVSSLibraryControl

activate User
User -> CreateVSSPage: CreateVSS
activate CreateVSSPage
CreateVSSPage -> LocalVSSLibraryControl: <<create>>
activate LocalVSSLibraryControl
alt MapMode
    User -> CreateVSSPage: CreateMapModeVSS
    LocalVSSLibraryControl -> CreateMapModeVSS
else ConcertMode
    User -> CreateVSSPage: CreateConcertModeVSS
    LocalVSSLibraryControl -> CreateConcertModeVSS
end
deactivate CreateVSSPage
deactivate LocalVSSLibraryControl
deactivate User
@enduml

PlantUML version 1.2018.01(Mon Jan 29 02:08:22 CST 2018)
(GPL source distribution)
Java Runtime: Java(TM) SE Runtime Environment
JVM: Java HotSpot(TM) Client VM
Java Version: 1.8.0_144-b01
Operating System: Windows 10
OS Version: 10.0
Default Encoding: GBK
Language: zh
Country: CN
--></g></svg>