<?xml version="1.0" encoding="UTF-8" standalone="no"?><svg xmlns="http://www.w3.org/2000/svg" xmlns:xlink="http://www.w3.org/1999/xlink" contentScriptType="application/ecmascript" contentStyleType="text/css" height="453px" preserveAspectRatio="none" style="width:681px;height:453px;" version="1.1" viewBox="0 0 681 453"
    width="681px" zoomAndPan="magnify"><defs><filter height="300%" id="fw3hyxqhmtrww" width="300%" x="-1" y="-1"><feGaussianBlur result="blurOut" stdDeviation="2.0"/><feColorMatrix in="blurOut" result="blurOut2" type="matrix" values="0 0 0 0 0 0 0 0 0 0 0 0 0 0 0 0 0 0 .4 0"/><feOffset dx="4.0" dy="4.0" in="blurOut2" result="blurOut3"/><feBlend in="SourceGraphic" in2="blurOut3" mode="normal"/></filter></defs><g><rect fill="#FFFFFF" filter="url(#fw3hyxqhmtrww)" height="254.3037" style="stroke: #A80036; stroke-width: 1.0;" width="10" x="37.5" y="99.1201"/><rect fill="#FFFFFF" filter="url(#fw3hyxqhmtrww)" height="254.3037" style="stroke: #A80036; stroke-width: 1.0;" width="10" x="201.5" y="99.1201"/><rect fill="#FFFFFF" filter="url(#fw3hyxqhmtrww)" height="231.3037" style="stroke: #A80036; stroke-width: 1.0;" width="10" x="372" y="122.1201"/><rect fill="#FFFFFF" filter="url(#fw3hyxqhmtrww)" height="30" style="stroke: #A80036; stroke-width: 1.0;" width="10" x="559" y="217.3833"/><rect fill="#FFFFFF" filter="url(#fw3hyxqhmtrww)" height="31.7544" style="stroke: #A80036; stroke-width: 1.0;" width="10" x="559" y="305.915"/><rect fill="#FFFFFF" filter="url(#fw3hyxqhmtrww)" height="83.2861" style="stroke: #000000; stroke-width: 2.0;" width="657.5" x="13" y="263.1377"/><line style="stroke: #A80036; stroke-width: 1.0; stroke-dasharray: 5.0,5.0;" x1="42" x2="42" y1="89.1201" y2="363.4238"/><line style="stroke: #A80036; stroke-width: 1.0; stroke-dasharray: 5.0,5.0;" x1="206.5" x2="206.5" y1="89.1201" y2="363.4238"/><line style="stroke: #A80036; stroke-width: 1.0; stroke-dasharray: 5.0,5.0;" x1="376.5" x2="376.5" y1="89.1201" y2="363.4238"/><line style="stroke: #A80036; stroke-width: 1.0; stroke-dasharray: 5.0,5.0;" x1="563.5" x2="563.5" y1="89.1201" y2="363.4238"/><text fill="#000000" font-family="sans-serif" font-size="14" lengthAdjust="spacingAndGlyphs" textLength="4" x="23" y="86.0439">:</text><text fill="#000000" font-family="sans-serif" font-size="14" lengthAdjust="spacingAndGlyphs" text-decoration="underline" textLength="29" x="27" y="86.0439">User</text><line style="stroke: #000000; stroke-width: 1.0;" x1="27" x2="56" y1="88.0439" y2="88.0439"/><ellipse cx="42.5" cy="13" fill="#FEFECE" filter="url(#fw3hyxqhmtrww)" rx="8" ry="8" style="stroke: #A80036; stroke-width: 2.0;"/><path d="M42.5,21 L42.5,48 M29.5,29 L55.5,29 M42.5,48 L29.5,63 M42.5,48 L55.5,63 " fill="none" filter="url(#fw3hyxqhmtrww)" style="stroke: #A80036; stroke-width: 2.0;"/><text fill="#000000" font-family="sans-serif" font-size="14" lengthAdjust="spacingAndGlyphs" textLength="4" x="23" y="378.4678">:</text><text fill="#000000" font-family="sans-serif" font-size="14" lengthAdjust="spacingAndGlyphs" text-decoration="underline" textLength="29" x="27" y="378.4678">User</text><line style="stroke: #000000; stroke-width: 1.0;" x1="27" x2="56" y1="380.4678" y2="380.4678"/><ellipse cx="42.5" cy="391.5439" fill="#FEFECE" filter="url(#fw3hyxqhmtrww)" rx="8" ry="8" style="stroke: #A80036; stroke-width: 2.0;"/><path d="M42.5,399.5439 L42.5,426.5439 M29.5,407.5439 L55.5,407.5439 M42.5,426.5439 L29.5,441.5439 M42.5,426.5439 L55.5,441.5439 " fill="none" filter="url(#fw3hyxqhmtrww)" style="stroke: #A80036; stroke-width: 2.0;"/><text fill="#000000" font-family="sans-serif" font-size="14" lengthAdjust="spacingAndGlyphs" textLength="4" x="126.5" y="86.0439">:</text><text fill="#000000" font-family="sans-serif" font-size="14" lengthAdjust="spacingAndGlyphs" text-decoration="underline" textLength="150" x="130.5" y="86.0439">LocalVSSManagerPage</text><line style="stroke: #000000; stroke-width: 1.0;" x1="130.5" x2="280.5" y1="88.0439" y2="88.0439"/><path d="M186,42 L186,66 M186,54 L203,54 " fill="none" filter="url(#fw3hyxqhmtrww)" style="stroke: #A80036; stroke-width: 2.0;"/><ellipse cx="215" cy="54" fill="#FEFECE" filter="url(#fw3hyxqhmtrww)" rx="12" ry="12" style="stroke: #A80036; stroke-width: 2.0;"/><text fill="#000000" font-family="sans-serif" font-size="14" lengthAdjust="spacingAndGlyphs" textLength="4" x="126.5" y="378.4678">:</text><text fill="#000000" font-family="sans-serif" font-size="14" lengthAdjust="spacingAndGlyphs" text-decoration="underline" textLength="150" x="130.5" y="378.4678">LocalVSSManagerPage</text><line style="stroke: #000000; stroke-width: 1.0;" x1="130.5" x2="280.5" y1="380.4678" y2="380.4678"/><path d="M186,385.5439 L186,409.5439 M186,397.5439 L203,397.5439 " fill="none" filter="url(#fw3hyxqhmtrww)" style="stroke: #A80036; stroke-width: 2.0;"/><ellipse cx="215" cy="397.5439" fill="#FEFECE" filter="url(#fw3hyxqhmtrww)" rx="12" ry="12" style="stroke: #A80036; stroke-width: 2.0;"/><text fill="#000000" font-family="sans-serif" font-size="14" lengthAdjust="spacingAndGlyphs" textLength="4" x="296.5" y="86.0439">:</text><text fill="#000000" font-family="sans-serif" font-size="14" lengthAdjust="spacingAndGlyphs" text-decoration="underline" textLength="151" x="300.5" y="86.0439">LocalVSSLibraryControl</text><line style="stroke: #000000; stroke-width: 1.0;" x1="300.5" x2="451.5" y1="88.0439" y2="88.0439"/><ellipse cx="377" cy="54" fill="#FEFECE" filter="url(#fw3hyxqhmtrww)" rx="12" ry="12" style="stroke: #A80036; stroke-width: 2.0;"/><polygon fill="#A80036" points="373,42,379,37,377,42,379,47,373,42" style="stroke: #A80036; stroke-width: 1.0;"/><text fill="#000000" font-family="sans-serif" font-size="14" lengthAdjust="spacingAndGlyphs" textLength="4" x="296.5" y="378.4678">:</text><text fill="#000000" font-family="sans-serif" font-size="14" lengthAdjust="spacingAndGlyphs" text-decoration="underline" textLength="151" x="300.5" y="378.4678">LocalVSSLibraryControl</text><line style="stroke: #000000; stroke-width: 1.0;" x1="300.5" x2="451.5" y1="380.4678" y2="380.4678"/><ellipse cx="377" cy="397.5439" fill="#FEFECE" filter="url(#fw3hyxqhmtrww)" rx="12" ry="12" style="stroke: #A80036; stroke-width: 2.0;"/><polygon fill="#A80036" points="373,385.5439,379,380.5439,377,385.5439,379,390.5439,373,385.5439" style="stroke: #A80036; stroke-width: 1.0;"/><text fill="#000000" font-family="sans-serif" font-size="14" lengthAdjust="spacingAndGlyphs" textLength="4" x="467.5" y="86.0439">:</text><text fill="#000000" font-family="sans-serif" font-size="14" lengthAdjust="spacingAndGlyphs" text-decoration="underline" textLength="183" x="471.5" y="86.0439">MapModeVirtualSoundSpace</text><line style="stroke: #000000; stroke-width: 1.0;" x1="471.5" x2="654.5" y1="88.0439" y2="88.0439"/><ellipse cx="564" cy="54" fill="#FEFECE" filter="url(#fw3hyxqhmtrww)" rx="12" ry="12" style="stroke: #A80036; stroke-width: 2.0;"/><line style="stroke: #A80036; stroke-width: 2.0;" x1="552" x2="576" y1="68" y2="68"/><text fill="#000000" font-family="sans-serif" font-size="14" lengthAdjust="spacingAndGlyphs" textLength="4" x="467.5" y="378.4678">:</text><text fill="#000000" font-family="sans-serif" font-size="14" lengthAdjust="spacingAndGlyphs" text-decoration="underline" textLength="183" x="471.5" y="378.4678">MapModeVirtualSoundSpace</text><line style="stroke: #000000; stroke-width: 1.0;" x1="471.5" x2="654.5" y1="380.4678" y2="380.4678"/><ellipse cx="564" cy="397.5439" fill="#FEFECE" filter="url(#fw3hyxqhmtrww)" rx="12" ry="12" style="stroke: #A80036; stroke-width: 2.0;"/><line style="stroke: #A80036; stroke-width: 2.0;" x1="552" x2="576" y1="411.5439" y2="411.5439"/><rect fill="#FFFFFF" filter="url(#fw3hyxqhmtrww)" height="254.3037" style="stroke: #A80036; stroke-width: 1.0;" width="10" x="37.5" y="99.1201"/><rect fill="#FFFFFF" filter="url(#fw3hyxqhmtrww)" height="254.3037" style="stroke: #A80036; stroke-width: 1.0;" width="10" x="201.5" y="99.1201"/><rect fill="#FFFFFF" filter="url(#fw3hyxqhmtrww)" height="231.3037" style="stroke: #A80036; stroke-width: 1.0;" width="10" x="372" y="122.1201"/><rect fill="#FFFFFF" filter="url(#fw3hyxqhmtrww)" height="30" style="stroke: #A80036; stroke-width: 1.0;" width="10" x="559" y="217.3833"/><rect fill="#FFFFFF" filter="url(#fw3hyxqhmtrww)" height="31.7544" style="stroke: #A80036; stroke-width: 1.0;" width="10" x="559" y="305.915"/><polygon fill="#A80036" points="360,118.1201,370,122.1201,360,126.1201,364,122.1201" style="stroke: #A80036; stroke-width: 1.0;"/><line style="stroke: #A80036; stroke-width: 1.0;" x1="211.5" x2="366" y1="122.1201" y2="122.1201"/><text fill="#000000" font-family="sans-serif" font-size="13" lengthAdjust="spacingAndGlyphs" textLength="68" x="218.5" y="118.0181">&lt;&lt;create&gt;&gt;</text><polygon fill="#A80036" points="189.5,149.8745,199.5,153.8745,189.5,157.8745,193.5,153.8745" style="stroke: #A80036; stroke-width: 1.0;"/><line style="stroke: #A80036; stroke-width: 1.0;" x1="47.5" x2="195.5" y1="153.8745" y2="153.8745"/><text fill="#000000" font-family="sans-serif" font-size="13" lengthAdjust="spacingAndGlyphs" textLength="76" x="54.5" y="149.7725">LocationData</text><polygon fill="#A80036" points="189.5,181.6289,199.5,185.6289,189.5,189.6289,193.5,185.6289" style="stroke: #A80036; stroke-width: 1.0;"/><line style="stroke: #A80036; stroke-width: 1.0;" x1="47.5" x2="195.5" y1="185.6289" y2="185.6289"/><text fill="#000000" font-family="sans-serif" font-size="13" lengthAdjust="spacingAndGlyphs" textLength="130" x="54.5" y="181.5269">CreateMapModeVSS()</text><polygon fill="#A80036" points="547,213.3833,557,217.3833,547,221.3833,551,217.3833" style="stroke: #A80036; stroke-width: 1.0;"/><line style="stroke: #A80036; stroke-width: 1.0;" x1="382" x2="553" y1="217.3833" y2="217.3833"/><text fill="#000000" font-family="sans-serif" font-size="13" lengthAdjust="spacingAndGlyphs" textLength="68" x="389" y="213.2813">&lt;&lt;create&gt;&gt;</text><path d="M13,263.1377 L74,263.1377 L74,272.1377 L64,282.1377 L13,282.1377 L13,263.1377 " fill="#EEEEEE" style="stroke: #000000; stroke-width: 1.0;"/><rect fill="none" height="83.2861" style="stroke: #000000; stroke-width: 2.0;" width="657.5" x="13" y="263.1377"/><text fill="#000000" font-family="sans-serif" font-size="13" font-weight="bold" lengthAdjust="spacingAndGlyphs" textLength="16" x="28" y="279.0356">alt</text><text fill="#000000" font-family="sans-serif" font-size="11" font-weight="bold" lengthAdjust="spacingAndGlyphs" textLength="43" x="89" y="277.7437">[delete]</text><polygon fill="#A80036" points="189.5,301.915,199.5,305.915,189.5,309.915,193.5,305.915" style="stroke: #A80036; stroke-width: 1.0;"/><line style="stroke: #A80036; stroke-width: 1.0;" x1="47.5" x2="195.5" y1="305.915" y2="305.915"/><text fill="#000000" font-family="sans-serif" font-size="13" lengthAdjust="spacingAndGlyphs" textLength="37" x="54.5" y="301.813">Delete</text><polygon fill="#A80036" points="552,333.6694,562,337.6694,552,341.6694,556,337.6694" style="stroke: #A80036; stroke-width: 1.0;"/><line style="stroke: #A80036; stroke-width: 1.0;" x1="382" x2="558" y1="337.6694" y2="337.6694"/><text fill="#000000" font-family="sans-serif" font-size="13" lengthAdjust="spacingAndGlyphs" textLength="75" x="389" y="333.5674">&lt;&lt;destroy&gt;&gt;</text><!--
@startuml
actor ":__User__" as User
boundary ":__LocalVSSManagerPage__" as LocalVSSManagerPage
control ":__LocalVSSLibraryControl__" as LocalVSSLibraryControl
entity ":__MapModeVirtualSoundSpace__" as MapModeVirtualSoundSpace

activate User
activate LocalVSSManagerPage
LocalVSSManagerPage -> LocalVSSLibraryControl: <<create>>
activate LocalVSSLibraryControl
User -> LocalVSSManagerPage: LocationData
User -> LocalVSSManagerPage: CreateMapModeVSS()
LocalVSSLibraryControl -> MapModeVirtualSoundSpace: <<create>>
activate MapModeVirtualSoundSpace
deactivate MapModeVirtualSoundSpace
alt delete
    User -> LocalVSSManagerPage: Delete
    activate MapModeVirtualSoundSpace
    LocalVSSLibraryControl -> MapModeVirtualSoundSpace: <<destroy>>
    deactivate MapModeVirtualSoundSpace
end
deactivate LocalVSSLibraryControl
deactivate LocalVSSManagerPage
deactivate User
@enduml

PlantUML version 1.2018.01(Mon Jan 29 02:08:22 CST 2018)
(GPL source distribution)
Java Runtime: Java(TM) SE Runtime Environment
JVM: Java HotSpot(TM) Client VM
Java Version: 1.8.0_144-b01
Operating System: Windows 10
OS Version: 10.0
Default Encoding: GBK
Language: zh
Country: CN
--></g></svg>