<?xml version="1.0" encoding="UTF-8" standalone="no"?><svg xmlns="http://www.w3.org/2000/svg" xmlns:xlink="http://www.w3.org/1999/xlink" contentScriptType="application/ecmascript" contentStyleType="text/css" height="421px" preserveAspectRatio="none" style="width:704px;height:421px;" version="1.1" viewBox="0 0 704 421"
    width="704px" zoomAndPan="magnify"><defs><filter height="300%" id="fh3juwbm21kdn" width="300%" x="-1" y="-1"><feGaussianBlur result="blurOut" stdDeviation="2.0"/><feColorMatrix in="blurOut" result="blurOut2" type="matrix" values="0 0 0 0 0 0 0 0 0 0 0 0 0 0 0 0 0 0 .4 0"/><feOffset dx="4.0" dy="4.0" in="blurOut2" result="blurOut3"/><feBlend in="SourceGraphic" in2="blurOut3" mode="normal"/></filter></defs><g><rect fill="#FFFFFF" filter="url(#fh3juwbm21kdn)" height="222.5493" style="stroke: #A80036; stroke-width: 1.0;" width="10" x="37.5" y="99.1201"/><rect fill="#FFFFFF" filter="url(#fh3juwbm21kdn)" height="222.5493" style="stroke: #A80036; stroke-width: 1.0;" width="10" x="201.5" y="99.1201"/><rect fill="#FFFFFF" filter="url(#fh3juwbm21kdn)" height="199.5493" style="stroke: #A80036; stroke-width: 1.0;" width="10" x="372" y="122.1201"/><rect fill="#FFFFFF" filter="url(#fh3juwbm21kdn)" height="30" style="stroke: #A80036; stroke-width: 1.0;" width="10" x="570.5" y="185.6289"/><rect fill="#FFFFFF" filter="url(#fh3juwbm21kdn)" height="31.7544" style="stroke: #A80036; stroke-width: 1.0;" width="10" x="570.5" y="274.1606"/><rect fill="#FFFFFF" filter="url(#fh3juwbm21kdn)" height="83.2861" style="stroke: #000000; stroke-width: 2.0;" width="680.5" x="13" y="231.3833"/><line style="stroke: #A80036; stroke-width: 1.0; stroke-dasharray: 5.0,5.0;" x1="42" x2="42" y1="89.1201" y2="331.6694"/><line style="stroke: #A80036; stroke-width: 1.0; stroke-dasharray: 5.0,5.0;" x1="206.5" x2="206.5" y1="89.1201" y2="331.6694"/><line style="stroke: #A80036; stroke-width: 1.0; stroke-dasharray: 5.0,5.0;" x1="376.5" x2="376.5" y1="89.1201" y2="331.6694"/><line style="stroke: #A80036; stroke-width: 1.0; stroke-dasharray: 5.0,5.0;" x1="575.5" x2="575.5" y1="89.1201" y2="331.6694"/><text fill="#000000" font-family="sans-serif" font-size="14" lengthAdjust="spacingAndGlyphs" textLength="4" x="23" y="86.0439">:</text><text fill="#000000" font-family="sans-serif" font-size="14" lengthAdjust="spacingAndGlyphs" text-decoration="underline" textLength="29" x="27" y="86.0439">User</text><line style="stroke: #000000; stroke-width: 1.0;" x1="27" x2="56" y1="88.0439" y2="88.0439"/><ellipse cx="42.5" cy="13" fill="#FEFECE" filter="url(#fh3juwbm21kdn)" rx="8" ry="8" style="stroke: #A80036; stroke-width: 2.0;"/><path d="M42.5,21 L42.5,48 M29.5,29 L55.5,29 M42.5,48 L29.5,63 M42.5,48 L55.5,63 " fill="none" filter="url(#fh3juwbm21kdn)" style="stroke: #A80036; stroke-width: 2.0;"/><text fill="#000000" font-family="sans-serif" font-size="14" lengthAdjust="spacingAndGlyphs" textLength="4" x="23" y="346.7134">:</text><text fill="#000000" font-family="sans-serif" font-size="14" lengthAdjust="spacingAndGlyphs" text-decoration="underline" textLength="29" x="27" y="346.7134">User</text><line style="stroke: #000000; stroke-width: 1.0;" x1="27" x2="56" y1="348.7134" y2="348.7134"/><ellipse cx="42.5" cy="359.7896" fill="#FEFECE" filter="url(#fh3juwbm21kdn)" rx="8" ry="8" style="stroke: #A80036; stroke-width: 2.0;"/><path d="M42.5,367.7896 L42.5,394.7896 M29.5,375.7896 L55.5,375.7896 M42.5,394.7896 L29.5,409.7896 M42.5,394.7896 L55.5,409.7896 " fill="none" filter="url(#fh3juwbm21kdn)" style="stroke: #A80036; stroke-width: 2.0;"/><text fill="#000000" font-family="sans-serif" font-size="14" lengthAdjust="spacingAndGlyphs" textLength="4" x="126.5" y="86.0439">:</text><text fill="#000000" font-family="sans-serif" font-size="14" lengthAdjust="spacingAndGlyphs" text-decoration="underline" textLength="150" x="130.5" y="86.0439">LocalVSSManagerPage</text><line style="stroke: #000000; stroke-width: 1.0;" x1="130.5" x2="280.5" y1="88.0439" y2="88.0439"/><path d="M186,42 L186,66 M186,54 L203,54 " fill="none" filter="url(#fh3juwbm21kdn)" style="stroke: #A80036; stroke-width: 2.0;"/><ellipse cx="215" cy="54" fill="#FEFECE" filter="url(#fh3juwbm21kdn)" rx="12" ry="12" style="stroke: #A80036; stroke-width: 2.0;"/><text fill="#000000" font-family="sans-serif" font-size="14" lengthAdjust="spacingAndGlyphs" textLength="4" x="126.5" y="346.7134">:</text><text fill="#000000" font-family="sans-serif" font-size="14" lengthAdjust="spacingAndGlyphs" text-decoration="underline" textLength="150" x="130.5" y="346.7134">LocalVSSManagerPage</text><line style="stroke: #000000; stroke-width: 1.0;" x1="130.5" x2="280.5" y1="348.7134" y2="348.7134"/><path d="M186,353.7896 L186,377.7896 M186,365.7896 L203,365.7896 " fill="none" filter="url(#fh3juwbm21kdn)" style="stroke: #A80036; stroke-width: 2.0;"/><ellipse cx="215" cy="365.7896" fill="#FEFECE" filter="url(#fh3juwbm21kdn)" rx="12" ry="12" style="stroke: #A80036; stroke-width: 2.0;"/><text fill="#000000" font-family="sans-serif" font-size="14" lengthAdjust="spacingAndGlyphs" textLength="4" x="296.5" y="86.0439">:</text><text fill="#000000" font-family="sans-serif" font-size="14" lengthAdjust="spacingAndGlyphs" text-decoration="underline" textLength="151" x="300.5" y="86.0439">LocalVSSLibraryControl</text><line style="stroke: #000000; stroke-width: 1.0;" x1="300.5" x2="451.5" y1="88.0439" y2="88.0439"/><ellipse cx="377" cy="54" fill="#FEFECE" filter="url(#fh3juwbm21kdn)" rx="12" ry="12" style="stroke: #A80036; stroke-width: 2.0;"/><polygon fill="#A80036" points="373,42,379,37,377,42,379,47,373,42" style="stroke: #A80036; stroke-width: 1.0;"/><text fill="#000000" font-family="sans-serif" font-size="14" lengthAdjust="spacingAndGlyphs" textLength="4" x="296.5" y="346.7134">:</text><text fill="#000000" font-family="sans-serif" font-size="14" lengthAdjust="spacingAndGlyphs" text-decoration="underline" textLength="151" x="300.5" y="346.7134">LocalVSSLibraryControl</text><line style="stroke: #000000; stroke-width: 1.0;" x1="300.5" x2="451.5" y1="348.7134" y2="348.7134"/><ellipse cx="377" cy="365.7896" fill="#FEFECE" filter="url(#fh3juwbm21kdn)" rx="12" ry="12" style="stroke: #A80036; stroke-width: 2.0;"/><polygon fill="#A80036" points="373,353.7896,379,348.7896,377,353.7896,379,358.7896,373,353.7896" style="stroke: #A80036; stroke-width: 1.0;"/><text fill="#000000" font-family="sans-serif" font-size="14" lengthAdjust="spacingAndGlyphs" textLength="4" x="467.5" y="86.0439">:</text><text fill="#000000" font-family="sans-serif" font-size="14" lengthAdjust="spacingAndGlyphs" text-decoration="underline" textLength="206" x="471.5" y="86.0439">ConcertModeVirtualSoundSpace</text><line style="stroke: #000000; stroke-width: 1.0;" x1="471.5" x2="677.5" y1="88.0439" y2="88.0439"/><ellipse cx="575.5" cy="54" fill="#FEFECE" filter="url(#fh3juwbm21kdn)" rx="12" ry="12" style="stroke: #A80036; stroke-width: 2.0;"/><line style="stroke: #A80036; stroke-width: 2.0;" x1="563.5" x2="587.5" y1="68" y2="68"/><text fill="#000000" font-family="sans-serif" font-size="14" lengthAdjust="spacingAndGlyphs" textLength="4" x="467.5" y="346.7134">:</text><text fill="#000000" font-family="sans-serif" font-size="14" lengthAdjust="spacingAndGlyphs" text-decoration="underline" textLength="206" x="471.5" y="346.7134">ConcertModeVirtualSoundSpace</text><line style="stroke: #000000; stroke-width: 1.0;" x1="471.5" x2="677.5" y1="348.7134" y2="348.7134"/><ellipse cx="575.5" cy="365.7896" fill="#FEFECE" filter="url(#fh3juwbm21kdn)" rx="12" ry="12" style="stroke: #A80036; stroke-width: 2.0;"/><line style="stroke: #A80036; stroke-width: 2.0;" x1="563.5" x2="587.5" y1="379.7896" y2="379.7896"/><rect fill="#FFFFFF" filter="url(#fh3juwbm21kdn)" height="222.5493" style="stroke: #A80036; stroke-width: 1.0;" width="10" x="37.5" y="99.1201"/><rect fill="#FFFFFF" filter="url(#fh3juwbm21kdn)" height="222.5493" style="stroke: #A80036; stroke-width: 1.0;" width="10" x="201.5" y="99.1201"/><rect fill="#FFFFFF" filter="url(#fh3juwbm21kdn)" height="199.5493" style="stroke: #A80036; stroke-width: 1.0;" width="10" x="372" y="122.1201"/><rect fill="#FFFFFF" filter="url(#fh3juwbm21kdn)" height="30" style="stroke: #A80036; stroke-width: 1.0;" width="10" x="570.5" y="185.6289"/><rect fill="#FFFFFF" filter="url(#fh3juwbm21kdn)" height="31.7544" style="stroke: #A80036; stroke-width: 1.0;" width="10" x="570.5" y="274.1606"/><polygon fill="#A80036" points="360,118.1201,370,122.1201,360,126.1201,364,122.1201" style="stroke: #A80036; stroke-width: 1.0;"/><line style="stroke: #A80036; stroke-width: 1.0;" x1="211.5" x2="366" y1="122.1201" y2="122.1201"/><text fill="#000000" font-family="sans-serif" font-size="13" lengthAdjust="spacingAndGlyphs" textLength="68" x="218.5" y="118.0181">&lt;&lt;create&gt;&gt;</text><polygon fill="#A80036" points="189.5,149.8745,199.5,153.8745,189.5,157.8745,193.5,153.8745" style="stroke: #A80036; stroke-width: 1.0;"/><line style="stroke: #A80036; stroke-width: 1.0;" x1="47.5" x2="195.5" y1="153.8745" y2="153.8745"/><text fill="#000000" font-family="sans-serif" font-size="13" lengthAdjust="spacingAndGlyphs" textLength="130" x="54.5" y="149.7725">CreateMapModeVSS()</text><polygon fill="#A80036" points="558.5,181.6289,568.5,185.6289,558.5,189.6289,562.5,185.6289" style="stroke: #A80036; stroke-width: 1.0;"/><line style="stroke: #A80036; stroke-width: 1.0;" x1="382" x2="564.5" y1="185.6289" y2="185.6289"/><text fill="#000000" font-family="sans-serif" font-size="13" lengthAdjust="spacingAndGlyphs" textLength="68" x="389" y="181.5269">&lt;&lt;create&gt;&gt;</text><path d="M13,231.3833 L74,231.3833 L74,240.3833 L64,250.3833 L13,250.3833 L13,231.3833 " fill="#EEEEEE" style="stroke: #000000; stroke-width: 1.0;"/><rect fill="none" height="83.2861" style="stroke: #000000; stroke-width: 2.0;" width="680.5" x="13" y="231.3833"/><text fill="#000000" font-family="sans-serif" font-size="13" font-weight="bold" lengthAdjust="spacingAndGlyphs" textLength="16" x="28" y="247.2813">alt</text><text fill="#000000" font-family="sans-serif" font-size="11" font-weight="bold" lengthAdjust="spacingAndGlyphs" textLength="43" x="89" y="245.9893">[delete]</text><polygon fill="#A80036" points="189.5,270.1606,199.5,274.1606,189.5,278.1606,193.5,274.1606" style="stroke: #A80036; stroke-width: 1.0;"/><line style="stroke: #A80036; stroke-width: 1.0;" x1="47.5" x2="195.5" y1="274.1606" y2="274.1606"/><text fill="#000000" font-family="sans-serif" font-size="13" lengthAdjust="spacingAndGlyphs" textLength="37" x="54.5" y="270.0586">Delete</text><polygon fill="#A80036" points="563.5,301.915,573.5,305.915,563.5,309.915,567.5,305.915" style="stroke: #A80036; stroke-width: 1.0;"/><line style="stroke: #A80036; stroke-width: 1.0;" x1="382" x2="569.5" y1="305.915" y2="305.915"/><text fill="#000000" font-family="sans-serif" font-size="13" lengthAdjust="spacingAndGlyphs" textLength="75" x="389" y="301.813">&lt;&lt;destroy&gt;&gt;</text><!--
@startuml
actor ":__User__" as User
boundary ":__LocalVSSManagerPage__" as LocalVSSManagerPage
control ":__LocalVSSLibraryControl__" as LocalVSSLibraryControl
entity ":__ConcertModeVirtualSoundSpace__" as ConcertModeVirtualSoundSpace

activate User
activate LocalVSSManagerPage
LocalVSSManagerPage -> LocalVSSLibraryControl: <<create>>
activate LocalVSSLibraryControl
User -> LocalVSSManagerPage: CreateMapModeVSS()
LocalVSSLibraryControl -> ConcertModeVirtualSoundSpace: <<create>>
activate ConcertModeVirtualSoundSpace
deactivate ConcertModeVirtualSoundSpace
alt delete
    User -> LocalVSSManagerPage: Delete
    activate ConcertModeVirtualSoundSpace
    LocalVSSLibraryControl -> ConcertModeVirtualSoundSpace: <<destroy>>
    deactivate ConcertModeVirtualSoundSpace
end
deactivate LocalVSSLibraryControl
deactivate LocalVSSManagerPage
deactivate User
@enduml

PlantUML version 1.2018.01(Mon Jan 29 02:08:22 CST 2018)
(GPL source distribution)
Java Runtime: Java(TM) SE Runtime Environment
JVM: Java HotSpot(TM) Client VM
Java Version: 1.8.0_144-b01
Operating System: Windows 10
OS Version: 10.0
Default Encoding: GBK
Language: zh
Country: CN
--></g></svg>