<?xml version="1.0" encoding="UTF-8" standalone="no"?><svg xmlns="http://www.w3.org/2000/svg" xmlns:xlink="http://www.w3.org/1999/xlink" contentScriptType="application/ecmascript" contentStyleType="text/css" height="506px" preserveAspectRatio="none" style="width:421px;height:506px;" version="1.1" viewBox="0 0 421 506"
    width="421px" zoomAndPan="magnify"><defs><filter height="300%" id="f1hdetc9nimy8t" width="300%" x="-1" y="-1"><feGaussianBlur result="blurOut" stdDeviation="2.0"/><feColorMatrix in="blurOut" result="blurOut2" type="matrix" values="0 0 0 0 0 0 0 0 0 0 0 0 0 0 0 0 0 0 .4 0"/><feOffset dx="4.0" dy="4.0" in="blurOut2" result="blurOut3"/><feBlend in="SourceGraphic" in2="blurOut3" mode="normal"/></filter></defs><g><rect fill="#FFFFFF" filter="url(#f1hdetc9nimy8t)" height="51.5317" style="stroke: #000000; stroke-width: 2.0;" width="195.5" x="13" y="201.3833"/><rect fill="#FFFFFF" filter="url(#f1hdetc9nimy8t)" height="100.3091" style="stroke: #000000; stroke-width: 2.0;" width="281.5" x="127.5" y="266.915"/><rect fill="#FFFFFF" height="48.7773" style="stroke: none; stroke-width: 1.0;" width="281.5" x="127.5" y="318.4468"/><line style="stroke: #A80036; stroke-width: 1.0; stroke-dasharray: 5.0,5.0;" x1="40" x2="40" y1="89.1201" y2="415.9785"/><line style="stroke: #A80036; stroke-width: 1.0; stroke-dasharray: 5.0,5.0;" x1="167.5" x2="167.5" y1="89.1201" y2="415.9785"/><line style="stroke: #A80036; stroke-width: 1.0; stroke-dasharray: 5.0,5.0;" x1="334" x2="334" y1="89.1201" y2="415.9785"/><text fill="#000000" font-family="sans-serif" font-size="14" lengthAdjust="spacingAndGlyphs" textLength="28" x="23" y="86.0439">user</text><ellipse cx="40" cy="13" fill="#FEFECE" filter="url(#f1hdetc9nimy8t)" rx="8" ry="8" style="stroke: #A80036; stroke-width: 2.0;"/><path d="M40,21 L40,48 M27,29 L53,29 M40,48 L27,63 M40,48 L53,63 " fill="none" filter="url(#f1hdetc9nimy8t)" style="stroke: #A80036; stroke-width: 2.0;"/><text fill="#000000" font-family="sans-serif" font-size="14" lengthAdjust="spacingAndGlyphs" textLength="28" x="23" y="431.0225">user</text><ellipse cx="40" cy="444.0986" fill="#FEFECE" filter="url(#f1hdetc9nimy8t)" rx="8" ry="8" style="stroke: #A80036; stroke-width: 2.0;"/><path d="M40,452.0986 L40,479.0986 M27,460.0986 L53,460.0986 M40,479.0986 L27,494.0986 M40,479.0986 L53,494.0986 " fill="none" filter="url(#f1hdetc9nimy8t)" style="stroke: #A80036; stroke-width: 2.0;"/><text fill="#000000" font-family="sans-serif" font-size="14" lengthAdjust="spacingAndGlyphs" textLength="55" x="137.5" y="86.0439">interface</text><path d="M147.5,42 L147.5,66 M147.5,54 L164.5,54 " fill="none" filter="url(#f1hdetc9nimy8t)" style="stroke: #A80036; stroke-width: 2.0;"/><ellipse cx="176.5" cy="54" fill="#FEFECE" filter="url(#f1hdetc9nimy8t)" rx="12" ry="12" style="stroke: #A80036; stroke-width: 2.0;"/><text fill="#000000" font-family="sans-serif" font-size="14" lengthAdjust="spacingAndGlyphs" textLength="55" x="137.5" y="431.0225">interface</text><path d="M147.5,438.0986 L147.5,462.0986 M147.5,450.0986 L164.5,450.0986 " fill="none" filter="url(#f1hdetc9nimy8t)" style="stroke: #A80036; stroke-width: 2.0;"/><ellipse cx="176.5" cy="450.0986" fill="#FEFECE" filter="url(#f1hdetc9nimy8t)" rx="12" ry="12" style="stroke: #A80036; stroke-width: 2.0;"/><text fill="#000000" font-family="sans-serif" font-size="14" lengthAdjust="spacingAndGlyphs" textLength="124" x="269" y="86.0439">mapManageControl</text><ellipse cx="334" cy="54" fill="#FEFECE" filter="url(#f1hdetc9nimy8t)" rx="12" ry="12" style="stroke: #A80036; stroke-width: 2.0;"/><polygon fill="#A80036" points="330,42,336,37,334,42,336,47,330,42" style="stroke: #A80036; stroke-width: 1.0;"/><text fill="#000000" font-family="sans-serif" font-size="14" lengthAdjust="spacingAndGlyphs" textLength="124" x="269" y="431.0225">mapManageControl</text><ellipse cx="334" cy="450.0986" fill="#FEFECE" filter="url(#f1hdetc9nimy8t)" rx="12" ry="12" style="stroke: #A80036; stroke-width: 2.0;"/><polygon fill="#A80036" points="330,438.0986,336,433.0986,334,438.0986,336,443.0986,330,438.0986" style="stroke: #A80036; stroke-width: 1.0;"/><polygon fill="#A80036" points="156,118.1201,166,122.1201,156,126.1201,160,122.1201" style="stroke: #A80036; stroke-width: 1.0;"/><line style="stroke: #A80036; stroke-width: 1.0;" x1="40" x2="162" y1="122.1201" y2="122.1201"/><text fill="#000000" font-family="sans-serif" font-size="13" lengthAdjust="spacingAndGlyphs" textLength="65" x="47" y="118.0181">CreateVSS</text><polygon fill="#A80036" points="51,149.8745,41,153.8745,51,157.8745,47,153.8745" style="stroke: #A80036; stroke-width: 1.0;"/><line style="stroke: #A80036; stroke-width: 1.0;" x1="45" x2="167" y1="153.8745" y2="153.8745"/><text fill="#000000" font-family="sans-serif" font-size="13" lengthAdjust="spacingAndGlyphs" textLength="39" x="57" y="149.7725">mode?</text><polygon fill="#A80036" points="156,181.6289,166,185.6289,156,189.6289,160,185.6289" style="stroke: #A80036; stroke-width: 1.0;"/><line style="stroke: #A80036; stroke-width: 1.0;" x1="40" x2="162" y1="185.6289" y2="185.6289"/><text fill="#000000" font-family="sans-serif" font-size="13" lengthAdjust="spacingAndGlyphs" textLength="32" x="47" y="181.5269">mode</text><path d="M13,201.3833 L74,201.3833 L74,210.3833 L64,220.3833 L13,220.3833 L13,201.3833 " fill="#EEEEEE" style="stroke: #000000; stroke-width: 1.0;"/><rect fill="none" height="51.5317" style="stroke: #000000; stroke-width: 2.0;" width="195.5" x="13" y="201.3833"/><text fill="#000000" font-family="sans-serif" font-size="13" font-weight="bold" lengthAdjust="spacingAndGlyphs" textLength="16" x="28" y="217.2813">alt</text><text fill="#000000" font-family="sans-serif" font-size="11" font-weight="bold" lengthAdjust="spacingAndGlyphs" textLength="43" x="89" y="215.9893">[cancel]</text><polygon fill="#A80036" points="51,240.1606,41,244.1606,51,248.1606,47,244.1606" style="stroke: #A80036; stroke-width: 1.0;"/><line style="stroke: #A80036; stroke-width: 1.0;" x1="45" x2="167" y1="244.1606" y2="244.1606"/><text fill="#000000" font-family="sans-serif" font-size="13" lengthAdjust="spacingAndGlyphs" textLength="104" x="57" y="240.0586">ManageLocalVSS</text><path d="M127.5,266.915 L188.5,266.915 L188.5,275.915 L178.5,285.915 L127.5,285.915 L127.5,266.915 " fill="#EEEEEE" style="stroke: #000000; stroke-width: 1.0;"/><rect fill="none" height="100.3091" style="stroke: #000000; stroke-width: 2.0;" width="281.5" x="127.5" y="266.915"/><text fill="#000000" font-family="sans-serif" font-size="13" font-weight="bold" lengthAdjust="spacingAndGlyphs" textLength="16" x="142.5" y="282.813">alt</text><text fill="#000000" font-family="sans-serif" font-size="11" font-weight="bold" lengthAdjust="spacingAndGlyphs" textLength="64" x="203.5" y="281.521">[mapmode]</text><polygon fill="#A80036" points="322,305.6924,332,309.6924,322,313.6924,326,309.6924" style="stroke: #A80036; stroke-width: 1.0;"/><line style="stroke: #A80036; stroke-width: 1.0;" x1="168" x2="328" y1="309.6924" y2="309.6924"/><text fill="#000000" font-family="sans-serif" font-size="13" lengthAdjust="spacingAndGlyphs" textLength="122" x="175" y="305.5903">CreateMapModeVSS</text><line style="stroke: #000000; stroke-width: 1.0; stroke-dasharray: 2.0,2.0;" x1="127.5" x2="409" y1="319.4468" y2="319.4468"/><text fill="#000000" font-family="sans-serif" font-size="11" font-weight="bold" lengthAdjust="spacingAndGlyphs" textLength="82" x="132.5" y="332.0527">[concertmode]</text><polygon fill="#A80036" points="322,354.4697,332,358.4697,322,362.4697,326,358.4697" style="stroke: #A80036; stroke-width: 1.0;"/><line style="stroke: #A80036; stroke-width: 1.0;" x1="168" x2="328" y1="358.4697" y2="358.4697"/><text fill="#000000" font-family="sans-serif" font-size="13" lengthAdjust="spacingAndGlyphs" textLength="142" x="175" y="354.3677">CreateConcertModeVSS</text><polygon fill="#A80036" points="51,393.2241,41,397.2241,51,401.2241,47,397.2241" style="stroke: #A80036; stroke-width: 1.0;"/><line style="stroke: #A80036; stroke-width: 1.0;" x1="45" x2="167" y1="397.2241" y2="397.2241"/><text fill="#000000" font-family="sans-serif" font-size="13" lengthAdjust="spacingAndGlyphs" textLength="104" x="57" y="393.1221">ManageLocalVSS</text><!--
@startuml
actor user
boundary interface
control mapManageControl

user -> interface: CreateVSS
interface -> user: mode?
user -> interface: mode

alt cancel
    interface -> user: ManageLocalVSS
end

alt mapmode
    interface -> mapManageControl: CreateMapModeVSS
else concertmode
    interface -> mapManageControl: CreateConcertModeVSS
end
interface -> user: ManageLocalVSS
@enduml

PlantUML version 1.2018.01(Mon Jan 29 02:08:22 CST 2018)
(GPL source distribution)
Java Runtime: Java(TM) SE Runtime Environment
JVM: Java HotSpot(TM) Client VM
Java Version: 1.8.0_144-b01
Operating System: Windows 10
OS Version: 10.0
Default Encoding: GBK
Language: zh
Country: CN
--></g></svg>