<?xml version="1.0" encoding="UTF-8" standalone="no"?><svg xmlns="http://www.w3.org/2000/svg" xmlns:xlink="http://www.w3.org/1999/xlink" contentScriptType="application/ecmascript" contentStyleType="text/css" height="567px" preserveAspectRatio="none" style="width:508px;height:567px;" version="1.1" viewBox="0 0 508 567"
    width="508px" zoomAndPan="magnify"><defs><filter height="300%" id="fuf2prs2n50mq" width="300%" x="-1" y="-1"><feGaussianBlur result="blurOut" stdDeviation="2.0"/><feColorMatrix in="blurOut" result="blurOut2" type="matrix" values="0 0 0 0 0 0 0 0 0 0 0 0 0 0 0 0 0 0 .4 0"/><feOffset dx="4.0" dy="4.0" in="blurOut2" result="blurOut3"/><feBlend in="SourceGraphic" in2="blurOut3" mode="normal"/></filter></defs><g><rect fill="#FFFFFF" filter="url(#fuf2prs2n50mq)" height="195.5723" style="stroke: #000000; stroke-width: 2.0;" width="483.5" x="13" y="264.8921"/><rect fill="#FFFFFF" height="48.7773" style="stroke: none; stroke-width: 1.0;" width="483.5" x="13" y="411.687"/><line style="stroke: #A80036; stroke-width: 1.0; stroke-dasharray: 5.0,5.0;" x1="40" x2="40" y1="89.1201" y2="477.4644"/><line style="stroke: #A80036; stroke-width: 1.0; stroke-dasharray: 5.0,5.0;" x1="167.5" x2="167.5" y1="89.1201" y2="477.4644"/><line style="stroke: #A80036; stroke-width: 1.0; stroke-dasharray: 5.0,5.0;" x1="270.5" x2="270.5" y1="89.1201" y2="477.4644"/><line style="stroke: #A80036; stroke-width: 1.0; stroke-dasharray: 5.0,5.0;" x1="369.5" x2="369.5" y1="89.1201" y2="477.4644"/><line style="stroke: #A80036; stroke-width: 1.0; stroke-dasharray: 5.0,5.0;" x1="446.5" x2="446.5" y1="89.1201" y2="477.4644"/><text fill="#000000" font-family="sans-serif" font-size="14" lengthAdjust="spacingAndGlyphs" textLength="28" x="23" y="86.0439">user</text><ellipse cx="40" cy="13" fill="#FEFECE" filter="url(#fuf2prs2n50mq)" rx="8" ry="8" style="stroke: #A80036; stroke-width: 2.0;"/><path d="M40,21 L40,48 M27,29 L53,29 M40,48 L27,63 M40,48 L53,63 " fill="none" filter="url(#fuf2prs2n50mq)" style="stroke: #A80036; stroke-width: 2.0;"/><text fill="#000000" font-family="sans-serif" font-size="14" lengthAdjust="spacingAndGlyphs" textLength="28" x="23" y="492.5083">user</text><ellipse cx="40" cy="505.5845" fill="#FEFECE" filter="url(#fuf2prs2n50mq)" rx="8" ry="8" style="stroke: #A80036; stroke-width: 2.0;"/><path d="M40,513.5845 L40,540.5845 M27,521.5845 L53,521.5845 M40,540.5845 L27,555.5845 M40,540.5845 L53,555.5845 " fill="none" filter="url(#fuf2prs2n50mq)" style="stroke: #A80036; stroke-width: 2.0;"/><text fill="#000000" font-family="sans-serif" font-size="14" lengthAdjust="spacingAndGlyphs" textLength="55" x="137.5" y="86.0439">interface</text><path d="M147.5,42 L147.5,66 M147.5,54 L164.5,54 " fill="none" filter="url(#fuf2prs2n50mq)" style="stroke: #A80036; stroke-width: 2.0;"/><ellipse cx="176.5" cy="54" fill="#FEFECE" filter="url(#fuf2prs2n50mq)" rx="12" ry="12" style="stroke: #A80036; stroke-width: 2.0;"/><text fill="#000000" font-family="sans-serif" font-size="14" lengthAdjust="spacingAndGlyphs" textLength="55" x="137.5" y="492.5083">interface</text><path d="M147.5,499.5845 L147.5,523.5845 M147.5,511.5845 L164.5,511.5845 " fill="none" filter="url(#fuf2prs2n50mq)" style="stroke: #A80036; stroke-width: 2.0;"/><ellipse cx="176.5" cy="511.5845" fill="#FEFECE" filter="url(#fuf2prs2n50mq)" rx="12" ry="12" style="stroke: #A80036; stroke-width: 2.0;"/><text fill="#000000" font-family="sans-serif" font-size="14" lengthAdjust="spacingAndGlyphs" textLength="118" x="208.5" y="86.0439">vssManageControl</text><ellipse cx="270.5" cy="54" fill="#FEFECE" filter="url(#fuf2prs2n50mq)" rx="12" ry="12" style="stroke: #A80036; stroke-width: 2.0;"/><polygon fill="#A80036" points="266.5,42,272.5,37,270.5,42,272.5,47,266.5,42" style="stroke: #A80036; stroke-width: 1.0;"/><text fill="#000000" font-family="sans-serif" font-size="14" lengthAdjust="spacingAndGlyphs" textLength="118" x="208.5" y="492.5083">vssManageControl</text><ellipse cx="270.5" cy="511.5845" fill="#FEFECE" filter="url(#fuf2prs2n50mq)" rx="12" ry="12" style="stroke: #A80036; stroke-width: 2.0;"/><polygon fill="#A80036" points="266.5,499.5845,272.5,494.5845,270.5,499.5845,272.5,504.5845,266.5,499.5845" style="stroke: #A80036; stroke-width: 1.0;"/><text fill="#000000" font-family="sans-serif" font-size="14" lengthAdjust="spacingAndGlyphs" textLength="48" x="342.5" y="86.0439">storage</text><path d="M351.5,34 C351.5,24 369.5,24 369.5,24 C369.5,24 387.5,24 387.5,34 L387.5,60 C387.5,70 369.5,70 369.5,70 C369.5,70 351.5,70 351.5,60 L351.5,34 " fill="#FEFECE" filter="url(#fuf2prs2n50mq)" style="stroke: #000000; stroke-width: 1.5;"/><path d="M351.5,34 C351.5,44 369.5,44 369.5,44 C369.5,44 387.5,44 387.5,34 " fill="none" style="stroke: #000000; stroke-width: 1.5;"/><text fill="#000000" font-family="sans-serif" font-size="14" lengthAdjust="spacingAndGlyphs" textLength="48" x="342.5" y="492.5083">storage</text><path d="M351.5,505.5845 C351.5,495.5845 369.5,495.5845 369.5,495.5845 C369.5,495.5845 387.5,495.5845 387.5,505.5845 L387.5,531.5845 C387.5,541.5845 369.5,541.5845 369.5,541.5845 C369.5,541.5845 351.5,541.5845 351.5,531.5845 L351.5,505.5845 " fill="#FEFECE" filter="url(#fuf2prs2n50mq)" style="stroke: #000000; stroke-width: 1.5;"/><path d="M351.5,505.5845 C351.5,515.5845 369.5,515.5845 369.5,515.5845 C369.5,515.5845 387.5,515.5845 387.5,505.5845 " fill="none" style="stroke: #000000; stroke-width: 1.5;"/><text fill="#000000" font-family="sans-serif" font-size="14" lengthAdjust="spacingAndGlyphs" textLength="74" x="406.5" y="86.0439">savedAudio</text><ellipse cx="446.5" cy="54" fill="#FEFECE" filter="url(#fuf2prs2n50mq)" rx="12" ry="12" style="stroke: #A80036; stroke-width: 2.0;"/><line style="stroke: #A80036; stroke-width: 2.0;" x1="434.5" x2="458.5" y1="68" y2="68"/><text fill="#000000" font-family="sans-serif" font-size="14" lengthAdjust="spacingAndGlyphs" textLength="74" x="406.5" y="492.5083">savedAudio</text><ellipse cx="446.5" cy="511.5845" fill="#FEFECE" filter="url(#fuf2prs2n50mq)" rx="12" ry="12" style="stroke: #A80036; stroke-width: 2.0;"/><line style="stroke: #A80036; stroke-width: 2.0;" x1="434.5" x2="458.5" y1="525.5845" y2="525.5845"/><polygon fill="#A80036" points="156,118.1201,166,122.1201,156,126.1201,160,122.1201" style="stroke: #A80036; stroke-width: 1.0;"/><line style="stroke: #A80036; stroke-width: 1.0;" x1="40" x2="162" y1="122.1201" y2="122.1201"/><text fill="#000000" font-family="sans-serif" font-size="13" lengthAdjust="spacingAndGlyphs" textLength="64" x="47" y="118.0181">DeleteVSS</text><polygon fill="#A80036" points="51,149.8745,41,153.8745,51,157.8745,47,153.8745" style="stroke: #A80036; stroke-width: 1.0;"/><line style="stroke: #A80036; stroke-width: 1.0;" x1="45" x2="167" y1="153.8745" y2="153.8745"/><text fill="#000000" font-family="sans-serif" font-size="13" lengthAdjust="spacingAndGlyphs" textLength="67" x="57" y="149.7725">delete page</text><polygon fill="#A80036" points="156,181.6289,166,185.6289,156,189.6289,160,185.6289" style="stroke: #A80036; stroke-width: 1.0;"/><line style="stroke: #A80036; stroke-width: 1.0;" x1="40" x2="162" y1="185.6289" y2="185.6289"/><text fill="#000000" font-family="sans-serif" font-size="13" lengthAdjust="spacingAndGlyphs" textLength="71" x="47" y="181.5269">delete name</text><polygon fill="#A80036" points="51,213.3833,41,217.3833,51,221.3833,47,217.3833" style="stroke: #A80036; stroke-width: 1.0;"/><line style="stroke: #A80036; stroke-width: 1.0;" x1="45" x2="167" y1="217.3833" y2="217.3833"/><text fill="#000000" font-family="sans-serif" font-size="13" lengthAdjust="spacingAndGlyphs" textLength="49" x="57" y="213.2813">confirm?</text><polygon fill="#A80036" points="156,245.1377,166,249.1377,156,253.1377,160,249.1377" style="stroke: #A80036; stroke-width: 1.0;"/><line style="stroke: #A80036; stroke-width: 1.0;" x1="40" x2="162" y1="249.1377" y2="249.1377"/><text fill="#000000" font-family="sans-serif" font-size="13" lengthAdjust="spacingAndGlyphs" textLength="53" x="47" y="245.0356">message</text><path d="M13,264.8921 L74,264.8921 L74,273.8921 L64,283.8921 L13,283.8921 L13,264.8921 " fill="#EEEEEE" style="stroke: #000000; stroke-width: 1.0;"/><rect fill="none" height="195.5723" style="stroke: #000000; stroke-width: 2.0;" width="483.5" x="13" y="264.8921"/><text fill="#000000" font-family="sans-serif" font-size="13" font-weight="bold" lengthAdjust="spacingAndGlyphs" textLength="16" x="28" y="280.79">alt</text><text fill="#000000" font-family="sans-serif" font-size="11" font-weight="bold" lengthAdjust="spacingAndGlyphs" textLength="51" x="89" y="279.498">[confirm]</text><polygon fill="#A80036" points="258.5,303.6694,268.5,307.6694,258.5,311.6694,262.5,307.6694" style="stroke: #A80036; stroke-width: 1.0;"/><line style="stroke: #A80036; stroke-width: 1.0;" x1="168" x2="264.5" y1="307.6694" y2="307.6694"/><text fill="#000000" font-family="sans-serif" font-size="13" lengthAdjust="spacingAndGlyphs" textLength="71" x="175" y="303.5674">delete name</text><polygon fill="#A80036" points="357.5,335.4238,367.5,339.4238,357.5,343.4238,361.5,339.4238" style="stroke: #A80036; stroke-width: 1.0;"/><line style="stroke: #A80036; stroke-width: 1.0;" x1="270.5" x2="363.5" y1="339.4238" y2="339.4238"/><text fill="#000000" font-family="sans-serif" font-size="13" lengthAdjust="spacingAndGlyphs" textLength="71" x="277.5" y="335.3218">delete name</text><polygon fill="#A80036" points="434.5,367.1782,444.5,371.1782,434.5,375.1782,438.5,371.1782" style="stroke: #A80036; stroke-width: 1.0;"/><line style="stroke: #A80036; stroke-width: 1.0;" x1="369.5" x2="440.5" y1="371.1782" y2="371.1782"/><text fill="#000000" font-family="sans-serif" font-size="13" lengthAdjust="spacingAndGlyphs" textLength="35" x="376.5" y="367.0762">delete</text><polygon fill="#A80036" points="51,398.9326,41,402.9326,51,406.9326,47,402.9326" style="stroke: #A80036; stroke-width: 1.0;"/><line style="stroke: #A80036; stroke-width: 1.0;" x1="45" x2="167" y1="402.9326" y2="402.9326"/><text fill="#000000" font-family="sans-serif" font-size="13" lengthAdjust="spacingAndGlyphs" textLength="104" x="57" y="398.8306">ManageLocalVSS</text><line style="stroke: #000000; stroke-width: 1.0; stroke-dasharray: 2.0,2.0;" x1="13" x2="496.5" y1="412.687" y2="412.687"/><text fill="#000000" font-family="sans-serif" font-size="11" font-weight="bold" lengthAdjust="spacingAndGlyphs" textLength="43" x="18" y="425.293">[cancel]</text><polygon fill="#A80036" points="51,447.71,41,451.71,51,455.71,47,451.71" style="stroke: #A80036; stroke-width: 1.0;"/><line style="stroke: #A80036; stroke-width: 1.0;" x1="45" x2="167" y1="451.71" y2="451.71"/><text fill="#000000" font-family="sans-serif" font-size="13" lengthAdjust="spacingAndGlyphs" textLength="104" x="57" y="447.6079">ManageLocalVSS</text><!--
@startuml
actor user
boundary interface
control vssManageControl
database storage
entity savedAudio

user -> interface: DeleteVSS
interface -> user: delete page
user -> interface: delete name
interface -> user: confirm?
user -> interface: message

alt confirm
    interface -> vssManageControl: delete name
    vssManageControl -> storage: delete name
    storage -> savedAudio: delete
    interface -> user: ManageLocalVSS
else cancel
    interface -> user: ManageLocalVSS
end

@enduml

PlantUML version 1.2018.01(Mon Jan 29 02:08:22 CST 2018)
(GPL source distribution)
Java Runtime: Java(TM) SE Runtime Environment
JVM: Java HotSpot(TM) Client VM
Java Version: 1.8.0_144-b01
Operating System: Windows 10
OS Version: 10.0
Default Encoding: GBK
Language: zh
Country: CN
--></g></svg>