<?xml version="1.0" encoding="UTF-8" standalone="no"?><svg xmlns="http://www.w3.org/2000/svg" xmlns:xlink="http://www.w3.org/1999/xlink" contentScriptType="application/ecmascript" contentStyleType="text/css" height="388px" preserveAspectRatio="none" style="width:596px;height:388px;" version="1.1" viewBox="0 0 596 388"
    width="596px" zoomAndPan="magnify"><defs><filter height="300%" id="f1ng4z47bpimxv" width="300%" x="-1" y="-1"><feGaussianBlur result="blurOut" stdDeviation="2.0"/><feColorMatrix in="blurOut" result="blurOut2" type="matrix" values="0 0 0 0 0 0 0 0 0 0 0 0 0 0 0 0 0 0 .4 0"/><feOffset dx="4.0" dy="4.0" in="blurOut2" result="blurOut3"/><feBlend in="SourceGraphic" in2="blurOut3" mode="normal"/></filter></defs><g><rect fill="#FFFFFF" filter="url(#f1ng4z47bpimxv)" height="118.2632" style="stroke: #A80036; stroke-width: 1.0;" width="10" x="22.5" y="99.1201"/><rect fill="#FFFFFF" filter="url(#f1ng4z47bpimxv)" height="118.2632" style="stroke: #A80036; stroke-width: 1.0;" width="10" x="155.5" y="99.1201"/><rect fill="#FFFFFF" filter="url(#f1ng4z47bpimxv)" height="157.0176" style="stroke: #A80036; stroke-width: 1.0;" width="10" x="326" y="122.1201"/><rect fill="#FFFFFF" filter="url(#f1ng4z47bpimxv)" height="30" style="stroke: #A80036; stroke-width: 1.0;" width="10" x="501" y="249.1377"/><line style="stroke: #A80036; stroke-width: 1.0; stroke-dasharray: 5.0,5.0;" x1="27" x2="27" y1="89.1201" y2="297.8921"/><line style="stroke: #A80036; stroke-width: 1.0; stroke-dasharray: 5.0,5.0;" x1="160.5" x2="160.5" y1="89.1201" y2="297.8921"/><line style="stroke: #A80036; stroke-width: 1.0; stroke-dasharray: 5.0,5.0;" x1="330.5" x2="330.5" y1="89.1201" y2="297.8921"/><line style="stroke: #A80036; stroke-width: 1.0; stroke-dasharray: 5.0,5.0;" x1="505.5" x2="505.5" y1="89.1201" y2="297.8921"/><text fill="#000000" font-family="sans-serif" font-size="14" lengthAdjust="spacingAndGlyphs" textLength="4" x="8" y="86.0439">:</text><text fill="#000000" font-family="sans-serif" font-size="14" lengthAdjust="spacingAndGlyphs" text-decoration="underline" textLength="29" x="12" y="86.0439">User</text><line style="stroke: #000000; stroke-width: 1.0;" x1="12" x2="41" y1="88.0439" y2="88.0439"/><ellipse cx="27.5" cy="13" fill="#FEFECE" filter="url(#f1ng4z47bpimxv)" rx="8" ry="8" style="stroke: #A80036; stroke-width: 2.0;"/><path d="M27.5,21 L27.5,48 M14.5,29 L40.5,29 M27.5,48 L14.5,63 M27.5,48 L40.5,63 " fill="none" filter="url(#f1ng4z47bpimxv)" style="stroke: #A80036; stroke-width: 2.0;"/><text fill="#000000" font-family="sans-serif" font-size="14" lengthAdjust="spacingAndGlyphs" textLength="4" x="8" y="312.936">:</text><text fill="#000000" font-family="sans-serif" font-size="14" lengthAdjust="spacingAndGlyphs" text-decoration="underline" textLength="29" x="12" y="312.936">User</text><line style="stroke: #000000; stroke-width: 1.0;" x1="12" x2="41" y1="314.936" y2="314.936"/><ellipse cx="27.5" cy="326.0122" fill="#FEFECE" filter="url(#f1ng4z47bpimxv)" rx="8" ry="8" style="stroke: #A80036; stroke-width: 2.0;"/><path d="M27.5,334.0122 L27.5,361.0122 M14.5,342.0122 L40.5,342.0122 M27.5,361.0122 L14.5,376.0122 M27.5,361.0122 L40.5,376.0122 " fill="none" filter="url(#f1ng4z47bpimxv)" style="stroke: #A80036; stroke-width: 2.0;"/><text fill="#000000" font-family="sans-serif" font-size="14" lengthAdjust="spacingAndGlyphs" textLength="4" x="80.5" y="86.0439">:</text><text fill="#000000" font-family="sans-serif" font-size="14" lengthAdjust="spacingAndGlyphs" text-decoration="underline" textLength="150" x="84.5" y="86.0439">LocalVSSManagerPage</text><line style="stroke: #000000; stroke-width: 1.0;" x1="84.5" x2="234.5" y1="88.0439" y2="88.0439"/><path d="M140,42 L140,66 M140,54 L157,54 " fill="none" filter="url(#f1ng4z47bpimxv)" style="stroke: #A80036; stroke-width: 2.0;"/><ellipse cx="169" cy="54" fill="#FEFECE" filter="url(#f1ng4z47bpimxv)" rx="12" ry="12" style="stroke: #A80036; stroke-width: 2.0;"/><text fill="#000000" font-family="sans-serif" font-size="14" lengthAdjust="spacingAndGlyphs" textLength="4" x="80.5" y="312.936">:</text><text fill="#000000" font-family="sans-serif" font-size="14" lengthAdjust="spacingAndGlyphs" text-decoration="underline" textLength="150" x="84.5" y="312.936">LocalVSSManagerPage</text><line style="stroke: #000000; stroke-width: 1.0;" x1="84.5" x2="234.5" y1="314.936" y2="314.936"/><path d="M140,320.0122 L140,344.0122 M140,332.0122 L157,332.0122 " fill="none" filter="url(#f1ng4z47bpimxv)" style="stroke: #A80036; stroke-width: 2.0;"/><ellipse cx="169" cy="332.0122" fill="#FEFECE" filter="url(#f1ng4z47bpimxv)" rx="12" ry="12" style="stroke: #A80036; stroke-width: 2.0;"/><text fill="#000000" font-family="sans-serif" font-size="14" lengthAdjust="spacingAndGlyphs" textLength="4" x="250.5" y="86.0439">:</text><text fill="#000000" font-family="sans-serif" font-size="14" lengthAdjust="spacingAndGlyphs" text-decoration="underline" textLength="151" x="254.5" y="86.0439">LocalVSSLibraryControl</text><line style="stroke: #000000; stroke-width: 1.0;" x1="254.5" x2="405.5" y1="88.0439" y2="88.0439"/><ellipse cx="331" cy="54" fill="#FEFECE" filter="url(#f1ng4z47bpimxv)" rx="12" ry="12" style="stroke: #A80036; stroke-width: 2.0;"/><polygon fill="#A80036" points="327,42,333,37,331,42,333,47,327,42" style="stroke: #A80036; stroke-width: 1.0;"/><text fill="#000000" font-family="sans-serif" font-size="14" lengthAdjust="spacingAndGlyphs" textLength="4" x="250.5" y="312.936">:</text><text fill="#000000" font-family="sans-serif" font-size="14" lengthAdjust="spacingAndGlyphs" text-decoration="underline" textLength="151" x="254.5" y="312.936">LocalVSSLibraryControl</text><line style="stroke: #000000; stroke-width: 1.0;" x1="254.5" x2="405.5" y1="314.936" y2="314.936"/><ellipse cx="331" cy="332.0122" fill="#FEFECE" filter="url(#f1ng4z47bpimxv)" rx="12" ry="12" style="stroke: #A80036; stroke-width: 2.0;"/><polygon fill="#A80036" points="327,320.0122,333,315.0122,331,320.0122,333,325.0122,327,320.0122" style="stroke: #A80036; stroke-width: 1.0;"/><text fill="#000000" font-family="sans-serif" font-size="14" lengthAdjust="spacingAndGlyphs" textLength="4" x="421.5" y="86.0439">:</text><text fill="#000000" font-family="sans-serif" font-size="14" lengthAdjust="spacingAndGlyphs" text-decoration="underline" textLength="159" x="425.5" y="86.0439">LocalSoundSpaceLibrary</text><line style="stroke: #000000; stroke-width: 1.0;" x1="425.5" x2="584.5" y1="88.0439" y2="88.0439"/><ellipse cx="506" cy="54" fill="#FEFECE" filter="url(#f1ng4z47bpimxv)" rx="12" ry="12" style="stroke: #A80036; stroke-width: 2.0;"/><line style="stroke: #A80036; stroke-width: 2.0;" x1="494" x2="518" y1="68" y2="68"/><text fill="#000000" font-family="sans-serif" font-size="14" lengthAdjust="spacingAndGlyphs" textLength="4" x="421.5" y="312.936">:</text><text fill="#000000" font-family="sans-serif" font-size="14" lengthAdjust="spacingAndGlyphs" text-decoration="underline" textLength="159" x="425.5" y="312.936">LocalSoundSpaceLibrary</text><line style="stroke: #000000; stroke-width: 1.0;" x1="425.5" x2="584.5" y1="314.936" y2="314.936"/><ellipse cx="506" cy="332.0122" fill="#FEFECE" filter="url(#f1ng4z47bpimxv)" rx="12" ry="12" style="stroke: #A80036; stroke-width: 2.0;"/><line style="stroke: #A80036; stroke-width: 2.0;" x1="494" x2="518" y1="346.0122" y2="346.0122"/><rect fill="#FFFFFF" filter="url(#f1ng4z47bpimxv)" height="118.2632" style="stroke: #A80036; stroke-width: 1.0;" width="10" x="22.5" y="99.1201"/><rect fill="#FFFFFF" filter="url(#f1ng4z47bpimxv)" height="118.2632" style="stroke: #A80036; stroke-width: 1.0;" width="10" x="155.5" y="99.1201"/><rect fill="#FFFFFF" filter="url(#f1ng4z47bpimxv)" height="157.0176" style="stroke: #A80036; stroke-width: 1.0;" width="10" x="326" y="122.1201"/><rect fill="#FFFFFF" filter="url(#f1ng4z47bpimxv)" height="30" style="stroke: #A80036; stroke-width: 1.0;" width="10" x="501" y="249.1377"/><polygon fill="#A80036" points="314,118.1201,324,122.1201,314,126.1201,318,122.1201" style="stroke: #A80036; stroke-width: 1.0;"/><line style="stroke: #A80036; stroke-width: 1.0;" x1="165.5" x2="320" y1="122.1201" y2="122.1201"/><text fill="#000000" font-family="sans-serif" font-size="13" lengthAdjust="spacingAndGlyphs" textLength="68" x="172.5" y="118.0181">&lt;&lt;create&gt;&gt;</text><polygon fill="#A80036" points="143.5,149.8745,153.5,153.8745,143.5,157.8745,147.5,153.8745" style="stroke: #A80036; stroke-width: 1.0;"/><line style="stroke: #A80036; stroke-width: 1.0;" x1="32.5" x2="149.5" y1="153.8745" y2="153.8745"/><text fill="#000000" font-family="sans-serif" font-size="13" lengthAdjust="spacingAndGlyphs" textLength="72" x="39.5" y="149.7725">DeleteVSS()</text><polygon fill="#A80036" points="43.5,181.6289,33.5,185.6289,43.5,189.6289,39.5,185.6289" style="stroke: #A80036; stroke-width: 1.0;"/><line style="stroke: #A80036; stroke-width: 1.0;" x1="37.5" x2="154.5" y1="185.6289" y2="185.6289"/><text fill="#000000" font-family="sans-serif" font-size="13" lengthAdjust="spacingAndGlyphs" textLength="84" x="49.5" y="181.5269">AskIfDeletion()</text><polygon fill="#A80036" points="148.5,213.3833,158.5,217.3833,148.5,221.3833,152.5,217.3833" style="stroke: #A80036; stroke-width: 1.0;"/><line style="stroke: #A80036; stroke-width: 1.0;" x1="27.5" x2="154.5" y1="217.3833" y2="217.3833"/><text fill="#000000" font-family="sans-serif" font-size="13" lengthAdjust="spacingAndGlyphs" textLength="99" x="34.5" y="213.2813">ConfirmDeletion()</text><polygon fill="#A80036" points="489,245.1377,499,249.1377,489,253.1377,493,249.1377" style="stroke: #A80036; stroke-width: 1.0;"/><line style="stroke: #A80036; stroke-width: 1.0;" x1="336" x2="495" y1="249.1377" y2="249.1377"/><text fill="#000000" font-family="sans-serif" font-size="13" lengthAdjust="spacingAndGlyphs" textLength="64" x="343" y="245.0356">DeleteVSS</text><!--
@startuml
actor ":__User__" as User
boundary ":__LocalVSSManagerPage__" as LocalVSSManagerPage
control ":__LocalVSSLibraryControl__" as LocalVSSLibraryControl
entity ":__LocalSoundSpaceLibrary__" as LocalSoundSpaceLibrary

activate User
activate LocalVSSManagerPage
LocalVSSManagerPage -> LocalVSSLibraryControl: <<create>>
activate LocalVSSLibraryControl
User -> LocalVSSManagerPage: DeleteVSS()
LocalVSSManagerPage -> User: AskIfDeletion()
User -> LocalVSSManagerPage: ConfirmDeletion()
deactivate User
deactivate LocalVSSManagerPage
LocalVSSLibraryControl -> LocalSoundSpaceLibrary: DeleteVSS
activate LocalSoundSpaceLibrary
deactivate LocalSoundSpaceLibrary
deactivate LocalVSSLibraryControl
@enduml

PlantUML version 1.2018.01(Mon Jan 29 02:08:22 CST 2018)
(GPL source distribution)
Java Runtime: Java(TM) SE Runtime Environment
JVM: Java HotSpot(TM) Client VM
Java Version: 1.8.0_144-b01
Operating System: Windows 10
OS Version: 10.0
Default Encoding: GBK
Language: zh
Country: CN
--></g></svg>