<?xml version="1.0" encoding="UTF-8" standalone="no"?><svg xmlns="http://www.w3.org/2000/svg" xmlns:xlink="http://www.w3.org/1999/xlink" contentScriptType="application/ecmascript" contentStyleType="text/css" height="872px" preserveAspectRatio="none" style="width:670px;height:872px;" version="1.1" viewBox="0 0 670 872"
    width="670px" zoomAndPan="magnify"><defs><filter height="300%" id="fm28znw2k2tu3" width="300%" x="-1" y="-1"><feGaussianBlur result="blurOut" stdDeviation="2.0"/><feColorMatrix in="blurOut" result="blurOut2" type="matrix" values="0 0 0 0 0 0 0 0 0 0 0 0 0 0 0 0 0 0 .4 0"/><feOffset dx="4.0" dy="4.0" in="blurOut2" result="blurOut3"/><feBlend in="SourceGraphic" in2="blurOut3" mode="normal"/></filter></defs><g><rect fill="#FFFFFF" filter="url(#fm28znw2k2tu3)" height="532.1621" style="stroke: #000000; stroke-width: 2.0;" width="645" x="13" y="233.1377"/><rect fill="#FFFFFF" filter="url(#fm28znw2k2tu3)" height="290.8354" style="stroke: #000000; stroke-width: 2.0;" width="625" x="23" y="355.1782"/><rect fill="#FFFFFF" height="48.7773" style="stroke: none; stroke-width: 1.0;" width="625" x="23" y="597.2363"/><rect fill="#FFFFFF" height="112.2861" style="stroke: none; stroke-width: 1.0;" width="645" x="13" y="653.0137"/><line style="stroke: #A80036; stroke-width: 1.0; stroke-dasharray: 5.0,5.0;" x1="50" x2="50" y1="89.1201" y2="782.2998"/><line style="stroke: #A80036; stroke-width: 1.0; stroke-dasharray: 5.0,5.0;" x1="156.5" x2="156.5" y1="89.1201" y2="782.2998"/><line style="stroke: #A80036; stroke-width: 1.0; stroke-dasharray: 5.0,5.0;" x1="264" x2="264" y1="89.1201" y2="782.2998"/><line style="stroke: #A80036; stroke-width: 1.0; stroke-dasharray: 5.0,5.0;" x1="363" x2="363" y1="89.1201" y2="782.2998"/><line style="stroke: #A80036; stroke-width: 1.0; stroke-dasharray: 5.0,5.0;" x1="433" x2="433" y1="89.1201" y2="782.2998"/><line style="stroke: #A80036; stroke-width: 1.0; stroke-dasharray: 5.0,5.0;" x1="517" x2="517" y1="89.1201" y2="782.2998"/><line style="stroke: #A80036; stroke-width: 1.0; stroke-dasharray: 5.0,5.0;" x1="602" x2="602" y1="89.1201" y2="782.2998"/><text fill="#000000" font-family="sans-serif" font-size="14" lengthAdjust="spacingAndGlyphs" textLength="28" x="33" y="86.0439">user</text><ellipse cx="50" cy="13" fill="#FEFECE" filter="url(#fm28znw2k2tu3)" rx="8" ry="8" style="stroke: #A80036; stroke-width: 2.0;"/><path d="M50,21 L50,48 M37,29 L63,29 M50,48 L37,63 M50,48 L63,63 " fill="none" filter="url(#fm28znw2k2tu3)" style="stroke: #A80036; stroke-width: 2.0;"/><text fill="#000000" font-family="sans-serif" font-size="14" lengthAdjust="spacingAndGlyphs" textLength="28" x="33" y="797.3438">user</text><ellipse cx="50" cy="810.4199" fill="#FEFECE" filter="url(#fm28znw2k2tu3)" rx="8" ry="8" style="stroke: #A80036; stroke-width: 2.0;"/><path d="M50,818.4199 L50,845.4199 M37,826.4199 L63,826.4199 M50,845.4199 L37,860.4199 M50,845.4199 L63,860.4199 " fill="none" filter="url(#fm28znw2k2tu3)" style="stroke: #A80036; stroke-width: 2.0;"/><text fill="#000000" font-family="sans-serif" font-size="14" lengthAdjust="spacingAndGlyphs" textLength="55" x="126.5" y="86.0439">interface</text><path d="M136.5,42 L136.5,66 M136.5,54 L153.5,54 " fill="none" filter="url(#fm28znw2k2tu3)" style="stroke: #A80036; stroke-width: 2.0;"/><ellipse cx="165.5" cy="54" fill="#FEFECE" filter="url(#fm28znw2k2tu3)" rx="12" ry="12" style="stroke: #A80036; stroke-width: 2.0;"/><text fill="#000000" font-family="sans-serif" font-size="14" lengthAdjust="spacingAndGlyphs" textLength="55" x="126.5" y="797.3438">interface</text><path d="M136.5,804.4199 L136.5,828.4199 M136.5,816.4199 L153.5,816.4199 " fill="none" filter="url(#fm28znw2k2tu3)" style="stroke: #A80036; stroke-width: 2.0;"/><ellipse cx="165.5" cy="816.4199" fill="#FEFECE" filter="url(#fm28znw2k2tu3)" rx="12" ry="12" style="stroke: #A80036; stroke-width: 2.0;"/><text fill="#000000" font-family="sans-serif" font-size="14" lengthAdjust="spacingAndGlyphs" textLength="118" x="202" y="86.0439">vssManageControl</text><ellipse cx="264" cy="54" fill="#FEFECE" filter="url(#fm28znw2k2tu3)" rx="12" ry="12" style="stroke: #A80036; stroke-width: 2.0;"/><polygon fill="#A80036" points="260,42,266,37,264,42,266,47,260,42" style="stroke: #A80036; stroke-width: 1.0;"/><text fill="#000000" font-family="sans-serif" font-size="14" lengthAdjust="spacingAndGlyphs" textLength="118" x="202" y="797.3438">vssManageControl</text><ellipse cx="264" cy="816.4199" fill="#FEFECE" filter="url(#fm28znw2k2tu3)" rx="12" ry="12" style="stroke: #A80036; stroke-width: 2.0;"/><polygon fill="#A80036" points="260,804.4199,266,799.4199,264,804.4199,266,809.4199,260,804.4199" style="stroke: #A80036; stroke-width: 1.0;"/><text fill="#000000" font-family="sans-serif" font-size="14" lengthAdjust="spacingAndGlyphs" textLength="48" x="336" y="86.0439">storage</text><path d="M345,34 C345,24 363,24 363,24 C363,24 381,24 381,34 L381,60 C381,70 363,70 363,70 C363,70 345,70 345,60 L345,34 " fill="#FEFECE" filter="url(#fm28znw2k2tu3)" style="stroke: #000000; stroke-width: 1.5;"/><path d="M345,34 C345,44 363,44 363,44 C363,44 381,44 381,34 " fill="none" style="stroke: #000000; stroke-width: 1.5;"/><text fill="#000000" font-family="sans-serif" font-size="14" lengthAdjust="spacingAndGlyphs" textLength="48" x="336" y="797.3438">storage</text><path d="M345,810.4199 C345,800.4199 363,800.4199 363,800.4199 C363,800.4199 381,800.4199 381,810.4199 L381,836.4199 C381,846.4199 363,846.4199 363,846.4199 C363,846.4199 345,846.4199 345,836.4199 L345,810.4199 " fill="#FEFECE" filter="url(#fm28znw2k2tu3)" style="stroke: #000000; stroke-width: 1.5;"/><path d="M345,810.4199 C345,820.4199 363,820.4199 363,820.4199 C363,820.4199 381,820.4199 381,810.4199 " fill="none" style="stroke: #000000; stroke-width: 1.5;"/><text fill="#000000" font-family="sans-serif" font-size="14" lengthAdjust="spacingAndGlyphs" textLength="61" x="400" y="86.0439">Database</text><path d="M415.5,34 C415.5,24 433.5,24 433.5,24 C433.5,24 451.5,24 451.5,34 L451.5,60 C451.5,70 433.5,70 433.5,70 C433.5,70 415.5,70 415.5,60 L415.5,34 " fill="#FEFECE" filter="url(#fm28znw2k2tu3)" style="stroke: #000000; stroke-width: 1.5;"/><path d="M415.5,34 C415.5,44 433.5,44 433.5,44 C433.5,44 451.5,44 451.5,34 " fill="none" style="stroke: #000000; stroke-width: 1.5;"/><text fill="#000000" font-family="sans-serif" font-size="14" lengthAdjust="spacingAndGlyphs" textLength="61" x="400" y="797.3438">Database</text><path d="M415.5,810.4199 C415.5,800.4199 433.5,800.4199 433.5,800.4199 C433.5,800.4199 451.5,800.4199 451.5,810.4199 L451.5,836.4199 C451.5,846.4199 433.5,846.4199 433.5,846.4199 C433.5,846.4199 415.5,846.4199 415.5,836.4199 L415.5,810.4199 " fill="#FEFECE" filter="url(#fm28znw2k2tu3)" style="stroke: #000000; stroke-width: 1.5;"/><path d="M415.5,810.4199 C415.5,820.4199 433.5,820.4199 433.5,820.4199 C433.5,820.4199 451.5,820.4199 451.5,810.4199 " fill="none" style="stroke: #000000; stroke-width: 1.5;"/><text fill="#000000" font-family="sans-serif" font-size="14" lengthAdjust="spacingAndGlyphs" textLength="74" x="477" y="86.0439">savedAudio</text><ellipse cx="517" cy="54" fill="#FEFECE" filter="url(#fm28znw2k2tu3)" rx="12" ry="12" style="stroke: #A80036; stroke-width: 2.0;"/><line style="stroke: #A80036; stroke-width: 2.0;" x1="505" x2="529" y1="68" y2="68"/><text fill="#000000" font-family="sans-serif" font-size="14" lengthAdjust="spacingAndGlyphs" textLength="74" x="477" y="797.3438">savedAudio</text><ellipse cx="517" cy="816.4199" fill="#FEFECE" filter="url(#fm28znw2k2tu3)" rx="12" ry="12" style="stroke: #A80036; stroke-width: 2.0;"/><line style="stroke: #A80036; stroke-width: 2.0;" x1="505" x2="529" y1="830.4199" y2="830.4199"/><text fill="#000000" font-family="sans-serif" font-size="14" lengthAdjust="spacingAndGlyphs" textLength="65" x="567" y="86.0439">localAudio</text><ellipse cx="602.5" cy="54" fill="#FEFECE" filter="url(#fm28znw2k2tu3)" rx="12" ry="12" style="stroke: #A80036; stroke-width: 2.0;"/><line style="stroke: #A80036; stroke-width: 2.0;" x1="590.5" x2="614.5" y1="68" y2="68"/><text fill="#000000" font-family="sans-serif" font-size="14" lengthAdjust="spacingAndGlyphs" textLength="65" x="567" y="797.3438">localAudio</text><ellipse cx="602.5" cy="816.4199" fill="#FEFECE" filter="url(#fm28znw2k2tu3)" rx="12" ry="12" style="stroke: #A80036; stroke-width: 2.0;"/><line style="stroke: #A80036; stroke-width: 2.0;" x1="590.5" x2="614.5" y1="830.4199" y2="830.4199"/><polygon fill="#A80036" points="145,118.1201,155,122.1201,145,126.1201,149,122.1201" style="stroke: #A80036; stroke-width: 1.0;"/><line style="stroke: #A80036; stroke-width: 1.0;" x1="50" x2="151" y1="122.1201" y2="122.1201"/><text fill="#000000" font-family="sans-serif" font-size="13" lengthAdjust="spacingAndGlyphs" textLength="83" x="57" y="118.0181">DownloadVSS</text><polygon fill="#A80036" points="252,149.8745,262,153.8745,252,157.8745,256,153.8745" style="stroke: #A80036; stroke-width: 1.0;"/><line style="stroke: #A80036; stroke-width: 1.0;" x1="157" x2="258" y1="153.8745" y2="153.8745"/><text fill="#000000" font-family="sans-serif" font-size="13" lengthAdjust="spacingAndGlyphs" textLength="83" x="164" y="149.7725">DownloadVSS</text><polygon fill="#A80036" points="421.5,181.6289,431.5,185.6289,421.5,189.6289,425.5,185.6289" style="stroke: #A80036; stroke-width: 1.0;"/><line style="stroke: #A80036; stroke-width: 1.0;" x1="264" x2="427.5" y1="185.6289" y2="185.6289"/><text fill="#000000" font-family="sans-serif" font-size="13" lengthAdjust="spacingAndGlyphs" textLength="62" x="271" y="181.5269">checkVSS</text><polygon fill="#A80036" points="275,213.3833,265,217.3833,275,221.3833,271,217.3833" style="stroke: #A80036; stroke-width: 1.0;"/><line style="stroke: #A80036; stroke-width: 1.0;" x1="269" x2="432.5" y1="217.3833" y2="217.3833"/><text fill="#000000" font-family="sans-serif" font-size="13" lengthAdjust="spacingAndGlyphs" textLength="35" x="281" y="213.2813">check</text><path d="M13,233.1377 L74,233.1377 L74,242.1377 L64,252.1377 L13,252.1377 L13,233.1377 " fill="#EEEEEE" style="stroke: #000000; stroke-width: 1.0;"/><rect fill="none" height="532.1621" style="stroke: #000000; stroke-width: 2.0;" width="645" x="13" y="233.1377"/><text fill="#000000" font-family="sans-serif" font-size="13" font-weight="bold" lengthAdjust="spacingAndGlyphs" textLength="16" x="28" y="249.0356">alt</text><text fill="#000000" font-family="sans-serif" font-size="11" font-weight="bold" lengthAdjust="spacingAndGlyphs" textLength="35" x="89" y="247.7437">[exist]</text><polygon fill="#A80036" points="168,271.915,158,275.915,168,279.915,164,275.915" style="stroke: #A80036; stroke-width: 1.0;"/><line style="stroke: #A80036; stroke-width: 1.0;" x1="162" x2="263" y1="275.915" y2="275.915"/><text fill="#000000" font-family="sans-serif" font-size="13" lengthAdjust="spacingAndGlyphs" textLength="21" x="174" y="271.813">ask</text><polygon fill="#A80036" points="61,303.6694,51,307.6694,61,311.6694,57,307.6694" style="stroke: #A80036; stroke-width: 1.0;"/><line style="stroke: #A80036; stroke-width: 1.0;" x1="55" x2="156" y1="307.6694" y2="307.6694"/><text fill="#000000" font-family="sans-serif" font-size="13" lengthAdjust="spacingAndGlyphs" textLength="49" x="67" y="303.5674">confirm?</text><polygon fill="#A80036" points="145,335.4238,155,339.4238,145,343.4238,149,339.4238" style="stroke: #A80036; stroke-width: 1.0;"/><line style="stroke: #A80036; stroke-width: 1.0;" x1="50" x2="151" y1="339.4238" y2="339.4238"/><text fill="#000000" font-family="sans-serif" font-size="13" lengthAdjust="spacingAndGlyphs" textLength="53" x="57" y="335.3218">message</text><path d="M23,355.1782 L84,355.1782 L84,364.1782 L74,374.1782 L23,374.1782 L23,355.1782 " fill="#EEEEEE" style="stroke: #000000; stroke-width: 1.0;"/><rect fill="none" height="290.8354" style="stroke: #000000; stroke-width: 2.0;" width="625" x="23" y="355.1782"/><text fill="#000000" font-family="sans-serif" font-size="13" font-weight="bold" lengthAdjust="spacingAndGlyphs" textLength="16" x="38" y="371.0762">alt</text><text fill="#000000" font-family="sans-serif" font-size="11" font-weight="bold" lengthAdjust="spacingAndGlyphs" textLength="51" x="99" y="369.7842">[confirm]</text><polygon fill="#A80036" points="252,393.9556,262,397.9556,252,401.9556,256,397.9556" style="stroke: #A80036; stroke-width: 1.0;"/><line style="stroke: #A80036; stroke-width: 1.0;" x1="157" x2="258" y1="397.9556" y2="397.9556"/><text fill="#000000" font-family="sans-serif" font-size="13" lengthAdjust="spacingAndGlyphs" textLength="42" x="164" y="393.8535">confirm</text><polygon fill="#A80036" points="421.5,425.71,431.5,429.71,421.5,433.71,425.5,429.71" style="stroke: #A80036; stroke-width: 1.0;"/><line style="stroke: #A80036; stroke-width: 1.0;" x1="264" x2="427.5" y1="429.71" y2="429.71"/><text fill="#000000" font-family="sans-serif" font-size="13" lengthAdjust="spacingAndGlyphs" textLength="83" x="271" y="425.6079">DownloadVSS</text><polygon fill="#A80036" points="505,457.4644,515,461.4644,505,465.4644,509,461.4644" style="stroke: #A80036; stroke-width: 1.0;"/><line style="stroke: #A80036; stroke-width: 1.0;" x1="433.5" x2="511" y1="461.4644" y2="461.4644"/><text fill="#000000" font-family="sans-serif" font-size="13" lengthAdjust="spacingAndGlyphs" textLength="28" x="440.5" y="457.3623">copy</text><polygon fill="#A80036" points="374,489.2188,364,493.2188,374,497.2188,370,493.2188" style="stroke: #A80036; stroke-width: 1.0;"/><line style="stroke: #A80036; stroke-width: 1.0;" x1="368" x2="432.5" y1="493.2188" y2="493.2188"/><text fill="#000000" font-family="sans-serif" font-size="13" lengthAdjust="spacingAndGlyphs" textLength="43" x="380" y="489.1167">transfer</text><polygon fill="#A80036" points="590.5,520.9731,600.5,524.9731,590.5,528.9731,594.5,524.9731" style="stroke: #A80036; stroke-width: 1.0;"/><line style="stroke: #A80036; stroke-width: 1.0;" x1="363" x2="596.5" y1="524.9731" y2="524.9731"/><text fill="#000000" font-family="sans-serif" font-size="13" lengthAdjust="spacingAndGlyphs" textLength="26" x="370" y="520.8711">save</text><polygon fill="#A80036" points="168,552.7275,158,556.7275,168,560.7275,164,556.7275" style="stroke: #A80036; stroke-width: 1.0;"/><line style="stroke: #A80036; stroke-width: 1.0;" x1="162" x2="263" y1="556.7275" y2="556.7275"/><text fill="#000000" font-family="sans-serif" font-size="13" lengthAdjust="spacingAndGlyphs" textLength="30" x="174" y="552.6255">finish</text><polygon fill="#A80036" points="61,584.4819,51,588.4819,61,592.4819,57,588.4819" style="stroke: #A80036; stroke-width: 1.0;"/><line style="stroke: #A80036; stroke-width: 1.0;" x1="55" x2="156" y1="588.4819" y2="588.4819"/><text fill="#000000" font-family="sans-serif" font-size="13" lengthAdjust="spacingAndGlyphs" textLength="30" x="67" y="584.3799">finish</text><line style="stroke: #000000; stroke-width: 1.0; stroke-dasharray: 2.0,2.0;" x1="23" x2="648" y1="598.2363" y2="598.2363"/><text fill="#000000" font-family="sans-serif" font-size="11" font-weight="bold" lengthAdjust="spacingAndGlyphs" textLength="43" x="28" y="610.8423">[cancel]</text><polygon fill="#A80036" points="61,633.2593,51,637.2593,61,641.2593,57,637.2593" style="stroke: #A80036; stroke-width: 1.0;"/><line style="stroke: #A80036; stroke-width: 1.0;" x1="55" x2="156" y1="637.2593" y2="637.2593"/><text fill="#000000" font-family="sans-serif" font-size="13" lengthAdjust="spacingAndGlyphs" textLength="71" x="67" y="633.1572">PreviewVSS</text><line style="stroke: #000000; stroke-width: 1.0; stroke-dasharray: 2.0,2.0;" x1="13" x2="658" y1="654.0137" y2="654.0137"/><text fill="#000000" font-family="sans-serif" font-size="11" font-weight="bold" lengthAdjust="spacingAndGlyphs" textLength="60" x="18" y="666.6196">[non-exist]</text><polygon fill="#A80036" points="168,689.0366,158,693.0366,168,697.0366,164,693.0366" style="stroke: #A80036; stroke-width: 1.0;"/><line style="stroke: #A80036; stroke-width: 1.0;" x1="162" x2="263" y1="693.0366" y2="693.0366"/><text fill="#000000" font-family="sans-serif" font-size="13" lengthAdjust="spacingAndGlyphs" textLength="53" x="174" y="688.9346">non-exist</text><polygon fill="#A80036" points="61,720.791,51,724.791,61,728.791,57,724.791" style="stroke: #A80036; stroke-width: 1.0;"/><line style="stroke: #A80036; stroke-width: 1.0;" x1="55" x2="156" y1="724.791" y2="724.791"/><text fill="#000000" font-family="sans-serif" font-size="13" lengthAdjust="spacingAndGlyphs" textLength="53" x="67" y="720.689">non-exist</text><polygon fill="#A80036" points="61,752.5454,51,756.5454,61,760.5454,57,756.5454" style="stroke: #A80036; stroke-width: 1.0;"/><line style="stroke: #A80036; stroke-width: 1.0;" x1="55" x2="156" y1="756.5454" y2="756.5454"/><text fill="#000000" font-family="sans-serif" font-size="13" lengthAdjust="spacingAndGlyphs" textLength="71" x="67" y="752.4434">PreviewVSS</text><!--
@startuml
actor user
boundary interface
control vssManageControl
database storage
database Database
entity savedAudio
entity localAudio

user -> interface: DownloadVSS
interface -> vssManageControl:  DownloadVSS
vssManageControl -> Database: checkVSS
Database -> vssManageControl: check

alt exist
    vssManageControl -> interface: ask
    interface -> user: confirm?
    user -> interface: message

    alt confirm
        interface -> vssManageControl: confirm
        vssManageControl -> Database: DownloadVSS
        Database -> savedAudio: copy
        Database -> storage: transfer
        storage -> localAudio: save
        vssManageControl -> interface: finish
        interface -> user: finish
    else cancel
        interface -> user: PreviewVSS
    end

else non-exist
    vssManageControl -> interface: non-exist
    interface -> user: non-exist
    interface -> user: PreviewVSS
end
@enduml

PlantUML version 1.2018.01(Mon Jan 29 02:08:22 CST 2018)
(GPL source distribution)
Java Runtime: Java(TM) SE Runtime Environment
JVM: Java HotSpot(TM) Client VM
Java Version: 1.8.0_144-b01
Operating System: Windows 10
OS Version: 10.0
Default Encoding: GBK
Language: zh
Country: CN
--></g></svg>