<?xml version="1.0" encoding="UTF-8" standalone="no"?><svg xmlns="http://www.w3.org/2000/svg" xmlns:xlink="http://www.w3.org/1999/xlink" contentScriptType="application/ecmascript" contentStyleType="text/css" height="358px" preserveAspectRatio="none" style="width:778px;height:358px;" version="1.1" viewBox="0 0 778 358"
    width="778px" zoomAndPan="magnify"><defs><filter height="300%" id="f1rracoe5l9vw5" width="300%" x="-1" y="-1"><feGaussianBlur result="blurOut" stdDeviation="2.0"/><feColorMatrix in="blurOut" result="blurOut2" type="matrix" values="0 0 0 0 0 0 0 0 0 0 0 0 0 0 0 0 0 0 .4 0"/><feOffset dx="4.0" dy="4.0" in="blurOut2" result="blurOut3"/><feBlend in="SourceGraphic" in2="blurOut3" mode="normal"/></filter></defs><g><rect fill="#FFFFFF" filter="url(#f1rracoe5l9vw5)" height="150.0176" style="stroke: #A80036; stroke-width: 1.0;" width="10" x="22.5" y="99.1201"/><rect fill="#FFFFFF" filter="url(#f1rracoe5l9vw5)" height="150.0176" style="stroke: #A80036; stroke-width: 1.0;" width="10" x="147.5" y="99.1201"/><rect fill="#FFFFFF" filter="url(#f1rracoe5l9vw5)" height="95.2632" style="stroke: #A80036; stroke-width: 1.0;" width="10" x="318" y="153.8745"/><rect fill="#FFFFFF" filter="url(#f1rracoe5l9vw5)" height="41.5088" style="stroke: #A80036; stroke-width: 1.0;" width="10" x="496.5" y="217.3833"/><rect fill="#FFFFFF" filter="url(#f1rracoe5l9vw5)" height="31.7544" style="stroke: #A80036; stroke-width: 1.0;" width="10" x="679" y="185.6289"/><line style="stroke: #A80036; stroke-width: 1.0; stroke-dasharray: 5.0,5.0;" x1="27" x2="27" y1="89.1201" y2="267.8921"/><line style="stroke: #A80036; stroke-width: 1.0; stroke-dasharray: 5.0,5.0;" x1="152" x2="152" y1="89.1201" y2="267.8921"/><line style="stroke: #A80036; stroke-width: 1.0; stroke-dasharray: 5.0,5.0;" x1="323" x2="323" y1="89.1201" y2="267.8921"/><line style="stroke: #A80036; stroke-width: 1.0; stroke-dasharray: 5.0,5.0;" x1="501" x2="501" y1="89.1201" y2="267.8921"/><line style="stroke: #A80036; stroke-width: 1.0; stroke-dasharray: 5.0,5.0;" x1="684" x2="684" y1="89.1201" y2="267.8921"/><text fill="#000000" font-family="sans-serif" font-size="14" lengthAdjust="spacingAndGlyphs" textLength="4" x="8" y="86.0439">:</text><text fill="#000000" font-family="sans-serif" font-size="14" lengthAdjust="spacingAndGlyphs" text-decoration="underline" textLength="29" x="12" y="86.0439">User</text><line style="stroke: #000000; stroke-width: 1.0;" x1="12" x2="41" y1="88.0439" y2="88.0439"/><ellipse cx="27.5" cy="13" fill="#FEFECE" filter="url(#f1rracoe5l9vw5)" rx="8" ry="8" style="stroke: #A80036; stroke-width: 2.0;"/><path d="M27.5,21 L27.5,48 M14.5,29 L40.5,29 M27.5,48 L14.5,63 M27.5,48 L40.5,63 " fill="none" filter="url(#f1rracoe5l9vw5)" style="stroke: #A80036; stroke-width: 2.0;"/><text fill="#000000" font-family="sans-serif" font-size="14" lengthAdjust="spacingAndGlyphs" textLength="4" x="8" y="282.936">:</text><text fill="#000000" font-family="sans-serif" font-size="14" lengthAdjust="spacingAndGlyphs" text-decoration="underline" textLength="29" x="12" y="282.936">User</text><line style="stroke: #000000; stroke-width: 1.0;" x1="12" x2="41" y1="284.936" y2="284.936"/><ellipse cx="27.5" cy="296.0122" fill="#FEFECE" filter="url(#f1rracoe5l9vw5)" rx="8" ry="8" style="stroke: #A80036; stroke-width: 2.0;"/><path d="M27.5,304.0122 L27.5,331.0122 M14.5,312.0122 L40.5,312.0122 M27.5,331.0122 L14.5,346.0122 M27.5,331.0122 L40.5,346.0122 " fill="none" filter="url(#f1rracoe5l9vw5)" style="stroke: #A80036; stroke-width: 2.0;"/><text fill="#000000" font-family="sans-serif" font-size="14" lengthAdjust="spacingAndGlyphs" textLength="4" x="76" y="86.0439">:</text><text fill="#000000" font-family="sans-serif" font-size="14" lengthAdjust="spacingAndGlyphs" text-decoration="underline" textLength="143" x="80" y="86.0439">OnlineVSSViewerPage</text><line style="stroke: #000000; stroke-width: 1.0;" x1="80" x2="223" y1="88.0439" y2="88.0439"/><path d="M132,42 L132,66 M132,54 L149,54 " fill="none" filter="url(#f1rracoe5l9vw5)" style="stroke: #A80036; stroke-width: 2.0;"/><ellipse cx="161" cy="54" fill="#FEFECE" filter="url(#f1rracoe5l9vw5)" rx="12" ry="12" style="stroke: #A80036; stroke-width: 2.0;"/><text fill="#000000" font-family="sans-serif" font-size="14" lengthAdjust="spacingAndGlyphs" textLength="4" x="76" y="282.936">:</text><text fill="#000000" font-family="sans-serif" font-size="14" lengthAdjust="spacingAndGlyphs" text-decoration="underline" textLength="143" x="80" y="282.936">OnlineVSSViewerPage</text><line style="stroke: #000000; stroke-width: 1.0;" x1="80" x2="223" y1="284.936" y2="284.936"/><path d="M132,290.0122 L132,314.0122 M132,302.0122 L149,302.0122 " fill="none" filter="url(#f1rracoe5l9vw5)" style="stroke: #A80036; stroke-width: 2.0;"/><ellipse cx="161" cy="302.0122" fill="#FEFECE" filter="url(#f1rracoe5l9vw5)" rx="12" ry="12" style="stroke: #A80036; stroke-width: 2.0;"/><text fill="#000000" font-family="sans-serif" font-size="14" lengthAdjust="spacingAndGlyphs" textLength="4" x="239" y="86.0439">:</text><text fill="#000000" font-family="sans-serif" font-size="14" lengthAdjust="spacingAndGlyphs" text-decoration="underline" textLength="158" x="243" y="86.0439">OnlineVSSLibraryControl</text><line style="stroke: #000000; stroke-width: 1.0;" x1="243" x2="401" y1="88.0439" y2="88.0439"/><ellipse cx="323" cy="54" fill="#FEFECE" filter="url(#f1rracoe5l9vw5)" rx="12" ry="12" style="stroke: #A80036; stroke-width: 2.0;"/><polygon fill="#A80036" points="319,42,325,37,323,42,325,47,319,42" style="stroke: #A80036; stroke-width: 1.0;"/><text fill="#000000" font-family="sans-serif" font-size="14" lengthAdjust="spacingAndGlyphs" textLength="4" x="239" y="282.936">:</text><text fill="#000000" font-family="sans-serif" font-size="14" lengthAdjust="spacingAndGlyphs" text-decoration="underline" textLength="158" x="243" y="282.936">OnlineVSSLibraryControl</text><line style="stroke: #000000; stroke-width: 1.0;" x1="243" x2="401" y1="284.936" y2="284.936"/><ellipse cx="323" cy="302.0122" fill="#FEFECE" filter="url(#f1rracoe5l9vw5)" rx="12" ry="12" style="stroke: #A80036; stroke-width: 2.0;"/><polygon fill="#A80036" points="319,290.0122,325,285.0122,323,290.0122,325,295.0122,319,290.0122" style="stroke: #A80036; stroke-width: 1.0;"/><text fill="#000000" font-family="sans-serif" font-size="14" lengthAdjust="spacingAndGlyphs" textLength="4" x="417" y="86.0439">:</text><text fill="#000000" font-family="sans-serif" font-size="14" lengthAdjust="spacingAndGlyphs" text-decoration="underline" textLength="159" x="421" y="86.0439">LocalSoundSpaceLibrary</text><line style="stroke: #000000; stroke-width: 1.0;" x1="421" x2="580" y1="88.0439" y2="88.0439"/><ellipse cx="501.5" cy="54" fill="#FEFECE" filter="url(#f1rracoe5l9vw5)" rx="12" ry="12" style="stroke: #A80036; stroke-width: 2.0;"/><line style="stroke: #A80036; stroke-width: 2.0;" x1="489.5" x2="513.5" y1="68" y2="68"/><text fill="#000000" font-family="sans-serif" font-size="14" lengthAdjust="spacingAndGlyphs" textLength="4" x="417" y="282.936">:</text><text fill="#000000" font-family="sans-serif" font-size="14" lengthAdjust="spacingAndGlyphs" text-decoration="underline" textLength="159" x="421" y="282.936">LocalSoundSpaceLibrary</text><line style="stroke: #000000; stroke-width: 1.0;" x1="421" x2="580" y1="284.936" y2="284.936"/><ellipse cx="501.5" cy="302.0122" fill="#FEFECE" filter="url(#f1rracoe5l9vw5)" rx="12" ry="12" style="stroke: #A80036; stroke-width: 2.0;"/><line style="stroke: #A80036; stroke-width: 2.0;" x1="489.5" x2="513.5" y1="316.0122" y2="316.0122"/><text fill="#000000" font-family="sans-serif" font-size="14" lengthAdjust="spacingAndGlyphs" textLength="4" x="596" y="86.0439">:</text><text fill="#000000" font-family="sans-serif" font-size="14" lengthAdjust="spacingAndGlyphs" text-decoration="underline" textLength="166" x="600" y="86.0439">OnlineSoundSpaceLibrary</text><line style="stroke: #000000; stroke-width: 1.0;" x1="600" x2="766" y1="88.0439" y2="88.0439"/><ellipse cx="684" cy="54" fill="#FEFECE" filter="url(#f1rracoe5l9vw5)" rx="12" ry="12" style="stroke: #A80036; stroke-width: 2.0;"/><line style="stroke: #A80036; stroke-width: 2.0;" x1="672" x2="696" y1="68" y2="68"/><text fill="#000000" font-family="sans-serif" font-size="14" lengthAdjust="spacingAndGlyphs" textLength="4" x="596" y="282.936">:</text><text fill="#000000" font-family="sans-serif" font-size="14" lengthAdjust="spacingAndGlyphs" text-decoration="underline" textLength="166" x="600" y="282.936">OnlineSoundSpaceLibrary</text><line style="stroke: #000000; stroke-width: 1.0;" x1="600" x2="766" y1="284.936" y2="284.936"/><ellipse cx="684" cy="302.0122" fill="#FEFECE" filter="url(#f1rracoe5l9vw5)" rx="12" ry="12" style="stroke: #A80036; stroke-width: 2.0;"/><line style="stroke: #A80036; stroke-width: 2.0;" x1="672" x2="696" y1="316.0122" y2="316.0122"/><rect fill="#FFFFFF" filter="url(#f1rracoe5l9vw5)" height="150.0176" style="stroke: #A80036; stroke-width: 1.0;" width="10" x="22.5" y="99.1201"/><rect fill="#FFFFFF" filter="url(#f1rracoe5l9vw5)" height="150.0176" style="stroke: #A80036; stroke-width: 1.0;" width="10" x="147.5" y="99.1201"/><rect fill="#FFFFFF" filter="url(#f1rracoe5l9vw5)" height="95.2632" style="stroke: #A80036; stroke-width: 1.0;" width="10" x="318" y="153.8745"/><rect fill="#FFFFFF" filter="url(#f1rracoe5l9vw5)" height="41.5088" style="stroke: #A80036; stroke-width: 1.0;" width="10" x="496.5" y="217.3833"/><rect fill="#FFFFFF" filter="url(#f1rracoe5l9vw5)" height="31.7544" style="stroke: #A80036; stroke-width: 1.0;" width="10" x="679" y="185.6289"/><polygon fill="#A80036" points="135.5,118.1201,145.5,122.1201,135.5,126.1201,139.5,122.1201" style="stroke: #A80036; stroke-width: 1.0;"/><line style="stroke: #A80036; stroke-width: 1.0;" x1="32.5" x2="141.5" y1="122.1201" y2="122.1201"/><text fill="#000000" font-family="sans-serif" font-size="13" lengthAdjust="spacingAndGlyphs" textLength="91" x="39.5" y="118.0181">DownloadVSS()</text><polygon fill="#A80036" points="306,149.8745,316,153.8745,306,157.8745,310,153.8745" style="stroke: #A80036; stroke-width: 1.0;"/><line style="stroke: #A80036; stroke-width: 1.0;" x1="157.5" x2="312" y1="153.8745" y2="153.8745"/><text fill="#000000" font-family="sans-serif" font-size="13" lengthAdjust="spacingAndGlyphs" textLength="68" x="164.5" y="149.7725">&lt;&lt;create&gt;&gt;</text><polygon fill="#A80036" points="667,181.6289,677,185.6289,667,189.6289,671,185.6289" style="stroke: #A80036; stroke-width: 1.0;"/><line style="stroke: #A80036; stroke-width: 1.0;" x1="328" x2="673" y1="185.6289" y2="185.6289"/><text fill="#000000" font-family="sans-serif" font-size="13" lengthAdjust="spacingAndGlyphs" textLength="83" x="335" y="181.5269">DownloadVSS</text><polygon fill="#A80036" points="517.5,213.3833,507.5,217.3833,517.5,221.3833,513.5,217.3833" style="stroke: #A80036; stroke-width: 1.0;"/><line style="stroke: #A80036; stroke-width: 1.0;" x1="511.5" x2="683" y1="217.3833" y2="217.3833"/><text fill="#000000" font-family="sans-serif" font-size="13" lengthAdjust="spacingAndGlyphs" textLength="83" x="523.5" y="213.2813">DownloadVSS</text><polygon fill="#A80036" points="38.5,245.1377,28.5,249.1377,38.5,253.1377,34.5,249.1377" style="stroke: #A80036; stroke-width: 1.0;"/><line style="stroke: #A80036; stroke-width: 1.0;" x1="32.5" x2="151.5" y1="249.1377" y2="249.1377"/><text fill="#000000" font-family="sans-serif" font-size="13" lengthAdjust="spacingAndGlyphs" textLength="54" x="44.5" y="245.0356">VSSData</text><!--
@startuml
actor ":__User__" as User
boundary ":__OnlineVSSViewerPage__" as OnlineVSSViewerPage
control ":__OnlineVSSLibraryControl__" as OnlineVSSLibraryControl
entity ":__LocalSoundSpaceLibrary__" as LocalSoundSpaceLibrary
entity ":__OnlineSoundSpaceLibrary__" as OnlineSoundSpaceLibrary

activate User
activate OnlineVSSViewerPage
User -> OnlineVSSViewerPage: DownloadVSS()
OnlineVSSViewerPage -> OnlineVSSLibraryControl: <<create>>
activate OnlineVSSLibraryControl
OnlineVSSLibraryControl -> OnlineSoundSpaceLibrary: DownloadVSS
activate OnlineSoundSpaceLibrary
OnlineSoundSpaceLibrary -> LocalSoundSpaceLibrary: DownloadVSS
deactivate OnlineSoundSpaceLibrary
activate LocalSoundSpaceLibrary
deactivate LocalSoundSpaceLibrary
OnlineVSSViewerPage -> User: VSSData
deactivate OnlineVSSLibraryControl
deactivate OnlineVSSViewerPage
deactivate User
@enduml

PlantUML version 1.2018.01(Mon Jan 29 02:08:22 CST 2018)
(GPL source distribution)
Java Runtime: Java(TM) SE Runtime Environment
JVM: Java HotSpot(TM) Client VM
Java Version: 1.8.0_144-b01
Operating System: Windows 10
OS Version: 10.0
Default Encoding: GBK
Language: zh
Country: CN
--></g></svg>