<?xml version="1.0" encoding="UTF-8" standalone="no"?><svg xmlns="http://www.w3.org/2000/svg" xmlns:xlink="http://www.w3.org/1999/xlink" contentScriptType="application/ecmascript" contentStyleType="text/css" height="453px" preserveAspectRatio="none" style="width:428px;height:453px;" version="1.1" viewBox="0 0 428 453"
    width="428px" zoomAndPan="magnify"><defs><filter height="300%" id="f1e6n01oujcbb6" width="300%" x="-1" y="-1"><feGaussianBlur result="blurOut" stdDeviation="2.0"/><feColorMatrix in="blurOut" result="blurOut2" type="matrix" values="0 0 0 0 0 0 0 0 0 0 0 0 0 0 0 0 0 0 .4 0"/><feOffset dx="4.0" dy="4.0" in="blurOut2" result="blurOut3"/><feBlend in="SourceGraphic" in2="blurOut3" mode="normal"/></filter></defs><g><line style="stroke: #A80036; stroke-width: 1.0; stroke-dasharray: 5.0,5.0;" x1="25" x2="25" y1="89.1201" y2="363.1553"/><line style="stroke: #A80036; stroke-width: 1.0; stroke-dasharray: 5.0,5.0;" x1="99.5" x2="99.5" y1="89.1201" y2="363.1553"/><line style="stroke: #A80036; stroke-width: 1.0; stroke-dasharray: 5.0,5.0;" x1="202.5" x2="202.5" y1="89.1201" y2="363.1553"/><line style="stroke: #A80036; stroke-width: 1.0; stroke-dasharray: 5.0,5.0;" x1="307.5" x2="307.5" y1="89.1201" y2="363.1553"/><line style="stroke: #A80036; stroke-width: 1.0; stroke-dasharray: 5.0,5.0;" x1="386.5" x2="386.5" y1="89.1201" y2="363.1553"/><text fill="#000000" font-family="sans-serif" font-size="14" lengthAdjust="spacingAndGlyphs" textLength="28" x="8" y="86.0439">user</text><ellipse cx="25" cy="13" fill="#FEFECE" filter="url(#f1e6n01oujcbb6)" rx="8" ry="8" style="stroke: #A80036; stroke-width: 2.0;"/><path d="M25,21 L25,48 M12,29 L38,29 M25,48 L12,63 M25,48 L38,63 " fill="none" filter="url(#f1e6n01oujcbb6)" style="stroke: #A80036; stroke-width: 2.0;"/><text fill="#000000" font-family="sans-serif" font-size="14" lengthAdjust="spacingAndGlyphs" textLength="28" x="8" y="378.1992">user</text><ellipse cx="25" cy="391.2754" fill="#FEFECE" filter="url(#f1e6n01oujcbb6)" rx="8" ry="8" style="stroke: #A80036; stroke-width: 2.0;"/><path d="M25,399.2754 L25,426.2754 M12,407.2754 L38,407.2754 M25,426.2754 L12,441.2754 M25,426.2754 L38,441.2754 " fill="none" filter="url(#f1e6n01oujcbb6)" style="stroke: #A80036; stroke-width: 2.0;"/><text fill="#000000" font-family="sans-serif" font-size="14" lengthAdjust="spacingAndGlyphs" textLength="55" x="69.5" y="86.0439">interface</text><path d="M79.5,42 L79.5,66 M79.5,54 L96.5,54 " fill="none" filter="url(#f1e6n01oujcbb6)" style="stroke: #A80036; stroke-width: 2.0;"/><ellipse cx="108.5" cy="54" fill="#FEFECE" filter="url(#f1e6n01oujcbb6)" rx="12" ry="12" style="stroke: #A80036; stroke-width: 2.0;"/><text fill="#000000" font-family="sans-serif" font-size="14" lengthAdjust="spacingAndGlyphs" textLength="55" x="69.5" y="378.1992">interface</text><path d="M79.5,385.2754 L79.5,409.2754 M79.5,397.2754 L96.5,397.2754 " fill="none" filter="url(#f1e6n01oujcbb6)" style="stroke: #A80036; stroke-width: 2.0;"/><ellipse cx="108.5" cy="397.2754" fill="#FEFECE" filter="url(#f1e6n01oujcbb6)" rx="12" ry="12" style="stroke: #A80036; stroke-width: 2.0;"/><text fill="#000000" font-family="sans-serif" font-size="14" lengthAdjust="spacingAndGlyphs" textLength="118" x="140.5" y="86.0439">vssManageControl</text><ellipse cx="202.5" cy="54" fill="#FEFECE" filter="url(#f1e6n01oujcbb6)" rx="12" ry="12" style="stroke: #A80036; stroke-width: 2.0;"/><polygon fill="#A80036" points="198.5,42,204.5,37,202.5,42,204.5,47,198.5,42" style="stroke: #A80036; stroke-width: 1.0;"/><text fill="#000000" font-family="sans-serif" font-size="14" lengthAdjust="spacingAndGlyphs" textLength="118" x="140.5" y="378.1992">vssManageControl</text><ellipse cx="202.5" cy="397.2754" fill="#FEFECE" filter="url(#f1e6n01oujcbb6)" rx="12" ry="12" style="stroke: #A80036; stroke-width: 2.0;"/><polygon fill="#A80036" points="198.5,385.2754,204.5,380.2754,202.5,385.2754,204.5,390.2754,198.5,385.2754" style="stroke: #A80036; stroke-width: 1.0;"/><text fill="#000000" font-family="sans-serif" font-size="14" lengthAdjust="spacingAndGlyphs" textLength="61" x="274.5" y="86.0439">Database</text><path d="M290,34 C290,24 308,24 308,24 C308,24 326,24 326,34 L326,60 C326,70 308,70 308,70 C308,70 290,70 290,60 L290,34 " fill="#FEFECE" filter="url(#f1e6n01oujcbb6)" style="stroke: #000000; stroke-width: 1.5;"/><path d="M290,34 C290,44 308,44 308,44 C308,44 326,44 326,34 " fill="none" style="stroke: #000000; stroke-width: 1.5;"/><text fill="#000000" font-family="sans-serif" font-size="14" lengthAdjust="spacingAndGlyphs" textLength="61" x="274.5" y="378.1992">Database</text><path d="M290,391.2754 C290,381.2754 308,381.2754 308,381.2754 C308,381.2754 326,381.2754 326,391.2754 L326,417.2754 C326,427.2754 308,427.2754 308,427.2754 C308,427.2754 290,427.2754 290,417.2754 L290,391.2754 " fill="#FEFECE" filter="url(#f1e6n01oujcbb6)" style="stroke: #000000; stroke-width: 1.5;"/><path d="M290,391.2754 C290,401.2754 308,401.2754 308,401.2754 C308,401.2754 326,401.2754 326,391.2754 " fill="none" style="stroke: #000000; stroke-width: 1.5;"/><text fill="#000000" font-family="sans-serif" font-size="14" lengthAdjust="spacingAndGlyphs" textLength="65" x="351.5" y="86.0439">onlineVSS</text><ellipse cx="387" cy="54" fill="#FEFECE" filter="url(#f1e6n01oujcbb6)" rx="12" ry="12" style="stroke: #A80036; stroke-width: 2.0;"/><line style="stroke: #A80036; stroke-width: 2.0;" x1="375" x2="399" y1="68" y2="68"/><text fill="#000000" font-family="sans-serif" font-size="14" lengthAdjust="spacingAndGlyphs" textLength="65" x="351.5" y="378.1992">onlineVSS</text><ellipse cx="387" cy="397.2754" fill="#FEFECE" filter="url(#f1e6n01oujcbb6)" rx="12" ry="12" style="stroke: #A80036; stroke-width: 2.0;"/><line style="stroke: #A80036; stroke-width: 2.0;" x1="375" x2="399" y1="411.2754" y2="411.2754"/><polygon fill="#A80036" points="88,118.1201,98,122.1201,88,126.1201,92,122.1201" style="stroke: #A80036; stroke-width: 1.0;"/><line style="stroke: #A80036; stroke-width: 1.0;" x1="25" x2="94" y1="122.1201" y2="122.1201"/><text fill="#000000" font-family="sans-serif" font-size="13" lengthAdjust="spacingAndGlyphs" textLength="51" x="32" y="118.0181">LikeVSS</text><polygon fill="#A80036" points="190.5,149.8745,200.5,153.8745,190.5,157.8745,194.5,153.8745" style="stroke: #A80036; stroke-width: 1.0;"/><line style="stroke: #A80036; stroke-width: 1.0;" x1="100" x2="196.5" y1="153.8745" y2="153.8745"/><text fill="#000000" font-family="sans-serif" font-size="13" lengthAdjust="spacingAndGlyphs" textLength="51" x="107" y="149.7725">LikeVSS</text><polygon fill="#A80036" points="296,181.6289,306,185.6289,296,189.6289,300,185.6289" style="stroke: #A80036; stroke-width: 1.0;"/><line style="stroke: #A80036; stroke-width: 1.0;" x1="202.5" x2="302" y1="185.6289" y2="185.6289"/><text fill="#000000" font-family="sans-serif" font-size="13" lengthAdjust="spacingAndGlyphs" textLength="20" x="209.5" y="181.5269">like</text><polygon fill="#A80036" points="375,213.3833,385,217.3833,375,221.3833,379,217.3833" style="stroke: #A80036; stroke-width: 1.0;"/><line style="stroke: #A80036; stroke-width: 1.0;" x1="308" x2="381" y1="217.3833" y2="217.3833"/><text fill="#000000" font-family="sans-serif" font-size="13" lengthAdjust="spacingAndGlyphs" textLength="39" x="315" y="213.2813">like +1</text><polygon fill="#A80036" points="213.5,245.1377,203.5,249.1377,213.5,253.1377,209.5,249.1377" style="stroke: #A80036; stroke-width: 1.0;"/><line style="stroke: #A80036; stroke-width: 1.0;" x1="207.5" x2="307" y1="249.1377" y2="249.1377"/><text fill="#000000" font-family="sans-serif" font-size="13" lengthAdjust="spacingAndGlyphs" textLength="48" x="219.5" y="245.0356">liked list</text><polygon fill="#A80036" points="111,276.8921,101,280.8921,111,284.8921,107,280.8921" style="stroke: #A80036; stroke-width: 1.0;"/><line style="stroke: #A80036; stroke-width: 1.0;" x1="105" x2="201.5" y1="280.8921" y2="280.8921"/><text fill="#000000" font-family="sans-serif" font-size="13" lengthAdjust="spacingAndGlyphs" textLength="48" x="117" y="276.79">liked list</text><polygon fill="#A80036" points="36,308.6465,26,312.6465,36,316.6465,32,312.6465" style="stroke: #A80036; stroke-width: 1.0;"/><line style="stroke: #A80036; stroke-width: 1.0;" x1="30" x2="99" y1="312.6465" y2="312.6465"/><text fill="#000000" font-family="sans-serif" font-size="13" lengthAdjust="spacingAndGlyphs" textLength="49" x="42" y="308.5444">success</text><polygon fill="#A80036" points="36,340.4009,26,344.4009,36,348.4009,32,344.4009" style="stroke: #A80036; stroke-width: 1.0;"/><line style="stroke: #A80036; stroke-width: 1.0;" x1="30" x2="99" y1="344.4009" y2="344.4009"/><text fill="#000000" font-family="sans-serif" font-size="13" lengthAdjust="spacingAndGlyphs" textLength="48" x="42" y="340.2988">liked list</text><!--
@startuml
actor user
boundary interface
control vssManageControl
database Database
entity onlineVSS

user -> interface: LikeVSS
interface -> vssManageControl: LikeVSS
vssManageControl -> Database: like
Database -> onlineVSS: like +1
Database -> vssManageControl: liked list
vssManageControl -> interface: liked list
interface -> user: success
interface -> user: liked list
@enduml

PlantUML version 1.2018.01(Mon Jan 29 02:08:22 CST 2018)
(GPL source distribution)
Java Runtime: Java(TM) SE Runtime Environment
JVM: Java HotSpot(TM) Client VM
Java Version: 1.8.0_144-b01
Operating System: Windows 10
OS Version: 10.0
Default Encoding: GBK
Language: zh
Country: CN
--></g></svg>