<?xml version="1.0" encoding="UTF-8" standalone="no"?><svg xmlns="http://www.w3.org/2000/svg" xmlns:xlink="http://www.w3.org/1999/xlink" contentScriptType="application/ecmascript" contentStyleType="text/css" height="358px" preserveAspectRatio="none" style="width:580px;height:358px;" version="1.1" viewBox="0 0 580 358"
    width="580px" zoomAndPan="magnify"><defs><filter height="300%" id="fpvvkwvhqc2e2" width="300%" x="-1" y="-1"><feGaussianBlur result="blurOut" stdDeviation="2.0"/><feColorMatrix in="blurOut" result="blurOut2" type="matrix" values="0 0 0 0 0 0 0 0 0 0 0 0 0 0 0 0 0 0 .4 0"/><feOffset dx="4.0" dy="4.0" in="blurOut2" result="blurOut3"/><feBlend in="SourceGraphic" in2="blurOut3" mode="normal"/></filter></defs><g><rect fill="#FFFFFF" filter="url(#fpvvkwvhqc2e2)" height="150.0176" style="stroke: #A80036; stroke-width: 1.0;" width="10" x="22.5" y="99.1201"/><rect fill="#FFFFFF" filter="url(#fpvvkwvhqc2e2)" height="150.0176" style="stroke: #A80036; stroke-width: 1.0;" width="10" x="128.5" y="99.1201"/><rect fill="#FFFFFF" filter="url(#fpvvkwvhqc2e2)" height="95.2632" style="stroke: #A80036; stroke-width: 1.0;" width="10" x="299" y="153.8745"/><rect fill="#FFFFFF" filter="url(#fpvvkwvhqc2e2)" height="31.7544" style="stroke: #A80036; stroke-width: 1.0;" width="10" x="481" y="185.6289"/><line style="stroke: #A80036; stroke-width: 1.0; stroke-dasharray: 5.0,5.0;" x1="27" x2="27" y1="89.1201" y2="267.8921"/><line style="stroke: #A80036; stroke-width: 1.0; stroke-dasharray: 5.0,5.0;" x1="133" x2="133" y1="89.1201" y2="267.8921"/><line style="stroke: #A80036; stroke-width: 1.0; stroke-dasharray: 5.0,5.0;" x1="304" x2="304" y1="89.1201" y2="267.8921"/><line style="stroke: #A80036; stroke-width: 1.0; stroke-dasharray: 5.0,5.0;" x1="486" x2="486" y1="89.1201" y2="267.8921"/><text fill="#000000" font-family="sans-serif" font-size="14" lengthAdjust="spacingAndGlyphs" textLength="4" x="8" y="86.0439">:</text><text fill="#000000" font-family="sans-serif" font-size="14" lengthAdjust="spacingAndGlyphs" text-decoration="underline" textLength="29" x="12" y="86.0439">User</text><line style="stroke: #000000; stroke-width: 1.0;" x1="12" x2="41" y1="88.0439" y2="88.0439"/><ellipse cx="27.5" cy="13" fill="#FEFECE" filter="url(#fpvvkwvhqc2e2)" rx="8" ry="8" style="stroke: #A80036; stroke-width: 2.0;"/><path d="M27.5,21 L27.5,48 M14.5,29 L40.5,29 M27.5,48 L14.5,63 M27.5,48 L40.5,63 " fill="none" filter="url(#fpvvkwvhqc2e2)" style="stroke: #A80036; stroke-width: 2.0;"/><text fill="#000000" font-family="sans-serif" font-size="14" lengthAdjust="spacingAndGlyphs" textLength="4" x="8" y="282.936">:</text><text fill="#000000" font-family="sans-serif" font-size="14" lengthAdjust="spacingAndGlyphs" text-decoration="underline" textLength="29" x="12" y="282.936">User</text><line style="stroke: #000000; stroke-width: 1.0;" x1="12" x2="41" y1="284.936" y2="284.936"/><ellipse cx="27.5" cy="296.0122" fill="#FEFECE" filter="url(#fpvvkwvhqc2e2)" rx="8" ry="8" style="stroke: #A80036; stroke-width: 2.0;"/><path d="M27.5,304.0122 L27.5,331.0122 M14.5,312.0122 L40.5,312.0122 M27.5,331.0122 L14.5,346.0122 M27.5,331.0122 L40.5,346.0122 " fill="none" filter="url(#fpvvkwvhqc2e2)" style="stroke: #A80036; stroke-width: 2.0;"/><text fill="#000000" font-family="sans-serif" font-size="14" lengthAdjust="spacingAndGlyphs" textLength="4" x="57" y="86.0439">:</text><text fill="#000000" font-family="sans-serif" font-size="14" lengthAdjust="spacingAndGlyphs" text-decoration="underline" textLength="143" x="61" y="86.0439">OnlineVSSViewerPage</text><line style="stroke: #000000; stroke-width: 1.0;" x1="61" x2="204" y1="88.0439" y2="88.0439"/><path d="M113,42 L113,66 M113,54 L130,54 " fill="none" filter="url(#fpvvkwvhqc2e2)" style="stroke: #A80036; stroke-width: 2.0;"/><ellipse cx="142" cy="54" fill="#FEFECE" filter="url(#fpvvkwvhqc2e2)" rx="12" ry="12" style="stroke: #A80036; stroke-width: 2.0;"/><text fill="#000000" font-family="sans-serif" font-size="14" lengthAdjust="spacingAndGlyphs" textLength="4" x="57" y="282.936">:</text><text fill="#000000" font-family="sans-serif" font-size="14" lengthAdjust="spacingAndGlyphs" text-decoration="underline" textLength="143" x="61" y="282.936">OnlineVSSViewerPage</text><line style="stroke: #000000; stroke-width: 1.0;" x1="61" x2="204" y1="284.936" y2="284.936"/><path d="M113,290.0122 L113,314.0122 M113,302.0122 L130,302.0122 " fill="none" filter="url(#fpvvkwvhqc2e2)" style="stroke: #A80036; stroke-width: 2.0;"/><ellipse cx="142" cy="302.0122" fill="#FEFECE" filter="url(#fpvvkwvhqc2e2)" rx="12" ry="12" style="stroke: #A80036; stroke-width: 2.0;"/><text fill="#000000" font-family="sans-serif" font-size="14" lengthAdjust="spacingAndGlyphs" textLength="4" x="220" y="86.0439">:</text><text fill="#000000" font-family="sans-serif" font-size="14" lengthAdjust="spacingAndGlyphs" text-decoration="underline" textLength="158" x="224" y="86.0439">OnlineVSSLibraryControl</text><line style="stroke: #000000; stroke-width: 1.0;" x1="224" x2="382" y1="88.0439" y2="88.0439"/><ellipse cx="304" cy="54" fill="#FEFECE" filter="url(#fpvvkwvhqc2e2)" rx="12" ry="12" style="stroke: #A80036; stroke-width: 2.0;"/><polygon fill="#A80036" points="300,42,306,37,304,42,306,47,300,42" style="stroke: #A80036; stroke-width: 1.0;"/><text fill="#000000" font-family="sans-serif" font-size="14" lengthAdjust="spacingAndGlyphs" textLength="4" x="220" y="282.936">:</text><text fill="#000000" font-family="sans-serif" font-size="14" lengthAdjust="spacingAndGlyphs" text-decoration="underline" textLength="158" x="224" y="282.936">OnlineVSSLibraryControl</text><line style="stroke: #000000; stroke-width: 1.0;" x1="224" x2="382" y1="284.936" y2="284.936"/><ellipse cx="304" cy="302.0122" fill="#FEFECE" filter="url(#fpvvkwvhqc2e2)" rx="12" ry="12" style="stroke: #A80036; stroke-width: 2.0;"/><polygon fill="#A80036" points="300,290.0122,306,285.0122,304,290.0122,306,295.0122,300,290.0122" style="stroke: #A80036; stroke-width: 1.0;"/><text fill="#000000" font-family="sans-serif" font-size="14" lengthAdjust="spacingAndGlyphs" textLength="4" x="398" y="86.0439">:</text><text fill="#000000" font-family="sans-serif" font-size="14" lengthAdjust="spacingAndGlyphs" text-decoration="underline" textLength="166" x="402" y="86.0439">OnlineSoundSpaceLibrary</text><line style="stroke: #000000; stroke-width: 1.0;" x1="402" x2="568" y1="88.0439" y2="88.0439"/><ellipse cx="486" cy="54" fill="#FEFECE" filter="url(#fpvvkwvhqc2e2)" rx="12" ry="12" style="stroke: #A80036; stroke-width: 2.0;"/><line style="stroke: #A80036; stroke-width: 2.0;" x1="474" x2="498" y1="68" y2="68"/><text fill="#000000" font-family="sans-serif" font-size="14" lengthAdjust="spacingAndGlyphs" textLength="4" x="398" y="282.936">:</text><text fill="#000000" font-family="sans-serif" font-size="14" lengthAdjust="spacingAndGlyphs" text-decoration="underline" textLength="166" x="402" y="282.936">OnlineSoundSpaceLibrary</text><line style="stroke: #000000; stroke-width: 1.0;" x1="402" x2="568" y1="284.936" y2="284.936"/><ellipse cx="486" cy="302.0122" fill="#FEFECE" filter="url(#fpvvkwvhqc2e2)" rx="12" ry="12" style="stroke: #A80036; stroke-width: 2.0;"/><line style="stroke: #A80036; stroke-width: 2.0;" x1="474" x2="498" y1="316.0122" y2="316.0122"/><rect fill="#FFFFFF" filter="url(#fpvvkwvhqc2e2)" height="150.0176" style="stroke: #A80036; stroke-width: 1.0;" width="10" x="22.5" y="99.1201"/><rect fill="#FFFFFF" filter="url(#fpvvkwvhqc2e2)" height="150.0176" style="stroke: #A80036; stroke-width: 1.0;" width="10" x="128.5" y="99.1201"/><rect fill="#FFFFFF" filter="url(#fpvvkwvhqc2e2)" height="95.2632" style="stroke: #A80036; stroke-width: 1.0;" width="10" x="299" y="153.8745"/><rect fill="#FFFFFF" filter="url(#fpvvkwvhqc2e2)" height="31.7544" style="stroke: #A80036; stroke-width: 1.0;" width="10" x="481" y="185.6289"/><polygon fill="#A80036" points="116.5,118.1201,126.5,122.1201,116.5,126.1201,120.5,122.1201" style="stroke: #A80036; stroke-width: 1.0;"/><line style="stroke: #A80036; stroke-width: 1.0;" x1="32.5" x2="122.5" y1="122.1201" y2="122.1201"/><text fill="#000000" font-family="sans-serif" font-size="13" lengthAdjust="spacingAndGlyphs" textLength="51" x="39.5" y="118.0181">LikeVSS</text><polygon fill="#A80036" points="287,149.8745,297,153.8745,287,157.8745,291,153.8745" style="stroke: #A80036; stroke-width: 1.0;"/><line style="stroke: #A80036; stroke-width: 1.0;" x1="138.5" x2="293" y1="153.8745" y2="153.8745"/><text fill="#000000" font-family="sans-serif" font-size="13" lengthAdjust="spacingAndGlyphs" textLength="68" x="145.5" y="149.7725">&lt;&lt;create&gt;&gt;</text><polygon fill="#A80036" points="469,181.6289,479,185.6289,469,189.6289,473,185.6289" style="stroke: #A80036; stroke-width: 1.0;"/><line style="stroke: #A80036; stroke-width: 1.0;" x1="309" x2="475" y1="185.6289" y2="185.6289"/><text fill="#000000" font-family="sans-serif" font-size="13" lengthAdjust="spacingAndGlyphs" textLength="51" x="316" y="181.5269">LikeVSS</text><polygon fill="#A80036" points="149.5,213.3833,139.5,217.3833,149.5,221.3833,145.5,217.3833" style="stroke: #A80036; stroke-width: 1.0;"/><line style="stroke: #A80036; stroke-width: 1.0;" x1="143.5" x2="485" y1="217.3833" y2="217.3833"/><text fill="#000000" font-family="sans-serif" font-size="13" lengthAdjust="spacingAndGlyphs" textLength="72" x="155.5" y="213.2813">LikeUserList</text><polygon fill="#A80036" points="38.5,245.1377,28.5,249.1377,38.5,253.1377,34.5,249.1377" style="stroke: #A80036; stroke-width: 1.0;"/><line style="stroke: #A80036; stroke-width: 1.0;" x1="32.5" x2="132.5" y1="249.1377" y2="249.1377"/><text fill="#000000" font-family="sans-serif" font-size="13" lengthAdjust="spacingAndGlyphs" textLength="72" x="44.5" y="245.0356">LikeUserList</text><!--
@startuml
actor ":__User__" as User
boundary ":__OnlineVSSViewerPage__" as OnlineVSSViewerPage
control ":__OnlineVSSLibraryControl__" as OnlineVSSLibraryControl
entity ":__OnlineSoundSpaceLibrary__" as OnlineSoundSpaceLibrary

activate User
activate OnlineVSSViewerPage
User -> OnlineVSSViewerPage: LikeVSS
OnlineVSSViewerPage -> OnlineVSSLibraryControl: <<create>>
activate OnlineVSSLibraryControl
OnlineVSSLibraryControl -> OnlineSoundSpaceLibrary: LikeVSS
activate OnlineSoundSpaceLibrary
OnlineSoundSpaceLibrary -> OnlineVSSViewerPage: LikeUserList
deactivate OnlineSoundSpaceLibrary
OnlineVSSViewerPage -> User: LikeUserList
deactivate OnlineVSSLibraryControl
deactivate OnlineVSSViewerPage
deactivate User
@enduml

PlantUML version 1.2018.01(Mon Jan 29 02:08:22 CST 2018)
(GPL source distribution)
Java Runtime: Java(TM) SE Runtime Environment
JVM: Java HotSpot(TM) Client VM
Java Version: 1.8.0_144-b01
Operating System: Windows 10
OS Version: 10.0
Default Encoding: GBK
Language: zh
Country: CN
--></g></svg>