<?xml version="1.0" encoding="UTF-8" standalone="no"?><svg xmlns="http://www.w3.org/2000/svg" xmlns:xlink="http://www.w3.org/1999/xlink" contentScriptType="application/ecmascript" contentStyleType="text/css" height="328px" preserveAspectRatio="none" style="width:274px;height:328px;" version="1.1" viewBox="0 0 274 328"
    width="274px" zoomAndPan="magnify"><defs><filter height="300%" id="fxgmfh94fwtdx" width="300%" x="-1" y="-1"><feGaussianBlur result="blurOut" stdDeviation="2.0"/><feColorMatrix in="blurOut" result="blurOut2" type="matrix" values="0 0 0 0 0 0 0 0 0 0 0 0 0 0 0 0 0 0 .4 0"/><feOffset dx="4.0" dy="4.0" in="blurOut2" result="blurOut3"/><feBlend in="SourceGraphic" in2="blurOut3" mode="normal"/></filter></defs><g><rect fill="#FFFFFF" filter="url(#fxgmfh94fwtdx)" height="129.0405" style="stroke: #A80036; stroke-width: 1.0;" width="10" x="37.5" y="99.1201"/><rect fill="#FFFFFF" filter="url(#fxgmfh94fwtdx)" height="106.0405" style="stroke: #A80036; stroke-width: 1.0;" width="10" x="106" y="122.1201"/><rect fill="#FFFFFF" filter="url(#fxgmfh94fwtdx)" height="74.2861" style="stroke: #A80036; stroke-width: 1.0;" width="10" x="209" y="153.8745"/><rect fill="#FFFFFF" filter="url(#fxgmfh94fwtdx)" height="51.5317" style="stroke: #000000; stroke-width: 2.0;" width="147" x="13" y="169.6289"/><line style="stroke: #A80036; stroke-width: 1.0; stroke-dasharray: 5.0,5.0;" x1="42" x2="42" y1="89.1201" y2="238.1606"/><line style="stroke: #A80036; stroke-width: 1.0; stroke-dasharray: 5.0,5.0;" x1="111" x2="111" y1="89.1201" y2="238.1606"/><line style="stroke: #A80036; stroke-width: 1.0; stroke-dasharray: 5.0,5.0;" x1="214" x2="214" y1="89.1201" y2="238.1606"/><text fill="#000000" font-family="sans-serif" font-size="14" lengthAdjust="spacingAndGlyphs" textLength="4" x="23" y="86.0439">:</text><text fill="#000000" font-family="sans-serif" font-size="14" lengthAdjust="spacingAndGlyphs" text-decoration="underline" textLength="29" x="27" y="86.0439">User</text><line style="stroke: #000000; stroke-width: 1.0;" x1="27" x2="56" y1="88.0439" y2="88.0439"/><ellipse cx="42.5" cy="13" fill="#FEFECE" filter="url(#fxgmfh94fwtdx)" rx="8" ry="8" style="stroke: #A80036; stroke-width: 2.0;"/><path d="M42.5,21 L42.5,48 M29.5,29 L55.5,29 M42.5,48 L29.5,63 M42.5,48 L55.5,63 " fill="none" filter="url(#fxgmfh94fwtdx)" style="stroke: #A80036; stroke-width: 2.0;"/><text fill="#000000" font-family="sans-serif" font-size="14" lengthAdjust="spacingAndGlyphs" textLength="4" x="23" y="253.2046">:</text><text fill="#000000" font-family="sans-serif" font-size="14" lengthAdjust="spacingAndGlyphs" text-decoration="underline" textLength="29" x="27" y="253.2046">User</text><line style="stroke: #000000; stroke-width: 1.0;" x1="27" x2="56" y1="255.2046" y2="255.2046"/><ellipse cx="42.5" cy="266.2808" fill="#FEFECE" filter="url(#fxgmfh94fwtdx)" rx="8" ry="8" style="stroke: #A80036; stroke-width: 2.0;"/><path d="M42.5,274.2808 L42.5,301.2808 M29.5,282.2808 L55.5,282.2808 M42.5,301.2808 L29.5,316.2808 M42.5,301.2808 L55.5,316.2808 " fill="none" filter="url(#fxgmfh94fwtdx)" style="stroke: #A80036; stroke-width: 2.0;"/><text fill="#000000" font-family="sans-serif" font-size="14" lengthAdjust="spacingAndGlyphs" textLength="4" x="72" y="86.0439">:</text><text fill="#000000" font-family="sans-serif" font-size="14" lengthAdjust="spacingAndGlyphs" text-decoration="underline" textLength="68" x="76" y="86.0439">LoginPage</text><line style="stroke: #000000; stroke-width: 1.0;" x1="76" x2="144" y1="88.0439" y2="88.0439"/><path d="M90.5,42 L90.5,66 M90.5,54 L107.5,54 " fill="none" filter="url(#fxgmfh94fwtdx)" style="stroke: #A80036; stroke-width: 2.0;"/><ellipse cx="119.5" cy="54" fill="#FEFECE" filter="url(#fxgmfh94fwtdx)" rx="12" ry="12" style="stroke: #A80036; stroke-width: 2.0;"/><text fill="#000000" font-family="sans-serif" font-size="14" lengthAdjust="spacingAndGlyphs" textLength="4" x="72" y="253.2046">:</text><text fill="#000000" font-family="sans-serif" font-size="14" lengthAdjust="spacingAndGlyphs" text-decoration="underline" textLength="68" x="76" y="253.2046">LoginPage</text><line style="stroke: #000000; stroke-width: 1.0;" x1="76" x2="144" y1="255.2046" y2="255.2046"/><path d="M90.5,260.2808 L90.5,284.2808 M90.5,272.2808 L107.5,272.2808 " fill="none" filter="url(#fxgmfh94fwtdx)" style="stroke: #A80036; stroke-width: 2.0;"/><ellipse cx="119.5" cy="272.2808" fill="#FEFECE" filter="url(#fxgmfh94fwtdx)" rx="12" ry="12" style="stroke: #A80036; stroke-width: 2.0;"/><text fill="#000000" font-family="sans-serif" font-size="14" lengthAdjust="spacingAndGlyphs" textLength="4" x="160" y="86.0439">:</text><text fill="#000000" font-family="sans-serif" font-size="14" lengthAdjust="spacingAndGlyphs" text-decoration="underline" textLength="98" x="164" y="86.0439">UserInfoControl</text><line style="stroke: #000000; stroke-width: 1.0;" x1="164" x2="262" y1="88.0439" y2="88.0439"/><ellipse cx="214" cy="54" fill="#FEFECE" filter="url(#fxgmfh94fwtdx)" rx="12" ry="12" style="stroke: #A80036; stroke-width: 2.0;"/><polygon fill="#A80036" points="210,42,216,37,214,42,216,47,210,42" style="stroke: #A80036; stroke-width: 1.0;"/><text fill="#000000" font-family="sans-serif" font-size="14" lengthAdjust="spacingAndGlyphs" textLength="4" x="160" y="253.2046">:</text><text fill="#000000" font-family="sans-serif" font-size="14" lengthAdjust="spacingAndGlyphs" text-decoration="underline" textLength="98" x="164" y="253.2046">UserInfoControl</text><line style="stroke: #000000; stroke-width: 1.0;" x1="164" x2="262" y1="255.2046" y2="255.2046"/><ellipse cx="214" cy="272.2808" fill="#FEFECE" filter="url(#fxgmfh94fwtdx)" rx="12" ry="12" style="stroke: #A80036; stroke-width: 2.0;"/><polygon fill="#A80036" points="210,260.2808,216,255.2808,214,260.2808,216,265.2808,210,260.2808" style="stroke: #A80036; stroke-width: 1.0;"/><rect fill="#FFFFFF" filter="url(#fxgmfh94fwtdx)" height="129.0405" style="stroke: #A80036; stroke-width: 1.0;" width="10" x="37.5" y="99.1201"/><rect fill="#FFFFFF" filter="url(#fxgmfh94fwtdx)" height="106.0405" style="stroke: #A80036; stroke-width: 1.0;" width="10" x="106" y="122.1201"/><rect fill="#FFFFFF" filter="url(#fxgmfh94fwtdx)" height="74.2861" style="stroke: #A80036; stroke-width: 1.0;" width="10" x="209" y="153.8745"/><polygon fill="#A80036" points="94,118.1201,104,122.1201,94,126.1201,98,122.1201" style="stroke: #A80036; stroke-width: 1.0;"/><line style="stroke: #A80036; stroke-width: 1.0;" x1="47.5" x2="100" y1="122.1201" y2="122.1201"/><text fill="#000000" font-family="sans-serif" font-size="13" lengthAdjust="spacingAndGlyphs" textLength="31" x="54.5" y="118.0181">Login</text><polygon fill="#A80036" points="197,149.8745,207,153.8745,197,157.8745,201,153.8745" style="stroke: #A80036; stroke-width: 1.0;"/><line style="stroke: #A80036; stroke-width: 1.0;" x1="116" x2="203" y1="153.8745" y2="153.8745"/><text fill="#000000" font-family="sans-serif" font-size="13" lengthAdjust="spacingAndGlyphs" textLength="68" x="123" y="149.7725">&lt;&lt;create&gt;&gt;</text><path d="M13,169.6289 L86,169.6289 L86,178.6289 L76,188.6289 L13,188.6289 L13,169.6289 " fill="#EEEEEE" style="stroke: #000000; stroke-width: 1.0;"/><rect fill="none" height="51.5317" style="stroke: #000000; stroke-width: 2.0;" width="147" x="13" y="169.6289"/><text fill="#000000" font-family="sans-serif" font-size="13" font-weight="bold" lengthAdjust="spacingAndGlyphs" textLength="28" x="28" y="185.5269">loop</text><text fill="#000000" font-family="sans-serif" font-size="11" font-weight="bold" lengthAdjust="spacingAndGlyphs" textLength="43" x="101" y="184.2349">[invalid]</text><polygon fill="#A80036" points="94,208.4063,104,212.4063,94,216.4063,98,212.4063" style="stroke: #A80036; stroke-width: 1.0;"/><line style="stroke: #A80036; stroke-width: 1.0;" x1="47.5" x2="100" y1="212.4063" y2="212.4063"/><text fill="#000000" font-family="sans-serif" font-size="13" lengthAdjust="spacingAndGlyphs" textLength="31" x="54.5" y="208.3042">Login</text><!--
@startuml
actor ":__User__" as User
boundary ":__LoginPage__" as LoginPage
control ":__UserInfoControl__" as UserInfoControl

activate User
User -> LoginPage: Login
activate LoginPage
LoginPage -> UserInfoControl: <<create>>
activate UserInfoControl
loop invalid
    User -> LoginPage: Login
end
deactivate User
deactivate LoginPage
deactivate UserInfoControl
@enduml

PlantUML version 1.2018.01(Mon Jan 29 02:08:22 CST 2018)
(GPL source distribution)
Java Runtime: Java(TM) SE Runtime Environment
JVM: Java HotSpot(TM) Client VM
Java Version: 1.8.0_144-b01
Operating System: Windows 10
OS Version: 10.0
Default Encoding: GBK
Language: zh
Country: CN
--></g></svg>