<?xml version="1.0" encoding="UTF-8" standalone="no"?><svg xmlns="http://www.w3.org/2000/svg" xmlns:xlink="http://www.w3.org/1999/xlink" contentScriptType="application/ecmascript" contentStyleType="text/css" height="593px" preserveAspectRatio="none" style="width:992px;height:593px;" version="1.1" viewBox="0 0 992 593"
    width="992px" zoomAndPan="magnify"><defs><filter height="300%" id="fpceldcekjjxg" width="300%" x="-1" y="-1"><feGaussianBlur result="blurOut" stdDeviation="2.0"/><feColorMatrix in="blurOut" result="blurOut2" type="matrix" values="0 0 0 0 0 0 0 0 0 0 0 0 0 0 0 0 0 0 .4 0"/><feOffset dx="4.0" dy="4.0" in="blurOut2" result="blurOut3"/><feBlend in="SourceGraphic" in2="blurOut3" mode="normal"/></filter></defs><g><rect fill="#FFFFFF" filter="url(#fpceldcekjjxg)" height="394.1499" style="stroke: #A80036; stroke-width: 1.0;" width="10" x="37.5" y="99.1201"/><rect fill="#FFFFFF" filter="url(#fpceldcekjjxg)" height="371.1499" style="stroke: #A80036; stroke-width: 1.0;" width="10" x="209.5" y="122.1201"/><rect fill="#FFFFFF" filter="url(#fpceldcekjjxg)" height="339.3955" style="stroke: #A80036; stroke-width: 1.0;" width="10" x="380" y="153.8745"/><rect fill="#FFFFFF" filter="url(#fpceldcekjjxg)" height="316.6411" style="stroke: #000000; stroke-width: 2.0;" width="967.5" x="13" y="169.6289"/><rect fill="#FFFFFF" height="62.7773" style="stroke: none; stroke-width: 1.0;" width="967.5" x="13" y="235.1606"/><rect fill="#FFFFFF" height="62.7773" style="stroke: none; stroke-width: 1.0;" width="967.5" x="13" y="297.938"/><rect fill="#FFFFFF" height="62.7773" style="stroke: none; stroke-width: 1.0;" width="967.5" x="13" y="360.7153"/><rect fill="#FFFFFF" height="62.7773" style="stroke: none; stroke-width: 1.0;" width="967.5" x="13" y="423.4927"/><line style="stroke: #A80036; stroke-width: 1.0; stroke-dasharray: 5.0,5.0;" x1="42" x2="42" y1="89.1201" y2="503.27"/><line style="stroke: #A80036; stroke-width: 1.0; stroke-dasharray: 5.0,5.0;" x1="214.5" x2="214.5" y1="89.1201" y2="503.27"/><line style="stroke: #A80036; stroke-width: 1.0; stroke-dasharray: 5.0,5.0;" x1="384.5" x2="384.5" y1="89.1201" y2="503.27"/><line style="stroke: #A80036; stroke-width: 1.0; stroke-dasharray: 5.0,5.0;" x1="519.5" x2="519.5" y1="89.1201" y2="503.27"/><line style="stroke: #A80036; stroke-width: 1.0; stroke-dasharray: 5.0,5.0;" x1="622.5" x2="622.5" y1="89.1201" y2="503.27"/><line style="stroke: #A80036; stroke-width: 1.0; stroke-dasharray: 5.0,5.0;" x1="724.5" x2="724.5" y1="89.1201" y2="503.27"/><line style="stroke: #A80036; stroke-width: 1.0; stroke-dasharray: 5.0,5.0;" x1="821.5" x2="821.5" y1="89.1201" y2="503.27"/><line style="stroke: #A80036; stroke-width: 1.0; stroke-dasharray: 5.0,5.0;" x1="923.5" x2="923.5" y1="89.1201" y2="503.27"/><text fill="#000000" font-family="sans-serif" font-size="14" lengthAdjust="spacingAndGlyphs" textLength="4" x="23" y="86.0439">:</text><text fill="#000000" font-family="sans-serif" font-size="14" lengthAdjust="spacingAndGlyphs" text-decoration="underline" textLength="29" x="27" y="86.0439">User</text><line style="stroke: #000000; stroke-width: 1.0;" x1="27" x2="56" y1="88.0439" y2="88.0439"/><ellipse cx="42.5" cy="13" fill="#FEFECE" filter="url(#fpceldcekjjxg)" rx="8" ry="8" style="stroke: #A80036; stroke-width: 2.0;"/><path d="M42.5,21 L42.5,48 M29.5,29 L55.5,29 M42.5,48 L29.5,63 M42.5,48 L55.5,63 " fill="none" filter="url(#fpceldcekjjxg)" style="stroke: #A80036; stroke-width: 2.0;"/><text fill="#000000" font-family="sans-serif" font-size="14" lengthAdjust="spacingAndGlyphs" textLength="4" x="23" y="518.314">:</text><text fill="#000000" font-family="sans-serif" font-size="14" lengthAdjust="spacingAndGlyphs" text-decoration="underline" textLength="29" x="27" y="518.314">User</text><line style="stroke: #000000; stroke-width: 1.0;" x1="27" x2="56" y1="520.314" y2="520.314"/><ellipse cx="42.5" cy="531.3901" fill="#FEFECE" filter="url(#fpceldcekjjxg)" rx="8" ry="8" style="stroke: #A80036; stroke-width: 2.0;"/><path d="M42.5,539.3901 L42.5,566.3901 M29.5,547.3901 L55.5,547.3901 M42.5,566.3901 L29.5,581.3901 M42.5,566.3901 L55.5,581.3901 " fill="none" filter="url(#fpceldcekjjxg)" style="stroke: #A80036; stroke-width: 2.0;"/><text fill="#000000" font-family="sans-serif" font-size="14" lengthAdjust="spacingAndGlyphs" textLength="4" x="134.5" y="86.0439">:</text><text fill="#000000" font-family="sans-serif" font-size="14" lengthAdjust="spacingAndGlyphs" text-decoration="underline" textLength="150" x="138.5" y="86.0439">LocalVSSManagerPage</text><line style="stroke: #000000; stroke-width: 1.0;" x1="138.5" x2="288.5" y1="88.0439" y2="88.0439"/><path d="M194,42 L194,66 M194,54 L211,54 " fill="none" filter="url(#fpceldcekjjxg)" style="stroke: #A80036; stroke-width: 2.0;"/><ellipse cx="223" cy="54" fill="#FEFECE" filter="url(#fpceldcekjjxg)" rx="12" ry="12" style="stroke: #A80036; stroke-width: 2.0;"/><text fill="#000000" font-family="sans-serif" font-size="14" lengthAdjust="spacingAndGlyphs" textLength="4" x="134.5" y="518.314">:</text><text fill="#000000" font-family="sans-serif" font-size="14" lengthAdjust="spacingAndGlyphs" text-decoration="underline" textLength="150" x="138.5" y="518.314">LocalVSSManagerPage</text><line style="stroke: #000000; stroke-width: 1.0;" x1="138.5" x2="288.5" y1="520.314" y2="520.314"/><path d="M194,525.3901 L194,549.3901 M194,537.3901 L211,537.3901 " fill="none" filter="url(#fpceldcekjjxg)" style="stroke: #A80036; stroke-width: 2.0;"/><ellipse cx="223" cy="537.3901" fill="#FEFECE" filter="url(#fpceldcekjjxg)" rx="12" ry="12" style="stroke: #A80036; stroke-width: 2.0;"/><text fill="#000000" font-family="sans-serif" font-size="14" lengthAdjust="spacingAndGlyphs" textLength="4" x="304.5" y="86.0439">:</text><text fill="#000000" font-family="sans-serif" font-size="14" lengthAdjust="spacingAndGlyphs" text-decoration="underline" textLength="151" x="308.5" y="86.0439">LocalVSSLibraryControl</text><line style="stroke: #000000; stroke-width: 1.0;" x1="308.5" x2="459.5" y1="88.0439" y2="88.0439"/><ellipse cx="385" cy="54" fill="#FEFECE" filter="url(#fpceldcekjjxg)" rx="12" ry="12" style="stroke: #A80036; stroke-width: 2.0;"/><polygon fill="#A80036" points="381,42,387,37,385,42,387,47,381,42" style="stroke: #A80036; stroke-width: 1.0;"/><text fill="#000000" font-family="sans-serif" font-size="14" lengthAdjust="spacingAndGlyphs" textLength="4" x="304.5" y="518.314">:</text><text fill="#000000" font-family="sans-serif" font-size="14" lengthAdjust="spacingAndGlyphs" text-decoration="underline" textLength="151" x="308.5" y="518.314">LocalVSSLibraryControl</text><line style="stroke: #000000; stroke-width: 1.0;" x1="308.5" x2="459.5" y1="520.314" y2="520.314"/><ellipse cx="385" cy="537.3901" fill="#FEFECE" filter="url(#fpceldcekjjxg)" rx="12" ry="12" style="stroke: #A80036; stroke-width: 2.0;"/><polygon fill="#A80036" points="381,525.3901,387,520.3901,385,525.3901,387,530.3901,381,525.3901" style="stroke: #A80036; stroke-width: 1.0;"/><rect fill="#FEFECE" filter="url(#fpceldcekjjxg)" height="33.1201" style="stroke: #A80036; stroke-width: 1.5;" width="84" x="475.5" y="51"/><text fill="#000000" font-family="sans-serif" font-size="14" lengthAdjust="spacingAndGlyphs" textLength="70" x="482.5" y="74.0439">CreateVSS</text><rect fill="#FEFECE" filter="url(#fpceldcekjjxg)" height="33.1201" style="stroke: #A80036; stroke-width: 1.5;" width="84" x="475.5" y="502.27"/><text fill="#000000" font-family="sans-serif" font-size="14" lengthAdjust="spacingAndGlyphs" textLength="70" x="482.5" y="525.314">CreateVSS</text><rect fill="#FEFECE" filter="url(#fpceldcekjjxg)" height="33.1201" style="stroke: #A80036; stroke-width: 1.5;" width="94" x="573.5" y="51"/><text fill="#000000" font-family="sans-serif" font-size="14" lengthAdjust="spacingAndGlyphs" textLength="80" x="580.5" y="74.0439">RenameVSS</text><rect fill="#FEFECE" filter="url(#fpceldcekjjxg)" height="33.1201" style="stroke: #A80036; stroke-width: 1.5;" width="94" x="573.5" y="502.27"/><text fill="#000000" font-family="sans-serif" font-size="14" lengthAdjust="spacingAndGlyphs" textLength="80" x="580.5" y="525.314">RenameVSS</text><rect fill="#FEFECE" filter="url(#fpceldcekjjxg)" height="33.1201" style="stroke: #A80036; stroke-width: 1.5;" width="82" x="681.5" y="51"/><text fill="#000000" font-family="sans-serif" font-size="14" lengthAdjust="spacingAndGlyphs" textLength="68" x="688.5" y="74.0439">DeleteVSS</text><rect fill="#FEFECE" filter="url(#fpceldcekjjxg)" height="33.1201" style="stroke: #A80036; stroke-width: 1.5;" width="82" x="681.5" y="502.27"/><text fill="#000000" font-family="sans-serif" font-size="14" lengthAdjust="spacingAndGlyphs" textLength="68" x="688.5" y="525.314">DeleteVSS</text><rect fill="#FEFECE" filter="url(#fpceldcekjjxg)" height="33.1201" style="stroke: #A80036; stroke-width: 1.5;" width="85" x="777.5" y="51"/><text fill="#000000" font-family="sans-serif" font-size="14" lengthAdjust="spacingAndGlyphs" textLength="71" x="784.5" y="74.0439">UploadVSS</text><rect fill="#FEFECE" filter="url(#fpceldcekjjxg)" height="33.1201" style="stroke: #A80036; stroke-width: 1.5;" width="85" x="777.5" y="502.27"/><text fill="#000000" font-family="sans-serif" font-size="14" lengthAdjust="spacingAndGlyphs" textLength="71" x="784.5" y="525.314">UploadVSS</text><rect fill="#FEFECE" filter="url(#fpceldcekjjxg)" height="33.1201" style="stroke: #A80036; stroke-width: 1.5;" width="90" x="876.5" y="51"/><text fill="#000000" font-family="sans-serif" font-size="14" lengthAdjust="spacingAndGlyphs" textLength="76" x="883.5" y="74.0439">PreviewVSS</text><rect fill="#FEFECE" filter="url(#fpceldcekjjxg)" height="33.1201" style="stroke: #A80036; stroke-width: 1.5;" width="90" x="876.5" y="502.27"/><text fill="#000000" font-family="sans-serif" font-size="14" lengthAdjust="spacingAndGlyphs" textLength="76" x="883.5" y="525.314">PreviewVSS</text><rect fill="#FFFFFF" filter="url(#fpceldcekjjxg)" height="394.1499" style="stroke: #A80036; stroke-width: 1.0;" width="10" x="37.5" y="99.1201"/><rect fill="#FFFFFF" filter="url(#fpceldcekjjxg)" height="371.1499" style="stroke: #A80036; stroke-width: 1.0;" width="10" x="209.5" y="122.1201"/><rect fill="#FFFFFF" filter="url(#fpceldcekjjxg)" height="339.3955" style="stroke: #A80036; stroke-width: 1.0;" width="10" x="380" y="153.8745"/><polygon fill="#A80036" points="197.5,118.1201,207.5,122.1201,197.5,126.1201,201.5,122.1201" style="stroke: #A80036; stroke-width: 1.0;"/><line style="stroke: #A80036; stroke-width: 1.0;" x1="47.5" x2="203.5" y1="122.1201" y2="122.1201"/><text fill="#000000" font-family="sans-serif" font-size="13" lengthAdjust="spacingAndGlyphs" textLength="143" x="54.5" y="118.0181">ManageLocalVSSLibrary</text><polygon fill="#A80036" points="368,149.8745,378,153.8745,368,157.8745,372,153.8745" style="stroke: #A80036; stroke-width: 1.0;"/><line style="stroke: #A80036; stroke-width: 1.0;" x1="219.5" x2="374" y1="153.8745" y2="153.8745"/><text fill="#000000" font-family="sans-serif" font-size="13" lengthAdjust="spacingAndGlyphs" textLength="68" x="226.5" y="149.7725">&lt;&lt;create&gt;&gt;</text><path d="M13,169.6289 L74,169.6289 L74,178.6289 L64,188.6289 L13,188.6289 L13,169.6289 " fill="#EEEEEE" style="stroke: #000000; stroke-width: 1.0;"/><rect fill="none" height="316.6411" style="stroke: #000000; stroke-width: 2.0;" width="967.5" x="13" y="169.6289"/><text fill="#000000" font-family="sans-serif" font-size="13" font-weight="bold" lengthAdjust="spacingAndGlyphs" textLength="16" x="28" y="185.5269">alt</text><text fill="#000000" font-family="sans-serif" font-size="11" font-weight="bold" lengthAdjust="spacingAndGlyphs" textLength="102" x="89" y="184.2349">[Create Operation]</text><polygon fill="#A80036" points="197.5,208.4063,207.5,212.4063,197.5,216.4063,201.5,212.4063" style="stroke: #A80036; stroke-width: 1.0;"/><line style="stroke: #A80036; stroke-width: 1.0;" x1="47.5" x2="203.5" y1="212.4063" y2="212.4063"/><text fill="#000000" font-family="sans-serif" font-size="13" lengthAdjust="spacingAndGlyphs" textLength="65" x="54.5" y="208.3042">CreateVSS</text><polygon fill="#A80036" points="507.5,223.1606,517.5,227.1606,507.5,231.1606,511.5,227.1606" style="stroke: #A80036; stroke-width: 1.0;"/><line style="stroke: #A80036; stroke-width: 1.0;" x1="390" x2="513.5" y1="227.1606" y2="227.1606"/><line style="stroke: #000000; stroke-width: 1.0; stroke-dasharray: 2.0,2.0;" x1="13" x2="980.5" y1="236.1606" y2="236.1606"/><text fill="#000000" font-family="sans-serif" font-size="11" font-weight="bold" lengthAdjust="spacingAndGlyphs" textLength="110" x="18" y="248.7666">[Rename Operation]</text><polygon fill="#A80036" points="197.5,271.1836,207.5,275.1836,197.5,279.1836,201.5,275.1836" style="stroke: #A80036; stroke-width: 1.0;"/><line style="stroke: #A80036; stroke-width: 1.0;" x1="47.5" x2="203.5" y1="275.1836" y2="275.1836"/><text fill="#000000" font-family="sans-serif" font-size="13" lengthAdjust="spacingAndGlyphs" textLength="75" x="54.5" y="271.0815">RenameVSS</text><polygon fill="#A80036" points="610.5,285.938,620.5,289.938,610.5,293.938,614.5,289.938" style="stroke: #A80036; stroke-width: 1.0;"/><line style="stroke: #A80036; stroke-width: 1.0;" x1="390" x2="616.5" y1="289.938" y2="289.938"/><line style="stroke: #000000; stroke-width: 1.0; stroke-dasharray: 2.0,2.0;" x1="13" x2="980.5" y1="298.938" y2="298.938"/><text fill="#000000" font-family="sans-serif" font-size="11" font-weight="bold" lengthAdjust="spacingAndGlyphs" textLength="100" x="18" y="311.5439">[Delete Operation]</text><polygon fill="#A80036" points="197.5,333.9609,207.5,337.9609,197.5,341.9609,201.5,337.9609" style="stroke: #A80036; stroke-width: 1.0;"/><line style="stroke: #A80036; stroke-width: 1.0;" x1="47.5" x2="203.5" y1="337.9609" y2="337.9609"/><text fill="#000000" font-family="sans-serif" font-size="13" lengthAdjust="spacingAndGlyphs" textLength="64" x="54.5" y="333.8589">DeleteVSS</text><polygon fill="#A80036" points="712.5,348.7153,722.5,352.7153,712.5,356.7153,716.5,352.7153" style="stroke: #A80036; stroke-width: 1.0;"/><line style="stroke: #A80036; stroke-width: 1.0;" x1="390" x2="718.5" y1="352.7153" y2="352.7153"/><line style="stroke: #000000; stroke-width: 1.0; stroke-dasharray: 2.0,2.0;" x1="13" x2="980.5" y1="361.7153" y2="361.7153"/><text fill="#000000" font-family="sans-serif" font-size="11" font-weight="bold" lengthAdjust="spacingAndGlyphs" textLength="102" x="18" y="374.3213">[Upload Operation]</text><polygon fill="#A80036" points="197.5,396.7383,207.5,400.7383,197.5,404.7383,201.5,400.7383" style="stroke: #A80036; stroke-width: 1.0;"/><line style="stroke: #A80036; stroke-width: 1.0;" x1="47.5" x2="203.5" y1="400.7383" y2="400.7383"/><text fill="#000000" font-family="sans-serif" font-size="13" lengthAdjust="spacingAndGlyphs" textLength="67" x="54.5" y="396.6362">UploadVSS</text><polygon fill="#A80036" points="810,411.4927,820,415.4927,810,419.4927,814,415.4927" style="stroke: #A80036; stroke-width: 1.0;"/><line style="stroke: #A80036; stroke-width: 1.0;" x1="390" x2="816" y1="415.4927" y2="415.4927"/><line style="stroke: #000000; stroke-width: 1.0; stroke-dasharray: 2.0,2.0;" x1="13" x2="980.5" y1="424.4927" y2="424.4927"/><text fill="#000000" font-family="sans-serif" font-size="11" font-weight="bold" lengthAdjust="spacingAndGlyphs" textLength="110" x="18" y="437.0986">[Preview Operation]</text><polygon fill="#A80036" points="197.5,459.5156,207.5,463.5156,197.5,467.5156,201.5,463.5156" style="stroke: #A80036; stroke-width: 1.0;"/><line style="stroke: #A80036; stroke-width: 1.0;" x1="47.5" x2="203.5" y1="463.5156" y2="463.5156"/><text fill="#000000" font-family="sans-serif" font-size="13" lengthAdjust="spacingAndGlyphs" textLength="71" x="54.5" y="459.4136">PreviewVSS</text><polygon fill="#A80036" points="911.5,474.27,921.5,478.27,911.5,482.27,915.5,478.27" style="stroke: #A80036; stroke-width: 1.0;"/><line style="stroke: #A80036; stroke-width: 1.0;" x1="390" x2="917.5" y1="478.27" y2="478.27"/><!--
@startuml
actor ":__User__" as User
boundary ":__LocalVSSManagerPage__" as LocalVSSManagerPage
control ":__LocalVSSLibraryControl__" as LocalVSSLibraryControl

activate User
User -> LocalVSSManagerPage: ManageLocalVSSLibrary
activate LocalVSSManagerPage
LocalVSSManagerPage -> LocalVSSLibraryControl: <<create>>
activate LocalVSSLibraryControl

alt Create Operation
    User -> LocalVSSManagerPage: CreateVSS
    LocalVSSLibraryControl -> CreateVSS
else Rename Operation
    User -> LocalVSSManagerPage: RenameVSS
    LocalVSSLibraryControl -> RenameVSS
else Delete Operation
    User -> LocalVSSManagerPage: DeleteVSS
    LocalVSSLibraryControl -> DeleteVSS
else Upload Operation
    User -> LocalVSSManagerPage: UploadVSS
    LocalVSSLibraryControl -> UploadVSS
else Preview Operation
    User -> LocalVSSManagerPage: PreviewVSS
    LocalVSSLibraryControl -> PreviewVSS
end

deactivate LocalVSSManagerPage
deactivate LocalVSSLibraryControl
deactivate User
@enduml

PlantUML version 1.2018.01(Mon Jan 29 02:08:22 CST 2018)
(GPL source distribution)
Java Runtime: Java(TM) SE Runtime Environment
JVM: Java HotSpot(TM) Client VM
Java Version: 1.8.0_144-b01
Operating System: Windows 10
OS Version: 10.0
Default Encoding: GBK
Language: zh
Country: CN
--></g></svg>