<?xml version="1.0" encoding="UTF-8" standalone="no"?><svg xmlns="http://www.w3.org/2000/svg" xmlns:xlink="http://www.w3.org/1999/xlink" contentScriptType="application/ecmascript" contentStyleType="text/css" height="555px" preserveAspectRatio="none" style="width:384px;height:555px;" version="1.1" viewBox="0 0 384 555"
    width="384px" zoomAndPan="magnify"><defs><filter height="300%" id="fe31ss4h7w9og" width="300%" x="-1" y="-1"><feGaussianBlur result="blurOut" stdDeviation="2.0"/><feColorMatrix in="blurOut" result="blurOut2" type="matrix" values="0 0 0 0 0 0 0 0 0 0 0 0 0 0 0 0 0 0 .4 0"/><feOffset dx="4.0" dy="4.0" in="blurOut2" result="blurOut3"/><feBlend in="SourceGraphic" in2="blurOut3" mode="normal"/></filter></defs><g><rect fill="#FFFFFF" filter="url(#fe31ss4h7w9og)" height="246.6411" style="stroke: #000000; stroke-width: 2.0;" width="221" x="151.5" y="201.3833"/><rect fill="#FFFFFF" height="48.7773" style="stroke: none; stroke-width: 1.0;" width="221" x="151.5" y="252.915"/><rect fill="#FFFFFF" height="48.7773" style="stroke: none; stroke-width: 1.0;" width="221" x="151.5" y="301.6924"/><rect fill="#FFFFFF" height="48.7773" style="stroke: none; stroke-width: 1.0;" width="221" x="151.5" y="350.4697"/><rect fill="#FFFFFF" height="48.7773" style="stroke: none; stroke-width: 1.0;" width="221" x="151.5" y="399.2471"/><line style="stroke: #A80036; stroke-width: 1.0; stroke-dasharray: 5.0,5.0;" x1="25" x2="25" y1="89.1201" y2="465.0244"/><line style="stroke: #A80036; stroke-width: 1.0; stroke-dasharray: 5.0,5.0;" x1="191.5" x2="191.5" y1="89.1201" y2="465.0244"/><line style="stroke: #A80036; stroke-width: 1.0; stroke-dasharray: 5.0,5.0;" x1="297.5" x2="297.5" y1="89.1201" y2="465.0244"/><text fill="#000000" font-family="sans-serif" font-size="14" lengthAdjust="spacingAndGlyphs" textLength="28" x="8" y="86.0439">user</text><ellipse cx="25" cy="13" fill="#FEFECE" filter="url(#fe31ss4h7w9og)" rx="8" ry="8" style="stroke: #A80036; stroke-width: 2.0;"/><path d="M25,21 L25,48 M12,29 L38,29 M25,48 L12,63 M25,48 L38,63 " fill="none" filter="url(#fe31ss4h7w9og)" style="stroke: #A80036; stroke-width: 2.0;"/><text fill="#000000" font-family="sans-serif" font-size="14" lengthAdjust="spacingAndGlyphs" textLength="28" x="8" y="480.0684">user</text><ellipse cx="25" cy="493.1445" fill="#FEFECE" filter="url(#fe31ss4h7w9og)" rx="8" ry="8" style="stroke: #A80036; stroke-width: 2.0;"/><path d="M25,501.1445 L25,528.1445 M12,509.1445 L38,509.1445 M25,528.1445 L12,543.1445 M25,528.1445 L38,543.1445 " fill="none" filter="url(#fe31ss4h7w9og)" style="stroke: #A80036; stroke-width: 2.0;"/><text fill="#000000" font-family="sans-serif" font-size="14" lengthAdjust="spacingAndGlyphs" textLength="55" x="161.5" y="86.0439">interface</text><path d="M171.5,42 L171.5,66 M171.5,54 L188.5,54 " fill="none" filter="url(#fe31ss4h7w9og)" style="stroke: #A80036; stroke-width: 2.0;"/><ellipse cx="200.5" cy="54" fill="#FEFECE" filter="url(#fe31ss4h7w9og)" rx="12" ry="12" style="stroke: #A80036; stroke-width: 2.0;"/><text fill="#000000" font-family="sans-serif" font-size="14" lengthAdjust="spacingAndGlyphs" textLength="55" x="161.5" y="480.0684">interface</text><path d="M171.5,487.1445 L171.5,511.1445 M171.5,499.1445 L188.5,499.1445 " fill="none" filter="url(#fe31ss4h7w9og)" style="stroke: #A80036; stroke-width: 2.0;"/><ellipse cx="200.5" cy="499.1445" fill="#FEFECE" filter="url(#fe31ss4h7w9og)" rx="12" ry="12" style="stroke: #A80036; stroke-width: 2.0;"/><text fill="#000000" font-family="sans-serif" font-size="14" lengthAdjust="spacingAndGlyphs" textLength="124" x="232.5" y="86.0439">mapManageControl</text><ellipse cx="297.5" cy="54" fill="#FEFECE" filter="url(#fe31ss4h7w9og)" rx="12" ry="12" style="stroke: #A80036; stroke-width: 2.0;"/><polygon fill="#A80036" points="293.5,42,299.5,37,297.5,42,299.5,47,293.5,42" style="stroke: #A80036; stroke-width: 1.0;"/><text fill="#000000" font-family="sans-serif" font-size="14" lengthAdjust="spacingAndGlyphs" textLength="124" x="232.5" y="480.0684">mapManageControl</text><ellipse cx="297.5" cy="499.1445" fill="#FEFECE" filter="url(#fe31ss4h7w9og)" rx="12" ry="12" style="stroke: #A80036; stroke-width: 2.0;"/><polygon fill="#A80036" points="293.5,487.1445,299.5,482.1445,297.5,487.1445,299.5,492.1445,293.5,487.1445" style="stroke: #A80036; stroke-width: 1.0;"/><polygon fill="#A80036" points="180,118.1201,190,122.1201,180,126.1201,184,122.1201" style="stroke: #A80036; stroke-width: 1.0;"/><line style="stroke: #A80036; stroke-width: 1.0;" x1="25" x2="186" y1="122.1201" y2="122.1201"/><text fill="#000000" font-family="sans-serif" font-size="13" lengthAdjust="spacingAndGlyphs" textLength="143" x="32" y="118.0181">ManageLocalVSSLibrary</text><polygon fill="#A80036" points="36,149.8745,26,153.8745,36,157.8745,32,153.8745" style="stroke: #A80036; stroke-width: 1.0;"/><line style="stroke: #A80036; stroke-width: 1.0;" x1="30" x2="191" y1="153.8745" y2="153.8745"/><text fill="#000000" font-family="sans-serif" font-size="13" lengthAdjust="spacingAndGlyphs" textLength="81" x="42" y="149.7725">choose option</text><polygon fill="#A80036" points="180,181.6289,190,185.6289,180,189.6289,184,185.6289" style="stroke: #A80036; stroke-width: 1.0;"/><line style="stroke: #A80036; stroke-width: 1.0;" x1="25" x2="186" y1="185.6289" y2="185.6289"/><text fill="#000000" font-family="sans-serif" font-size="13" lengthAdjust="spacingAndGlyphs" textLength="35" x="32" y="181.5269">option</text><path d="M151.5,201.3833 L212.5,201.3833 L212.5,210.3833 L202.5,220.3833 L151.5,220.3833 L151.5,201.3833 " fill="#EEEEEE" style="stroke: #000000; stroke-width: 1.0;"/><rect fill="none" height="246.6411" style="stroke: #000000; stroke-width: 2.0;" width="221" x="151.5" y="201.3833"/><text fill="#000000" font-family="sans-serif" font-size="13" font-weight="bold" lengthAdjust="spacingAndGlyphs" textLength="16" x="166.5" y="217.2813">alt</text><text fill="#000000" font-family="sans-serif" font-size="11" font-weight="bold" lengthAdjust="spacingAndGlyphs" textLength="67" x="227.5" y="215.9893">[CreateVSS]</text><polygon fill="#A80036" points="285.5,240.1606,295.5,244.1606,285.5,248.1606,289.5,244.1606" style="stroke: #A80036; stroke-width: 1.0;"/><line style="stroke: #A80036; stroke-width: 1.0;" x1="192" x2="291.5" y1="244.1606" y2="244.1606"/><text fill="#000000" font-family="sans-serif" font-size="13" lengthAdjust="spacingAndGlyphs" textLength="65" x="199" y="240.0586">CreateVSS</text><line style="stroke: #000000; stroke-width: 1.0; stroke-dasharray: 2.0,2.0;" x1="151.5" x2="372.5" y1="253.915" y2="253.915"/><text fill="#000000" font-family="sans-serif" font-size="11" font-weight="bold" lengthAdjust="spacingAndGlyphs" textLength="75" x="156.5" y="266.521">[RenameVSS]</text><polygon fill="#A80036" points="285.5,288.938,295.5,292.938,285.5,296.938,289.5,292.938" style="stroke: #A80036; stroke-width: 1.0;"/><line style="stroke: #A80036; stroke-width: 1.0;" x1="192" x2="291.5" y1="292.938" y2="292.938"/><text fill="#000000" font-family="sans-serif" font-size="13" lengthAdjust="spacingAndGlyphs" textLength="75" x="199" y="288.8359">RenameVSS</text><line style="stroke: #000000; stroke-width: 1.0; stroke-dasharray: 2.0,2.0;" x1="151.5" x2="372.5" y1="302.6924" y2="302.6924"/><text fill="#000000" font-family="sans-serif" font-size="11" font-weight="bold" lengthAdjust="spacingAndGlyphs" textLength="65" x="156.5" y="315.2983">[DeleteVSS]</text><polygon fill="#A80036" points="285.5,337.7153,295.5,341.7153,285.5,345.7153,289.5,341.7153" style="stroke: #A80036; stroke-width: 1.0;"/><line style="stroke: #A80036; stroke-width: 1.0;" x1="192" x2="291.5" y1="341.7153" y2="341.7153"/><text fill="#000000" font-family="sans-serif" font-size="13" lengthAdjust="spacingAndGlyphs" textLength="64" x="199" y="337.6133">DeleteVSS</text><line style="stroke: #000000; stroke-width: 1.0; stroke-dasharray: 2.0,2.0;" x1="151.5" x2="372.5" y1="351.4697" y2="351.4697"/><text fill="#000000" font-family="sans-serif" font-size="11" font-weight="bold" lengthAdjust="spacingAndGlyphs" textLength="67" x="156.5" y="364.0757">[UploadVSS]</text><polygon fill="#A80036" points="285.5,386.4927,295.5,390.4927,285.5,394.4927,289.5,390.4927" style="stroke: #A80036; stroke-width: 1.0;"/><line style="stroke: #A80036; stroke-width: 1.0;" x1="192" x2="291.5" y1="390.4927" y2="390.4927"/><text fill="#000000" font-family="sans-serif" font-size="13" lengthAdjust="spacingAndGlyphs" textLength="67" x="199" y="386.3906">UploadVSS</text><line style="stroke: #000000; stroke-width: 1.0; stroke-dasharray: 2.0,2.0;" x1="151.5" x2="372.5" y1="400.2471" y2="400.2471"/><text fill="#000000" font-family="sans-serif" font-size="11" font-weight="bold" lengthAdjust="spacingAndGlyphs" textLength="75" x="156.5" y="412.853">[PreviewVSS]</text><polygon fill="#A80036" points="285.5,435.27,295.5,439.27,285.5,443.27,289.5,439.27" style="stroke: #A80036; stroke-width: 1.0;"/><line style="stroke: #A80036; stroke-width: 1.0;" x1="192" x2="291.5" y1="439.27" y2="439.27"/><text fill="#000000" font-family="sans-serif" font-size="13" lengthAdjust="spacingAndGlyphs" textLength="71" x="199" y="435.168">PreviewVSS</text><!--
@startuml
actor user
boundary interface
control mapManageControl

user -> interface: ManageLocalVSSLibrary
interface -> user: choose option
user -> interface: option

alt CreateVSS
    interface -> mapManageControl: CreateVSS
else RenameVSS
    interface -> mapManageControl: RenameVSS
else DeleteVSS
    interface -> mapManageControl: DeleteVSS
else UploadVSS
    interface -> mapManageControl: UploadVSS
else PreviewVSS
    interface -> mapManageControl: PreviewVSS
end
@enduml

PlantUML version 1.2018.01(Mon Jan 29 02:08:22 CST 2018)
(GPL source distribution)
Java Runtime: Java(TM) SE Runtime Environment
JVM: Java HotSpot(TM) Client VM
Java Version: 1.8.0_144-b01
Operating System: Windows 10
OS Version: 10.0
Default Encoding: GBK
Language: zh
Country: CN
--></g></svg>