<?xml version="1.0" encoding="UTF-8" standalone="no"?><svg xmlns="http://www.w3.org/2000/svg" xmlns:xlink="http://www.w3.org/1999/xlink" contentScriptType="application/ecmascript" contentStyleType="text/css" height="485px" preserveAspectRatio="none" style="width:586px;height:485px;" version="1.1" viewBox="0 0 586 485"
    width="586px" zoomAndPan="magnify"><defs><filter height="300%" id="f1h2dfm0ofccal" width="300%" x="-1" y="-1"><feGaussianBlur result="blurOut" stdDeviation="2.0"/><feColorMatrix in="blurOut" result="blurOut2" type="matrix" values="0 0 0 0 0 0 0 0 0 0 0 0 0 0 0 0 0 0 .4 0"/><feOffset dx="4.0" dy="4.0" in="blurOut2" result="blurOut3"/><feBlend in="SourceGraphic" in2="blurOut3" mode="normal"/></filter></defs><g><line style="stroke: #A80036; stroke-width: 1.0; stroke-dasharray: 5.0,5.0;" x1="25" x2="25" y1="89.1201" y2="394.9097"/><line style="stroke: #A80036; stroke-width: 1.0; stroke-dasharray: 5.0,5.0;" x1="215.5" x2="215.5" y1="89.1201" y2="394.9097"/><line style="stroke: #A80036; stroke-width: 1.0; stroke-dasharray: 5.0,5.0;" x1="407" x2="407" y1="89.1201" y2="394.9097"/><line style="stroke: #A80036; stroke-width: 1.0; stroke-dasharray: 5.0,5.0;" x1="494" x2="494" y1="89.1201" y2="394.9097"/><line style="stroke: #A80036; stroke-width: 1.0; stroke-dasharray: 5.0,5.0;" x1="555" x2="555" y1="89.1201" y2="394.9097"/><text fill="#000000" font-family="sans-serif" font-size="14" lengthAdjust="spacingAndGlyphs" textLength="28" x="8" y="86.0439">user</text><ellipse cx="25" cy="13" fill="#FEFECE" filter="url(#f1h2dfm0ofccal)" rx="8" ry="8" style="stroke: #A80036; stroke-width: 2.0;"/><path d="M25,21 L25,48 M12,29 L38,29 M25,48 L12,63 M25,48 L38,63 " fill="none" filter="url(#f1h2dfm0ofccal)" style="stroke: #A80036; stroke-width: 2.0;"/><text fill="#000000" font-family="sans-serif" font-size="14" lengthAdjust="spacingAndGlyphs" textLength="28" x="8" y="409.9536">user</text><ellipse cx="25" cy="423.0298" fill="#FEFECE" filter="url(#f1h2dfm0ofccal)" rx="8" ry="8" style="stroke: #A80036; stroke-width: 2.0;"/><path d="M25,431.0298 L25,458.0298 M12,439.0298 L38,439.0298 M25,458.0298 L12,473.0298 M25,458.0298 L38,473.0298 " fill="none" filter="url(#f1h2dfm0ofccal)" style="stroke: #A80036; stroke-width: 2.0;"/><text fill="#000000" font-family="sans-serif" font-size="14" lengthAdjust="spacingAndGlyphs" textLength="55" x="185.5" y="86.0439">interface</text><path d="M195.5,42 L195.5,66 M195.5,54 L212.5,54 " fill="none" filter="url(#f1h2dfm0ofccal)" style="stroke: #A80036; stroke-width: 2.0;"/><ellipse cx="224.5" cy="54" fill="#FEFECE" filter="url(#f1h2dfm0ofccal)" rx="12" ry="12" style="stroke: #A80036; stroke-width: 2.0;"/><text fill="#000000" font-family="sans-serif" font-size="14" lengthAdjust="spacingAndGlyphs" textLength="55" x="185.5" y="409.9536">interface</text><path d="M195.5,417.0298 L195.5,441.0298 M195.5,429.0298 L212.5,429.0298 " fill="none" filter="url(#f1h2dfm0ofccal)" style="stroke: #A80036; stroke-width: 2.0;"/><ellipse cx="224.5" cy="429.0298" fill="#FEFECE" filter="url(#f1h2dfm0ofccal)" rx="12" ry="12" style="stroke: #A80036; stroke-width: 2.0;"/><text fill="#000000" font-family="sans-serif" font-size="14" lengthAdjust="spacingAndGlyphs" textLength="94" x="357" y="86.0439">vssPlayControl</text><ellipse cx="407" cy="54" fill="#FEFECE" filter="url(#f1h2dfm0ofccal)" rx="12" ry="12" style="stroke: #A80036; stroke-width: 2.0;"/><polygon fill="#A80036" points="403,42,409,37,407,42,409,47,403,42" style="stroke: #A80036; stroke-width: 1.0;"/><text fill="#000000" font-family="sans-serif" font-size="14" lengthAdjust="spacingAndGlyphs" textLength="94" x="357" y="409.9536">vssPlayControl</text><ellipse cx="407" cy="429.0298" fill="#FEFECE" filter="url(#f1h2dfm0ofccal)" rx="12" ry="12" style="stroke: #A80036; stroke-width: 2.0;"/><polygon fill="#A80036" points="403,417.0298,409,412.0298,407,417.0298,409,422.0298,403,417.0298" style="stroke: #A80036; stroke-width: 1.0;"/><text fill="#000000" font-family="sans-serif" font-size="14" lengthAdjust="spacingAndGlyphs" textLength="48" x="467" y="86.0439">storage</text><path d="M476,34 C476,24 494,24 494,24 C494,24 512,24 512,34 L512,60 C512,70 494,70 494,70 C494,70 476,70 476,60 L476,34 " fill="#FEFECE" filter="url(#f1h2dfm0ofccal)" style="stroke: #000000; stroke-width: 1.5;"/><path d="M476,34 C476,44 494,44 494,44 C494,44 512,44 512,34 " fill="none" style="stroke: #000000; stroke-width: 1.5;"/><text fill="#000000" font-family="sans-serif" font-size="14" lengthAdjust="spacingAndGlyphs" textLength="48" x="467" y="409.9536">storage</text><path d="M476,423.0298 C476,413.0298 494,413.0298 494,413.0298 C494,413.0298 512,413.0298 512,423.0298 L512,449.0298 C512,459.0298 494,459.0298 494,459.0298 C494,459.0298 476,459.0298 476,449.0298 L476,423.0298 " fill="#FEFECE" filter="url(#f1h2dfm0ofccal)" style="stroke: #000000; stroke-width: 1.5;"/><path d="M476,423.0298 C476,433.0298 494,433.0298 494,433.0298 C494,433.0298 512,433.0298 512,423.0298 " fill="none" style="stroke: #000000; stroke-width: 1.5;"/><text fill="#000000" font-family="sans-serif" font-size="14" lengthAdjust="spacingAndGlyphs" textLength="43" x="531" y="86.0439">sensor</text><ellipse cx="555.5" cy="54" fill="#FEFECE" filter="url(#f1h2dfm0ofccal)" rx="12" ry="12" style="stroke: #A80036; stroke-width: 2.0;"/><line style="stroke: #A80036; stroke-width: 2.0;" x1="543.5" x2="567.5" y1="68" y2="68"/><text fill="#000000" font-family="sans-serif" font-size="14" lengthAdjust="spacingAndGlyphs" textLength="43" x="531" y="409.9536">sensor</text><ellipse cx="555.5" cy="429.0298" fill="#FEFECE" filter="url(#f1h2dfm0ofccal)" rx="12" ry="12" style="stroke: #A80036; stroke-width: 2.0;"/><line style="stroke: #A80036; stroke-width: 2.0;" x1="543.5" x2="567.5" y1="443.0298" y2="443.0298"/><polygon fill="#A80036" points="204,118.1201,214,122.1201,204,126.1201,208,122.1201" style="stroke: #A80036; stroke-width: 1.0;"/><line style="stroke: #A80036; stroke-width: 1.0;" x1="25" x2="210" y1="122.1201" y2="122.1201"/><text fill="#000000" font-family="sans-serif" font-size="13" lengthAdjust="spacingAndGlyphs" textLength="130" x="32" y="118.0181">PlayConcertModeVSS</text><polygon fill="#A80036" points="395,149.8745,405,153.8745,395,157.8745,399,153.8745" style="stroke: #A80036; stroke-width: 1.0;"/><line style="stroke: #A80036; stroke-width: 1.0;" x1="216" x2="401" y1="153.8745" y2="153.8745"/><text fill="#000000" font-family="sans-serif" font-size="13" lengthAdjust="spacingAndGlyphs" textLength="130" x="223" y="149.7725">PlayConcertModeVSS</text><polygon fill="#A80036" points="482,181.6289,492,185.6289,482,189.6289,486,185.6289" style="stroke: #A80036; stroke-width: 1.0;"/><line style="stroke: #A80036; stroke-width: 1.0;" x1="407" x2="488" y1="185.6289" y2="185.6289"/><text fill="#000000" font-family="sans-serif" font-size="13" lengthAdjust="spacingAndGlyphs" textLength="49" x="414" y="181.5269">get VSS</text><polygon fill="#A80036" points="418,213.3833,408,217.3833,418,221.3833,414,217.3833" style="stroke: #A80036; stroke-width: 1.0;"/><line style="stroke: #A80036; stroke-width: 1.0;" x1="412" x2="493" y1="217.3833" y2="217.3833"/><text fill="#000000" font-family="sans-serif" font-size="13" lengthAdjust="spacingAndGlyphs" textLength="51" x="424" y="213.2813">VSS info</text><polygon fill="#A80036" points="227,245.1377,217,249.1377,227,253.1377,223,249.1377" style="stroke: #A80036; stroke-width: 1.0;"/><line style="stroke: #A80036; stroke-width: 1.0;" x1="221" x2="406" y1="249.1377" y2="249.1377"/><text fill="#000000" font-family="sans-serif" font-size="13" lengthAdjust="spacingAndGlyphs" textLength="32" x="233" y="245.0356">ready</text><polygon fill="#A80036" points="36,276.8921,26,280.8921,36,284.8921,32,280.8921" style="stroke: #A80036; stroke-width: 1.0;"/><line style="stroke: #A80036; stroke-width: 1.0;" x1="30" x2="215" y1="280.8921" y2="280.8921"/><text fill="#000000" font-family="sans-serif" font-size="13" lengthAdjust="spacingAndGlyphs" textLength="54" x="42" y="276.79">get ready</text><polygon fill="#A80036" points="418,308.6465,408,312.6465,418,316.6465,414,312.6465" style="stroke: #A80036; stroke-width: 1.0;"/><line style="stroke: #A80036; stroke-width: 1.0;" x1="412" x2="554.5" y1="312.6465" y2="312.6465"/><text fill="#000000" font-family="sans-serif" font-size="13" lengthAdjust="spacingAndGlyphs" textLength="84" x="424" y="308.5444">update signals</text><polygon fill="#A80036" points="227,340.4009,217,344.4009,227,348.4009,223,344.4009" style="stroke: #A80036; stroke-width: 1.0;"/><line style="stroke: #A80036; stroke-width: 1.0;" x1="221" x2="406" y1="344.4009" y2="344.4009"/><text fill="#000000" font-family="sans-serif" font-size="13" lengthAdjust="spacingAndGlyphs" textLength="167" x="233" y="340.2988">establish audio field and play</text><polygon fill="#A80036" points="36,372.1553,26,376.1553,36,380.1553,32,376.1553" style="stroke: #A80036; stroke-width: 1.0;"/><line style="stroke: #A80036; stroke-width: 1.0;" x1="30" x2="215" y1="376.1553" y2="376.1553"/><text fill="#000000" font-family="sans-serif" font-size="13" lengthAdjust="spacingAndGlyphs" textLength="167" x="42" y="372.0532">establish audio field and play</text><!--
@startuml
actor user
boundary interface
control vssPlayControl
database storage
entity sensor

user -> interface: PlayConcertModeVSS
interface -> vssPlayControl: PlayConcertModeVSS
vssPlayControl -> storage: get VSS
storage -> vssPlayControl: VSS info
vssPlayControl -> interface: ready
interface -> user: get ready
sensor -> vssPlayControl: update signals
vssPlayControl -> interface: establish audio field and play
interface -> user: establish audio field and play
@enduml

PlantUML version 1.2018.01(Mon Jan 29 02:08:22 CST 2018)
(GPL source distribution)
Java Runtime: Java(TM) SE Runtime Environment
JVM: Java HotSpot(TM) Client VM
Java Version: 1.8.0_144-b01
Operating System: Windows 10
OS Version: 10.0
Default Encoding: GBK
Language: zh
Country: CN
--></g></svg>