<?xml version="1.0" encoding="UTF-8" standalone="no"?><svg xmlns="http://www.w3.org/2000/svg" xmlns:xlink="http://www.w3.org/1999/xlink" contentScriptType="application/ecmascript" contentStyleType="text/css" height="419px" preserveAspectRatio="none" style="width:803px;height:419px;" version="1.1" viewBox="0 0 803 419"
    width="803px" zoomAndPan="magnify"><defs><filter height="300%" id="f1cy6mcrlo843o" width="300%" x="-1" y="-1"><feGaussianBlur result="blurOut" stdDeviation="2.0"/><feColorMatrix in="blurOut" result="blurOut2" type="matrix" values="0 0 0 0 0 0 0 0 0 0 0 0 0 0 0 0 0 0 .4 0"/><feOffset dx="4.0" dy="4.0" in="blurOut2" result="blurOut3"/><feBlend in="SourceGraphic" in2="blurOut3" mode="normal"/></filter></defs><g><rect fill="#FFFFFF" filter="url(#f1cy6mcrlo843o)" height="219.8179" style="stroke: #A80036; stroke-width: 1.0;" width="10" x="37.5" y="99.1201"/><rect fill="#FFFFFF" filter="url(#f1cy6mcrlo843o)" height="219.8179" style="stroke: #A80036; stroke-width: 1.0;" width="10" x="201.5" y="99.1201"/><rect fill="#FFFFFF" filter="url(#f1cy6mcrlo843o)" height="196.8179" style="stroke: #A80036; stroke-width: 1.0;" width="10" x="312" y="122.1201"/><rect fill="#FFFFFF" filter="url(#f1cy6mcrlo843o)" height="128.3091" style="stroke: #000000; stroke-width: 2.0;" width="778.5" x="13" y="183.6289"/><rect fill="#FFFFFF" height="62.7773" style="stroke: none; stroke-width: 1.0;" width="778.5" x="13" y="249.1606"/><line style="stroke: #A80036; stroke-width: 1.0; stroke-dasharray: 5.0,5.0;" x1="42" x2="42" y1="89.1201" y2="328.938"/><line style="stroke: #A80036; stroke-width: 1.0; stroke-dasharray: 5.0,5.0;" x1="206.5" x2="206.5" y1="89.1201" y2="328.938"/><line style="stroke: #A80036; stroke-width: 1.0; stroke-dasharray: 5.0,5.0;" x1="316.5" x2="316.5" y1="89.1201" y2="328.938"/><line style="stroke: #A80036; stroke-width: 1.0; stroke-dasharray: 5.0,5.0;" x1="419.5" x2="419.5" y1="89.1201" y2="328.938"/><line style="stroke: #A80036; stroke-width: 1.0; stroke-dasharray: 5.0,5.0;" x1="547.5" x2="547.5" y1="89.1201" y2="328.938"/><line style="stroke: #A80036; stroke-width: 1.0; stroke-dasharray: 5.0,5.0;" x1="702.5" x2="702.5" y1="89.1201" y2="328.938"/><text fill="#000000" font-family="sans-serif" font-size="14" lengthAdjust="spacingAndGlyphs" textLength="4" x="23" y="86.0439">:</text><text fill="#000000" font-family="sans-serif" font-size="14" lengthAdjust="spacingAndGlyphs" text-decoration="underline" textLength="29" x="27" y="86.0439">User</text><line style="stroke: #000000; stroke-width: 1.0;" x1="27" x2="56" y1="88.0439" y2="88.0439"/><ellipse cx="42.5" cy="13" fill="#FEFECE" filter="url(#f1cy6mcrlo843o)" rx="8" ry="8" style="stroke: #A80036; stroke-width: 2.0;"/><path d="M42.5,21 L42.5,48 M29.5,29 L55.5,29 M42.5,48 L29.5,63 M42.5,48 L55.5,63 " fill="none" filter="url(#f1cy6mcrlo843o)" style="stroke: #A80036; stroke-width: 2.0;"/><text fill="#000000" font-family="sans-serif" font-size="14" lengthAdjust="spacingAndGlyphs" textLength="4" x="23" y="343.9819">:</text><text fill="#000000" font-family="sans-serif" font-size="14" lengthAdjust="spacingAndGlyphs" text-decoration="underline" textLength="29" x="27" y="343.9819">User</text><line style="stroke: #000000; stroke-width: 1.0;" x1="27" x2="56" y1="345.9819" y2="345.9819"/><ellipse cx="42.5" cy="357.0581" fill="#FEFECE" filter="url(#f1cy6mcrlo843o)" rx="8" ry="8" style="stroke: #A80036; stroke-width: 2.0;"/><path d="M42.5,365.0581 L42.5,392.0581 M29.5,373.0581 L55.5,373.0581 M42.5,392.0581 L29.5,407.0581 M42.5,392.0581 L55.5,407.0581 " fill="none" filter="url(#f1cy6mcrlo843o)" style="stroke: #A80036; stroke-width: 2.0;"/><text fill="#000000" font-family="sans-serif" font-size="14" lengthAdjust="spacingAndGlyphs" textLength="4" x="147.5" y="86.0439">:</text><text fill="#000000" font-family="sans-serif" font-size="14" lengthAdjust="spacingAndGlyphs" text-decoration="underline" textLength="108" x="151.5" y="86.0439">VSSViewingPage</text><line style="stroke: #000000; stroke-width: 1.0;" x1="151.5" x2="259.5" y1="88.0439" y2="88.0439"/><path d="M186,42 L186,66 M186,54 L203,54 " fill="none" filter="url(#f1cy6mcrlo843o)" style="stroke: #A80036; stroke-width: 2.0;"/><ellipse cx="215" cy="54" fill="#FEFECE" filter="url(#f1cy6mcrlo843o)" rx="12" ry="12" style="stroke: #A80036; stroke-width: 2.0;"/><text fill="#000000" font-family="sans-serif" font-size="14" lengthAdjust="spacingAndGlyphs" textLength="4" x="147.5" y="343.9819">:</text><text fill="#000000" font-family="sans-serif" font-size="14" lengthAdjust="spacingAndGlyphs" text-decoration="underline" textLength="108" x="151.5" y="343.9819">VSSViewingPage</text><line style="stroke: #000000; stroke-width: 1.0;" x1="151.5" x2="259.5" y1="345.9819" y2="345.9819"/><path d="M186,351.0581 L186,375.0581 M186,363.0581 L203,363.0581 " fill="none" filter="url(#f1cy6mcrlo843o)" style="stroke: #A80036; stroke-width: 2.0;"/><ellipse cx="215" cy="363.0581" fill="#FEFECE" filter="url(#f1cy6mcrlo843o)" rx="12" ry="12" style="stroke: #A80036; stroke-width: 2.0;"/><text fill="#000000" font-family="sans-serif" font-size="14" lengthAdjust="spacingAndGlyphs" textLength="4" x="275.5" y="86.0439">:</text><text fill="#000000" font-family="sans-serif" font-size="14" lengthAdjust="spacingAndGlyphs" text-decoration="underline" textLength="73" x="279.5" y="86.0439">VSSControl</text><line style="stroke: #000000; stroke-width: 1.0;" x1="279.5" x2="352.5" y1="88.0439" y2="88.0439"/><ellipse cx="317" cy="54" fill="#FEFECE" filter="url(#f1cy6mcrlo843o)" rx="12" ry="12" style="stroke: #A80036; stroke-width: 2.0;"/><polygon fill="#A80036" points="313,42,319,37,317,42,319,47,313,42" style="stroke: #A80036; stroke-width: 1.0;"/><text fill="#000000" font-family="sans-serif" font-size="14" lengthAdjust="spacingAndGlyphs" textLength="4" x="275.5" y="343.9819">:</text><text fill="#000000" font-family="sans-serif" font-size="14" lengthAdjust="spacingAndGlyphs" text-decoration="underline" textLength="73" x="279.5" y="343.9819">VSSControl</text><line style="stroke: #000000; stroke-width: 1.0;" x1="279.5" x2="352.5" y1="345.9819" y2="345.9819"/><ellipse cx="317" cy="363.0581" fill="#FEFECE" filter="url(#f1cy6mcrlo843o)" rx="12" ry="12" style="stroke: #A80036; stroke-width: 2.0;"/><polygon fill="#A80036" points="313,351.0581,319,346.0581,317,351.0581,319,356.0581,313,351.0581" style="stroke: #A80036; stroke-width: 1.0;"/><rect fill="#FEFECE" filter="url(#f1cy6mcrlo843o)" height="33.1201" style="stroke: #A80036; stroke-width: 1.5;" width="98" x="368.5" y="51"/><text fill="#000000" font-family="sans-serif" font-size="14" lengthAdjust="spacingAndGlyphs" textLength="84" x="375.5" y="74.0439">AdjustSensor</text><rect fill="#FEFECE" filter="url(#f1cy6mcrlo843o)" height="33.1201" style="stroke: #A80036; stroke-width: 1.5;" width="98" x="368.5" y="327.938"/><text fill="#000000" font-family="sans-serif" font-size="14" lengthAdjust="spacingAndGlyphs" textLength="84" x="375.5" y="350.9819">AdjustSensor</text><rect fill="#FEFECE" filter="url(#f1cy6mcrlo843o)" height="33.1201" style="stroke: #A80036; stroke-width: 1.5;" width="130" x="480.5" y="51"/><text fill="#000000" font-family="sans-serif" font-size="14" lengthAdjust="spacingAndGlyphs" textLength="116" x="487.5" y="74.0439">PlayMapModeVSS</text><rect fill="#FEFECE" filter="url(#f1cy6mcrlo843o)" height="33.1201" style="stroke: #A80036; stroke-width: 1.5;" width="130" x="480.5" y="327.938"/><text fill="#000000" font-family="sans-serif" font-size="14" lengthAdjust="spacingAndGlyphs" textLength="116" x="487.5" y="350.9819">PlayMapModeVSS</text><rect fill="#FEFECE" filter="url(#f1cy6mcrlo843o)" height="33.1201" style="stroke: #A80036; stroke-width: 1.5;" width="153" x="624.5" y="51"/><text fill="#000000" font-family="sans-serif" font-size="14" lengthAdjust="spacingAndGlyphs" textLength="139" x="631.5" y="74.0439">PlayConcertModeVSS</text><rect fill="#FEFECE" filter="url(#f1cy6mcrlo843o)" height="33.1201" style="stroke: #A80036; stroke-width: 1.5;" width="153" x="624.5" y="327.938"/><text fill="#000000" font-family="sans-serif" font-size="14" lengthAdjust="spacingAndGlyphs" textLength="139" x="631.5" y="350.9819">PlayConcertModeVSS</text><rect fill="#FFFFFF" filter="url(#f1cy6mcrlo843o)" height="219.8179" style="stroke: #A80036; stroke-width: 1.0;" width="10" x="37.5" y="99.1201"/><rect fill="#FFFFFF" filter="url(#f1cy6mcrlo843o)" height="219.8179" style="stroke: #A80036; stroke-width: 1.0;" width="10" x="201.5" y="99.1201"/><rect fill="#FFFFFF" filter="url(#f1cy6mcrlo843o)" height="196.8179" style="stroke: #A80036; stroke-width: 1.0;" width="10" x="312" y="122.1201"/><polygon fill="#A80036" points="300,118.1201,310,122.1201,300,126.1201,304,122.1201" style="stroke: #A80036; stroke-width: 1.0;"/><line style="stroke: #A80036; stroke-width: 1.0;" x1="211.5" x2="306" y1="122.1201" y2="122.1201"/><text fill="#000000" font-family="sans-serif" font-size="13" lengthAdjust="spacingAndGlyphs" textLength="68" x="218.5" y="118.0181">&lt;&lt;create&gt;&gt;</text><polygon fill="#A80036" points="189.5,149.8745,199.5,153.8745,189.5,157.8745,193.5,153.8745" style="stroke: #A80036; stroke-width: 1.0;"/><line style="stroke: #A80036; stroke-width: 1.0;" x1="47.5" x2="195.5" y1="153.8745" y2="153.8745"/><text fill="#000000" font-family="sans-serif" font-size="13" lengthAdjust="spacingAndGlyphs" textLength="78" x="54.5" y="149.7725">AdjustSensor</text><polygon fill="#A80036" points="407.5,164.6289,417.5,168.6289,407.5,172.6289,411.5,168.6289" style="stroke: #A80036; stroke-width: 1.0;"/><line style="stroke: #A80036; stroke-width: 1.0;" x1="322" x2="413.5" y1="168.6289" y2="168.6289"/><path d="M13,183.6289 L74,183.6289 L74,192.6289 L64,202.6289 L13,202.6289 L13,183.6289 " fill="#EEEEEE" style="stroke: #000000; stroke-width: 1.0;"/><rect fill="none" height="128.3091" style="stroke: #000000; stroke-width: 2.0;" width="778.5" x="13" y="183.6289"/><text fill="#000000" font-family="sans-serif" font-size="13" font-weight="bold" lengthAdjust="spacingAndGlyphs" textLength="16" x="28" y="199.5269">alt</text><text fill="#000000" font-family="sans-serif" font-size="11" font-weight="bold" lengthAdjust="spacingAndGlyphs" textLength="62" x="89" y="198.2349">[MapMode]</text><polygon fill="#A80036" points="189.5,222.4063,199.5,226.4063,189.5,230.4063,193.5,226.4063" style="stroke: #A80036; stroke-width: 1.0;"/><line style="stroke: #A80036; stroke-width: 1.0;" x1="47.5" x2="195.5" y1="226.4063" y2="226.4063"/><text fill="#000000" font-family="sans-serif" font-size="13" lengthAdjust="spacingAndGlyphs" textLength="110" x="54.5" y="222.3042">PlayMapModeVSS</text><polygon fill="#A80036" points="535.5,237.1606,545.5,241.1606,535.5,245.1606,539.5,241.1606" style="stroke: #A80036; stroke-width: 1.0;"/><line style="stroke: #A80036; stroke-width: 1.0;" x1="322" x2="541.5" y1="241.1606" y2="241.1606"/><line style="stroke: #000000; stroke-width: 1.0; stroke-dasharray: 2.0,2.0;" x1="13" x2="791.5" y1="250.1606" y2="250.1606"/><text fill="#000000" font-family="sans-serif" font-size="11" font-weight="bold" lengthAdjust="spacingAndGlyphs" textLength="83" x="18" y="262.7666">[ConcertMode]</text><polygon fill="#A80036" points="189.5,285.1836,199.5,289.1836,189.5,293.1836,193.5,289.1836" style="stroke: #A80036; stroke-width: 1.0;"/><line style="stroke: #A80036; stroke-width: 1.0;" x1="47.5" x2="195.5" y1="289.1836" y2="289.1836"/><text fill="#000000" font-family="sans-serif" font-size="13" lengthAdjust="spacingAndGlyphs" textLength="130" x="54.5" y="285.0815">PlayConcertModeVSS</text><polygon fill="#A80036" points="691,299.938,701,303.938,691,307.938,695,303.938" style="stroke: #A80036; stroke-width: 1.0;"/><line style="stroke: #A80036; stroke-width: 1.0;" x1="322" x2="697" y1="303.938" y2="303.938"/><!--
@startuml
actor ":__User__" as User
boundary ":__VSSViewingPage__" as VSSViewingPage
control ":__VSSControl__" as VSSControl

activate User
activate VSSViewingPage
VSSViewingPage -> VSSControl: <<create>>
activate VSSControl
User -> VSSViewingPage: AdjustSensor
VSSControl -> AdjustSensor
alt MapMode
  User -> VSSViewingPage: PlayMapModeVSS
  VSSControl -> PlayMapModeVSS
else ConcertMode
  User -> VSSViewingPage: PlayConcertModeVSS
  VSSControl -> PlayConcertModeVSS
end
deactivate VSSControl
deactivate VSSViewingPage
deactivate User
@enduml

PlantUML version 1.2018.01(Mon Jan 29 02:08:22 CST 2018)
(GPL source distribution)
Java Runtime: Java(TM) SE Runtime Environment
JVM: Java HotSpot(TM) Client VM
Java Version: 1.8.0_144-b01
Operating System: Windows 10
OS Version: 10.0
Default Encoding: GBK
Language: zh
Country: CN
--></g></svg>