<?xml version="1.0" encoding="UTF-8" standalone="no"?><svg xmlns="http://www.w3.org/2000/svg" xmlns:xlink="http://www.w3.org/1999/xlink" contentScriptType="application/ecmascript" contentStyleType="text/css" height="548px" preserveAspectRatio="none" style="width:586px;height:548px;" version="1.1" viewBox="0 0 586 548"
    width="586px" zoomAndPan="magnify"><defs><filter height="300%" id="fl2k9b99pbw3v" width="300%" x="-1" y="-1"><feGaussianBlur result="blurOut" stdDeviation="2.0"/><feColorMatrix in="blurOut" result="blurOut2" type="matrix" values="0 0 0 0 0 0 0 0 0 0 0 0 0 0 0 0 0 0 .4 0"/><feOffset dx="4.0" dy="4.0" in="blurOut2" result="blurOut3"/><feBlend in="SourceGraphic" in2="blurOut3" mode="normal"/></filter></defs><g><line style="stroke: #A80036; stroke-width: 1.0; stroke-dasharray: 5.0,5.0;" x1="25" x2="25" y1="89.1201" y2="458.4185"/><line style="stroke: #A80036; stroke-width: 1.0; stroke-dasharray: 5.0,5.0;" x1="215.5" x2="215.5" y1="89.1201" y2="458.4185"/><line style="stroke: #A80036; stroke-width: 1.0; stroke-dasharray: 5.0,5.0;" x1="407" x2="407" y1="89.1201" y2="458.4185"/><line style="stroke: #A80036; stroke-width: 1.0; stroke-dasharray: 5.0,5.0;" x1="494" x2="494" y1="89.1201" y2="458.4185"/><line style="stroke: #A80036; stroke-width: 1.0; stroke-dasharray: 5.0,5.0;" x1="555" x2="555" y1="89.1201" y2="458.4185"/><text fill="#000000" font-family="sans-serif" font-size="14" lengthAdjust="spacingAndGlyphs" textLength="28" x="8" y="86.0439">user</text><ellipse cx="25" cy="13" fill="#FEFECE" filter="url(#fl2k9b99pbw3v)" rx="8" ry="8" style="stroke: #A80036; stroke-width: 2.0;"/><path d="M25,21 L25,48 M12,29 L38,29 M25,48 L12,63 M25,48 L38,63 " fill="none" filter="url(#fl2k9b99pbw3v)" style="stroke: #A80036; stroke-width: 2.0;"/><text fill="#000000" font-family="sans-serif" font-size="14" lengthAdjust="spacingAndGlyphs" textLength="28" x="8" y="473.4624">user</text><ellipse cx="25" cy="486.5386" fill="#FEFECE" filter="url(#fl2k9b99pbw3v)" rx="8" ry="8" style="stroke: #A80036; stroke-width: 2.0;"/><path d="M25,494.5386 L25,521.5386 M12,502.5386 L38,502.5386 M25,521.5386 L12,536.5386 M25,521.5386 L38,536.5386 " fill="none" filter="url(#fl2k9b99pbw3v)" style="stroke: #A80036; stroke-width: 2.0;"/><text fill="#000000" font-family="sans-serif" font-size="14" lengthAdjust="spacingAndGlyphs" textLength="55" x="185.5" y="86.0439">interface</text><path d="M195.5,42 L195.5,66 M195.5,54 L212.5,54 " fill="none" filter="url(#fl2k9b99pbw3v)" style="stroke: #A80036; stroke-width: 2.0;"/><ellipse cx="224.5" cy="54" fill="#FEFECE" filter="url(#fl2k9b99pbw3v)" rx="12" ry="12" style="stroke: #A80036; stroke-width: 2.0;"/><text fill="#000000" font-family="sans-serif" font-size="14" lengthAdjust="spacingAndGlyphs" textLength="55" x="185.5" y="473.4624">interface</text><path d="M195.5,480.5386 L195.5,504.5386 M195.5,492.5386 L212.5,492.5386 " fill="none" filter="url(#fl2k9b99pbw3v)" style="stroke: #A80036; stroke-width: 2.0;"/><ellipse cx="224.5" cy="492.5386" fill="#FEFECE" filter="url(#fl2k9b99pbw3v)" rx="12" ry="12" style="stroke: #A80036; stroke-width: 2.0;"/><text fill="#000000" font-family="sans-serif" font-size="14" lengthAdjust="spacingAndGlyphs" textLength="94" x="357" y="86.0439">vssPlayControl</text><ellipse cx="407" cy="54" fill="#FEFECE" filter="url(#fl2k9b99pbw3v)" rx="12" ry="12" style="stroke: #A80036; stroke-width: 2.0;"/><polygon fill="#A80036" points="403,42,409,37,407,42,409,47,403,42" style="stroke: #A80036; stroke-width: 1.0;"/><text fill="#000000" font-family="sans-serif" font-size="14" lengthAdjust="spacingAndGlyphs" textLength="94" x="357" y="473.4624">vssPlayControl</text><ellipse cx="407" cy="492.5386" fill="#FEFECE" filter="url(#fl2k9b99pbw3v)" rx="12" ry="12" style="stroke: #A80036; stroke-width: 2.0;"/><polygon fill="#A80036" points="403,480.5386,409,475.5386,407,480.5386,409,485.5386,403,480.5386" style="stroke: #A80036; stroke-width: 1.0;"/><text fill="#000000" font-family="sans-serif" font-size="14" lengthAdjust="spacingAndGlyphs" textLength="48" x="467" y="86.0439">storage</text><path d="M476,34 C476,24 494,24 494,24 C494,24 512,24 512,34 L512,60 C512,70 494,70 494,70 C494,70 476,70 476,60 L476,34 " fill="#FEFECE" filter="url(#fl2k9b99pbw3v)" style="stroke: #000000; stroke-width: 1.5;"/><path d="M476,34 C476,44 494,44 494,44 C494,44 512,44 512,34 " fill="none" style="stroke: #000000; stroke-width: 1.5;"/><text fill="#000000" font-family="sans-serif" font-size="14" lengthAdjust="spacingAndGlyphs" textLength="48" x="467" y="473.4624">storage</text><path d="M476,486.5386 C476,476.5386 494,476.5386 494,476.5386 C494,476.5386 512,476.5386 512,486.5386 L512,512.5386 C512,522.5386 494,522.5386 494,522.5386 C494,522.5386 476,522.5386 476,512.5386 L476,486.5386 " fill="#FEFECE" filter="url(#fl2k9b99pbw3v)" style="stroke: #000000; stroke-width: 1.5;"/><path d="M476,486.5386 C476,496.5386 494,496.5386 494,496.5386 C494,496.5386 512,496.5386 512,486.5386 " fill="none" style="stroke: #000000; stroke-width: 1.5;"/><text fill="#000000" font-family="sans-serif" font-size="14" lengthAdjust="spacingAndGlyphs" textLength="43" x="531" y="86.0439">sensor</text><ellipse cx="555.5" cy="54" fill="#FEFECE" filter="url(#fl2k9b99pbw3v)" rx="12" ry="12" style="stroke: #A80036; stroke-width: 2.0;"/><line style="stroke: #A80036; stroke-width: 2.0;" x1="543.5" x2="567.5" y1="68" y2="68"/><text fill="#000000" font-family="sans-serif" font-size="14" lengthAdjust="spacingAndGlyphs" textLength="43" x="531" y="473.4624">sensor</text><ellipse cx="555.5" cy="492.5386" fill="#FEFECE" filter="url(#fl2k9b99pbw3v)" rx="12" ry="12" style="stroke: #A80036; stroke-width: 2.0;"/><line style="stroke: #A80036; stroke-width: 2.0;" x1="543.5" x2="567.5" y1="506.5386" y2="506.5386"/><polygon fill="#A80036" points="204,118.1201,214,122.1201,204,126.1201,208,122.1201" style="stroke: #A80036; stroke-width: 1.0;"/><line style="stroke: #A80036; stroke-width: 1.0;" x1="25" x2="210" y1="122.1201" y2="122.1201"/><text fill="#000000" font-family="sans-serif" font-size="13" lengthAdjust="spacingAndGlyphs" textLength="110" x="32" y="118.0181">PlayMapModeVSS</text><polygon fill="#A80036" points="395,149.8745,405,153.8745,395,157.8745,399,153.8745" style="stroke: #A80036; stroke-width: 1.0;"/><line style="stroke: #A80036; stroke-width: 1.0;" x1="216" x2="401" y1="153.8745" y2="153.8745"/><text fill="#000000" font-family="sans-serif" font-size="13" lengthAdjust="spacingAndGlyphs" textLength="110" x="223" y="149.7725">PlayMapModeVSS</text><polygon fill="#A80036" points="543.5,181.6289,553.5,185.6289,543.5,189.6289,547.5,185.6289" style="stroke: #A80036; stroke-width: 1.0;"/><line style="stroke: #A80036; stroke-width: 1.0;" x1="407" x2="549.5" y1="185.6289" y2="185.6289"/><text fill="#000000" font-family="sans-serif" font-size="13" lengthAdjust="spacingAndGlyphs" textLength="67" x="414" y="181.5269">get location</text><polygon fill="#A80036" points="418,213.3833,408,217.3833,418,221.3833,414,217.3833" style="stroke: #A80036; stroke-width: 1.0;"/><line style="stroke: #A80036; stroke-width: 1.0;" x1="412" x2="554.5" y1="217.3833" y2="217.3833"/><text fill="#000000" font-family="sans-serif" font-size="13" lengthAdjust="spacingAndGlyphs" textLength="45" x="424" y="213.2813">location</text><polygon fill="#A80036" points="482,245.1377,492,249.1377,482,253.1377,486,249.1377" style="stroke: #A80036; stroke-width: 1.0;"/><line style="stroke: #A80036; stroke-width: 1.0;" x1="407" x2="488" y1="249.1377" y2="249.1377"/><text fill="#000000" font-family="sans-serif" font-size="13" lengthAdjust="spacingAndGlyphs" textLength="49" x="414" y="245.0356">get VSS</text><polygon fill="#A80036" points="418,276.8921,408,280.8921,418,284.8921,414,280.8921" style="stroke: #A80036; stroke-width: 1.0;"/><line style="stroke: #A80036; stroke-width: 1.0;" x1="412" x2="493" y1="280.8921" y2="280.8921"/><text fill="#000000" font-family="sans-serif" font-size="13" lengthAdjust="spacingAndGlyphs" textLength="51" x="424" y="276.79">VSS info</text><polygon fill="#A80036" points="227,308.6465,217,312.6465,227,316.6465,223,312.6465" style="stroke: #A80036; stroke-width: 1.0;"/><line style="stroke: #A80036; stroke-width: 1.0;" x1="221" x2="406" y1="312.6465" y2="312.6465"/><text fill="#000000" font-family="sans-serif" font-size="13" lengthAdjust="spacingAndGlyphs" textLength="32" x="233" y="308.5444">ready</text><polygon fill="#A80036" points="36,340.4009,26,344.4009,36,348.4009,32,344.4009" style="stroke: #A80036; stroke-width: 1.0;"/><line style="stroke: #A80036; stroke-width: 1.0;" x1="30" x2="215" y1="344.4009" y2="344.4009"/><text fill="#000000" font-family="sans-serif" font-size="13" lengthAdjust="spacingAndGlyphs" textLength="54" x="42" y="340.2988">get ready</text><polygon fill="#A80036" points="418,372.1553,408,376.1553,418,380.1553,414,376.1553" style="stroke: #A80036; stroke-width: 1.0;"/><line style="stroke: #A80036; stroke-width: 1.0;" x1="412" x2="554.5" y1="376.1553" y2="376.1553"/><text fill="#000000" font-family="sans-serif" font-size="13" lengthAdjust="spacingAndGlyphs" textLength="84" x="424" y="372.0532">update signals</text><polygon fill="#A80036" points="227,403.9097,217,407.9097,227,411.9097,223,407.9097" style="stroke: #A80036; stroke-width: 1.0;"/><line style="stroke: #A80036; stroke-width: 1.0;" x1="221" x2="406" y1="407.9097" y2="407.9097"/><text fill="#000000" font-family="sans-serif" font-size="13" lengthAdjust="spacingAndGlyphs" textLength="167" x="233" y="403.8076">establish audio field and play</text><polygon fill="#A80036" points="36,435.6641,26,439.6641,36,443.6641,32,439.6641" style="stroke: #A80036; stroke-width: 1.0;"/><line style="stroke: #A80036; stroke-width: 1.0;" x1="30" x2="215" y1="439.6641" y2="439.6641"/><text fill="#000000" font-family="sans-serif" font-size="13" lengthAdjust="spacingAndGlyphs" textLength="167" x="42" y="435.562">establish audio field and play</text><!--
@startuml
actor user
boundary interface
control vssPlayControl
database storage
entity sensor

user -> interface: PlayMapModeVSS
interface -> vssPlayControl: PlayMapModeVSS
vssPlayControl -> sensor: get location
sensor -> vssPlayControl: location
vssPlayControl -> storage: get VSS
storage -> vssPlayControl: VSS info
vssPlayControl -> interface: ready
interface -> user: get ready
sensor -> vssPlayControl: update signals
vssPlayControl -> interface: establish audio field and play
interface -> user: establish audio field and play
@enduml

PlantUML version 1.2018.01(Mon Jan 29 02:08:22 CST 2018)
(GPL source distribution)
Java Runtime: Java(TM) SE Runtime Environment
JVM: Java HotSpot(TM) Client VM
Java Version: 1.8.0_144-b01
Operating System: Windows 10
OS Version: 10.0
Default Encoding: GBK
Language: zh
Country: CN
--></g></svg>