<?xml version="1.0" encoding="UTF-8" standalone="no"?><svg xmlns="http://www.w3.org/2000/svg" xmlns:xlink="http://www.w3.org/1999/xlink" contentScriptType="application/ecmascript" contentStyleType="text/css" height="474px" preserveAspectRatio="none" style="width:352px;height:474px;" version="1.1" viewBox="0 0 352 474"
    width="352px" zoomAndPan="magnify"><defs><filter height="300%" id="f16f72i6w7d68w" width="300%" x="-1" y="-1"><feGaussianBlur result="blurOut" stdDeviation="2.0"/><feColorMatrix in="blurOut" result="blurOut2" type="matrix" values="0 0 0 0 0 0 0 0 0 0 0 0 0 0 0 0 0 0 .4 0"/><feOffset dx="4.0" dy="4.0" in="blurOut2" result="blurOut3"/><feBlend in="SourceGraphic" in2="blurOut3" mode="normal"/></filter></defs><g><rect fill="#FFFFFF" filter="url(#f16f72i6w7d68w)" height="51.5317" style="stroke: #000000; stroke-width: 2.0;" width="221.5" x="13" y="201.3833"/><rect fill="#FFFFFF" filter="url(#f16f72i6w7d68w)" height="100.3091" style="stroke: #000000; stroke-width: 2.0;" width="221.5" x="13" y="266.915"/><rect fill="#FFFFFF" height="48.7773" style="stroke: none; stroke-width: 1.0;" width="221.5" x="13" y="318.4468"/><line style="stroke: #A80036; stroke-width: 1.0; stroke-dasharray: 5.0,5.0;" x1="40" x2="40" y1="89.1201" y2="384.2241"/><line style="stroke: #A80036; stroke-width: 1.0; stroke-dasharray: 5.0,5.0;" x1="193.5" x2="193.5" y1="89.1201" y2="384.2241"/><line style="stroke: #A80036; stroke-width: 1.0; stroke-dasharray: 5.0,5.0;" x1="296" x2="296" y1="89.1201" y2="384.2241"/><text fill="#000000" font-family="sans-serif" font-size="14" lengthAdjust="spacingAndGlyphs" textLength="28" x="23" y="86.0439">user</text><ellipse cx="40" cy="13" fill="#FEFECE" filter="url(#f16f72i6w7d68w)" rx="8" ry="8" style="stroke: #A80036; stroke-width: 2.0;"/><path d="M40,21 L40,48 M27,29 L53,29 M40,48 L27,63 M40,48 L53,63 " fill="none" filter="url(#f16f72i6w7d68w)" style="stroke: #A80036; stroke-width: 2.0;"/><text fill="#000000" font-family="sans-serif" font-size="14" lengthAdjust="spacingAndGlyphs" textLength="28" x="23" y="399.2681">user</text><ellipse cx="40" cy="412.3442" fill="#FEFECE" filter="url(#f16f72i6w7d68w)" rx="8" ry="8" style="stroke: #A80036; stroke-width: 2.0;"/><path d="M40,420.3442 L40,447.3442 M27,428.3442 L53,428.3442 M40,447.3442 L27,462.3442 M40,447.3442 L53,462.3442 " fill="none" filter="url(#f16f72i6w7d68w)" style="stroke: #A80036; stroke-width: 2.0;"/><text fill="#000000" font-family="sans-serif" font-size="14" lengthAdjust="spacingAndGlyphs" textLength="55" x="163.5" y="86.0439">interface</text><path d="M173.5,42 L173.5,66 M173.5,54 L190.5,54 " fill="none" filter="url(#f16f72i6w7d68w)" style="stroke: #A80036; stroke-width: 2.0;"/><ellipse cx="202.5" cy="54" fill="#FEFECE" filter="url(#f16f72i6w7d68w)" rx="12" ry="12" style="stroke: #A80036; stroke-width: 2.0;"/><text fill="#000000" font-family="sans-serif" font-size="14" lengthAdjust="spacingAndGlyphs" textLength="55" x="163.5" y="399.2681">interface</text><path d="M173.5,406.3442 L173.5,430.3442 M173.5,418.3442 L190.5,418.3442 " fill="none" filter="url(#f16f72i6w7d68w)" style="stroke: #A80036; stroke-width: 2.0;"/><ellipse cx="202.5" cy="418.3442" fill="#FEFECE" filter="url(#f16f72i6w7d68w)" rx="12" ry="12" style="stroke: #A80036; stroke-width: 2.0;"/><text fill="#000000" font-family="sans-serif" font-size="14" lengthAdjust="spacingAndGlyphs" textLength="94" x="246" y="86.0439">vssPlayControl</text><ellipse cx="296" cy="54" fill="#FEFECE" filter="url(#f16f72i6w7d68w)" rx="12" ry="12" style="stroke: #A80036; stroke-width: 2.0;"/><polygon fill="#A80036" points="292,42,298,37,296,42,298,47,292,42" style="stroke: #A80036; stroke-width: 1.0;"/><text fill="#000000" font-family="sans-serif" font-size="14" lengthAdjust="spacingAndGlyphs" textLength="94" x="246" y="399.2681">vssPlayControl</text><ellipse cx="296" cy="418.3442" fill="#FEFECE" filter="url(#f16f72i6w7d68w)" rx="12" ry="12" style="stroke: #A80036; stroke-width: 2.0;"/><polygon fill="#A80036" points="292,406.3442,298,401.3442,296,406.3442,298,411.3442,292,406.3442" style="stroke: #A80036; stroke-width: 1.0;"/><polygon fill="#A80036" points="182,118.1201,192,122.1201,182,126.1201,186,122.1201" style="stroke: #A80036; stroke-width: 1.0;"/><line style="stroke: #A80036; stroke-width: 1.0;" x1="40" x2="188" y1="122.1201" y2="122.1201"/><text fill="#000000" font-family="sans-serif" font-size="13" lengthAdjust="spacingAndGlyphs" textLength="53" x="47" y="118.0181">PlayVSS</text><polygon fill="#A80036" points="284,149.8745,294,153.8745,284,157.8745,288,153.8745" style="stroke: #A80036; stroke-width: 1.0;"/><line style="stroke: #A80036; stroke-width: 1.0;" x1="194" x2="290" y1="153.8745" y2="153.8745"/><text fill="#000000" font-family="sans-serif" font-size="13" lengthAdjust="spacingAndGlyphs" textLength="53" x="201" y="149.7725">PlayVSS</text><polygon fill="#A80036" points="205,181.6289,195,185.6289,205,189.6289,201,185.6289" style="stroke: #A80036; stroke-width: 1.0;"/><line style="stroke: #A80036; stroke-width: 1.0;" x1="199" x2="295" y1="185.6289" y2="185.6289"/><text fill="#000000" font-family="sans-serif" font-size="13" lengthAdjust="spacingAndGlyphs" textLength="78" x="211" y="181.5269">AdjustSensor</text><path d="M13,201.3833 L74,201.3833 L74,210.3833 L64,220.3833 L13,220.3833 L13,201.3833 " fill="#EEEEEE" style="stroke: #000000; stroke-width: 1.0;"/><rect fill="none" height="51.5317" style="stroke: #000000; stroke-width: 2.0;" width="221.5" x="13" y="201.3833"/><text fill="#000000" font-family="sans-serif" font-size="13" font-weight="bold" lengthAdjust="spacingAndGlyphs" textLength="16" x="28" y="217.2813">alt</text><text fill="#000000" font-family="sans-serif" font-size="11" font-weight="bold" lengthAdjust="spacingAndGlyphs" textLength="43" x="89" y="215.9893">[cancel]</text><polygon fill="#A80036" points="51,240.1606,41,244.1606,51,248.1606,47,244.1606" style="stroke: #A80036; stroke-width: 1.0;"/><line style="stroke: #A80036; stroke-width: 1.0;" x1="45" x2="193" y1="244.1606" y2="244.1606"/><text fill="#000000" font-family="sans-serif" font-size="13" lengthAdjust="spacingAndGlyphs" textLength="71" x="57" y="240.0586">PreviewVSS</text><path d="M13,266.915 L74,266.915 L74,275.915 L64,285.915 L13,285.915 L13,266.915 " fill="#EEEEEE" style="stroke: #000000; stroke-width: 1.0;"/><rect fill="none" height="100.3091" style="stroke: #000000; stroke-width: 2.0;" width="221.5" x="13" y="266.915"/><text fill="#000000" font-family="sans-serif" font-size="13" font-weight="bold" lengthAdjust="spacingAndGlyphs" textLength="16" x="28" y="282.813">alt</text><text fill="#000000" font-family="sans-serif" font-size="11" font-weight="bold" lengthAdjust="spacingAndGlyphs" textLength="64" x="89" y="281.521">[mapmode]</text><polygon fill="#A80036" points="51,305.6924,41,309.6924,51,313.6924,47,309.6924" style="stroke: #A80036; stroke-width: 1.0;"/><line style="stroke: #A80036; stroke-width: 1.0;" x1="45" x2="193" y1="309.6924" y2="309.6924"/><text fill="#000000" font-family="sans-serif" font-size="13" lengthAdjust="spacingAndGlyphs" textLength="110" x="57" y="305.5903">PlayMapModeVSS</text><line style="stroke: #000000; stroke-width: 1.0; stroke-dasharray: 2.0,2.0;" x1="13" x2="234.5" y1="319.4468" y2="319.4468"/><text fill="#000000" font-family="sans-serif" font-size="11" font-weight="bold" lengthAdjust="spacingAndGlyphs" textLength="82" x="18" y="332.0527">[concertmode]</text><polygon fill="#A80036" points="51,354.4697,41,358.4697,51,362.4697,47,358.4697" style="stroke: #A80036; stroke-width: 1.0;"/><line style="stroke: #A80036; stroke-width: 1.0;" x1="45" x2="193" y1="358.4697" y2="358.4697"/><text fill="#000000" font-family="sans-serif" font-size="13" lengthAdjust="spacingAndGlyphs" textLength="130" x="57" y="354.3677">PlayConcertModeVSS</text><!--
@startuml
actor user
boundary interface
control vssPlayControl

user -> interface: PlayVSS
interface -> vssPlayControl: PlayVSS
vssPlayControl -> interface: AdjustSensor

alt cancel
    interface -> user: PreviewVSS
end

alt mapmode
    interface -> user: PlayMapModeVSS
else concertmode
    interface -> user: PlayConcertModeVSS
end
@enduml

PlantUML version 1.2018.01(Mon Jan 29 02:08:22 CST 2018)
(GPL source distribution)
Java Runtime: Java(TM) SE Runtime Environment
JVM: Java HotSpot(TM) Client VM
Java Version: 1.8.0_144-b01
Operating System: Windows 10
OS Version: 10.0
Default Encoding: GBK
Language: zh
Country: CN
--></g></svg>