<?xml version="1.0" encoding="UTF-8" standalone="no"?><svg xmlns="http://www.w3.org/2000/svg" xmlns:xlink="http://www.w3.org/1999/xlink" contentScriptType="application/ecmascript" contentStyleType="text/css" height="326px" preserveAspectRatio="none" style="width:478px;height:326px;" version="1.1" viewBox="0 0 478 326"
    width="478px" zoomAndPan="magnify"><defs><filter height="300%" id="f1ihim79t3yr8i" width="300%" x="-1" y="-1"><feGaussianBlur result="blurOut" stdDeviation="2.0"/><feColorMatrix in="blurOut" result="blurOut2" type="matrix" values="0 0 0 0 0 0 0 0 0 0 0 0 0 0 0 0 0 0 .4 0"/><feOffset dx="4.0" dy="4.0" in="blurOut2" result="blurOut3"/><feBlend in="SourceGraphic" in2="blurOut3" mode="normal"/></filter></defs><g><rect fill="#FFFFFF" filter="url(#f1ihim79t3yr8i)" height="118.2632" style="stroke: #A80036; stroke-width: 1.0;" width="10" x="22.5" y="99.1201"/><rect fill="#FFFFFF" filter="url(#f1ihim79t3yr8i)" height="118.2632" style="stroke: #A80036; stroke-width: 1.0;" width="10" x="206.5" y="99.1201"/><rect fill="#FFFFFF" filter="url(#f1ihim79t3yr8i)" height="95.2632" style="stroke: #A80036; stroke-width: 1.0;" width="10" x="317" y="122.1201"/><rect fill="#FFFFFF" filter="url(#f1ihim79t3yr8i)" height="63.5088" style="stroke: #A80036; stroke-width: 1.0;" width="10" x="440" y="153.8745"/><line style="stroke: #A80036; stroke-width: 1.0; stroke-dasharray: 5.0,5.0;" x1="27" x2="27" y1="89.1201" y2="236.1377"/><line style="stroke: #A80036; stroke-width: 1.0; stroke-dasharray: 5.0,5.0;" x1="211.5" x2="211.5" y1="89.1201" y2="236.1377"/><line style="stroke: #A80036; stroke-width: 1.0; stroke-dasharray: 5.0,5.0;" x1="321.5" x2="321.5" y1="89.1201" y2="236.1377"/><line style="stroke: #A80036; stroke-width: 1.0; stroke-dasharray: 5.0,5.0;" x1="444.5" x2="444.5" y1="89.1201" y2="236.1377"/><text fill="#000000" font-family="sans-serif" font-size="14" lengthAdjust="spacingAndGlyphs" textLength="4" x="8" y="86.0439">:</text><text fill="#000000" font-family="sans-serif" font-size="14" lengthAdjust="spacingAndGlyphs" text-decoration="underline" textLength="29" x="12" y="86.0439">User</text><line style="stroke: #000000; stroke-width: 1.0;" x1="12" x2="41" y1="88.0439" y2="88.0439"/><ellipse cx="27.5" cy="13" fill="#FEFECE" filter="url(#f1ihim79t3yr8i)" rx="8" ry="8" style="stroke: #A80036; stroke-width: 2.0;"/><path d="M27.5,21 L27.5,48 M14.5,29 L40.5,29 M27.5,48 L14.5,63 M27.5,48 L40.5,63 " fill="none" filter="url(#f1ihim79t3yr8i)" style="stroke: #A80036; stroke-width: 2.0;"/><text fill="#000000" font-family="sans-serif" font-size="14" lengthAdjust="spacingAndGlyphs" textLength="4" x="8" y="251.1816">:</text><text fill="#000000" font-family="sans-serif" font-size="14" lengthAdjust="spacingAndGlyphs" text-decoration="underline" textLength="29" x="12" y="251.1816">User</text><line style="stroke: #000000; stroke-width: 1.0;" x1="12" x2="41" y1="253.1816" y2="253.1816"/><ellipse cx="27.5" cy="264.2578" fill="#FEFECE" filter="url(#f1ihim79t3yr8i)" rx="8" ry="8" style="stroke: #A80036; stroke-width: 2.0;"/><path d="M27.5,272.2578 L27.5,299.2578 M14.5,280.2578 L40.5,280.2578 M27.5,299.2578 L14.5,314.2578 M27.5,299.2578 L40.5,314.2578 " fill="none" filter="url(#f1ihim79t3yr8i)" style="stroke: #A80036; stroke-width: 2.0;"/><text fill="#000000" font-family="sans-serif" font-size="14" lengthAdjust="spacingAndGlyphs" textLength="4" x="152.5" y="86.0439">:</text><text fill="#000000" font-family="sans-serif" font-size="14" lengthAdjust="spacingAndGlyphs" text-decoration="underline" textLength="108" x="156.5" y="86.0439">VSSViewingPage</text><line style="stroke: #000000; stroke-width: 1.0;" x1="156.5" x2="264.5" y1="88.0439" y2="88.0439"/><path d="M191,42 L191,66 M191,54 L208,54 " fill="none" filter="url(#f1ihim79t3yr8i)" style="stroke: #A80036; stroke-width: 2.0;"/><ellipse cx="220" cy="54" fill="#FEFECE" filter="url(#f1ihim79t3yr8i)" rx="12" ry="12" style="stroke: #A80036; stroke-width: 2.0;"/><text fill="#000000" font-family="sans-serif" font-size="14" lengthAdjust="spacingAndGlyphs" textLength="4" x="152.5" y="251.1816">:</text><text fill="#000000" font-family="sans-serif" font-size="14" lengthAdjust="spacingAndGlyphs" text-decoration="underline" textLength="108" x="156.5" y="251.1816">VSSViewingPage</text><line style="stroke: #000000; stroke-width: 1.0;" x1="156.5" x2="264.5" y1="253.1816" y2="253.1816"/><path d="M191,258.2578 L191,282.2578 M191,270.2578 L208,270.2578 " fill="none" filter="url(#f1ihim79t3yr8i)" style="stroke: #A80036; stroke-width: 2.0;"/><ellipse cx="220" cy="270.2578" fill="#FEFECE" filter="url(#f1ihim79t3yr8i)" rx="12" ry="12" style="stroke: #A80036; stroke-width: 2.0;"/><text fill="#000000" font-family="sans-serif" font-size="14" lengthAdjust="spacingAndGlyphs" textLength="4" x="280.5" y="86.0439">:</text><text fill="#000000" font-family="sans-serif" font-size="14" lengthAdjust="spacingAndGlyphs" text-decoration="underline" textLength="73" x="284.5" y="86.0439">VSSControl</text><line style="stroke: #000000; stroke-width: 1.0;" x1="284.5" x2="357.5" y1="88.0439" y2="88.0439"/><ellipse cx="322" cy="54" fill="#FEFECE" filter="url(#f1ihim79t3yr8i)" rx="12" ry="12" style="stroke: #A80036; stroke-width: 2.0;"/><polygon fill="#A80036" points="318,42,324,37,322,42,324,47,318,42" style="stroke: #A80036; stroke-width: 1.0;"/><text fill="#000000" font-family="sans-serif" font-size="14" lengthAdjust="spacingAndGlyphs" textLength="4" x="280.5" y="251.1816">:</text><text fill="#000000" font-family="sans-serif" font-size="14" lengthAdjust="spacingAndGlyphs" text-decoration="underline" textLength="73" x="284.5" y="251.1816">VSSControl</text><line style="stroke: #000000; stroke-width: 1.0;" x1="284.5" x2="357.5" y1="253.1816" y2="253.1816"/><ellipse cx="322" cy="270.2578" fill="#FEFECE" filter="url(#f1ihim79t3yr8i)" rx="12" ry="12" style="stroke: #A80036; stroke-width: 2.0;"/><polygon fill="#A80036" points="318,258.2578,324,253.2578,322,258.2578,324,263.2578,318,258.2578" style="stroke: #A80036; stroke-width: 1.0;"/><text fill="#000000" font-family="sans-serif" font-size="14" lengthAdjust="spacingAndGlyphs" textLength="4" x="417.5" y="86.0439">:</text><text fill="#000000" font-family="sans-serif" font-size="14" lengthAdjust="spacingAndGlyphs" text-decoration="underline" textLength="45" x="421.5" y="86.0439">Sensor</text><line style="stroke: #000000; stroke-width: 1.0;" x1="421.5" x2="466.5" y1="88.0439" y2="88.0439"/><ellipse cx="445" cy="54" fill="#FEFECE" filter="url(#f1ihim79t3yr8i)" rx="12" ry="12" style="stroke: #A80036; stroke-width: 2.0;"/><line style="stroke: #A80036; stroke-width: 2.0;" x1="433" x2="457" y1="68" y2="68"/><text fill="#000000" font-family="sans-serif" font-size="14" lengthAdjust="spacingAndGlyphs" textLength="4" x="417.5" y="251.1816">:</text><text fill="#000000" font-family="sans-serif" font-size="14" lengthAdjust="spacingAndGlyphs" text-decoration="underline" textLength="45" x="421.5" y="251.1816">Sensor</text><line style="stroke: #000000; stroke-width: 1.0;" x1="421.5" x2="466.5" y1="253.1816" y2="253.1816"/><ellipse cx="445" cy="270.2578" fill="#FEFECE" filter="url(#f1ihim79t3yr8i)" rx="12" ry="12" style="stroke: #A80036; stroke-width: 2.0;"/><line style="stroke: #A80036; stroke-width: 2.0;" x1="433" x2="457" y1="284.2578" y2="284.2578"/><rect fill="#FFFFFF" filter="url(#f1ihim79t3yr8i)" height="118.2632" style="stroke: #A80036; stroke-width: 1.0;" width="10" x="22.5" y="99.1201"/><rect fill="#FFFFFF" filter="url(#f1ihim79t3yr8i)" height="118.2632" style="stroke: #A80036; stroke-width: 1.0;" width="10" x="206.5" y="99.1201"/><rect fill="#FFFFFF" filter="url(#f1ihim79t3yr8i)" height="95.2632" style="stroke: #A80036; stroke-width: 1.0;" width="10" x="317" y="122.1201"/><rect fill="#FFFFFF" filter="url(#f1ihim79t3yr8i)" height="63.5088" style="stroke: #A80036; stroke-width: 1.0;" width="10" x="440" y="153.8745"/><polygon fill="#A80036" points="305,118.1201,315,122.1201,305,126.1201,309,122.1201" style="stroke: #A80036; stroke-width: 1.0;"/><line style="stroke: #A80036; stroke-width: 1.0;" x1="216.5" x2="311" y1="122.1201" y2="122.1201"/><text fill="#000000" font-family="sans-serif" font-size="13" lengthAdjust="spacingAndGlyphs" textLength="68" x="223.5" y="118.0181">&lt;&lt;create&gt;&gt;</text><polygon fill="#A80036" points="43.5,149.8745,33.5,153.8745,43.5,157.8745,39.5,153.8745" style="stroke: #A80036; stroke-width: 1.0;"/><line style="stroke: #A80036; stroke-width: 1.0;" x1="37.5" x2="205.5" y1="153.8745" y2="153.8745"/><text fill="#000000" font-family="sans-serif" font-size="13" lengthAdjust="spacingAndGlyphs" textLength="150" x="49.5" y="149.7725">PlayVSSRemindMessage</text><polygon fill="#A80036" points="338,181.6289,328,185.6289,338,189.6289,334,185.6289" style="stroke: #A80036; stroke-width: 1.0;"/><line style="stroke: #A80036; stroke-width: 1.0;" x1="332" x2="439" y1="185.6289" y2="185.6289"/><text fill="#000000" font-family="sans-serif" font-size="13" lengthAdjust="spacingAndGlyphs" textLength="89" x="344" y="181.5269">HeadMovement</text><polygon fill="#A80036" points="38.5,213.3833,28.5,217.3833,38.5,221.3833,34.5,217.3833" style="stroke: #A80036; stroke-width: 1.0;"/><line style="stroke: #A80036; stroke-width: 1.0;" x1="32.5" x2="210.5" y1="217.3833" y2="217.3833"/><text fill="#000000" font-family="sans-serif" font-size="13" lengthAdjust="spacingAndGlyphs" textLength="37" x="44.5" y="213.2813">Sound</text><!--
@startuml
actor ":__User__" as User
boundary ":__VSSViewingPage__" as VSSViewingPage
control ":__VSSControl__" as VSSControl
entity ":__Sensor__" as Sensor

activate User
activate VSSViewingPage
VSSViewingPage -> VSSControl: <<create>>
activate VSSControl
VSSViewingPage -> User: PlayVSSRemindMessage
activate Sensor
Sensor -> VSSControl: HeadMovement
VSSViewingPage -> User: Sound
deactivate Sensor
deactivate VSSControl
deactivate VSSViewingPage
deactivate User
@enduml

PlantUML version 1.2018.01(Mon Jan 29 02:08:22 CST 2018)
(GPL source distribution)
Java Runtime: Java(TM) SE Runtime Environment
JVM: Java HotSpot(TM) Client VM
Java Version: 1.8.0_144-b01
Operating System: Windows 10
OS Version: 10.0
Default Encoding: GBK
Language: zh
Country: CN
--></g></svg>