<?xml version="1.0" encoding="UTF-8" standalone="no"?><svg xmlns="http://www.w3.org/2000/svg" xmlns:xlink="http://www.w3.org/1999/xlink" contentScriptType="application/ecmascript" contentStyleType="text/css" height="408px" preserveAspectRatio="none" style="width:486px;height:408px;" version="1.1" viewBox="0 0 486 408"
    width="486px" zoomAndPan="magnify"><defs><filter height="300%" id="f88inrmhx35f" width="300%" x="-1" y="-1"><feGaussianBlur result="blurOut" stdDeviation="2.0"/><feColorMatrix in="blurOut" result="blurOut2" type="matrix" values="0 0 0 0 0 0 0 0 0 0 0 0 0 0 0 0 0 0 .4 0"/><feOffset dx="4.0" dy="4.0" in="blurOut2" result="blurOut3"/><feBlend in="SourceGraphic" in2="blurOut3" mode="normal"/></filter></defs><g><rect fill="#FFFFFF" filter="url(#f88inrmhx35f)" height="100.3091" style="stroke: #000000; stroke-width: 2.0;" width="391.5" x="82.5" y="201.3833"/><rect fill="#FFFFFF" height="48.7773" style="stroke: none; stroke-width: 1.0;" width="391.5" x="82.5" y="252.915"/><line style="stroke: #A80036; stroke-width: 1.0; stroke-dasharray: 5.0,5.0;" x1="25" x2="25" y1="89.1201" y2="318.6924"/><line style="stroke: #A80036; stroke-width: 1.0; stroke-dasharray: 5.0,5.0;" x1="122.5" x2="122.5" y1="89.1201" y2="318.6924"/><line style="stroke: #A80036; stroke-width: 1.0; stroke-dasharray: 5.0,5.0;" x1="402" x2="402" y1="89.1201" y2="318.6924"/><text fill="#000000" font-family="sans-serif" font-size="14" lengthAdjust="spacingAndGlyphs" textLength="28" x="8" y="86.0439">user</text><ellipse cx="25" cy="13" fill="#FEFECE" filter="url(#f88inrmhx35f)" rx="8" ry="8" style="stroke: #A80036; stroke-width: 2.0;"/><path d="M25,21 L25,48 M12,29 L38,29 M25,48 L12,63 M25,48 L38,63 " fill="none" filter="url(#f88inrmhx35f)" style="stroke: #A80036; stroke-width: 2.0;"/><text fill="#000000" font-family="sans-serif" font-size="14" lengthAdjust="spacingAndGlyphs" textLength="28" x="8" y="333.7363">user</text><ellipse cx="25" cy="346.8125" fill="#FEFECE" filter="url(#f88inrmhx35f)" rx="8" ry="8" style="stroke: #A80036; stroke-width: 2.0;"/><path d="M25,354.8125 L25,381.8125 M12,362.8125 L38,362.8125 M25,381.8125 L12,396.8125 M25,381.8125 L38,396.8125 " fill="none" filter="url(#f88inrmhx35f)" style="stroke: #A80036; stroke-width: 2.0;"/><text fill="#000000" font-family="sans-serif" font-size="14" lengthAdjust="spacingAndGlyphs" textLength="55" x="92.5" y="86.0439">interface</text><path d="M102.5,42 L102.5,66 M102.5,54 L119.5,54 " fill="none" filter="url(#f88inrmhx35f)" style="stroke: #A80036; stroke-width: 2.0;"/><ellipse cx="131.5" cy="54" fill="#FEFECE" filter="url(#f88inrmhx35f)" rx="12" ry="12" style="stroke: #A80036; stroke-width: 2.0;"/><text fill="#000000" font-family="sans-serif" font-size="14" lengthAdjust="spacingAndGlyphs" textLength="55" x="92.5" y="333.7363">interface</text><path d="M102.5,340.8125 L102.5,364.8125 M102.5,352.8125 L119.5,352.8125 " fill="none" filter="url(#f88inrmhx35f)" style="stroke: #A80036; stroke-width: 2.0;"/><ellipse cx="131.5" cy="352.8125" fill="#FEFECE" filter="url(#f88inrmhx35f)" rx="12" ry="12" style="stroke: #A80036; stroke-width: 2.0;"/><text fill="#000000" font-family="sans-serif" font-size="14" lengthAdjust="spacingAndGlyphs" textLength="118" x="340" y="86.0439">vssManageControl</text><ellipse cx="402" cy="54" fill="#FEFECE" filter="url(#f88inrmhx35f)" rx="12" ry="12" style="stroke: #A80036; stroke-width: 2.0;"/><polygon fill="#A80036" points="398,42,404,37,402,42,404,47,398,42" style="stroke: #A80036; stroke-width: 1.0;"/><text fill="#000000" font-family="sans-serif" font-size="14" lengthAdjust="spacingAndGlyphs" textLength="118" x="340" y="333.7363">vssManageControl</text><ellipse cx="402" cy="352.8125" fill="#FEFECE" filter="url(#f88inrmhx35f)" rx="12" ry="12" style="stroke: #A80036; stroke-width: 2.0;"/><polygon fill="#A80036" points="398,340.8125,404,335.8125,402,340.8125,404,345.8125,398,340.8125" style="stroke: #A80036; stroke-width: 1.0;"/><polygon fill="#A80036" points="111,118.1201,121,122.1201,111,126.1201,115,122.1201" style="stroke: #A80036; stroke-width: 1.0;"/><line style="stroke: #A80036; stroke-width: 1.0;" x1="25" x2="117" y1="122.1201" y2="122.1201"/><text fill="#000000" font-family="sans-serif" font-size="13" lengthAdjust="spacingAndGlyphs" textLength="71" x="32" y="118.0181">PreviewVSS</text><polygon fill="#A80036" points="36,149.8745,26,153.8745,36,157.8745,32,153.8745" style="stroke: #A80036; stroke-width: 1.0;"/><line style="stroke: #A80036; stroke-width: 1.0;" x1="30" x2="122" y1="153.8745" y2="153.8745"/><text fill="#000000" font-family="sans-serif" font-size="13" lengthAdjust="spacingAndGlyphs" textLength="74" x="42" y="149.7725">preview page</text><polygon fill="#A80036" points="390,181.6289,400,185.6289,390,189.6289,394,185.6289" style="stroke: #A80036; stroke-width: 1.0;"/><line style="stroke: #A80036; stroke-width: 1.0;" x1="123" x2="396" y1="185.6289" y2="185.6289"/><text fill="#000000" font-family="sans-serif" font-size="13" lengthAdjust="spacingAndGlyphs" textLength="71" x="130" y="181.5269">PreviewVSS</text><path d="M82.5,201.3833 L143.5,201.3833 L143.5,210.3833 L133.5,220.3833 L82.5,220.3833 L82.5,201.3833 " fill="#EEEEEE" style="stroke: #000000; stroke-width: 1.0;"/><rect fill="none" height="100.3091" style="stroke: #000000; stroke-width: 2.0;" width="391.5" x="82.5" y="201.3833"/><text fill="#000000" font-family="sans-serif" font-size="13" font-weight="bold" lengthAdjust="spacingAndGlyphs" textLength="16" x="97.5" y="217.2813">alt</text><text fill="#000000" font-family="sans-serif" font-size="11" font-weight="bold" lengthAdjust="spacingAndGlyphs" textLength="33" x="158.5" y="215.9893">[local]</text><polygon fill="#A80036" points="134,240.1606,124,244.1606,134,248.1606,130,244.1606" style="stroke: #A80036; stroke-width: 1.0;"/><line style="stroke: #A80036; stroke-width: 1.0;" x1="128" x2="401" y1="244.1606" y2="244.1606"/><text fill="#000000" font-family="sans-serif" font-size="13" lengthAdjust="spacingAndGlyphs" textLength="53" x="140" y="240.0586">PlayVSS</text><line style="stroke: #000000; stroke-width: 1.0; stroke-dasharray: 2.0,2.0;" x1="82.5" x2="474" y1="253.915" y2="253.915"/><text fill="#000000" font-family="sans-serif" font-size="11" font-weight="bold" lengthAdjust="spacingAndGlyphs" textLength="42" x="87.5" y="266.521">[online]</text><polygon fill="#A80036" points="134,288.938,124,292.938,134,296.938,130,292.938" style="stroke: #A80036; stroke-width: 1.0;"/><line style="stroke: #A80036; stroke-width: 1.0;" x1="128" x2="401" y1="292.938" y2="292.938"/><text fill="#000000" font-family="sans-serif" font-size="13" lengthAdjust="spacingAndGlyphs" textLength="255" x="140" y="288.8359">DownloadVSS or LikeVSS or CommentVSS</text><!--
@startuml
actor user
boundary interface
control vssManageControl

user -> interface: PreviewVSS
interface -> user: preview page
interface -> vssManageControl: PreviewVSS

alt local
    vssManageControl -> interface: PlayVSS
else online
    vssManageControl -> interface: DownloadVSS or LikeVSS or CommentVSS
end
@enduml

PlantUML version 1.2018.01(Mon Jan 29 02:08:22 CST 2018)
(GPL source distribution)
Java Runtime: Java(TM) SE Runtime Environment
JVM: Java HotSpot(TM) Client VM
Java Version: 1.8.0_144-b01
Operating System: Windows 10
OS Version: 10.0
Default Encoding: GBK
Language: zh
Country: CN
--></g></svg>