<?xml version="1.0" encoding="UTF-8" standalone="no"?><svg xmlns="http://www.w3.org/2000/svg" xmlns:xlink="http://www.w3.org/1999/xlink" contentScriptType="application/ecmascript" contentStyleType="text/css" height="678px" preserveAspectRatio="none" style="width:1029px;height:678px;" version="1.1" viewBox="0 0 1029 678"
    width="1029px" zoomAndPan="magnify"><defs><filter height="300%" id="fe56i3647k8r9" width="300%" x="-1" y="-1"><feGaussianBlur result="blurOut" stdDeviation="2.0"/><feColorMatrix in="blurOut" result="blurOut2" type="matrix" values="0 0 0 0 0 0 0 0 0 0 0 0 0 0 0 0 0 0 .4 0"/><feOffset dx="4.0" dy="4.0" in="blurOut2" result="blurOut3"/><feBlend in="SourceGraphic" in2="blurOut3" mode="normal"/></filter></defs><g><rect fill="#FFFFFF" filter="url(#fe56i3647k8r9)" height="479.459" style="stroke: #A80036; stroke-width: 1.0;" width="10" x="57.5" y="99.1201"/><rect fill="#FFFFFF" filter="url(#fe56i3647k8r9)" height="479.459" style="stroke: #A80036; stroke-width: 1.0;" width="10" x="182.5" y="99.1201"/><rect fill="#FFFFFF" filter="url(#fe56i3647k8r9)" height="46.5088" style="stroke: #A80036; stroke-width: 1.0;" width="10" x="339" y="180.6519"/><rect fill="#FFFFFF" filter="url(#fe56i3647k8r9)" height="303.3955" style="stroke: #A80036; stroke-width: 1.0;" width="10" x="513.5" y="275.1836"/><rect fill="#FFFFFF" filter="url(#fe56i3647k8r9)" height="433.7046" style="stroke: #000000; stroke-width: 2.0;" width="1004.5" x="13" y="137.8745"/><rect fill="#FFFFFF" height="336.4185" style="stroke: none; stroke-width: 1.0;" width="1004.5" x="13" y="235.1606"/><rect fill="#FFFFFF" filter="url(#fe56i3647k8r9)" height="273.6411" style="stroke: #000000; stroke-width: 2.0;" width="984.5" x="23" y="290.938"/><rect fill="#FFFFFF" filter="url(#fe56i3647k8r9)" height="82.5547" style="stroke: #000000; stroke-width: 2.0;" width="778.5" x="33" y="349.4697"/><rect fill="#FFFFFF" height="31.0229" style="stroke: none; stroke-width: 1.0;" width="778.5" x="33" y="401.0015"/><rect fill="#FFFFFF" height="62.7773" style="stroke: none; stroke-width: 1.0;" width="984.5" x="23" y="439.0244"/><rect fill="#FFFFFF" height="62.7773" style="stroke: none; stroke-width: 1.0;" width="984.5" x="23" y="501.8018"/><line style="stroke: #A80036; stroke-width: 1.0; stroke-dasharray: 5.0,5.0;" x1="62" x2="62" y1="89.1201" y2="588.5791"/><line style="stroke: #A80036; stroke-width: 1.0; stroke-dasharray: 5.0,5.0;" x1="187.5" x2="187.5" y1="89.1201" y2="588.5791"/><line style="stroke: #A80036; stroke-width: 1.0; stroke-dasharray: 5.0,5.0;" x1="343.5" x2="343.5" y1="89.1201" y2="588.5791"/><line style="stroke: #A80036; stroke-width: 1.0; stroke-dasharray: 5.0,5.0;" x1="518.5" x2="518.5" y1="89.1201" y2="588.5791"/><line style="stroke: #A80036; stroke-width: 1.0; stroke-dasharray: 5.0,5.0;" x1="648.5" x2="648.5" y1="89.1201" y2="588.5791"/><line style="stroke: #A80036; stroke-width: 1.0; stroke-dasharray: 5.0,5.0;" x1="747.5" x2="747.5" y1="89.1201" y2="588.5791"/><line style="stroke: #A80036; stroke-width: 1.0; stroke-dasharray: 5.0,5.0;" x1="846.5" x2="846.5" y1="89.1201" y2="588.5791"/><line style="stroke: #A80036; stroke-width: 1.0; stroke-dasharray: 5.0,5.0;" x1="944.5" x2="944.5" y1="89.1201" y2="588.5791"/><text fill="#000000" font-family="sans-serif" font-size="14" lengthAdjust="spacingAndGlyphs" textLength="4" x="43" y="86.0439">:</text><text fill="#000000" font-family="sans-serif" font-size="14" lengthAdjust="spacingAndGlyphs" text-decoration="underline" textLength="29" x="47" y="86.0439">User</text><line style="stroke: #000000; stroke-width: 1.0;" x1="47" x2="76" y1="88.0439" y2="88.0439"/><ellipse cx="62.5" cy="13" fill="#FEFECE" filter="url(#fe56i3647k8r9)" rx="8" ry="8" style="stroke: #A80036; stroke-width: 2.0;"/><path d="M62.5,21 L62.5,48 M49.5,29 L75.5,29 M62.5,48 L49.5,63 M62.5,48 L75.5,63 " fill="none" filter="url(#fe56i3647k8r9)" style="stroke: #A80036; stroke-width: 2.0;"/><text fill="#000000" font-family="sans-serif" font-size="14" lengthAdjust="spacingAndGlyphs" textLength="4" x="43" y="603.623">:</text><text fill="#000000" font-family="sans-serif" font-size="14" lengthAdjust="spacingAndGlyphs" text-decoration="underline" textLength="29" x="47" y="603.623">User</text><line style="stroke: #000000; stroke-width: 1.0;" x1="47" x2="76" y1="605.623" y2="605.623"/><ellipse cx="62.5" cy="616.6992" fill="#FEFECE" filter="url(#fe56i3647k8r9)" rx="8" ry="8" style="stroke: #A80036; stroke-width: 2.0;"/><path d="M62.5,624.6992 L62.5,651.6992 M49.5,632.6992 L75.5,632.6992 M62.5,651.6992 L49.5,666.6992 M62.5,651.6992 L75.5,666.6992 " fill="none" filter="url(#fe56i3647k8r9)" style="stroke: #A80036; stroke-width: 2.0;"/><text fill="#000000" font-family="sans-serif" font-size="14" lengthAdjust="spacingAndGlyphs" textLength="4" x="121.5" y="86.0439">:</text><text fill="#000000" font-family="sans-serif" font-size="14" lengthAdjust="spacingAndGlyphs" text-decoration="underline" textLength="122" x="125.5" y="86.0439">VSSPreviewerPage</text><line style="stroke: #000000; stroke-width: 1.0;" x1="125.5" x2="247.5" y1="88.0439" y2="88.0439"/><path d="M167,42 L167,66 M167,54 L184,54 " fill="none" filter="url(#fe56i3647k8r9)" style="stroke: #A80036; stroke-width: 2.0;"/><ellipse cx="196" cy="54" fill="#FEFECE" filter="url(#fe56i3647k8r9)" rx="12" ry="12" style="stroke: #A80036; stroke-width: 2.0;"/><text fill="#000000" font-family="sans-serif" font-size="14" lengthAdjust="spacingAndGlyphs" textLength="4" x="121.5" y="603.623">:</text><text fill="#000000" font-family="sans-serif" font-size="14" lengthAdjust="spacingAndGlyphs" text-decoration="underline" textLength="122" x="125.5" y="603.623">VSSPreviewerPage</text><line style="stroke: #000000; stroke-width: 1.0;" x1="125.5" x2="247.5" y1="605.623" y2="605.623"/><path d="M167,610.6992 L167,634.6992 M167,622.6992 L184,622.6992 " fill="none" filter="url(#fe56i3647k8r9)" style="stroke: #A80036; stroke-width: 2.0;"/><ellipse cx="196" cy="622.6992" fill="#FEFECE" filter="url(#fe56i3647k8r9)" rx="12" ry="12" style="stroke: #A80036; stroke-width: 2.0;"/><text fill="#000000" font-family="sans-serif" font-size="14" lengthAdjust="spacingAndGlyphs" textLength="4" x="263.5" y="86.0439">:</text><text fill="#000000" font-family="sans-serif" font-size="14" lengthAdjust="spacingAndGlyphs" text-decoration="underline" textLength="151" x="267.5" y="86.0439">LocalVSSLibraryControl</text><line style="stroke: #000000; stroke-width: 1.0;" x1="267.5" x2="418.5" y1="88.0439" y2="88.0439"/><ellipse cx="344" cy="54" fill="#FEFECE" filter="url(#fe56i3647k8r9)" rx="12" ry="12" style="stroke: #A80036; stroke-width: 2.0;"/><polygon fill="#A80036" points="340,42,346,37,344,42,346,47,340,42" style="stroke: #A80036; stroke-width: 1.0;"/><text fill="#000000" font-family="sans-serif" font-size="14" lengthAdjust="spacingAndGlyphs" textLength="4" x="263.5" y="603.623">:</text><text fill="#000000" font-family="sans-serif" font-size="14" lengthAdjust="spacingAndGlyphs" text-decoration="underline" textLength="151" x="267.5" y="603.623">LocalVSSLibraryControl</text><line style="stroke: #000000; stroke-width: 1.0;" x1="267.5" x2="418.5" y1="605.623" y2="605.623"/><ellipse cx="344" cy="622.6992" fill="#FEFECE" filter="url(#fe56i3647k8r9)" rx="12" ry="12" style="stroke: #A80036; stroke-width: 2.0;"/><polygon fill="#A80036" points="340,610.6992,346,605.6992,344,610.6992,346,615.6992,340,610.6992" style="stroke: #A80036; stroke-width: 1.0;"/><text fill="#000000" font-family="sans-serif" font-size="14" lengthAdjust="spacingAndGlyphs" textLength="4" x="434.5" y="86.0439">:</text><text fill="#000000" font-family="sans-serif" font-size="14" lengthAdjust="spacingAndGlyphs" text-decoration="underline" textLength="158" x="438.5" y="86.0439">OnlineVSSLibraryControl</text><line style="stroke: #000000; stroke-width: 1.0;" x1="438.5" x2="596.5" y1="88.0439" y2="88.0439"/><ellipse cx="518.5" cy="54" fill="#FEFECE" filter="url(#fe56i3647k8r9)" rx="12" ry="12" style="stroke: #A80036; stroke-width: 2.0;"/><polygon fill="#A80036" points="514.5,42,520.5,37,518.5,42,520.5,47,514.5,42" style="stroke: #A80036; stroke-width: 1.0;"/><text fill="#000000" font-family="sans-serif" font-size="14" lengthAdjust="spacingAndGlyphs" textLength="4" x="434.5" y="603.623">:</text><text fill="#000000" font-family="sans-serif" font-size="14" lengthAdjust="spacingAndGlyphs" text-decoration="underline" textLength="158" x="438.5" y="603.623">OnlineVSSLibraryControl</text><line style="stroke: #000000; stroke-width: 1.0;" x1="438.5" x2="596.5" y1="605.623" y2="605.623"/><ellipse cx="518.5" cy="622.6992" fill="#FEFECE" filter="url(#fe56i3647k8r9)" rx="12" ry="12" style="stroke: #A80036; stroke-width: 2.0;"/><polygon fill="#A80036" points="514.5,610.6992,520.5,605.6992,518.5,610.6992,520.5,615.6992,514.5,610.6992" style="stroke: #A80036; stroke-width: 1.0;"/><rect fill="#FEFECE" filter="url(#fe56i3647k8r9)" height="33.1201" style="stroke: #A80036; stroke-width: 1.5;" width="68" x="612.5" y="51"/><text fill="#000000" font-family="sans-serif" font-size="14" lengthAdjust="spacingAndGlyphs" textLength="54" x="619.5" y="74.0439">PlayVSS</text><rect fill="#FEFECE" filter="url(#fe56i3647k8r9)" height="33.1201" style="stroke: #A80036; stroke-width: 1.5;" width="68" x="612.5" y="587.5791"/><text fill="#000000" font-family="sans-serif" font-size="14" lengthAdjust="spacingAndGlyphs" textLength="54" x="619.5" y="610.623">PlayVSS</text><rect fill="#FEFECE" filter="url(#fe56i3647k8r9)" height="33.1201" style="stroke: #A80036; stroke-width: 1.5;" width="103" x="694.5" y="51"/><text fill="#000000" font-family="sans-serif" font-size="14" lengthAdjust="spacingAndGlyphs" textLength="89" x="701.5" y="74.0439">DownloadVSS</text><rect fill="#FEFECE" filter="url(#fe56i3647k8r9)" height="33.1201" style="stroke: #A80036; stroke-width: 1.5;" width="103" x="694.5" y="587.5791"/><text fill="#000000" font-family="sans-serif" font-size="14" lengthAdjust="spacingAndGlyphs" textLength="89" x="701.5" y="610.623">DownloadVSS</text><rect fill="#FEFECE" filter="url(#fe56i3647k8r9)" height="33.1201" style="stroke: #A80036; stroke-width: 1.5;" width="67" x="811.5" y="51"/><text fill="#000000" font-family="sans-serif" font-size="14" lengthAdjust="spacingAndGlyphs" textLength="53" x="818.5" y="74.0439">LikeVSS</text><rect fill="#FEFECE" filter="url(#fe56i3647k8r9)" height="33.1201" style="stroke: #A80036; stroke-width: 1.5;" width="67" x="811.5" y="587.5791"/><text fill="#000000" font-family="sans-serif" font-size="14" lengthAdjust="spacingAndGlyphs" textLength="53" x="818.5" y="610.623">LikeVSS</text><rect fill="#FEFECE" filter="url(#fe56i3647k8r9)" height="33.1201" style="stroke: #A80036; stroke-width: 1.5;" width="101" x="892.5" y="51"/><text fill="#000000" font-family="sans-serif" font-size="14" lengthAdjust="spacingAndGlyphs" textLength="87" x="899.5" y="74.0439">CommentVSS</text><rect fill="#FEFECE" filter="url(#fe56i3647k8r9)" height="33.1201" style="stroke: #A80036; stroke-width: 1.5;" width="101" x="892.5" y="587.5791"/><text fill="#000000" font-family="sans-serif" font-size="14" lengthAdjust="spacingAndGlyphs" textLength="87" x="899.5" y="610.623">CommentVSS</text><rect fill="#FFFFFF" filter="url(#fe56i3647k8r9)" height="479.459" style="stroke: #A80036; stroke-width: 1.0;" width="10" x="57.5" y="99.1201"/><rect fill="#FFFFFF" filter="url(#fe56i3647k8r9)" height="479.459" style="stroke: #A80036; stroke-width: 1.0;" width="10" x="182.5" y="99.1201"/><rect fill="#FFFFFF" filter="url(#fe56i3647k8r9)" height="46.5088" style="stroke: #A80036; stroke-width: 1.0;" width="10" x="339" y="180.6519"/><rect fill="#FFFFFF" filter="url(#fe56i3647k8r9)" height="303.3955" style="stroke: #A80036; stroke-width: 1.0;" width="10" x="513.5" y="275.1836"/><polygon fill="#A80036" points="170.5,118.1201,180.5,122.1201,170.5,126.1201,174.5,122.1201" style="stroke: #A80036; stroke-width: 1.0;"/><line style="stroke: #A80036; stroke-width: 1.0;" x1="67.5" x2="176.5" y1="122.1201" y2="122.1201"/><text fill="#000000" font-family="sans-serif" font-size="13" lengthAdjust="spacingAndGlyphs" textLength="79" x="74.5" y="118.0181">PreviewVSS()</text><path d="M13,137.8745 L74,137.8745 L74,146.8745 L64,156.8745 L13,156.8745 L13,137.8745 " fill="#EEEEEE" style="stroke: #000000; stroke-width: 1.0;"/><rect fill="none" height="433.7046" style="stroke: #000000; stroke-width: 2.0;" width="1004.5" x="13" y="137.8745"/><text fill="#000000" font-family="sans-serif" font-size="13" font-weight="bold" lengthAdjust="spacingAndGlyphs" textLength="16" x="28" y="153.7725">alt</text><text fill="#000000" font-family="sans-serif" font-size="11" font-weight="bold" lengthAdjust="spacingAndGlyphs" textLength="44" x="89" y="152.4805">[Offline]</text><polygon fill="#A80036" points="327,176.6519,337,180.6519,327,184.6519,331,180.6519" style="stroke: #A80036; stroke-width: 1.0;"/><line style="stroke: #A80036; stroke-width: 1.0;" x1="192.5" x2="333" y1="180.6519" y2="180.6519"/><text fill="#000000" font-family="sans-serif" font-size="13" lengthAdjust="spacingAndGlyphs" textLength="68" x="199.5" y="176.5498">&lt;&lt;create&gt;&gt;</text><polygon fill="#A80036" points="170.5,208.4063,180.5,212.4063,170.5,216.4063,174.5,212.4063" style="stroke: #A80036; stroke-width: 1.0;"/><line style="stroke: #A80036; stroke-width: 1.0;" x1="67.5" x2="176.5" y1="212.4063" y2="212.4063"/><text fill="#000000" font-family="sans-serif" font-size="13" lengthAdjust="spacingAndGlyphs" textLength="61" x="74.5" y="208.3042">PlayVSS()</text><polygon fill="#A80036" points="636.5,223.1606,646.5,227.1606,636.5,231.1606,640.5,227.1606" style="stroke: #A80036; stroke-width: 1.0;"/><line style="stroke: #A80036; stroke-width: 1.0;" x1="344" x2="642.5" y1="227.1606" y2="227.1606"/><line style="stroke: #000000; stroke-width: 1.0; stroke-dasharray: 2.0,2.0;" x1="13" x2="1017.5" y1="236.1606" y2="236.1606"/><text fill="#000000" font-family="sans-serif" font-size="11" font-weight="bold" lengthAdjust="spacingAndGlyphs" textLength="43" x="18" y="248.7666">[Online]</text><polygon fill="#A80036" points="501.5,271.1836,511.5,275.1836,501.5,279.1836,505.5,275.1836" style="stroke: #A80036; stroke-width: 1.0;"/><line style="stroke: #A80036; stroke-width: 1.0;" x1="192.5" x2="507.5" y1="275.1836" y2="275.1836"/><text fill="#000000" font-family="sans-serif" font-size="13" lengthAdjust="spacingAndGlyphs" textLength="68" x="199.5" y="271.0815">&lt;&lt;create&gt;&gt;</text><path d="M23,290.938 L84,290.938 L84,299.938 L74,309.938 L23,309.938 L23,290.938 " fill="#EEEEEE" style="stroke: #000000; stroke-width: 1.0;"/><rect fill="none" height="273.6411" style="stroke: #000000; stroke-width: 2.0;" width="984.5" x="23" y="290.938"/><text fill="#000000" font-family="sans-serif" font-size="13" font-weight="bold" lengthAdjust="spacingAndGlyphs" textLength="16" x="38" y="306.8359">alt</text><text fill="#000000" font-family="sans-serif" font-size="11" font-weight="bold" lengthAdjust="spacingAndGlyphs" textLength="119" x="99" y="305.5439">[Download Operation]</text><polygon fill="#A80036" points="170.5,329.7153,180.5,333.7153,170.5,337.7153,174.5,333.7153" style="stroke: #A80036; stroke-width: 1.0;"/><line style="stroke: #A80036; stroke-width: 1.0;" x1="67.5" x2="176.5" y1="333.7153" y2="333.7153"/><text fill="#000000" font-family="sans-serif" font-size="13" lengthAdjust="spacingAndGlyphs" textLength="91" x="74.5" y="329.6133">DownloadVSS()</text><path d="M33,349.4697 L94,349.4697 L94,358.4697 L84,368.4697 L33,368.4697 L33,349.4697 " fill="#EEEEEE" style="stroke: #000000; stroke-width: 1.0;"/><rect fill="none" height="82.5547" style="stroke: #000000; stroke-width: 2.0;" width="778.5" x="33" y="349.4697"/><text fill="#000000" font-family="sans-serif" font-size="13" font-weight="bold" lengthAdjust="spacingAndGlyphs" textLength="16" x="48" y="365.3677">alt</text><text fill="#000000" font-family="sans-serif" font-size="11" font-weight="bold" lengthAdjust="spacingAndGlyphs" textLength="76" x="109" y="364.0757">[downloaded]</text><polygon fill="#A80036" points="78.5,388.2471,68.5,392.2471,78.5,396.2471,74.5,392.2471" style="stroke: #A80036; stroke-width: 1.0;"/><line style="stroke: #A80036; stroke-width: 1.0;" x1="72.5" x2="181.5" y1="392.2471" y2="392.2471"/><text fill="#000000" font-family="sans-serif" font-size="13" lengthAdjust="spacingAndGlyphs" textLength="40" x="84.5" y="388.145">Refuse</text><line style="stroke: #000000; stroke-width: 1.0; stroke-dasharray: 2.0,2.0;" x1="33" x2="811.5" y1="402.0015" y2="402.0015"/><text fill="#000000" font-family="sans-serif" font-size="11" font-weight="bold" lengthAdjust="spacingAndGlyphs" textLength="97" x="38" y="414.6074">[not downloaded]</text><polygon fill="#A80036" points="736,420.0244,746,424.0244,736,428.0244,740,424.0244" style="stroke: #A80036; stroke-width: 1.0;"/><line style="stroke: #A80036; stroke-width: 1.0;" x1="523.5" x2="742" y1="424.0244" y2="424.0244"/><line style="stroke: #000000; stroke-width: 1.0; stroke-dasharray: 2.0,2.0;" x1="23" x2="1007.5" y1="440.0244" y2="440.0244"/><text fill="#000000" font-family="sans-serif" font-size="11" font-weight="bold" lengthAdjust="spacingAndGlyphs" textLength="89" x="28" y="452.6304">[Like Operation]</text><polygon fill="#A80036" points="170.5,475.0474,180.5,479.0474,170.5,483.0474,174.5,479.0474" style="stroke: #A80036; stroke-width: 1.0;"/><line style="stroke: #A80036; stroke-width: 1.0;" x1="67.5" x2="176.5" y1="479.0474" y2="479.0474"/><text fill="#000000" font-family="sans-serif" font-size="13" lengthAdjust="spacingAndGlyphs" textLength="59" x="74.5" y="474.9453">LikeVSS()</text><polygon fill="#A80036" points="835,489.8018,845,493.8018,835,497.8018,839,493.8018" style="stroke: #A80036; stroke-width: 1.0;"/><line style="stroke: #A80036; stroke-width: 1.0;" x1="523.5" x2="841" y1="493.8018" y2="493.8018"/><line style="stroke: #000000; stroke-width: 1.0; stroke-dasharray: 2.0,2.0;" x1="23" x2="1007.5" y1="502.8018" y2="502.8018"/><text fill="#000000" font-family="sans-serif" font-size="11" font-weight="bold" lengthAdjust="spacingAndGlyphs" textLength="120" x="28" y="515.4077">[Comment Operation]</text><polygon fill="#A80036" points="170.5,537.8247,180.5,541.8247,170.5,545.8247,174.5,541.8247" style="stroke: #A80036; stroke-width: 1.0;"/><line style="stroke: #A80036; stroke-width: 1.0;" x1="67.5" x2="176.5" y1="541.8247" y2="541.8247"/><text fill="#000000" font-family="sans-serif" font-size="13" lengthAdjust="spacingAndGlyphs" textLength="91" x="74.5" y="537.7227">CommentVSS()</text><polygon fill="#A80036" points="933,552.5791,943,556.5791,933,560.5791,937,556.5791" style="stroke: #A80036; stroke-width: 1.0;"/><line style="stroke: #A80036; stroke-width: 1.0;" x1="523.5" x2="939" y1="556.5791" y2="556.5791"/><!--
@startuml
actor ":__User__" as User
boundary ":__VSSPreviewerPage__" as VSSPreviewerPage
control ":__LocalVSSLibraryControl__" as LocalVSSLibraryControl
control ":__OnlineVSSLibraryControl__" as OnlineVSSLibraryControl

activate User
activate VSSPreviewerPage
User -> VSSPreviewerPage: PreviewVSS()
alt Offline
    VSSPreviewerPage -> LocalVSSLibraryControl: <<create>>
    activate LocalVSSLibraryControl
    User -> VSSPreviewerPage: PlayVSS()
    LocalVSSLibraryControl -> PlayVSS
    deactivate LocalVSSLibraryControl
else Online
    VSSPreviewerPage -> OnlineVSSLibraryControl: <<create>>
    activate OnlineVSSLibraryControl
    alt Download Operation
        User -> VSSPreviewerPage: DownloadVSS()
        alt downloaded
            VSSPreviewerPage -> User: Refuse
        else not downloaded
            OnlineVSSLibraryControl -> DownloadVSS
        end
    else Like Operation
        User -> VSSPreviewerPage: LikeVSS()
        OnlineVSSLibraryControl -> LikeVSS
    else Comment Operation
        User -> VSSPreviewerPage: CommentVSS()
        OnlineVSSLibraryControl -> CommentVSS
    end
end
deactivate OnlineVSSLibraryControl
deactivate VSSPreviewerPage
deactivate User
@enduml

PlantUML version 1.2018.01(Mon Jan 29 02:08:22 CST 2018)
(GPL source distribution)
Java Runtime: Java(TM) SE Runtime Environment
JVM: Java HotSpot(TM) Client VM
Java Version: 1.8.0_144-b01
Operating System: Windows 10
OS Version: 10.0
Default Encoding: GBK
Language: zh
Country: CN
--></g></svg>