<?xml version="1.0" encoding="UTF-8" standalone="no"?><svg xmlns="http://www.w3.org/2000/svg" xmlns:xlink="http://www.w3.org/1999/xlink" contentScriptType="application/ecmascript" contentStyleType="text/css" height="391px" preserveAspectRatio="none" style="width:403px;height:391px;" version="1.1" viewBox="0 0 403 391"
    width="403px" zoomAndPan="magnify"><defs><filter height="300%" id="fgv3wzzxce881" width="300%" x="-1" y="-1"><feGaussianBlur result="blurOut" stdDeviation="2.0"/><feColorMatrix in="blurOut" result="blurOut2" type="matrix" values="0 0 0 0 0 0 0 0 0 0 0 0 0 0 0 0 0 0 .4 0"/><feOffset dx="4.0" dy="4.0" in="blurOut2" result="blurOut3"/><feBlend in="SourceGraphic" in2="blurOut3" mode="normal"/></filter></defs><g><rect fill="#FFFFFF" filter="url(#fgv3wzzxce881)" height="160.7949" style="stroke: #A80036; stroke-width: 1.0;" width="10" x="37.5" y="99.1201"/><rect fill="#FFFFFF" filter="url(#fgv3wzzxce881)" height="137.7949" style="stroke: #A80036; stroke-width: 1.0;" width="10" x="165.5" y="122.1201"/><rect fill="#FFFFFF" filter="url(#fgv3wzzxce881)" height="129.0405" style="stroke: #A80036; stroke-width: 1.0;" width="10" x="277.5" y="153.8745"/><rect fill="#FFFFFF" filter="url(#fgv3wzzxce881)" height="9.7544" style="stroke: #A80036; stroke-width: 1.0;" width="10" x="374.5" y="282.915"/><rect fill="#FFFFFF" filter="url(#fgv3wzzxce881)" height="51.5317" style="stroke: #000000; stroke-width: 2.0;" width="215.5" x="13" y="201.3833"/><line style="stroke: #A80036; stroke-width: 1.0; stroke-dasharray: 5.0,5.0;" x1="42" x2="42" y1="89.1201" y2="301.6694"/><line style="stroke: #A80036; stroke-width: 1.0; stroke-dasharray: 5.0,5.0;" x1="170.5" x2="170.5" y1="89.1201" y2="301.6694"/><line style="stroke: #A80036; stroke-width: 1.0; stroke-dasharray: 5.0,5.0;" x1="282.5" x2="282.5" y1="89.1201" y2="301.6694"/><line style="stroke: #A80036; stroke-width: 1.0; stroke-dasharray: 5.0,5.0;" x1="379.5" x2="379.5" y1="89.1201" y2="301.6694"/><text fill="#000000" font-family="sans-serif" font-size="14" lengthAdjust="spacingAndGlyphs" textLength="4" x="23" y="86.0439">:</text><text fill="#000000" font-family="sans-serif" font-size="14" lengthAdjust="spacingAndGlyphs" text-decoration="underline" textLength="29" x="27" y="86.0439">User</text><line style="stroke: #000000; stroke-width: 1.0;" x1="27" x2="56" y1="88.0439" y2="88.0439"/><ellipse cx="42.5" cy="13" fill="#FEFECE" filter="url(#fgv3wzzxce881)" rx="8" ry="8" style="stroke: #A80036; stroke-width: 2.0;"/><path d="M42.5,21 L42.5,48 M29.5,29 L55.5,29 M42.5,48 L29.5,63 M42.5,48 L55.5,63 " fill="none" filter="url(#fgv3wzzxce881)" style="stroke: #A80036; stroke-width: 2.0;"/><text fill="#000000" font-family="sans-serif" font-size="14" lengthAdjust="spacingAndGlyphs" textLength="4" x="23" y="316.7134">:</text><text fill="#000000" font-family="sans-serif" font-size="14" lengthAdjust="spacingAndGlyphs" text-decoration="underline" textLength="29" x="27" y="316.7134">User</text><line style="stroke: #000000; stroke-width: 1.0;" x1="27" x2="56" y1="318.7134" y2="318.7134"/><ellipse cx="42.5" cy="329.7896" fill="#FEFECE" filter="url(#fgv3wzzxce881)" rx="8" ry="8" style="stroke: #A80036; stroke-width: 2.0;"/><path d="M42.5,337.7896 L42.5,364.7896 M29.5,345.7896 L55.5,345.7896 M42.5,364.7896 L29.5,379.7896 M42.5,364.7896 L55.5,379.7896 " fill="none" filter="url(#fgv3wzzxce881)" style="stroke: #A80036; stroke-width: 2.0;"/><text fill="#000000" font-family="sans-serif" font-size="14" lengthAdjust="spacingAndGlyphs" textLength="4" x="122.5" y="86.0439">:</text><text fill="#000000" font-family="sans-serif" font-size="14" lengthAdjust="spacingAndGlyphs" text-decoration="underline" textLength="86" x="126.5" y="86.0439">RegisterPage</text><line style="stroke: #000000; stroke-width: 1.0;" x1="126.5" x2="212.5" y1="88.0439" y2="88.0439"/><path d="M150,42 L150,66 M150,54 L167,54 " fill="none" filter="url(#fgv3wzzxce881)" style="stroke: #A80036; stroke-width: 2.0;"/><ellipse cx="179" cy="54" fill="#FEFECE" filter="url(#fgv3wzzxce881)" rx="12" ry="12" style="stroke: #A80036; stroke-width: 2.0;"/><text fill="#000000" font-family="sans-serif" font-size="14" lengthAdjust="spacingAndGlyphs" textLength="4" x="122.5" y="316.7134">:</text><text fill="#000000" font-family="sans-serif" font-size="14" lengthAdjust="spacingAndGlyphs" text-decoration="underline" textLength="86" x="126.5" y="316.7134">RegisterPage</text><line style="stroke: #000000; stroke-width: 1.0;" x1="126.5" x2="212.5" y1="318.7134" y2="318.7134"/><path d="M150,323.7896 L150,347.7896 M150,335.7896 L167,335.7896 " fill="none" filter="url(#fgv3wzzxce881)" style="stroke: #A80036; stroke-width: 2.0;"/><ellipse cx="179" cy="335.7896" fill="#FEFECE" filter="url(#fgv3wzzxce881)" rx="12" ry="12" style="stroke: #A80036; stroke-width: 2.0;"/><text fill="#000000" font-family="sans-serif" font-size="14" lengthAdjust="spacingAndGlyphs" textLength="4" x="228.5" y="86.0439">:</text><text fill="#000000" font-family="sans-serif" font-size="14" lengthAdjust="spacingAndGlyphs" text-decoration="underline" textLength="98" x="232.5" y="86.0439">UserInfoControl</text><line style="stroke: #000000; stroke-width: 1.0;" x1="232.5" x2="330.5" y1="88.0439" y2="88.0439"/><ellipse cx="282.5" cy="54" fill="#FEFECE" filter="url(#fgv3wzzxce881)" rx="12" ry="12" style="stroke: #A80036; stroke-width: 2.0;"/><polygon fill="#A80036" points="278.5,42,284.5,37,282.5,42,284.5,47,278.5,42" style="stroke: #A80036; stroke-width: 1.0;"/><text fill="#000000" font-family="sans-serif" font-size="14" lengthAdjust="spacingAndGlyphs" textLength="4" x="228.5" y="316.7134">:</text><text fill="#000000" font-family="sans-serif" font-size="14" lengthAdjust="spacingAndGlyphs" text-decoration="underline" textLength="98" x="232.5" y="316.7134">UserInfoControl</text><line style="stroke: #000000; stroke-width: 1.0;" x1="232.5" x2="330.5" y1="318.7134" y2="318.7134"/><ellipse cx="282.5" cy="335.7896" fill="#FEFECE" filter="url(#fgv3wzzxce881)" rx="12" ry="12" style="stroke: #A80036; stroke-width: 2.0;"/><polygon fill="#A80036" points="278.5,323.7896,284.5,318.7896,282.5,323.7896,284.5,328.7896,278.5,323.7896" style="stroke: #A80036; stroke-width: 1.0;"/><text fill="#000000" font-family="sans-serif" font-size="14" lengthAdjust="spacingAndGlyphs" textLength="4" x="370.5" y="86.0439">:</text><text fill="#000000" font-family="sans-serif" font-size="14" lengthAdjust="spacingAndGlyphs" text-decoration="underline" textLength="8" x="374.5" y="86.0439">u</text><line style="stroke: #000000; stroke-width: 1.0;" x1="374.5" x2="382.5" y1="88.0439" y2="88.0439"/><ellipse cx="379.5" cy="54" fill="#FEFECE" filter="url(#fgv3wzzxce881)" rx="12" ry="12" style="stroke: #A80036; stroke-width: 2.0;"/><line style="stroke: #A80036; stroke-width: 2.0;" x1="367.5" x2="391.5" y1="68" y2="68"/><text fill="#000000" font-family="sans-serif" font-size="14" lengthAdjust="spacingAndGlyphs" textLength="4" x="370.5" y="316.7134">:</text><text fill="#000000" font-family="sans-serif" font-size="14" lengthAdjust="spacingAndGlyphs" text-decoration="underline" textLength="8" x="374.5" y="316.7134">u</text><line style="stroke: #000000; stroke-width: 1.0;" x1="374.5" x2="382.5" y1="318.7134" y2="318.7134"/><ellipse cx="379.5" cy="335.7896" fill="#FEFECE" filter="url(#fgv3wzzxce881)" rx="12" ry="12" style="stroke: #A80036; stroke-width: 2.0;"/><line style="stroke: #A80036; stroke-width: 2.0;" x1="367.5" x2="391.5" y1="349.7896" y2="349.7896"/><rect fill="#FFFFFF" filter="url(#fgv3wzzxce881)" height="160.7949" style="stroke: #A80036; stroke-width: 1.0;" width="10" x="37.5" y="99.1201"/><rect fill="#FFFFFF" filter="url(#fgv3wzzxce881)" height="137.7949" style="stroke: #A80036; stroke-width: 1.0;" width="10" x="165.5" y="122.1201"/><rect fill="#FFFFFF" filter="url(#fgv3wzzxce881)" height="129.0405" style="stroke: #A80036; stroke-width: 1.0;" width="10" x="277.5" y="153.8745"/><rect fill="#FFFFFF" filter="url(#fgv3wzzxce881)" height="9.7544" style="stroke: #A80036; stroke-width: 1.0;" width="10" x="374.5" y="282.915"/><polygon fill="#A80036" points="153.5,118.1201,163.5,122.1201,153.5,126.1201,157.5,122.1201" style="stroke: #A80036; stroke-width: 1.0;"/><line style="stroke: #A80036; stroke-width: 1.0;" x1="47.5" x2="159.5" y1="122.1201" y2="122.1201"/><text fill="#000000" font-family="sans-serif" font-size="13" lengthAdjust="spacingAndGlyphs" textLength="43" x="54.5" y="118.0181">register</text><polygon fill="#A80036" points="265.5,149.8745,275.5,153.8745,265.5,157.8745,269.5,153.8745" style="stroke: #A80036; stroke-width: 1.0;"/><line style="stroke: #A80036; stroke-width: 1.0;" x1="175.5" x2="271.5" y1="153.8745" y2="153.8745"/><text fill="#000000" font-family="sans-serif" font-size="13" lengthAdjust="spacingAndGlyphs" textLength="68" x="182.5" y="149.7725">&lt;&lt;create&gt;&gt;</text><polygon fill="#A80036" points="153.5,181.6289,163.5,185.6289,153.5,189.6289,157.5,185.6289" style="stroke: #A80036; stroke-width: 1.0;"/><line style="stroke: #A80036; stroke-width: 1.0;" x1="47.5" x2="159.5" y1="185.6289" y2="185.6289"/><text fill="#000000" font-family="sans-serif" font-size="13" lengthAdjust="spacingAndGlyphs" textLength="94" x="54.5" y="181.5269">submitUserInfo()</text><path d="M13,201.3833 L86,201.3833 L86,210.3833 L76,220.3833 L13,220.3833 L13,201.3833 " fill="#EEEEEE" style="stroke: #000000; stroke-width: 1.0;"/><rect fill="none" height="51.5317" style="stroke: #000000; stroke-width: 2.0;" width="215.5" x="13" y="201.3833"/><text fill="#000000" font-family="sans-serif" font-size="13" font-weight="bold" lengthAdjust="spacingAndGlyphs" textLength="28" x="28" y="217.2813">loop</text><text fill="#000000" font-family="sans-serif" font-size="11" font-weight="bold" lengthAdjust="spacingAndGlyphs" textLength="43" x="101" y="215.9893">[invalid]</text><polygon fill="#A80036" points="153.5,240.1606,163.5,244.1606,153.5,248.1606,157.5,244.1606" style="stroke: #A80036; stroke-width: 1.0;"/><line style="stroke: #A80036; stroke-width: 1.0;" x1="47.5" x2="159.5" y1="244.1606" y2="244.1606"/><text fill="#000000" font-family="sans-serif" font-size="13" lengthAdjust="spacingAndGlyphs" textLength="94" x="54.5" y="240.0586">submitUserInfo()</text><polygon fill="#A80036" points="362.5,278.915,372.5,282.915,362.5,286.915,366.5,282.915" style="stroke: #A80036; stroke-width: 1.0;"/><line style="stroke: #A80036; stroke-width: 1.0;" x1="282.5" x2="368.5" y1="282.915" y2="282.915"/><text fill="#000000" font-family="sans-serif" font-size="13" lengthAdjust="spacingAndGlyphs" textLength="68" x="289.5" y="278.813">&lt;&lt;create&gt;&gt;</text><!--
@startuml
actor ":__User__" as User
boundary ":__RegisterPage__" as RegisterPage
control ":__UserInfoControl__" as UserInfoControl
entity ":__u__" as User_Object

activate User
User -> RegisterPage: register
activate RegisterPage
RegisterPage -> UserInfoControl: <<create>>
activate UserInfoControl
User -> RegisterPage: submitUserInfo()
loop invalid
    User -> RegisterPage: submitUserInfo()
end
deactivate User
deactivate RegisterPage
UserInfoControl -> User_Object: <<create>>
deactivate UserInfoControl
activate User_Object
deactivate User_Object
@enduml

PlantUML version 1.2018.01(Mon Jan 29 02:08:22 CST 2018)
(GPL source distribution)
Java Runtime: Java(TM) SE Runtime Environment
JVM: Java HotSpot(TM) Client VM
Java Version: 1.8.0_144-b01
Operating System: Windows 10
OS Version: 10.0
Default Encoding: GBK
Language: zh
Country: CN
--></g></svg>