<?xml version="1.0" encoding="UTF-8" standalone="no"?><svg xmlns="http://www.w3.org/2000/svg" xmlns:xlink="http://www.w3.org/1999/xlink" contentScriptType="application/ecmascript" contentStyleType="text/css" height="804px" preserveAspectRatio="none" style="width:487px;height:804px;" version="1.1" viewBox="0 0 487 804"
    width="487px" zoomAndPan="magnify"><defs><filter height="300%" id="fl8r1fr4oyarb" width="300%" x="-1" y="-1"><feGaussianBlur result="blurOut" stdDeviation="2.0"/><feColorMatrix in="blurOut" result="blurOut2" type="matrix" values="0 0 0 0 0 0 0 0 0 0 0 0 0 0 0 0 0 0 .4 0"/><feOffset dx="4.0" dy="4.0" in="blurOut2" result="blurOut3"/><feBlend in="SourceGraphic" in2="blurOut3" mode="normal"/></filter></defs><g><rect fill="#FFFFFF" filter="url(#fl8r1fr4oyarb)" height="510.0933" style="stroke: #A80036; stroke-width: 1.0;" width="10" x="278.5" y="153.8745"/><rect fill="#FFFFFF" filter="url(#fl8r1fr4oyarb)" height="210.3037" style="stroke: #000000; stroke-width: 2.0;" width="432.5" x="13" y="360.1553"/><line style="stroke: #A80036; stroke-width: 1.0; stroke-dasharray: 5.0,5.0;" x1="40" x2="40" y1="89.1201" y2="714.4766"/><line style="stroke: #A80036; stroke-width: 1.0; stroke-dasharray: 5.0,5.0;" x1="167.5" x2="167.5" y1="89.1201" y2="714.4766"/><line style="stroke: #A80036; stroke-width: 1.0; stroke-dasharray: 5.0,5.0;" x1="283.5" x2="283.5" y1="89.1201" y2="714.4766"/><line style="stroke: #A80036; stroke-width: 1.0; stroke-dasharray: 5.0,5.0;" x1="401.5" x2="401.5" y1="89.1201" y2="714.4766"/><line style="stroke: #A80036; stroke-width: 1.0; stroke-dasharray: 5.0,5.0;" x1="462.5" x2="462.5" y1="89.1201" y2="714.4766"/><text fill="#000000" font-family="sans-serif" font-size="14" lengthAdjust="spacingAndGlyphs" textLength="28" x="23" y="86.0439">user</text><ellipse cx="40" cy="13" fill="#FEFECE" filter="url(#fl8r1fr4oyarb)" rx="8" ry="8" style="stroke: #A80036; stroke-width: 2.0;"/><path d="M40,21 L40,48 M27,29 L53,29 M40,48 L27,63 M40,48 L53,63 " fill="none" filter="url(#fl8r1fr4oyarb)" style="stroke: #A80036; stroke-width: 2.0;"/><text fill="#000000" font-family="sans-serif" font-size="14" lengthAdjust="spacingAndGlyphs" textLength="28" x="23" y="729.5205">user</text><ellipse cx="40" cy="742.5967" fill="#FEFECE" filter="url(#fl8r1fr4oyarb)" rx="8" ry="8" style="stroke: #A80036; stroke-width: 2.0;"/><path d="M40,750.5967 L40,777.5967 M27,758.5967 L53,758.5967 M40,777.5967 L27,792.5967 M40,777.5967 L53,792.5967 " fill="none" filter="url(#fl8r1fr4oyarb)" style="stroke: #A80036; stroke-width: 2.0;"/><text fill="#000000" font-family="sans-serif" font-size="14" lengthAdjust="spacingAndGlyphs" textLength="55" x="137.5" y="86.0439">interface</text><path d="M147.5,42 L147.5,66 M147.5,54 L164.5,54 " fill="none" filter="url(#fl8r1fr4oyarb)" style="stroke: #A80036; stroke-width: 2.0;"/><ellipse cx="176.5" cy="54" fill="#FEFECE" filter="url(#fl8r1fr4oyarb)" rx="12" ry="12" style="stroke: #A80036; stroke-width: 2.0;"/><text fill="#000000" font-family="sans-serif" font-size="14" lengthAdjust="spacingAndGlyphs" textLength="55" x="137.5" y="729.5205">interface</text><path d="M147.5,736.5967 L147.5,760.5967 M147.5,748.5967 L164.5,748.5967 " fill="none" filter="url(#fl8r1fr4oyarb)" style="stroke: #A80036; stroke-width: 2.0;"/><ellipse cx="176.5" cy="748.5967" fill="#FEFECE" filter="url(#fl8r1fr4oyarb)" rx="12" ry="12" style="stroke: #A80036; stroke-width: 2.0;"/><text fill="#000000" font-family="sans-serif" font-size="14" lengthAdjust="spacingAndGlyphs" textLength="144" x="208.5" y="86.0439">userInformationControl</text><ellipse cx="283.5" cy="54" fill="#FEFECE" filter="url(#fl8r1fr4oyarb)" rx="12" ry="12" style="stroke: #A80036; stroke-width: 2.0;"/><polygon fill="#A80036" points="279.5,42,285.5,37,283.5,42,285.5,47,279.5,42" style="stroke: #A80036; stroke-width: 1.0;"/><text fill="#000000" font-family="sans-serif" font-size="14" lengthAdjust="spacingAndGlyphs" textLength="144" x="208.5" y="729.5205">userInformationControl</text><ellipse cx="283.5" cy="748.5967" fill="#FEFECE" filter="url(#fl8r1fr4oyarb)" rx="12" ry="12" style="stroke: #A80036; stroke-width: 2.0;"/><polygon fill="#A80036" points="279.5,736.5967,285.5,731.5967,283.5,736.5967,285.5,741.5967,279.5,736.5967" style="stroke: #A80036; stroke-width: 1.0;"/><text fill="#000000" font-family="sans-serif" font-size="14" lengthAdjust="spacingAndGlyphs" textLength="61" x="368.5" y="86.0439">Database</text><path d="M384,34 C384,24 402,24 402,24 C402,24 420,24 420,34 L420,60 C420,70 402,70 402,70 C402,70 384,70 384,60 L384,34 " fill="#FEFECE" filter="url(#fl8r1fr4oyarb)" style="stroke: #000000; stroke-width: 1.5;"/><path d="M384,34 C384,44 402,44 402,44 C402,44 420,44 420,34 " fill="none" style="stroke: #000000; stroke-width: 1.5;"/><text fill="#000000" font-family="sans-serif" font-size="14" lengthAdjust="spacingAndGlyphs" textLength="61" x="368.5" y="729.5205">Database</text><path d="M384,742.5967 C384,732.5967 402,732.5967 402,732.5967 C402,732.5967 420,732.5967 420,742.5967 L420,768.5967 C420,778.5967 402,778.5967 402,778.5967 C402,778.5967 384,778.5967 384,768.5967 L384,742.5967 " fill="#FEFECE" filter="url(#fl8r1fr4oyarb)" style="stroke: #000000; stroke-width: 1.5;"/><path d="M384,742.5967 C384,752.5967 402,752.5967 402,752.5967 C402,752.5967 420,752.5967 420,742.5967 " fill="none" style="stroke: #000000; stroke-width: 1.5;"/><text fill="#000000" font-family="sans-serif" font-size="14" lengthAdjust="spacingAndGlyphs" textLength="29" x="445.5" y="86.0439">User</text><ellipse cx="463" cy="54" fill="#FEFECE" filter="url(#fl8r1fr4oyarb)" rx="12" ry="12" style="stroke: #A80036; stroke-width: 2.0;"/><line style="stroke: #A80036; stroke-width: 2.0;" x1="451" x2="475" y1="68" y2="68"/><text fill="#000000" font-family="sans-serif" font-size="14" lengthAdjust="spacingAndGlyphs" textLength="29" x="445.5" y="729.5205">User</text><ellipse cx="463" cy="748.5967" fill="#FEFECE" filter="url(#fl8r1fr4oyarb)" rx="12" ry="12" style="stroke: #A80036; stroke-width: 2.0;"/><line style="stroke: #A80036; stroke-width: 2.0;" x1="451" x2="475" y1="762.5967" y2="762.5967"/><rect fill="#FFFFFF" filter="url(#fl8r1fr4oyarb)" height="510.0933" style="stroke: #A80036; stroke-width: 1.0;" width="10" x="278.5" y="153.8745"/><polygon fill="#A80036" points="156,118.1201,166,122.1201,156,126.1201,160,122.1201" style="stroke: #A80036; stroke-width: 1.0;"/><line style="stroke: #A80036; stroke-width: 1.0;" x1="40" x2="162" y1="122.1201" y2="122.1201"/><text fill="#000000" font-family="sans-serif" font-size="13" lengthAdjust="spacingAndGlyphs" textLength="48" x="47" y="118.0181">Register</text><polygon fill="#A80036" points="266.5,149.8745,276.5,153.8745,266.5,157.8745,270.5,153.8745" style="stroke: #A80036; stroke-width: 1.0;"/><line style="stroke: #A80036; stroke-width: 1.0;" x1="168" x2="272.5" y1="153.8745" y2="153.8745"/><text fill="#000000" font-family="sans-serif" font-size="13" lengthAdjust="spacingAndGlyphs" textLength="48" x="175" y="149.7725">Register</text><polygon fill="#A80036" points="179,181.6289,169,185.6289,179,189.6289,175,185.6289" style="stroke: #A80036; stroke-width: 1.0;"/><line style="stroke: #A80036; stroke-width: 1.0;" x1="173" x2="277.5" y1="185.6289" y2="185.6289"/><text fill="#000000" font-family="sans-serif" font-size="13" lengthAdjust="spacingAndGlyphs" textLength="17" x="185" y="181.5269">list</text><polygon fill="#A80036" points="51,213.3833,41,217.3833,51,221.3833,47,217.3833" style="stroke: #A80036; stroke-width: 1.0;"/><line style="stroke: #A80036; stroke-width: 1.0;" x1="45" x2="167" y1="217.3833" y2="217.3833"/><text fill="#000000" font-family="sans-serif" font-size="13" lengthAdjust="spacingAndGlyphs" textLength="61" x="57" y="213.2813">unfilled list</text><polygon fill="#A80036" points="156,245.1377,166,249.1377,156,253.1377,160,249.1377" style="stroke: #A80036; stroke-width: 1.0;"/><line style="stroke: #A80036; stroke-width: 1.0;" x1="40" x2="162" y1="249.1377" y2="249.1377"/><text fill="#000000" font-family="sans-serif" font-size="13" lengthAdjust="spacingAndGlyphs" textLength="55" x="47" y="245.0356">fill the list</text><polygon fill="#A80036" points="266.5,276.8921,276.5,280.8921,266.5,284.8921,270.5,280.8921" style="stroke: #A80036; stroke-width: 1.0;"/><line style="stroke: #A80036; stroke-width: 1.0;" x1="168" x2="272.5" y1="280.8921" y2="280.8921"/><text fill="#000000" font-family="sans-serif" font-size="13" lengthAdjust="spacingAndGlyphs" textLength="47" x="175" y="276.79">filled list</text><polygon fill="#A80036" points="390,308.6465,400,312.6465,390,316.6465,394,312.6465" style="stroke: #A80036; stroke-width: 1.0;"/><line style="stroke: #A80036; stroke-width: 1.0;" x1="288.5" x2="396" y1="312.6465" y2="312.6465"/><text fill="#000000" font-family="sans-serif" font-size="13" lengthAdjust="spacingAndGlyphs" textLength="35" x="295.5" y="308.5444">check</text><polygon fill="#A80036" points="299.5,340.4009,289.5,344.4009,299.5,348.4009,295.5,344.4009" style="stroke: #A80036; stroke-width: 1.0;"/><line style="stroke: #A80036; stroke-width: 1.0;" x1="293.5" x2="401" y1="344.4009" y2="344.4009"/><text fill="#000000" font-family="sans-serif" font-size="13" lengthAdjust="spacingAndGlyphs" textLength="71" x="305.5" y="340.2988">check result</text><path d="M13,360.1553 L86,360.1553 L86,369.1553 L76,379.1553 L13,379.1553 L13,360.1553 " fill="#EEEEEE" style="stroke: #000000; stroke-width: 1.0;"/><rect fill="none" height="210.3037" style="stroke: #000000; stroke-width: 2.0;" width="432.5" x="13" y="360.1553"/><text fill="#000000" font-family="sans-serif" font-size="13" font-weight="bold" lengthAdjust="spacingAndGlyphs" textLength="28" x="28" y="376.0532">loop</text><text fill="#000000" font-family="sans-serif" font-size="11" font-weight="bold" lengthAdjust="spacingAndGlyphs" textLength="43" x="101" y="374.7612">[invalid]</text><polygon fill="#A80036" points="179,398.9326,169,402.9326,179,406.9326,175,402.9326" style="stroke: #A80036; stroke-width: 1.0;"/><line style="stroke: #A80036; stroke-width: 1.0;" x1="173" x2="277.5" y1="402.9326" y2="402.9326"/><text fill="#000000" font-family="sans-serif" font-size="13" lengthAdjust="spacingAndGlyphs" textLength="35" x="185" y="398.8306">invalid</text><polygon fill="#A80036" points="51,430.687,41,434.687,51,438.687,47,434.687" style="stroke: #A80036; stroke-width: 1.0;"/><line style="stroke: #A80036; stroke-width: 1.0;" x1="45" x2="167" y1="434.687" y2="434.687"/><text fill="#000000" font-family="sans-serif" font-size="13" lengthAdjust="spacingAndGlyphs" textLength="35" x="57" y="430.585">invalid</text><polygon fill="#A80036" points="156,462.4414,166,466.4414,156,470.4414,160,466.4414" style="stroke: #A80036; stroke-width: 1.0;"/><line style="stroke: #A80036; stroke-width: 1.0;" x1="40" x2="162" y1="466.4414" y2="466.4414"/><text fill="#000000" font-family="sans-serif" font-size="13" lengthAdjust="spacingAndGlyphs" textLength="55" x="47" y="462.3394">fill the list</text><polygon fill="#A80036" points="266.5,494.1958,276.5,498.1958,266.5,502.1958,270.5,498.1958" style="stroke: #A80036; stroke-width: 1.0;"/><line style="stroke: #A80036; stroke-width: 1.0;" x1="168" x2="272.5" y1="498.1958" y2="498.1958"/><text fill="#000000" font-family="sans-serif" font-size="13" lengthAdjust="spacingAndGlyphs" textLength="47" x="175" y="494.0938">filled list</text><polygon fill="#A80036" points="390,525.9502,400,529.9502,390,533.9502,394,529.9502" style="stroke: #A80036; stroke-width: 1.0;"/><line style="stroke: #A80036; stroke-width: 1.0;" x1="288.5" x2="396" y1="529.9502" y2="529.9502"/><text fill="#000000" font-family="sans-serif" font-size="13" lengthAdjust="spacingAndGlyphs" textLength="35" x="295.5" y="525.8481">check</text><polygon fill="#A80036" points="299.5,557.7046,289.5,561.7046,299.5,565.7046,295.5,561.7046" style="stroke: #A80036; stroke-width: 1.0;"/><line style="stroke: #A80036; stroke-width: 1.0;" x1="293.5" x2="401" y1="561.7046" y2="561.7046"/><text fill="#000000" font-family="sans-serif" font-size="13" lengthAdjust="spacingAndGlyphs" textLength="71" x="305.5" y="557.6025">check result</text><polygon fill="#A80036" points="390,596.459,400,600.459,390,604.459,394,600.459" style="stroke: #A80036; stroke-width: 1.0;"/><line style="stroke: #A80036; stroke-width: 1.0;" x1="288.5" x2="396" y1="600.459" y2="600.459"/><text fill="#000000" font-family="sans-serif" font-size="13" lengthAdjust="spacingAndGlyphs" textLength="27" x="295.5" y="596.3569">write</text><polygon fill="#A80036" points="451,628.2134,461,632.2134,451,636.2134,455,632.2134" style="stroke: #A80036; stroke-width: 1.0;"/><line style="stroke: #A80036; stroke-width: 1.0;" x1="402" x2="457" y1="632.2134" y2="632.2134"/><text fill="#000000" font-family="sans-serif" font-size="13" lengthAdjust="spacingAndGlyphs" textLength="36" x="409" y="628.1113">create</text><polygon fill="#A80036" points="179,659.9678,169,663.9678,179,667.9678,175,663.9678" style="stroke: #A80036; stroke-width: 1.0;"/><line style="stroke: #A80036; stroke-width: 1.0;" x1="173" x2="282.5" y1="663.9678" y2="663.9678"/><text fill="#000000" font-family="sans-serif" font-size="13" lengthAdjust="spacingAndGlyphs" textLength="49" x="185" y="659.8657">success</text><polygon fill="#A80036" points="51,691.7222,41,695.7222,51,699.7222,47,695.7222" style="stroke: #A80036; stroke-width: 1.0;"/><line style="stroke: #A80036; stroke-width: 1.0;" x1="45" x2="167" y1="695.7222" y2="695.7222"/><text fill="#000000" font-family="sans-serif" font-size="13" lengthAdjust="spacingAndGlyphs" textLength="104" x="57" y="691.6201">ManageLocalVSS</text><!--
@startuml
actor user
boundary interface
control userInformationControl
database Database
entity User

user -> interface: Register
interface -> userInformationControl: Register
activate userInformationControl
userInformationControl -> interface: list
interface -> user: unfilled list
user -> interface: fill the list
interface -> userInformationControl: filled list
userInformationControl -> Database: check
Database -> userInformationControl: check result

loop invalid
    userInformationControl -> interface: invalid
    interface -> user: invalid
    user -> interface: fill the list
    interface -> userInformationControl: filled list
    userInformationControl -> Database: check
    Database -> userInformationControl: check result
end

userInformationControl -> Database: write
Database -> User: create
userInformationControl -> interface: success
deactivate userInformationControl
interface -> user: ManageLocalVSS
@enduml

PlantUML version 1.2018.01(Mon Jan 29 02:08:22 CST 2018)
(GPL source distribution)
Java Runtime: Java(TM) SE Runtime Environment
JVM: Java HotSpot(TM) Client VM
Java Version: 1.8.0_144-b01
Operating System: Windows 10
OS Version: 10.0
Default Encoding: GBK
Language: zh
Country: CN
--></g></svg>