<?xml version="1.0" encoding="UTF-8" standalone="no"?><svg xmlns="http://www.w3.org/2000/svg" xmlns:xlink="http://www.w3.org/1999/xlink" contentScriptType="application/ecmascript" contentStyleType="text/css" height="390px" preserveAspectRatio="none" style="width:595px;height:390px;" version="1.1" viewBox="0 0 595 390"
    width="595px" zoomAndPan="magnify"><defs><filter height="300%" id="f8467b6gmrs5m" width="300%" x="-1" y="-1"><feGaussianBlur result="blurOut" stdDeviation="2.0"/><feColorMatrix in="blurOut" result="blurOut2" type="matrix" values="0 0 0 0 0 0 0 0 0 0 0 0 0 0 0 0 0 0 .4 0"/><feOffset dx="4.0" dy="4.0" in="blurOut2" result="blurOut3"/><feBlend in="SourceGraphic" in2="blurOut3" mode="normal"/></filter></defs><g><rect fill="#FFFFFF" filter="url(#f8467b6gmrs5m)" height="129.0405" style="stroke: #A80036; stroke-width: 1.0;" width="10" x="37.5" y="99.1201"/><rect fill="#FFFFFF" filter="url(#f8467b6gmrs5m)" height="129.0405" style="stroke: #A80036; stroke-width: 1.0;" width="10" x="154.5" y="99.1201"/><rect fill="#FFFFFF" filter="url(#f8467b6gmrs5m)" height="159.0405" style="stroke: #A80036; stroke-width: 1.0;" width="10" x="325" y="122.1201"/><rect fill="#FFFFFF" filter="url(#f8467b6gmrs5m)" height="30" style="stroke: #A80036; stroke-width: 1.0;" width="10" x="500" y="251.1606"/><rect fill="#FFFFFF" filter="url(#f8467b6gmrs5m)" height="51.5317" style="stroke: #000000; stroke-width: 2.0;" width="236.5" x="13" y="169.6289"/><line style="stroke: #A80036; stroke-width: 1.0; stroke-dasharray: 5.0,5.0;" x1="42" x2="42" y1="89.1201" y2="299.915"/><line style="stroke: #A80036; stroke-width: 1.0; stroke-dasharray: 5.0,5.0;" x1="159.5" x2="159.5" y1="89.1201" y2="299.915"/><line style="stroke: #A80036; stroke-width: 1.0; stroke-dasharray: 5.0,5.0;" x1="329.5" x2="329.5" y1="89.1201" y2="299.915"/><line style="stroke: #A80036; stroke-width: 1.0; stroke-dasharray: 5.0,5.0;" x1="504.5" x2="504.5" y1="89.1201" y2="299.915"/><text fill="#000000" font-family="sans-serif" font-size="14" lengthAdjust="spacingAndGlyphs" textLength="4" x="23" y="86.0439">:</text><text fill="#000000" font-family="sans-serif" font-size="14" lengthAdjust="spacingAndGlyphs" text-decoration="underline" textLength="29" x="27" y="86.0439">User</text><line style="stroke: #000000; stroke-width: 1.0;" x1="27" x2="56" y1="88.0439" y2="88.0439"/><ellipse cx="42.5" cy="13" fill="#FEFECE" filter="url(#f8467b6gmrs5m)" rx="8" ry="8" style="stroke: #A80036; stroke-width: 2.0;"/><path d="M42.5,21 L42.5,48 M29.5,29 L55.5,29 M42.5,48 L29.5,63 M42.5,48 L55.5,63 " fill="none" filter="url(#f8467b6gmrs5m)" style="stroke: #A80036; stroke-width: 2.0;"/><text fill="#000000" font-family="sans-serif" font-size="14" lengthAdjust="spacingAndGlyphs" textLength="4" x="23" y="314.959">:</text><text fill="#000000" font-family="sans-serif" font-size="14" lengthAdjust="spacingAndGlyphs" text-decoration="underline" textLength="29" x="27" y="314.959">User</text><line style="stroke: #000000; stroke-width: 1.0;" x1="27" x2="56" y1="316.959" y2="316.959"/><ellipse cx="42.5" cy="328.0352" fill="#FEFECE" filter="url(#f8467b6gmrs5m)" rx="8" ry="8" style="stroke: #A80036; stroke-width: 2.0;"/><path d="M42.5,336.0352 L42.5,363.0352 M29.5,344.0352 L55.5,344.0352 M42.5,363.0352 L29.5,378.0352 M42.5,363.0352 L55.5,378.0352 " fill="none" filter="url(#f8467b6gmrs5m)" style="stroke: #A80036; stroke-width: 2.0;"/><text fill="#000000" font-family="sans-serif" font-size="14" lengthAdjust="spacingAndGlyphs" textLength="4" x="79.5" y="86.0439">:</text><text fill="#000000" font-family="sans-serif" font-size="14" lengthAdjust="spacingAndGlyphs" text-decoration="underline" textLength="150" x="83.5" y="86.0439">LocalVSSManagerPage</text><line style="stroke: #000000; stroke-width: 1.0;" x1="83.5" x2="233.5" y1="88.0439" y2="88.0439"/><path d="M139,42 L139,66 M139,54 L156,54 " fill="none" filter="url(#f8467b6gmrs5m)" style="stroke: #A80036; stroke-width: 2.0;"/><ellipse cx="168" cy="54" fill="#FEFECE" filter="url(#f8467b6gmrs5m)" rx="12" ry="12" style="stroke: #A80036; stroke-width: 2.0;"/><text fill="#000000" font-family="sans-serif" font-size="14" lengthAdjust="spacingAndGlyphs" textLength="4" x="79.5" y="314.959">:</text><text fill="#000000" font-family="sans-serif" font-size="14" lengthAdjust="spacingAndGlyphs" text-decoration="underline" textLength="150" x="83.5" y="314.959">LocalVSSManagerPage</text><line style="stroke: #000000; stroke-width: 1.0;" x1="83.5" x2="233.5" y1="316.959" y2="316.959"/><path d="M139,322.0352 L139,346.0352 M139,334.0352 L156,334.0352 " fill="none" filter="url(#f8467b6gmrs5m)" style="stroke: #A80036; stroke-width: 2.0;"/><ellipse cx="168" cy="334.0352" fill="#FEFECE" filter="url(#f8467b6gmrs5m)" rx="12" ry="12" style="stroke: #A80036; stroke-width: 2.0;"/><text fill="#000000" font-family="sans-serif" font-size="14" lengthAdjust="spacingAndGlyphs" textLength="4" x="249.5" y="86.0439">:</text><text fill="#000000" font-family="sans-serif" font-size="14" lengthAdjust="spacingAndGlyphs" text-decoration="underline" textLength="151" x="253.5" y="86.0439">LocalVSSLibraryControl</text><line style="stroke: #000000; stroke-width: 1.0;" x1="253.5" x2="404.5" y1="88.0439" y2="88.0439"/><ellipse cx="330" cy="54" fill="#FEFECE" filter="url(#f8467b6gmrs5m)" rx="12" ry="12" style="stroke: #A80036; stroke-width: 2.0;"/><polygon fill="#A80036" points="326,42,332,37,330,42,332,47,326,42" style="stroke: #A80036; stroke-width: 1.0;"/><text fill="#000000" font-family="sans-serif" font-size="14" lengthAdjust="spacingAndGlyphs" textLength="4" x="249.5" y="314.959">:</text><text fill="#000000" font-family="sans-serif" font-size="14" lengthAdjust="spacingAndGlyphs" text-decoration="underline" textLength="151" x="253.5" y="314.959">LocalVSSLibraryControl</text><line style="stroke: #000000; stroke-width: 1.0;" x1="253.5" x2="404.5" y1="316.959" y2="316.959"/><ellipse cx="330" cy="334.0352" fill="#FEFECE" filter="url(#f8467b6gmrs5m)" rx="12" ry="12" style="stroke: #A80036; stroke-width: 2.0;"/><polygon fill="#A80036" points="326,322.0352,332,317.0352,330,322.0352,332,327.0352,326,322.0352" style="stroke: #A80036; stroke-width: 1.0;"/><text fill="#000000" font-family="sans-serif" font-size="14" lengthAdjust="spacingAndGlyphs" textLength="4" x="420.5" y="86.0439">:</text><text fill="#000000" font-family="sans-serif" font-size="14" lengthAdjust="spacingAndGlyphs" text-decoration="underline" textLength="159" x="424.5" y="86.0439">LocalSoundSpaceLibrary</text><line style="stroke: #000000; stroke-width: 1.0;" x1="424.5" x2="583.5" y1="88.0439" y2="88.0439"/><ellipse cx="505" cy="54" fill="#FEFECE" filter="url(#f8467b6gmrs5m)" rx="12" ry="12" style="stroke: #A80036; stroke-width: 2.0;"/><line style="stroke: #A80036; stroke-width: 2.0;" x1="493" x2="517" y1="68" y2="68"/><text fill="#000000" font-family="sans-serif" font-size="14" lengthAdjust="spacingAndGlyphs" textLength="4" x="420.5" y="314.959">:</text><text fill="#000000" font-family="sans-serif" font-size="14" lengthAdjust="spacingAndGlyphs" text-decoration="underline" textLength="159" x="424.5" y="314.959">LocalSoundSpaceLibrary</text><line style="stroke: #000000; stroke-width: 1.0;" x1="424.5" x2="583.5" y1="316.959" y2="316.959"/><ellipse cx="505" cy="334.0352" fill="#FEFECE" filter="url(#f8467b6gmrs5m)" rx="12" ry="12" style="stroke: #A80036; stroke-width: 2.0;"/><line style="stroke: #A80036; stroke-width: 2.0;" x1="493" x2="517" y1="348.0352" y2="348.0352"/><rect fill="#FFFFFF" filter="url(#f8467b6gmrs5m)" height="129.0405" style="stroke: #A80036; stroke-width: 1.0;" width="10" x="37.5" y="99.1201"/><rect fill="#FFFFFF" filter="url(#f8467b6gmrs5m)" height="129.0405" style="stroke: #A80036; stroke-width: 1.0;" width="10" x="154.5" y="99.1201"/><rect fill="#FFFFFF" filter="url(#f8467b6gmrs5m)" height="159.0405" style="stroke: #A80036; stroke-width: 1.0;" width="10" x="325" y="122.1201"/><rect fill="#FFFFFF" filter="url(#f8467b6gmrs5m)" height="30" style="stroke: #A80036; stroke-width: 1.0;" width="10" x="500" y="251.1606"/><polygon fill="#A80036" points="313,118.1201,323,122.1201,313,126.1201,317,122.1201" style="stroke: #A80036; stroke-width: 1.0;"/><line style="stroke: #A80036; stroke-width: 1.0;" x1="164.5" x2="319" y1="122.1201" y2="122.1201"/><text fill="#000000" font-family="sans-serif" font-size="13" lengthAdjust="spacingAndGlyphs" textLength="68" x="171.5" y="118.0181">&lt;&lt;create&gt;&gt;</text><polygon fill="#A80036" points="142.5,149.8745,152.5,153.8745,142.5,157.8745,146.5,153.8745" style="stroke: #A80036; stroke-width: 1.0;"/><line style="stroke: #A80036; stroke-width: 1.0;" x1="47.5" x2="148.5" y1="153.8745" y2="153.8745"/><text fill="#000000" font-family="sans-serif" font-size="13" lengthAdjust="spacingAndGlyphs" textLength="83" x="54.5" y="149.7725">RenameVSS()</text><path d="M13,169.6289 L86,169.6289 L86,178.6289 L76,188.6289 L13,188.6289 L13,169.6289 " fill="#EEEEEE" style="stroke: #000000; stroke-width: 1.0;"/><rect fill="none" height="51.5317" style="stroke: #000000; stroke-width: 2.0;" width="236.5" x="13" y="169.6289"/><text fill="#000000" font-family="sans-serif" font-size="13" font-weight="bold" lengthAdjust="spacingAndGlyphs" textLength="28" x="28" y="185.5269">loop</text><text fill="#000000" font-family="sans-serif" font-size="11" font-weight="bold" lengthAdjust="spacingAndGlyphs" textLength="43" x="101" y="184.2349">[invalid]</text><polygon fill="#A80036" points="142.5,208.4063,152.5,212.4063,142.5,216.4063,146.5,212.4063" style="stroke: #A80036; stroke-width: 1.0;"/><line style="stroke: #A80036; stroke-width: 1.0;" x1="47.5" x2="148.5" y1="212.4063" y2="212.4063"/><text fill="#000000" font-family="sans-serif" font-size="13" lengthAdjust="spacingAndGlyphs" textLength="83" x="54.5" y="208.3042">RenameVSS()</text><polygon fill="#A80036" points="488,247.1606,498,251.1606,488,255.1606,492,251.1606" style="stroke: #A80036; stroke-width: 1.0;"/><line style="stroke: #A80036; stroke-width: 1.0;" x1="335" x2="494" y1="251.1606" y2="251.1606"/><text fill="#000000" font-family="sans-serif" font-size="13" lengthAdjust="spacingAndGlyphs" textLength="75" x="342" y="247.0586">RenameVSS</text><!--
@startuml
actor ":__User__" as User
boundary ":__LocalVSSManagerPage__" as LocalVSSManagerPage
control ":__LocalVSSLibraryControl__" as LocalVSSLibraryControl
entity ":__LocalSoundSpaceLibrary__" as LocalSoundSpaceLibrary

activate User
activate LocalVSSManagerPage
LocalVSSManagerPage -> LocalVSSLibraryControl: <<create>>
activate LocalVSSLibraryControl
User -> LocalVSSManagerPage: RenameVSS()
loop invalid
    User -> LocalVSSManagerPage: RenameVSS()
end
deactivate User
deactivate LocalVSSManagerPage
LocalVSSLibraryControl -> LocalSoundSpaceLibrary: RenameVSS
activate LocalSoundSpaceLibrary
deactivate LocalSoundSpaceLibrary
deactivate LocalVSSLibraryControl
@enduml

PlantUML version 1.2018.01(Mon Jan 29 02:08:22 CST 2018)
(GPL source distribution)
Java Runtime: Java(TM) SE Runtime Environment
JVM: Java HotSpot(TM) Client VM
Java Version: 1.8.0_144-b01
Operating System: Windows 10
OS Version: 10.0
Default Encoding: GBK
Language: zh
Country: CN
--></g></svg>