<?xml version="1.0" encoding="UTF-8" standalone="no"?><svg xmlns="http://www.w3.org/2000/svg" xmlns:xlink="http://www.w3.org/1999/xlink" contentScriptType="application/ecmascript" contentStyleType="text/css" height="760px" preserveAspectRatio="none" style="width:545px;height:760px;" version="1.1" viewBox="0 0 545 760"
    width="545px" zoomAndPan="magnify"><defs><filter height="300%" id="f1jd9x745mis0w" width="300%" x="-1" y="-1"><feGaussianBlur result="blurOut" stdDeviation="2.0"/><feColorMatrix in="blurOut" result="blurOut2" type="matrix" values="0 0 0 0 0 0 0 0 0 0 0 0 0 0 0 0 0 0 .4 0"/><feOffset dx="4.0" dy="4.0" in="blurOut2" result="blurOut3"/><feBlend in="SourceGraphic" in2="blurOut3" mode="normal"/></filter></defs><g><rect fill="#FFFFFF" filter="url(#f1jd9x745mis0w)" height="261.104" style="stroke: #000000; stroke-width: 2.0;" width="521.5" x="13" y="328.4009"/><rect fill="#FFFFFF" filter="url(#f1jd9x745mis0w)" height="227.3267" style="stroke: #000000; stroke-width: 2.0;" width="501.5" x="23" y="355.1782"/><rect fill="#FFFFFF" height="48.7773" style="stroke: none; stroke-width: 1.0;" width="501.5" x="23" y="533.7275"/><line style="stroke: #A80036; stroke-width: 1.0; stroke-dasharray: 5.0,5.0;" x1="50" x2="50" y1="89.1201" y2="670.0137"/><line style="stroke: #A80036; stroke-width: 1.0; stroke-dasharray: 5.0,5.0;" x1="177.5" x2="177.5" y1="89.1201" y2="670.0137"/><line style="stroke: #A80036; stroke-width: 1.0; stroke-dasharray: 5.0,5.0;" x1="280.5" x2="280.5" y1="89.1201" y2="670.0137"/><line style="stroke: #A80036; stroke-width: 1.0; stroke-dasharray: 5.0,5.0;" x1="379.5" x2="379.5" y1="89.1201" y2="670.0137"/><line style="stroke: #A80036; stroke-width: 1.0; stroke-dasharray: 5.0,5.0;" x1="474.5" x2="474.5" y1="89.1201" y2="670.0137"/><text fill="#000000" font-family="sans-serif" font-size="14" lengthAdjust="spacingAndGlyphs" textLength="28" x="33" y="86.0439">user</text><ellipse cx="50" cy="13" fill="#FEFECE" filter="url(#f1jd9x745mis0w)" rx="8" ry="8" style="stroke: #A80036; stroke-width: 2.0;"/><path d="M50,21 L50,48 M37,29 L63,29 M50,48 L37,63 M50,48 L63,63 " fill="none" filter="url(#f1jd9x745mis0w)" style="stroke: #A80036; stroke-width: 2.0;"/><text fill="#000000" font-family="sans-serif" font-size="14" lengthAdjust="spacingAndGlyphs" textLength="28" x="33" y="685.0576">user</text><ellipse cx="50" cy="698.1338" fill="#FEFECE" filter="url(#f1jd9x745mis0w)" rx="8" ry="8" style="stroke: #A80036; stroke-width: 2.0;"/><path d="M50,706.1338 L50,733.1338 M37,714.1338 L63,714.1338 M50,733.1338 L37,748.1338 M50,733.1338 L63,748.1338 " fill="none" filter="url(#f1jd9x745mis0w)" style="stroke: #A80036; stroke-width: 2.0;"/><text fill="#000000" font-family="sans-serif" font-size="14" lengthAdjust="spacingAndGlyphs" textLength="55" x="147.5" y="86.0439">interface</text><path d="M157.5,42 L157.5,66 M157.5,54 L174.5,54 " fill="none" filter="url(#f1jd9x745mis0w)" style="stroke: #A80036; stroke-width: 2.0;"/><ellipse cx="186.5" cy="54" fill="#FEFECE" filter="url(#f1jd9x745mis0w)" rx="12" ry="12" style="stroke: #A80036; stroke-width: 2.0;"/><text fill="#000000" font-family="sans-serif" font-size="14" lengthAdjust="spacingAndGlyphs" textLength="55" x="147.5" y="685.0576">interface</text><path d="M157.5,692.1338 L157.5,716.1338 M157.5,704.1338 L174.5,704.1338 " fill="none" filter="url(#f1jd9x745mis0w)" style="stroke: #A80036; stroke-width: 2.0;"/><ellipse cx="186.5" cy="704.1338" fill="#FEFECE" filter="url(#f1jd9x745mis0w)" rx="12" ry="12" style="stroke: #A80036; stroke-width: 2.0;"/><text fill="#000000" font-family="sans-serif" font-size="14" lengthAdjust="spacingAndGlyphs" textLength="118" x="218.5" y="86.0439">vssManageControl</text><ellipse cx="280.5" cy="54" fill="#FEFECE" filter="url(#f1jd9x745mis0w)" rx="12" ry="12" style="stroke: #A80036; stroke-width: 2.0;"/><polygon fill="#A80036" points="276.5,42,282.5,37,280.5,42,282.5,47,276.5,42" style="stroke: #A80036; stroke-width: 1.0;"/><text fill="#000000" font-family="sans-serif" font-size="14" lengthAdjust="spacingAndGlyphs" textLength="118" x="218.5" y="685.0576">vssManageControl</text><ellipse cx="280.5" cy="704.1338" fill="#FEFECE" filter="url(#f1jd9x745mis0w)" rx="12" ry="12" style="stroke: #A80036; stroke-width: 2.0;"/><polygon fill="#A80036" points="276.5,692.1338,282.5,687.1338,280.5,692.1338,282.5,697.1338,276.5,692.1338" style="stroke: #A80036; stroke-width: 1.0;"/><text fill="#000000" font-family="sans-serif" font-size="14" lengthAdjust="spacingAndGlyphs" textLength="48" x="352.5" y="86.0439">storage</text><path d="M361.5,34 C361.5,24 379.5,24 379.5,24 C379.5,24 397.5,24 397.5,34 L397.5,60 C397.5,70 379.5,70 379.5,70 C379.5,70 361.5,70 361.5,60 L361.5,34 " fill="#FEFECE" filter="url(#f1jd9x745mis0w)" style="stroke: #000000; stroke-width: 1.5;"/><path d="M361.5,34 C361.5,44 379.5,44 379.5,44 C379.5,44 397.5,44 397.5,34 " fill="none" style="stroke: #000000; stroke-width: 1.5;"/><text fill="#000000" font-family="sans-serif" font-size="14" lengthAdjust="spacingAndGlyphs" textLength="48" x="352.5" y="685.0576">storage</text><path d="M361.5,698.1338 C361.5,688.1338 379.5,688.1338 379.5,688.1338 C379.5,688.1338 397.5,688.1338 397.5,698.1338 L397.5,724.1338 C397.5,734.1338 379.5,734.1338 379.5,734.1338 C379.5,734.1338 361.5,734.1338 361.5,724.1338 L361.5,698.1338 " fill="#FEFECE" filter="url(#f1jd9x745mis0w)" style="stroke: #000000; stroke-width: 1.5;"/><path d="M361.5,698.1338 C361.5,708.1338 379.5,708.1338 379.5,708.1338 C379.5,708.1338 397.5,708.1338 397.5,698.1338 " fill="none" style="stroke: #000000; stroke-width: 1.5;"/><text fill="#000000" font-family="sans-serif" font-size="14" lengthAdjust="spacingAndGlyphs" textLength="74" x="434.5" y="86.0439">savedAudio</text><ellipse cx="474.5" cy="54" fill="#FEFECE" filter="url(#f1jd9x745mis0w)" rx="12" ry="12" style="stroke: #A80036; stroke-width: 2.0;"/><line style="stroke: #A80036; stroke-width: 2.0;" x1="462.5" x2="486.5" y1="68" y2="68"/><text fill="#000000" font-family="sans-serif" font-size="14" lengthAdjust="spacingAndGlyphs" textLength="74" x="434.5" y="685.0576">savedAudio</text><ellipse cx="474.5" cy="704.1338" fill="#FEFECE" filter="url(#f1jd9x745mis0w)" rx="12" ry="12" style="stroke: #A80036; stroke-width: 2.0;"/><line style="stroke: #A80036; stroke-width: 2.0;" x1="462.5" x2="486.5" y1="718.1338" y2="718.1338"/><polygon fill="#A80036" points="166,118.1201,176,122.1201,166,126.1201,170,122.1201" style="stroke: #A80036; stroke-width: 1.0;"/><line style="stroke: #A80036; stroke-width: 1.0;" x1="50" x2="172" y1="122.1201" y2="122.1201"/><text fill="#000000" font-family="sans-serif" font-size="13" lengthAdjust="spacingAndGlyphs" textLength="75" x="57" y="118.0181">RenameVSS</text><polygon fill="#A80036" points="61,149.8745,51,153.8745,61,157.8745,57,153.8745" style="stroke: #A80036; stroke-width: 1.0;"/><line style="stroke: #A80036; stroke-width: 1.0;" x1="55" x2="177" y1="153.8745" y2="153.8745"/><text fill="#000000" font-family="sans-serif" font-size="13" lengthAdjust="spacingAndGlyphs" textLength="75" x="67" y="149.7725">rename page</text><polygon fill="#A80036" points="166,181.6289,176,185.6289,166,189.6289,170,185.6289" style="stroke: #A80036; stroke-width: 1.0;"/><line style="stroke: #A80036; stroke-width: 1.0;" x1="50" x2="172" y1="185.6289" y2="185.6289"/><text fill="#000000" font-family="sans-serif" font-size="13" lengthAdjust="spacingAndGlyphs" textLength="59" x="57" y="181.5269">new name</text><polygon fill="#A80036" points="268.5,213.3833,278.5,217.3833,268.5,221.3833,272.5,217.3833" style="stroke: #A80036; stroke-width: 1.0;"/><line style="stroke: #A80036; stroke-width: 1.0;" x1="178" x2="274.5" y1="217.3833" y2="217.3833"/><text fill="#000000" font-family="sans-serif" font-size="13" lengthAdjust="spacingAndGlyphs" textLength="59" x="185" y="213.2813">new name</text><polygon fill="#A80036" points="367.5,245.1377,377.5,249.1377,367.5,253.1377,371.5,249.1377" style="stroke: #A80036; stroke-width: 1.0;"/><line style="stroke: #A80036; stroke-width: 1.0;" x1="280.5" x2="373.5" y1="249.1377" y2="249.1377"/><text fill="#000000" font-family="sans-serif" font-size="13" lengthAdjust="spacingAndGlyphs" textLength="71" x="287.5" y="245.0356">name check</text><polygon fill="#A80036" points="462.5,276.8921,472.5,280.8921,462.5,284.8921,466.5,280.8921" style="stroke: #A80036; stroke-width: 1.0;"/><line style="stroke: #A80036; stroke-width: 1.0;" x1="379.5" x2="468.5" y1="280.8921" y2="280.8921"/><text fill="#000000" font-family="sans-serif" font-size="13" lengthAdjust="spacingAndGlyphs" textLength="71" x="386.5" y="276.79">name check</text><polygon fill="#A80036" points="291.5,308.6465,281.5,312.6465,291.5,316.6465,287.5,312.6465" style="stroke: #A80036; stroke-width: 1.0;"/><line style="stroke: #A80036; stroke-width: 1.0;" x1="285.5" x2="378.5" y1="312.6465" y2="312.6465"/><text fill="#000000" font-family="sans-serif" font-size="13" lengthAdjust="spacingAndGlyphs" textLength="71" x="297.5" y="308.5444">check result</text><path d="M13,328.4009 L86,328.4009 L86,337.4009 L76,347.4009 L13,347.4009 L13,328.4009 " fill="#EEEEEE" style="stroke: #000000; stroke-width: 1.0;"/><rect fill="none" height="261.104" style="stroke: #000000; stroke-width: 2.0;" width="521.5" x="13" y="328.4009"/><text fill="#000000" font-family="sans-serif" font-size="13" font-weight="bold" lengthAdjust="spacingAndGlyphs" textLength="28" x="28" y="344.2988">loop</text><text fill="#000000" font-family="sans-serif" font-size="11" font-weight="bold" lengthAdjust="spacingAndGlyphs" textLength="43" x="101" y="343.0068">[invalid]</text><path d="M23,355.1782 L84,355.1782 L84,364.1782 L74,374.1782 L23,374.1782 L23,355.1782 " fill="#EEEEEE" style="stroke: #000000; stroke-width: 1.0;"/><rect fill="none" height="227.3267" style="stroke: #000000; stroke-width: 2.0;" width="501.5" x="23" y="355.1782"/><text fill="#000000" font-family="sans-serif" font-size="13" font-weight="bold" lengthAdjust="spacingAndGlyphs" textLength="16" x="38" y="371.0762">alt</text><text fill="#000000" font-family="sans-serif" font-size="11" font-weight="bold" lengthAdjust="spacingAndGlyphs" textLength="50" x="99" y="369.7842">[reenter]</text><polygon fill="#A80036" points="166,393.9556,176,397.9556,166,401.9556,170,397.9556" style="stroke: #A80036; stroke-width: 1.0;"/><line style="stroke: #A80036; stroke-width: 1.0;" x1="50" x2="172" y1="397.9556" y2="397.9556"/><text fill="#000000" font-family="sans-serif" font-size="13" lengthAdjust="spacingAndGlyphs" textLength="59" x="57" y="393.8535">new name</text><polygon fill="#A80036" points="268.5,425.71,278.5,429.71,268.5,433.71,272.5,429.71" style="stroke: #A80036; stroke-width: 1.0;"/><line style="stroke: #A80036; stroke-width: 1.0;" x1="178" x2="274.5" y1="429.71" y2="429.71"/><text fill="#000000" font-family="sans-serif" font-size="13" lengthAdjust="spacingAndGlyphs" textLength="59" x="185" y="425.6079">new name</text><polygon fill="#A80036" points="367.5,457.4644,377.5,461.4644,367.5,465.4644,371.5,461.4644" style="stroke: #A80036; stroke-width: 1.0;"/><line style="stroke: #A80036; stroke-width: 1.0;" x1="280.5" x2="373.5" y1="461.4644" y2="461.4644"/><text fill="#000000" font-family="sans-serif" font-size="13" lengthAdjust="spacingAndGlyphs" textLength="71" x="287.5" y="457.3623">name check</text><polygon fill="#A80036" points="462.5,489.2188,472.5,493.2188,462.5,497.2188,466.5,493.2188" style="stroke: #A80036; stroke-width: 1.0;"/><line style="stroke: #A80036; stroke-width: 1.0;" x1="379.5" x2="468.5" y1="493.2188" y2="493.2188"/><text fill="#000000" font-family="sans-serif" font-size="13" lengthAdjust="spacingAndGlyphs" textLength="71" x="386.5" y="489.1167">name check</text><polygon fill="#A80036" points="291.5,520.9731,281.5,524.9731,291.5,528.9731,287.5,524.9731" style="stroke: #A80036; stroke-width: 1.0;"/><line style="stroke: #A80036; stroke-width: 1.0;" x1="285.5" x2="378.5" y1="524.9731" y2="524.9731"/><text fill="#000000" font-family="sans-serif" font-size="13" lengthAdjust="spacingAndGlyphs" textLength="71" x="297.5" y="520.8711">check result</text><line style="stroke: #000000; stroke-width: 1.0; stroke-dasharray: 2.0,2.0;" x1="23" x2="524.5" y1="534.7275" y2="534.7275"/><text fill="#000000" font-family="sans-serif" font-size="11" font-weight="bold" lengthAdjust="spacingAndGlyphs" textLength="43" x="28" y="547.3335">[cancel]</text><polygon fill="#A80036" points="61,569.7505,51,573.7505,61,577.7505,57,573.7505" style="stroke: #A80036; stroke-width: 1.0;"/><line style="stroke: #A80036; stroke-width: 1.0;" x1="55" x2="177" y1="573.7505" y2="573.7505"/><text fill="#000000" font-family="sans-serif" font-size="13" lengthAdjust="spacingAndGlyphs" textLength="104" x="67" y="569.6484">ManageLocalVSS</text><polygon fill="#A80036" points="462.5,615.5049,472.5,619.5049,462.5,623.5049,466.5,619.5049" style="stroke: #A80036; stroke-width: 1.0;"/><line style="stroke: #A80036; stroke-width: 1.0;" x1="379.5" x2="468.5" y1="619.5049" y2="619.5049"/><text fill="#000000" font-family="sans-serif" font-size="13" lengthAdjust="spacingAndGlyphs" textLength="43" x="386.5" y="615.4028">rename</text><polygon fill="#A80036" points="61,647.2593,51,651.2593,61,655.2593,57,651.2593" style="stroke: #A80036; stroke-width: 1.0;"/><line style="stroke: #A80036; stroke-width: 1.0;" x1="55" x2="177" y1="651.2593" y2="651.2593"/><text fill="#000000" font-family="sans-serif" font-size="13" lengthAdjust="spacingAndGlyphs" textLength="104" x="67" y="647.1572">ManageLocalVSS</text><!--
@startuml
actor user
boundary interface
control vssManageControl
database storage
entity savedAudio

user -> interface: RenameVSS
interface -> user: rename page
user -> interface: new name
interface -> vssManageControl: new name
vssManageControl -> storage: name check
storage -> savedAudio: name check
storage -> vssManageControl: check result

loop invalid
    alt reenter
        user -> interface: new name
        interface -> vssManageControl: new name
        vssManageControl -> storage: name check
        storage -> savedAudio: name check
        storage -> vssManageControl: check result
    else cancel
        interface -> user: ManageLocalVSS
    end
end

storage -> savedAudio: rename
interface -> user: ManageLocalVSS
@enduml

PlantUML version 1.2018.01(Mon Jan 29 02:08:22 CST 2018)
(GPL source distribution)
Java Runtime: Java(TM) SE Runtime Environment
JVM: Java HotSpot(TM) Client VM
Java Version: 1.8.0_144-b01
Operating System: Windows 10
OS Version: 10.0
Default Encoding: GBK
Language: zh
Country: CN
--></g></svg>