<?xml version="1.0" encoding="UTF-8" standalone="no"?><svg xmlns="http://www.w3.org/2000/svg" xmlns:xlink="http://www.w3.org/1999/xlink" contentScriptType="application/ecmascript" contentStyleType="text/css" height="1345px" preserveAspectRatio="none" style="width:2246px;height:1345px;" version="1.1" viewBox="0 0 2246 1345"
    width="2246px" zoomAndPan="magnify"><defs><filter height="300%" id="fhttar13qgbo0" width="300%" x="-1" y="-1"><feGaussianBlur result="blurOut" stdDeviation="2.0"/><feColorMatrix in="blurOut" result="blurOut2" type="matrix" values="0 0 0 0 0 0 0 0 0 0 0 0 0 0 0 0 0 0 .4 0"/><feOffset dx="4.0" dy="4.0" in="blurOut2" result="blurOut3"/><feBlend in="SourceGraphic" in2="blurOut3" mode="normal"/></filter></defs><g><rect fill="#FEFECE" filter="url(#fhttar13qgbo0)" height="30.4883" style="stroke: #A80036; stroke-width: 1.5;" width="175" x="508.5" y="155.1094"/><text fill="#000000" font-family="sans-serif" font-size="14" lengthAdjust="spacingAndGlyphs" text-decoration="underline" textLength="161" x="515.5" y="175.6445">:ConcertVSSCreatePage</text><line style="stroke: #000000; stroke-width: 1.0;" x1="515.5" x2="676.5" y1="177.6445" y2="177.6445"/><rect fill="#FEFECE" filter="url(#fhttar13qgbo0)" height="30.4883" style="stroke: #A80036; stroke-width: 1.5;" width="194" x="763" y="200.5977"/><text fill="#000000" font-family="sans-serif" font-size="14" lengthAdjust="spacingAndGlyphs" text-decoration="underline" textLength="180" x="770" y="221.1328">:ConcertVSSCreateControl</text><line style="stroke: #000000; stroke-width: 1.0;" x1="770" x2="950" y1="223.1328" y2="223.1328"/><rect fill="#FEFECE" filter="url(#fhttar13qgbo0)" height="30.4883" style="stroke: #A80036; stroke-width: 1.5;" width="351" x="1692.5" y="246.0859"/><text fill="#000000" font-family="sans-serif" font-size="14" lengthAdjust="spacingAndGlyphs" text-decoration="underline" textLength="337" x="1699.5" y="266.6211">newSoundSpace:ConcertModeVirtualSoundSpace</text><line style="stroke: #000000; stroke-width: 1.0;" x1="1699.5" x2="2036.5" y1="268.6211" y2="268.6211"/><rect fill="#FEFECE" filter="url(#fhttar13qgbo0)" height="30.4883" style="stroke: #A80036; stroke-width: 1.5;" width="117" x="1196" y="291.5742"/><text fill="#000000" font-family="sans-serif" font-size="14" lengthAdjust="spacingAndGlyphs" text-decoration="underline" textLength="103" x="1203" y="312.1094">:SensorControl</text><line style="stroke: #000000; stroke-width: 1.0;" x1="1203" x2="1306" y1="314.1094" y2="314.1094"/><rect fill="#FEFECE" filter="url(#fhttar13qgbo0)" height="30.4883" style="stroke: #A80036; stroke-width: 1.5;" width="65" x="1358.5" y="337.0625"/><text fill="#000000" font-family="sans-serif" font-size="14" lengthAdjust="spacingAndGlyphs" text-decoration="underline" textLength="51" x="1365.5" y="357.5977">:Sensor</text><line style="stroke: #000000; stroke-width: 1.0;" x1="1365.5" x2="1416.5" y1="359.5977" y2="359.5977"/><rect fill="#FFFFFF" filter="url(#fhttar13qgbo0)" height="927.0938" style="stroke: #000000; stroke-width: 2.0;" width="2222.5" x="13" y="389.5508"/><rect fill="#FFFFFF" filter="url(#fhttar13qgbo0)" height="397.6367" style="stroke: #000000; stroke-width: 2.0;" width="1679.5" x="23" y="413.8613"/><rect fill="#FFFFFF" filter="url(#fhttar13qgbo0)" height="75.9316" style="stroke: #000000; stroke-width: 2.0;" width="704.5" x="988" y="526.1035"/><rect fill="#FFFFFF" height="85.2207" style="stroke: none; stroke-width: 1.0;" width="1679.5" x="23" y="726.2773"/><rect fill="#FEFECE" filter="url(#fhttar13qgbo0)" height="30.4883" style="stroke: #A80036; stroke-width: 1.5;" width="109" x="2112.5" y="860.8086"/><text fill="#000000" font-family="sans-serif" font-size="14" lengthAdjust="spacingAndGlyphs" text-decoration="underline" textLength="95" x="2119.5" y="881.3438">:SoundSource</text><line style="stroke: #000000; stroke-width: 1.0;" x1="2119.5" x2="2214.5" y1="883.3438" y2="883.3438"/><line style="stroke: #A80036; stroke-width: 1.0;" x1="51" x2="51" y1="86.4883" y2="770.543"/><line style="stroke: #A80036; stroke-width: 1.0; stroke-dasharray: 1.0,4.0;" x1="51" x2="51" y1="770.543" y2="811.498"/><line style="stroke: #A80036; stroke-width: 1.0;" x1="51" x2="51" y1="811.498" y2="1333.6445"/><line style="stroke: #A80036; stroke-width: 1.0;" x1="218" x2="218" y1="86.4883" y2="770.543"/><line style="stroke: #A80036; stroke-width: 1.0; stroke-dasharray: 1.0,4.0;" x1="218" x2="218" y1="770.543" y2="811.498"/><line style="stroke: #A80036; stroke-width: 1.0;" x1="218" x2="218" y1="811.498" y2="1333.6445"/><line style="stroke: #A80036; stroke-width: 1.0;" x1="406" x2="406" y1="86.4883" y2="770.543"/><line style="stroke: #A80036; stroke-width: 1.0; stroke-dasharray: 1.0,4.0;" x1="406" x2="406" y1="770.543" y2="811.498"/><line style="stroke: #A80036; stroke-width: 1.0;" x1="406" x2="406" y1="811.498" y2="1333.6445"/><line style="stroke: #A80036; stroke-width: 1.0;" x1="597.5" x2="597.5" y1="187.8535" y2="770.543"/><line style="stroke: #A80036; stroke-width: 1.0; stroke-dasharray: 1.0,4.0;" x1="597.5" x2="597.5" y1="770.543" y2="811.498"/><line style="stroke: #A80036; stroke-width: 1.0;" x1="597.5" x2="597.5" y1="811.498" y2="1333.6445"/><line style="stroke: #A80036; stroke-width: 1.0;" x1="862" x2="862" y1="233.3418" y2="770.543"/><line style="stroke: #A80036; stroke-width: 1.0; stroke-dasharray: 1.0,4.0;" x1="862" x2="862" y1="770.543" y2="811.498"/><line style="stroke: #A80036; stroke-width: 1.0;" x1="862" x2="862" y1="811.498" y2="1333.6445"/><line style="stroke: #A80036; stroke-width: 1.0;" x1="1092" x2="1092" y1="86.4883" y2="770.543"/><line style="stroke: #A80036; stroke-width: 1.0; stroke-dasharray: 1.0,4.0;" x1="1092" x2="1092" y1="770.543" y2="811.498"/><line style="stroke: #A80036; stroke-width: 1.0;" x1="1092" x2="1092" y1="811.498" y2="1333.6445"/><line style="stroke: #A80036; stroke-width: 1.0;" x1="1256" x2="1256" y1="324.3184" y2="770.543"/><line style="stroke: #A80036; stroke-width: 1.0; stroke-dasharray: 1.0,4.0;" x1="1256" x2="1256" y1="770.543" y2="811.498"/><line style="stroke: #A80036; stroke-width: 1.0;" x1="1256" x2="1256" y1="811.498" y2="1333.6445"/><line style="stroke: #A80036; stroke-width: 1.0;" x1="1392.5" x2="1392.5" y1="369.8066" y2="770.543"/><line style="stroke: #A80036; stroke-width: 1.0; stroke-dasharray: 1.0,4.0;" x1="1392.5" x2="1392.5" y1="770.543" y2="811.498"/><line style="stroke: #A80036; stroke-width: 1.0;" x1="1392.5" x2="1392.5" y1="811.498" y2="1333.6445"/><line style="stroke: #A80036; stroke-width: 1.0;" x1="1559.5" x2="1559.5" y1="86.4883" y2="770.543"/><line style="stroke: #A80036; stroke-width: 1.0; stroke-dasharray: 1.0,4.0;" x1="1559.5" x2="1559.5" y1="770.543" y2="811.498"/><line style="stroke: #A80036; stroke-width: 1.0;" x1="1559.5" x2="1559.5" y1="811.498" y2="1333.6445"/><line style="stroke: #A80036; stroke-width: 1.0;" x1="1869.5" x2="1869.5" y1="278.8301" y2="770.543"/><line style="stroke: #A80036; stroke-width: 1.0; stroke-dasharray: 1.0,4.0;" x1="1869.5" x2="1869.5" y1="770.543" y2="811.498"/><line style="stroke: #A80036; stroke-width: 1.0;" x1="1869.5" x2="1869.5" y1="811.498" y2="1333.6445"/><line style="stroke: #A80036; stroke-width: 1.0;" x1="2078.5" x2="2078.5" y1="86.4883" y2="770.543"/><line style="stroke: #A80036; stroke-width: 1.0; stroke-dasharray: 1.0,4.0;" x1="2078.5" x2="2078.5" y1="770.543" y2="811.498"/><line style="stroke: #A80036; stroke-width: 1.0;" x1="2078.5" x2="2078.5" y1="811.498" y2="1333.6445"/><line style="stroke: #A80036; stroke-width: 1.0;" x1="2168.5" x2="2168.5" y1="893.5527" y2="1333.6445"/><text fill="#000000" font-family="sans-serif" font-size="14" lengthAdjust="spacingAndGlyphs" text-decoration="underline" textLength="31" x="33" y="83.5352">User</text><line style="stroke: #000000; stroke-width: 1.0;" x1="33" x2="64" y1="85.5352" y2="85.5352"/><ellipse cx="51.5" cy="13" fill="#FEFECE" filter="url(#fhttar13qgbo0)" rx="8" ry="8" style="stroke: #A80036; stroke-width: 2.0;"/><path d="M51.5,21 L51.5,48 M38.5,29 L64.5,29 M51.5,48 L38.5,63 M51.5,48 L64.5,63 " fill="none" filter="url(#fhttar13qgbo0)" style="stroke: #A80036; stroke-width: 2.0;"/><rect fill="#FEFECE" filter="url(#fhttar13qgbo0)" height="30.4883" style="stroke: #A80036; stroke-width: 1.5;" width="171" x="131" y="51"/><text fill="#000000" font-family="sans-serif" font-size="14" lengthAdjust="spacingAndGlyphs" text-decoration="underline" textLength="157" x="138" y="71.5352">:LocalVSSManagerPage</text><line style="stroke: #000000; stroke-width: 1.0;" x1="138" x2="295" y1="73.5352" y2="73.5352"/><rect fill="#FEFECE" filter="url(#fhttar13qgbo0)" height="30.4883" style="stroke: #A80036; stroke-width: 1.5;" width="177" x="316" y="51"/><text fill="#000000" font-family="sans-serif" font-size="14" lengthAdjust="spacingAndGlyphs" text-decoration="underline" textLength="163" x="323" y="71.5352">:LocalVSSLibraryControl</text><line style="stroke: #000000; stroke-width: 1.0;" x1="323" x2="486" y1="73.5352" y2="73.5352"/><rect fill="#FEFECE" filter="url(#fhttar13qgbo0)" height="30.4883" style="stroke: #A80036; stroke-width: 1.5;" width="184" x="998" y="51"/><text fill="#000000" font-family="sans-serif" font-size="14" lengthAdjust="spacingAndGlyphs" text-decoration="underline" textLength="170" x="1005" y="71.5352">:LocalSoundSpaceLibrary</text><line style="stroke: #000000; stroke-width: 1.0;" x1="1005" x2="1175" y1="73.5352" y2="73.5352"/><rect fill="#FEFECE" filter="url(#fhttar13qgbo0)" height="30.4883" style="stroke: #A80036; stroke-width: 1.5;" width="237" x="1441.5" y="47"/><rect fill="#FEFECE" filter="url(#fhttar13qgbo0)" height="30.4883" style="stroke: #A80036; stroke-width: 1.5;" width="237" x="1437.5" y="51"/><text fill="#000000" font-family="sans-serif" font-size="14" lengthAdjust="spacingAndGlyphs" text-decoration="underline" textLength="223" x="1444.5" y="71.5352">soundSpaces:VirtualSoundSpace</text><line style="stroke: #000000; stroke-width: 1.0;" x1="1444.5" x2="1667.5" y1="73.5352" y2="73.5352"/><rect fill="#FEFECE" filter="url(#fhttar13qgbo0)" height="30.4883" style="stroke: #A80036; stroke-width: 1.5;" width="39" x="2057.5" y="51"/><text fill="#000000" font-family="sans-serif" font-size="14" lengthAdjust="spacingAndGlyphs" text-decoration="underline" textLength="25" x="2064.5" y="71.5352">test</text><line style="stroke: #000000; stroke-width: 1.0;" x1="2064.5" x2="2089.5" y1="73.5352" y2="73.5352"/><polygon fill="#A80036" points="206.5,113.4883,216.5,117.4883,206.5,121.4883,210.5,117.4883" style="stroke: #A80036; stroke-width: 1.0;"/><line style="stroke: #A80036; stroke-width: 1.0;" x1="51.5" x2="212.5" y1="117.4883" y2="117.4883"/><text fill="#000000" font-family="sans-serif" font-size="13" lengthAdjust="spacingAndGlyphs" textLength="143" x="58.5" y="113.0566">createConcertModeVSS</text><polygon fill="#A80036" points="394.5,142.7988,404.5,146.7988,394.5,150.7988,398.5,146.7988" style="stroke: #A80036; stroke-width: 1.0;"/><line style="stroke: #A80036; stroke-width: 1.0;" x1="218.5" x2="400.5" y1="146.7988" y2="146.7988"/><text fill="#000000" font-family="sans-serif" font-size="13" lengthAdjust="spacingAndGlyphs" textLength="143" x="225.5" y="142.3672">createConcertModeVSS</text><polygon fill="#A80036" points="496.5,172.1094,506.5,176.1094,496.5,180.1094,500.5,176.1094" style="stroke: #A80036; stroke-width: 1.0;"/><line style="stroke: #A80036; stroke-width: 1.0;" x1="406.5" x2="502.5" y1="176.1094" y2="176.1094"/><text fill="#000000" font-family="sans-serif" font-size="13" lengthAdjust="spacingAndGlyphs" textLength="78" x="413.5" y="171.6777">&lt;&lt;create&gt;&gt;</text><rect fill="#FEFECE" filter="url(#fhttar13qgbo0)" height="30.4883" style="stroke: #A80036; stroke-width: 1.5;" width="175" x="508.5" y="155.1094"/><text fill="#000000" font-family="sans-serif" font-size="14" lengthAdjust="spacingAndGlyphs" text-decoration="underline" textLength="161" x="515.5" y="175.6445">:ConcertVSSCreatePage</text><line style="stroke: #000000; stroke-width: 1.0;" x1="515.5" x2="676.5" y1="177.6445" y2="177.6445"/><polygon fill="#A80036" points="751,217.5977,761,221.5977,751,225.5977,755,221.5977" style="stroke: #A80036; stroke-width: 1.0;"/><line style="stroke: #A80036; stroke-width: 1.0;" x1="598" x2="757" y1="221.5977" y2="221.5977"/><text fill="#000000" font-family="sans-serif" font-size="13" lengthAdjust="spacingAndGlyphs" textLength="78" x="605" y="217.166">&lt;&lt;create&gt;&gt;</text><rect fill="#FEFECE" filter="url(#fhttar13qgbo0)" height="30.4883" style="stroke: #A80036; stroke-width: 1.5;" width="194" x="763" y="200.5977"/><text fill="#000000" font-family="sans-serif" font-size="14" lengthAdjust="spacingAndGlyphs" text-decoration="underline" textLength="180" x="770" y="221.1328">:ConcertVSSCreateControl</text><line style="stroke: #000000; stroke-width: 1.0;" x1="770" x2="950" y1="223.1328" y2="223.1328"/><polygon fill="#A80036" points="1680.5,263.0859,1690.5,267.0859,1680.5,271.0859,1684.5,267.0859" style="stroke: #A80036; stroke-width: 1.0;"/><line style="stroke: #A80036; stroke-width: 1.0;" x1="862" x2="1686.5" y1="267.0859" y2="267.0859"/><text fill="#000000" font-family="sans-serif" font-size="13" lengthAdjust="spacingAndGlyphs" textLength="78" x="869" y="262.6543">&lt;&lt;create&gt;&gt;</text><rect fill="#FEFECE" filter="url(#fhttar13qgbo0)" height="30.4883" style="stroke: #A80036; stroke-width: 1.5;" width="351" x="1692.5" y="246.0859"/><text fill="#000000" font-family="sans-serif" font-size="14" lengthAdjust="spacingAndGlyphs" text-decoration="underline" textLength="337" x="1699.5" y="266.6211">newSoundSpace:ConcertModeVirtualSoundSpace</text><line style="stroke: #000000; stroke-width: 1.0;" x1="1699.5" x2="2036.5" y1="268.6211" y2="268.6211"/><polygon fill="#A80036" points="1184,308.5742,1194,312.5742,1184,316.5742,1188,312.5742" style="stroke: #A80036; stroke-width: 1.0;"/><line style="stroke: #A80036; stroke-width: 1.0;" x1="862" x2="1190" y1="312.5742" y2="312.5742"/><text fill="#000000" font-family="sans-serif" font-size="13" lengthAdjust="spacingAndGlyphs" textLength="78" x="869" y="308.1426">&lt;&lt;create&gt;&gt;</text><rect fill="#FEFECE" filter="url(#fhttar13qgbo0)" height="30.4883" style="stroke: #A80036; stroke-width: 1.5;" width="117" x="1196" y="291.5742"/><text fill="#000000" font-family="sans-serif" font-size="14" lengthAdjust="spacingAndGlyphs" text-decoration="underline" textLength="103" x="1203" y="312.1094">:SensorControl</text><line style="stroke: #000000; stroke-width: 1.0;" x1="1203" x2="1306" y1="314.1094" y2="314.1094"/><polygon fill="#A80036" points="1346.5,354.0625,1356.5,358.0625,1346.5,362.0625,1350.5,358.0625" style="stroke: #A80036; stroke-width: 1.0;"/><line style="stroke: #A80036; stroke-width: 1.0;" x1="1256.5" x2="1352.5" y1="358.0625" y2="358.0625"/><text fill="#000000" font-family="sans-serif" font-size="13" lengthAdjust="spacingAndGlyphs" textLength="78" x="1263.5" y="353.6309">&lt;&lt;create&gt;&gt;</text><rect fill="#FEFECE" filter="url(#fhttar13qgbo0)" height="30.4883" style="stroke: #A80036; stroke-width: 1.5;" width="65" x="1358.5" y="337.0625"/><text fill="#000000" font-family="sans-serif" font-size="14" lengthAdjust="spacingAndGlyphs" text-decoration="underline" textLength="51" x="1365.5" y="357.5977">:Sensor</text><line style="stroke: #000000; stroke-width: 1.0;" x1="1365.5" x2="1416.5" y1="359.5977" y2="359.5977"/><path d="M13,389.5508 L87,389.5508 L87,396.5508 L77,406.5508 L13,406.5508 L13,389.5508 " fill="#EEEEEE" style="stroke: #000000; stroke-width: 1.0;"/><rect fill="none" height="927.0938" style="stroke: #000000; stroke-width: 2.0;" width="2222.5" x="13" y="389.5508"/><text fill="#000000" font-family="sans-serif" font-size="13" font-weight="bold" lengthAdjust="spacingAndGlyphs" textLength="29" x="28" y="403.1191">loop</text><text fill="#000000" font-family="sans-serif" font-size="11" font-weight="bold" lengthAdjust="spacingAndGlyphs" textLength="144" x="102" y="402.1855">[add virual sound source]</text><path d="M23,413.8613 L85,413.8613 L85,420.8613 L75,430.8613 L23,430.8613 L23,413.8613 " fill="#EEEEEE" style="stroke: #000000; stroke-width: 1.0;"/><rect fill="none" height="397.6367" style="stroke: #000000; stroke-width: 2.0;" width="1679.5" x="23" y="413.8613"/><text fill="#000000" font-family="sans-serif" font-size="13" font-weight="bold" lengthAdjust="spacingAndGlyphs" textLength="17" x="38" y="427.4297">alt</text><text fill="#000000" font-family="sans-serif" font-size="11" font-weight="bold" lengthAdjust="spacingAndGlyphs" textLength="101" x="100" y="426.4961">[add from library]</text><polygon fill="#A80036" points="586,448.1719,596,452.1719,586,456.1719,590,452.1719" style="stroke: #A80036; stroke-width: 1.0;"/><line style="stroke: #A80036; stroke-width: 1.0;" x1="51.5" x2="592" y1="452.1719" y2="452.1719"/><text fill="#000000" font-family="sans-serif" font-size="13" lengthAdjust="spacingAndGlyphs" textLength="164" x="58.5" y="447.7402">selectExistedSoundSource</text><polygon fill="#A80036" points="850,477.4824,860,481.4824,850,485.4824,854,481.4824" style="stroke: #A80036; stroke-width: 1.0;"/><line style="stroke: #A80036; stroke-width: 1.0;" x1="598" x2="856" y1="481.4824" y2="481.4824"/><text fill="#000000" font-family="sans-serif" font-size="13" lengthAdjust="spacingAndGlyphs" textLength="158" x="605" y="477.0508">getLocalSoundFragments</text><polygon fill="#A80036" points="1080,506.793,1090,510.793,1080,514.793,1084,510.793" style="stroke: #A80036; stroke-width: 1.0;"/><line style="stroke: #A80036; stroke-width: 1.0;" x1="862" x2="1086" y1="510.793" y2="510.793"/><text fill="#000000" font-family="sans-serif" font-size="13" lengthAdjust="spacingAndGlyphs" textLength="158" x="869" y="506.3613">getLocalSoundFragments</text><path d="M988,526.1035 L1062,526.1035 L1062,533.1035 L1052,543.1035 L988,543.1035 L988,526.1035 " fill="#EEEEEE" style="stroke: #000000; stroke-width: 1.0;"/><rect fill="none" height="75.9316" style="stroke: #000000; stroke-width: 2.0;" width="704.5" x="988" y="526.1035"/><text fill="#000000" font-family="sans-serif" font-size="13" font-weight="bold" lengthAdjust="spacingAndGlyphs" textLength="29" x="1003" y="539.6719">loop</text><text fill="#000000" font-family="sans-serif" font-size="11" font-weight="bold" lengthAdjust="spacingAndGlyphs" textLength="54" x="1077" y="538.7383">[for each]</text><polygon fill="#A80036" points="1548,560.4141,1558,564.4141,1548,568.4141,1552,564.4141" style="stroke: #A80036; stroke-width: 1.0;"/><line style="stroke: #A80036; stroke-width: 1.0;" x1="1092" x2="1554" y1="564.4141" y2="564.4141"/><text fill="#000000" font-family="sans-serif" font-size="13" lengthAdjust="spacingAndGlyphs" textLength="108" x="1099" y="559.9824">getSoundSources</text><polygon fill="#A80036" points="1103,589.7246,1093,593.7246,1103,597.7246,1099,593.7246" style="stroke: #A80036; stroke-width: 1.0;"/><line style="stroke: #A80036; stroke-width: 1.0; stroke-dasharray: 2.0,2.0;" x1="1097" x2="1559" y1="593.7246" y2="593.7246"/><text fill="#000000" font-family="sans-serif" font-size="13" lengthAdjust="spacingAndGlyphs" textLength="88" x="1109" y="589.293">soundSources</text><polygon fill="#A80036" points="873,626.0352,863,630.0352,873,634.0352,869,630.0352" style="stroke: #A80036; stroke-width: 1.0;"/><line style="stroke: #A80036; stroke-width: 1.0; stroke-dasharray: 2.0,2.0;" x1="867" x2="1091" y1="630.0352" y2="630.0352"/><text fill="#000000" font-family="sans-serif" font-size="13" lengthAdjust="spacingAndGlyphs" textLength="150" x="879" y="625.6035">filteredSoundFragments</text><polygon fill="#A80036" points="609,655.3457,599,659.3457,609,663.3457,605,659.3457" style="stroke: #A80036; stroke-width: 1.0;"/><line style="stroke: #A80036; stroke-width: 1.0; stroke-dasharray: 2.0,2.0;" x1="603" x2="861" y1="659.3457" y2="659.3457"/><text fill="#000000" font-family="sans-serif" font-size="13" lengthAdjust="spacingAndGlyphs" textLength="240" x="615" y="654.9141">displayAvailableLocalSoundFragments</text><polygon fill="#A80036" points="586,684.6563,596,688.6563,586,692.6563,590,688.6563" style="stroke: #A80036; stroke-width: 1.0;"/><line style="stroke: #A80036; stroke-width: 1.0;" x1="51.5" x2="592" y1="688.6563" y2="688.6563"/><text fill="#000000" font-family="sans-serif" font-size="13" lengthAdjust="spacingAndGlyphs" textLength="135" x="58.5" y="684.2246">selectSoundFragment</text><polygon fill="#A80036" points="850,713.9668,860,717.9668,850,721.9668,854,717.9668" style="stroke: #A80036; stroke-width: 1.0;"/><line style="stroke: #A80036; stroke-width: 1.0;" x1="598" x2="856" y1="717.9668" y2="717.9668"/><text fill="#000000" font-family="sans-serif" font-size="13" lengthAdjust="spacingAndGlyphs" textLength="121" x="605" y="713.5352">addSoundFragment</text><line style="stroke: #000000; stroke-width: 1.0; stroke-dasharray: 2.0,2.0;" x1="23" x2="1702.5" y1="727.2773" y2="727.2773"/><text fill="#000000" font-family="sans-serif" font-size="11" font-weight="bold" lengthAdjust="spacingAndGlyphs" textLength="83" x="28" y="737.9121">[add from file]</text><polygon fill="#A80036" points="586,758.2324,596,762.2324,586,766.2324,590,762.2324" style="stroke: #A80036; stroke-width: 1.0;"/><line style="stroke: #A80036; stroke-width: 1.0;" x1="51.5" x2="592" y1="762.2324" y2="762.2324"/><text fill="#000000" font-family="sans-serif" font-size="13" lengthAdjust="spacingAndGlyphs" textLength="136" x="58.5" y="757.8008">selectFromFileSystem</text><text fill="#000000" font-family="sans-serif" font-size="11" lengthAdjust="spacingAndGlyphs" textLength="500" x="860.25" y="795.1777">somehow MapVSSCreateControl got the new SoundFragment # specify during implementation</text><line style="stroke: #A80036; stroke-width: 1.0;" x1="2079" x2="2121" y1="839.8086" y2="839.8086"/><line style="stroke: #A80036; stroke-width: 1.0;" x1="2121" x2="2121" y1="839.8086" y2="852.8086"/><line style="stroke: #A80036; stroke-width: 1.0;" x1="2080" x2="2121" y1="852.8086" y2="852.8086"/><polygon fill="#A80036" points="2090,848.8086,2080,852.8086,2090,856.8086,2086,852.8086" style="stroke: #A80036; stroke-width: 1.0;"/><text fill="#000000" font-family="sans-serif" font-size="13" lengthAdjust="spacingAndGlyphs" textLength="76" x="2086" y="835.0664">not finished</text><polygon fill="#A80036" points="2100.5,877.8086,2110.5,881.8086,2100.5,885.8086,2104.5,881.8086" style="stroke: #A80036; stroke-width: 1.0;"/><line style="stroke: #A80036; stroke-width: 1.0;" x1="862" x2="2106.5" y1="881.8086" y2="881.8086"/><text fill="#000000" font-family="sans-serif" font-size="13" lengthAdjust="spacingAndGlyphs" textLength="78" x="869" y="877.377">&lt;&lt;create&gt;&gt;</text><rect fill="#FEFECE" filter="url(#fhttar13qgbo0)" height="30.4883" style="stroke: #A80036; stroke-width: 1.5;" width="109" x="2112.5" y="860.8086"/><text fill="#000000" font-family="sans-serif" font-size="14" lengthAdjust="spacingAndGlyphs" text-decoration="underline" textLength="95" x="2119.5" y="881.3438">:SoundSource</text><line style="stroke: #000000; stroke-width: 1.0;" x1="2119.5" x2="2214.5" y1="883.3438" y2="883.3438"/><polygon fill="#A80036" points="2157,923.2969,2167,927.2969,2157,931.2969,2161,927.2969" style="stroke: #A80036; stroke-width: 1.0;"/><line style="stroke: #A80036; stroke-width: 1.0;" x1="862" x2="2163" y1="927.2969" y2="927.2969"/><text fill="#000000" font-family="sans-serif" font-size="13" lengthAdjust="spacingAndGlyphs" textLength="117" x="869" y="922.8652">setSoundFragment</text><polygon fill="#A80036" points="586,952.6074,596,956.6074,586,960.6074,590,956.6074" style="stroke: #A80036; stroke-width: 1.0;"/><line style="stroke: #A80036; stroke-width: 1.0;" x1="51.5" x2="592" y1="956.6074" y2="956.6074"/><text fill="#000000" font-family="sans-serif" font-size="13" lengthAdjust="spacingAndGlyphs" textLength="134" x="58.5" y="952.1758">setSoundSourceMode</text><polygon fill="#A80036" points="850,981.918,860,985.918,850,989.918,854,985.918" style="stroke: #A80036; stroke-width: 1.0;"/><line style="stroke: #A80036; stroke-width: 1.0;" x1="598" x2="856" y1="985.918" y2="985.918"/><text fill="#000000" font-family="sans-serif" font-size="13" lengthAdjust="spacingAndGlyphs" textLength="134" x="605" y="981.4863">setSoundSourceMode</text><polygon fill="#A80036" points="2157,1011.2285,2167,1015.2285,2157,1019.2285,2161,1015.2285" style="stroke: #A80036; stroke-width: 1.0;"/><line style="stroke: #A80036; stroke-width: 1.0;" x1="862" x2="2163" y1="1015.2285" y2="1015.2285"/><text fill="#000000" font-family="sans-serif" font-size="13" lengthAdjust="spacingAndGlyphs" textLength="134" x="869" y="1010.7969">setSoundSourceMode</text><polygon fill="#A80036" points="1858,1040.5391,1868,1044.5391,1858,1048.5391,1862,1044.5391" style="stroke: #A80036; stroke-width: 1.0;"/><line style="stroke: #A80036; stroke-width: 1.0;" x1="862" x2="1864" y1="1044.5391" y2="1044.5391"/><text fill="#000000" font-family="sans-serif" font-size="13" lengthAdjust="spacingAndGlyphs" textLength="193" x="869" y="1040.1074">addSoundSource(soundSource)</text><polygon fill="#A80036" points="586,1069.8496,596,1073.8496,586,1077.8496,590,1073.8496" style="stroke: #A80036; stroke-width: 1.0;"/><line style="stroke: #A80036; stroke-width: 1.0;" x1="51.5" x2="592" y1="1073.8496" y2="1073.8496"/><text fill="#000000" font-family="sans-serif" font-size="13" lengthAdjust="spacingAndGlyphs" textLength="175" x="58.5" y="1069.418">setVSSNameAndDescription</text><polygon fill="#A80036" points="850,1099.1602,860,1103.1602,850,1107.1602,854,1103.1602" style="stroke: #A80036; stroke-width: 1.0;"/><line style="stroke: #A80036; stroke-width: 1.0;" x1="598" x2="856" y1="1103.1602" y2="1103.1602"/><text fill="#000000" font-family="sans-serif" font-size="13" lengthAdjust="spacingAndGlyphs" textLength="175" x="605" y="1098.7285">setVSSNameAndDescription</text><polygon fill="#A80036" points="1858,1128.4707,1868,1132.4707,1858,1136.4707,1862,1132.4707" style="stroke: #A80036; stroke-width: 1.0;"/><line style="stroke: #A80036; stroke-width: 1.0;" x1="862" x2="1864" y1="1132.4707" y2="1132.4707"/><text fill="#000000" font-family="sans-serif" font-size="13" lengthAdjust="spacingAndGlyphs" textLength="175" x="869" y="1128.0391">setVSSNameAndDescription</text><polygon fill="#A80036" points="586,1157.7813,596,1161.7813,586,1165.7813,590,1161.7813" style="stroke: #A80036; stroke-width: 1.0;"/><line style="stroke: #A80036; stroke-width: 1.0;" x1="51.5" x2="592" y1="1161.7813" y2="1161.7813"/><text fill="#000000" font-family="sans-serif" font-size="13" lengthAdjust="spacingAndGlyphs" textLength="128" x="58.5" y="1157.3496">comfirmVSSCreation</text><polygon fill="#A80036" points="850,1187.0918,860,1191.0918,850,1195.0918,854,1191.0918" style="stroke: #A80036; stroke-width: 1.0;"/><line style="stroke: #A80036; stroke-width: 1.0;" x1="598" x2="856" y1="1191.0918" y2="1191.0918"/><text fill="#000000" font-family="sans-serif" font-size="13" lengthAdjust="spacingAndGlyphs" textLength="128" x="605" y="1186.6602">comfirmVSSCreation</text><polygon fill="#A80036" points="1080,1216.4023,1090,1220.4023,1080,1224.4023,1084,1220.4023" style="stroke: #A80036; stroke-width: 1.0;"/><line style="stroke: #A80036; stroke-width: 1.0;" x1="862" x2="1086" y1="1220.4023" y2="1220.4023"/><text fill="#000000" font-family="sans-serif" font-size="13" lengthAdjust="spacingAndGlyphs" textLength="206" x="869" y="1215.9707">addSoundSpace(newSoundSpace)</text><polygon fill="#A80036" points="1244.5,1245.7129,1254.5,1249.7129,1244.5,1253.7129,1248.5,1249.7129" style="stroke: #A80036; stroke-width: 1.0;"/><line style="stroke: #A80036; stroke-width: 1.0;" x1="862" x2="1250.5" y1="1249.7129" y2="1249.7129"/><text fill="#000000" font-family="sans-serif" font-size="13" lengthAdjust="spacingAndGlyphs" textLength="87" x="869" y="1245.2813">&lt;&lt;destroy&gt;&gt;</text><polygon fill="#A80036" points="1381,1275.0234,1391,1279.0234,1381,1283.0234,1385,1279.0234" style="stroke: #A80036; stroke-width: 1.0;"/><line style="stroke: #A80036; stroke-width: 1.0;" x1="1256.5" x2="1387" y1="1279.0234" y2="1279.0234"/><text fill="#000000" font-family="sans-serif" font-size="13" lengthAdjust="spacingAndGlyphs" textLength="87" x="1263.5" y="1274.5918">&lt;&lt;destroy&gt;&gt;</text><line style="stroke: #A80036; stroke-width: 2.0;" x1="1247.5" x2="1265.5" y1="1270.0234" y2="1288.0234"/><line style="stroke: #A80036; stroke-width: 2.0;" x1="1247.5" x2="1265.5" y1="1288.0234" y2="1270.0234"/><line style="stroke: #A80036; stroke-width: 2.0;" x1="1384" x2="1402" y1="1270.0234" y2="1288.0234"/><line style="stroke: #A80036; stroke-width: 2.0;" x1="1384" x2="1402" y1="1288.0234" y2="1270.0234"/><polygon fill="#A80036" points="609,1304.334,599,1308.334,609,1312.334,605,1308.334" style="stroke: #A80036; stroke-width: 1.0;"/><line style="stroke: #A80036; stroke-width: 1.0;" x1="603" x2="861" y1="1308.334" y2="1308.334"/><text fill="#000000" font-family="sans-serif" font-size="13" lengthAdjust="spacingAndGlyphs" textLength="87" x="615" y="1303.9023">&lt;&lt;destroy&gt;&gt;</text><line style="stroke: #A80036; stroke-width: 2.0;" x1="589" x2="607" y1="1299.334" y2="1317.334"/><line style="stroke: #A80036; stroke-width: 2.0;" x1="589" x2="607" y1="1317.334" y2="1299.334"/><line style="stroke: #A80036; stroke-width: 2.0;" x1="853" x2="871" y1="1299.334" y2="1317.334"/><line style="stroke: #A80036; stroke-width: 2.0;" x1="853" x2="871" y1="1317.334" y2="1299.334"/><!--
@startuml
hide footbox
skinparam sequenceParticipant underline


actor User as user
participant ":LocalVSSManagerPage" as boundary
participant ":LocalVSSLibraryControl" as control
participant ":ConcertVSSCreatePage" as createboundary
participant ":ConcertVSSCreateControl" as createcontrol
participant ":LocalSoundSpaceLibrary" as library
participant ":SensorControl" as sensorcontrol
participant ":Sensor" as sensor
collections "soundSpaces:VirtualSoundSpace" as vsses
participant "newSoundSpace:ConcertModeVirtualSoundSpace" as newspace



user -> boundary: createConcertModeVSS
boundary -> control: createConcertModeVSS
create createboundary
control -> createboundary: <<create>>
create createcontrol
createboundary -> createcontrol: <<create>>
create newspace
createcontrol -> newspace: <<create>>
create sensorcontrol
createcontrol -> sensorcontrol: <<create>>
create sensor
sensorcontrol -> sensor: <<create>>
loop add virual sound source
    alt add from library
        user -> createboundary: selectExistedSoundSource
        createboundary -> createcontrol: getLocalSoundFragments
        createcontrol -> library: getLocalSoundFragments
        loop for each
            library -> vsses: getSoundSources
            vsses - -> library: soundSources
        end
        library - -> createcontrol: filteredSoundFragments
        createcontrol - -> createboundary: displayAvailableLocalSoundFragments
        user -> createboundary: selectSoundFragment
        createboundary -> createcontrol: addSoundFragment
    else add from file
        user -> createboundary: selectFromFileSystem
        ...somehow MapVSSCreateControl got the new SoundFragment # specify during implementation...
    end

    test -> test: not finished
    participant ":SoundSource" as source
    create source
    createcontrol -> source: <<create>>
    createcontrol -> source: setSoundFragment
    user -> createboundary: setSoundSourceMode
    createboundary -> createcontrol: setSoundSourceMode
    createcontrol -> source: setSoundSourceMode
    createcontrol -> newspace: addSoundSource(soundSource)
    user -> createboundary: setVSSNameAndDescription
    createboundary -> createcontrol: setVSSNameAndDescription
    createcontrol -> newspace: setVSSNameAndDescription
    user -> createboundary: comfirmVSSCreation
    createboundary -> createcontrol: comfirmVSSCreation
    createcontrol -> library: addSoundSpace(newSoundSpace)
    createcontrol -> sensorcontrol: <<destroy>>
    sensorcontrol -> sensor: <<destroy>>
    destroy sensorcontrol
    destroy sensor
    createcontrol -> createboundary: <<destroy>>
    destroy createboundary
    destroy createcontrol


end
@enduml

PlantUML version 1.2018.01(Mon Jan 29 02:08:22 CST 2018)
(GPL source distribution)
Java Runtime: Java(TM) SE Runtime Environment
JVM: Java HotSpot(TM) 64-Bit Server VM
Java Version: 9+181
Operating System: Mac OS X
OS Version: 10.12.6
Default Encoding: UTF-8
Language: zh
Country: CN
--></g></svg>