<?xml version="1.0" encoding="UTF-8" standalone="no"?><svg xmlns="http://www.w3.org/2000/svg" xmlns:xlink="http://www.w3.org/1999/xlink" contentScriptType="application/ecmascript" contentStyleType="text/css" height="399px" preserveAspectRatio="none" style="width:825px;height:399px;" version="1.1" viewBox="0 0 825 399"
    width="825px" zoomAndPan="magnify"><defs><filter height="300%" id="f1cy6mcrlo843o" width="300%" x="-1" y="-1"><feGaussianBlur result="blurOut" stdDeviation="2.0"/><feColorMatrix in="blurOut" result="blurOut2" type="matrix" values="0 0 0 0 0 0 0 0 0 0 0 0 0 0 0 0 0 0 .4 0"/><feOffset dx="4.0" dy="4.0" in="blurOut2" result="blurOut3"/><feBlend in="SourceGraphic" in2="blurOut3" mode="normal"/></filter></defs><g><rect fill="#FFFFFF" filter="url(#f1cy6mcrlo843o)" height="205.5078" style="stroke: #A80036; stroke-width: 1.0;" width="10" x="38.5" y="96.4883"/><rect fill="#FFFFFF" filter="url(#f1cy6mcrlo843o)" height="205.5078" style="stroke: #A80036; stroke-width: 1.0;" width="10" x="202.5" y="96.4883"/><rect fill="#FFFFFF" filter="url(#f1cy6mcrlo843o)" height="184.5078" style="stroke: #A80036; stroke-width: 1.0;" width="10" x="317" y="117.4883"/><rect fill="#FFFFFF" filter="url(#f1cy6mcrlo843o)" height="118.8867" style="stroke: #000000; stroke-width: 2.0;" width="800.5" x="13" y="176.1094"/><rect fill="#FFFFFF" height="58.2656" style="stroke: none; stroke-width: 1.0;" width="800.5" x="13" y="236.7305"/><line style="stroke: #A80036; stroke-width: 1.0; stroke-dasharray: 5.0,5.0;" x1="43" x2="43" y1="86.4883" y2="311.9961"/><line style="stroke: #A80036; stroke-width: 1.0; stroke-dasharray: 5.0,5.0;" x1="207.5" x2="207.5" y1="86.4883" y2="311.9961"/><line style="stroke: #A80036; stroke-width: 1.0; stroke-dasharray: 5.0,5.0;" x1="321.5" x2="321.5" y1="86.4883" y2="311.9961"/><line style="stroke: #A80036; stroke-width: 1.0; stroke-dasharray: 5.0,5.0;" x1="429.5" x2="429.5" y1="86.4883" y2="311.9961"/><line style="stroke: #A80036; stroke-width: 1.0; stroke-dasharray: 5.0,5.0;" x1="562.5" x2="562.5" y1="86.4883" y2="311.9961"/><line style="stroke: #A80036; stroke-width: 1.0; stroke-dasharray: 5.0,5.0;" x1="722.5" x2="722.5" y1="86.4883" y2="311.9961"/><text fill="#000000" font-family="sans-serif" font-size="14" lengthAdjust="spacingAndGlyphs" textLength="4" x="23" y="83.5352">:</text><text fill="#000000" font-family="sans-serif" font-size="14" lengthAdjust="spacingAndGlyphs" text-decoration="underline" textLength="31" x="27" y="83.5352">User</text><line style="stroke: #000000; stroke-width: 1.0;" x1="27" x2="58" y1="85.5352" y2="85.5352"/><ellipse cx="43.5" cy="13" fill="#FEFECE" filter="url(#f1cy6mcrlo843o)" rx="8" ry="8" style="stroke: #A80036; stroke-width: 2.0;"/><path d="M43.5,21 L43.5,48 M30.5,29 L56.5,29 M43.5,48 L30.5,63 M43.5,48 L56.5,63 " fill="none" filter="url(#f1cy6mcrlo843o)" style="stroke: #A80036; stroke-width: 2.0;"/><text fill="#000000" font-family="sans-serif" font-size="14" lengthAdjust="spacingAndGlyphs" textLength="4" x="23" y="324.5313">:</text><text fill="#000000" font-family="sans-serif" font-size="14" lengthAdjust="spacingAndGlyphs" text-decoration="underline" textLength="31" x="27" y="324.5313">User</text><line style="stroke: #000000; stroke-width: 1.0;" x1="27" x2="58" y1="326.5313" y2="326.5313"/><ellipse cx="43.5" cy="337.4844" fill="#FEFECE" filter="url(#f1cy6mcrlo843o)" rx="8" ry="8" style="stroke: #A80036; stroke-width: 2.0;"/><path d="M43.5,345.4844 L43.5,372.4844 M30.5,353.4844 L56.5,353.4844 M43.5,372.4844 L30.5,387.4844 M43.5,372.4844 L56.5,387.4844 " fill="none" filter="url(#f1cy6mcrlo843o)" style="stroke: #A80036; stroke-width: 2.0;"/><text fill="#000000" font-family="sans-serif" font-size="14" lengthAdjust="spacingAndGlyphs" textLength="4" x="146.5" y="83.5352">:</text><text fill="#000000" font-family="sans-serif" font-size="14" lengthAdjust="spacingAndGlyphs" text-decoration="underline" textLength="112" x="150.5" y="83.5352">VSSViewingPage</text><line style="stroke: #000000; stroke-width: 1.0;" x1="150.5" x2="262.5" y1="85.5352" y2="85.5352"/><path d="M187,42 L187,66 M187,54 L204,54 " fill="none" filter="url(#f1cy6mcrlo843o)" style="stroke: #A80036; stroke-width: 2.0;"/><ellipse cx="216" cy="54" fill="#FEFECE" filter="url(#f1cy6mcrlo843o)" rx="12" ry="12" style="stroke: #A80036; stroke-width: 2.0;"/><text fill="#000000" font-family="sans-serif" font-size="14" lengthAdjust="spacingAndGlyphs" textLength="4" x="146.5" y="324.5313">:</text><text fill="#000000" font-family="sans-serif" font-size="14" lengthAdjust="spacingAndGlyphs" text-decoration="underline" textLength="112" x="150.5" y="324.5313">VSSViewingPage</text><line style="stroke: #000000; stroke-width: 1.0;" x1="150.5" x2="262.5" y1="326.5313" y2="326.5313"/><path d="M187,331.4844 L187,355.4844 M187,343.4844 L204,343.4844 " fill="none" filter="url(#f1cy6mcrlo843o)" style="stroke: #A80036; stroke-width: 2.0;"/><ellipse cx="216" cy="343.4844" fill="#FEFECE" filter="url(#f1cy6mcrlo843o)" rx="12" ry="12" style="stroke: #A80036; stroke-width: 2.0;"/><text fill="#000000" font-family="sans-serif" font-size="14" lengthAdjust="spacingAndGlyphs" textLength="4" x="278.5" y="83.5352">:</text><text fill="#000000" font-family="sans-serif" font-size="14" lengthAdjust="spacingAndGlyphs" text-decoration="underline" textLength="77" x="282.5" y="83.5352">VSSControl</text><line style="stroke: #000000; stroke-width: 1.0;" x1="282.5" x2="359.5" y1="85.5352" y2="85.5352"/><ellipse cx="322" cy="54" fill="#FEFECE" filter="url(#f1cy6mcrlo843o)" rx="12" ry="12" style="stroke: #A80036; stroke-width: 2.0;"/><polygon fill="#A80036" points="318,42,324,37,322,42,324,47,318,42" style="stroke: #A80036; stroke-width: 1.0;"/><text fill="#000000" font-family="sans-serif" font-size="14" lengthAdjust="spacingAndGlyphs" textLength="4" x="278.5" y="324.5313">:</text><text fill="#000000" font-family="sans-serif" font-size="14" lengthAdjust="spacingAndGlyphs" text-decoration="underline" textLength="77" x="282.5" y="324.5313">VSSControl</text><line style="stroke: #000000; stroke-width: 1.0;" x1="282.5" x2="359.5" y1="326.5313" y2="326.5313"/><ellipse cx="322" cy="343.4844" fill="#FEFECE" filter="url(#f1cy6mcrlo843o)" rx="12" ry="12" style="stroke: #A80036; stroke-width: 2.0;"/><polygon fill="#A80036" points="318,331.4844,324,326.4844,322,331.4844,324,336.4844,318,331.4844" style="stroke: #A80036; stroke-width: 1.0;"/><rect fill="#FEFECE" filter="url(#f1cy6mcrlo843o)" height="30.4883" style="stroke: #A80036; stroke-width: 1.5;" width="105" x="375.5" y="51"/><text fill="#000000" font-family="sans-serif" font-size="14" lengthAdjust="spacingAndGlyphs" textLength="91" x="382.5" y="71.5352">AdjustSensor</text><rect fill="#FEFECE" filter="url(#f1cy6mcrlo843o)" height="30.4883" style="stroke: #A80036; stroke-width: 1.5;" width="105" x="375.5" y="310.9961"/><text fill="#000000" font-family="sans-serif" font-size="14" lengthAdjust="spacingAndGlyphs" textLength="91" x="382.5" y="331.5313">AdjustSensor</text><rect fill="#FEFECE" filter="url(#f1cy6mcrlo843o)" height="30.4883" style="stroke: #A80036; stroke-width: 1.5;" width="133" x="494.5" y="51"/><text fill="#000000" font-family="sans-serif" font-size="14" lengthAdjust="spacingAndGlyphs" textLength="119" x="501.5" y="71.5352">PlayMapModeVSS</text><rect fill="#FEFECE" filter="url(#f1cy6mcrlo843o)" height="30.4883" style="stroke: #A80036; stroke-width: 1.5;" width="133" x="494.5" y="310.9961"/><text fill="#000000" font-family="sans-serif" font-size="14" lengthAdjust="spacingAndGlyphs" textLength="119" x="501.5" y="331.5313">PlayMapModeVSS</text><rect fill="#FEFECE" filter="url(#f1cy6mcrlo843o)" height="30.4883" style="stroke: #A80036; stroke-width: 1.5;" width="158" x="641.5" y="51"/><text fill="#000000" font-family="sans-serif" font-size="14" lengthAdjust="spacingAndGlyphs" textLength="144" x="648.5" y="71.5352">PlayConcertModeVSS</text><rect fill="#FEFECE" filter="url(#f1cy6mcrlo843o)" height="30.4883" style="stroke: #A80036; stroke-width: 1.5;" width="158" x="641.5" y="310.9961"/><text fill="#000000" font-family="sans-serif" font-size="14" lengthAdjust="spacingAndGlyphs" textLength="144" x="648.5" y="331.5313">PlayConcertModeVSS</text><rect fill="#FFFFFF" filter="url(#f1cy6mcrlo843o)" height="205.5078" style="stroke: #A80036; stroke-width: 1.0;" width="10" x="38.5" y="96.4883"/><rect fill="#FFFFFF" filter="url(#f1cy6mcrlo843o)" height="205.5078" style="stroke: #A80036; stroke-width: 1.0;" width="10" x="202.5" y="96.4883"/><rect fill="#FFFFFF" filter="url(#f1cy6mcrlo843o)" height="184.5078" style="stroke: #A80036; stroke-width: 1.0;" width="10" x="317" y="117.4883"/><polygon fill="#A80036" points="305,113.4883,315,117.4883,305,121.4883,309,117.4883" style="stroke: #A80036; stroke-width: 1.0;"/><line style="stroke: #A80036; stroke-width: 1.0;" x1="212.5" x2="311" y1="117.4883" y2="117.4883"/><text fill="#000000" font-family="sans-serif" font-size="13" lengthAdjust="spacingAndGlyphs" textLength="78" x="219.5" y="113.0566">&lt;&lt;create&gt;&gt;</text><polygon fill="#A80036" points="190.5,142.7988,200.5,146.7988,190.5,150.7988,194.5,146.7988" style="stroke: #A80036; stroke-width: 1.0;"/><line style="stroke: #A80036; stroke-width: 1.0;" x1="48.5" x2="196.5" y1="146.7988" y2="146.7988"/><text fill="#000000" font-family="sans-serif" font-size="13" lengthAdjust="spacingAndGlyphs" textLength="83" x="55.5" y="142.3672">AdjustSensor</text><polygon fill="#A80036" points="418,157.1094,428,161.1094,418,165.1094,422,161.1094" style="stroke: #A80036; stroke-width: 1.0;"/><line style="stroke: #A80036; stroke-width: 1.0;" x1="327" x2="424" y1="161.1094" y2="161.1094"/><path d="M13,176.1094 L75,176.1094 L75,183.1094 L65,193.1094 L13,193.1094 L13,176.1094 " fill="#EEEEEE" style="stroke: #000000; stroke-width: 1.0;"/><rect fill="none" height="118.8867" style="stroke: #000000; stroke-width: 2.0;" width="800.5" x="13" y="176.1094"/><text fill="#000000" font-family="sans-serif" font-size="13" font-weight="bold" lengthAdjust="spacingAndGlyphs" textLength="17" x="28" y="189.6777">alt</text><text fill="#000000" font-family="sans-serif" font-size="11" font-weight="bold" lengthAdjust="spacingAndGlyphs" textLength="61" x="90" y="188.7441">[MapMode]</text><polygon fill="#A80036" points="190.5,210.4199,200.5,214.4199,190.5,218.4199,194.5,214.4199" style="stroke: #A80036; stroke-width: 1.0;"/><line style="stroke: #A80036; stroke-width: 1.0;" x1="48.5" x2="196.5" y1="214.4199" y2="214.4199"/><text fill="#000000" font-family="sans-serif" font-size="13" lengthAdjust="spacingAndGlyphs" textLength="107" x="55.5" y="209.9883">PlayMapModeVSS</text><polygon fill="#A80036" points="551,224.7305,561,228.7305,551,232.7305,555,228.7305" style="stroke: #A80036; stroke-width: 1.0;"/><line style="stroke: #A80036; stroke-width: 1.0;" x1="327" x2="557" y1="228.7305" y2="228.7305"/><line style="stroke: #000000; stroke-width: 1.0; stroke-dasharray: 2.0,2.0;" x1="13" x2="813.5" y1="237.7305" y2="237.7305"/><text fill="#000000" font-family="sans-serif" font-size="11" font-weight="bold" lengthAdjust="spacingAndGlyphs" textLength="81" x="18" y="248.3652">[ConcertMode]</text><polygon fill="#A80036" points="190.5,268.6855,200.5,272.6855,190.5,276.6855,194.5,272.6855" style="stroke: #A80036; stroke-width: 1.0;"/><line style="stroke: #A80036; stroke-width: 1.0;" x1="48.5" x2="196.5" y1="272.6855" y2="272.6855"/><text fill="#000000" font-family="sans-serif" font-size="13" lengthAdjust="spacingAndGlyphs" textLength="130" x="55.5" y="268.2539">PlayConcertModeVSS</text><polygon fill="#A80036" points="710.5,282.9961,720.5,286.9961,710.5,290.9961,714.5,286.9961" style="stroke: #A80036; stroke-width: 1.0;"/><line style="stroke: #A80036; stroke-width: 1.0;" x1="327" x2="716.5" y1="286.9961" y2="286.9961"/><!--
@startuml
actor ":__User__" as User
boundary ":__VSSViewingPage__" as VSSViewingPage
control ":__VSSControl__" as VSSControl

activate User
activate VSSViewingPage
VSSViewingPage -> VSSControl: <<create>>
activate VSSControl
User -> VSSViewingPage: AdjustSensor
VSSControl -> AdjustSensor
alt MapMode
  User -> VSSViewingPage: PlayMapModeVSS
  VSSControl -> PlayMapModeVSS
else ConcertMode
  User -> VSSViewingPage: PlayConcertModeVSS
  VSSControl -> PlayConcertModeVSS
end
deactivate VSSControl
deactivate VSSViewingPage
deactivate User
@enduml

PlantUML version 1.2018.01(Mon Jan 29 02:08:22 CST 2018)
(GPL source distribution)
Java Runtime: Java(TM) SE Runtime Environment
JVM: Java HotSpot(TM) 64-Bit Server VM
Java Version: 9+181
Operating System: Mac OS X
OS Version: 10.12.6
Default Encoding: UTF-8
Language: zh
Country: CN
--></g></svg>