<?xml version="1.0" encoding="UTF-8" standalone="no"?><svg xmlns="http://www.w3.org/2000/svg" xmlns:xlink="http://www.w3.org/1999/xlink" contentScriptType="application/ecmascript" contentStyleType="text/css" height="340px" preserveAspectRatio="none" style="width:812px;height:340px;" version="1.1" viewBox="0 0 812 340"
    width="812px" zoomAndPan="magnify"><defs><filter height="300%" id="f1rracoe5l9vw5" width="300%" x="-1" y="-1"><feGaussianBlur result="blurOut" stdDeviation="2.0"/><feColorMatrix in="blurOut" result="blurOut2" type="matrix" values="0 0 0 0 0 0 0 0 0 0 0 0 0 0 0 0 0 0 .4 0"/><feOffset dx="4.0" dy="4.0" in="blurOut2" result="blurOut3"/><feBlend in="SourceGraphic" in2="blurOut3" mode="normal"/></filter></defs><g><rect fill="#FFFFFF" filter="url(#f1rracoe5l9vw5)" height="138.2422" style="stroke: #A80036; stroke-width: 1.0;" width="10" x="23.5" y="96.4883"/><rect fill="#FFFFFF" filter="url(#f1rracoe5l9vw5)" height="138.2422" style="stroke: #A80036; stroke-width: 1.0;" width="10" x="150.5" y="96.4883"/><rect fill="#FFFFFF" filter="url(#f1rracoe5l9vw5)" height="87.9316" style="stroke: #A80036; stroke-width: 1.0;" width="10" x="329.5" y="146.7988"/><rect fill="#FFFFFF" filter="url(#f1rracoe5l9vw5)" height="38.6211" style="stroke: #A80036; stroke-width: 1.0;" width="10" x="517" y="205.4199"/><rect fill="#FFFFFF" filter="url(#f1rracoe5l9vw5)" height="29.3105" style="stroke: #A80036; stroke-width: 1.0;" width="10" x="708" y="176.1094"/><line style="stroke: #A80036; stroke-width: 1.0; stroke-dasharray: 5.0,5.0;" x1="28" x2="28" y1="86.4883" y2="253.041"/><line style="stroke: #A80036; stroke-width: 1.0; stroke-dasharray: 5.0,5.0;" x1="155" x2="155" y1="86.4883" y2="253.041"/><line style="stroke: #A80036; stroke-width: 1.0; stroke-dasharray: 5.0,5.0;" x1="334" x2="334" y1="86.4883" y2="253.041"/><line style="stroke: #A80036; stroke-width: 1.0; stroke-dasharray: 5.0,5.0;" x1="522" x2="522" y1="86.4883" y2="253.041"/><line style="stroke: #A80036; stroke-width: 1.0; stroke-dasharray: 5.0,5.0;" x1="713" x2="713" y1="86.4883" y2="253.041"/><text fill="#000000" font-family="sans-serif" font-size="14" lengthAdjust="spacingAndGlyphs" textLength="4" x="8" y="83.5352">:</text><text fill="#000000" font-family="sans-serif" font-size="14" lengthAdjust="spacingAndGlyphs" text-decoration="underline" textLength="31" x="12" y="83.5352">User</text><line style="stroke: #000000; stroke-width: 1.0;" x1="12" x2="43" y1="85.5352" y2="85.5352"/><ellipse cx="28.5" cy="13" fill="#FEFECE" filter="url(#f1rracoe5l9vw5)" rx="8" ry="8" style="stroke: #A80036; stroke-width: 2.0;"/><path d="M28.5,21 L28.5,48 M15.5,29 L41.5,29 M28.5,48 L15.5,63 M28.5,48 L41.5,63 " fill="none" filter="url(#f1rracoe5l9vw5)" style="stroke: #A80036; stroke-width: 2.0;"/><text fill="#000000" font-family="sans-serif" font-size="14" lengthAdjust="spacingAndGlyphs" textLength="4" x="8" y="265.5762">:</text><text fill="#000000" font-family="sans-serif" font-size="14" lengthAdjust="spacingAndGlyphs" text-decoration="underline" textLength="31" x="12" y="265.5762">User</text><line style="stroke: #000000; stroke-width: 1.0;" x1="12" x2="43" y1="267.5762" y2="267.5762"/><ellipse cx="28.5" cy="278.5293" fill="#FEFECE" filter="url(#f1rracoe5l9vw5)" rx="8" ry="8" style="stroke: #A80036; stroke-width: 2.0;"/><path d="M28.5,286.5293 L28.5,313.5293 M15.5,294.5293 L41.5,294.5293 M28.5,313.5293 L15.5,328.5293 M28.5,313.5293 L41.5,328.5293 " fill="none" filter="url(#f1rracoe5l9vw5)" style="stroke: #A80036; stroke-width: 2.0;"/><text fill="#000000" font-family="sans-serif" font-size="14" lengthAdjust="spacingAndGlyphs" textLength="4" x="76" y="83.5352">:</text><text fill="#000000" font-family="sans-serif" font-size="14" lengthAdjust="spacingAndGlyphs" text-decoration="underline" textLength="149" x="80" y="83.5352">OnlineVSSViewerPage</text><line style="stroke: #000000; stroke-width: 1.0;" x1="80" x2="229" y1="85.5352" y2="85.5352"/><path d="M135,42 L135,66 M135,54 L152,54 " fill="none" filter="url(#f1rracoe5l9vw5)" style="stroke: #A80036; stroke-width: 2.0;"/><ellipse cx="164" cy="54" fill="#FEFECE" filter="url(#f1rracoe5l9vw5)" rx="12" ry="12" style="stroke: #A80036; stroke-width: 2.0;"/><text fill="#000000" font-family="sans-serif" font-size="14" lengthAdjust="spacingAndGlyphs" textLength="4" x="76" y="265.5762">:</text><text fill="#000000" font-family="sans-serif" font-size="14" lengthAdjust="spacingAndGlyphs" text-decoration="underline" textLength="149" x="80" y="265.5762">OnlineVSSViewerPage</text><line style="stroke: #000000; stroke-width: 1.0;" x1="80" x2="229" y1="267.5762" y2="267.5762"/><path d="M135,272.5293 L135,296.5293 M135,284.5293 L152,284.5293 " fill="none" filter="url(#f1rracoe5l9vw5)" style="stroke: #A80036; stroke-width: 2.0;"/><ellipse cx="164" cy="284.5293" fill="#FEFECE" filter="url(#f1rracoe5l9vw5)" rx="12" ry="12" style="stroke: #A80036; stroke-width: 2.0;"/><text fill="#000000" font-family="sans-serif" font-size="14" lengthAdjust="spacingAndGlyphs" textLength="4" x="245" y="83.5352">:</text><text fill="#000000" font-family="sans-serif" font-size="14" lengthAdjust="spacingAndGlyphs" text-decoration="underline" textLength="169" x="249" y="83.5352">OnlineVSSLibraryControl</text><line style="stroke: #000000; stroke-width: 1.0;" x1="249" x2="418" y1="85.5352" y2="85.5352"/><ellipse cx="334.5" cy="54" fill="#FEFECE" filter="url(#f1rracoe5l9vw5)" rx="12" ry="12" style="stroke: #A80036; stroke-width: 2.0;"/><polygon fill="#A80036" points="330.5,42,336.5,37,334.5,42,336.5,47,330.5,42" style="stroke: #A80036; stroke-width: 1.0;"/><text fill="#000000" font-family="sans-serif" font-size="14" lengthAdjust="spacingAndGlyphs" textLength="4" x="245" y="265.5762">:</text><text fill="#000000" font-family="sans-serif" font-size="14" lengthAdjust="spacingAndGlyphs" text-decoration="underline" textLength="169" x="249" y="265.5762">OnlineVSSLibraryControl</text><line style="stroke: #000000; stroke-width: 1.0;" x1="249" x2="418" y1="267.5762" y2="267.5762"/><ellipse cx="334.5" cy="284.5293" fill="#FEFECE" filter="url(#f1rracoe5l9vw5)" rx="12" ry="12" style="stroke: #A80036; stroke-width: 2.0;"/><polygon fill="#A80036" points="330.5,272.5293,336.5,267.5293,334.5,272.5293,336.5,277.5293,330.5,272.5293" style="stroke: #A80036; stroke-width: 1.0;"/><text fill="#000000" font-family="sans-serif" font-size="14" lengthAdjust="spacingAndGlyphs" textLength="4" x="434" y="83.5352">:</text><text fill="#000000" font-family="sans-serif" font-size="14" lengthAdjust="spacingAndGlyphs" text-decoration="underline" textLength="166" x="438" y="83.5352">LocalSoundSpaceLibrary</text><line style="stroke: #000000; stroke-width: 1.0;" x1="438" x2="604" y1="85.5352" y2="85.5352"/><ellipse cx="522" cy="54" fill="#FEFECE" filter="url(#f1rracoe5l9vw5)" rx="12" ry="12" style="stroke: #A80036; stroke-width: 2.0;"/><line style="stroke: #A80036; stroke-width: 2.0;" x1="510" x2="534" y1="68" y2="68"/><text fill="#000000" font-family="sans-serif" font-size="14" lengthAdjust="spacingAndGlyphs" textLength="4" x="434" y="265.5762">:</text><text fill="#000000" font-family="sans-serif" font-size="14" lengthAdjust="spacingAndGlyphs" text-decoration="underline" textLength="166" x="438" y="265.5762">LocalSoundSpaceLibrary</text><line style="stroke: #000000; stroke-width: 1.0;" x1="438" x2="604" y1="267.5762" y2="267.5762"/><ellipse cx="522" cy="284.5293" fill="#FEFECE" filter="url(#f1rracoe5l9vw5)" rx="12" ry="12" style="stroke: #A80036; stroke-width: 2.0;"/><line style="stroke: #A80036; stroke-width: 2.0;" x1="510" x2="534" y1="298.5293" y2="298.5293"/><text fill="#000000" font-family="sans-serif" font-size="14" lengthAdjust="spacingAndGlyphs" textLength="4" x="620" y="83.5352">:</text><text fill="#000000" font-family="sans-serif" font-size="14" lengthAdjust="spacingAndGlyphs" text-decoration="underline" textLength="176" x="624" y="83.5352">OnlineSoundSpaceLibrary</text><line style="stroke: #000000; stroke-width: 1.0;" x1="624" x2="800" y1="85.5352" y2="85.5352"/><ellipse cx="713" cy="54" fill="#FEFECE" filter="url(#f1rracoe5l9vw5)" rx="12" ry="12" style="stroke: #A80036; stroke-width: 2.0;"/><line style="stroke: #A80036; stroke-width: 2.0;" x1="701" x2="725" y1="68" y2="68"/><text fill="#000000" font-family="sans-serif" font-size="14" lengthAdjust="spacingAndGlyphs" textLength="4" x="620" y="265.5762">:</text><text fill="#000000" font-family="sans-serif" font-size="14" lengthAdjust="spacingAndGlyphs" text-decoration="underline" textLength="176" x="624" y="265.5762">OnlineSoundSpaceLibrary</text><line style="stroke: #000000; stroke-width: 1.0;" x1="624" x2="800" y1="267.5762" y2="267.5762"/><ellipse cx="713" cy="284.5293" fill="#FEFECE" filter="url(#f1rracoe5l9vw5)" rx="12" ry="12" style="stroke: #A80036; stroke-width: 2.0;"/><line style="stroke: #A80036; stroke-width: 2.0;" x1="701" x2="725" y1="298.5293" y2="298.5293"/><rect fill="#FFFFFF" filter="url(#f1rracoe5l9vw5)" height="138.2422" style="stroke: #A80036; stroke-width: 1.0;" width="10" x="23.5" y="96.4883"/><rect fill="#FFFFFF" filter="url(#f1rracoe5l9vw5)" height="138.2422" style="stroke: #A80036; stroke-width: 1.0;" width="10" x="150.5" y="96.4883"/><rect fill="#FFFFFF" filter="url(#f1rracoe5l9vw5)" height="87.9316" style="stroke: #A80036; stroke-width: 1.0;" width="10" x="329.5" y="146.7988"/><rect fill="#FFFFFF" filter="url(#f1rracoe5l9vw5)" height="38.6211" style="stroke: #A80036; stroke-width: 1.0;" width="10" x="517" y="205.4199"/><rect fill="#FFFFFF" filter="url(#f1rracoe5l9vw5)" height="29.3105" style="stroke: #A80036; stroke-width: 1.0;" width="10" x="708" y="176.1094"/><polygon fill="#A80036" points="138.5,113.4883,148.5,117.4883,138.5,121.4883,142.5,117.4883" style="stroke: #A80036; stroke-width: 1.0;"/><line style="stroke: #A80036; stroke-width: 1.0;" x1="33.5" x2="144.5" y1="117.4883" y2="117.4883"/><text fill="#000000" font-family="sans-serif" font-size="13" lengthAdjust="spacingAndGlyphs" textLength="93" x="40.5" y="113.0566">DownloadVSS()</text><polygon fill="#A80036" points="317.5,142.7988,327.5,146.7988,317.5,150.7988,321.5,146.7988" style="stroke: #A80036; stroke-width: 1.0;"/><line style="stroke: #A80036; stroke-width: 1.0;" x1="160.5" x2="323.5" y1="146.7988" y2="146.7988"/><text fill="#000000" font-family="sans-serif" font-size="13" lengthAdjust="spacingAndGlyphs" textLength="78" x="167.5" y="142.3672">&lt;&lt;create&gt;&gt;</text><polygon fill="#A80036" points="696,172.1094,706,176.1094,696,180.1094,700,176.1094" style="stroke: #A80036; stroke-width: 1.0;"/><line style="stroke: #A80036; stroke-width: 1.0;" x1="339.5" x2="702" y1="176.1094" y2="176.1094"/><text fill="#000000" font-family="sans-serif" font-size="13" lengthAdjust="spacingAndGlyphs" textLength="85" x="346.5" y="171.6777">DownloadVSS</text><polygon fill="#A80036" points="538,201.4199,528,205.4199,538,209.4199,534,205.4199" style="stroke: #A80036; stroke-width: 1.0;"/><line style="stroke: #A80036; stroke-width: 1.0;" x1="532" x2="712" y1="205.4199" y2="205.4199"/><text fill="#000000" font-family="sans-serif" font-size="13" lengthAdjust="spacingAndGlyphs" textLength="85" x="544" y="200.9883">DownloadVSS</text><polygon fill="#A80036" points="39.5,230.7305,29.5,234.7305,39.5,238.7305,35.5,234.7305" style="stroke: #A80036; stroke-width: 1.0;"/><line style="stroke: #A80036; stroke-width: 1.0;" x1="33.5" x2="154.5" y1="234.7305" y2="234.7305"/><text fill="#000000" font-family="sans-serif" font-size="13" lengthAdjust="spacingAndGlyphs" textLength="51" x="45.5" y="230.2988">VSSData</text><!--
@startuml
actor ":__User__" as User
boundary ":__OnlineVSSViewerPage__" as OnlineVSSViewerPage
control ":__OnlineVSSLibraryControl__" as OnlineVSSLibraryControl
entity ":__LocalSoundSpaceLibrary__" as LocalSoundSpaceLibrary
entity ":__OnlineSoundSpaceLibrary__" as OnlineSoundSpaceLibrary

activate User
activate OnlineVSSViewerPage
User -> OnlineVSSViewerPage: DownloadVSS()
OnlineVSSViewerPage -> OnlineVSSLibraryControl: <<create>>
activate OnlineVSSLibraryControl
OnlineVSSLibraryControl -> OnlineSoundSpaceLibrary: DownloadVSS
activate OnlineSoundSpaceLibrary
OnlineSoundSpaceLibrary -> LocalSoundSpaceLibrary: DownloadVSS
deactivate OnlineSoundSpaceLibrary
activate LocalSoundSpaceLibrary
deactivate LocalSoundSpaceLibrary
OnlineVSSViewerPage -> User: VSSData
deactivate OnlineVSSLibraryControl
deactivate OnlineVSSViewerPage
deactivate User
@enduml

PlantUML version 1.2018.01(Mon Jan 29 02:08:22 CST 2018)
(GPL source distribution)
Java Runtime: Java(TM) SE Runtime Environment
JVM: Java HotSpot(TM) 64-Bit Server VM
Java Version: 9+181
Operating System: Mac OS X
OS Version: 10.12.6
Default Encoding: UTF-8
Language: zh
Country: CN
--></g></svg>