<?xml version="1.0" encoding="UTF-8" standalone="no"?><svg xmlns="http://www.w3.org/2000/svg" xmlns:xlink="http://www.w3.org/1999/xlink" contentScriptType="application/ecmascript" contentStyleType="text/css" height="618px" preserveAspectRatio="none" style="width:695px;height:618px;" version="1.1" viewBox="0 0 695 618"
    width="695px" zoomAndPan="magnify"><defs><filter height="300%" id="fiti4f1six5tc" width="300%" x="-1" y="-1"><feGaussianBlur result="blurOut" stdDeviation="2.0"/><feColorMatrix in="blurOut" result="blurOut2" type="matrix" values="0 0 0 0 0 0 0 0 0 0 0 0 0 0 0 0 0 0 .4 0"/><feOffset dx="4.0" dy="4.0" in="blurOut2" result="blurOut3"/><feBlend in="SourceGraphic" in2="blurOut3" mode="normal"/></filter></defs><g><rect fill="#FEFECE" filter="url(#fiti4f1six5tc)" height="30.4883" style="stroke: #A80036; stroke-width: 1.5;" width="128" x="279.5" y="96.4883"/><text fill="#000000" font-family="sans-serif" font-size="14" lengthAdjust="spacingAndGlyphs" text-decoration="underline" textLength="114" x="286.5" y="117.0234">:UserInfoControl</text><line style="stroke: #000000; stroke-width: 1.0;" x1="286.5" x2="400.5" y1="119.0234" y2="119.0234"/><rect fill="#FFFFFF" filter="url(#fiti4f1six5tc)" height="147.5527" style="stroke: #000000; stroke-width: 2.0;" width="468.5" x="13" y="249.9082"/><rect fill="#FEFECE" filter="url(#fiti4f1six5tc)" height="30.4883" style="stroke: #A80036; stroke-width: 1.5;" width="49" x="450" y="433.7715"/><text fill="#000000" font-family="sans-serif" font-size="14" lengthAdjust="spacingAndGlyphs" text-decoration="underline" textLength="35" x="457" y="454.3066">:User</text><line style="stroke: #000000; stroke-width: 1.0;" x1="457" x2="492" y1="456.3066" y2="456.3066"/><rect fill="#FEFECE" filter="url(#fiti4f1six5tc)" height="30.4883" style="stroke: #A80036; stroke-width: 1.5;" width="171" x="513" y="550.8809"/><text fill="#000000" font-family="sans-serif" font-size="14" lengthAdjust="spacingAndGlyphs" text-decoration="underline" textLength="157" x="520" y="571.416">:LocalVSSManagerPage</text><line style="stroke: #000000; stroke-width: 1.0;" x1="520" x2="677" y1="573.416" y2="573.416"/><line style="stroke: #A80036; stroke-width: 1.0; stroke-dasharray: 5.0,5.0;" x1="41" x2="41" y1="86.4883" y2="606.3691"/><line style="stroke: #A80036; stroke-width: 1.0; stroke-dasharray: 5.0,5.0;" x1="177" x2="177" y1="86.4883" y2="606.3691"/><line style="stroke: #A80036; stroke-width: 1.0; stroke-dasharray: 5.0,5.0;" x1="345.5" x2="345.5" y1="129.2324" y2="606.3691"/><line style="stroke: #A80036; stroke-width: 1.0; stroke-dasharray: 5.0,5.0;" x1="476" x2="476" y1="466.5156" y2="606.3691"/><line style="stroke: #A80036; stroke-width: 1.0; stroke-dasharray: 5.0,5.0;" x1="600" x2="600" y1="583.625" y2="606.3691"/><text fill="#000000" font-family="sans-serif" font-size="14" lengthAdjust="spacingAndGlyphs" text-decoration="underline" textLength="31" x="23" y="83.5352">User</text><line style="stroke: #000000; stroke-width: 1.0;" x1="23" x2="54" y1="85.5352" y2="85.5352"/><ellipse cx="41.5" cy="13" fill="#FEFECE" filter="url(#fiti4f1six5tc)" rx="8" ry="8" style="stroke: #A80036; stroke-width: 2.0;"/><path d="M41.5,21 L41.5,48 M28.5,29 L54.5,29 M41.5,48 L28.5,63 M41.5,48 L54.5,63 " fill="none" filter="url(#fiti4f1six5tc)" style="stroke: #A80036; stroke-width: 2.0;"/><rect fill="#FEFECE" filter="url(#fiti4f1six5tc)" height="30.4883" style="stroke: #A80036; stroke-width: 1.5;" width="107" x="122" y="51"/><text fill="#000000" font-family="sans-serif" font-size="14" lengthAdjust="spacingAndGlyphs" text-decoration="underline" textLength="93" x="129" y="71.5352">:RegisterPage</text><line style="stroke: #000000; stroke-width: 1.0;" x1="129" x2="222" y1="73.5352" y2="73.5352"/><polygon fill="#A80036" points="267.5,113.4883,277.5,117.4883,267.5,121.4883,271.5,117.4883" style="stroke: #A80036; stroke-width: 1.0;"/><line style="stroke: #A80036; stroke-width: 1.0;" x1="177.5" x2="273.5" y1="117.4883" y2="117.4883"/><text fill="#000000" font-family="sans-serif" font-size="13" lengthAdjust="spacingAndGlyphs" textLength="78" x="184.5" y="113.0566">&lt;&lt;create&gt;&gt;</text><rect fill="#FEFECE" filter="url(#fiti4f1six5tc)" height="30.4883" style="stroke: #A80036; stroke-width: 1.5;" width="128" x="279.5" y="96.4883"/><text fill="#000000" font-family="sans-serif" font-size="14" lengthAdjust="spacingAndGlyphs" text-decoration="underline" textLength="114" x="286.5" y="117.0234">:UserInfoControl</text><line style="stroke: #000000; stroke-width: 1.0;" x1="286.5" x2="400.5" y1="119.0234" y2="119.0234"/><polygon fill="#A80036" points="165.5,158.9766,175.5,162.9766,165.5,166.9766,169.5,162.9766" style="stroke: #A80036; stroke-width: 1.0;"/><line style="stroke: #A80036; stroke-width: 1.0;" x1="41.5" x2="171.5" y1="162.9766" y2="162.9766"/><text fill="#000000" font-family="sans-serif" font-size="13" lengthAdjust="spacingAndGlyphs" textLength="112" x="48.5" y="158.5449">enterRegisterData</text><polygon fill="#A80036" points="333.5,188.2871,343.5,192.2871,333.5,196.2871,337.5,192.2871" style="stroke: #A80036; stroke-width: 1.0;"/><line style="stroke: #A80036; stroke-width: 1.0;" x1="177.5" x2="339.5" y1="192.2871" y2="192.2871"/><text fill="#000000" font-family="sans-serif" font-size="13" lengthAdjust="spacingAndGlyphs" textLength="110" x="184.5" y="187.8555">sendRegisterData</text><line style="stroke: #A80036; stroke-width: 1.0;" x1="345.5" x2="387.5" y1="221.9082" y2="221.9082"/><line style="stroke: #A80036; stroke-width: 1.0;" x1="387.5" x2="387.5" y1="221.9082" y2="234.9082"/><line style="stroke: #A80036; stroke-width: 1.0;" x1="346.5" x2="387.5" y1="234.9082" y2="234.9082"/><polygon fill="#A80036" points="356.5,230.9082,346.5,234.9082,356.5,238.9082,352.5,234.9082" style="stroke: #A80036; stroke-width: 1.0;"/><text fill="#000000" font-family="sans-serif" font-size="13" lengthAdjust="spacingAndGlyphs" textLength="117" x="352.5" y="217.166">checkRegisterData</text><path d="M13,249.9082 L87,249.9082 L87,256.9082 L77,266.9082 L13,266.9082 L13,249.9082 " fill="#EEEEEE" style="stroke: #000000; stroke-width: 1.0;"/><rect fill="none" height="147.5527" style="stroke: #000000; stroke-width: 2.0;" width="468.5" x="13" y="249.9082"/><text fill="#000000" font-family="sans-serif" font-size="13" font-weight="bold" lengthAdjust="spacingAndGlyphs" textLength="29" x="28" y="263.4766">loop</text><text fill="#000000" font-family="sans-serif" font-size="11" font-weight="bold" lengthAdjust="spacingAndGlyphs" textLength="76" x="102" y="262.543">[wrong input]</text><polygon fill="#A80036" points="188.5,284.2188,178.5,288.2188,188.5,292.2188,184.5,288.2188" style="stroke: #A80036; stroke-width: 1.0;"/><line style="stroke: #A80036; stroke-width: 1.0; stroke-dasharray: 2.0,2.0;" x1="182.5" x2="344.5" y1="288.2188" y2="288.2188"/><text fill="#000000" font-family="sans-serif" font-size="13" lengthAdjust="spacingAndGlyphs" textLength="117" x="194.5" y="283.7871">registerDataWrong</text><polygon fill="#A80036" points="165.5,313.5293,175.5,317.5293,165.5,321.5293,169.5,317.5293" style="stroke: #A80036; stroke-width: 1.0;"/><line style="stroke: #A80036; stroke-width: 1.0;" x1="41.5" x2="171.5" y1="317.5293" y2="317.5293"/><text fill="#000000" font-family="sans-serif" font-size="13" lengthAdjust="spacingAndGlyphs" textLength="112" x="48.5" y="313.0977">enterRegisterData</text><polygon fill="#A80036" points="333.5,342.8398,343.5,346.8398,333.5,350.8398,337.5,346.8398" style="stroke: #A80036; stroke-width: 1.0;"/><line style="stroke: #A80036; stroke-width: 1.0;" x1="177.5" x2="339.5" y1="346.8398" y2="346.8398"/><text fill="#000000" font-family="sans-serif" font-size="13" lengthAdjust="spacingAndGlyphs" textLength="110" x="184.5" y="342.4082">sendRegisterData</text><line style="stroke: #A80036; stroke-width: 1.0;" x1="345.5" x2="387.5" y1="376.4609" y2="376.4609"/><line style="stroke: #A80036; stroke-width: 1.0;" x1="387.5" x2="387.5" y1="376.4609" y2="389.4609"/><line style="stroke: #A80036; stroke-width: 1.0;" x1="346.5" x2="387.5" y1="389.4609" y2="389.4609"/><polygon fill="#A80036" points="356.5,385.4609,346.5,389.4609,356.5,393.4609,352.5,389.4609" style="stroke: #A80036; stroke-width: 1.0;"/><text fill="#000000" font-family="sans-serif" font-size="13" lengthAdjust="spacingAndGlyphs" textLength="117" x="352.5" y="371.7188">checkRegisterData</text><polygon fill="#A80036" points="188.5,421.4609,178.5,425.4609,188.5,429.4609,184.5,425.4609" style="stroke: #A80036; stroke-width: 1.0;"/><line style="stroke: #A80036; stroke-width: 1.0; stroke-dasharray: 2.0,2.0;" x1="182.5" x2="344.5" y1="425.4609" y2="425.4609"/><text fill="#000000" font-family="sans-serif" font-size="13" lengthAdjust="spacingAndGlyphs" textLength="98" x="194.5" y="421.0293">registerSuccess</text><polygon fill="#A80036" points="438,450.7715,448,454.7715,438,458.7715,442,454.7715" style="stroke: #A80036; stroke-width: 1.0;"/><line style="stroke: #A80036; stroke-width: 1.0;" x1="345.5" x2="444" y1="454.7715" y2="454.7715"/><text fill="#000000" font-family="sans-serif" font-size="13" lengthAdjust="spacingAndGlyphs" textLength="78" x="352.5" y="450.3398">&lt;&lt;create&gt;&gt;</text><rect fill="#FEFECE" filter="url(#fiti4f1six5tc)" height="30.4883" style="stroke: #A80036; stroke-width: 1.5;" width="49" x="450" y="433.7715"/><text fill="#000000" font-family="sans-serif" font-size="14" lengthAdjust="spacingAndGlyphs" text-decoration="underline" textLength="35" x="457" y="454.3066">:User</text><line style="stroke: #000000; stroke-width: 1.0;" x1="457" x2="492" y1="456.3066" y2="456.3066"/><line style="stroke: #A80036; stroke-width: 1.0;" x1="345.5" x2="387.5" y1="500.5703" y2="500.5703"/><line style="stroke: #A80036; stroke-width: 1.0;" x1="387.5" x2="387.5" y1="500.5703" y2="513.5703"/><line style="stroke: #A80036; stroke-width: 1.0;" x1="346.5" x2="387.5" y1="513.5703" y2="513.5703"/><polygon fill="#A80036" points="356.5,509.5703,346.5,513.5703,356.5,517.5703,352.5,513.5703" style="stroke: #A80036; stroke-width: 1.0;"/><text fill="#000000" font-family="sans-serif" font-size="13" lengthAdjust="spacingAndGlyphs" textLength="94" x="352.5" y="495.8281">setCurrentUser</text><polygon fill="#A80036" points="188.5,538.5703,178.5,542.5703,188.5,546.5703,184.5,542.5703" style="stroke: #A80036; stroke-width: 1.0;"/><line style="stroke: #A80036; stroke-width: 1.0;" x1="182.5" x2="344.5" y1="542.5703" y2="542.5703"/><text fill="#000000" font-family="sans-serif" font-size="13" lengthAdjust="spacingAndGlyphs" textLength="87" x="194.5" y="538.1387">&lt;&lt;destroy&gt;&gt;</text><line style="stroke: #A80036; stroke-width: 2.0;" x1="168.5" x2="186.5" y1="533.5703" y2="551.5703"/><line style="stroke: #A80036; stroke-width: 2.0;" x1="168.5" x2="186.5" y1="551.5703" y2="533.5703"/><polygon fill="#A80036" points="501,567.8809,511,571.8809,501,575.8809,505,571.8809" style="stroke: #A80036; stroke-width: 1.0;"/><line style="stroke: #A80036; stroke-width: 1.0;" x1="345.5" x2="507" y1="571.8809" y2="571.8809"/><text fill="#000000" font-family="sans-serif" font-size="13" lengthAdjust="spacingAndGlyphs" textLength="78" x="352.5" y="567.4492">&lt;&lt;create&gt;&gt;</text><rect fill="#FEFECE" filter="url(#fiti4f1six5tc)" height="30.4883" style="stroke: #A80036; stroke-width: 1.5;" width="171" x="513" y="550.8809"/><text fill="#000000" font-family="sans-serif" font-size="14" lengthAdjust="spacingAndGlyphs" text-decoration="underline" textLength="157" x="520" y="571.416">:LocalVSSManagerPage</text><line style="stroke: #000000; stroke-width: 1.0;" x1="520" x2="677" y1="573.416" y2="573.416"/><line style="stroke: #A80036; stroke-width: 2.0;" x1="336.5" x2="354.5" y1="562.8809" y2="580.8809"/><line style="stroke: #A80036; stroke-width: 2.0;" x1="336.5" x2="354.5" y1="580.8809" y2="562.8809"/><!--
@startuml
hide footbox
skinparam sequenceParticipant underline

actor User as user
participant ":RegisterPage" as boundary
participant ":UserInfoControl" as control
participant ":User" as userdata
participant ":LocalVSSManagerPage" as nextpage

create control
boundary -> control: <<create>>
user -> boundary: enterRegisterData
boundary -> control: sendRegisterData
control -> control: checkRegisterData
loop wrong input
    control - -> boundary: registerDataWrong
    user -> boundary: enterRegisterData
    boundary -> control: sendRegisterData
    control -> control: checkRegisterData
end
control - -> boundary: registerSuccess
create userdata
control -> userdata: <<create>>
control -> control: setCurrentUser
control -> boundary: <<destroy>>
destroy boundary
create nextpage
control -> nextpage: <<create>>
destroy control
@enduml

PlantUML version 1.2018.01(Mon Jan 29 02:08:22 CST 2018)
(GPL source distribution)
Java Runtime: Java(TM) SE Runtime Environment
JVM: Java HotSpot(TM) 64-Bit Server VM
Java Version: 9+181
Operating System: Mac OS X
OS Version: 10.12.6
Default Encoding: UTF-8
Language: zh
Country: CN
--></g></svg>