<?xml version="1.0" encoding="UTF-8" standalone="no"?><svg xmlns="http://www.w3.org/2000/svg" xmlns:xlink="http://www.w3.org/1999/xlink" contentScriptType="application/ecmascript" contentStyleType="text/css" height="340px" preserveAspectRatio="none" style="width:445px;height:340px;" version="1.1" viewBox="0 0 445 340"
    width="445px" zoomAndPan="magnify"><defs><filter height="300%" id="f138y4dmyqn9zy" width="300%" x="-1" y="-1"><feGaussianBlur result="blurOut" stdDeviation="2.0"/><feColorMatrix in="blurOut" result="blurOut2" type="matrix" values="0 0 0 0 0 0 0 0 0 0 0 0 0 0 0 0 0 0 .4 0"/><feOffset dx="4.0" dy="4.0" in="blurOut2" result="blurOut3"/><feBlend in="SourceGraphic" in2="blurOut3" mode="normal"/></filter></defs><g><rect fill="#FFFFFF" filter="url(#f138y4dmyqn9zy)" height="138.2422" style="stroke: #A80036; stroke-width: 1.0;" width="10" x="23.5" y="96.4883"/><rect fill="#FFFFFF" filter="url(#f138y4dmyqn9zy)" height="138.2422" style="stroke: #A80036; stroke-width: 1.0;" width="10" x="203.5" y="96.4883"/><rect fill="#FFFFFF" filter="url(#f138y4dmyqn9zy)" height="117.2422" style="stroke: #A80036; stroke-width: 1.0;" width="10" x="313" y="117.4883"/><rect fill="#FFFFFF" filter="url(#f138y4dmyqn9zy)" height="29.3105" style="stroke: #A80036; stroke-width: 1.0;" width="10" x="406" y="205.4199"/><line style="stroke: #A80036; stroke-width: 1.0; stroke-dasharray: 5.0,5.0;" x1="28" x2="28" y1="86.4883" y2="253.041"/><line style="stroke: #A80036; stroke-width: 1.0; stroke-dasharray: 5.0,5.0;" x1="208.5" x2="208.5" y1="86.4883" y2="253.041"/><line style="stroke: #A80036; stroke-width: 1.0; stroke-dasharray: 5.0,5.0;" x1="317.5" x2="317.5" y1="86.4883" y2="253.041"/><line style="stroke: #A80036; stroke-width: 1.0; stroke-dasharray: 5.0,5.0;" x1="410.5" x2="410.5" y1="86.4883" y2="253.041"/><text fill="#000000" font-family="sans-serif" font-size="14" lengthAdjust="spacingAndGlyphs" textLength="4" x="8" y="83.5352">:</text><text fill="#000000" font-family="sans-serif" font-size="14" lengthAdjust="spacingAndGlyphs" text-decoration="underline" textLength="31" x="12" y="83.5352">User</text><line style="stroke: #000000; stroke-width: 1.0;" x1="12" x2="43" y1="85.5352" y2="85.5352"/><ellipse cx="28.5" cy="13" fill="#FEFECE" filter="url(#f138y4dmyqn9zy)" rx="8" ry="8" style="stroke: #A80036; stroke-width: 2.0;"/><path d="M28.5,21 L28.5,48 M15.5,29 L41.5,29 M28.5,48 L15.5,63 M28.5,48 L41.5,63 " fill="none" filter="url(#f138y4dmyqn9zy)" style="stroke: #A80036; stroke-width: 2.0;"/><text fill="#000000" font-family="sans-serif" font-size="14" lengthAdjust="spacingAndGlyphs" textLength="4" x="8" y="265.5762">:</text><text fill="#000000" font-family="sans-serif" font-size="14" lengthAdjust="spacingAndGlyphs" text-decoration="underline" textLength="31" x="12" y="265.5762">User</text><line style="stroke: #000000; stroke-width: 1.0;" x1="12" x2="43" y1="267.5762" y2="267.5762"/><ellipse cx="28.5" cy="278.5293" fill="#FEFECE" filter="url(#f138y4dmyqn9zy)" rx="8" ry="8" style="stroke: #A80036; stroke-width: 2.0;"/><path d="M28.5,286.5293 L28.5,313.5293 M15.5,294.5293 L41.5,294.5293 M28.5,313.5293 L15.5,328.5293 M28.5,313.5293 L41.5,328.5293 " fill="none" filter="url(#f138y4dmyqn9zy)" style="stroke: #A80036; stroke-width: 2.0;"/><text fill="#000000" font-family="sans-serif" font-size="14" lengthAdjust="spacingAndGlyphs" textLength="4" x="163.5" y="83.5352">:</text><text fill="#000000" font-family="sans-serif" font-size="14" lengthAdjust="spacingAndGlyphs" text-decoration="underline" textLength="80" x="167.5" y="83.5352">SensorPage</text><line style="stroke: #000000; stroke-width: 1.0;" x1="167.5" x2="247.5" y1="85.5352" y2="85.5352"/><path d="M188,42 L188,66 M188,54 L205,54 " fill="none" filter="url(#f138y4dmyqn9zy)" style="stroke: #A80036; stroke-width: 2.0;"/><ellipse cx="217" cy="54" fill="#FEFECE" filter="url(#f138y4dmyqn9zy)" rx="12" ry="12" style="stroke: #A80036; stroke-width: 2.0;"/><text fill="#000000" font-family="sans-serif" font-size="14" lengthAdjust="spacingAndGlyphs" textLength="4" x="163.5" y="265.5762">:</text><text fill="#000000" font-family="sans-serif" font-size="14" lengthAdjust="spacingAndGlyphs" text-decoration="underline" textLength="80" x="167.5" y="265.5762">SensorPage</text><line style="stroke: #000000; stroke-width: 1.0;" x1="167.5" x2="247.5" y1="267.5762" y2="267.5762"/><path d="M188,272.5293 L188,296.5293 M188,284.5293 L205,284.5293 " fill="none" filter="url(#f138y4dmyqn9zy)" style="stroke: #A80036; stroke-width: 2.0;"/><ellipse cx="217" cy="284.5293" fill="#FEFECE" filter="url(#f138y4dmyqn9zy)" rx="12" ry="12" style="stroke: #A80036; stroke-width: 2.0;"/><text fill="#000000" font-family="sans-serif" font-size="14" lengthAdjust="spacingAndGlyphs" textLength="4" x="263.5" y="83.5352">:</text><text fill="#000000" font-family="sans-serif" font-size="14" lengthAdjust="spacingAndGlyphs" text-decoration="underline" textLength="99" x="267.5" y="83.5352">SensorControl</text><line style="stroke: #000000; stroke-width: 1.0;" x1="267.5" x2="366.5" y1="85.5352" y2="85.5352"/><ellipse cx="318" cy="54" fill="#FEFECE" filter="url(#f138y4dmyqn9zy)" rx="12" ry="12" style="stroke: #A80036; stroke-width: 2.0;"/><polygon fill="#A80036" points="314,42,320,37,318,42,320,47,314,42" style="stroke: #A80036; stroke-width: 1.0;"/><text fill="#000000" font-family="sans-serif" font-size="14" lengthAdjust="spacingAndGlyphs" textLength="4" x="263.5" y="265.5762">:</text><text fill="#000000" font-family="sans-serif" font-size="14" lengthAdjust="spacingAndGlyphs" text-decoration="underline" textLength="99" x="267.5" y="265.5762">SensorControl</text><line style="stroke: #000000; stroke-width: 1.0;" x1="267.5" x2="366.5" y1="267.5762" y2="267.5762"/><ellipse cx="318" cy="284.5293" fill="#FEFECE" filter="url(#f138y4dmyqn9zy)" rx="12" ry="12" style="stroke: #A80036; stroke-width: 2.0;"/><polygon fill="#A80036" points="314,272.5293,320,267.5293,318,272.5293,320,277.5293,314,272.5293" style="stroke: #A80036; stroke-width: 1.0;"/><text fill="#000000" font-family="sans-serif" font-size="14" lengthAdjust="spacingAndGlyphs" textLength="4" x="382.5" y="83.5352">:</text><text fill="#000000" font-family="sans-serif" font-size="14" lengthAdjust="spacingAndGlyphs" text-decoration="underline" textLength="47" x="386.5" y="83.5352">Sensor</text><line style="stroke: #000000; stroke-width: 1.0;" x1="386.5" x2="433.5" y1="85.5352" y2="85.5352"/><ellipse cx="411" cy="54" fill="#FEFECE" filter="url(#f138y4dmyqn9zy)" rx="12" ry="12" style="stroke: #A80036; stroke-width: 2.0;"/><line style="stroke: #A80036; stroke-width: 2.0;" x1="399" x2="423" y1="68" y2="68"/><text fill="#000000" font-family="sans-serif" font-size="14" lengthAdjust="spacingAndGlyphs" textLength="4" x="382.5" y="265.5762">:</text><text fill="#000000" font-family="sans-serif" font-size="14" lengthAdjust="spacingAndGlyphs" text-decoration="underline" textLength="47" x="386.5" y="265.5762">Sensor</text><line style="stroke: #000000; stroke-width: 1.0;" x1="386.5" x2="433.5" y1="267.5762" y2="267.5762"/><ellipse cx="411" cy="284.5293" fill="#FEFECE" filter="url(#f138y4dmyqn9zy)" rx="12" ry="12" style="stroke: #A80036; stroke-width: 2.0;"/><line style="stroke: #A80036; stroke-width: 2.0;" x1="399" x2="423" y1="298.5293" y2="298.5293"/><rect fill="#FFFFFF" filter="url(#f138y4dmyqn9zy)" height="138.2422" style="stroke: #A80036; stroke-width: 1.0;" width="10" x="23.5" y="96.4883"/><rect fill="#FFFFFF" filter="url(#f138y4dmyqn9zy)" height="138.2422" style="stroke: #A80036; stroke-width: 1.0;" width="10" x="203.5" y="96.4883"/><rect fill="#FFFFFF" filter="url(#f138y4dmyqn9zy)" height="117.2422" style="stroke: #A80036; stroke-width: 1.0;" width="10" x="313" y="117.4883"/><rect fill="#FFFFFF" filter="url(#f138y4dmyqn9zy)" height="29.3105" style="stroke: #A80036; stroke-width: 1.0;" width="10" x="406" y="205.4199"/><polygon fill="#A80036" points="301,113.4883,311,117.4883,301,121.4883,305,117.4883" style="stroke: #A80036; stroke-width: 1.0;"/><line style="stroke: #A80036; stroke-width: 1.0;" x1="213.5" x2="307" y1="117.4883" y2="117.4883"/><text fill="#000000" font-family="sans-serif" font-size="13" lengthAdjust="spacingAndGlyphs" textLength="78" x="220.5" y="113.0566">&lt;&lt;create&gt;&gt;</text><polygon fill="#A80036" points="44.5,142.7988,34.5,146.7988,44.5,150.7988,40.5,146.7988" style="stroke: #A80036; stroke-width: 1.0;"/><line style="stroke: #A80036; stroke-width: 1.0;" x1="38.5" x2="202.5" y1="146.7988" y2="146.7988"/><text fill="#000000" font-family="sans-serif" font-size="13" lengthAdjust="spacingAndGlyphs" textLength="146" x="50.5" y="142.3672">SystemRemindMessage</text><polygon fill="#A80036" points="191.5,172.1094,201.5,176.1094,191.5,180.1094,195.5,176.1094" style="stroke: #A80036; stroke-width: 1.0;"/><line style="stroke: #A80036; stroke-width: 1.0;" x1="33.5" x2="197.5" y1="176.1094" y2="176.1094"/><text fill="#000000" font-family="sans-serif" font-size="13" lengthAdjust="spacingAndGlyphs" textLength="83" x="40.5" y="171.6777">AdjustSensor</text><polygon fill="#A80036" points="394,201.4199,404,205.4199,394,209.4199,398,205.4199" style="stroke: #A80036; stroke-width: 1.0;"/><line style="stroke: #A80036; stroke-width: 1.0;" x1="323" x2="400" y1="205.4199" y2="205.4199"/><text fill="#000000" font-family="sans-serif" font-size="13" lengthAdjust="spacingAndGlyphs" textLength="41" x="330" y="200.9883">Adjust</text><polygon fill="#A80036" points="329,230.7305,319,234.7305,329,238.7305,325,234.7305" style="stroke: #A80036; stroke-width: 1.0;"/><line style="stroke: #A80036; stroke-width: 1.0;" x1="323" x2="410" y1="234.7305" y2="234.7305"/><text fill="#000000" font-family="sans-serif" font-size="13" lengthAdjust="spacingAndGlyphs" textLength="41" x="335" y="230.2988">Adjust</text><!--
@startuml
actor ":__User__" as User
boundary ":__SensorPage__" as SensorPage
control ":__SensorControl__" as SensorControl
entity ":__Sensor__" as Sensor

activate User
activate SensorPage
SensorPage -> SensorControl: <<create>>
activate SensorControl
SensorPage -> User: SystemRemindMessage
User -> SensorPage: AdjustSensor
SensorControl -> Sensor: Adjust
activate Sensor
Sensor -> SensorControl: Adjust
deactivate Sensor
deactivate SensorControl
deactivate SensorPage
deactivate User
@enduml

PlantUML version 1.2018.01(Mon Jan 29 02:08:22 CST 2018)
(GPL source distribution)
Java Runtime: Java(TM) SE Runtime Environment
JVM: Java HotSpot(TM) 64-Bit Server VM
Java Version: 9+181
Operating System: Mac OS X
OS Version: 10.12.6
Default Encoding: UTF-8
Language: zh
Country: CN
--></g></svg>