<?xml version="1.0" encoding="UTF-8" standalone="no"?><svg xmlns="http://www.w3.org/2000/svg" xmlns:xlink="http://www.w3.org/1999/xlink" contentScriptType="application/ecmascript" contentStyleType="text/css" height="372px" preserveAspectRatio="none" style="width:609px;height:372px;" version="1.1" viewBox="0 0 609 372"
    width="609px" zoomAndPan="magnify"><defs><filter height="300%" id="f8467b6gmrs5m" width="300%" x="-1" y="-1"><feGaussianBlur result="blurOut" stdDeviation="2.0"/><feColorMatrix in="blurOut" result="blurOut2" type="matrix" values="0 0 0 0 0 0 0 0 0 0 0 0 0 0 0 0 0 0 .4 0"/><feOffset dx="4.0" dy="4.0" in="blurOut2" result="blurOut3"/><feBlend in="SourceGraphic" in2="blurOut3" mode="normal"/></filter></defs><g><rect fill="#FFFFFF" filter="url(#f8467b6gmrs5m)" height="119.2422" style="stroke: #A80036; stroke-width: 1.0;" width="10" x="38.5" y="96.4883"/><rect fill="#FFFFFF" filter="url(#f8467b6gmrs5m)" height="119.2422" style="stroke: #A80036; stroke-width: 1.0;" width="10" x="151.5" y="96.4883"/><rect fill="#FFFFFF" filter="url(#f8467b6gmrs5m)" height="149.2422" style="stroke: #A80036; stroke-width: 1.0;" width="10" x="327.5" y="117.4883"/><rect fill="#FFFFFF" filter="url(#f8467b6gmrs5m)" height="30" style="stroke: #A80036; stroke-width: 1.0;" width="10" x="510" y="236.7305"/><rect fill="#FFFFFF" filter="url(#f8467b6gmrs5m)" height="46.6211" style="stroke: #000000; stroke-width: 2.0;" width="235" x="13" y="162.1094"/><line style="stroke: #A80036; stroke-width: 1.0; stroke-dasharray: 5.0,5.0;" x1="43" x2="43" y1="86.4883" y2="285.041"/><line style="stroke: #A80036; stroke-width: 1.0; stroke-dasharray: 5.0,5.0;" x1="156" x2="156" y1="86.4883" y2="285.041"/><line style="stroke: #A80036; stroke-width: 1.0; stroke-dasharray: 5.0,5.0;" x1="332" x2="332" y1="86.4883" y2="285.041"/><line style="stroke: #A80036; stroke-width: 1.0; stroke-dasharray: 5.0,5.0;" x1="515" x2="515" y1="86.4883" y2="285.041"/><text fill="#000000" font-family="sans-serif" font-size="14" lengthAdjust="spacingAndGlyphs" textLength="4" x="23" y="83.5352">:</text><text fill="#000000" font-family="sans-serif" font-size="14" lengthAdjust="spacingAndGlyphs" text-decoration="underline" textLength="31" x="27" y="83.5352">User</text><line style="stroke: #000000; stroke-width: 1.0;" x1="27" x2="58" y1="85.5352" y2="85.5352"/><ellipse cx="43.5" cy="13" fill="#FEFECE" filter="url(#f8467b6gmrs5m)" rx="8" ry="8" style="stroke: #A80036; stroke-width: 2.0;"/><path d="M43.5,21 L43.5,48 M30.5,29 L56.5,29 M43.5,48 L30.5,63 M43.5,48 L56.5,63 " fill="none" filter="url(#f8467b6gmrs5m)" style="stroke: #A80036; stroke-width: 2.0;"/><text fill="#000000" font-family="sans-serif" font-size="14" lengthAdjust="spacingAndGlyphs" textLength="4" x="23" y="297.5762">:</text><text fill="#000000" font-family="sans-serif" font-size="14" lengthAdjust="spacingAndGlyphs" text-decoration="underline" textLength="31" x="27" y="297.5762">User</text><line style="stroke: #000000; stroke-width: 1.0;" x1="27" x2="58" y1="299.5762" y2="299.5762"/><ellipse cx="43.5" cy="310.5293" fill="#FEFECE" filter="url(#f8467b6gmrs5m)" rx="8" ry="8" style="stroke: #A80036; stroke-width: 2.0;"/><path d="M43.5,318.5293 L43.5,345.5293 M30.5,326.5293 L56.5,326.5293 M43.5,345.5293 L30.5,360.5293 M43.5,345.5293 L56.5,360.5293 " fill="none" filter="url(#f8467b6gmrs5m)" style="stroke: #A80036; stroke-width: 2.0;"/><text fill="#000000" font-family="sans-serif" font-size="14" lengthAdjust="spacingAndGlyphs" textLength="4" x="75" y="83.5352">:</text><text fill="#000000" font-family="sans-serif" font-size="14" lengthAdjust="spacingAndGlyphs" text-decoration="underline" textLength="153" x="79" y="83.5352">LocalVSSManagerPage</text><line style="stroke: #000000; stroke-width: 1.0;" x1="79" x2="232" y1="85.5352" y2="85.5352"/><path d="M136,42 L136,66 M136,54 L153,54 " fill="none" filter="url(#f8467b6gmrs5m)" style="stroke: #A80036; stroke-width: 2.0;"/><ellipse cx="165" cy="54" fill="#FEFECE" filter="url(#f8467b6gmrs5m)" rx="12" ry="12" style="stroke: #A80036; stroke-width: 2.0;"/><text fill="#000000" font-family="sans-serif" font-size="14" lengthAdjust="spacingAndGlyphs" textLength="4" x="75" y="297.5762">:</text><text fill="#000000" font-family="sans-serif" font-size="14" lengthAdjust="spacingAndGlyphs" text-decoration="underline" textLength="153" x="79" y="297.5762">LocalVSSManagerPage</text><line style="stroke: #000000; stroke-width: 1.0;" x1="79" x2="232" y1="299.5762" y2="299.5762"/><path d="M136,304.5293 L136,328.5293 M136,316.5293 L153,316.5293 " fill="none" filter="url(#f8467b6gmrs5m)" style="stroke: #A80036; stroke-width: 2.0;"/><ellipse cx="165" cy="316.5293" fill="#FEFECE" filter="url(#f8467b6gmrs5m)" rx="12" ry="12" style="stroke: #A80036; stroke-width: 2.0;"/><text fill="#000000" font-family="sans-serif" font-size="14" lengthAdjust="spacingAndGlyphs" textLength="4" x="248" y="83.5352">:</text><text fill="#000000" font-family="sans-serif" font-size="14" lengthAdjust="spacingAndGlyphs" text-decoration="underline" textLength="159" x="252" y="83.5352">LocalVSSLibraryControl</text><line style="stroke: #000000; stroke-width: 1.0;" x1="252" x2="411" y1="85.5352" y2="85.5352"/><ellipse cx="332.5" cy="54" fill="#FEFECE" filter="url(#f8467b6gmrs5m)" rx="12" ry="12" style="stroke: #A80036; stroke-width: 2.0;"/><polygon fill="#A80036" points="328.5,42,334.5,37,332.5,42,334.5,47,328.5,42" style="stroke: #A80036; stroke-width: 1.0;"/><text fill="#000000" font-family="sans-serif" font-size="14" lengthAdjust="spacingAndGlyphs" textLength="4" x="248" y="297.5762">:</text><text fill="#000000" font-family="sans-serif" font-size="14" lengthAdjust="spacingAndGlyphs" text-decoration="underline" textLength="159" x="252" y="297.5762">LocalVSSLibraryControl</text><line style="stroke: #000000; stroke-width: 1.0;" x1="252" x2="411" y1="299.5762" y2="299.5762"/><ellipse cx="332.5" cy="316.5293" fill="#FEFECE" filter="url(#f8467b6gmrs5m)" rx="12" ry="12" style="stroke: #A80036; stroke-width: 2.0;"/><polygon fill="#A80036" points="328.5,304.5293,334.5,299.5293,332.5,304.5293,334.5,309.5293,328.5,304.5293" style="stroke: #A80036; stroke-width: 1.0;"/><text fill="#000000" font-family="sans-serif" font-size="14" lengthAdjust="spacingAndGlyphs" textLength="4" x="427" y="83.5352">:</text><text fill="#000000" font-family="sans-serif" font-size="14" lengthAdjust="spacingAndGlyphs" text-decoration="underline" textLength="166" x="431" y="83.5352">LocalSoundSpaceLibrary</text><line style="stroke: #000000; stroke-width: 1.0;" x1="431" x2="597" y1="85.5352" y2="85.5352"/><ellipse cx="515" cy="54" fill="#FEFECE" filter="url(#f8467b6gmrs5m)" rx="12" ry="12" style="stroke: #A80036; stroke-width: 2.0;"/><line style="stroke: #A80036; stroke-width: 2.0;" x1="503" x2="527" y1="68" y2="68"/><text fill="#000000" font-family="sans-serif" font-size="14" lengthAdjust="spacingAndGlyphs" textLength="4" x="427" y="297.5762">:</text><text fill="#000000" font-family="sans-serif" font-size="14" lengthAdjust="spacingAndGlyphs" text-decoration="underline" textLength="166" x="431" y="297.5762">LocalSoundSpaceLibrary</text><line style="stroke: #000000; stroke-width: 1.0;" x1="431" x2="597" y1="299.5762" y2="299.5762"/><ellipse cx="515" cy="316.5293" fill="#FEFECE" filter="url(#f8467b6gmrs5m)" rx="12" ry="12" style="stroke: #A80036; stroke-width: 2.0;"/><line style="stroke: #A80036; stroke-width: 2.0;" x1="503" x2="527" y1="330.5293" y2="330.5293"/><rect fill="#FFFFFF" filter="url(#f8467b6gmrs5m)" height="119.2422" style="stroke: #A80036; stroke-width: 1.0;" width="10" x="38.5" y="96.4883"/><rect fill="#FFFFFF" filter="url(#f8467b6gmrs5m)" height="119.2422" style="stroke: #A80036; stroke-width: 1.0;" width="10" x="151.5" y="96.4883"/><rect fill="#FFFFFF" filter="url(#f8467b6gmrs5m)" height="149.2422" style="stroke: #A80036; stroke-width: 1.0;" width="10" x="327.5" y="117.4883"/><rect fill="#FFFFFF" filter="url(#f8467b6gmrs5m)" height="30" style="stroke: #A80036; stroke-width: 1.0;" width="10" x="510" y="236.7305"/><polygon fill="#A80036" points="315.5,113.4883,325.5,117.4883,315.5,121.4883,319.5,117.4883" style="stroke: #A80036; stroke-width: 1.0;"/><line style="stroke: #A80036; stroke-width: 1.0;" x1="161.5" x2="321.5" y1="117.4883" y2="117.4883"/><text fill="#000000" font-family="sans-serif" font-size="13" lengthAdjust="spacingAndGlyphs" textLength="78" x="168.5" y="113.0566">&lt;&lt;create&gt;&gt;</text><polygon fill="#A80036" points="139.5,142.7988,149.5,146.7988,139.5,150.7988,143.5,146.7988" style="stroke: #A80036; stroke-width: 1.0;"/><line style="stroke: #A80036; stroke-width: 1.0;" x1="48.5" x2="145.5" y1="146.7988" y2="146.7988"/><text fill="#000000" font-family="sans-serif" font-size="13" lengthAdjust="spacingAndGlyphs" textLength="79" x="55.5" y="142.3672">RenameVSS()</text><path d="M13,162.1094 L87,162.1094 L87,169.1094 L77,179.1094 L13,179.1094 L13,162.1094 " fill="#EEEEEE" style="stroke: #000000; stroke-width: 1.0;"/><rect fill="none" height="46.6211" style="stroke: #000000; stroke-width: 2.0;" width="235" x="13" y="162.1094"/><text fill="#000000" font-family="sans-serif" font-size="13" font-weight="bold" lengthAdjust="spacingAndGlyphs" textLength="29" x="28" y="175.6777">loop</text><text fill="#000000" font-family="sans-serif" font-size="11" font-weight="bold" lengthAdjust="spacingAndGlyphs" textLength="47" x="102" y="174.7441">[invalid]</text><polygon fill="#A80036" points="139.5,196.4199,149.5,200.4199,139.5,204.4199,143.5,200.4199" style="stroke: #A80036; stroke-width: 1.0;"/><line style="stroke: #A80036; stroke-width: 1.0;" x1="48.5" x2="145.5" y1="200.4199" y2="200.4199"/><text fill="#000000" font-family="sans-serif" font-size="13" lengthAdjust="spacingAndGlyphs" textLength="79" x="55.5" y="195.9883">RenameVSS()</text><polygon fill="#A80036" points="498,232.7305,508,236.7305,498,240.7305,502,236.7305" style="stroke: #A80036; stroke-width: 1.0;"/><line style="stroke: #A80036; stroke-width: 1.0;" x1="337.5" x2="504" y1="236.7305" y2="236.7305"/><text fill="#000000" font-family="sans-serif" font-size="13" lengthAdjust="spacingAndGlyphs" textLength="71" x="344.5" y="232.2988">RenameVSS</text><!--
@startuml
actor ":__User__" as User
boundary ":__LocalVSSManagerPage__" as LocalVSSManagerPage
control ":__LocalVSSLibraryControl__" as LocalVSSLibraryControl
entity ":__LocalSoundSpaceLibrary__" as LocalSoundSpaceLibrary

activate User
activate LocalVSSManagerPage
LocalVSSManagerPage -> LocalVSSLibraryControl: <<create>>
activate LocalVSSLibraryControl
User -> LocalVSSManagerPage: RenameVSS()
loop invalid
    User -> LocalVSSManagerPage: RenameVSS()
end
deactivate User
deactivate LocalVSSManagerPage
LocalVSSLibraryControl -> LocalSoundSpaceLibrary: RenameVSS
activate LocalSoundSpaceLibrary
deactivate LocalSoundSpaceLibrary
deactivate LocalVSSLibraryControl
@enduml

PlantUML version 1.2018.01(Mon Jan 29 02:08:22 CST 2018)
(GPL source distribution)
Java Runtime: Java(TM) SE Runtime Environment
JVM: Java HotSpot(TM) 64-Bit Server VM
Java Version: 9+181
Operating System: Mac OS X
OS Version: 10.12.6
Default Encoding: UTF-8
Language: zh
Country: CN
--></g></svg>