<?xml version="1.0" encoding="UTF-8" standalone="no"?><svg xmlns="http://www.w3.org/2000/svg" xmlns:xlink="http://www.w3.org/1999/xlink" contentScriptType="application/ecmascript" contentStyleType="text/css" height="691px" preserveAspectRatio="none" style="width:676px;height:691px;" version="1.1" viewBox="0 0 676 691"
    width="676px" zoomAndPan="magnify"><defs><filter height="300%" id="foujs8crez9og" width="300%" x="-1" y="-1"><feGaussianBlur result="blurOut" stdDeviation="2.0"/><feColorMatrix in="blurOut" result="blurOut2" type="matrix" values="0 0 0 0 0 0 0 0 0 0 0 0 0 0 0 0 0 0 .4 0"/><feOffset dx="4.0" dy="4.0" in="blurOut2" result="blurOut3"/><feBlend in="SourceGraphic" in2="blurOut3" mode="normal"/></filter></defs><g><rect fill="#FEFECE" filter="url(#foujs8crez9og)" height="30.4883" style="stroke: #A80036; stroke-width: 1.5;" width="128" x="263.5" y="96.4883"/><text fill="#000000" font-family="sans-serif" font-size="14" lengthAdjust="spacingAndGlyphs" text-decoration="underline" textLength="114" x="270.5" y="117.0234">:UserInfoControl</text><line style="stroke: #000000; stroke-width: 1.0;" x1="270.5" x2="384.5" y1="119.0234" y2="119.0234"/><rect fill="#FFFFFF" filter="url(#foujs8crez9og)" height="147.5527" style="stroke: #000000; stroke-width: 2.0;" width="436.5" x="13" y="249.9082"/><rect fill="#FEFECE" filter="url(#foujs8crez9og)" height="30.4883" style="stroke: #A80036; stroke-width: 1.5;" width="49" x="431.5" y="433.7715"/><text fill="#000000" font-family="sans-serif" font-size="14" lengthAdjust="spacingAndGlyphs" text-decoration="underline" textLength="35" x="438.5" y="454.3066">:User</text><line style="stroke: #000000; stroke-width: 1.0;" x1="438.5" x2="473.5" y1="456.3066" y2="456.3066"/><rect fill="#FFFFFF" filter="url(#foujs8crez9og)" height="59.6211" style="stroke: #000000; stroke-width: 2.0;" width="217" x="253.5" y="528.5703"/><rect fill="#FEFECE" filter="url(#foujs8crez9og)" height="30.4883" style="stroke: #A80036; stroke-width: 1.5;" width="171" x="494.5" y="624.502"/><text fill="#000000" font-family="sans-serif" font-size="14" lengthAdjust="spacingAndGlyphs" text-decoration="underline" textLength="157" x="501.5" y="645.0371">:LocalVSSManagerPage</text><line style="stroke: #000000; stroke-width: 1.0;" x1="501.5" x2="658.5" y1="647.0371" y2="647.0371"/><line style="stroke: #A80036; stroke-width: 1.0; stroke-dasharray: 5.0,5.0;" x1="41" x2="41" y1="86.4883" y2="679.9902"/><line style="stroke: #A80036; stroke-width: 1.0; stroke-dasharray: 5.0,5.0;" x1="161" x2="161" y1="86.4883" y2="679.9902"/><line style="stroke: #A80036; stroke-width: 1.0; stroke-dasharray: 5.0,5.0;" x1="329.5" x2="329.5" y1="129.2324" y2="679.9902"/><line style="stroke: #A80036; stroke-width: 1.0; stroke-dasharray: 5.0,5.0;" x1="457.5" x2="457.5" y1="466.5156" y2="679.9902"/><line style="stroke: #A80036; stroke-width: 1.0; stroke-dasharray: 5.0,5.0;" x1="581.5" x2="581.5" y1="657.2461" y2="679.9902"/><text fill="#000000" font-family="sans-serif" font-size="14" lengthAdjust="spacingAndGlyphs" text-decoration="underline" textLength="31" x="23" y="83.5352">User</text><line style="stroke: #000000; stroke-width: 1.0;" x1="23" x2="54" y1="85.5352" y2="85.5352"/><ellipse cx="41.5" cy="13" fill="#FEFECE" filter="url(#foujs8crez9og)" rx="8" ry="8" style="stroke: #A80036; stroke-width: 2.0;"/><path d="M41.5,21 L41.5,48 M28.5,29 L54.5,29 M41.5,48 L28.5,63 M41.5,48 L54.5,63 " fill="none" filter="url(#foujs8crez9og)" style="stroke: #A80036; stroke-width: 2.0;"/><rect fill="#FEFECE" filter="url(#foujs8crez9og)" height="30.4883" style="stroke: #A80036; stroke-width: 1.5;" width="89" x="115" y="51"/><text fill="#000000" font-family="sans-serif" font-size="14" lengthAdjust="spacingAndGlyphs" text-decoration="underline" textLength="75" x="122" y="71.5352">:LoginPage</text><line style="stroke: #000000; stroke-width: 1.0;" x1="122" x2="197" y1="73.5352" y2="73.5352"/><polygon fill="#A80036" points="251.5,113.4883,261.5,117.4883,251.5,121.4883,255.5,117.4883" style="stroke: #A80036; stroke-width: 1.0;"/><line style="stroke: #A80036; stroke-width: 1.0;" x1="161.5" x2="257.5" y1="117.4883" y2="117.4883"/><text fill="#000000" font-family="sans-serif" font-size="13" lengthAdjust="spacingAndGlyphs" textLength="78" x="168.5" y="113.0566">&lt;&lt;create&gt;&gt;</text><rect fill="#FEFECE" filter="url(#foujs8crez9og)" height="30.4883" style="stroke: #A80036; stroke-width: 1.5;" width="128" x="263.5" y="96.4883"/><text fill="#000000" font-family="sans-serif" font-size="14" lengthAdjust="spacingAndGlyphs" text-decoration="underline" textLength="114" x="270.5" y="117.0234">:UserInfoControl</text><line style="stroke: #000000; stroke-width: 1.0;" x1="270.5" x2="384.5" y1="119.0234" y2="119.0234"/><polygon fill="#A80036" points="149.5,158.9766,159.5,162.9766,149.5,166.9766,153.5,162.9766" style="stroke: #A80036; stroke-width: 1.0;"/><line style="stroke: #A80036; stroke-width: 1.0;" x1="41.5" x2="155.5" y1="162.9766" y2="162.9766"/><text fill="#000000" font-family="sans-serif" font-size="13" lengthAdjust="spacingAndGlyphs" textLength="96" x="48.5" y="158.5449">enterLoginData</text><polygon fill="#A80036" points="317.5,188.2871,327.5,192.2871,317.5,196.2871,321.5,192.2871" style="stroke: #A80036; stroke-width: 1.0;"/><line style="stroke: #A80036; stroke-width: 1.0;" x1="161.5" x2="323.5" y1="192.2871" y2="192.2871"/><text fill="#000000" font-family="sans-serif" font-size="13" lengthAdjust="spacingAndGlyphs" textLength="94" x="168.5" y="187.8555">sendLoginData</text><line style="stroke: #A80036; stroke-width: 1.0;" x1="329.5" x2="371.5" y1="221.9082" y2="221.9082"/><line style="stroke: #A80036; stroke-width: 1.0;" x1="371.5" x2="371.5" y1="221.9082" y2="234.9082"/><line style="stroke: #A80036; stroke-width: 1.0;" x1="330.5" x2="371.5" y1="234.9082" y2="234.9082"/><polygon fill="#A80036" points="340.5,230.9082,330.5,234.9082,340.5,238.9082,336.5,234.9082" style="stroke: #A80036; stroke-width: 1.0;"/><text fill="#000000" font-family="sans-serif" font-size="13" lengthAdjust="spacingAndGlyphs" textLength="101" x="336.5" y="217.166">checkLoginData</text><path d="M13,249.9082 L87,249.9082 L87,256.9082 L77,266.9082 L13,266.9082 L13,249.9082 " fill="#EEEEEE" style="stroke: #000000; stroke-width: 1.0;"/><rect fill="none" height="147.5527" style="stroke: #000000; stroke-width: 2.0;" width="436.5" x="13" y="249.9082"/><text fill="#000000" font-family="sans-serif" font-size="13" font-weight="bold" lengthAdjust="spacingAndGlyphs" textLength="29" x="28" y="263.4766">loop</text><text fill="#000000" font-family="sans-serif" font-size="11" font-weight="bold" lengthAdjust="spacingAndGlyphs" textLength="174" x="102" y="262.543">[wrong password or username]</text><polygon fill="#A80036" points="172.5,284.2188,162.5,288.2188,172.5,292.2188,168.5,288.2188" style="stroke: #A80036; stroke-width: 1.0;"/><line style="stroke: #A80036; stroke-width: 1.0; stroke-dasharray: 2.0,2.0;" x1="166.5" x2="328.5" y1="288.2188" y2="288.2188"/><text fill="#000000" font-family="sans-serif" font-size="13" lengthAdjust="spacingAndGlyphs" textLength="101" x="178.5" y="283.7871">loginDataWrong</text><polygon fill="#A80036" points="149.5,313.5293,159.5,317.5293,149.5,321.5293,153.5,317.5293" style="stroke: #A80036; stroke-width: 1.0;"/><line style="stroke: #A80036; stroke-width: 1.0;" x1="41.5" x2="155.5" y1="317.5293" y2="317.5293"/><text fill="#000000" font-family="sans-serif" font-size="13" lengthAdjust="spacingAndGlyphs" textLength="96" x="48.5" y="313.0977">enterLoginData</text><polygon fill="#A80036" points="317.5,342.8398,327.5,346.8398,317.5,350.8398,321.5,346.8398" style="stroke: #A80036; stroke-width: 1.0;"/><line style="stroke: #A80036; stroke-width: 1.0;" x1="161.5" x2="323.5" y1="346.8398" y2="346.8398"/><text fill="#000000" font-family="sans-serif" font-size="13" lengthAdjust="spacingAndGlyphs" textLength="94" x="168.5" y="342.4082">sendLoginData</text><line style="stroke: #A80036; stroke-width: 1.0;" x1="329.5" x2="371.5" y1="376.4609" y2="376.4609"/><line style="stroke: #A80036; stroke-width: 1.0;" x1="371.5" x2="371.5" y1="376.4609" y2="389.4609"/><line style="stroke: #A80036; stroke-width: 1.0;" x1="330.5" x2="371.5" y1="389.4609" y2="389.4609"/><polygon fill="#A80036" points="340.5,385.4609,330.5,389.4609,340.5,393.4609,336.5,389.4609" style="stroke: #A80036; stroke-width: 1.0;"/><text fill="#000000" font-family="sans-serif" font-size="13" lengthAdjust="spacingAndGlyphs" textLength="101" x="336.5" y="371.7188">checkLoginData</text><polygon fill="#A80036" points="172.5,421.4609,162.5,425.4609,172.5,429.4609,168.5,425.4609" style="stroke: #A80036; stroke-width: 1.0;"/><line style="stroke: #A80036; stroke-width: 1.0; stroke-dasharray: 2.0,2.0;" x1="166.5" x2="328.5" y1="425.4609" y2="425.4609"/><text fill="#000000" font-family="sans-serif" font-size="13" lengthAdjust="spacingAndGlyphs" textLength="85" x="178.5" y="421.0293">LoginSuccess</text><polygon fill="#A80036" points="419.5,450.7715,429.5,454.7715,419.5,458.7715,423.5,454.7715" style="stroke: #A80036; stroke-width: 1.0;"/><line style="stroke: #A80036; stroke-width: 1.0;" x1="329.5" x2="425.5" y1="454.7715" y2="454.7715"/><text fill="#000000" font-family="sans-serif" font-size="13" lengthAdjust="spacingAndGlyphs" textLength="78" x="336.5" y="450.3398">&lt;&lt;create&gt;&gt;</text><rect fill="#FEFECE" filter="url(#foujs8crez9og)" height="30.4883" style="stroke: #A80036; stroke-width: 1.5;" width="49" x="431.5" y="433.7715"/><text fill="#000000" font-family="sans-serif" font-size="14" lengthAdjust="spacingAndGlyphs" text-decoration="underline" textLength="35" x="438.5" y="454.3066">:User</text><line style="stroke: #000000; stroke-width: 1.0;" x1="438.5" x2="473.5" y1="456.3066" y2="456.3066"/><line style="stroke: #A80036; stroke-width: 1.0;" x1="329.5" x2="371.5" y1="500.5703" y2="500.5703"/><line style="stroke: #A80036; stroke-width: 1.0;" x1="371.5" x2="371.5" y1="500.5703" y2="513.5703"/><line style="stroke: #A80036; stroke-width: 1.0;" x1="330.5" x2="371.5" y1="513.5703" y2="513.5703"/><polygon fill="#A80036" points="340.5,509.5703,330.5,513.5703,340.5,517.5703,336.5,513.5703" style="stroke: #A80036; stroke-width: 1.0;"/><text fill="#000000" font-family="sans-serif" font-size="13" lengthAdjust="spacingAndGlyphs" textLength="94" x="336.5" y="495.8281">setCurrentUser</text><path d="M253.5,528.5703 L315.5,528.5703 L315.5,535.5703 L305.5,545.5703 L253.5,545.5703 L253.5,528.5703 " fill="#EEEEEE" style="stroke: #000000; stroke-width: 1.0;"/><rect fill="none" height="59.6211" style="stroke: #000000; stroke-width: 2.0;" width="217" x="253.5" y="528.5703"/><text fill="#000000" font-family="sans-serif" font-size="13" font-weight="bold" lengthAdjust="spacingAndGlyphs" textLength="17" x="268.5" y="542.1387">alt</text><text fill="#000000" font-family="sans-serif" font-size="11" font-weight="bold" lengthAdjust="spacingAndGlyphs" textLength="135" x="330.5" y="541.2051">[remember me selected]</text><line style="stroke: #A80036; stroke-width: 1.0;" x1="329.5" x2="371.5" y1="567.1914" y2="567.1914"/><line style="stroke: #A80036; stroke-width: 1.0;" x1="371.5" x2="371.5" y1="567.1914" y2="580.1914"/><line style="stroke: #A80036; stroke-width: 1.0;" x1="330.5" x2="371.5" y1="580.1914" y2="580.1914"/><polygon fill="#A80036" points="340.5,576.1914,330.5,580.1914,340.5,584.1914,336.5,580.1914" style="stroke: #A80036; stroke-width: 1.0;"/><text fill="#000000" font-family="sans-serif" font-size="13" lengthAdjust="spacingAndGlyphs" textLength="113" x="336.5" y="562.4492">setRememberUser</text><polygon fill="#A80036" points="172.5,612.1914,162.5,616.1914,172.5,620.1914,168.5,616.1914" style="stroke: #A80036; stroke-width: 1.0;"/><line style="stroke: #A80036; stroke-width: 1.0;" x1="166.5" x2="328.5" y1="616.1914" y2="616.1914"/><text fill="#000000" font-family="sans-serif" font-size="13" lengthAdjust="spacingAndGlyphs" textLength="87" x="178.5" y="611.7598">&lt;&lt;destroy&gt;&gt;</text><line style="stroke: #A80036; stroke-width: 2.0;" x1="152.5" x2="170.5" y1="607.1914" y2="625.1914"/><line style="stroke: #A80036; stroke-width: 2.0;" x1="152.5" x2="170.5" y1="625.1914" y2="607.1914"/><polygon fill="#A80036" points="482.5,641.502,492.5,645.502,482.5,649.502,486.5,645.502" style="stroke: #A80036; stroke-width: 1.0;"/><line style="stroke: #A80036; stroke-width: 1.0;" x1="329.5" x2="488.5" y1="645.502" y2="645.502"/><text fill="#000000" font-family="sans-serif" font-size="13" lengthAdjust="spacingAndGlyphs" textLength="78" x="336.5" y="641.0703">&lt;&lt;create&gt;&gt;</text><rect fill="#FEFECE" filter="url(#foujs8crez9og)" height="30.4883" style="stroke: #A80036; stroke-width: 1.5;" width="171" x="494.5" y="624.502"/><text fill="#000000" font-family="sans-serif" font-size="14" lengthAdjust="spacingAndGlyphs" text-decoration="underline" textLength="157" x="501.5" y="645.0371">:LocalVSSManagerPage</text><line style="stroke: #000000; stroke-width: 1.0;" x1="501.5" x2="658.5" y1="647.0371" y2="647.0371"/><line style="stroke: #A80036; stroke-width: 2.0;" x1="320.5" x2="338.5" y1="636.502" y2="654.502"/><line style="stroke: #A80036; stroke-width: 2.0;" x1="320.5" x2="338.5" y1="654.502" y2="636.502"/><!--
@startuml
hide footbox
skinparam sequenceParticipant underline

actor User as user
participant ":LoginPage" as boundary
participant ":UserInfoControl" as control
participant ":User" as userdata
participant ":LocalVSSManagerPage" as nextpage

create control
boundary -> control: <<create>>
user -> boundary: enterLoginData
boundary -> control: sendLoginData
control -> control: checkLoginData
loop wrong password or username
    control - -> boundary: loginDataWrong
    user -> boundary: enterLoginData
    boundary -> control: sendLoginData
    control -> control: checkLoginData
end
control - -> boundary: LoginSuccess
create userdata
control -> userdata: <<create>>
control -> control: setCurrentUser
alt remember me selected
    control -> control: setRememberUser
end
control -> boundary: <<destroy>>
destroy boundary
create nextpage
control -> nextpage: <<create>>
destroy control
@enduml

PlantUML version 1.2018.01(Mon Jan 29 02:08:22 CST 2018)
(GPL source distribution)
Java Runtime: Java(TM) SE Runtime Environment
JVM: Java HotSpot(TM) 64-Bit Server VM
Java Version: 9+181
Operating System: Mac OS X
OS Version: 10.12.6
Default Encoding: UTF-8
Language: zh
Country: CN
--></g></svg>