<?xml version="1.0" encoding="UTF-8" standalone="no"?><svg xmlns="http://www.w3.org/2000/svg" xmlns:xlink="http://www.w3.org/1999/xlink" contentScriptType="application/ecmascript" contentStyleType="text/css" height="325px" preserveAspectRatio="none" style="width:593px;height:325px;" version="1.1" viewBox="0 0 593 325"
    width="593px" zoomAndPan="magnify"><defs><filter height="300%" id="f2edq0k1ebkhy" width="300%" x="-1" y="-1"><feGaussianBlur result="blurOut" stdDeviation="2.0"/><feColorMatrix in="blurOut" result="blurOut2" type="matrix" values="0 0 0 0 0 0 0 0 0 0 0 0 0 0 0 0 0 0 .4 0"/><feOffset dx="4.0" dy="4.0" in="blurOut2" result="blurOut3"/><feBlend in="SourceGraphic" in2="blurOut3" mode="normal"/></filter></defs><g><rect fill="#FFFFFF" filter="url(#f2edq0k1ebkhy)" height="123.2422" style="stroke: #A80036; stroke-width: 1.0;" width="10" x="23.5" y="96.4883"/><rect fill="#FFFFFF" filter="url(#f2edq0k1ebkhy)" height="123.2422" style="stroke: #A80036; stroke-width: 1.0;" width="10" x="207.5" y="96.4883"/><rect fill="#FFFFFF" filter="url(#f2edq0k1ebkhy)" height="102.2422" style="stroke: #A80036; stroke-width: 1.0;" width="10" x="386.5" y="117.4883"/><line style="stroke: #A80036; stroke-width: 1.0; stroke-dasharray: 5.0,5.0;" x1="28" x2="28" y1="86.4883" y2="237.7305"/><line style="stroke: #A80036; stroke-width: 1.0; stroke-dasharray: 5.0,5.0;" x1="212" x2="212" y1="86.4883" y2="237.7305"/><line style="stroke: #A80036; stroke-width: 1.0; stroke-dasharray: 5.0,5.0;" x1="391" x2="391" y1="86.4883" y2="237.7305"/><line style="stroke: #A80036; stroke-width: 1.0; stroke-dasharray: 5.0,5.0;" x1="538" x2="538" y1="86.4883" y2="237.7305"/><text fill="#000000" font-family="sans-serif" font-size="14" lengthAdjust="spacingAndGlyphs" textLength="4" x="8" y="83.5352">:</text><text fill="#000000" font-family="sans-serif" font-size="14" lengthAdjust="spacingAndGlyphs" text-decoration="underline" textLength="31" x="12" y="83.5352">User</text><line style="stroke: #000000; stroke-width: 1.0;" x1="12" x2="43" y1="85.5352" y2="85.5352"/><ellipse cx="28.5" cy="13" fill="#FEFECE" filter="url(#f2edq0k1ebkhy)" rx="8" ry="8" style="stroke: #A80036; stroke-width: 2.0;"/><path d="M28.5,21 L28.5,48 M15.5,29 L41.5,29 M28.5,48 L15.5,63 M28.5,48 L41.5,63 " fill="none" filter="url(#f2edq0k1ebkhy)" style="stroke: #A80036; stroke-width: 2.0;"/><text fill="#000000" font-family="sans-serif" font-size="14" lengthAdjust="spacingAndGlyphs" textLength="4" x="8" y="250.2656">:</text><text fill="#000000" font-family="sans-serif" font-size="14" lengthAdjust="spacingAndGlyphs" text-decoration="underline" textLength="31" x="12" y="250.2656">User</text><line style="stroke: #000000; stroke-width: 1.0;" x1="12" x2="43" y1="252.2656" y2="252.2656"/><ellipse cx="28.5" cy="263.2188" fill="#FEFECE" filter="url(#f2edq0k1ebkhy)" rx="8" ry="8" style="stroke: #A80036; stroke-width: 2.0;"/><path d="M28.5,271.2188 L28.5,298.2188 M15.5,279.2188 L41.5,279.2188 M28.5,298.2188 L15.5,313.2188 M28.5,298.2188 L41.5,313.2188 " fill="none" filter="url(#f2edq0k1ebkhy)" style="stroke: #A80036; stroke-width: 2.0;"/><text fill="#000000" font-family="sans-serif" font-size="14" lengthAdjust="spacingAndGlyphs" textLength="4" x="133" y="83.5352">:</text><text fill="#000000" font-family="sans-serif" font-size="14" lengthAdjust="spacingAndGlyphs" text-decoration="underline" textLength="149" x="137" y="83.5352">OnlineVSSViewerPage</text><line style="stroke: #000000; stroke-width: 1.0;" x1="137" x2="286" y1="85.5352" y2="85.5352"/><path d="M192,42 L192,66 M192,54 L209,54 " fill="none" filter="url(#f2edq0k1ebkhy)" style="stroke: #A80036; stroke-width: 2.0;"/><ellipse cx="221" cy="54" fill="#FEFECE" filter="url(#f2edq0k1ebkhy)" rx="12" ry="12" style="stroke: #A80036; stroke-width: 2.0;"/><text fill="#000000" font-family="sans-serif" font-size="14" lengthAdjust="spacingAndGlyphs" textLength="4" x="133" y="250.2656">:</text><text fill="#000000" font-family="sans-serif" font-size="14" lengthAdjust="spacingAndGlyphs" text-decoration="underline" textLength="149" x="137" y="250.2656">OnlineVSSViewerPage</text><line style="stroke: #000000; stroke-width: 1.0;" x1="137" x2="286" y1="252.2656" y2="252.2656"/><path d="M192,257.2188 L192,281.2188 M192,269.2188 L209,269.2188 " fill="none" filter="url(#f2edq0k1ebkhy)" style="stroke: #A80036; stroke-width: 2.0;"/><ellipse cx="221" cy="269.2188" fill="#FEFECE" filter="url(#f2edq0k1ebkhy)" rx="12" ry="12" style="stroke: #A80036; stroke-width: 2.0;"/><text fill="#000000" font-family="sans-serif" font-size="14" lengthAdjust="spacingAndGlyphs" textLength="4" x="302" y="83.5352">:</text><text fill="#000000" font-family="sans-serif" font-size="14" lengthAdjust="spacingAndGlyphs" text-decoration="underline" textLength="169" x="306" y="83.5352">OnlineVSSLibraryControl</text><line style="stroke: #000000; stroke-width: 1.0;" x1="306" x2="475" y1="85.5352" y2="85.5352"/><ellipse cx="391.5" cy="54" fill="#FEFECE" filter="url(#f2edq0k1ebkhy)" rx="12" ry="12" style="stroke: #A80036; stroke-width: 2.0;"/><polygon fill="#A80036" points="387.5,42,393.5,37,391.5,42,393.5,47,387.5,42" style="stroke: #A80036; stroke-width: 1.0;"/><text fill="#000000" font-family="sans-serif" font-size="14" lengthAdjust="spacingAndGlyphs" textLength="4" x="302" y="250.2656">:</text><text fill="#000000" font-family="sans-serif" font-size="14" lengthAdjust="spacingAndGlyphs" text-decoration="underline" textLength="169" x="306" y="250.2656">OnlineVSSLibraryControl</text><line style="stroke: #000000; stroke-width: 1.0;" x1="306" x2="475" y1="252.2656" y2="252.2656"/><ellipse cx="391.5" cy="269.2188" fill="#FEFECE" filter="url(#f2edq0k1ebkhy)" rx="12" ry="12" style="stroke: #A80036; stroke-width: 2.0;"/><polygon fill="#A80036" points="387.5,257.2188,393.5,252.2188,391.5,257.2188,393.5,262.2188,387.5,257.2188" style="stroke: #A80036; stroke-width: 1.0;"/><rect fill="#FEFECE" filter="url(#f2edq0k1ebkhy)" height="30.4883" style="stroke: #A80036; stroke-width: 1.5;" width="91" x="491" y="51"/><text fill="#000000" font-family="sans-serif" font-size="14" lengthAdjust="spacingAndGlyphs" textLength="77" x="498" y="71.5352">PreviewVSS</text><rect fill="#FEFECE" filter="url(#f2edq0k1ebkhy)" height="30.4883" style="stroke: #A80036; stroke-width: 1.5;" width="91" x="491" y="236.7305"/><text fill="#000000" font-family="sans-serif" font-size="14" lengthAdjust="spacingAndGlyphs" textLength="77" x="498" y="257.2656">PreviewVSS</text><rect fill="#FFFFFF" filter="url(#f2edq0k1ebkhy)" height="123.2422" style="stroke: #A80036; stroke-width: 1.0;" width="10" x="23.5" y="96.4883"/><rect fill="#FFFFFF" filter="url(#f2edq0k1ebkhy)" height="123.2422" style="stroke: #A80036; stroke-width: 1.0;" width="10" x="207.5" y="96.4883"/><rect fill="#FFFFFF" filter="url(#f2edq0k1ebkhy)" height="102.2422" style="stroke: #A80036; stroke-width: 1.0;" width="10" x="386.5" y="117.4883"/><polygon fill="#A80036" points="374.5,113.4883,384.5,117.4883,374.5,121.4883,378.5,117.4883" style="stroke: #A80036; stroke-width: 1.0;"/><line style="stroke: #A80036; stroke-width: 1.0;" x1="217.5" x2="380.5" y1="117.4883" y2="117.4883"/><text fill="#000000" font-family="sans-serif" font-size="13" lengthAdjust="spacingAndGlyphs" textLength="78" x="224.5" y="113.0566">&lt;&lt;create&gt;&gt;</text><polygon fill="#A80036" points="195.5,142.7988,205.5,146.7988,195.5,150.7988,199.5,146.7988" style="stroke: #A80036; stroke-width: 1.0;"/><line style="stroke: #A80036; stroke-width: 1.0;" x1="33.5" x2="201.5" y1="146.7988" y2="146.7988"/><text fill="#000000" font-family="sans-serif" font-size="13" lengthAdjust="spacingAndGlyphs" textLength="150" x="40.5" y="142.3672">BrowseOnlineVSSLibrary</text><polygon fill="#A80036" points="44.5,172.1094,34.5,176.1094,44.5,180.1094,40.5,176.1094" style="stroke: #A80036; stroke-width: 1.0;"/><line style="stroke: #A80036; stroke-width: 1.0;" x1="38.5" x2="206.5" y1="176.1094" y2="176.1094"/><text fill="#000000" font-family="sans-serif" font-size="13" lengthAdjust="spacingAndGlyphs" textLength="45" x="50.5" y="171.6777">VSSList</text><polygon fill="#A80036" points="195.5,201.4199,205.5,205.4199,195.5,209.4199,199.5,205.4199" style="stroke: #A80036; stroke-width: 1.0;"/><line style="stroke: #A80036; stroke-width: 1.0;" x1="33.5" x2="201.5" y1="205.4199" y2="205.4199"/><text fill="#000000" font-family="sans-serif" font-size="13" lengthAdjust="spacingAndGlyphs" textLength="69" x="40.5" y="200.9883">PreviewVSS</text><polygon fill="#A80036" points="526.5,215.7305,536.5,219.7305,526.5,223.7305,530.5,219.7305" style="stroke: #A80036; stroke-width: 1.0;"/><line style="stroke: #A80036; stroke-width: 1.0;" x1="391.5" x2="532.5" y1="219.7305" y2="219.7305"/><!--
@startuml
actor ":__User__" as User
boundary ":__OnlineVSSViewerPage__" as OnlineVSSViewerPage
control ":__OnlineVSSLibraryControl__" as OnlineVSSLibraryControl

activate User
activate OnlineVSSViewerPage
OnlineVSSViewerPage -> OnlineVSSLibraryControl: <<create>>
activate OnlineVSSLibraryControl
User -> OnlineVSSViewerPage: BrowseOnlineVSSLibrary
OnlineVSSViewerPage -> User: VSSList
User -> OnlineVSSViewerPage: PreviewVSS
OnlineVSSLibraryControl -> PreviewVSS
deactivate User
deactivate OnlineVSSViewerPage
deactivate OnlineVSSLibraryControl
@enduml

PlantUML version 1.2018.01(Mon Jan 29 02:08:22 CST 2018)
(GPL source distribution)
Java Runtime: Java(TM) SE Runtime Environment
JVM: Java HotSpot(TM) 64-Bit Server VM
Java Version: 9+181
Operating System: Mac OS X
OS Version: 10.12.6
Default Encoding: UTF-8
Language: zh
Country: CN
--></g></svg>