<?xml version="1.0" encoding="UTF-8" standalone="no"?><svg xmlns="http://www.w3.org/2000/svg" xmlns:xlink="http://www.w3.org/1999/xlink" contentScriptType="application/ecmascript" contentStyleType="text/css" height="340px" preserveAspectRatio="none" style="width:610px;height:340px;" version="1.1" viewBox="0 0 610 340"
    width="610px" zoomAndPan="magnify"><defs><filter height="300%" id="fpvvkwvhqc2e2" width="300%" x="-1" y="-1"><feGaussianBlur result="blurOut" stdDeviation="2.0"/><feColorMatrix in="blurOut" result="blurOut2" type="matrix" values="0 0 0 0 0 0 0 0 0 0 0 0 0 0 0 0 0 0 .4 0"/><feOffset dx="4.0" dy="4.0" in="blurOut2" result="blurOut3"/><feBlend in="SourceGraphic" in2="blurOut3" mode="normal"/></filter></defs><g><rect fill="#FFFFFF" filter="url(#fpvvkwvhqc2e2)" height="138.2422" style="stroke: #A80036; stroke-width: 1.0;" width="10" x="23.5" y="96.4883"/><rect fill="#FFFFFF" filter="url(#fpvvkwvhqc2e2)" height="138.2422" style="stroke: #A80036; stroke-width: 1.0;" width="10" x="134.5" y="96.4883"/><rect fill="#FFFFFF" filter="url(#fpvvkwvhqc2e2)" height="87.9316" style="stroke: #A80036; stroke-width: 1.0;" width="10" x="313.5" y="146.7988"/><rect fill="#FFFFFF" filter="url(#fpvvkwvhqc2e2)" height="29.3105" style="stroke: #A80036; stroke-width: 1.0;" width="10" x="506" y="176.1094"/><line style="stroke: #A80036; stroke-width: 1.0; stroke-dasharray: 5.0,5.0;" x1="28" x2="28" y1="86.4883" y2="253.041"/><line style="stroke: #A80036; stroke-width: 1.0; stroke-dasharray: 5.0,5.0;" x1="139" x2="139" y1="86.4883" y2="253.041"/><line style="stroke: #A80036; stroke-width: 1.0; stroke-dasharray: 5.0,5.0;" x1="318" x2="318" y1="86.4883" y2="253.041"/><line style="stroke: #A80036; stroke-width: 1.0; stroke-dasharray: 5.0,5.0;" x1="511" x2="511" y1="86.4883" y2="253.041"/><text fill="#000000" font-family="sans-serif" font-size="14" lengthAdjust="spacingAndGlyphs" textLength="4" x="8" y="83.5352">:</text><text fill="#000000" font-family="sans-serif" font-size="14" lengthAdjust="spacingAndGlyphs" text-decoration="underline" textLength="31" x="12" y="83.5352">User</text><line style="stroke: #000000; stroke-width: 1.0;" x1="12" x2="43" y1="85.5352" y2="85.5352"/><ellipse cx="28.5" cy="13" fill="#FEFECE" filter="url(#fpvvkwvhqc2e2)" rx="8" ry="8" style="stroke: #A80036; stroke-width: 2.0;"/><path d="M28.5,21 L28.5,48 M15.5,29 L41.5,29 M28.5,48 L15.5,63 M28.5,48 L41.5,63 " fill="none" filter="url(#fpvvkwvhqc2e2)" style="stroke: #A80036; stroke-width: 2.0;"/><text fill="#000000" font-family="sans-serif" font-size="14" lengthAdjust="spacingAndGlyphs" textLength="4" x="8" y="265.5762">:</text><text fill="#000000" font-family="sans-serif" font-size="14" lengthAdjust="spacingAndGlyphs" text-decoration="underline" textLength="31" x="12" y="265.5762">User</text><line style="stroke: #000000; stroke-width: 1.0;" x1="12" x2="43" y1="267.5762" y2="267.5762"/><ellipse cx="28.5" cy="278.5293" fill="#FEFECE" filter="url(#fpvvkwvhqc2e2)" rx="8" ry="8" style="stroke: #A80036; stroke-width: 2.0;"/><path d="M28.5,286.5293 L28.5,313.5293 M15.5,294.5293 L41.5,294.5293 M28.5,313.5293 L15.5,328.5293 M28.5,313.5293 L41.5,328.5293 " fill="none" filter="url(#fpvvkwvhqc2e2)" style="stroke: #A80036; stroke-width: 2.0;"/><text fill="#000000" font-family="sans-serif" font-size="14" lengthAdjust="spacingAndGlyphs" textLength="4" x="60" y="83.5352">:</text><text fill="#000000" font-family="sans-serif" font-size="14" lengthAdjust="spacingAndGlyphs" text-decoration="underline" textLength="149" x="64" y="83.5352">OnlineVSSViewerPage</text><line style="stroke: #000000; stroke-width: 1.0;" x1="64" x2="213" y1="85.5352" y2="85.5352"/><path d="M119,42 L119,66 M119,54 L136,54 " fill="none" filter="url(#fpvvkwvhqc2e2)" style="stroke: #A80036; stroke-width: 2.0;"/><ellipse cx="148" cy="54" fill="#FEFECE" filter="url(#fpvvkwvhqc2e2)" rx="12" ry="12" style="stroke: #A80036; stroke-width: 2.0;"/><text fill="#000000" font-family="sans-serif" font-size="14" lengthAdjust="spacingAndGlyphs" textLength="4" x="60" y="265.5762">:</text><text fill="#000000" font-family="sans-serif" font-size="14" lengthAdjust="spacingAndGlyphs" text-decoration="underline" textLength="149" x="64" y="265.5762">OnlineVSSViewerPage</text><line style="stroke: #000000; stroke-width: 1.0;" x1="64" x2="213" y1="267.5762" y2="267.5762"/><path d="M119,272.5293 L119,296.5293 M119,284.5293 L136,284.5293 " fill="none" filter="url(#fpvvkwvhqc2e2)" style="stroke: #A80036; stroke-width: 2.0;"/><ellipse cx="148" cy="284.5293" fill="#FEFECE" filter="url(#fpvvkwvhqc2e2)" rx="12" ry="12" style="stroke: #A80036; stroke-width: 2.0;"/><text fill="#000000" font-family="sans-serif" font-size="14" lengthAdjust="spacingAndGlyphs" textLength="4" x="229" y="83.5352">:</text><text fill="#000000" font-family="sans-serif" font-size="14" lengthAdjust="spacingAndGlyphs" text-decoration="underline" textLength="169" x="233" y="83.5352">OnlineVSSLibraryControl</text><line style="stroke: #000000; stroke-width: 1.0;" x1="233" x2="402" y1="85.5352" y2="85.5352"/><ellipse cx="318.5" cy="54" fill="#FEFECE" filter="url(#fpvvkwvhqc2e2)" rx="12" ry="12" style="stroke: #A80036; stroke-width: 2.0;"/><polygon fill="#A80036" points="314.5,42,320.5,37,318.5,42,320.5,47,314.5,42" style="stroke: #A80036; stroke-width: 1.0;"/><text fill="#000000" font-family="sans-serif" font-size="14" lengthAdjust="spacingAndGlyphs" textLength="4" x="229" y="265.5762">:</text><text fill="#000000" font-family="sans-serif" font-size="14" lengthAdjust="spacingAndGlyphs" text-decoration="underline" textLength="169" x="233" y="265.5762">OnlineVSSLibraryControl</text><line style="stroke: #000000; stroke-width: 1.0;" x1="233" x2="402" y1="267.5762" y2="267.5762"/><ellipse cx="318.5" cy="284.5293" fill="#FEFECE" filter="url(#fpvvkwvhqc2e2)" rx="12" ry="12" style="stroke: #A80036; stroke-width: 2.0;"/><polygon fill="#A80036" points="314.5,272.5293,320.5,267.5293,318.5,272.5293,320.5,277.5293,314.5,272.5293" style="stroke: #A80036; stroke-width: 1.0;"/><text fill="#000000" font-family="sans-serif" font-size="14" lengthAdjust="spacingAndGlyphs" textLength="4" x="418" y="83.5352">:</text><text fill="#000000" font-family="sans-serif" font-size="14" lengthAdjust="spacingAndGlyphs" text-decoration="underline" textLength="176" x="422" y="83.5352">OnlineSoundSpaceLibrary</text><line style="stroke: #000000; stroke-width: 1.0;" x1="422" x2="598" y1="85.5352" y2="85.5352"/><ellipse cx="511" cy="54" fill="#FEFECE" filter="url(#fpvvkwvhqc2e2)" rx="12" ry="12" style="stroke: #A80036; stroke-width: 2.0;"/><line style="stroke: #A80036; stroke-width: 2.0;" x1="499" x2="523" y1="68" y2="68"/><text fill="#000000" font-family="sans-serif" font-size="14" lengthAdjust="spacingAndGlyphs" textLength="4" x="418" y="265.5762">:</text><text fill="#000000" font-family="sans-serif" font-size="14" lengthAdjust="spacingAndGlyphs" text-decoration="underline" textLength="176" x="422" y="265.5762">OnlineSoundSpaceLibrary</text><line style="stroke: #000000; stroke-width: 1.0;" x1="422" x2="598" y1="267.5762" y2="267.5762"/><ellipse cx="511" cy="284.5293" fill="#FEFECE" filter="url(#fpvvkwvhqc2e2)" rx="12" ry="12" style="stroke: #A80036; stroke-width: 2.0;"/><line style="stroke: #A80036; stroke-width: 2.0;" x1="499" x2="523" y1="298.5293" y2="298.5293"/><rect fill="#FFFFFF" filter="url(#fpvvkwvhqc2e2)" height="138.2422" style="stroke: #A80036; stroke-width: 1.0;" width="10" x="23.5" y="96.4883"/><rect fill="#FFFFFF" filter="url(#fpvvkwvhqc2e2)" height="138.2422" style="stroke: #A80036; stroke-width: 1.0;" width="10" x="134.5" y="96.4883"/><rect fill="#FFFFFF" filter="url(#fpvvkwvhqc2e2)" height="87.9316" style="stroke: #A80036; stroke-width: 1.0;" width="10" x="313.5" y="146.7988"/><rect fill="#FFFFFF" filter="url(#fpvvkwvhqc2e2)" height="29.3105" style="stroke: #A80036; stroke-width: 1.0;" width="10" x="506" y="176.1094"/><polygon fill="#A80036" points="122.5,113.4883,132.5,117.4883,122.5,121.4883,126.5,117.4883" style="stroke: #A80036; stroke-width: 1.0;"/><line style="stroke: #A80036; stroke-width: 1.0;" x1="33.5" x2="128.5" y1="117.4883" y2="117.4883"/><text fill="#000000" font-family="sans-serif" font-size="13" lengthAdjust="spacingAndGlyphs" textLength="48" x="40.5" y="113.0566">LikeVSS</text><polygon fill="#A80036" points="301.5,142.7988,311.5,146.7988,301.5,150.7988,305.5,146.7988" style="stroke: #A80036; stroke-width: 1.0;"/><line style="stroke: #A80036; stroke-width: 1.0;" x1="144.5" x2="307.5" y1="146.7988" y2="146.7988"/><text fill="#000000" font-family="sans-serif" font-size="13" lengthAdjust="spacingAndGlyphs" textLength="78" x="151.5" y="142.3672">&lt;&lt;create&gt;&gt;</text><polygon fill="#A80036" points="494,172.1094,504,176.1094,494,180.1094,498,176.1094" style="stroke: #A80036; stroke-width: 1.0;"/><line style="stroke: #A80036; stroke-width: 1.0;" x1="323.5" x2="500" y1="176.1094" y2="176.1094"/><text fill="#000000" font-family="sans-serif" font-size="13" lengthAdjust="spacingAndGlyphs" textLength="48" x="330.5" y="171.6777">LikeVSS</text><polygon fill="#A80036" points="155.5,201.4199,145.5,205.4199,155.5,209.4199,151.5,205.4199" style="stroke: #A80036; stroke-width: 1.0;"/><line style="stroke: #A80036; stroke-width: 1.0;" x1="149.5" x2="510" y1="205.4199" y2="205.4199"/><text fill="#000000" font-family="sans-serif" font-size="13" lengthAdjust="spacingAndGlyphs" textLength="77" x="161.5" y="200.9883">LikeUserList</text><polygon fill="#A80036" points="39.5,230.7305,29.5,234.7305,39.5,238.7305,35.5,234.7305" style="stroke: #A80036; stroke-width: 1.0;"/><line style="stroke: #A80036; stroke-width: 1.0;" x1="33.5" x2="138.5" y1="234.7305" y2="234.7305"/><text fill="#000000" font-family="sans-serif" font-size="13" lengthAdjust="spacingAndGlyphs" textLength="77" x="45.5" y="230.2988">LikeUserList</text><!--
@startuml
actor ":__User__" as User
boundary ":__OnlineVSSViewerPage__" as OnlineVSSViewerPage
control ":__OnlineVSSLibraryControl__" as OnlineVSSLibraryControl
entity ":__OnlineSoundSpaceLibrary__" as OnlineSoundSpaceLibrary

activate User
activate OnlineVSSViewerPage
User -> OnlineVSSViewerPage: LikeVSS
OnlineVSSViewerPage -> OnlineVSSLibraryControl: <<create>>
activate OnlineVSSLibraryControl
OnlineVSSLibraryControl -> OnlineSoundSpaceLibrary: LikeVSS
activate OnlineSoundSpaceLibrary
OnlineSoundSpaceLibrary -> OnlineVSSViewerPage: LikeUserList
deactivate OnlineSoundSpaceLibrary
OnlineVSSViewerPage -> User: LikeUserList
deactivate OnlineVSSLibraryControl
deactivate OnlineVSSViewerPage
deactivate User
@enduml

PlantUML version 1.2018.01(Mon Jan 29 02:08:22 CST 2018)
(GPL source distribution)
Java Runtime: Java(TM) SE Runtime Environment
JVM: Java HotSpot(TM) 64-Bit Server VM
Java Version: 9+181
Operating System: Mac OS X
OS Version: 10.12.6
Default Encoding: UTF-8
Language: zh
Country: CN
--></g></svg>