<?xml version="1.0" encoding="UTF-8" standalone="no"?><svg xmlns="http://www.w3.org/2000/svg" xmlns:xlink="http://www.w3.org/1999/xlink" contentScriptType="application/ecmascript" contentStyleType="text/css" height="638px" preserveAspectRatio="none" style="width:1059px;height:638px;" version="1.1" viewBox="0 0 1059 638"
    width="1059px" zoomAndPan="magnify"><defs><filter height="300%" id="fe56i3647k8r9" width="300%" x="-1" y="-1"><feGaussianBlur result="blurOut" stdDeviation="2.0"/><feColorMatrix in="blurOut" result="blurOut2" type="matrix" values="0 0 0 0 0 0 0 0 0 0 0 0 0 0 0 0 0 0 .4 0"/><feOffset dx="4.0" dy="4.0" in="blurOut2" result="blurOut3"/><feBlend in="SourceGraphic" in2="blurOut3" mode="normal"/></filter></defs><g><rect fill="#FFFFFF" filter="url(#fe56i3647k8r9)" height="444.2363" style="stroke: #A80036; stroke-width: 1.0;" width="10" x="58.5" y="96.4883"/><rect fill="#FFFFFF" filter="url(#fe56i3647k8r9)" height="444.2363" style="stroke: #A80036; stroke-width: 1.0;" width="10" x="185.5" y="96.4883"/><rect fill="#FFFFFF" filter="url(#fe56i3647k8r9)" height="43.6211" style="stroke: #A80036; stroke-width: 1.0;" width="10" x="347" y="171.1094"/><rect fill="#FFFFFF" filter="url(#fe56i3647k8r9)" height="282.0391" style="stroke: #A80036; stroke-width: 1.0;" width="10" x="531" y="258.6855"/><rect fill="#FFFFFF" filter="url(#fe56i3647k8r9)" height="400.9258" style="stroke: #000000; stroke-width: 2.0;" width="1034.5" x="13" y="132.7988"/><rect fill="#FFFFFF" height="310.9941" style="stroke: none; stroke-width: 1.0;" width="1034.5" x="13" y="222.7305"/><rect fill="#FFFFFF" filter="url(#fe56i3647k8r9)" height="252.7285" style="stroke: #000000; stroke-width: 2.0;" width="1014.5" x="23" y="273.9961"/><rect fill="#FFFFFF" filter="url(#fe56i3647k8r9)" height="75.5762" style="stroke: #000000; stroke-width: 2.0;" width="804.5" x="33" y="327.6172"/><rect fill="#FFFFFF" height="28.9551" style="stroke: none; stroke-width: 1.0;" width="804.5" x="33" y="374.2383"/><rect fill="#FFFFFF" height="58.2656" style="stroke: none; stroke-width: 1.0;" width="1014.5" x="23" y="410.1934"/><rect fill="#FFFFFF" height="58.2656" style="stroke: none; stroke-width: 1.0;" width="1014.5" x="23" y="468.459"/><line style="stroke: #A80036; stroke-width: 1.0; stroke-dasharray: 5.0,5.0;" x1="63" x2="63" y1="86.4883" y2="550.7246"/><line style="stroke: #A80036; stroke-width: 1.0; stroke-dasharray: 5.0,5.0;" x1="190.5" x2="190.5" y1="86.4883" y2="550.7246"/><line style="stroke: #A80036; stroke-width: 1.0; stroke-dasharray: 5.0,5.0;" x1="351.5" x2="351.5" y1="86.4883" y2="550.7246"/><line style="stroke: #A80036; stroke-width: 1.0; stroke-dasharray: 5.0,5.0;" x1="535.5" x2="535.5" y1="86.4883" y2="550.7246"/><line style="stroke: #A80036; stroke-width: 1.0; stroke-dasharray: 5.0,5.0;" x1="670.5" x2="670.5" y1="86.4883" y2="550.7246"/><line style="stroke: #A80036; stroke-width: 1.0; stroke-dasharray: 5.0,5.0;" x1="771.5" x2="771.5" y1="86.4883" y2="550.7246"/><line style="stroke: #A80036; stroke-width: 1.0; stroke-dasharray: 5.0,5.0;" x1="872.5" x2="872.5" y1="86.4883" y2="550.7246"/><line style="stroke: #A80036; stroke-width: 1.0; stroke-dasharray: 5.0,5.0;" x1="972.5" x2="972.5" y1="86.4883" y2="550.7246"/><text fill="#000000" font-family="sans-serif" font-size="14" lengthAdjust="spacingAndGlyphs" textLength="4" x="43" y="83.5352">:</text><text fill="#000000" font-family="sans-serif" font-size="14" lengthAdjust="spacingAndGlyphs" text-decoration="underline" textLength="31" x="47" y="83.5352">User</text><line style="stroke: #000000; stroke-width: 1.0;" x1="47" x2="78" y1="85.5352" y2="85.5352"/><ellipse cx="63.5" cy="13" fill="#FEFECE" filter="url(#fe56i3647k8r9)" rx="8" ry="8" style="stroke: #A80036; stroke-width: 2.0;"/><path d="M63.5,21 L63.5,48 M50.5,29 L76.5,29 M63.5,48 L50.5,63 M63.5,48 L76.5,63 " fill="none" filter="url(#fe56i3647k8r9)" style="stroke: #A80036; stroke-width: 2.0;"/><text fill="#000000" font-family="sans-serif" font-size="14" lengthAdjust="spacingAndGlyphs" textLength="4" x="43" y="563.2598">:</text><text fill="#000000" font-family="sans-serif" font-size="14" lengthAdjust="spacingAndGlyphs" text-decoration="underline" textLength="31" x="47" y="563.2598">User</text><line style="stroke: #000000; stroke-width: 1.0;" x1="47" x2="78" y1="565.2598" y2="565.2598"/><ellipse cx="63.5" cy="576.2129" fill="#FEFECE" filter="url(#fe56i3647k8r9)" rx="8" ry="8" style="stroke: #A80036; stroke-width: 2.0;"/><path d="M63.5,584.2129 L63.5,611.2129 M50.5,592.2129 L76.5,592.2129 M63.5,611.2129 L50.5,626.2129 M63.5,611.2129 L76.5,626.2129 " fill="none" filter="url(#fe56i3647k8r9)" style="stroke: #A80036; stroke-width: 2.0;"/><text fill="#000000" font-family="sans-serif" font-size="14" lengthAdjust="spacingAndGlyphs" textLength="4" x="123.5" y="83.5352">:</text><text fill="#000000" font-family="sans-serif" font-size="14" lengthAdjust="spacingAndGlyphs" text-decoration="underline" textLength="124" x="127.5" y="83.5352">VSSPreviewerPage</text><line style="stroke: #000000; stroke-width: 1.0;" x1="127.5" x2="251.5" y1="85.5352" y2="85.5352"/><path d="M170,42 L170,66 M170,54 L187,54 " fill="none" filter="url(#fe56i3647k8r9)" style="stroke: #A80036; stroke-width: 2.0;"/><ellipse cx="199" cy="54" fill="#FEFECE" filter="url(#fe56i3647k8r9)" rx="12" ry="12" style="stroke: #A80036; stroke-width: 2.0;"/><text fill="#000000" font-family="sans-serif" font-size="14" lengthAdjust="spacingAndGlyphs" textLength="4" x="123.5" y="563.2598">:</text><text fill="#000000" font-family="sans-serif" font-size="14" lengthAdjust="spacingAndGlyphs" text-decoration="underline" textLength="124" x="127.5" y="563.2598">VSSPreviewerPage</text><line style="stroke: #000000; stroke-width: 1.0;" x1="127.5" x2="251.5" y1="565.2598" y2="565.2598"/><path d="M170,570.2129 L170,594.2129 M170,582.2129 L187,582.2129 " fill="none" filter="url(#fe56i3647k8r9)" style="stroke: #A80036; stroke-width: 2.0;"/><ellipse cx="199" cy="582.2129" fill="#FEFECE" filter="url(#fe56i3647k8r9)" rx="12" ry="12" style="stroke: #A80036; stroke-width: 2.0;"/><text fill="#000000" font-family="sans-serif" font-size="14" lengthAdjust="spacingAndGlyphs" textLength="4" x="267.5" y="83.5352">:</text><text fill="#000000" font-family="sans-serif" font-size="14" lengthAdjust="spacingAndGlyphs" text-decoration="underline" textLength="159" x="271.5" y="83.5352">LocalVSSLibraryControl</text><line style="stroke: #000000; stroke-width: 1.0;" x1="271.5" x2="430.5" y1="85.5352" y2="85.5352"/><ellipse cx="352" cy="54" fill="#FEFECE" filter="url(#fe56i3647k8r9)" rx="12" ry="12" style="stroke: #A80036; stroke-width: 2.0;"/><polygon fill="#A80036" points="348,42,354,37,352,42,354,47,348,42" style="stroke: #A80036; stroke-width: 1.0;"/><text fill="#000000" font-family="sans-serif" font-size="14" lengthAdjust="spacingAndGlyphs" textLength="4" x="267.5" y="563.2598">:</text><text fill="#000000" font-family="sans-serif" font-size="14" lengthAdjust="spacingAndGlyphs" text-decoration="underline" textLength="159" x="271.5" y="563.2598">LocalVSSLibraryControl</text><line style="stroke: #000000; stroke-width: 1.0;" x1="271.5" x2="430.5" y1="565.2598" y2="565.2598"/><ellipse cx="352" cy="582.2129" fill="#FEFECE" filter="url(#fe56i3647k8r9)" rx="12" ry="12" style="stroke: #A80036; stroke-width: 2.0;"/><polygon fill="#A80036" points="348,570.2129,354,565.2129,352,570.2129,354,575.2129,348,570.2129" style="stroke: #A80036; stroke-width: 1.0;"/><text fill="#000000" font-family="sans-serif" font-size="14" lengthAdjust="spacingAndGlyphs" textLength="4" x="446.5" y="83.5352">:</text><text fill="#000000" font-family="sans-serif" font-size="14" lengthAdjust="spacingAndGlyphs" text-decoration="underline" textLength="169" x="450.5" y="83.5352">OnlineVSSLibraryControl</text><line style="stroke: #000000; stroke-width: 1.0;" x1="450.5" x2="619.5" y1="85.5352" y2="85.5352"/><ellipse cx="536" cy="54" fill="#FEFECE" filter="url(#fe56i3647k8r9)" rx="12" ry="12" style="stroke: #A80036; stroke-width: 2.0;"/><polygon fill="#A80036" points="532,42,538,37,536,42,538,47,532,42" style="stroke: #A80036; stroke-width: 1.0;"/><text fill="#000000" font-family="sans-serif" font-size="14" lengthAdjust="spacingAndGlyphs" textLength="4" x="446.5" y="563.2598">:</text><text fill="#000000" font-family="sans-serif" font-size="14" lengthAdjust="spacingAndGlyphs" text-decoration="underline" textLength="169" x="450.5" y="563.2598">OnlineVSSLibraryControl</text><line style="stroke: #000000; stroke-width: 1.0;" x1="450.5" x2="619.5" y1="565.2598" y2="565.2598"/><ellipse cx="536" cy="582.2129" fill="#FEFECE" filter="url(#fe56i3647k8r9)" rx="12" ry="12" style="stroke: #A80036; stroke-width: 2.0;"/><polygon fill="#A80036" points="532,570.2129,538,565.2129,536,570.2129,538,575.2129,532,570.2129" style="stroke: #A80036; stroke-width: 1.0;"/><rect fill="#FEFECE" filter="url(#fe56i3647k8r9)" height="30.4883" style="stroke: #A80036; stroke-width: 1.5;" width="66" x="635.5" y="51"/><text fill="#000000" font-family="sans-serif" font-size="14" lengthAdjust="spacingAndGlyphs" textLength="52" x="642.5" y="71.5352">PlayVSS</text><rect fill="#FEFECE" filter="url(#fe56i3647k8r9)" height="30.4883" style="stroke: #A80036; stroke-width: 1.5;" width="66" x="635.5" y="549.7246"/><text fill="#000000" font-family="sans-serif" font-size="14" lengthAdjust="spacingAndGlyphs" textLength="52" x="642.5" y="570.2598">PlayVSS</text><rect fill="#FEFECE" filter="url(#fe56i3647k8r9)" height="30.4883" style="stroke: #A80036; stroke-width: 1.5;" width="108" x="715.5" y="51"/><text fill="#000000" font-family="sans-serif" font-size="14" lengthAdjust="spacingAndGlyphs" textLength="94" x="722.5" y="71.5352">DownloadVSS</text><rect fill="#FEFECE" filter="url(#fe56i3647k8r9)" height="30.4883" style="stroke: #A80036; stroke-width: 1.5;" width="108" x="715.5" y="549.7246"/><text fill="#000000" font-family="sans-serif" font-size="14" lengthAdjust="spacingAndGlyphs" textLength="94" x="722.5" y="570.2598">DownloadVSS</text><rect fill="#FEFECE" filter="url(#fe56i3647k8r9)" height="30.4883" style="stroke: #A80036; stroke-width: 1.5;" width="66" x="837.5" y="51"/><text fill="#000000" font-family="sans-serif" font-size="14" lengthAdjust="spacingAndGlyphs" textLength="52" x="844.5" y="71.5352">LikeVSS</text><rect fill="#FEFECE" filter="url(#fe56i3647k8r9)" height="30.4883" style="stroke: #A80036; stroke-width: 1.5;" width="66" x="837.5" y="549.7246"/><text fill="#000000" font-family="sans-serif" font-size="14" lengthAdjust="spacingAndGlyphs" textLength="52" x="844.5" y="570.2598">LikeVSS</text><rect fill="#FEFECE" filter="url(#fe56i3647k8r9)" height="30.4883" style="stroke: #A80036; stroke-width: 1.5;" width="106" x="917.5" y="51"/><text fill="#000000" font-family="sans-serif" font-size="14" lengthAdjust="spacingAndGlyphs" textLength="92" x="924.5" y="71.5352">CommentVSS</text><rect fill="#FEFECE" filter="url(#fe56i3647k8r9)" height="30.4883" style="stroke: #A80036; stroke-width: 1.5;" width="106" x="917.5" y="549.7246"/><text fill="#000000" font-family="sans-serif" font-size="14" lengthAdjust="spacingAndGlyphs" textLength="92" x="924.5" y="570.2598">CommentVSS</text><rect fill="#FFFFFF" filter="url(#fe56i3647k8r9)" height="444.2363" style="stroke: #A80036; stroke-width: 1.0;" width="10" x="58.5" y="96.4883"/><rect fill="#FFFFFF" filter="url(#fe56i3647k8r9)" height="444.2363" style="stroke: #A80036; stroke-width: 1.0;" width="10" x="185.5" y="96.4883"/><rect fill="#FFFFFF" filter="url(#fe56i3647k8r9)" height="43.6211" style="stroke: #A80036; stroke-width: 1.0;" width="10" x="347" y="171.1094"/><rect fill="#FFFFFF" filter="url(#fe56i3647k8r9)" height="282.0391" style="stroke: #A80036; stroke-width: 1.0;" width="10" x="531" y="258.6855"/><polygon fill="#A80036" points="173.5,113.4883,183.5,117.4883,173.5,121.4883,177.5,117.4883" style="stroke: #A80036; stroke-width: 1.0;"/><line style="stroke: #A80036; stroke-width: 1.0;" x1="68.5" x2="179.5" y1="117.4883" y2="117.4883"/><text fill="#000000" font-family="sans-serif" font-size="13" lengthAdjust="spacingAndGlyphs" textLength="77" x="75.5" y="113.0566">PreviewVSS()</text><path d="M13,132.7988 L75,132.7988 L75,139.7988 L65,149.7988 L13,149.7988 L13,132.7988 " fill="#EEEEEE" style="stroke: #000000; stroke-width: 1.0;"/><rect fill="none" height="400.9258" style="stroke: #000000; stroke-width: 2.0;" width="1034.5" x="13" y="132.7988"/><text fill="#000000" font-family="sans-serif" font-size="13" font-weight="bold" lengthAdjust="spacingAndGlyphs" textLength="17" x="28" y="146.3672">alt</text><text fill="#000000" font-family="sans-serif" font-size="11" font-weight="bold" lengthAdjust="spacingAndGlyphs" textLength="48" x="90" y="145.4336">[Offline]</text><polygon fill="#A80036" points="335,167.1094,345,171.1094,335,175.1094,339,171.1094" style="stroke: #A80036; stroke-width: 1.0;"/><line style="stroke: #A80036; stroke-width: 1.0;" x1="195.5" x2="341" y1="171.1094" y2="171.1094"/><text fill="#000000" font-family="sans-serif" font-size="13" lengthAdjust="spacingAndGlyphs" textLength="78" x="202.5" y="166.6777">&lt;&lt;create&gt;&gt;</text><polygon fill="#A80036" points="173.5,196.4199,183.5,200.4199,173.5,204.4199,177.5,200.4199" style="stroke: #A80036; stroke-width: 1.0;"/><line style="stroke: #A80036; stroke-width: 1.0;" x1="68.5" x2="179.5" y1="200.4199" y2="200.4199"/><text fill="#000000" font-family="sans-serif" font-size="13" lengthAdjust="spacingAndGlyphs" textLength="55" x="75.5" y="195.9883">PlayVSS()</text><polygon fill="#A80036" points="658.5,210.7305,668.5,214.7305,658.5,218.7305,662.5,214.7305" style="stroke: #A80036; stroke-width: 1.0;"/><line style="stroke: #A80036; stroke-width: 1.0;" x1="352" x2="664.5" y1="214.7305" y2="214.7305"/><line style="stroke: #000000; stroke-width: 1.0; stroke-dasharray: 2.0,2.0;" x1="13" x2="1047.5" y1="223.7305" y2="223.7305"/><text fill="#000000" font-family="sans-serif" font-size="11" font-weight="bold" lengthAdjust="spacingAndGlyphs" textLength="45" x="18" y="234.3652">[Online]</text><polygon fill="#A80036" points="519,254.6855,529,258.6855,519,262.6855,523,258.6855" style="stroke: #A80036; stroke-width: 1.0;"/><line style="stroke: #A80036; stroke-width: 1.0;" x1="195.5" x2="525" y1="258.6855" y2="258.6855"/><text fill="#000000" font-family="sans-serif" font-size="13" lengthAdjust="spacingAndGlyphs" textLength="78" x="202.5" y="254.2539">&lt;&lt;create&gt;&gt;</text><path d="M23,273.9961 L85,273.9961 L85,280.9961 L75,290.9961 L23,290.9961 L23,273.9961 " fill="#EEEEEE" style="stroke: #000000; stroke-width: 1.0;"/><rect fill="none" height="252.7285" style="stroke: #000000; stroke-width: 2.0;" width="1014.5" x="23" y="273.9961"/><text fill="#000000" font-family="sans-serif" font-size="13" font-weight="bold" lengthAdjust="spacingAndGlyphs" textLength="17" x="38" y="287.5645">alt</text><text fill="#000000" font-family="sans-serif" font-size="11" font-weight="bold" lengthAdjust="spacingAndGlyphs" textLength="123" x="100" y="286.6309">[Download Operation]</text><polygon fill="#A80036" points="173.5,308.3066,183.5,312.3066,173.5,316.3066,177.5,312.3066" style="stroke: #A80036; stroke-width: 1.0;"/><line style="stroke: #A80036; stroke-width: 1.0;" x1="68.5" x2="179.5" y1="312.3066" y2="312.3066"/><text fill="#000000" font-family="sans-serif" font-size="13" lengthAdjust="spacingAndGlyphs" textLength="93" x="75.5" y="307.875">DownloadVSS()</text><path d="M33,327.6172 L95,327.6172 L95,334.6172 L85,344.6172 L33,344.6172 L33,327.6172 " fill="#EEEEEE" style="stroke: #000000; stroke-width: 1.0;"/><rect fill="none" height="75.5762" style="stroke: #000000; stroke-width: 2.0;" width="804.5" x="33" y="327.6172"/><text fill="#000000" font-family="sans-serif" font-size="13" font-weight="bold" lengthAdjust="spacingAndGlyphs" textLength="17" x="48" y="341.1855">alt</text><text fill="#000000" font-family="sans-serif" font-size="11" font-weight="bold" lengthAdjust="spacingAndGlyphs" textLength="75" x="110" y="340.252">[downloaded]</text><polygon fill="#A80036" points="79.5,361.9277,69.5,365.9277,79.5,369.9277,75.5,365.9277" style="stroke: #A80036; stroke-width: 1.0;"/><line style="stroke: #A80036; stroke-width: 1.0;" x1="73.5" x2="184.5" y1="365.9277" y2="365.9277"/><text fill="#000000" font-family="sans-serif" font-size="13" lengthAdjust="spacingAndGlyphs" textLength="42" x="85.5" y="361.4961">Refuse</text><line style="stroke: #000000; stroke-width: 1.0; stroke-dasharray: 2.0,2.0;" x1="33" x2="837.5" y1="375.2383" y2="375.2383"/><text fill="#000000" font-family="sans-serif" font-size="11" font-weight="bold" lengthAdjust="spacingAndGlyphs" textLength="97" x="38" y="385.873">[not downloaded]</text><polygon fill="#A80036" points="759.5,391.1934,769.5,395.1934,759.5,399.1934,763.5,395.1934" style="stroke: #A80036; stroke-width: 1.0;"/><line style="stroke: #A80036; stroke-width: 1.0;" x1="541" x2="765.5" y1="395.1934" y2="395.1934"/><line style="stroke: #000000; stroke-width: 1.0; stroke-dasharray: 2.0,2.0;" x1="23" x2="1037.5" y1="411.1934" y2="411.1934"/><text fill="#000000" font-family="sans-serif" font-size="11" font-weight="bold" lengthAdjust="spacingAndGlyphs" textLength="90" x="28" y="421.8281">[Like Operation]</text><polygon fill="#A80036" points="173.5,442.1484,183.5,446.1484,173.5,450.1484,177.5,446.1484" style="stroke: #A80036; stroke-width: 1.0;"/><line style="stroke: #A80036; stroke-width: 1.0;" x1="68.5" x2="179.5" y1="446.1484" y2="446.1484"/><text fill="#000000" font-family="sans-serif" font-size="13" lengthAdjust="spacingAndGlyphs" textLength="56" x="75.5" y="441.7168">LikeVSS()</text><polygon fill="#A80036" points="860.5,456.459,870.5,460.459,860.5,464.459,864.5,460.459" style="stroke: #A80036; stroke-width: 1.0;"/><line style="stroke: #A80036; stroke-width: 1.0;" x1="541" x2="866.5" y1="460.459" y2="460.459"/><line style="stroke: #000000; stroke-width: 1.0; stroke-dasharray: 2.0,2.0;" x1="23" x2="1037.5" y1="469.459" y2="469.459"/><text fill="#000000" font-family="sans-serif" font-size="11" font-weight="bold" lengthAdjust="spacingAndGlyphs" textLength="121" x="28" y="480.0938">[Comment Operation]</text><polygon fill="#A80036" points="173.5,500.4141,183.5,504.4141,173.5,508.4141,177.5,504.4141" style="stroke: #A80036; stroke-width: 1.0;"/><line style="stroke: #A80036; stroke-width: 1.0;" x1="68.5" x2="179.5" y1="504.4141" y2="504.4141"/><text fill="#000000" font-family="sans-serif" font-size="13" lengthAdjust="spacingAndGlyphs" textLength="91" x="75.5" y="499.9824">CommentVSS()</text><polygon fill="#A80036" points="960.5,514.7246,970.5,518.7246,960.5,522.7246,964.5,518.7246" style="stroke: #A80036; stroke-width: 1.0;"/><line style="stroke: #A80036; stroke-width: 1.0;" x1="541" x2="966.5" y1="518.7246" y2="518.7246"/><!--
@startuml
actor ":__User__" as User
boundary ":__VSSPreviewerPage__" as VSSPreviewerPage
control ":__LocalVSSLibraryControl__" as LocalVSSLibraryControl
control ":__OnlineVSSLibraryControl__" as OnlineVSSLibraryControl

activate User
activate VSSPreviewerPage
User -> VSSPreviewerPage: PreviewVSS()
alt Offline
    VSSPreviewerPage -> LocalVSSLibraryControl: <<create>>
    activate LocalVSSLibraryControl
    User -> VSSPreviewerPage: PlayVSS()
    LocalVSSLibraryControl -> PlayVSS
    deactivate LocalVSSLibraryControl
else Online
    VSSPreviewerPage -> OnlineVSSLibraryControl: <<create>>
    activate OnlineVSSLibraryControl
    alt Download Operation
        User -> VSSPreviewerPage: DownloadVSS()
        alt downloaded
            VSSPreviewerPage -> User: Refuse
        else not downloaded
            OnlineVSSLibraryControl -> DownloadVSS
        end
    else Like Operation
        User -> VSSPreviewerPage: LikeVSS()
        OnlineVSSLibraryControl -> LikeVSS
    else Comment Operation
        User -> VSSPreviewerPage: CommentVSS()
        OnlineVSSLibraryControl -> CommentVSS
    end
end
deactivate OnlineVSSLibraryControl
deactivate VSSPreviewerPage
deactivate User
@enduml

PlantUML version 1.2018.01(Mon Jan 29 02:08:22 CST 2018)
(GPL source distribution)
Java Runtime: Java(TM) SE Runtime Environment
JVM: Java HotSpot(TM) 64-Bit Server VM
Java Version: 9+181
Operating System: Mac OS X
OS Version: 10.12.6
Default Encoding: UTF-8
Language: zh
Country: CN
--></g></svg>