<?xml version="1.0" encoding="UTF-8" standalone="no"?><svg xmlns="http://www.w3.org/2000/svg" xmlns:xlink="http://www.w3.org/1999/xlink" contentScriptType="application/ecmascript" contentStyleType="text/css" height="461px" preserveAspectRatio="none" style="width:845px;height:461px;" version="1.1" viewBox="0 0 845 461"
    width="845px" zoomAndPan="magnify"><defs><filter height="300%" id="fzs03ch8zrpp0" width="300%" x="-1" y="-1"><feGaussianBlur result="blurOut" stdDeviation="2.0"/><feColorMatrix in="blurOut" result="blurOut2" type="matrix" values="0 0 0 0 0 0 0 0 0 0 0 0 0 0 0 0 0 0 .4 0"/><feOffset dx="4.0" dy="4.0" in="blurOut2" result="blurOut3"/><feBlend in="SourceGraphic" in2="blurOut3" mode="normal"/></filter></defs><g><rect fill="#FFFFFF" filter="url(#fzs03ch8zrpp0)" height="148.5527" style="stroke: #A80036; stroke-width: 1.0;" width="10" x="38.5" y="96.4883"/><rect fill="#FFFFFF" filter="url(#fzs03ch8zrpp0)" height="148.5527" style="stroke: #A80036; stroke-width: 1.0;" width="10" x="191.5" y="96.4883"/><rect fill="#FFFFFF" filter="url(#fzs03ch8zrpp0)" height="237.8633" style="stroke: #A80036; stroke-width: 1.0;" width="10" x="367.5" y="117.4883"/><rect fill="#FFFFFF" filter="url(#fzs03ch8zrpp0)" height="30" style="stroke: #A80036; stroke-width: 1.0;" width="10" x="550" y="266.041"/><rect fill="#FFFFFF" filter="url(#fzs03ch8zrpp0)" height="30" style="stroke: #A80036; stroke-width: 1.0;" width="10" x="741" y="325.3516"/><rect fill="#FFFFFF" filter="url(#fzs03ch8zrpp0)" height="46.6211" style="stroke: #000000; stroke-width: 2.0;" width="275" x="13" y="191.4199"/><line style="stroke: #A80036; stroke-width: 1.0; stroke-dasharray: 5.0,5.0;" x1="43" x2="43" y1="86.4883" y2="373.6621"/><line style="stroke: #A80036; stroke-width: 1.0; stroke-dasharray: 5.0,5.0;" x1="196" x2="196" y1="86.4883" y2="373.6621"/><line style="stroke: #A80036; stroke-width: 1.0; stroke-dasharray: 5.0,5.0;" x1="372" x2="372" y1="86.4883" y2="373.6621"/><line style="stroke: #A80036; stroke-width: 1.0; stroke-dasharray: 5.0,5.0;" x1="555" x2="555" y1="86.4883" y2="373.6621"/><line style="stroke: #A80036; stroke-width: 1.0; stroke-dasharray: 5.0,5.0;" x1="746" x2="746" y1="86.4883" y2="373.6621"/><text fill="#000000" font-family="sans-serif" font-size="14" lengthAdjust="spacingAndGlyphs" textLength="4" x="23" y="83.5352">:</text><text fill="#000000" font-family="sans-serif" font-size="14" lengthAdjust="spacingAndGlyphs" text-decoration="underline" textLength="31" x="27" y="83.5352">User</text><line style="stroke: #000000; stroke-width: 1.0;" x1="27" x2="58" y1="85.5352" y2="85.5352"/><ellipse cx="43.5" cy="13" fill="#FEFECE" filter="url(#fzs03ch8zrpp0)" rx="8" ry="8" style="stroke: #A80036; stroke-width: 2.0;"/><path d="M43.5,21 L43.5,48 M30.5,29 L56.5,29 M43.5,48 L30.5,63 M43.5,48 L56.5,63 " fill="none" filter="url(#fzs03ch8zrpp0)" style="stroke: #A80036; stroke-width: 2.0;"/><text fill="#000000" font-family="sans-serif" font-size="14" lengthAdjust="spacingAndGlyphs" textLength="4" x="23" y="386.1973">:</text><text fill="#000000" font-family="sans-serif" font-size="14" lengthAdjust="spacingAndGlyphs" text-decoration="underline" textLength="31" x="27" y="386.1973">User</text><line style="stroke: #000000; stroke-width: 1.0;" x1="27" x2="58" y1="388.1973" y2="388.1973"/><ellipse cx="43.5" cy="399.1504" fill="#FEFECE" filter="url(#fzs03ch8zrpp0)" rx="8" ry="8" style="stroke: #A80036; stroke-width: 2.0;"/><path d="M43.5,407.1504 L43.5,434.1504 M30.5,415.1504 L56.5,415.1504 M43.5,434.1504 L30.5,449.1504 M43.5,434.1504 L56.5,449.1504 " fill="none" filter="url(#fzs03ch8zrpp0)" style="stroke: #A80036; stroke-width: 2.0;"/><text fill="#000000" font-family="sans-serif" font-size="14" lengthAdjust="spacingAndGlyphs" textLength="4" x="115" y="83.5352">:</text><text fill="#000000" font-family="sans-serif" font-size="14" lengthAdjust="spacingAndGlyphs" text-decoration="underline" textLength="153" x="119" y="83.5352">LocalVSSManagerPage</text><line style="stroke: #000000; stroke-width: 1.0;" x1="119" x2="272" y1="85.5352" y2="85.5352"/><path d="M176,42 L176,66 M176,54 L193,54 " fill="none" filter="url(#fzs03ch8zrpp0)" style="stroke: #A80036; stroke-width: 2.0;"/><ellipse cx="205" cy="54" fill="#FEFECE" filter="url(#fzs03ch8zrpp0)" rx="12" ry="12" style="stroke: #A80036; stroke-width: 2.0;"/><text fill="#000000" font-family="sans-serif" font-size="14" lengthAdjust="spacingAndGlyphs" textLength="4" x="115" y="386.1973">:</text><text fill="#000000" font-family="sans-serif" font-size="14" lengthAdjust="spacingAndGlyphs" text-decoration="underline" textLength="153" x="119" y="386.1973">LocalVSSManagerPage</text><line style="stroke: #000000; stroke-width: 1.0;" x1="119" x2="272" y1="388.1973" y2="388.1973"/><path d="M176,393.1504 L176,417.1504 M176,405.1504 L193,405.1504 " fill="none" filter="url(#fzs03ch8zrpp0)" style="stroke: #A80036; stroke-width: 2.0;"/><ellipse cx="205" cy="405.1504" fill="#FEFECE" filter="url(#fzs03ch8zrpp0)" rx="12" ry="12" style="stroke: #A80036; stroke-width: 2.0;"/><text fill="#000000" font-family="sans-serif" font-size="14" lengthAdjust="spacingAndGlyphs" textLength="4" x="288" y="83.5352">:</text><text fill="#000000" font-family="sans-serif" font-size="14" lengthAdjust="spacingAndGlyphs" text-decoration="underline" textLength="159" x="292" y="83.5352">LocalVSSLibraryControl</text><line style="stroke: #000000; stroke-width: 1.0;" x1="292" x2="451" y1="85.5352" y2="85.5352"/><ellipse cx="372.5" cy="54" fill="#FEFECE" filter="url(#fzs03ch8zrpp0)" rx="12" ry="12" style="stroke: #A80036; stroke-width: 2.0;"/><polygon fill="#A80036" points="368.5,42,374.5,37,372.5,42,374.5,47,368.5,42" style="stroke: #A80036; stroke-width: 1.0;"/><text fill="#000000" font-family="sans-serif" font-size="14" lengthAdjust="spacingAndGlyphs" textLength="4" x="288" y="386.1973">:</text><text fill="#000000" font-family="sans-serif" font-size="14" lengthAdjust="spacingAndGlyphs" text-decoration="underline" textLength="159" x="292" y="386.1973">LocalVSSLibraryControl</text><line style="stroke: #000000; stroke-width: 1.0;" x1="292" x2="451" y1="388.1973" y2="388.1973"/><ellipse cx="372.5" cy="405.1504" fill="#FEFECE" filter="url(#fzs03ch8zrpp0)" rx="12" ry="12" style="stroke: #A80036; stroke-width: 2.0;"/><polygon fill="#A80036" points="368.5,393.1504,374.5,388.1504,372.5,393.1504,374.5,398.1504,368.5,393.1504" style="stroke: #A80036; stroke-width: 1.0;"/><text fill="#000000" font-family="sans-serif" font-size="14" lengthAdjust="spacingAndGlyphs" textLength="4" x="467" y="83.5352">:</text><text fill="#000000" font-family="sans-serif" font-size="14" lengthAdjust="spacingAndGlyphs" text-decoration="underline" textLength="166" x="471" y="83.5352">LocalSoundSpaceLibrary</text><line style="stroke: #000000; stroke-width: 1.0;" x1="471" x2="637" y1="85.5352" y2="85.5352"/><ellipse cx="555" cy="54" fill="#FEFECE" filter="url(#fzs03ch8zrpp0)" rx="12" ry="12" style="stroke: #A80036; stroke-width: 2.0;"/><line style="stroke: #A80036; stroke-width: 2.0;" x1="543" x2="567" y1="68" y2="68"/><text fill="#000000" font-family="sans-serif" font-size="14" lengthAdjust="spacingAndGlyphs" textLength="4" x="467" y="386.1973">:</text><text fill="#000000" font-family="sans-serif" font-size="14" lengthAdjust="spacingAndGlyphs" text-decoration="underline" textLength="166" x="471" y="386.1973">LocalSoundSpaceLibrary</text><line style="stroke: #000000; stroke-width: 1.0;" x1="471" x2="637" y1="388.1973" y2="388.1973"/><ellipse cx="555" cy="405.1504" fill="#FEFECE" filter="url(#fzs03ch8zrpp0)" rx="12" ry="12" style="stroke: #A80036; stroke-width: 2.0;"/><line style="stroke: #A80036; stroke-width: 2.0;" x1="543" x2="567" y1="419.1504" y2="419.1504"/><text fill="#000000" font-family="sans-serif" font-size="14" lengthAdjust="spacingAndGlyphs" textLength="4" x="653" y="83.5352">:</text><text fill="#000000" font-family="sans-serif" font-size="14" lengthAdjust="spacingAndGlyphs" text-decoration="underline" textLength="176" x="657" y="83.5352">OnlineSoundSpaceLibrary</text><line style="stroke: #000000; stroke-width: 1.0;" x1="657" x2="833" y1="85.5352" y2="85.5352"/><ellipse cx="746" cy="54" fill="#FEFECE" filter="url(#fzs03ch8zrpp0)" rx="12" ry="12" style="stroke: #A80036; stroke-width: 2.0;"/><line style="stroke: #A80036; stroke-width: 2.0;" x1="734" x2="758" y1="68" y2="68"/><text fill="#000000" font-family="sans-serif" font-size="14" lengthAdjust="spacingAndGlyphs" textLength="4" x="653" y="386.1973">:</text><text fill="#000000" font-family="sans-serif" font-size="14" lengthAdjust="spacingAndGlyphs" text-decoration="underline" textLength="176" x="657" y="386.1973">OnlineSoundSpaceLibrary</text><line style="stroke: #000000; stroke-width: 1.0;" x1="657" x2="833" y1="388.1973" y2="388.1973"/><ellipse cx="746" cy="405.1504" fill="#FEFECE" filter="url(#fzs03ch8zrpp0)" rx="12" ry="12" style="stroke: #A80036; stroke-width: 2.0;"/><line style="stroke: #A80036; stroke-width: 2.0;" x1="734" x2="758" y1="419.1504" y2="419.1504"/><rect fill="#FFFFFF" filter="url(#fzs03ch8zrpp0)" height="148.5527" style="stroke: #A80036; stroke-width: 1.0;" width="10" x="38.5" y="96.4883"/><rect fill="#FFFFFF" filter="url(#fzs03ch8zrpp0)" height="148.5527" style="stroke: #A80036; stroke-width: 1.0;" width="10" x="191.5" y="96.4883"/><rect fill="#FFFFFF" filter="url(#fzs03ch8zrpp0)" height="237.8633" style="stroke: #A80036; stroke-width: 1.0;" width="10" x="367.5" y="117.4883"/><rect fill="#FFFFFF" filter="url(#fzs03ch8zrpp0)" height="30" style="stroke: #A80036; stroke-width: 1.0;" width="10" x="550" y="266.041"/><rect fill="#FFFFFF" filter="url(#fzs03ch8zrpp0)" height="30" style="stroke: #A80036; stroke-width: 1.0;" width="10" x="741" y="325.3516"/><polygon fill="#A80036" points="355.5,113.4883,365.5,117.4883,355.5,121.4883,359.5,117.4883" style="stroke: #A80036; stroke-width: 1.0;"/><line style="stroke: #A80036; stroke-width: 1.0;" x1="201.5" x2="361.5" y1="117.4883" y2="117.4883"/><text fill="#000000" font-family="sans-serif" font-size="13" lengthAdjust="spacingAndGlyphs" textLength="78" x="208.5" y="113.0566">&lt;&lt;create&gt;&gt;</text><polygon fill="#A80036" points="59.5,142.7988,49.5,146.7988,59.5,150.7988,55.5,146.7988" style="stroke: #A80036; stroke-width: 1.0;"/><line style="stroke: #A80036; stroke-width: 1.0;" x1="53.5" x2="190.5" y1="146.7988" y2="146.7988"/><text fill="#000000" font-family="sans-serif" font-size="13" lengthAdjust="spacingAndGlyphs" textLength="119" x="65.5" y="142.3672">RemindUploading()</text><polygon fill="#A80036" points="179.5,172.1094,189.5,176.1094,179.5,180.1094,183.5,176.1094" style="stroke: #A80036; stroke-width: 1.0;"/><line style="stroke: #A80036; stroke-width: 1.0;" x1="48.5" x2="185.5" y1="176.1094" y2="176.1094"/><text fill="#000000" font-family="sans-serif" font-size="13" lengthAdjust="spacingAndGlyphs" textLength="74" x="55.5" y="171.6777">UploadVSS()</text><path d="M13,191.4199 L75,191.4199 L75,198.4199 L65,208.4199 L13,208.4199 L13,191.4199 " fill="#EEEEEE" style="stroke: #000000; stroke-width: 1.0;"/><rect fill="none" height="46.6211" style="stroke: #000000; stroke-width: 2.0;" width="275" x="13" y="191.4199"/><text fill="#000000" font-family="sans-serif" font-size="13" font-weight="bold" lengthAdjust="spacingAndGlyphs" textLength="17" x="28" y="204.9883">alt</text><text fill="#000000" font-family="sans-serif" font-size="11" font-weight="bold" lengthAdjust="spacingAndGlyphs" textLength="47" x="90" y="204.0547">[invalid]</text><polygon fill="#A80036" points="179.5,225.7305,189.5,229.7305,179.5,233.7305,183.5,229.7305" style="stroke: #A80036; stroke-width: 1.0;"/><line style="stroke: #A80036; stroke-width: 1.0;" x1="48.5" x2="185.5" y1="229.7305" y2="229.7305"/><text fill="#000000" font-family="sans-serif" font-size="13" lengthAdjust="spacingAndGlyphs" textLength="74" x="55.5" y="225.2988">UploadVSS()</text><polygon fill="#A80036" points="388.5,262.041,378.5,266.041,388.5,270.041,384.5,266.041" style="stroke: #A80036; stroke-width: 1.0;"/><line style="stroke: #A80036; stroke-width: 1.0;" x1="382.5" x2="549" y1="266.041" y2="266.041"/><text fill="#000000" font-family="sans-serif" font-size="13" lengthAdjust="spacingAndGlyphs" textLength="22" x="394.5" y="261.6094">VSS</text><polygon fill="#A80036" points="729,321.3516,739,325.3516,729,329.3516,733,325.3516" style="stroke: #A80036; stroke-width: 1.0;"/><line style="stroke: #A80036; stroke-width: 1.0;" x1="377.5" x2="735" y1="325.3516" y2="325.3516"/><text fill="#000000" font-family="sans-serif" font-size="13" lengthAdjust="spacingAndGlyphs" textLength="66" x="384.5" y="320.9199">UploadVSS</text><!--
@startuml
actor ":__User__" as User
boundary ":__LocalVSSManagerPage__" as LocalVSSManagerPage
control ":__LocalVSSLibraryControl__" as LocalVSSLibraryControl
entity ":__LocalSoundSpaceLibrary__" as LocalSoundSpaceLibrary
entity ":__OnlineSoundSpaceLibrary__" as OnlineSoundSpaceLibrary

activate User
activate LocalVSSManagerPage
LocalVSSManagerPage -> LocalVSSLibraryControl: <<create>>
activate LocalVSSLibraryControl
LocalVSSManagerPage -> User: RemindUploading()
User -> LocalVSSManagerPage: UploadVSS()
alt invalid
    User -> LocalVSSManagerPage: UploadVSS()
end
deactivate User
deactivate LocalVSSManagerPage
LocalSoundSpaceLibrary -> LocalVSSLibraryControl : VSS
activate LocalSoundSpaceLibrary
deactivate LocalSoundSpaceLibrary
LocalVSSLibraryControl -> OnlineSoundSpaceLibrary: UploadVSS
activate OnlineSoundSpaceLibrary
deactivate OnlineSoundSpaceLibrary
deactivate LocalVSSLibraryControl
@enduml

PlantUML version 1.2018.01(Mon Jan 29 02:08:22 CST 2018)
(GPL source distribution)
Java Runtime: Java(TM) SE Runtime Environment
JVM: Java HotSpot(TM) 64-Bit Server VM
Java Version: 9+181
Operating System: Mac OS X
OS Version: 10.12.6
Default Encoding: UTF-8
Language: zh
Country: CN
--></g></svg>