<?xml version="1.0" encoding="UTF-8" standalone="no"?><svg xmlns="http://www.w3.org/2000/svg" xmlns:xlink="http://www.w3.org/1999/xlink" contentScriptType="application/ecmascript" contentStyleType="text/css" height="370px" preserveAspectRatio="none" style="width:627px;height:370px;" version="1.1" viewBox="0 0 627 370"
    width="627px" zoomAndPan="magnify"><defs><filter height="300%" id="f1ng4z47bpimxv" width="300%" x="-1" y="-1"><feGaussianBlur result="blurOut" stdDeviation="2.0"/><feColorMatrix in="blurOut" result="blurOut2" type="matrix" values="0 0 0 0 0 0 0 0 0 0 0 0 0 0 0 0 0 0 .4 0"/><feOffset dx="4.0" dy="4.0" in="blurOut2" result="blurOut3"/><feBlend in="SourceGraphic" in2="blurOut3" mode="normal"/></filter></defs><g><rect fill="#FFFFFF" filter="url(#f1ng4z47bpimxv)" height="108.9316" style="stroke: #A80036; stroke-width: 1.0;" width="10" x="23.5" y="96.4883"/><rect fill="#FFFFFF" filter="url(#f1ng4z47bpimxv)" height="108.9316" style="stroke: #A80036; stroke-width: 1.0;" width="10" x="169.5" y="96.4883"/><rect fill="#FFFFFF" filter="url(#f1ng4z47bpimxv)" height="147.2422" style="stroke: #A80036; stroke-width: 1.0;" width="10" x="345.5" y="117.4883"/><rect fill="#FFFFFF" filter="url(#f1ng4z47bpimxv)" height="30" style="stroke: #A80036; stroke-width: 1.0;" width="10" x="528" y="234.7305"/><line style="stroke: #A80036; stroke-width: 1.0; stroke-dasharray: 5.0,5.0;" x1="28" x2="28" y1="86.4883" y2="283.041"/><line style="stroke: #A80036; stroke-width: 1.0; stroke-dasharray: 5.0,5.0;" x1="174" x2="174" y1="86.4883" y2="283.041"/><line style="stroke: #A80036; stroke-width: 1.0; stroke-dasharray: 5.0,5.0;" x1="350" x2="350" y1="86.4883" y2="283.041"/><line style="stroke: #A80036; stroke-width: 1.0; stroke-dasharray: 5.0,5.0;" x1="533" x2="533" y1="86.4883" y2="283.041"/><text fill="#000000" font-family="sans-serif" font-size="14" lengthAdjust="spacingAndGlyphs" textLength="4" x="8" y="83.5352">:</text><text fill="#000000" font-family="sans-serif" font-size="14" lengthAdjust="spacingAndGlyphs" text-decoration="underline" textLength="31" x="12" y="83.5352">User</text><line style="stroke: #000000; stroke-width: 1.0;" x1="12" x2="43" y1="85.5352" y2="85.5352"/><ellipse cx="28.5" cy="13" fill="#FEFECE" filter="url(#f1ng4z47bpimxv)" rx="8" ry="8" style="stroke: #A80036; stroke-width: 2.0;"/><path d="M28.5,21 L28.5,48 M15.5,29 L41.5,29 M28.5,48 L15.5,63 M28.5,48 L41.5,63 " fill="none" filter="url(#f1ng4z47bpimxv)" style="stroke: #A80036; stroke-width: 2.0;"/><text fill="#000000" font-family="sans-serif" font-size="14" lengthAdjust="spacingAndGlyphs" textLength="4" x="8" y="295.5762">:</text><text fill="#000000" font-family="sans-serif" font-size="14" lengthAdjust="spacingAndGlyphs" text-decoration="underline" textLength="31" x="12" y="295.5762">User</text><line style="stroke: #000000; stroke-width: 1.0;" x1="12" x2="43" y1="297.5762" y2="297.5762"/><ellipse cx="28.5" cy="308.5293" fill="#FEFECE" filter="url(#f1ng4z47bpimxv)" rx="8" ry="8" style="stroke: #A80036; stroke-width: 2.0;"/><path d="M28.5,316.5293 L28.5,343.5293 M15.5,324.5293 L41.5,324.5293 M28.5,343.5293 L15.5,358.5293 M28.5,343.5293 L41.5,358.5293 " fill="none" filter="url(#f1ng4z47bpimxv)" style="stroke: #A80036; stroke-width: 2.0;"/><text fill="#000000" font-family="sans-serif" font-size="14" lengthAdjust="spacingAndGlyphs" textLength="4" x="93" y="83.5352">:</text><text fill="#000000" font-family="sans-serif" font-size="14" lengthAdjust="spacingAndGlyphs" text-decoration="underline" textLength="153" x="97" y="83.5352">LocalVSSManagerPage</text><line style="stroke: #000000; stroke-width: 1.0;" x1="97" x2="250" y1="85.5352" y2="85.5352"/><path d="M154,42 L154,66 M154,54 L171,54 " fill="none" filter="url(#f1ng4z47bpimxv)" style="stroke: #A80036; stroke-width: 2.0;"/><ellipse cx="183" cy="54" fill="#FEFECE" filter="url(#f1ng4z47bpimxv)" rx="12" ry="12" style="stroke: #A80036; stroke-width: 2.0;"/><text fill="#000000" font-family="sans-serif" font-size="14" lengthAdjust="spacingAndGlyphs" textLength="4" x="93" y="295.5762">:</text><text fill="#000000" font-family="sans-serif" font-size="14" lengthAdjust="spacingAndGlyphs" text-decoration="underline" textLength="153" x="97" y="295.5762">LocalVSSManagerPage</text><line style="stroke: #000000; stroke-width: 1.0;" x1="97" x2="250" y1="297.5762" y2="297.5762"/><path d="M154,302.5293 L154,326.5293 M154,314.5293 L171,314.5293 " fill="none" filter="url(#f1ng4z47bpimxv)" style="stroke: #A80036; stroke-width: 2.0;"/><ellipse cx="183" cy="314.5293" fill="#FEFECE" filter="url(#f1ng4z47bpimxv)" rx="12" ry="12" style="stroke: #A80036; stroke-width: 2.0;"/><text fill="#000000" font-family="sans-serif" font-size="14" lengthAdjust="spacingAndGlyphs" textLength="4" x="266" y="83.5352">:</text><text fill="#000000" font-family="sans-serif" font-size="14" lengthAdjust="spacingAndGlyphs" text-decoration="underline" textLength="159" x="270" y="83.5352">LocalVSSLibraryControl</text><line style="stroke: #000000; stroke-width: 1.0;" x1="270" x2="429" y1="85.5352" y2="85.5352"/><ellipse cx="350.5" cy="54" fill="#FEFECE" filter="url(#f1ng4z47bpimxv)" rx="12" ry="12" style="stroke: #A80036; stroke-width: 2.0;"/><polygon fill="#A80036" points="346.5,42,352.5,37,350.5,42,352.5,47,346.5,42" style="stroke: #A80036; stroke-width: 1.0;"/><text fill="#000000" font-family="sans-serif" font-size="14" lengthAdjust="spacingAndGlyphs" textLength="4" x="266" y="295.5762">:</text><text fill="#000000" font-family="sans-serif" font-size="14" lengthAdjust="spacingAndGlyphs" text-decoration="underline" textLength="159" x="270" y="295.5762">LocalVSSLibraryControl</text><line style="stroke: #000000; stroke-width: 1.0;" x1="270" x2="429" y1="297.5762" y2="297.5762"/><ellipse cx="350.5" cy="314.5293" fill="#FEFECE" filter="url(#f1ng4z47bpimxv)" rx="12" ry="12" style="stroke: #A80036; stroke-width: 2.0;"/><polygon fill="#A80036" points="346.5,302.5293,352.5,297.5293,350.5,302.5293,352.5,307.5293,346.5,302.5293" style="stroke: #A80036; stroke-width: 1.0;"/><text fill="#000000" font-family="sans-serif" font-size="14" lengthAdjust="spacingAndGlyphs" textLength="4" x="445" y="83.5352">:</text><text fill="#000000" font-family="sans-serif" font-size="14" lengthAdjust="spacingAndGlyphs" text-decoration="underline" textLength="166" x="449" y="83.5352">LocalSoundSpaceLibrary</text><line style="stroke: #000000; stroke-width: 1.0;" x1="449" x2="615" y1="85.5352" y2="85.5352"/><ellipse cx="533" cy="54" fill="#FEFECE" filter="url(#f1ng4z47bpimxv)" rx="12" ry="12" style="stroke: #A80036; stroke-width: 2.0;"/><line style="stroke: #A80036; stroke-width: 2.0;" x1="521" x2="545" y1="68" y2="68"/><text fill="#000000" font-family="sans-serif" font-size="14" lengthAdjust="spacingAndGlyphs" textLength="4" x="445" y="295.5762">:</text><text fill="#000000" font-family="sans-serif" font-size="14" lengthAdjust="spacingAndGlyphs" text-decoration="underline" textLength="166" x="449" y="295.5762">LocalSoundSpaceLibrary</text><line style="stroke: #000000; stroke-width: 1.0;" x1="449" x2="615" y1="297.5762" y2="297.5762"/><ellipse cx="533" cy="314.5293" fill="#FEFECE" filter="url(#f1ng4z47bpimxv)" rx="12" ry="12" style="stroke: #A80036; stroke-width: 2.0;"/><line style="stroke: #A80036; stroke-width: 2.0;" x1="521" x2="545" y1="328.5293" y2="328.5293"/><rect fill="#FFFFFF" filter="url(#f1ng4z47bpimxv)" height="108.9316" style="stroke: #A80036; stroke-width: 1.0;" width="10" x="23.5" y="96.4883"/><rect fill="#FFFFFF" filter="url(#f1ng4z47bpimxv)" height="108.9316" style="stroke: #A80036; stroke-width: 1.0;" width="10" x="169.5" y="96.4883"/><rect fill="#FFFFFF" filter="url(#f1ng4z47bpimxv)" height="147.2422" style="stroke: #A80036; stroke-width: 1.0;" width="10" x="345.5" y="117.4883"/><rect fill="#FFFFFF" filter="url(#f1ng4z47bpimxv)" height="30" style="stroke: #A80036; stroke-width: 1.0;" width="10" x="528" y="234.7305"/><polygon fill="#A80036" points="333.5,113.4883,343.5,117.4883,333.5,121.4883,337.5,117.4883" style="stroke: #A80036; stroke-width: 1.0;"/><line style="stroke: #A80036; stroke-width: 1.0;" x1="179.5" x2="339.5" y1="117.4883" y2="117.4883"/><text fill="#000000" font-family="sans-serif" font-size="13" lengthAdjust="spacingAndGlyphs" textLength="78" x="186.5" y="113.0566">&lt;&lt;create&gt;&gt;</text><polygon fill="#A80036" points="157.5,142.7988,167.5,146.7988,157.5,150.7988,161.5,146.7988" style="stroke: #A80036; stroke-width: 1.0;"/><line style="stroke: #A80036; stroke-width: 1.0;" x1="33.5" x2="163.5" y1="146.7988" y2="146.7988"/><text fill="#000000" font-family="sans-serif" font-size="13" lengthAdjust="spacingAndGlyphs" textLength="70" x="40.5" y="142.3672">DeleteVSS()</text><polygon fill="#A80036" points="44.5,172.1094,34.5,176.1094,44.5,180.1094,40.5,176.1094" style="stroke: #A80036; stroke-width: 1.0;"/><line style="stroke: #A80036; stroke-width: 1.0;" x1="38.5" x2="168.5" y1="176.1094" y2="176.1094"/><text fill="#000000" font-family="sans-serif" font-size="13" lengthAdjust="spacingAndGlyphs" textLength="94" x="50.5" y="171.6777">AskIfDeletion()</text><polygon fill="#A80036" points="162.5,201.4199,172.5,205.4199,162.5,209.4199,166.5,205.4199" style="stroke: #A80036; stroke-width: 1.0;"/><line style="stroke: #A80036; stroke-width: 1.0;" x1="28.5" x2="168.5" y1="205.4199" y2="205.4199"/><text fill="#000000" font-family="sans-serif" font-size="13" lengthAdjust="spacingAndGlyphs" textLength="112" x="35.5" y="200.9883">ConfirmDeletion()</text><polygon fill="#A80036" points="516,230.7305,526,234.7305,516,238.7305,520,234.7305" style="stroke: #A80036; stroke-width: 1.0;"/><line style="stroke: #A80036; stroke-width: 1.0;" x1="355.5" x2="522" y1="234.7305" y2="234.7305"/><text fill="#000000" font-family="sans-serif" font-size="13" lengthAdjust="spacingAndGlyphs" textLength="62" x="362.5" y="230.2988">DeleteVSS</text><!--
@startuml
actor ":__User__" as User
boundary ":__LocalVSSManagerPage__" as LocalVSSManagerPage
control ":__LocalVSSLibraryControl__" as LocalVSSLibraryControl
entity ":__LocalSoundSpaceLibrary__" as LocalSoundSpaceLibrary

activate User
activate LocalVSSManagerPage
LocalVSSManagerPage -> LocalVSSLibraryControl: <<create>>
activate LocalVSSLibraryControl
User -> LocalVSSManagerPage: DeleteVSS()
LocalVSSManagerPage -> User: AskIfDeletion()
User -> LocalVSSManagerPage: ConfirmDeletion()
deactivate User
deactivate LocalVSSManagerPage
LocalVSSLibraryControl -> LocalSoundSpaceLibrary: DeleteVSS
activate LocalSoundSpaceLibrary
deactivate LocalSoundSpaceLibrary
deactivate LocalVSSLibraryControl
@enduml

PlantUML version 1.2018.01(Mon Jan 29 02:08:22 CST 2018)
(GPL source distribution)
Java Runtime: Java(TM) SE Runtime Environment
JVM: Java HotSpot(TM) 64-Bit Server VM
Java Version: 9+181
Operating System: Mac OS X
OS Version: 10.12.6
Default Encoding: UTF-8
Language: zh
Country: CN
--></g></svg>