<?xml version="1.0" encoding="UTF-8" standalone="no"?><svg xmlns="http://www.w3.org/2000/svg" xmlns:xlink="http://www.w3.org/1999/xlink" contentScriptType="application/ecmascript" contentStyleType="text/css" height="311px" preserveAspectRatio="none" style="width:490px;height:311px;" version="1.1" viewBox="0 0 490 311"
    width="490px" zoomAndPan="magnify"><defs><filter height="300%" id="f1ihim79t3yr8i" width="300%" x="-1" y="-1"><feGaussianBlur result="blurOut" stdDeviation="2.0"/><feColorMatrix in="blurOut" result="blurOut2" type="matrix" values="0 0 0 0 0 0 0 0 0 0 0 0 0 0 0 0 0 0 .4 0"/><feOffset dx="4.0" dy="4.0" in="blurOut2" result="blurOut3"/><feBlend in="SourceGraphic" in2="blurOut3" mode="normal"/></filter></defs><g><rect fill="#FFFFFF" filter="url(#f1ihim79t3yr8i)" height="108.9316" style="stroke: #A80036; stroke-width: 1.0;" width="10" x="23.5" y="96.4883"/><rect fill="#FFFFFF" filter="url(#f1ihim79t3yr8i)" height="108.9316" style="stroke: #A80036; stroke-width: 1.0;" width="10" x="205.5" y="96.4883"/><rect fill="#FFFFFF" filter="url(#f1ihim79t3yr8i)" height="87.9316" style="stroke: #A80036; stroke-width: 1.0;" width="10" x="320" y="117.4883"/><rect fill="#FFFFFF" filter="url(#f1ihim79t3yr8i)" height="58.6211" style="stroke: #A80036; stroke-width: 1.0;" width="10" x="451" y="146.7988"/><line style="stroke: #A80036; stroke-width: 1.0; stroke-dasharray: 5.0,5.0;" x1="28" x2="28" y1="86.4883" y2="223.7305"/><line style="stroke: #A80036; stroke-width: 1.0; stroke-dasharray: 5.0,5.0;" x1="210.5" x2="210.5" y1="86.4883" y2="223.7305"/><line style="stroke: #A80036; stroke-width: 1.0; stroke-dasharray: 5.0,5.0;" x1="324.5" x2="324.5" y1="86.4883" y2="223.7305"/><line style="stroke: #A80036; stroke-width: 1.0; stroke-dasharray: 5.0,5.0;" x1="455.5" x2="455.5" y1="86.4883" y2="223.7305"/><text fill="#000000" font-family="sans-serif" font-size="14" lengthAdjust="spacingAndGlyphs" textLength="4" x="8" y="83.5352">:</text><text fill="#000000" font-family="sans-serif" font-size="14" lengthAdjust="spacingAndGlyphs" text-decoration="underline" textLength="31" x="12" y="83.5352">User</text><line style="stroke: #000000; stroke-width: 1.0;" x1="12" x2="43" y1="85.5352" y2="85.5352"/><ellipse cx="28.5" cy="13" fill="#FEFECE" filter="url(#f1ihim79t3yr8i)" rx="8" ry="8" style="stroke: #A80036; stroke-width: 2.0;"/><path d="M28.5,21 L28.5,48 M15.5,29 L41.5,29 M28.5,48 L15.5,63 M28.5,48 L41.5,63 " fill="none" filter="url(#f1ihim79t3yr8i)" style="stroke: #A80036; stroke-width: 2.0;"/><text fill="#000000" font-family="sans-serif" font-size="14" lengthAdjust="spacingAndGlyphs" textLength="4" x="8" y="236.2656">:</text><text fill="#000000" font-family="sans-serif" font-size="14" lengthAdjust="spacingAndGlyphs" text-decoration="underline" textLength="31" x="12" y="236.2656">User</text><line style="stroke: #000000; stroke-width: 1.0;" x1="12" x2="43" y1="238.2656" y2="238.2656"/><ellipse cx="28.5" cy="249.2188" fill="#FEFECE" filter="url(#f1ihim79t3yr8i)" rx="8" ry="8" style="stroke: #A80036; stroke-width: 2.0;"/><path d="M28.5,257.2188 L28.5,284.2188 M15.5,265.2188 L41.5,265.2188 M28.5,284.2188 L15.5,299.2188 M28.5,284.2188 L41.5,299.2188 " fill="none" filter="url(#f1ihim79t3yr8i)" style="stroke: #A80036; stroke-width: 2.0;"/><text fill="#000000" font-family="sans-serif" font-size="14" lengthAdjust="spacingAndGlyphs" textLength="4" x="149.5" y="83.5352">:</text><text fill="#000000" font-family="sans-serif" font-size="14" lengthAdjust="spacingAndGlyphs" text-decoration="underline" textLength="112" x="153.5" y="83.5352">VSSViewingPage</text><line style="stroke: #000000; stroke-width: 1.0;" x1="153.5" x2="265.5" y1="85.5352" y2="85.5352"/><path d="M190,42 L190,66 M190,54 L207,54 " fill="none" filter="url(#f1ihim79t3yr8i)" style="stroke: #A80036; stroke-width: 2.0;"/><ellipse cx="219" cy="54" fill="#FEFECE" filter="url(#f1ihim79t3yr8i)" rx="12" ry="12" style="stroke: #A80036; stroke-width: 2.0;"/><text fill="#000000" font-family="sans-serif" font-size="14" lengthAdjust="spacingAndGlyphs" textLength="4" x="149.5" y="236.2656">:</text><text fill="#000000" font-family="sans-serif" font-size="14" lengthAdjust="spacingAndGlyphs" text-decoration="underline" textLength="112" x="153.5" y="236.2656">VSSViewingPage</text><line style="stroke: #000000; stroke-width: 1.0;" x1="153.5" x2="265.5" y1="238.2656" y2="238.2656"/><path d="M190,243.2188 L190,267.2188 M190,255.2188 L207,255.2188 " fill="none" filter="url(#f1ihim79t3yr8i)" style="stroke: #A80036; stroke-width: 2.0;"/><ellipse cx="219" cy="255.2188" fill="#FEFECE" filter="url(#f1ihim79t3yr8i)" rx="12" ry="12" style="stroke: #A80036; stroke-width: 2.0;"/><text fill="#000000" font-family="sans-serif" font-size="14" lengthAdjust="spacingAndGlyphs" textLength="4" x="281.5" y="83.5352">:</text><text fill="#000000" font-family="sans-serif" font-size="14" lengthAdjust="spacingAndGlyphs" text-decoration="underline" textLength="77" x="285.5" y="83.5352">VSSControl</text><line style="stroke: #000000; stroke-width: 1.0;" x1="285.5" x2="362.5" y1="85.5352" y2="85.5352"/><ellipse cx="325" cy="54" fill="#FEFECE" filter="url(#f1ihim79t3yr8i)" rx="12" ry="12" style="stroke: #A80036; stroke-width: 2.0;"/><polygon fill="#A80036" points="321,42,327,37,325,42,327,47,321,42" style="stroke: #A80036; stroke-width: 1.0;"/><text fill="#000000" font-family="sans-serif" font-size="14" lengthAdjust="spacingAndGlyphs" textLength="4" x="281.5" y="236.2656">:</text><text fill="#000000" font-family="sans-serif" font-size="14" lengthAdjust="spacingAndGlyphs" text-decoration="underline" textLength="77" x="285.5" y="236.2656">VSSControl</text><line style="stroke: #000000; stroke-width: 1.0;" x1="285.5" x2="362.5" y1="238.2656" y2="238.2656"/><ellipse cx="325" cy="255.2188" fill="#FEFECE" filter="url(#f1ihim79t3yr8i)" rx="12" ry="12" style="stroke: #A80036; stroke-width: 2.0;"/><polygon fill="#A80036" points="321,243.2188,327,238.2188,325,243.2188,327,248.2188,321,243.2188" style="stroke: #A80036; stroke-width: 1.0;"/><text fill="#000000" font-family="sans-serif" font-size="14" lengthAdjust="spacingAndGlyphs" textLength="4" x="427.5" y="83.5352">:</text><text fill="#000000" font-family="sans-serif" font-size="14" lengthAdjust="spacingAndGlyphs" text-decoration="underline" textLength="47" x="431.5" y="83.5352">Sensor</text><line style="stroke: #000000; stroke-width: 1.0;" x1="431.5" x2="478.5" y1="85.5352" y2="85.5352"/><ellipse cx="456" cy="54" fill="#FEFECE" filter="url(#f1ihim79t3yr8i)" rx="12" ry="12" style="stroke: #A80036; stroke-width: 2.0;"/><line style="stroke: #A80036; stroke-width: 2.0;" x1="444" x2="468" y1="68" y2="68"/><text fill="#000000" font-family="sans-serif" font-size="14" lengthAdjust="spacingAndGlyphs" textLength="4" x="427.5" y="236.2656">:</text><text fill="#000000" font-family="sans-serif" font-size="14" lengthAdjust="spacingAndGlyphs" text-decoration="underline" textLength="47" x="431.5" y="236.2656">Sensor</text><line style="stroke: #000000; stroke-width: 1.0;" x1="431.5" x2="478.5" y1="238.2656" y2="238.2656"/><ellipse cx="456" cy="255.2188" fill="#FEFECE" filter="url(#f1ihim79t3yr8i)" rx="12" ry="12" style="stroke: #A80036; stroke-width: 2.0;"/><line style="stroke: #A80036; stroke-width: 2.0;" x1="444" x2="468" y1="269.2188" y2="269.2188"/><rect fill="#FFFFFF" filter="url(#f1ihim79t3yr8i)" height="108.9316" style="stroke: #A80036; stroke-width: 1.0;" width="10" x="23.5" y="96.4883"/><rect fill="#FFFFFF" filter="url(#f1ihim79t3yr8i)" height="108.9316" style="stroke: #A80036; stroke-width: 1.0;" width="10" x="205.5" y="96.4883"/><rect fill="#FFFFFF" filter="url(#f1ihim79t3yr8i)" height="87.9316" style="stroke: #A80036; stroke-width: 1.0;" width="10" x="320" y="117.4883"/><rect fill="#FFFFFF" filter="url(#f1ihim79t3yr8i)" height="58.6211" style="stroke: #A80036; stroke-width: 1.0;" width="10" x="451" y="146.7988"/><polygon fill="#A80036" points="308,113.4883,318,117.4883,308,121.4883,312,117.4883" style="stroke: #A80036; stroke-width: 1.0;"/><line style="stroke: #A80036; stroke-width: 1.0;" x1="215.5" x2="314" y1="117.4883" y2="117.4883"/><text fill="#000000" font-family="sans-serif" font-size="13" lengthAdjust="spacingAndGlyphs" textLength="78" x="222.5" y="113.0566">&lt;&lt;create&gt;&gt;</text><polygon fill="#A80036" points="44.5,142.7988,34.5,146.7988,44.5,150.7988,40.5,146.7988" style="stroke: #A80036; stroke-width: 1.0;"/><line style="stroke: #A80036; stroke-width: 1.0;" x1="38.5" x2="204.5" y1="146.7988" y2="146.7988"/><text fill="#000000" font-family="sans-serif" font-size="13" lengthAdjust="spacingAndGlyphs" textLength="148" x="50.5" y="142.3672">PlayVSSRemindMessage</text><polygon fill="#A80036" points="341,172.1094,331,176.1094,341,180.1094,337,176.1094" style="stroke: #A80036; stroke-width: 1.0;"/><line style="stroke: #A80036; stroke-width: 1.0;" x1="335" x2="450" y1="176.1094" y2="176.1094"/><text fill="#000000" font-family="sans-serif" font-size="13" lengthAdjust="spacingAndGlyphs" textLength="97" x="347" y="171.6777">HeadMovement</text><polygon fill="#A80036" points="39.5,201.4199,29.5,205.4199,39.5,209.4199,35.5,205.4199" style="stroke: #A80036; stroke-width: 1.0;"/><line style="stroke: #A80036; stroke-width: 1.0;" x1="33.5" x2="209.5" y1="205.4199" y2="205.4199"/><text fill="#000000" font-family="sans-serif" font-size="13" lengthAdjust="spacingAndGlyphs" textLength="39" x="45.5" y="200.9883">Sound</text><!--
@startuml
actor ":__User__" as User
boundary ":__VSSViewingPage__" as VSSViewingPage
control ":__VSSControl__" as VSSControl
entity ":__Sensor__" as Sensor

activate User
activate VSSViewingPage
VSSViewingPage -> VSSControl: <<create>>
activate VSSControl
VSSViewingPage -> User: PlayVSSRemindMessage
activate Sensor
Sensor -> VSSControl: HeadMovement
VSSViewingPage -> User: Sound
deactivate Sensor
deactivate VSSControl
deactivate VSSViewingPage
deactivate User
@enduml

PlantUML version 1.2018.01(Mon Jan 29 02:08:22 CST 2018)
(GPL source distribution)
Java Runtime: Java(TM) SE Runtime Environment
JVM: Java HotSpot(TM) 64-Bit Server VM
Java Version: 9+181
Operating System: Mac OS X
OS Version: 10.12.6
Default Encoding: UTF-8
Language: zh
Country: CN
--></g></svg>