<?xml version="1.0" encoding="UTF-8" standalone="no"?><svg xmlns="http://www.w3.org/2000/svg" xmlns:xlink="http://www.w3.org/1999/xlink" contentScriptType="application/ecmascript" contentStyleType="text/css" height="340px" preserveAspectRatio="none" style="width:647px;height:340px;" version="1.1" viewBox="0 0 647 340"
    width="647px" zoomAndPan="magnify"><defs><filter height="300%" id="f17y1zdlm9n1am" width="300%" x="-1" y="-1"><feGaussianBlur result="blurOut" stdDeviation="2.0"/><feColorMatrix in="blurOut" result="blurOut2" type="matrix" values="0 0 0 0 0 0 0 0 0 0 0 0 0 0 0 0 0 0 .4 0"/><feOffset dx="4.0" dy="4.0" in="blurOut2" result="blurOut3"/><feBlend in="SourceGraphic" in2="blurOut3" mode="normal"/></filter></defs><g><rect fill="#FFFFFF" filter="url(#f17y1zdlm9n1am)" height="138.2422" style="stroke: #A80036; stroke-width: 1.0;" width="10" x="23.5" y="96.4883"/><rect fill="#FFFFFF" filter="url(#f17y1zdlm9n1am)" height="138.2422" style="stroke: #A80036; stroke-width: 1.0;" width="10" x="171.5" y="96.4883"/><rect fill="#FFFFFF" filter="url(#f17y1zdlm9n1am)" height="87.9316" style="stroke: #A80036; stroke-width: 1.0;" width="10" x="350.5" y="146.7988"/><rect fill="#FFFFFF" filter="url(#f17y1zdlm9n1am)" height="29.3105" style="stroke: #A80036; stroke-width: 1.0;" width="10" x="543" y="176.1094"/><line style="stroke: #A80036; stroke-width: 1.0; stroke-dasharray: 5.0,5.0;" x1="28" x2="28" y1="86.4883" y2="253.041"/><line style="stroke: #A80036; stroke-width: 1.0; stroke-dasharray: 5.0,5.0;" x1="176" x2="176" y1="86.4883" y2="253.041"/><line style="stroke: #A80036; stroke-width: 1.0; stroke-dasharray: 5.0,5.0;" x1="355" x2="355" y1="86.4883" y2="253.041"/><line style="stroke: #A80036; stroke-width: 1.0; stroke-dasharray: 5.0,5.0;" x1="548" x2="548" y1="86.4883" y2="253.041"/><text fill="#000000" font-family="sans-serif" font-size="14" lengthAdjust="spacingAndGlyphs" textLength="4" x="8" y="83.5352">:</text><text fill="#000000" font-family="sans-serif" font-size="14" lengthAdjust="spacingAndGlyphs" text-decoration="underline" textLength="31" x="12" y="83.5352">User</text><line style="stroke: #000000; stroke-width: 1.0;" x1="12" x2="43" y1="85.5352" y2="85.5352"/><ellipse cx="28.5" cy="13" fill="#FEFECE" filter="url(#f17y1zdlm9n1am)" rx="8" ry="8" style="stroke: #A80036; stroke-width: 2.0;"/><path d="M28.5,21 L28.5,48 M15.5,29 L41.5,29 M28.5,48 L15.5,63 M28.5,48 L41.5,63 " fill="none" filter="url(#f17y1zdlm9n1am)" style="stroke: #A80036; stroke-width: 2.0;"/><text fill="#000000" font-family="sans-serif" font-size="14" lengthAdjust="spacingAndGlyphs" textLength="4" x="8" y="265.5762">:</text><text fill="#000000" font-family="sans-serif" font-size="14" lengthAdjust="spacingAndGlyphs" text-decoration="underline" textLength="31" x="12" y="265.5762">User</text><line style="stroke: #000000; stroke-width: 1.0;" x1="12" x2="43" y1="267.5762" y2="267.5762"/><ellipse cx="28.5" cy="278.5293" fill="#FEFECE" filter="url(#f17y1zdlm9n1am)" rx="8" ry="8" style="stroke: #A80036; stroke-width: 2.0;"/><path d="M28.5,286.5293 L28.5,313.5293 M15.5,294.5293 L41.5,294.5293 M28.5,313.5293 L15.5,328.5293 M28.5,313.5293 L41.5,328.5293 " fill="none" filter="url(#f17y1zdlm9n1am)" style="stroke: #A80036; stroke-width: 2.0;"/><text fill="#000000" font-family="sans-serif" font-size="14" lengthAdjust="spacingAndGlyphs" textLength="4" x="97" y="83.5352">:</text><text fill="#000000" font-family="sans-serif" font-size="14" lengthAdjust="spacingAndGlyphs" text-decoration="underline" textLength="149" x="101" y="83.5352">OnlineVSSViewerPage</text><line style="stroke: #000000; stroke-width: 1.0;" x1="101" x2="250" y1="85.5352" y2="85.5352"/><path d="M156,42 L156,66 M156,54 L173,54 " fill="none" filter="url(#f17y1zdlm9n1am)" style="stroke: #A80036; stroke-width: 2.0;"/><ellipse cx="185" cy="54" fill="#FEFECE" filter="url(#f17y1zdlm9n1am)" rx="12" ry="12" style="stroke: #A80036; stroke-width: 2.0;"/><text fill="#000000" font-family="sans-serif" font-size="14" lengthAdjust="spacingAndGlyphs" textLength="4" x="97" y="265.5762">:</text><text fill="#000000" font-family="sans-serif" font-size="14" lengthAdjust="spacingAndGlyphs" text-decoration="underline" textLength="149" x="101" y="265.5762">OnlineVSSViewerPage</text><line style="stroke: #000000; stroke-width: 1.0;" x1="101" x2="250" y1="267.5762" y2="267.5762"/><path d="M156,272.5293 L156,296.5293 M156,284.5293 L173,284.5293 " fill="none" filter="url(#f17y1zdlm9n1am)" style="stroke: #A80036; stroke-width: 2.0;"/><ellipse cx="185" cy="284.5293" fill="#FEFECE" filter="url(#f17y1zdlm9n1am)" rx="12" ry="12" style="stroke: #A80036; stroke-width: 2.0;"/><text fill="#000000" font-family="sans-serif" font-size="14" lengthAdjust="spacingAndGlyphs" textLength="4" x="266" y="83.5352">:</text><text fill="#000000" font-family="sans-serif" font-size="14" lengthAdjust="spacingAndGlyphs" text-decoration="underline" textLength="169" x="270" y="83.5352">OnlineVSSLibraryControl</text><line style="stroke: #000000; stroke-width: 1.0;" x1="270" x2="439" y1="85.5352" y2="85.5352"/><ellipse cx="355.5" cy="54" fill="#FEFECE" filter="url(#f17y1zdlm9n1am)" rx="12" ry="12" style="stroke: #A80036; stroke-width: 2.0;"/><polygon fill="#A80036" points="351.5,42,357.5,37,355.5,42,357.5,47,351.5,42" style="stroke: #A80036; stroke-width: 1.0;"/><text fill="#000000" font-family="sans-serif" font-size="14" lengthAdjust="spacingAndGlyphs" textLength="4" x="266" y="265.5762">:</text><text fill="#000000" font-family="sans-serif" font-size="14" lengthAdjust="spacingAndGlyphs" text-decoration="underline" textLength="169" x="270" y="265.5762">OnlineVSSLibraryControl</text><line style="stroke: #000000; stroke-width: 1.0;" x1="270" x2="439" y1="267.5762" y2="267.5762"/><ellipse cx="355.5" cy="284.5293" fill="#FEFECE" filter="url(#f17y1zdlm9n1am)" rx="12" ry="12" style="stroke: #A80036; stroke-width: 2.0;"/><polygon fill="#A80036" points="351.5,272.5293,357.5,267.5293,355.5,272.5293,357.5,277.5293,351.5,272.5293" style="stroke: #A80036; stroke-width: 1.0;"/><text fill="#000000" font-family="sans-serif" font-size="14" lengthAdjust="spacingAndGlyphs" textLength="4" x="455" y="83.5352">:</text><text fill="#000000" font-family="sans-serif" font-size="14" lengthAdjust="spacingAndGlyphs" text-decoration="underline" textLength="176" x="459" y="83.5352">OnlineSoundSpaceLibrary</text><line style="stroke: #000000; stroke-width: 1.0;" x1="459" x2="635" y1="85.5352" y2="85.5352"/><ellipse cx="548" cy="54" fill="#FEFECE" filter="url(#f17y1zdlm9n1am)" rx="12" ry="12" style="stroke: #A80036; stroke-width: 2.0;"/><line style="stroke: #A80036; stroke-width: 2.0;" x1="536" x2="560" y1="68" y2="68"/><text fill="#000000" font-family="sans-serif" font-size="14" lengthAdjust="spacingAndGlyphs" textLength="4" x="455" y="265.5762">:</text><text fill="#000000" font-family="sans-serif" font-size="14" lengthAdjust="spacingAndGlyphs" text-decoration="underline" textLength="176" x="459" y="265.5762">OnlineSoundSpaceLibrary</text><line style="stroke: #000000; stroke-width: 1.0;" x1="459" x2="635" y1="267.5762" y2="267.5762"/><ellipse cx="548" cy="284.5293" fill="#FEFECE" filter="url(#f17y1zdlm9n1am)" rx="12" ry="12" style="stroke: #A80036; stroke-width: 2.0;"/><line style="stroke: #A80036; stroke-width: 2.0;" x1="536" x2="560" y1="298.5293" y2="298.5293"/><rect fill="#FFFFFF" filter="url(#f17y1zdlm9n1am)" height="138.2422" style="stroke: #A80036; stroke-width: 1.0;" width="10" x="23.5" y="96.4883"/><rect fill="#FFFFFF" filter="url(#f17y1zdlm9n1am)" height="138.2422" style="stroke: #A80036; stroke-width: 1.0;" width="10" x="171.5" y="96.4883"/><rect fill="#FFFFFF" filter="url(#f17y1zdlm9n1am)" height="87.9316" style="stroke: #A80036; stroke-width: 1.0;" width="10" x="350.5" y="146.7988"/><rect fill="#FFFFFF" filter="url(#f17y1zdlm9n1am)" height="29.3105" style="stroke: #A80036; stroke-width: 1.0;" width="10" x="543" y="176.1094"/><polygon fill="#A80036" points="159.5,113.4883,169.5,117.4883,159.5,121.4883,163.5,117.4883" style="stroke: #A80036; stroke-width: 1.0;"/><line style="stroke: #A80036; stroke-width: 1.0;" x1="33.5" x2="165.5" y1="117.4883" y2="117.4883"/><text fill="#000000" font-family="sans-serif" font-size="13" lengthAdjust="spacingAndGlyphs" textLength="83" x="40.5" y="113.0566">CommentVSS</text><polygon fill="#A80036" points="338.5,142.7988,348.5,146.7988,338.5,150.7988,342.5,146.7988" style="stroke: #A80036; stroke-width: 1.0;"/><line style="stroke: #A80036; stroke-width: 1.0;" x1="181.5" x2="344.5" y1="146.7988" y2="146.7988"/><text fill="#000000" font-family="sans-serif" font-size="13" lengthAdjust="spacingAndGlyphs" textLength="78" x="188.5" y="142.3672">&lt;&lt;create&gt;&gt;</text><polygon fill="#A80036" points="531,172.1094,541,176.1094,531,180.1094,535,176.1094" style="stroke: #A80036; stroke-width: 1.0;"/><line style="stroke: #A80036; stroke-width: 1.0;" x1="360.5" x2="537" y1="176.1094" y2="176.1094"/><text fill="#000000" font-family="sans-serif" font-size="13" lengthAdjust="spacingAndGlyphs" textLength="83" x="367.5" y="171.6777">CommentVSS</text><polygon fill="#A80036" points="192.5,201.4199,182.5,205.4199,192.5,209.4199,188.5,205.4199" style="stroke: #A80036; stroke-width: 1.0;"/><line style="stroke: #A80036; stroke-width: 1.0;" x1="186.5" x2="547" y1="205.4199" y2="205.4199"/><text fill="#000000" font-family="sans-serif" font-size="13" lengthAdjust="spacingAndGlyphs" textLength="114" x="198.5" y="200.9883">HistroyComments</text><polygon fill="#A80036" points="39.5,230.7305,29.5,234.7305,39.5,238.7305,35.5,234.7305" style="stroke: #A80036; stroke-width: 1.0;"/><line style="stroke: #A80036; stroke-width: 1.0;" x1="33.5" x2="175.5" y1="234.7305" y2="234.7305"/><text fill="#000000" font-family="sans-serif" font-size="13" lengthAdjust="spacingAndGlyphs" textLength="114" x="45.5" y="230.2988">HistroyComments</text><!--
@startuml
actor ":__User__" as User
boundary ":__OnlineVSSViewerPage__" as OnlineVSSViewerPage
control ":__OnlineVSSLibraryControl__" as OnlineVSSLibraryControl
entity ":__OnlineSoundSpaceLibrary__" as OnlineSoundSpaceLibrary

activate User
activate OnlineVSSViewerPage
User -> OnlineVSSViewerPage: CommentVSS
OnlineVSSViewerPage -> OnlineVSSLibraryControl: <<create>>
activate OnlineVSSLibraryControl
OnlineVSSLibraryControl -> OnlineSoundSpaceLibrary: CommentVSS
activate OnlineSoundSpaceLibrary
OnlineSoundSpaceLibrary -> OnlineVSSViewerPage: HistroyComments
deactivate OnlineSoundSpaceLibrary
OnlineVSSViewerPage -> User: HistroyComments
deactivate OnlineVSSLibraryControl
deactivate OnlineVSSViewerPage
deactivate User
@enduml

PlantUML version 1.2018.01(Mon Jan 29 02:08:22 CST 2018)
(GPL source distribution)
Java Runtime: Java(TM) SE Runtime Environment
JVM: Java HotSpot(TM) 64-Bit Server VM
Java Version: 9+181
Operating System: Mac OS X
OS Version: 10.12.6
Default Encoding: UTF-8
Language: zh
Country: CN
--></g></svg>