<?xml version="1.0" encoding="UTF-8" standalone="no"?><svg xmlns="http://www.w3.org/2000/svg" xmlns:xlink="http://www.w3.org/1999/xlink" contentScriptType="application/ecmascript" contentStyleType="text/css" height="483px" preserveAspectRatio="none" style="width:807px;height:483px;" version="1.1" viewBox="0 0 807 483"
    width="807px" zoomAndPan="magnify"><defs><filter height="300%" id="fzs03ch8zrpp0" width="300%" x="-1" y="-1"><feGaussianBlur result="blurOut" stdDeviation="2.0"/><feColorMatrix in="blurOut" result="blurOut2" type="matrix" values="0 0 0 0 0 0 0 0 0 0 0 0 0 0 0 0 0 0 .4 0"/><feOffset dx="4.0" dy="4.0" in="blurOut2" result="blurOut3"/><feBlend in="SourceGraphic" in2="blurOut3" mode="normal"/></filter></defs><g><rect fill="#FFFFFF" filter="url(#fzs03ch8zrpp0)" height="160.7949" style="stroke: #A80036; stroke-width: 1.0;" width="10" x="37.5" y="99.1201"/><rect fill="#FFFFFF" filter="url(#fzs03ch8zrpp0)" height="160.7949" style="stroke: #A80036; stroke-width: 1.0;" width="10" x="180.5" y="99.1201"/><rect fill="#FFFFFF" filter="url(#fzs03ch8zrpp0)" height="252.5493" style="stroke: #A80036; stroke-width: 1.0;" width="10" x="351" y="122.1201"/><rect fill="#FFFFFF" filter="url(#fzs03ch8zrpp0)" height="30" style="stroke: #A80036; stroke-width: 1.0;" width="10" x="526" y="282.915"/><rect fill="#FFFFFF" filter="url(#fzs03ch8zrpp0)" height="30" style="stroke: #A80036; stroke-width: 1.0;" width="10" x="708.5" y="344.6694"/><rect fill="#FFFFFF" filter="url(#fzs03ch8zrpp0)" height="51.5317" style="stroke: #000000; stroke-width: 2.0;" width="262.5" x="13" y="201.3833"/><line style="stroke: #A80036; stroke-width: 1.0; stroke-dasharray: 5.0,5.0;" x1="42" x2="42" y1="89.1201" y2="393.4238"/><line style="stroke: #A80036; stroke-width: 1.0; stroke-dasharray: 5.0,5.0;" x1="185.5" x2="185.5" y1="89.1201" y2="393.4238"/><line style="stroke: #A80036; stroke-width: 1.0; stroke-dasharray: 5.0,5.0;" x1="355.5" x2="355.5" y1="89.1201" y2="393.4238"/><line style="stroke: #A80036; stroke-width: 1.0; stroke-dasharray: 5.0,5.0;" x1="530.5" x2="530.5" y1="89.1201" y2="393.4238"/><line style="stroke: #A80036; stroke-width: 1.0; stroke-dasharray: 5.0,5.0;" x1="713.5" x2="713.5" y1="89.1201" y2="393.4238"/><text fill="#000000" font-family="sans-serif" font-size="14" lengthAdjust="spacingAndGlyphs" textLength="4" x="23" y="86.0439">:</text><text fill="#000000" font-family="sans-serif" font-size="14" lengthAdjust="spacingAndGlyphs" text-decoration="underline" textLength="29" x="27" y="86.0439">User</text><line style="stroke: #000000; stroke-width: 1.0;" x1="27" x2="56" y1="88.0439" y2="88.0439"/><ellipse cx="42.5" cy="13" fill="#FEFECE" filter="url(#fzs03ch8zrpp0)" rx="8" ry="8" style="stroke: #A80036; stroke-width: 2.0;"/><path d="M42.5,21 L42.5,48 M29.5,29 L55.5,29 M42.5,48 L29.5,63 M42.5,48 L55.5,63 " fill="none" filter="url(#fzs03ch8zrpp0)" style="stroke: #A80036; stroke-width: 2.0;"/><text fill="#000000" font-family="sans-serif" font-size="14" lengthAdjust="spacingAndGlyphs" textLength="4" x="23" y="408.4678">:</text><text fill="#000000" font-family="sans-serif" font-size="14" lengthAdjust="spacingAndGlyphs" text-decoration="underline" textLength="29" x="27" y="408.4678">User</text><line style="stroke: #000000; stroke-width: 1.0;" x1="27" x2="56" y1="410.4678" y2="410.4678"/><ellipse cx="42.5" cy="421.5439" fill="#FEFECE" filter="url(#fzs03ch8zrpp0)" rx="8" ry="8" style="stroke: #A80036; stroke-width: 2.0;"/><path d="M42.5,429.5439 L42.5,456.5439 M29.5,437.5439 L55.5,437.5439 M42.5,456.5439 L29.5,471.5439 M42.5,456.5439 L55.5,471.5439 " fill="none" filter="url(#fzs03ch8zrpp0)" style="stroke: #A80036; stroke-width: 2.0;"/><text fill="#000000" font-family="sans-serif" font-size="14" lengthAdjust="spacingAndGlyphs" textLength="4" x="105.5" y="86.0439">:</text><text fill="#000000" font-family="sans-serif" font-size="14" lengthAdjust="spacingAndGlyphs" text-decoration="underline" textLength="150" x="109.5" y="86.0439">LocalVSSManagerPage</text><line style="stroke: #000000; stroke-width: 1.0;" x1="109.5" x2="259.5" y1="88.0439" y2="88.0439"/><path d="M165,42 L165,66 M165,54 L182,54 " fill="none" filter="url(#fzs03ch8zrpp0)" style="stroke: #A80036; stroke-width: 2.0;"/><ellipse cx="194" cy="54" fill="#FEFECE" filter="url(#fzs03ch8zrpp0)" rx="12" ry="12" style="stroke: #A80036; stroke-width: 2.0;"/><text fill="#000000" font-family="sans-serif" font-size="14" lengthAdjust="spacingAndGlyphs" textLength="4" x="105.5" y="408.4678">:</text><text fill="#000000" font-family="sans-serif" font-size="14" lengthAdjust="spacingAndGlyphs" text-decoration="underline" textLength="150" x="109.5" y="408.4678">LocalVSSManagerPage</text><line style="stroke: #000000; stroke-width: 1.0;" x1="109.5" x2="259.5" y1="410.4678" y2="410.4678"/><path d="M165,415.5439 L165,439.5439 M165,427.5439 L182,427.5439 " fill="none" filter="url(#fzs03ch8zrpp0)" style="stroke: #A80036; stroke-width: 2.0;"/><ellipse cx="194" cy="427.5439" fill="#FEFECE" filter="url(#fzs03ch8zrpp0)" rx="12" ry="12" style="stroke: #A80036; stroke-width: 2.0;"/><text fill="#000000" font-family="sans-serif" font-size="14" lengthAdjust="spacingAndGlyphs" textLength="4" x="275.5" y="86.0439">:</text><text fill="#000000" font-family="sans-serif" font-size="14" lengthAdjust="spacingAndGlyphs" text-decoration="underline" textLength="151" x="279.5" y="86.0439">LocalVSSLibraryControl</text><line style="stroke: #000000; stroke-width: 1.0;" x1="279.5" x2="430.5" y1="88.0439" y2="88.0439"/><ellipse cx="356" cy="54" fill="#FEFECE" filter="url(#fzs03ch8zrpp0)" rx="12" ry="12" style="stroke: #A80036; stroke-width: 2.0;"/><polygon fill="#A80036" points="352,42,358,37,356,42,358,47,352,42" style="stroke: #A80036; stroke-width: 1.0;"/><text fill="#000000" font-family="sans-serif" font-size="14" lengthAdjust="spacingAndGlyphs" textLength="4" x="275.5" y="408.4678">:</text><text fill="#000000" font-family="sans-serif" font-size="14" lengthAdjust="spacingAndGlyphs" text-decoration="underline" textLength="151" x="279.5" y="408.4678">LocalVSSLibraryControl</text><line style="stroke: #000000; stroke-width: 1.0;" x1="279.5" x2="430.5" y1="410.4678" y2="410.4678"/><ellipse cx="356" cy="427.5439" fill="#FEFECE" filter="url(#fzs03ch8zrpp0)" rx="12" ry="12" style="stroke: #A80036; stroke-width: 2.0;"/><polygon fill="#A80036" points="352,415.5439,358,410.5439,356,415.5439,358,420.5439,352,415.5439" style="stroke: #A80036; stroke-width: 1.0;"/><text fill="#000000" font-family="sans-serif" font-size="14" lengthAdjust="spacingAndGlyphs" textLength="4" x="446.5" y="86.0439">:</text><text fill="#000000" font-family="sans-serif" font-size="14" lengthAdjust="spacingAndGlyphs" text-decoration="underline" textLength="159" x="450.5" y="86.0439">LocalSoundSpaceLibrary</text><line style="stroke: #000000; stroke-width: 1.0;" x1="450.5" x2="609.5" y1="88.0439" y2="88.0439"/><ellipse cx="531" cy="54" fill="#FEFECE" filter="url(#fzs03ch8zrpp0)" rx="12" ry="12" style="stroke: #A80036; stroke-width: 2.0;"/><line style="stroke: #A80036; stroke-width: 2.0;" x1="519" x2="543" y1="68" y2="68"/><text fill="#000000" font-family="sans-serif" font-size="14" lengthAdjust="spacingAndGlyphs" textLength="4" x="446.5" y="408.4678">:</text><text fill="#000000" font-family="sans-serif" font-size="14" lengthAdjust="spacingAndGlyphs" text-decoration="underline" textLength="159" x="450.5" y="408.4678">LocalSoundSpaceLibrary</text><line style="stroke: #000000; stroke-width: 1.0;" x1="450.5" x2="609.5" y1="410.4678" y2="410.4678"/><ellipse cx="531" cy="427.5439" fill="#FEFECE" filter="url(#fzs03ch8zrpp0)" rx="12" ry="12" style="stroke: #A80036; stroke-width: 2.0;"/><line style="stroke: #A80036; stroke-width: 2.0;" x1="519" x2="543" y1="441.5439" y2="441.5439"/><text fill="#000000" font-family="sans-serif" font-size="14" lengthAdjust="spacingAndGlyphs" textLength="4" x="625.5" y="86.0439">:</text><text fill="#000000" font-family="sans-serif" font-size="14" lengthAdjust="spacingAndGlyphs" text-decoration="underline" textLength="166" x="629.5" y="86.0439">OnlineSoundSpaceLibrary</text><line style="stroke: #000000; stroke-width: 1.0;" x1="629.5" x2="795.5" y1="88.0439" y2="88.0439"/><ellipse cx="713.5" cy="54" fill="#FEFECE" filter="url(#fzs03ch8zrpp0)" rx="12" ry="12" style="stroke: #A80036; stroke-width: 2.0;"/><line style="stroke: #A80036; stroke-width: 2.0;" x1="701.5" x2="725.5" y1="68" y2="68"/><text fill="#000000" font-family="sans-serif" font-size="14" lengthAdjust="spacingAndGlyphs" textLength="4" x="625.5" y="408.4678">:</text><text fill="#000000" font-family="sans-serif" font-size="14" lengthAdjust="spacingAndGlyphs" text-decoration="underline" textLength="166" x="629.5" y="408.4678">OnlineSoundSpaceLibrary</text><line style="stroke: #000000; stroke-width: 1.0;" x1="629.5" x2="795.5" y1="410.4678" y2="410.4678"/><ellipse cx="713.5" cy="427.5439" fill="#FEFECE" filter="url(#fzs03ch8zrpp0)" rx="12" ry="12" style="stroke: #A80036; stroke-width: 2.0;"/><line style="stroke: #A80036; stroke-width: 2.0;" x1="701.5" x2="725.5" y1="441.5439" y2="441.5439"/><rect fill="#FFFFFF" filter="url(#fzs03ch8zrpp0)" height="160.7949" style="stroke: #A80036; stroke-width: 1.0;" width="10" x="37.5" y="99.1201"/><rect fill="#FFFFFF" filter="url(#fzs03ch8zrpp0)" height="160.7949" style="stroke: #A80036; stroke-width: 1.0;" width="10" x="180.5" y="99.1201"/><rect fill="#FFFFFF" filter="url(#fzs03ch8zrpp0)" height="252.5493" style="stroke: #A80036; stroke-width: 1.0;" width="10" x="351" y="122.1201"/><rect fill="#FFFFFF" filter="url(#fzs03ch8zrpp0)" height="30" style="stroke: #A80036; stroke-width: 1.0;" width="10" x="526" y="282.915"/><rect fill="#FFFFFF" filter="url(#fzs03ch8zrpp0)" height="30" style="stroke: #A80036; stroke-width: 1.0;" width="10" x="708.5" y="344.6694"/><polygon fill="#A80036" points="339,118.1201,349,122.1201,339,126.1201,343,122.1201" style="stroke: #A80036; stroke-width: 1.0;"/><line style="stroke: #A80036; stroke-width: 1.0;" x1="190.5" x2="345" y1="122.1201" y2="122.1201"/><text fill="#000000" font-family="sans-serif" font-size="13" lengthAdjust="spacingAndGlyphs" textLength="68" x="197.5" y="118.0181">&lt;&lt;create&gt;&gt;</text><polygon fill="#A80036" points="58.5,149.8745,48.5,153.8745,58.5,157.8745,54.5,153.8745" style="stroke: #A80036; stroke-width: 1.0;"/><line style="stroke: #A80036; stroke-width: 1.0;" x1="52.5" x2="179.5" y1="153.8745" y2="153.8745"/><text fill="#000000" font-family="sans-serif" font-size="13" lengthAdjust="spacingAndGlyphs" textLength="109" x="64.5" y="149.7725">RemindUploading()</text><polygon fill="#A80036" points="168.5,181.6289,178.5,185.6289,168.5,189.6289,172.5,185.6289" style="stroke: #A80036; stroke-width: 1.0;"/><line style="stroke: #A80036; stroke-width: 1.0;" x1="47.5" x2="174.5" y1="185.6289" y2="185.6289"/><text fill="#000000" font-family="sans-serif" font-size="13" lengthAdjust="spacingAndGlyphs" textLength="75" x="54.5" y="181.5269">UploadVSS()</text><path d="M13,201.3833 L74,201.3833 L74,210.3833 L64,220.3833 L13,220.3833 L13,201.3833 " fill="#EEEEEE" style="stroke: #000000; stroke-width: 1.0;"/><rect fill="none" height="51.5317" style="stroke: #000000; stroke-width: 2.0;" width="262.5" x="13" y="201.3833"/><text fill="#000000" font-family="sans-serif" font-size="13" font-weight="bold" lengthAdjust="spacingAndGlyphs" textLength="16" x="28" y="217.2813">alt</text><text fill="#000000" font-family="sans-serif" font-size="11" font-weight="bold" lengthAdjust="spacingAndGlyphs" textLength="43" x="89" y="215.9893">[invalid]</text><polygon fill="#A80036" points="168.5,240.1606,178.5,244.1606,168.5,248.1606,172.5,244.1606" style="stroke: #A80036; stroke-width: 1.0;"/><line style="stroke: #A80036; stroke-width: 1.0;" x1="47.5" x2="174.5" y1="244.1606" y2="244.1606"/><text fill="#000000" font-family="sans-serif" font-size="13" lengthAdjust="spacingAndGlyphs" textLength="75" x="54.5" y="240.0586">UploadVSS()</text><polygon fill="#A80036" points="372,278.915,362,282.915,372,286.915,368,282.915" style="stroke: #A80036; stroke-width: 1.0;"/><line style="stroke: #A80036; stroke-width: 1.0;" x1="366" x2="525" y1="282.915" y2="282.915"/><text fill="#000000" font-family="sans-serif" font-size="13" lengthAdjust="spacingAndGlyphs" textLength="27" x="378" y="278.813">VSS</text><polygon fill="#A80036" points="696.5,340.6694,706.5,344.6694,696.5,348.6694,700.5,344.6694" style="stroke: #A80036; stroke-width: 1.0;"/><line style="stroke: #A80036; stroke-width: 1.0;" x1="361" x2="702.5" y1="344.6694" y2="344.6694"/><text fill="#000000" font-family="sans-serif" font-size="13" lengthAdjust="spacingAndGlyphs" textLength="67" x="368" y="340.5674">UploadVSS</text><!--
@startuml
actor ":__User__" as User
boundary ":__LocalVSSManagerPage__" as LocalVSSManagerPage
control ":__LocalVSSLibraryControl__" as LocalVSSLibraryControl
entity ":__LocalSoundSpaceLibrary__" as LocalSoundSpaceLibrary
entity ":__OnlineSoundSpaceLibrary__" as OnlineSoundSpaceLibrary

activate User
activate LocalVSSManagerPage
LocalVSSManagerPage -> LocalVSSLibraryControl: <<create>>
activate LocalVSSLibraryControl
LocalVSSManagerPage -> User: RemindUploading()
User -> LocalVSSManagerPage: UploadVSS()
alt invalid
    User -> LocalVSSManagerPage: UploadVSS()
end
deactivate User
deactivate LocalVSSManagerPage
LocalSoundSpaceLibrary -> LocalVSSLibraryControl : VSS
activate LocalSoundSpaceLibrary
deactivate LocalSoundSpaceLibrary
LocalVSSLibraryControl -> OnlineSoundSpaceLibrary: UploadVSS
activate OnlineSoundSpaceLibrary
deactivate OnlineSoundSpaceLibrary
deactivate LocalVSSLibraryControl
@enduml

PlantUML version 1.2018.01(Mon Jan 29 02:08:22 CST 2018)
(GPL source distribution)
Java Runtime: Java(TM) SE Runtime Environment
JVM: Java HotSpot(TM) Client VM
Java Version: 1.8.0_144-b01
Operating System: Windows 10
OS Version: 10.0
Default Encoding: GBK
Language: zh
Country: CN
--></g></svg>