<?xml version="1.0" encoding="UTF-8" standalone="no"?><svg xmlns="http://www.w3.org/2000/svg" xmlns:xlink="http://www.w3.org/1999/xlink" contentScriptType="application/ecmascript" contentStyleType="text/css" height="1001px" preserveAspectRatio="none" style="width:698px;height:1001px;" version="1.1" viewBox="0 0 698 1001"
    width="698px" zoomAndPan="magnify"><defs><filter height="300%" id="f114bvbzfxaioi" width="300%" x="-1" y="-1"><feGaussianBlur result="blurOut" stdDeviation="2.0"/><feColorMatrix in="blurOut" result="blurOut2" type="matrix" values="0 0 0 0 0 0 0 0 0 0 0 0 0 0 0 0 0 0 .4 0"/><feOffset dx="4.0" dy="4.0" in="blurOut2" result="blurOut3"/><feBlend in="SourceGraphic" in2="blurOut3" mode="normal"/></filter></defs><g><rect fill="#FFFFFF" filter="url(#f114bvbzfxaioi)" height="534.1851" style="stroke: #000000; stroke-width: 2.0;" width="673" x="13" y="360.1553"/><rect fill="#FFFFFF" filter="url(#f114bvbzfxaioi)" height="261.104" style="stroke: #000000; stroke-width: 2.0;" width="592" x="23" y="513.9502"/><rect fill="#FFFFFF" filter="url(#f114bvbzfxaioi)" height="227.3267" style="stroke: #000000; stroke-width: 2.0;" width="572" x="33" y="540.7275"/><rect fill="#FFFFFF" height="48.7773" style="stroke: none; stroke-width: 1.0;" width="572" x="33" y="719.2769"/><rect fill="#FFFFFF" height="48.7773" style="stroke: none; stroke-width: 1.0;" width="673" x="13" y="845.563"/><line style="stroke: #A80036; stroke-width: 1.0; stroke-dasharray: 5.0,5.0;" x1="60" x2="60" y1="89.1201" y2="911.3403"/><line style="stroke: #A80036; stroke-width: 1.0; stroke-dasharray: 5.0,5.0;" x1="187.5" x2="187.5" y1="89.1201" y2="911.3403"/><line style="stroke: #A80036; stroke-width: 1.0; stroke-dasharray: 5.0,5.0;" x1="290.5" x2="290.5" y1="89.1201" y2="911.3403"/><line style="stroke: #A80036; stroke-width: 1.0; stroke-dasharray: 5.0,5.0;" x1="389.5" x2="389.5" y1="89.1201" y2="911.3403"/><line style="stroke: #A80036; stroke-width: 1.0; stroke-dasharray: 5.0,5.0;" x1="459.5" x2="459.5" y1="89.1201" y2="911.3403"/><line style="stroke: #A80036; stroke-width: 1.0; stroke-dasharray: 5.0,5.0;" x1="555" x2="555" y1="89.1201" y2="911.3403"/><line style="stroke: #A80036; stroke-width: 1.0; stroke-dasharray: 5.0,5.0;" x1="640" x2="640" y1="89.1201" y2="911.3403"/><text fill="#000000" font-family="sans-serif" font-size="14" lengthAdjust="spacingAndGlyphs" textLength="28" x="43" y="86.0439">user</text><ellipse cx="60" cy="13" fill="#FEFECE" filter="url(#f114bvbzfxaioi)" rx="8" ry="8" style="stroke: #A80036; stroke-width: 2.0;"/><path d="M60,21 L60,48 M47,29 L73,29 M60,48 L47,63 M60,48 L73,63 " fill="none" filter="url(#f114bvbzfxaioi)" style="stroke: #A80036; stroke-width: 2.0;"/><text fill="#000000" font-family="sans-serif" font-size="14" lengthAdjust="spacingAndGlyphs" textLength="28" x="43" y="926.3843">user</text><ellipse cx="60" cy="939.4604" fill="#FEFECE" filter="url(#f114bvbzfxaioi)" rx="8" ry="8" style="stroke: #A80036; stroke-width: 2.0;"/><path d="M60,947.4604 L60,974.4604 M47,955.4604 L73,955.4604 M60,974.4604 L47,989.4604 M60,974.4604 L73,989.4604 " fill="none" filter="url(#f114bvbzfxaioi)" style="stroke: #A80036; stroke-width: 2.0;"/><text fill="#000000" font-family="sans-serif" font-size="14" lengthAdjust="spacingAndGlyphs" textLength="55" x="157.5" y="86.0439">interface</text><path d="M167.5,42 L167.5,66 M167.5,54 L184.5,54 " fill="none" filter="url(#f114bvbzfxaioi)" style="stroke: #A80036; stroke-width: 2.0;"/><ellipse cx="196.5" cy="54" fill="#FEFECE" filter="url(#f114bvbzfxaioi)" rx="12" ry="12" style="stroke: #A80036; stroke-width: 2.0;"/><text fill="#000000" font-family="sans-serif" font-size="14" lengthAdjust="spacingAndGlyphs" textLength="55" x="157.5" y="926.3843">interface</text><path d="M167.5,933.4604 L167.5,957.4604 M167.5,945.4604 L184.5,945.4604 " fill="none" filter="url(#f114bvbzfxaioi)" style="stroke: #A80036; stroke-width: 2.0;"/><ellipse cx="196.5" cy="945.4604" fill="#FEFECE" filter="url(#f114bvbzfxaioi)" rx="12" ry="12" style="stroke: #A80036; stroke-width: 2.0;"/><text fill="#000000" font-family="sans-serif" font-size="14" lengthAdjust="spacingAndGlyphs" textLength="118" x="228.5" y="86.0439">vssManageControl</text><ellipse cx="290.5" cy="54" fill="#FEFECE" filter="url(#f114bvbzfxaioi)" rx="12" ry="12" style="stroke: #A80036; stroke-width: 2.0;"/><polygon fill="#A80036" points="286.5,42,292.5,37,290.5,42,292.5,47,286.5,42" style="stroke: #A80036; stroke-width: 1.0;"/><text fill="#000000" font-family="sans-serif" font-size="14" lengthAdjust="spacingAndGlyphs" textLength="118" x="228.5" y="926.3843">vssManageControl</text><ellipse cx="290.5" cy="945.4604" fill="#FEFECE" filter="url(#f114bvbzfxaioi)" rx="12" ry="12" style="stroke: #A80036; stroke-width: 2.0;"/><polygon fill="#A80036" points="286.5,933.4604,292.5,928.4604,290.5,933.4604,292.5,938.4604,286.5,933.4604" style="stroke: #A80036; stroke-width: 1.0;"/><text fill="#000000" font-family="sans-serif" font-size="14" lengthAdjust="spacingAndGlyphs" textLength="48" x="362.5" y="86.0439">storage</text><path d="M371.5,34 C371.5,24 389.5,24 389.5,24 C389.5,24 407.5,24 407.5,34 L407.5,60 C407.5,70 389.5,70 389.5,70 C389.5,70 371.5,70 371.5,60 L371.5,34 " fill="#FEFECE" filter="url(#f114bvbzfxaioi)" style="stroke: #000000; stroke-width: 1.5;"/><path d="M371.5,34 C371.5,44 389.5,44 389.5,44 C389.5,44 407.5,44 407.5,34 " fill="none" style="stroke: #000000; stroke-width: 1.5;"/><text fill="#000000" font-family="sans-serif" font-size="14" lengthAdjust="spacingAndGlyphs" textLength="48" x="362.5" y="926.3843">storage</text><path d="M371.5,939.4604 C371.5,929.4604 389.5,929.4604 389.5,929.4604 C389.5,929.4604 407.5,929.4604 407.5,939.4604 L407.5,965.4604 C407.5,975.4604 389.5,975.4604 389.5,975.4604 C389.5,975.4604 371.5,975.4604 371.5,965.4604 L371.5,939.4604 " fill="#FEFECE" filter="url(#f114bvbzfxaioi)" style="stroke: #000000; stroke-width: 1.5;"/><path d="M371.5,939.4604 C371.5,949.4604 389.5,949.4604 389.5,949.4604 C389.5,949.4604 407.5,949.4604 407.5,939.4604 " fill="none" style="stroke: #000000; stroke-width: 1.5;"/><text fill="#000000" font-family="sans-serif" font-size="14" lengthAdjust="spacingAndGlyphs" textLength="61" x="426.5" y="86.0439">Database</text><path d="M442,34 C442,24 460,24 460,24 C460,24 478,24 478,34 L478,60 C478,70 460,70 460,70 C460,70 442,70 442,60 L442,34 " fill="#FEFECE" filter="url(#f114bvbzfxaioi)" style="stroke: #000000; stroke-width: 1.5;"/><path d="M442,34 C442,44 460,44 460,44 C460,44 478,44 478,34 " fill="none" style="stroke: #000000; stroke-width: 1.5;"/><text fill="#000000" font-family="sans-serif" font-size="14" lengthAdjust="spacingAndGlyphs" textLength="61" x="426.5" y="926.3843">Database</text><path d="M442,939.4604 C442,929.4604 460,929.4604 460,929.4604 C460,929.4604 478,929.4604 478,939.4604 L478,965.4604 C478,975.4604 460,975.4604 460,975.4604 C460,975.4604 442,975.4604 442,965.4604 L442,939.4604 " fill="#FEFECE" filter="url(#f114bvbzfxaioi)" style="stroke: #000000; stroke-width: 1.5;"/><path d="M442,939.4604 C442,949.4604 460,949.4604 460,949.4604 C460,949.4604 478,949.4604 478,939.4604 " fill="none" style="stroke: #000000; stroke-width: 1.5;"/><text fill="#000000" font-family="sans-serif" font-size="14" lengthAdjust="spacingAndGlyphs" textLength="74" x="515" y="86.0439">savedAudio</text><ellipse cx="555" cy="54" fill="#FEFECE" filter="url(#f114bvbzfxaioi)" rx="12" ry="12" style="stroke: #A80036; stroke-width: 2.0;"/><line style="stroke: #A80036; stroke-width: 2.0;" x1="543" x2="567" y1="68" y2="68"/><text fill="#000000" font-family="sans-serif" font-size="14" lengthAdjust="spacingAndGlyphs" textLength="74" x="515" y="926.3843">savedAudio</text><ellipse cx="555" cy="945.4604" fill="#FEFECE" filter="url(#f114bvbzfxaioi)" rx="12" ry="12" style="stroke: #A80036; stroke-width: 2.0;"/><line style="stroke: #A80036; stroke-width: 2.0;" x1="543" x2="567" y1="959.4604" y2="959.4604"/><text fill="#000000" font-family="sans-serif" font-size="14" lengthAdjust="spacingAndGlyphs" textLength="65" x="605" y="86.0439">localAudio</text><ellipse cx="640.5" cy="54" fill="#FEFECE" filter="url(#f114bvbzfxaioi)" rx="12" ry="12" style="stroke: #A80036; stroke-width: 2.0;"/><line style="stroke: #A80036; stroke-width: 2.0;" x1="628.5" x2="652.5" y1="68" y2="68"/><text fill="#000000" font-family="sans-serif" font-size="14" lengthAdjust="spacingAndGlyphs" textLength="65" x="605" y="926.3843">localAudio</text><ellipse cx="640.5" cy="945.4604" fill="#FEFECE" filter="url(#f114bvbzfxaioi)" rx="12" ry="12" style="stroke: #A80036; stroke-width: 2.0;"/><line style="stroke: #A80036; stroke-width: 2.0;" x1="628.5" x2="652.5" y1="959.4604" y2="959.4604"/><polygon fill="#A80036" points="176,118.1201,186,122.1201,176,126.1201,180,122.1201" style="stroke: #A80036; stroke-width: 1.0;"/><line style="stroke: #A80036; stroke-width: 1.0;" x1="60" x2="182" y1="122.1201" y2="122.1201"/><text fill="#000000" font-family="sans-serif" font-size="13" lengthAdjust="spacingAndGlyphs" textLength="67" x="67" y="118.0181">UploadVSS</text><polygon fill="#A80036" points="377.5,149.8745,387.5,153.8745,377.5,157.8745,381.5,153.8745" style="stroke: #A80036; stroke-width: 1.0;"/><line style="stroke: #A80036; stroke-width: 1.0;" x1="188" x2="383.5" y1="153.8745" y2="153.8745"/><text fill="#000000" font-family="sans-serif" font-size="13" lengthAdjust="spacingAndGlyphs" textLength="38" x="195" y="149.7725">upload</text><polygon fill="#A80036" points="628.5,181.6289,638.5,185.6289,628.5,189.6289,632.5,185.6289" style="stroke: #A80036; stroke-width: 1.0;"/><line style="stroke: #A80036; stroke-width: 1.0;" x1="389.5" x2="634.5" y1="185.6289" y2="185.6289"/><text fill="#000000" font-family="sans-serif" font-size="13" lengthAdjust="spacingAndGlyphs" textLength="39" x="396.5" y="181.5269">search</text><polygon fill="#A80036" points="199,213.3833,189,217.3833,199,221.3833,195,217.3833" style="stroke: #A80036; stroke-width: 1.0;"/><line style="stroke: #A80036; stroke-width: 1.0;" x1="193" x2="388.5" y1="217.3833" y2="217.3833"/><text fill="#000000" font-family="sans-serif" font-size="13" lengthAdjust="spacingAndGlyphs" textLength="62" x="205" y="213.2813">local audio</text><polygon fill="#A80036" points="71,245.1377,61,249.1377,71,253.1377,67,249.1377" style="stroke: #A80036; stroke-width: 1.0;"/><line style="stroke: #A80036; stroke-width: 1.0;" x1="65" x2="187" y1="249.1377" y2="249.1377"/><text fill="#000000" font-family="sans-serif" font-size="13" lengthAdjust="spacingAndGlyphs" textLength="70" x="77" y="245.0356">upload page</text><polygon fill="#A80036" points="176,276.8921,186,280.8921,176,284.8921,180,280.8921" style="stroke: #A80036; stroke-width: 1.0;"/><line style="stroke: #A80036; stroke-width: 1.0;" x1="60" x2="182" y1="280.8921" y2="280.8921"/><text fill="#000000" font-family="sans-serif" font-size="13" lengthAdjust="spacingAndGlyphs" textLength="59" x="67" y="276.79">upload list</text><polygon fill="#A80036" points="71,308.6465,61,312.6465,71,316.6465,67,312.6465" style="stroke: #A80036; stroke-width: 1.0;"/><line style="stroke: #A80036; stroke-width: 1.0;" x1="65" x2="187" y1="312.6465" y2="312.6465"/><text fill="#000000" font-family="sans-serif" font-size="13" lengthAdjust="spacingAndGlyphs" textLength="49" x="77" y="308.5444">confirm?</text><polygon fill="#A80036" points="176,340.4009,186,344.4009,176,348.4009,180,344.4009" style="stroke: #A80036; stroke-width: 1.0;"/><line style="stroke: #A80036; stroke-width: 1.0;" x1="60" x2="182" y1="344.4009" y2="344.4009"/><text fill="#000000" font-family="sans-serif" font-size="13" lengthAdjust="spacingAndGlyphs" textLength="53" x="67" y="340.2988">message</text><path d="M13,360.1553 L74,360.1553 L74,369.1553 L64,379.1553 L13,379.1553 L13,360.1553 " fill="#EEEEEE" style="stroke: #000000; stroke-width: 1.0;"/><rect fill="none" height="534.1851" style="stroke: #000000; stroke-width: 2.0;" width="673" x="13" y="360.1553"/><text fill="#000000" font-family="sans-serif" font-size="13" font-weight="bold" lengthAdjust="spacingAndGlyphs" textLength="16" x="28" y="376.0532">alt</text><text fill="#000000" font-family="sans-serif" font-size="11" font-weight="bold" lengthAdjust="spacingAndGlyphs" textLength="51" x="89" y="374.7612">[confirm]</text><polygon fill="#A80036" points="278.5,398.9326,288.5,402.9326,278.5,406.9326,282.5,402.9326" style="stroke: #A80036; stroke-width: 1.0;"/><line style="stroke: #A80036; stroke-width: 1.0;" x1="188" x2="284.5" y1="402.9326" y2="402.9326"/><text fill="#000000" font-family="sans-serif" font-size="13" lengthAdjust="spacingAndGlyphs" textLength="59" x="195" y="398.8306">upload list</text><polygon fill="#A80036" points="448,430.687,458,434.687,448,438.687,452,434.687" style="stroke: #A80036; stroke-width: 1.0;"/><line style="stroke: #A80036; stroke-width: 1.0;" x1="290.5" x2="454" y1="434.687" y2="434.687"/><text fill="#000000" font-family="sans-serif" font-size="13" lengthAdjust="spacingAndGlyphs" textLength="71" x="297.5" y="430.585">name check</text><polygon fill="#A80036" points="543,462.4414,553,466.4414,543,470.4414,547,466.4414" style="stroke: #A80036; stroke-width: 1.0;"/><line style="stroke: #A80036; stroke-width: 1.0;" x1="460" x2="549" y1="466.4414" y2="466.4414"/><text fill="#000000" font-family="sans-serif" font-size="13" lengthAdjust="spacingAndGlyphs" textLength="71" x="467" y="462.3394">name check</text><polygon fill="#A80036" points="301.5,494.1958,291.5,498.1958,301.5,502.1958,297.5,498.1958" style="stroke: #A80036; stroke-width: 1.0;"/><line style="stroke: #A80036; stroke-width: 1.0;" x1="295.5" x2="459" y1="498.1958" y2="498.1958"/><text fill="#000000" font-family="sans-serif" font-size="13" lengthAdjust="spacingAndGlyphs" textLength="71" x="307.5" y="494.0938">check result</text><path d="M23,513.9502 L96,513.9502 L96,522.9502 L86,532.9502 L23,532.9502 L23,513.9502 " fill="#EEEEEE" style="stroke: #000000; stroke-width: 1.0;"/><rect fill="none" height="261.104" style="stroke: #000000; stroke-width: 2.0;" width="592" x="23" y="513.9502"/><text fill="#000000" font-family="sans-serif" font-size="13" font-weight="bold" lengthAdjust="spacingAndGlyphs" textLength="28" x="38" y="529.8481">loop</text><text fill="#000000" font-family="sans-serif" font-size="11" font-weight="bold" lengthAdjust="spacingAndGlyphs" textLength="43" x="111" y="528.5562">[invalid]</text><path d="M33,540.7275 L94,540.7275 L94,549.7275 L84,559.7275 L33,559.7275 L33,540.7275 " fill="#EEEEEE" style="stroke: #000000; stroke-width: 1.0;"/><rect fill="none" height="227.3267" style="stroke: #000000; stroke-width: 2.0;" width="572" x="33" y="540.7275"/><text fill="#000000" font-family="sans-serif" font-size="13" font-weight="bold" lengthAdjust="spacingAndGlyphs" textLength="16" x="48" y="556.6255">alt</text><text fill="#000000" font-family="sans-serif" font-size="11" font-weight="bold" lengthAdjust="spacingAndGlyphs" textLength="50" x="109" y="555.3335">[reenter]</text><polygon fill="#A80036" points="176,579.5049,186,583.5049,176,587.5049,180,583.5049" style="stroke: #A80036; stroke-width: 1.0;"/><line style="stroke: #A80036; stroke-width: 1.0;" x1="60" x2="182" y1="583.5049" y2="583.5049"/><text fill="#000000" font-family="sans-serif" font-size="13" lengthAdjust="spacingAndGlyphs" textLength="59" x="67" y="579.4028">upload list</text><polygon fill="#A80036" points="278.5,611.2593,288.5,615.2593,278.5,619.2593,282.5,615.2593" style="stroke: #A80036; stroke-width: 1.0;"/><line style="stroke: #A80036; stroke-width: 1.0;" x1="188" x2="284.5" y1="615.2593" y2="615.2593"/><text fill="#000000" font-family="sans-serif" font-size="13" lengthAdjust="spacingAndGlyphs" textLength="59" x="195" y="611.1572">upload list</text><polygon fill="#A80036" points="448,643.0137,458,647.0137,448,651.0137,452,647.0137" style="stroke: #A80036; stroke-width: 1.0;"/><line style="stroke: #A80036; stroke-width: 1.0;" x1="290.5" x2="454" y1="647.0137" y2="647.0137"/><text fill="#000000" font-family="sans-serif" font-size="13" lengthAdjust="spacingAndGlyphs" textLength="71" x="297.5" y="642.9116">name check</text><polygon fill="#A80036" points="543,674.7681,553,678.7681,543,682.7681,547,678.7681" style="stroke: #A80036; stroke-width: 1.0;"/><line style="stroke: #A80036; stroke-width: 1.0;" x1="460" x2="549" y1="678.7681" y2="678.7681"/><text fill="#000000" font-family="sans-serif" font-size="13" lengthAdjust="spacingAndGlyphs" textLength="71" x="467" y="674.666">name check</text><polygon fill="#A80036" points="301.5,706.5225,291.5,710.5225,301.5,714.5225,297.5,710.5225" style="stroke: #A80036; stroke-width: 1.0;"/><line style="stroke: #A80036; stroke-width: 1.0;" x1="295.5" x2="459" y1="710.5225" y2="710.5225"/><text fill="#000000" font-family="sans-serif" font-size="13" lengthAdjust="spacingAndGlyphs" textLength="71" x="307.5" y="706.4204">check result</text><line style="stroke: #000000; stroke-width: 1.0; stroke-dasharray: 2.0,2.0;" x1="33" x2="605" y1="720.2769" y2="720.2769"/><text fill="#000000" font-family="sans-serif" font-size="11" font-weight="bold" lengthAdjust="spacingAndGlyphs" textLength="43" x="38" y="732.8828">[cancel]</text><polygon fill="#A80036" points="71,755.2998,61,759.2998,71,763.2998,67,759.2998" style="stroke: #A80036; stroke-width: 1.0;"/><line style="stroke: #A80036; stroke-width: 1.0;" x1="65" x2="187" y1="759.2998" y2="759.2998"/><text fill="#000000" font-family="sans-serif" font-size="13" lengthAdjust="spacingAndGlyphs" textLength="104" x="77" y="755.1978">ManageLocalVSS</text><polygon fill="#A80036" points="543,801.0542,553,805.0542,543,809.0542,547,805.0542" style="stroke: #A80036; stroke-width: 1.0;"/><line style="stroke: #A80036; stroke-width: 1.0;" x1="460" x2="549" y1="805.0542" y2="805.0542"/><text fill="#000000" font-family="sans-serif" font-size="13" lengthAdjust="spacingAndGlyphs" textLength="36" x="467" y="800.9521">create</text><polygon fill="#A80036" points="628.5,832.8086,638.5,836.8086,628.5,840.8086,632.5,836.8086" style="stroke: #A80036; stroke-width: 1.0;"/><line style="stroke: #A80036; stroke-width: 1.0;" x1="389.5" x2="634.5" y1="836.8086" y2="836.8086"/><text fill="#000000" font-family="sans-serif" font-size="13" lengthAdjust="spacingAndGlyphs" textLength="35" x="396.5" y="832.7065">delete</text><line style="stroke: #000000; stroke-width: 1.0; stroke-dasharray: 2.0,2.0;" x1="13" x2="686" y1="846.563" y2="846.563"/><text fill="#000000" font-family="sans-serif" font-size="11" font-weight="bold" lengthAdjust="spacingAndGlyphs" textLength="43" x="18" y="859.1689">[cancel]</text><polygon fill="#A80036" points="71,881.5859,61,885.5859,71,889.5859,67,885.5859" style="stroke: #A80036; stroke-width: 1.0;"/><line style="stroke: #A80036; stroke-width: 1.0;" x1="65" x2="187" y1="885.5859" y2="885.5859"/><text fill="#000000" font-family="sans-serif" font-size="13" lengthAdjust="spacingAndGlyphs" textLength="104" x="77" y="881.4839">ManageLocalVSS</text><!--
@startuml
actor user
boundary interface
control vssManageControl
database storage
database Database
entity savedAudio
entity localAudio

user -> interface: UploadVSS
interface -> storage: upload
storage -> localAudio: search
storage -> interface: local audio
interface -> user: upload page
user -> interface: upload list
interface -> user: confirm?
user -> interface: message

alt confirm
    interface -> vssManageControl: upload list
    vssManageControl -> Database: name check
    Database -> savedAudio: name check
    Database -> vssManageControl: check result

    loop invalid
        alt reenter
            user -> interface: upload list
            interface -> vssManageControl: upload list
            vssManageControl -> Database: name check
            Database -> savedAudio: name check
            Database -> vssManageControl: check result
        else cancel
        interface -> user: ManageLocalVSS
        end
    end

    Database -> savedAudio: create
    storage -> localAudio: delete
else cancel
    interface -> user: ManageLocalVSS
end
@enduml

PlantUML version 1.2018.01(Mon Jan 29 02:08:22 CST 2018)
(GPL source distribution)
Java Runtime: Java(TM) SE Runtime Environment
JVM: Java HotSpot(TM) Client VM
Java Version: 1.8.0_144-b01
Operating System: Windows 10
OS Version: 10.0
Default Encoding: GBK
Language: zh
Country: CN
--></g></svg>