<?xml version="1.0" encoding="UTF-8" standalone="no"?><svg xmlns="http://www.w3.org/2000/svg" xmlns:xlink="http://www.w3.org/1999/xlink" contentScriptType="application/ecmascript" contentStyleType="text/css" height="643px" preserveAspectRatio="none" style="width:1646px;height:643px;" version="1.1" viewBox="0 0 1646 643" width="1646px" zoomAndPan="magnify"><defs><filter height="300%" id="f177qob1zb9438" width="300%" x="-1" y="-1"><feGaussianBlur result="blurOut" stdDeviation="2.0"/><feColorMatrix in="blurOut" result="blurOut2" type="matrix" values="0 0 0 0 0 0 0 0 0 0 0 0 0 0 0 0 0 0 .4 0"/><feOffset dx="4.0" dy="4.0" in="blurOut2" result="blurOut3"/><feBlend in="SourceGraphic" in2="blurOut3" mode="normal"/></filter></defs><g><!--class RegisterPage--><rect fill="#FEFECE" filter="url(#f177qob1zb9438)" height="54.2656" id="RegisterPage" style="stroke: #A80036; stroke-width: 1.5;" width="107" x="376.5" y="122"/><ellipse cx="391.5" cy="141.1328" fill="#ADD1B2" rx="11" ry="11" style="stroke: #A80036; stroke-width: 1.0;"/><path d="M394.4731,146.7759 Q393.8921,147.0747 393.2529,147.2241 Q392.6138,147.3735 391.9082,147.3735 Q389.4014,147.3735 388.0815,145.7217 Q386.7617,144.0698 386.7617,140.9487 Q386.7617,137.8193 388.0815,136.1675 Q389.4014,134.5156 391.9082,134.5156 Q392.6138,134.5156 393.2612,134.665 Q393.9087,134.8145 394.4731,135.1133 L394.4731,137.8359 Q393.8423,137.2549 393.2488,136.9851 Q392.6553,136.7153 392.0244,136.7153 Q390.6797,136.7153 389.9949,137.782 Q389.3101,138.8486 389.3101,140.9487 Q389.3101,143.0405 389.9949,144.1072 Q390.6797,145.1738 392.0244,145.1738 Q392.6553,145.1738 393.2488,144.9041 Q393.8423,144.6343 394.4731,144.0532 Z "/><text fill="#000000" font-family="sans-serif" font-size="12" font-style="italic" lengthAdjust="spacingAndGlyphs" textLength="67" x="409.5" y="138.6016">«boundary»</text><text fill="#000000" font-family="sans-serif" font-size="12" lengthAdjust="spacingAndGlyphs" textLength="75" x="405.5" y="152.7344">RegisterPage</text><line style="stroke: #A80036; stroke-width: 1.5;" x1="377.5" x2="482.5" y1="160.2656" y2="160.2656"/><line style="stroke: #A80036; stroke-width: 1.5;" x1="377.5" x2="482.5" y1="168.2656" y2="168.2656"/><!--class UserInfoControl--><rect fill="#FEFECE" filter="url(#f177qob1zb9438)" height="54.2656" id="UserInfoControl" style="stroke: #A80036; stroke-width: 1.5;" width="120" x="592" y="236"/><ellipse cx="607" cy="255.1328" fill="#ADD1B2" rx="11" ry="11" style="stroke: #A80036; stroke-width: 1.0;"/><path d="M609.9731,260.7759 Q609.3921,261.0747 608.7529,261.2241 Q608.1138,261.3735 607.4082,261.3735 Q604.9014,261.3735 603.5815,259.7217 Q602.2617,258.0698 602.2617,254.9487 Q602.2617,251.8193 603.5815,250.1675 Q604.9014,248.5156 607.4082,248.5156 Q608.1138,248.5156 608.7612,248.665 Q609.4087,248.8145 609.9731,249.1133 L609.9731,251.8359 Q609.3423,251.2549 608.7488,250.9851 Q608.1553,250.7153 607.5244,250.7153 Q606.1797,250.7153 605.4949,251.782 Q604.8101,252.8486 604.8101,254.9487 Q604.8101,257.0405 605.4949,258.1072 Q606.1797,259.1738 607.5244,259.1738 Q608.1553,259.1738 608.7488,258.9041 Q609.3423,258.6343 609.9731,258.0532 Z "/><text fill="#000000" font-family="sans-serif" font-size="12" font-style="italic" lengthAdjust="spacingAndGlyphs" textLength="51" x="639.5" y="252.6016">«control»</text><text fill="#000000" font-family="sans-serif" font-size="12" lengthAdjust="spacingAndGlyphs" textLength="88" x="621" y="266.7344">UserInfoControl</text><line style="stroke: #A80036; stroke-width: 1.5;" x1="593" x2="711" y1="274.2656" y2="274.2656"/><line style="stroke: #A80036; stroke-width: 1.5;" x1="593" x2="711" y1="282.2656" y2="282.2656"/><!--class LocalVSSManagerPage--><rect fill="#FEFECE" filter="url(#f177qob1zb9438)" height="54.2656" id="LocalVSSManagerPage" style="stroke: #A80036; stroke-width: 1.5;" width="159" x="1272.5" y="122"/><ellipse cx="1287.5" cy="141.1328" fill="#ADD1B2" rx="11" ry="11" style="stroke: #A80036; stroke-width: 1.0;"/><path d="M1290.4731,146.7759 Q1289.8921,147.0747 1289.2529,147.2241 Q1288.6138,147.3735 1287.9082,147.3735 Q1285.4014,147.3735 1284.0815,145.7217 Q1282.7617,144.0698 1282.7617,140.9487 Q1282.7617,137.8193 1284.0815,136.1675 Q1285.4014,134.5156 1287.9082,134.5156 Q1288.6138,134.5156 1289.2612,134.665 Q1289.9087,134.8145 1290.4731,135.1133 L1290.4731,137.8359 Q1289.8423,137.2549 1289.2488,136.9851 Q1288.6553,136.7153 1288.0244,136.7153 Q1286.6797,136.7153 1285.9949,137.782 Q1285.3101,138.8486 1285.3101,140.9487 Q1285.3101,143.0405 1285.9949,144.1072 Q1286.6797,145.1738 1288.0244,145.1738 Q1288.6553,145.1738 1289.2488,144.9041 Q1289.8423,144.6343 1290.4731,144.0532 Z "/><text fill="#000000" font-family="sans-serif" font-size="12" font-style="italic" lengthAdjust="spacingAndGlyphs" textLength="67" x="1331.5" y="138.6016">«boundary»</text><text fill="#000000" font-family="sans-serif" font-size="12" lengthAdjust="spacingAndGlyphs" textLength="127" x="1301.5" y="152.7344">LocalVSSManagerPage</text><line style="stroke: #A80036; stroke-width: 1.5;" x1="1273.5" x2="1430.5" y1="160.2656" y2="160.2656"/><line style="stroke: #A80036; stroke-width: 1.5;" x1="1273.5" x2="1430.5" y1="168.2656" y2="168.2656"/><!--class User--><rect fill="#FEFECE" filter="url(#f177qob1zb9438)" height="54.2656" id="User" style="stroke: #A80036; stroke-width: 1.5;" width="71" x="616.5" y="350"/><ellipse cx="631.5" cy="369.1328" fill="#ADD1B2" rx="11" ry="11" style="stroke: #A80036; stroke-width: 1.0;"/><path d="M634.4731,374.7759 Q633.8921,375.0747 633.2529,375.2241 Q632.6138,375.3735 631.9082,375.3735 Q629.4014,375.3735 628.0815,373.7217 Q626.7617,372.0698 626.7617,368.9487 Q626.7617,365.8193 628.0815,364.1675 Q629.4014,362.5156 631.9082,362.5156 Q632.6138,362.5156 633.2612,362.665 Q633.9087,362.8145 634.4731,363.1133 L634.4731,365.8359 Q633.8423,365.2549 633.2488,364.9851 Q632.6553,364.7153 632.0244,364.7153 Q630.6797,364.7153 629.9949,365.782 Q629.3101,366.8486 629.3101,368.9487 Q629.3101,371.0405 629.9949,372.1072 Q630.6797,373.1738 632.0244,373.1738 Q632.6553,373.1738 633.2488,372.9041 Q633.8423,372.6343 634.4731,372.0532 Z "/><text fill="#000000" font-family="sans-serif" font-size="12" font-style="italic" lengthAdjust="spacingAndGlyphs" textLength="43" x="643.5" y="366.6016">«entity»</text><text fill="#000000" font-family="sans-serif" font-size="12" lengthAdjust="spacingAndGlyphs" textLength="26" x="652" y="380.7344">User</text><line style="stroke: #A80036; stroke-width: 1.5;" x1="617.5" x2="686.5" y1="388.2656" y2="388.2656"/><line style="stroke: #A80036; stroke-width: 1.5;" x1="617.5" x2="686.5" y1="396.2656" y2="396.2656"/><!--class LoginPage--><rect fill="#FEFECE" filter="url(#f177qob1zb9438)" height="54.2656" id="LoginPage" style="stroke: #A80036; stroke-width: 1.5;" width="95" x="518.5" y="122"/><ellipse cx="533.5" cy="141.1328" fill="#ADD1B2" rx="11" ry="11" style="stroke: #A80036; stroke-width: 1.0;"/><path d="M536.4731,146.7759 Q535.8921,147.0747 535.2529,147.2241 Q534.6138,147.3735 533.9082,147.3735 Q531.4014,147.3735 530.0815,145.7217 Q528.7617,144.0698 528.7617,140.9487 Q528.7617,137.8193 530.0815,136.1675 Q531.4014,134.5156 533.9082,134.5156 Q534.6138,134.5156 535.2612,134.665 Q535.9087,134.8145 536.4731,135.1133 L536.4731,137.8359 Q535.8423,137.2549 535.2488,136.9851 Q534.6553,136.7153 534.0244,136.7153 Q532.6797,136.7153 531.9949,137.782 Q531.3101,138.8486 531.3101,140.9487 Q531.3101,143.0405 531.9949,144.1072 Q532.6797,145.1738 534.0244,145.1738 Q534.6553,145.1738 535.2488,144.9041 Q535.8423,144.6343 536.4731,144.0532 Z "/><text fill="#000000" font-family="sans-serif" font-size="12" font-style="italic" lengthAdjust="spacingAndGlyphs" textLength="67" x="545.5" y="138.6016">«boundary»</text><text fill="#000000" font-family="sans-serif" font-size="12" lengthAdjust="spacingAndGlyphs" textLength="58" x="550" y="152.7344">LoginPage</text><line style="stroke: #A80036; stroke-width: 1.5;" x1="519.5" x2="612.5" y1="160.2656" y2="160.2656"/><line style="stroke: #A80036; stroke-width: 1.5;" x1="519.5" x2="612.5" y1="168.2656" y2="168.2656"/><!--class LocalVSSLibraryControl--><rect fill="#FEFECE" filter="url(#f177qob1zb9438)" height="54.2656" id="LocalVSSLibraryControl" style="stroke: #A80036; stroke-width: 1.5;" width="162" x="1263" y="236"/><ellipse cx="1278" cy="255.1328" fill="#ADD1B2" rx="11" ry="11" style="stroke: #A80036; stroke-width: 1.0;"/><path d="M1280.9731,260.7759 Q1280.3921,261.0747 1279.7529,261.2241 Q1279.1138,261.3735 1278.4082,261.3735 Q1275.9014,261.3735 1274.5815,259.7217 Q1273.2617,258.0698 1273.2617,254.9487 Q1273.2617,251.8193 1274.5815,250.1675 Q1275.9014,248.5156 1278.4082,248.5156 Q1279.1138,248.5156 1279.7612,248.665 Q1280.4087,248.8145 1280.9731,249.1133 L1280.9731,251.8359 Q1280.3423,251.2549 1279.7488,250.9851 Q1279.1553,250.7153 1278.5244,250.7153 Q1277.1797,250.7153 1276.4949,251.782 Q1275.8101,252.8486 1275.8101,254.9487 Q1275.8101,257.0405 1276.4949,258.1072 Q1277.1797,259.1738 1278.5244,259.1738 Q1279.1553,259.1738 1279.7488,258.9041 Q1280.3423,258.6343 1280.9731,258.0532 Z "/><text fill="#000000" font-family="sans-serif" font-size="12" font-style="italic" lengthAdjust="spacingAndGlyphs" textLength="51" x="1331.5" y="252.6016">«control»</text><text fill="#000000" font-family="sans-serif" font-size="12" lengthAdjust="spacingAndGlyphs" textLength="130" x="1292" y="266.7344">LocalVSSLibraryControl</text><line style="stroke: #A80036; stroke-width: 1.5;" x1="1264" x2="1424" y1="274.2656" y2="274.2656"/><line style="stroke: #A80036; stroke-width: 1.5;" x1="1264" x2="1424" y1="282.2656" y2="282.2656"/><!--class LocalSoundSpaceLibrary--><rect fill="#FEFECE" filter="url(#f177qob1zb9438)" height="54.2656" id="LocalSoundSpaceLibrary" style="stroke: #A80036; stroke-width: 1.5;" width="170" x="1200" y="350"/><ellipse cx="1215" cy="369.1328" fill="#ADD1B2" rx="11" ry="11" style="stroke: #A80036; stroke-width: 1.0;"/><path d="M1217.9731,374.7759 Q1217.3921,375.0747 1216.7529,375.2241 Q1216.1138,375.3735 1215.4082,375.3735 Q1212.9014,375.3735 1211.5815,373.7217 Q1210.2617,372.0698 1210.2617,368.9487 Q1210.2617,365.8193 1211.5815,364.1675 Q1212.9014,362.5156 1215.4082,362.5156 Q1216.1138,362.5156 1216.7612,362.665 Q1217.4087,362.8145 1217.9731,363.1133 L1217.9731,365.8359 Q1217.3423,365.2549 1216.7488,364.9851 Q1216.1553,364.7153 1215.5244,364.7153 Q1214.1797,364.7153 1213.4949,365.782 Q1212.8101,366.8486 1212.8101,368.9487 Q1212.8101,371.0405 1213.4949,372.1072 Q1214.1797,373.1738 1215.5244,373.1738 Q1216.1553,373.1738 1216.7488,372.9041 Q1217.3423,372.6343 1217.9731,372.0532 Z "/><text fill="#000000" font-family="sans-serif" font-size="12" font-style="italic" lengthAdjust="spacingAndGlyphs" textLength="43" x="1276.5" y="366.6016">«entity»</text><text fill="#000000" font-family="sans-serif" font-size="12" lengthAdjust="spacingAndGlyphs" textLength="138" x="1229" y="380.7344">LocalSoundSpaceLibrary</text><line style="stroke: #A80036; stroke-width: 1.5;" x1="1201" x2="1369" y1="388.2656" y2="388.2656"/><line style="stroke: #A80036; stroke-width: 1.5;" x1="1201" x2="1369" y1="396.2656" y2="396.2656"/><!--class PreviewLocalMapPage--><rect fill="#FEFECE" filter="url(#f177qob1zb9438)" height="54.2656" id="PreviewLocalMapPage" style="stroke: #A80036; stroke-width: 1.5;" width="158" x="6" y="8"/><ellipse cx="21" cy="27.1328" fill="#ADD1B2" rx="11" ry="11" style="stroke: #A80036; stroke-width: 1.0;"/><path d="M23.9731,32.7759 Q23.3921,33.0747 22.7529,33.2241 Q22.1138,33.3735 21.4082,33.3735 Q18.9014,33.3735 17.5815,31.7217 Q16.2617,30.0698 16.2617,26.9487 Q16.2617,23.8193 17.5815,22.1675 Q18.9014,20.5156 21.4082,20.5156 Q22.1138,20.5156 22.7612,20.665 Q23.4087,20.8145 23.9731,21.1133 L23.9731,23.8359 Q23.3423,23.2549 22.7488,22.9851 Q22.1553,22.7153 21.5244,22.7153 Q20.1797,22.7153 19.4949,23.782 Q18.8101,24.8486 18.8101,26.9487 Q18.8101,29.0405 19.4949,30.1072 Q20.1797,31.1738 21.5244,31.1738 Q22.1553,31.1738 22.7488,30.9041 Q23.3423,30.6343 23.9731,30.0532 Z "/><text fill="#000000" font-family="sans-serif" font-size="12" font-style="italic" lengthAdjust="spacingAndGlyphs" textLength="67" x="64.5" y="24.6016">«boundary»</text><text fill="#000000" font-family="sans-serif" font-size="12" lengthAdjust="spacingAndGlyphs" textLength="126" x="35" y="38.7344">PreviewLocalMapPage</text><line style="stroke: #A80036; stroke-width: 1.5;" x1="7" x2="163" y1="46.2656" y2="46.2656"/><line style="stroke: #A80036; stroke-width: 1.5;" x1="7" x2="163" y1="54.2656" y2="54.2656"/><!--class PreviewLocalConcertPage--><rect fill="#FEFECE" filter="url(#f177qob1zb9438)" height="54.2656" id="PreviewLocalConcertPage" style="stroke: #A80036; stroke-width: 1.5;" width="177" x="199.5" y="8"/><ellipse cx="214.5" cy="27.1328" fill="#ADD1B2" rx="11" ry="11" style="stroke: #A80036; stroke-width: 1.0;"/><path d="M217.4731,32.7759 Q216.8921,33.0747 216.2529,33.2241 Q215.6138,33.3735 214.9082,33.3735 Q212.4014,33.3735 211.0815,31.7217 Q209.7617,30.0698 209.7617,26.9487 Q209.7617,23.8193 211.0815,22.1675 Q212.4014,20.5156 214.9082,20.5156 Q215.6138,20.5156 216.2612,20.665 Q216.9087,20.8145 217.4731,21.1133 L217.4731,23.8359 Q216.8423,23.2549 216.2488,22.9851 Q215.6553,22.7153 215.0244,22.7153 Q213.6797,22.7153 212.9949,23.782 Q212.3101,24.8486 212.3101,26.9487 Q212.3101,29.0405 212.9949,30.1072 Q213.6797,31.1738 215.0244,31.1738 Q215.6553,31.1738 216.2488,30.9041 Q216.8423,30.6343 217.4731,30.0532 Z "/><text fill="#000000" font-family="sans-serif" font-size="12" font-style="italic" lengthAdjust="spacingAndGlyphs" textLength="67" x="267.5" y="24.6016">«boundary»</text><text fill="#000000" font-family="sans-serif" font-size="12" lengthAdjust="spacingAndGlyphs" textLength="145" x="228.5" y="38.7344">PreviewLocalConcertPage</text><line style="stroke: #A80036; stroke-width: 1.5;" x1="200.5" x2="375.5" y1="46.2656" y2="46.2656"/><line style="stroke: #A80036; stroke-width: 1.5;" x1="200.5" x2="375.5" y1="54.2656" y2="54.2656"/><!--class CreateVSSPage--><rect fill="#FEFECE" filter="url(#f177qob1zb9438)" height="54.2656" id="CreateVSSPage" style="stroke: #A80036; stroke-width: 1.5;" width="118" x="26" y="122"/><ellipse cx="41" cy="141.1328" fill="#ADD1B2" rx="11" ry="11" style="stroke: #A80036; stroke-width: 1.0;"/><path d="M43.9731,146.7759 Q43.3921,147.0747 42.7529,147.2241 Q42.1138,147.3735 41.4082,147.3735 Q38.9014,147.3735 37.5815,145.7217 Q36.2617,144.0698 36.2617,140.9487 Q36.2617,137.8193 37.5815,136.1675 Q38.9014,134.5156 41.4082,134.5156 Q42.1138,134.5156 42.7612,134.665 Q43.4087,134.8145 43.9731,135.1133 L43.9731,137.8359 Q43.3423,137.2549 42.7488,136.9851 Q42.1553,136.7153 41.5244,136.7153 Q40.1797,136.7153 39.4949,137.782 Q38.8101,138.8486 38.8101,140.9487 Q38.8101,143.0405 39.4949,144.1072 Q40.1797,145.1738 41.5244,145.1738 Q42.1553,145.1738 42.7488,144.9041 Q43.3423,144.6343 43.9731,144.0532 Z "/><text fill="#000000" font-family="sans-serif" font-size="12" font-style="italic" lengthAdjust="spacingAndGlyphs" textLength="67" x="64.5" y="138.6016">«boundary»</text><text fill="#000000" font-family="sans-serif" font-size="12" lengthAdjust="spacingAndGlyphs" textLength="86" x="55" y="152.7344">CreateVSSPage</text><line style="stroke: #A80036; stroke-width: 1.5;" x1="27" x2="143" y1="160.2656" y2="160.2656"/><line style="stroke: #A80036; stroke-width: 1.5;" x1="27" x2="143" y1="168.2656" y2="168.2656"/><!--class CreateConcertVSSPage--><rect fill="#FEFECE" filter="url(#f177qob1zb9438)" height="54.2656" id="CreateConcertVSSPage" style="stroke: #A80036; stroke-width: 1.5;" width="162" x="179" y="122"/><ellipse cx="194" cy="141.1328" fill="#ADD1B2" rx="11" ry="11" style="stroke: #A80036; stroke-width: 1.0;"/><path d="M196.9731,146.7759 Q196.3921,147.0747 195.7529,147.2241 Q195.1138,147.3735 194.4082,147.3735 Q191.9014,147.3735 190.5815,145.7217 Q189.2617,144.0698 189.2617,140.9487 Q189.2617,137.8193 190.5815,136.1675 Q191.9014,134.5156 194.4082,134.5156 Q195.1138,134.5156 195.7612,134.665 Q196.4087,134.8145 196.9731,135.1133 L196.9731,137.8359 Q196.3423,137.2549 195.7488,136.9851 Q195.1553,136.7153 194.5244,136.7153 Q193.1797,136.7153 192.4949,137.782 Q191.8101,138.8486 191.8101,140.9487 Q191.8101,143.0405 192.4949,144.1072 Q193.1797,145.1738 194.5244,145.1738 Q195.1553,145.1738 195.7488,144.9041 Q196.3423,144.6343 196.9731,144.0532 Z "/><text fill="#000000" font-family="sans-serif" font-size="12" font-style="italic" lengthAdjust="spacingAndGlyphs" textLength="67" x="239.5" y="138.6016">«boundary»</text><text fill="#000000" font-family="sans-serif" font-size="12" lengthAdjust="spacingAndGlyphs" textLength="130" x="208" y="152.7344">CreateConcertVSSPage</text><line style="stroke: #A80036; stroke-width: 1.5;" x1="180" x2="340" y1="160.2656" y2="160.2656"/><line style="stroke: #A80036; stroke-width: 1.5;" x1="180" x2="340" y1="168.2656" y2="168.2656"/><!--class MapVSSCreatePage--><rect fill="#FEFECE" filter="url(#f177qob1zb9438)" height="54.2656" id="MapVSSCreatePage" style="stroke: #A80036; stroke-width: 1.5;" width="143" x="862.5" y="122"/><ellipse cx="877.5" cy="141.1328" fill="#ADD1B2" rx="11" ry="11" style="stroke: #A80036; stroke-width: 1.0;"/><path d="M880.4731,146.7759 Q879.8921,147.0747 879.2529,147.2241 Q878.6138,147.3735 877.9082,147.3735 Q875.4014,147.3735 874.0815,145.7217 Q872.7617,144.0698 872.7617,140.9487 Q872.7617,137.8193 874.0815,136.1675 Q875.4014,134.5156 877.9082,134.5156 Q878.6138,134.5156 879.2612,134.665 Q879.9087,134.8145 880.4731,135.1133 L880.4731,137.8359 Q879.8423,137.2549 879.2488,136.9851 Q878.6553,136.7153 878.0244,136.7153 Q876.6797,136.7153 875.9949,137.782 Q875.3101,138.8486 875.3101,140.9487 Q875.3101,143.0405 875.9949,144.1072 Q876.6797,145.1738 878.0244,145.1738 Q878.6553,145.1738 879.2488,144.9041 Q879.8423,144.6343 880.4731,144.0532 Z "/><text fill="#000000" font-family="sans-serif" font-size="12" font-style="italic" lengthAdjust="spacingAndGlyphs" textLength="67" x="913.5" y="138.6016">«boundary»</text><text fill="#000000" font-family="sans-serif" font-size="12" lengthAdjust="spacingAndGlyphs" textLength="111" x="891.5" y="152.7344">MapVSSCreatePage</text><line style="stroke: #A80036; stroke-width: 1.5;" x1="863.5" x2="1004.5" y1="160.2656" y2="160.2656"/><line style="stroke: #A80036; stroke-width: 1.5;" x1="863.5" x2="1004.5" y1="168.2656" y2="168.2656"/><!--class MapVSSCreateControl--><rect fill="#FEFECE" filter="url(#f177qob1zb9438)" height="54.2656" id="MapVSSCreateControl" style="stroke: #A80036; stroke-width: 1.5;" width="156" x="859" y="236"/><ellipse cx="874" cy="255.1328" fill="#ADD1B2" rx="11" ry="11" style="stroke: #A80036; stroke-width: 1.0;"/><path d="M876.9731,260.7759 Q876.3921,261.0747 875.7529,261.2241 Q875.1138,261.3735 874.4082,261.3735 Q871.9014,261.3735 870.5815,259.7217 Q869.2617,258.0698 869.2617,254.9487 Q869.2617,251.8193 870.5815,250.1675 Q871.9014,248.5156 874.4082,248.5156 Q875.1138,248.5156 875.7612,248.665 Q876.4087,248.8145 876.9731,249.1133 L876.9731,251.8359 Q876.3423,251.2549 875.7488,250.9851 Q875.1553,250.7153 874.5244,250.7153 Q873.1797,250.7153 872.4949,251.782 Q871.8101,252.8486 871.8101,254.9487 Q871.8101,257.0405 872.4949,258.1072 Q873.1797,259.1738 874.5244,259.1738 Q875.1553,259.1738 875.7488,258.9041 Q876.3423,258.6343 876.9731,258.0532 Z "/><text fill="#000000" font-family="sans-serif" font-size="12" font-style="italic" lengthAdjust="spacingAndGlyphs" textLength="51" x="924.5" y="252.6016">«control»</text><text fill="#000000" font-family="sans-serif" font-size="12" lengthAdjust="spacingAndGlyphs" textLength="124" x="888" y="266.7344">MapVSSCreateControl</text><line style="stroke: #A80036; stroke-width: 1.5;" x1="860" x2="1014" y1="274.2656" y2="274.2656"/><line style="stroke: #A80036; stroke-width: 1.5;" x1="860" x2="1014" y1="282.2656" y2="282.2656"/><!--class Sensor--><rect fill="#FEFECE" filter="url(#f177qob1zb9438)" height="54.2656" id="Sensor" style="stroke: #A80036; stroke-width: 1.5;" width="71" x="1022.5" y="350"/><ellipse cx="1037.5" cy="369.1328" fill="#ADD1B2" rx="11" ry="11" style="stroke: #A80036; stroke-width: 1.0;"/><path d="M1040.4731,374.7759 Q1039.8921,375.0747 1039.2529,375.2241 Q1038.6138,375.3735 1037.9082,375.3735 Q1035.4014,375.3735 1034.0815,373.7217 Q1032.7617,372.0698 1032.7617,368.9487 Q1032.7617,365.8193 1034.0815,364.1675 Q1035.4014,362.5156 1037.9082,362.5156 Q1038.6138,362.5156 1039.2612,362.665 Q1039.9087,362.8145 1040.4731,363.1133 L1040.4731,365.8359 Q1039.8423,365.2549 1039.2488,364.9851 Q1038.6553,364.7153 1038.0244,364.7153 Q1036.6797,364.7153 1035.9949,365.782 Q1035.3101,366.8486 1035.3101,368.9487 Q1035.3101,371.0405 1035.9949,372.1072 Q1036.6797,373.1738 1038.0244,373.1738 Q1038.6553,373.1738 1039.2488,372.9041 Q1039.8423,372.6343 1040.4731,372.0532 Z "/><text fill="#000000" font-family="sans-serif" font-size="12" font-style="italic" lengthAdjust="spacingAndGlyphs" textLength="43" x="1049.5" y="366.6016">«entity»</text><text fill="#000000" font-family="sans-serif" font-size="12" lengthAdjust="spacingAndGlyphs" textLength="38" x="1052" y="380.7344">Sensor</text><line style="stroke: #A80036; stroke-width: 1.5;" x1="1023.5" x2="1092.5" y1="388.2656" y2="388.2656"/><line style="stroke: #A80036; stroke-width: 1.5;" x1="1023.5" x2="1092.5" y1="396.2656" y2="396.2656"/><!--class MapModeVirtualSoundSpace--><rect fill="#FEFECE" filter="url(#f177qob1zb9438)" height="54.2656" id="MapModeVirtualSoundSpace" style="stroke: #A80036; stroke-width: 1.5;" width="195" x="885.5" y="578"/><ellipse cx="900.5" cy="597.1328" fill="#ADD1B2" rx="11" ry="11" style="stroke: #A80036; stroke-width: 1.0;"/><path d="M903.4731,602.7759 Q902.8921,603.0747 902.2529,603.2241 Q901.6138,603.3735 900.9082,603.3735 Q898.4014,603.3735 897.0815,601.7217 Q895.7617,600.0698 895.7617,596.9487 Q895.7617,593.8193 897.0815,592.1675 Q898.4014,590.5156 900.9082,590.5156 Q901.6138,590.5156 902.2612,590.665 Q902.9087,590.8145 903.4731,591.1133 L903.4731,593.8359 Q902.8423,593.2549 902.2488,592.9851 Q901.6553,592.7153 901.0244,592.7153 Q899.6797,592.7153 898.9949,593.782 Q898.3101,594.8486 898.3101,596.9487 Q898.3101,599.0405 898.9949,600.1072 Q899.6797,601.1738 901.0244,601.1738 Q901.6553,601.1738 902.2488,600.9041 Q902.8423,600.6343 903.4731,600.0532 Z "/><text fill="#000000" font-family="sans-serif" font-size="12" font-style="italic" lengthAdjust="spacingAndGlyphs" textLength="43" x="974.5" y="594.6016">«entity»</text><text fill="#000000" font-family="sans-serif" font-size="12" lengthAdjust="spacingAndGlyphs" textLength="163" x="914.5" y="608.7344">MapModeVirtualSoundSpace</text><line style="stroke: #A80036; stroke-width: 1.5;" x1="886.5" x2="1079.5" y1="616.2656" y2="616.2656"/><line style="stroke: #A80036; stroke-width: 1.5;" x1="886.5" x2="1079.5" y1="624.2656" y2="624.2656"/><!--class ConcertModeVirtualSoundSpace--><rect fill="#FEFECE" filter="url(#f177qob1zb9438)" height="54.2656" id="ConcertModeVirtualSoundSpace" style="stroke: #A80036; stroke-width: 1.5;" width="214" x="1379" y="578"/><ellipse cx="1394" cy="597.1328" fill="#ADD1B2" rx="11" ry="11" style="stroke: #A80036; stroke-width: 1.0;"/><path d="M1396.9731,602.7759 Q1396.3921,603.0747 1395.7529,603.2241 Q1395.1138,603.3735 1394.4082,603.3735 Q1391.9014,603.3735 1390.5815,601.7217 Q1389.2617,600.0698 1389.2617,596.9487 Q1389.2617,593.8193 1390.5815,592.1675 Q1391.9014,590.5156 1394.4082,590.5156 Q1395.1138,590.5156 1395.7612,590.665 Q1396.4087,590.8145 1396.9731,591.1133 L1396.9731,593.8359 Q1396.3423,593.2549 1395.7488,592.9851 Q1395.1553,592.7153 1394.5244,592.7153 Q1393.1797,592.7153 1392.4949,593.782 Q1391.8101,594.8486 1391.8101,596.9487 Q1391.8101,599.0405 1392.4949,600.1072 Q1393.1797,601.1738 1394.5244,601.1738 Q1395.1553,601.1738 1395.7488,600.9041 Q1396.3423,600.6343 1396.9731,600.0532 Z "/><text fill="#000000" font-family="sans-serif" font-size="12" font-style="italic" lengthAdjust="spacingAndGlyphs" textLength="43" x="1477.5" y="594.6016">«entity»</text><text fill="#000000" font-family="sans-serif" font-size="12" lengthAdjust="spacingAndGlyphs" textLength="182" x="1408" y="608.7344">ConcertModeVirtualSoundSpace</text><line style="stroke: #A80036; stroke-width: 1.5;" x1="1380" x2="1592" y1="616.2656" y2="616.2656"/><line style="stroke: #A80036; stroke-width: 1.5;" x1="1380" x2="1592" y1="624.2656" y2="624.2656"/><!--class VirtualSoundSpace--><rect fill="#FEFECE" filter="url(#f177qob1zb9438)" height="54.2656" id="VirtualSoundSpace" style="stroke: #A80036; stroke-width: 1.5;" width="138" x="1131" y="464"/><ellipse cx="1146" cy="483.1328" fill="#A9DCDF" rx="11" ry="11" style="stroke: #A80036; stroke-width: 1.0;"/><path d="M1146.1133,478.481 L1144.9595,483.5527 L1147.2754,483.5527 Z M1144.6191,476.2397 L1147.6157,476.2397 L1150.9609,488.6328 L1148.5122,488.6328 L1147.7485,485.5698 L1144.4697,485.5698 L1143.7227,488.6328 L1141.2739,488.6328 Z "/><text fill="#000000" font-family="sans-serif" font-size="12" font-style="italic" lengthAdjust="spacingAndGlyphs" textLength="43" x="1191.5" y="480.6016">«entity»</text><text fill="#000000" font-family="sans-serif" font-size="12" font-style="italic" lengthAdjust="spacingAndGlyphs" textLength="106" x="1160" y="494.7344">VirtualSoundSpace</text><line style="stroke: #A80036; stroke-width: 1.5;" x1="1132" x2="1268" y1="502.2656" y2="502.2656"/><line style="stroke: #A80036; stroke-width: 1.5;" x1="1132" x2="1268" y1="510.2656" y2="510.2656"/><!--class SoundSource--><rect fill="#FEFECE" filter="url(#f177qob1zb9438)" height="54.2656" id="SoundSource" style="stroke: #A80036; stroke-width: 1.5;" width="105" x="1147.5" y="578"/><ellipse cx="1162.5" cy="597.1328" fill="#ADD1B2" rx="11" ry="11" style="stroke: #A80036; stroke-width: 1.0;"/><path d="M1165.4731,602.7759 Q1164.8921,603.0747 1164.2529,603.2241 Q1163.6138,603.3735 1162.9082,603.3735 Q1160.4014,603.3735 1159.0815,601.7217 Q1157.7617,600.0698 1157.7617,596.9487 Q1157.7617,593.8193 1159.0815,592.1675 Q1160.4014,590.5156 1162.9082,590.5156 Q1163.6138,590.5156 1164.2612,590.665 Q1164.9087,590.8145 1165.4731,591.1133 L1165.4731,593.8359 Q1164.8423,593.2549 1164.2488,592.9851 Q1163.6553,592.7153 1163.0244,592.7153 Q1161.6797,592.7153 1160.9949,593.782 Q1160.3101,594.8486 1160.3101,596.9487 Q1160.3101,599.0405 1160.9949,600.1072 Q1161.6797,601.1738 1163.0244,601.1738 Q1163.6553,601.1738 1164.2488,600.9041 Q1164.8423,600.6343 1165.4731,600.0532 Z "/><text fill="#000000" font-family="sans-serif" font-size="12" font-style="italic" lengthAdjust="spacingAndGlyphs" textLength="43" x="1191.5" y="594.6016">«entity»</text><text fill="#000000" font-family="sans-serif" font-size="12" lengthAdjust="spacingAndGlyphs" textLength="73" x="1176.5" y="608.7344">SoundSource</text><line style="stroke: #A80036; stroke-width: 1.5;" x1="1148.5" x2="1251.5" y1="616.2656" y2="616.2656"/><line style="stroke: #A80036; stroke-width: 1.5;" x1="1148.5" x2="1251.5" y1="624.2656" y2="624.2656"/><!--class ConcertVSSCreatePage--><rect fill="#FEFECE" filter="url(#f177qob1zb9438)" height="54.2656" id="ConcertVSSCreatePage" style="stroke: #A80036; stroke-width: 1.5;" width="162" x="1467" y="122"/><ellipse cx="1482" cy="141.1328" fill="#ADD1B2" rx="11" ry="11" style="stroke: #A80036; stroke-width: 1.0;"/><path d="M1484.9731,146.7759 Q1484.3921,147.0747 1483.7529,147.2241 Q1483.1138,147.3735 1482.4082,147.3735 Q1479.9014,147.3735 1478.5815,145.7217 Q1477.2617,144.0698 1477.2617,140.9487 Q1477.2617,137.8193 1478.5815,136.1675 Q1479.9014,134.5156 1482.4082,134.5156 Q1483.1138,134.5156 1483.7612,134.665 Q1484.4087,134.8145 1484.9731,135.1133 L1484.9731,137.8359 Q1484.3423,137.2549 1483.7488,136.9851 Q1483.1553,136.7153 1482.5244,136.7153 Q1481.1797,136.7153 1480.4949,137.782 Q1479.8101,138.8486 1479.8101,140.9487 Q1479.8101,143.0405 1480.4949,144.1072 Q1481.1797,145.1738 1482.5244,145.1738 Q1483.1553,145.1738 1483.7488,144.9041 Q1484.3423,144.6343 1484.9731,144.0532 Z "/><text fill="#000000" font-family="sans-serif" font-size="12" font-style="italic" lengthAdjust="spacingAndGlyphs" textLength="67" x="1527.5" y="138.6016">«boundary»</text><text fill="#000000" font-family="sans-serif" font-size="12" lengthAdjust="spacingAndGlyphs" textLength="130" x="1496" y="152.7344">ConcertVSSCreatePage</text><line style="stroke: #A80036; stroke-width: 1.5;" x1="1468" x2="1628" y1="160.2656" y2="160.2656"/><line style="stroke: #A80036; stroke-width: 1.5;" x1="1468" x2="1628" y1="168.2656" y2="168.2656"/><!--class ConcertVSSCreateControl--><rect fill="#FEFECE" filter="url(#f177qob1zb9438)" height="54.2656" id="ConcertVSSCreateControl" style="stroke: #A80036; stroke-width: 1.5;" width="175" x="1460.5" y="236"/><ellipse cx="1475.5" cy="255.1328" fill="#ADD1B2" rx="11" ry="11" style="stroke: #A80036; stroke-width: 1.0;"/><path d="M1478.4731,260.7759 Q1477.8921,261.0747 1477.2529,261.2241 Q1476.6138,261.3735 1475.9082,261.3735 Q1473.4014,261.3735 1472.0815,259.7217 Q1470.7617,258.0698 1470.7617,254.9487 Q1470.7617,251.8193 1472.0815,250.1675 Q1473.4014,248.5156 1475.9082,248.5156 Q1476.6138,248.5156 1477.2612,248.665 Q1477.9087,248.8145 1478.4731,249.1133 L1478.4731,251.8359 Q1477.8423,251.2549 1477.2488,250.9851 Q1476.6553,250.7153 1476.0244,250.7153 Q1474.6797,250.7153 1473.9949,251.782 Q1473.3101,252.8486 1473.3101,254.9487 Q1473.3101,257.0405 1473.9949,258.1072 Q1474.6797,259.1738 1476.0244,259.1738 Q1476.6553,259.1738 1477.2488,258.9041 Q1477.8423,258.6343 1478.4731,258.0532 Z "/><text fill="#000000" font-family="sans-serif" font-size="12" font-style="italic" lengthAdjust="spacingAndGlyphs" textLength="51" x="1535.5" y="252.6016">«control»</text><text fill="#000000" font-family="sans-serif" font-size="12" lengthAdjust="spacingAndGlyphs" textLength="143" x="1489.5" y="266.7344">ConcertVSSCreateControl</text><line style="stroke: #A80036; stroke-width: 1.5;" x1="1461.5" x2="1634.5" y1="274.2656" y2="274.2656"/><line style="stroke: #A80036; stroke-width: 1.5;" x1="1461.5" x2="1634.5" y1="282.2656" y2="282.2656"/><!--class PreviewOnlineMapPage--><rect fill="#FEFECE" filter="url(#f177qob1zb9438)" height="54.2656" id="PreviewOnlineMapPage" style="stroke: #A80036; stroke-width: 1.5;" width="165" x="655.5" y="8"/><ellipse cx="670.5" cy="27.1328" fill="#ADD1B2" rx="11" ry="11" style="stroke: #A80036; stroke-width: 1.0;"/><path d="M673.4731,32.7759 Q672.8921,33.0747 672.2529,33.2241 Q671.6138,33.3735 670.9082,33.3735 Q668.4014,33.3735 667.0815,31.7217 Q665.7617,30.0698 665.7617,26.9487 Q665.7617,23.8193 667.0815,22.1675 Q668.4014,20.5156 670.9082,20.5156 Q671.6138,20.5156 672.2612,20.665 Q672.9087,20.8145 673.4731,21.1133 L673.4731,23.8359 Q672.8423,23.2549 672.2488,22.9851 Q671.6553,22.7153 671.0244,22.7153 Q669.6797,22.7153 668.9949,23.782 Q668.3101,24.8486 668.3101,26.9487 Q668.3101,29.0405 668.9949,30.1072 Q669.6797,31.1738 671.0244,31.1738 Q671.6553,31.1738 672.2488,30.9041 Q672.8423,30.6343 673.4731,30.0532 Z "/><text fill="#000000" font-family="sans-serif" font-size="12" font-style="italic" lengthAdjust="spacingAndGlyphs" textLength="67" x="717.5" y="24.6016">«boundary»</text><text fill="#000000" font-family="sans-serif" font-size="12" lengthAdjust="spacingAndGlyphs" textLength="133" x="684.5" y="38.7344">PreviewOnlineMapPage</text><line style="stroke: #A80036; stroke-width: 1.5;" x1="656.5" x2="819.5" y1="46.2656" y2="46.2656"/><line style="stroke: #A80036; stroke-width: 1.5;" x1="656.5" x2="819.5" y1="54.2656" y2="54.2656"/><!--class PreviewOnlineMapControl--><rect fill="#FEFECE" filter="url(#f177qob1zb9438)" height="54.2656" id="PreviewOnlineMapControl" style="stroke: #A80036; stroke-width: 1.5;" width="178" x="649" y="122"/><ellipse cx="664" cy="141.1328" fill="#ADD1B2" rx="11" ry="11" style="stroke: #A80036; stroke-width: 1.0;"/><path d="M666.9731,146.7759 Q666.3921,147.0747 665.7529,147.2241 Q665.1138,147.3735 664.4082,147.3735 Q661.9014,147.3735 660.5815,145.7217 Q659.2617,144.0698 659.2617,140.9487 Q659.2617,137.8193 660.5815,136.1675 Q661.9014,134.5156 664.4082,134.5156 Q665.1138,134.5156 665.7612,134.665 Q666.4087,134.8145 666.9731,135.1133 L666.9731,137.8359 Q666.3423,137.2549 665.7488,136.9851 Q665.1553,136.7153 664.5244,136.7153 Q663.1797,136.7153 662.4949,137.782 Q661.8101,138.8486 661.8101,140.9487 Q661.8101,143.0405 662.4949,144.1072 Q663.1797,145.1738 664.5244,145.1738 Q665.1553,145.1738 665.7488,144.9041 Q666.3423,144.6343 666.9731,144.0532 Z "/><text fill="#000000" font-family="sans-serif" font-size="12" font-style="italic" lengthAdjust="spacingAndGlyphs" textLength="51" x="725.5" y="138.6016">«control»</text><text fill="#000000" font-family="sans-serif" font-size="12" lengthAdjust="spacingAndGlyphs" textLength="146" x="678" y="152.7344">PreviewOnlineMapControl</text><line style="stroke: #A80036; stroke-width: 1.5;" x1="650" x2="826" y1="160.2656" y2="160.2656"/><line style="stroke: #A80036; stroke-width: 1.5;" x1="650" x2="826" y1="168.2656" y2="168.2656"/><!--class PreviewOnlineConcertPage--><rect fill="#FEFECE" filter="url(#f177qob1zb9438)" height="54.2656" id="PreviewOnlineConcertPage" style="stroke: #A80036; stroke-width: 1.5;" width="184" x="1047" y="8"/><ellipse cx="1062" cy="27.1328" fill="#ADD1B2" rx="11" ry="11" style="stroke: #A80036; stroke-width: 1.0;"/><path d="M1064.9731,32.7759 Q1064.3921,33.0747 1063.7529,33.2241 Q1063.1138,33.3735 1062.4082,33.3735 Q1059.9014,33.3735 1058.5815,31.7217 Q1057.2617,30.0698 1057.2617,26.9487 Q1057.2617,23.8193 1058.5815,22.1675 Q1059.9014,20.5156 1062.4082,20.5156 Q1063.1138,20.5156 1063.7612,20.665 Q1064.4087,20.8145 1064.9731,21.1133 L1064.9731,23.8359 Q1064.3423,23.2549 1063.7488,22.9851 Q1063.1553,22.7153 1062.5244,22.7153 Q1061.1797,22.7153 1060.4949,23.782 Q1059.8101,24.8486 1059.8101,26.9487 Q1059.8101,29.0405 1060.4949,30.1072 Q1061.1797,31.1738 1062.5244,31.1738 Q1063.1553,31.1738 1063.7488,30.9041 Q1064.3423,30.6343 1064.9731,30.0532 Z "/><text fill="#000000" font-family="sans-serif" font-size="12" font-style="italic" lengthAdjust="spacingAndGlyphs" textLength="67" x="1118.5" y="24.6016">«boundary»</text><text fill="#000000" font-family="sans-serif" font-size="12" lengthAdjust="spacingAndGlyphs" textLength="152" x="1076" y="38.7344">PreviewOnlineConcertPage</text><line style="stroke: #A80036; stroke-width: 1.5;" x1="1048" x2="1230" y1="46.2656" y2="46.2656"/><line style="stroke: #A80036; stroke-width: 1.5;" x1="1048" x2="1230" y1="54.2656" y2="54.2656"/><!--class PreviewOnlineConcertControl--><rect fill="#FEFECE" filter="url(#f177qob1zb9438)" height="54.2656" id="PreviewOnlineConcertControl" style="stroke: #A80036; stroke-width: 1.5;" width="197" x="1040.5" y="122"/><ellipse cx="1055.5" cy="141.1328" fill="#ADD1B2" rx="11" ry="11" style="stroke: #A80036; stroke-width: 1.0;"/><path d="M1058.4731,146.7759 Q1057.8921,147.0747 1057.2529,147.2241 Q1056.6138,147.3735 1055.9082,147.3735 Q1053.4014,147.3735 1052.0815,145.7217 Q1050.7617,144.0698 1050.7617,140.9487 Q1050.7617,137.8193 1052.0815,136.1675 Q1053.4014,134.5156 1055.9082,134.5156 Q1056.6138,134.5156 1057.2612,134.665 Q1057.9087,134.8145 1058.4731,135.1133 L1058.4731,137.8359 Q1057.8423,137.2549 1057.2488,136.9851 Q1056.6553,136.7153 1056.0244,136.7153 Q1054.6797,136.7153 1053.9949,137.782 Q1053.3101,138.8486 1053.3101,140.9487 Q1053.3101,143.0405 1053.9949,144.1072 Q1054.6797,145.1738 1056.0244,145.1738 Q1056.6553,145.1738 1057.2488,144.9041 Q1057.8423,144.6343 1058.4731,144.0532 Z "/><text fill="#000000" font-family="sans-serif" font-size="12" font-style="italic" lengthAdjust="spacingAndGlyphs" textLength="51" x="1126.5" y="138.6016">«control»</text><text fill="#000000" font-family="sans-serif" font-size="12" lengthAdjust="spacingAndGlyphs" textLength="165" x="1069.5" y="152.7344">PreviewOnlineConcertControl</text><line style="stroke: #A80036; stroke-width: 1.5;" x1="1041.5" x2="1236.5" y1="160.2656" y2="160.2656"/><line style="stroke: #A80036; stroke-width: 1.5;" x1="1041.5" x2="1236.5" y1="168.2656" y2="168.2656"/><!--class OnlineSoundSpaceLibrary--><rect fill="#FEFECE" filter="url(#f177qob1zb9438)" height="54.2656" id="OnlineSoundSpaceLibrary" style="stroke: #A80036; stroke-width: 1.5;" width="177" x="1050.5" y="236"/><ellipse cx="1065.5" cy="255.1328" fill="#ADD1B2" rx="11" ry="11" style="stroke: #A80036; stroke-width: 1.0;"/><path d="M1068.4731,260.7759 Q1067.8921,261.0747 1067.2529,261.2241 Q1066.6138,261.3735 1065.9082,261.3735 Q1063.4014,261.3735 1062.0815,259.7217 Q1060.7617,258.0698 1060.7617,254.9487 Q1060.7617,251.8193 1062.0815,250.1675 Q1063.4014,248.5156 1065.9082,248.5156 Q1066.6138,248.5156 1067.2612,248.665 Q1067.9087,248.8145 1068.4731,249.1133 L1068.4731,251.8359 Q1067.8423,251.2549 1067.2488,250.9851 Q1066.6553,250.7153 1066.0244,250.7153 Q1064.6797,250.7153 1063.9949,251.782 Q1063.3101,252.8486 1063.3101,254.9487 Q1063.3101,257.0405 1063.9949,258.1072 Q1064.6797,259.1738 1066.0244,259.1738 Q1066.6553,259.1738 1067.2488,258.9041 Q1067.8423,258.6343 1068.4731,258.0532 Z "/><text fill="#000000" font-family="sans-serif" font-size="12" font-style="italic" lengthAdjust="spacingAndGlyphs" textLength="43" x="1130.5" y="252.6016">«entity»</text><text fill="#000000" font-family="sans-serif" font-size="12" lengthAdjust="spacingAndGlyphs" textLength="145" x="1079.5" y="266.7344">OnlineSoundSpaceLibrary</text><line style="stroke: #A80036; stroke-width: 1.5;" x1="1051.5" x2="1226.5" y1="274.2656" y2="274.2656"/><line style="stroke: #A80036; stroke-width: 1.5;" x1="1051.5" x2="1226.5" y1="282.2656" y2="282.2656"/><!--link UserInfoControl to User--><path d="M652,303.4809 C652,318.8344 652,335.9382 652,349.7824 " fill="none" id="UserInfoControl-User" style="stroke: #A80036; stroke-width: 1.0;"/><polygon fill="#FFFFFF" points="652,290.0164,648,296.0164,652,302.0164,656,296.0164,652,290.0164" style="stroke: #A80036; stroke-width: 1.0;"/><!--link LocalVSSManagerPage to LocalVSSLibraryControl--><path d="M1350.1041,176.0164 C1348.8381,194.0572 1347.1789,217.7002 1345.91,235.7824 " fill="none" id="LocalVSSManagerPage-LocalVSSLibraryControl" style="stroke: #A80036; stroke-width: 1.0; stroke-dasharray: 7.0,7.0;"/><text fill="#000000" font-family="sans-serif" font-size="13" lengthAdjust="spacingAndGlyphs" textLength="28" x="1318.2295" y="197.0036">view</text><text fill="#000000" font-family="sans-serif" font-size="13" lengthAdjust="spacingAndGlyphs" textLength="61" x="1278.2986" y="225.3275">controller</text><!--link LocalVSSLibraryControl to LocalSoundSpaceLibrary--><path d="M1330.0178,290.0164 C1321.4833,306.5069 1310.5263,327.6779 1301.5591,345.0045 " fill="none" id="LocalVSSLibraryControl-LocalSoundSpaceLibrary" style="stroke: #A80036; stroke-width: 1.0; stroke-dasharray: 7.0,7.0;"/><polygon fill="#A80036" points="1299.0863,349.7824,1306.7755,343.6281,1301.3845,345.3419,1299.6707,339.9509,1299.0863,349.7824" style="stroke: #A80036; stroke-width: 1.0;"/><!--link MapVSSCreatePage to MapVSSCreateControl--><path d="M934.711,176.0164 C935.1857,194.0572 935.8079,217.7002 936.2837,235.7824 " fill="none" id="MapVSSCreatePage-MapVSSCreateControl" style="stroke: #A80036; stroke-width: 1.0; stroke-dasharray: 7.0,7.0;"/><!--link MapVSSCreateControl to LocalSoundSpaceLibrary--><path d="M1015.098,288.5838 C1069.1755,306.2989 1141.2258,329.9016 1197.2809,348.2644 " fill="none" id="MapVSSCreateControl-LocalSoundSpaceLibrary" style="stroke: #A80036; stroke-width: 1.0; stroke-dasharray: 7.0,7.0;"/><polygon fill="#A80036" points="1202.3117,349.9125,1195.0044,343.3093,1197.5602,348.3558,1192.5137,350.9117,1202.3117,349.9125" style="stroke: #A80036; stroke-width: 1.0;"/><!--link LocalSoundSpaceLibrary to VirtualSoundSpace--><path d="M1264.8562,404.0164 C1252.4556,420.6478 1236.5051,442.0402 1223.5257,459.4479 " fill="none" id="LocalSoundSpaceLibrary-VirtualSoundSpace" style="stroke: #A80036; stroke-width: 1.0; stroke-dasharray: 7.0,7.0;"/><polygon fill="#A80036" points="1220.2938,463.7824,1228.8804,458.9584,1223.2826,459.774,1222.467,454.1763,1220.2938,463.7824" style="stroke: #A80036; stroke-width: 1.0;"/><!--link VirtualSoundSpace to ConcertModeVirtualSoundSpace--><path d="M1286.5601,525.503 C1328.7805,542.3321 1378.8195,562.2777 1418.2135,577.9802 " fill="none" id="VirtualSoundSpace-ConcertModeVirtualSoundSpace" style="stroke: #A80036; stroke-width: 1.0;"/><polygon fill="none" points="1283.7646,531.9243,1267.778,518.0164,1288.9484,518.9194,1283.7646,531.9243" style="stroke: #A80036; stroke-width: 1.0;"/><!--link VirtualSoundSpace to MapModeVirtualSoundSpace--><path d="M1130.8377,527.3341 C1099.5631,543.7641 1063.2451,562.8436 1034.4324,577.9802 " fill="none" id="VirtualSoundSpace-MapModeVirtualSoundSpace" style="stroke: #A80036; stroke-width: 1.0;"/><polygon fill="none" points="1127.613,521.121,1148.574,518.0164,1134.1241,533.5148,1127.613,521.121" style="stroke: #A80036; stroke-width: 1.0;"/><!--link LoginPage to UserInfoControl--><path d="M586.3808,176.0164 C598.9273,192.6478 615.0654,214.0402 628.1976,231.4479 " fill="none" id="LoginPage-UserInfoControl" style="stroke: #A80036; stroke-width: 1.0; stroke-dasharray: 7.0,7.0;"/><polygon fill="#A80036" points="631.4675,235.7824,629.2405,226.1886,628.4562,231.7909,622.854,231.0066,631.4675,235.7824" style="stroke: #A80036; stroke-width: 1.0;"/><!--link RegisterPage to UserInfoControl--><path d="M482.6109,176.0164 C516.3562,193.3451 560.1665,215.8422 594.7779,233.6157 " fill="none" id="RegisterPage-UserInfoControl" style="stroke: #A80036; stroke-width: 1.0; stroke-dasharray: 7.0,7.0;"/><polygon fill="#A80036" points="599.3825,235.9802,593.2038,228.3106,594.9347,233.6961,589.5492,235.427,599.3825,235.9802" style="stroke: #A80036; stroke-width: 1.0;"/><!--link MapVSSCreateControl to Sensor--><path d="M965.6753,290.0164 C983.6271,306.9297 1006.805,328.7667 1025.4463,346.3296 " fill="none" id="MapVSSCreateControl-Sensor" style="stroke: #A80036; stroke-width: 1.0; stroke-dasharray: 7.0,7.0;"/><polygon fill="#A80036" points="1029.1112,349.7824,1025.3035,340.6994,1025.4719,346.3537,1019.8176,346.5222,1029.1112,349.7824" style="stroke: #A80036; stroke-width: 1.0;"/><!--link MapVSSCreateControl to MapModeVirtualSoundSpace--><path d="M934.0751,290.2486 C929.8003,337.3861 924.2444,436.888 943,518 C947.4123,537.0818 956.235,557.0261 964.4743,572.9978 " fill="none" id="MapVSSCreateControl-MapModeVirtualSoundSpace" style="stroke: #A80036; stroke-width: 1.0; stroke-dasharray: 7.0,7.0;"/><polygon fill="#A80036" points="967.007,577.8216,966.3646,567.9937,964.6826,573.3947,959.2816,571.7127,967.007,577.8216" style="stroke: #A80036; stroke-width: 1.0;"/><!--link MapVSSCreateControl to SoundSource--><path d="M947.0896,290.0809 C958.715,319.5158 979.5296,367.2586 1005,404 C1051.6911,471.3524 1121.4377,537.1529 1163.6352,574.2444 " fill="none" id="MapVSSCreateControl-SoundSource" style="stroke: #A80036; stroke-width: 1.0; stroke-dasharray: 7.0,7.0;"/><polygon fill="#A80036" points="1167.6311,577.7433,1163.4951,568.805,1163.8694,574.4494,1158.2249,574.8237,1167.6311,577.7433" style="stroke: #A80036; stroke-width: 1.0;"/><!--link VirtualSoundSpace to SoundSource--><path d="M1200,531.4809 C1200,546.8344 1200,563.9382 1200,577.7824 " fill="none" id="VirtualSoundSpace-SoundSource" style="stroke: #A80036; stroke-width: 1.0;"/><polygon fill="#FFFFFF" points="1200,518.0164,1196,524.0164,1200,530.0164,1204,524.0164,1200,518.0164" style="stroke: #A80036; stroke-width: 1.0;"/><!--link ConcertVSSCreatePage to ConcertVSSCreateControl--><path d="M1548,176.0164 C1548,194.0572 1548,217.7002 1548,235.7824 " fill="none" id="ConcertVSSCreatePage-ConcertVSSCreateControl" style="stroke: #A80036; stroke-width: 1.0; stroke-dasharray: 7.0,7.0;"/><!--link ConcertVSSCreateControl to ConcertModeVirtualSoundSpace--><path d="M1543.0831,290.122 C1531.778,352.4829 1503.9773,505.8349 1491.834,572.8189 " fill="none" id="ConcertVSSCreateControl-ConcertModeVirtualSoundSpace" style="stroke: #A80036; stroke-width: 1.0; stroke-dasharray: 7.0,7.0;"/><polygon fill="#A80036" points="1490.9174,577.8752,1496.4588,569.7332,1491.8094,572.9554,1488.5871,568.306,1490.9174,577.8752" style="stroke: #A80036; stroke-width: 1.0;"/><!--link ConcertVSSCreateControl to LocalSoundSpaceLibrary--><path d="M1485.6727,290.0164 C1445.4504,307.4512 1393.1578,330.1179 1352.0382,347.9416 " fill="none" id="ConcertVSSCreateControl-LocalSoundSpaceLibrary" style="stroke: #A80036; stroke-width: 1.0; stroke-dasharray: 7.0,7.0;"/><polygon fill="#A80036" points="1347.3351,349.9802,1357.1835,350.0708,1351.9227,347.9916,1354.0018,342.7307,1347.3351,349.9802" style="stroke: #A80036; stroke-width: 1.0;"/><!--link ConcertVSSCreateControl to SoundSource--><path d="M1520.4021,290.122 C1456.5658,352.8578 1299.0253,507.6821 1231.5259,574.0177 " fill="none" id="ConcertVSSCreateControl-SoundSource" style="stroke: #A80036; stroke-width: 1.0; stroke-dasharray: 7.0,7.0;"/><polygon fill="#A80036" points="1227.6007,577.8752,1236.8235,574.4197,1231.1668,574.3705,1231.216,568.7139,1227.6007,577.8752" style="stroke: #A80036; stroke-width: 1.0;"/><!--link PreviewOnlineConcertPage to PreviewOnlineConcertControl--><path d="M1139,62.0164 C1139,80.0572 1139,103.7002 1139,121.7824 " fill="none" id="PreviewOnlineConcertPage-PreviewOnlineConcertControl" style="stroke: #A80036; stroke-width: 1.0; stroke-dasharray: 7.0,7.0;"/><!--link PreviewOnlineMapPage to PreviewOnlineMapControl--><path d="M738,62.0164 C738,80.0572 738,103.7002 738,121.7824 " fill="none" id="PreviewOnlineMapPage-PreviewOnlineMapControl" style="stroke: #A80036; stroke-width: 1.0; stroke-dasharray: 7.0,7.0;"/><!--link PreviewOnlineMapControl to UserInfoControl--><path d="M717.6192,176.0164 C705.0727,192.6478 688.9346,214.0402 675.8024,231.4479 " fill="none" id="PreviewOnlineMapControl-UserInfoControl" style="stroke: #A80036; stroke-width: 1.0; stroke-dasharray: 7.0,7.0;"/><polygon fill="#A80036" points="672.5325,235.7824,681.146,231.0066,675.5438,231.7909,674.7595,226.1886,672.5325,235.7824" style="stroke: #A80036; stroke-width: 1.0;"/><!--link PreviewOnlineConcertControl to UserInfoControl--><path d="M1040.4483,172.0696 C943.9809,194.6513 799.7924,228.4038 716.9151,247.8043 " fill="none" id="PreviewOnlineConcertControl-UserInfoControl" style="stroke: #A80036; stroke-width: 1.0; stroke-dasharray: 7.0,7.0;"/><polygon fill="#A80036" points="712.0361,248.9464,721.7109,250.7896,716.9045,247.8067,719.8874,243.0002,712.0361,248.9464" style="stroke: #A80036; stroke-width: 1.0;"/><!--link PreviewOnlineMapControl to OnlineSoundSpaceLibrary--><path d="M827.4931,174.4419 C892.2836,192.8612 979.6566,217.7004 1045.3796,236.3847 " fill="none" id="PreviewOnlineMapControl-OnlineSoundSpaceLibrary" style="stroke: #A80036; stroke-width: 1.0; stroke-dasharray: 7.0,7.0;"/><polygon fill="#A80036" points="1050.4714,237.8323,1042.9083,231.5237,1045.662,236.465,1040.7206,239.2187,1050.4714,237.8323" style="stroke: #A80036; stroke-width: 1.0;"/><!--link PreviewOnlineConcertControl to OnlineSoundSpaceLibrary--><path d="M1139,176.0164 C1139,192.3659 1139,213.3164 1139,230.5594 " fill="none" id="PreviewOnlineConcertControl-OnlineSoundSpaceLibrary" style="stroke: #A80036; stroke-width: 1.0; stroke-dasharray: 7.0,7.0;"/><polygon fill="#A80036" points="1139,235.7824,1143,226.7824,1139,230.7824,1135,226.7824,1139,235.7824" style="stroke: #A80036; stroke-width: 1.0;"/><!--link OnlineSoundSpaceLibrary to VirtualSoundSpace--><path d="M1146.237,290.0499 C1157.5414,332.3022 1179.3424,413.7882 1191.4204,458.9321 " fill="none" id="OnlineSoundSpaceLibrary-VirtualSoundSpace" style="stroke: #A80036; stroke-width: 1.0; stroke-dasharray: 7.0,7.0;"/><polygon fill="#A80036" points="1192.7724,463.9853,1194.3101,454.2572,1191.48,459.1552,1186.582,456.3251,1192.7724,463.9853" style="stroke: #A80036; stroke-width: 1.0;"/><!--link OnlineSoundSpaceLibrary to LocalSoundSpaceLibrary--><path d="M1173.6,290.0164 C1196.7892,308.1231 1227.2055,331.8728 1250.3957,349.9802 " fill="none" id="OnlineSoundSpaceLibrary-LocalSoundSpaceLibrary" style="stroke: #A80036; stroke-width: 1.0; stroke-dasharray: 7.0,7.0;"/><!--link PreviewLocalMapPage to PreviewLocalConcertPage--><!--link PreviewLocalMapPage to CreateVSSPage--><!--link CreateVSSPage to CreateConcertVSSPage--><!--
@startuml ClassDiagram

class RegisterPage <<boundary>> {

}
class UserInfoControl <<control>> {

}
class LocalVSSManagerPage <<boundary>> {

}
class User <<entity>> {

}
class LoginPage <<boundary>> {

}
class LocalVSSLibraryControl <<control>> {

}
class LocalSoundSpaceLibrary <<entity>> {

}
class PreviewLocalMapPage <<boundary>> {

}
class PreviewLocalConcertPage <<boundary>> {

}
class CreateVSSPage <<boundary>> {

}
class CreateConcertVSSPage <<boundary>> {

}
class MapVSSCreatePage <<boundary>> {

}
class MapVSSCreateControl <<control>> {

}
class Sensor <<entity>> {

}
class MapModeVirtualSoundSpace <<entity>> {

}
class ConcertModeVirtualSoundSpace <<entity>> {

}
abstract VirtualSoundSpace <<entity>> {

}
class SoundSource <<entity>> {

}
class ConcertVSSCreatePage <<boundary>> {

}
class ConcertVSSCreateControl <<control>> {

}
class PreviewOnlineMapPage <<boundary>> {

}
class PreviewOnlineMapControl <<control>> {

}
class PreviewOnlineConcertPage <<boundary>> {

}
class PreviewOnlineConcertControl <<control>> {

}
class OnlineSoundSpaceLibrary <<entity>> {

}


UserInfoControl o- - User
LocalVSSManagerPage "view" .. "controller" LocalVSSLibraryControl
LocalVSSLibraryControl ..> LocalSoundSpaceLibrary
MapVSSCreatePage .. MapVSSCreateControl
MapVSSCreateControl ..> LocalSoundSpaceLibrary
LocalSoundSpaceLibrary ..> VirtualSoundSpace
VirtualSoundSpace <|- - ConcertModeVirtualSoundSpace
VirtualSoundSpace <|- - MapModeVirtualSoundSpace
LoginPage ..> UserInfoControl
RegisterPage ..> UserInfoControl
MapVSSCreateControl ..> Sensor
MapVSSCreateControl ..> MapModeVirtualSoundSpace
MapVSSCreateControl ..> SoundSource
VirtualSoundSpace o- - SoundSource
ConcertVSSCreatePage .. ConcertVSSCreateControl
ConcertVSSCreateControl ..> ConcertModeVirtualSoundSpace
ConcertVSSCreateControl ..> LocalSoundSpaceLibrary
ConcertVSSCreateControl ..> SoundSource
PreviewOnlineConcertPage .. PreviewOnlineConcertControl
PreviewOnlineMapPage .. PreviewOnlineMapControl
PreviewOnlineMapControl ..> UserInfoControl
PreviewOnlineConcertControl ..> UserInfoControl
PreviewOnlineMapControl ..> OnlineSoundSpaceLibrary
PreviewOnlineConcertControl ..> OnlineSoundSpaceLibrary
OnlineSoundSpaceLibrary ..> VirtualSoundSpace
OnlineSoundSpaceLibrary .. LocalSoundSpaceLibrary

@enduml

PlantUML version 1.2018.01(Mon Jan 29 02:08:22 CST 2018)
(GPL source distribution)
Java Runtime: Java(TM) SE Runtime Environment
JVM: Java HotSpot(TM) 64-Bit Server VM
Java Version: 9+181
Operating System: Mac OS X
OS Version: 10.12.6
Default Encoding: UTF-8
Language: zh
Country: CN
--></g></svg>