<?xml version="1.0" encoding="UTF-8" standalone="no"?><svg xmlns="http://www.w3.org/2000/svg" xmlns:xlink="http://www.w3.org/1999/xlink" contentScriptType="application/ecmascript" contentStyleType="text/css" height="508px" preserveAspectRatio="none" style="width:1164px;height:508px;" version="1.1" viewBox="0 0 1164 508"
    width="1164px" zoomAndPan="magnify"><defs><filter height="300%" id="f19jo33qzr5ldh" width="300%" x="-1" y="-1"><feGaussianBlur result="blurOut" stdDeviation="2.0"/><feColorMatrix in="blurOut" result="blurOut2" type="matrix" values="0 0 0 0 0 0 0 0 0 0 0 0 0 0 0 0 0 0 .4 0"/><feOffset dx="4.0" dy="4.0" in="blurOut2" result="blurOut3"/><feBlend in="SourceGraphic" in2="blurOut3" mode="normal"/></filter></defs><g><rect fill="#FEFECE" filter="url(#f19jo33qzr5ldh)" height="30.4883" style="stroke: #A80036; stroke-width: 1.5;" width="187" x="327" y="125.7988"/><text fill="#000000" font-family="sans-serif" font-size="14" lengthAdjust="spacingAndGlyphs" text-decoration="underline" textLength="173" x="334" y="146.334">:OnlineVSSLibraryControl</text><line style="stroke: #000000; stroke-width: 1.0;" x1="334" x2="507" y1="148.334" y2="148.334"/><rect fill="#FFFFFF" filter="url(#f19jo33qzr5ldh)" height="213.1738" style="stroke: #000000; stroke-width: 2.0;" width="1140" x="13" y="266.2188"/><rect fill="#FFFFFF" filter="url(#f19jo33qzr5ldh)" height="123.2422" style="stroke: #000000; stroke-width: 2.0;" width="826" x="317" y="349.1504"/><rect fill="#FEFECE" filter="url(#f19jo33qzr5ldh)" height="30.4883" style="stroke: #A80036; stroke-width: 1.5;" width="202" x="736" y="366.4609"/><text fill="#000000" font-family="sans-serif" font-size="14" lengthAdjust="spacingAndGlyphs" text-decoration="underline" textLength="188" x="743" y="386.9961">:PreviewOnlineConcertPage</text><line style="stroke: #000000; stroke-width: 1.0;" x1="743" x2="931" y1="388.9961" y2="388.9961"/><rect fill="#FFFFFF" height="60.4434" style="stroke: none; stroke-width: 1.0;" width="826" x="317" y="411.9492"/><rect fill="#FEFECE" filter="url(#f19jo33qzr5ldh)" height="30.4883" style="stroke: #A80036; stroke-width: 1.5;" width="177" x="952" y="426.9043"/><text fill="#000000" font-family="sans-serif" font-size="14" lengthAdjust="spacingAndGlyphs" text-decoration="underline" textLength="163" x="959" y="447.4395">:PreviewOnlineMapPage</text><line style="stroke: #000000; stroke-width: 1.0;" x1="959" x2="1122" y1="449.4395" y2="449.4395"/><line style="stroke: #A80036; stroke-width: 1.0; stroke-dasharray: 5.0,5.0;" x1="41" x2="41" y1="86.4883" y2="496.3926"/><line style="stroke: #A80036; stroke-width: 1.0; stroke-dasharray: 5.0,5.0;" x1="202" x2="202" y1="86.4883" y2="496.3926"/><line style="stroke: #A80036; stroke-width: 1.0; stroke-dasharray: 5.0,5.0;" x1="422" x2="422" y1="158.543" y2="496.3926"/><line style="stroke: #A80036; stroke-width: 1.0; stroke-dasharray: 5.0,5.0;" x1="627" x2="627" y1="86.4883" y2="496.3926"/><line style="stroke: #A80036; stroke-width: 1.0; stroke-dasharray: 5.0,5.0;" x1="839" x2="839" y1="399.2051" y2="496.3926"/><line style="stroke: #A80036; stroke-width: 1.0; stroke-dasharray: 5.0,5.0;" x1="1042" x2="1042" y1="459.6484" y2="496.3926"/><text fill="#000000" font-family="sans-serif" font-size="14" lengthAdjust="spacingAndGlyphs" text-decoration="underline" textLength="31" x="23" y="83.5352">User</text><line style="stroke: #000000; stroke-width: 1.0;" x1="23" x2="54" y1="85.5352" y2="85.5352"/><ellipse cx="41.5" cy="13" fill="#FEFECE" filter="url(#f19jo33qzr5ldh)" rx="8" ry="8" style="stroke: #A80036; stroke-width: 2.0;"/><path d="M41.5,21 L41.5,48 M28.5,29 L54.5,29 M41.5,48 L28.5,63 M41.5,48 L54.5,63 " fill="none" filter="url(#f19jo33qzr5ldh)" style="stroke: #A80036; stroke-width: 2.0;"/><rect fill="#FEFECE" filter="url(#f19jo33qzr5ldh)" height="30.4883" style="stroke: #A80036; stroke-width: 1.5;" width="167" x="117" y="51"/><text fill="#000000" font-family="sans-serif" font-size="14" lengthAdjust="spacingAndGlyphs" text-decoration="underline" textLength="153" x="124" y="71.5352">:OnlineVSSViewerPage</text><line style="stroke: #000000; stroke-width: 1.0;" x1="124" x2="277" y1="73.5352" y2="73.5352"/><rect fill="#FEFECE" filter="url(#f19jo33qzr5ldh)" height="30.4883" style="stroke: #A80036; stroke-width: 1.5;" width="194" x="528" y="51"/><text fill="#000000" font-family="sans-serif" font-size="14" lengthAdjust="spacingAndGlyphs" text-decoration="underline" textLength="180" x="535" y="71.5352">:OnlineSoundSpaceLibrary</text><line style="stroke: #000000; stroke-width: 1.0;" x1="535" x2="715" y1="73.5352" y2="73.5352"/><polygon fill="#A80036" points="190.5,113.4883,200.5,117.4883,190.5,121.4883,194.5,117.4883" style="stroke: #A80036; stroke-width: 1.0;"/><line style="stroke: #A80036; stroke-width: 1.0;" x1="3" x2="196.5" y1="117.4883" y2="117.4883"/><text fill="#000000" font-family="sans-serif" font-size="13" lengthAdjust="spacingAndGlyphs" textLength="78" x="10" y="113.0566">&lt;&lt;create&gt;&gt;</text><polygon fill="#A80036" points="315,142.7988,325,146.7988,315,150.7988,319,146.7988" style="stroke: #A80036; stroke-width: 1.0;"/><line style="stroke: #A80036; stroke-width: 1.0;" x1="202.5" x2="321" y1="146.7988" y2="146.7988"/><text fill="#000000" font-family="sans-serif" font-size="13" lengthAdjust="spacingAndGlyphs" textLength="78" x="209.5" y="142.3672">&lt;&lt;create&gt;&gt;</text><rect fill="#FEFECE" filter="url(#f19jo33qzr5ldh)" height="30.4883" style="stroke: #A80036; stroke-width: 1.5;" width="187" x="327" y="125.7988"/><text fill="#000000" font-family="sans-serif" font-size="14" lengthAdjust="spacingAndGlyphs" text-decoration="underline" textLength="173" x="334" y="146.334">:OnlineVSSLibraryControl</text><line style="stroke: #000000; stroke-width: 1.0;" x1="334" x2="507" y1="148.334" y2="148.334"/><polygon fill="#A80036" points="615,188.2871,625,192.2871,615,196.2871,619,192.2871" style="stroke: #A80036; stroke-width: 1.0;"/><line style="stroke: #A80036; stroke-width: 1.0;" x1="422.5" x2="621" y1="192.2871" y2="192.2871"/><text fill="#000000" font-family="sans-serif" font-size="13" lengthAdjust="spacingAndGlyphs" textLength="73" x="429.5" y="187.8555">getVSSList()</text><polygon fill="#A80036" points="433.5,217.5977,423.5,221.5977,433.5,225.5977,429.5,221.5977" style="stroke: #A80036; stroke-width: 1.0;"/><line style="stroke: #A80036; stroke-width: 1.0; stroke-dasharray: 2.0,2.0;" x1="427.5" x2="626" y1="221.5977" y2="221.5977"/><text fill="#000000" font-family="sans-serif" font-size="13" lengthAdjust="spacingAndGlyphs" textLength="98" x="439.5" y="217.166">listOfOnlineVSS</text><polygon fill="#A80036" points="213.5,246.9082,203.5,250.9082,213.5,254.9082,209.5,250.9082" style="stroke: #A80036; stroke-width: 1.0;"/><line style="stroke: #A80036; stroke-width: 1.0;" x1="207.5" x2="421.5" y1="250.9082" y2="250.9082"/><text fill="#000000" font-family="sans-serif" font-size="13" lengthAdjust="spacingAndGlyphs" textLength="196" x="219.5" y="246.4766">displayVSSList(listOfOnlineVSS)</text><path d="M13,266.2188 L75,266.2188 L75,273.2188 L65,283.2188 L13,283.2188 L13,266.2188 " fill="#EEEEEE" style="stroke: #000000; stroke-width: 1.0;"/><rect fill="none" height="213.1738" style="stroke: #000000; stroke-width: 2.0;" width="1140" x="13" y="266.2188"/><text fill="#000000" font-family="sans-serif" font-size="13" font-weight="bold" lengthAdjust="spacingAndGlyphs" textLength="17" x="28" y="279.7871">alt</text><text fill="#000000" font-family="sans-serif" font-size="11" font-weight="bold" lengthAdjust="spacingAndGlyphs" textLength="72" x="90" y="278.8535">[previewVSS]</text><polygon fill="#A80036" points="190.5,300.5293,200.5,304.5293,190.5,308.5293,194.5,304.5293" style="stroke: #A80036; stroke-width: 1.0;"/><line style="stroke: #A80036; stroke-width: 1.0;" x1="41.5" x2="196.5" y1="304.5293" y2="304.5293"/><text fill="#000000" font-family="sans-serif" font-size="13" lengthAdjust="spacingAndGlyphs" textLength="137" x="48.5" y="300.0977">previewVSS(whichVSS)</text><polygon fill="#A80036" points="410.5,329.8398,420.5,333.8398,410.5,337.8398,414.5,333.8398" style="stroke: #A80036; stroke-width: 1.0;"/><line style="stroke: #A80036; stroke-width: 1.0;" x1="202.5" x2="416.5" y1="333.8398" y2="333.8398"/><text fill="#000000" font-family="sans-serif" font-size="13" lengthAdjust="spacingAndGlyphs" textLength="137" x="209.5" y="329.4082">previewVSS(whichVSS)</text><path d="M317,349.1504 L379,349.1504 L379,356.1504 L369,366.1504 L317,366.1504 L317,349.1504 " fill="#EEEEEE" style="stroke: #000000; stroke-width: 1.0;"/><rect fill="none" height="123.2422" style="stroke: #000000; stroke-width: 2.0;" width="826" x="317" y="349.1504"/><text fill="#000000" font-family="sans-serif" font-size="13" font-weight="bold" lengthAdjust="spacingAndGlyphs" textLength="17" x="332" y="362.7188">alt</text><text fill="#000000" font-family="sans-serif" font-size="11" font-weight="bold" lengthAdjust="spacingAndGlyphs" textLength="170" x="394" y="361.7852">[concert mode vss is selected]</text><polygon fill="#A80036" points="724,383.4609,734,387.4609,724,391.4609,728,387.4609" style="stroke: #A80036; stroke-width: 1.0;"/><line style="stroke: #A80036; stroke-width: 1.0;" x1="422.5" x2="730" y1="387.4609" y2="387.4609"/><text fill="#000000" font-family="sans-serif" font-size="13" lengthAdjust="spacingAndGlyphs" textLength="78" x="429.5" y="383.0293">&lt;&lt;create&gt;&gt;</text><rect fill="#FEFECE" filter="url(#f19jo33qzr5ldh)" height="30.4883" style="stroke: #A80036; stroke-width: 1.5;" width="202" x="736" y="366.4609"/><text fill="#000000" font-family="sans-serif" font-size="14" lengthAdjust="spacingAndGlyphs" text-decoration="underline" textLength="188" x="743" y="386.9961">:PreviewOnlineConcertPage</text><line style="stroke: #000000; stroke-width: 1.0;" x1="743" x2="931" y1="388.9961" y2="388.9961"/><line style="stroke: #000000; stroke-width: 1.0; stroke-dasharray: 2.0,2.0;" x1="317" x2="1143" y1="412.9492" y2="412.9492"/><text fill="#000000" font-family="sans-serif" font-size="11" font-weight="bold" lengthAdjust="spacingAndGlyphs" textLength="153" x="322" y="423.584">[map mode vss is selected]</text><polygon fill="#A80036" points="940,443.9043,950,447.9043,940,451.9043,944,447.9043" style="stroke: #A80036; stroke-width: 1.0;"/><line style="stroke: #A80036; stroke-width: 1.0;" x1="422.5" x2="946" y1="447.9043" y2="447.9043"/><text fill="#000000" font-family="sans-serif" font-size="13" lengthAdjust="spacingAndGlyphs" textLength="78" x="429.5" y="443.4727">&lt;&lt;create&gt;&gt;</text><rect fill="#FEFECE" filter="url(#f19jo33qzr5ldh)" height="30.4883" style="stroke: #A80036; stroke-width: 1.5;" width="177" x="952" y="426.9043"/><text fill="#000000" font-family="sans-serif" font-size="14" lengthAdjust="spacingAndGlyphs" text-decoration="underline" textLength="163" x="959" y="447.4395">:PreviewOnlineMapPage</text><line style="stroke: #000000; stroke-width: 1.0;" x1="959" x2="1122" y1="449.4395" y2="449.4395"/><!--
@startuml BrowseOnlineVSSLibrary
hide footbox
skinparam sequenceParticipant underline

actor User as user
participant ":OnlineVSSViewerPage" as page
participant ":OnlineVSSLibraryControl" as control
participant ":OnlineSoundSpaceLibrary" as library



create page
[-> page: <<create>>
create control
page -> control: <<create>>
control -> library: getVSSList()
library - -> control: listOfOnlineVSS
control -> page: displayVSSList(listOfOnlineVSS)
alt previewVSS
    user -> page: previewVSS(whichVSS)
    page -> control: previewVSS(whichVSS)
    alt concert mode vss is selected
        participant ":PreviewOnlineConcertPage" as pocp
        create pocp
        control -> pocp: <<create>>
    else map mode vss is selected
        participant ":PreviewOnlineMapPage" as pomp
        create pomp
        control -> pomp: <<create>>

    end
end

@enduml

PlantUML version 1.2018.01(Mon Jan 29 02:08:22 CST 2018)
(GPL source distribution)
Java Runtime: Java(TM) SE Runtime Environment
JVM: Java HotSpot(TM) 64-Bit Server VM
Java Version: 9+181
Operating System: Mac OS X
OS Version: 10.12.6
Default Encoding: UTF-8
Language: zh
Country: CN
--></g></svg>