<?xml version="1.0" encoding="UTF-8" standalone="no"?><svg xmlns="http://www.w3.org/2000/svg" xmlns:xlink="http://www.w3.org/1999/xlink" contentScriptType="application/ecmascript" contentStyleType="text/css" height="1072px" preserveAspectRatio="none" style="width:1602px;height:1072px;" version="1.1" viewBox="0 0 1602 1072"
    width="1602px" zoomAndPan="magnify"><defs><filter height="300%" id="fa913jz97z5wg" width="300%" x="-1" y="-1"><feGaussianBlur result="blurOut" stdDeviation="2.0"/><feColorMatrix in="blurOut" result="blurOut2" type="matrix" values="0 0 0 0 0 0 0 0 0 0 0 0 0 0 0 0 0 0 .4 0"/><feOffset dx="4.0" dy="4.0" in="blurOut2" result="blurOut3"/><feBlend in="SourceGraphic" in2="blurOut3" mode="normal"/></filter></defs><g><rect fill="#FEFECE" filter="url(#fa913jz97z5wg)" height="30.4883" style="stroke: #A80036; stroke-width: 1.5;" width="194" x="415.5" y="125.7988"/><text fill="#000000" font-family="sans-serif" font-size="14" lengthAdjust="spacingAndGlyphs" text-decoration="underline" textLength="180" x="422.5" y="146.334">:ConcertVSSCreateControl</text><line style="stroke: #000000; stroke-width: 1.0;" x1="422.5" x2="602.5" y1="148.334" y2="148.334"/><rect fill="#FEFECE" filter="url(#fa913jz97z5wg)" height="30.4883" style="stroke: #A80036; stroke-width: 1.5;" width="351" x="1103.5" y="171.2871"/><text fill="#000000" font-family="sans-serif" font-size="14" lengthAdjust="spacingAndGlyphs" text-decoration="underline" textLength="337" x="1110.5" y="191.8223">newSoundSpace:ConcertModeVirtualSoundSpace</text><line style="stroke: #000000; stroke-width: 1.0;" x1="1110.5" x2="1447.5" y1="193.8223" y2="193.8223"/><rect fill="#FFFFFF" filter="url(#fa913jz97z5wg)" height="819.8516" style="stroke: #000000; stroke-width: 2.0;" width="1578.5" x="13" y="223.7754"/><rect fill="#FFFFFF" filter="url(#fa913jz97z5wg)" height="436.9473" style="stroke: #000000; stroke-width: 2.0;" width="1090.5" x="23" y="248.0859"/><rect fill="#FFFFFF" filter="url(#fa913jz97z5wg)" height="75.9316" style="stroke: #000000; stroke-width: 2.0;" width="463" x="640.5" y="399.6387"/><rect fill="#FFFFFF" height="85.2207" style="stroke: none; stroke-width: 1.0;" width="1090.5" x="23" y="599.8125"/><rect fill="#FEFECE" filter="url(#fa913jz97z5wg)" height="30.4883" style="stroke: #A80036; stroke-width: 1.5;" width="109" x="1468.5" y="734.3438"/><text fill="#000000" font-family="sans-serif" font-size="14" lengthAdjust="spacingAndGlyphs" text-decoration="underline" textLength="95" x="1475.5" y="754.8789">:SoundSource</text><line style="stroke: #000000; stroke-width: 1.0;" x1="1475.5" x2="1570.5" y1="756.8789" y2="756.8789"/><line style="stroke: #A80036; stroke-width: 1.0;" x1="51" x2="51" y1="86.4883" y2="644.0781"/><line style="stroke: #A80036; stroke-width: 1.0; stroke-dasharray: 1.0,4.0;" x1="51" x2="51" y1="644.0781" y2="685.0332"/><line style="stroke: #A80036; stroke-width: 1.0;" x1="51" x2="51" y1="685.0332" y2="1060.627"/><line style="stroke: #A80036; stroke-width: 1.0;" x1="250" x2="250" y1="86.4883" y2="644.0781"/><line style="stroke: #A80036; stroke-width: 1.0; stroke-dasharray: 1.0,4.0;" x1="250" x2="250" y1="644.0781" y2="685.0332"/><line style="stroke: #A80036; stroke-width: 1.0;" x1="250" x2="250" y1="685.0332" y2="1060.627"/><line style="stroke: #A80036; stroke-width: 1.0;" x1="514.5" x2="514.5" y1="158.543" y2="644.0781"/><line style="stroke: #A80036; stroke-width: 1.0; stroke-dasharray: 1.0,4.0;" x1="514.5" x2="514.5" y1="644.0781" y2="685.0332"/><line style="stroke: #A80036; stroke-width: 1.0;" x1="514.5" x2="514.5" y1="685.0332" y2="1060.627"/><line style="stroke: #A80036; stroke-width: 1.0;" x1="744.5" x2="744.5" y1="86.4883" y2="644.0781"/><line style="stroke: #A80036; stroke-width: 1.0; stroke-dasharray: 1.0,4.0;" x1="744.5" x2="744.5" y1="644.0781" y2="685.0332"/><line style="stroke: #A80036; stroke-width: 1.0;" x1="744.5" x2="744.5" y1="685.0332" y2="1060.627"/><line style="stroke: #A80036; stroke-width: 1.0;" x1="970.5" x2="970.5" y1="86.4883" y2="644.0781"/><line style="stroke: #A80036; stroke-width: 1.0; stroke-dasharray: 1.0,4.0;" x1="970.5" x2="970.5" y1="644.0781" y2="685.0332"/><line style="stroke: #A80036; stroke-width: 1.0;" x1="970.5" x2="970.5" y1="685.0332" y2="1060.627"/><line style="stroke: #A80036; stroke-width: 1.0;" x1="1280.5" x2="1280.5" y1="204.0313" y2="644.0781"/><line style="stroke: #A80036; stroke-width: 1.0; stroke-dasharray: 1.0,4.0;" x1="1280.5" x2="1280.5" y1="644.0781" y2="685.0332"/><line style="stroke: #A80036; stroke-width: 1.0;" x1="1280.5" x2="1280.5" y1="685.0332" y2="1060.627"/><line style="stroke: #A80036; stroke-width: 1.0;" x1="1524.5" x2="1524.5" y1="767.0879" y2="1060.627"/><text fill="#000000" font-family="sans-serif" font-size="14" lengthAdjust="spacingAndGlyphs" text-decoration="underline" textLength="31" x="33" y="83.5352">User</text><line style="stroke: #000000; stroke-width: 1.0;" x1="33" x2="64" y1="85.5352" y2="85.5352"/><ellipse cx="51.5" cy="13" fill="#FEFECE" filter="url(#fa913jz97z5wg)" rx="8" ry="8" style="stroke: #A80036; stroke-width: 2.0;"/><path d="M51.5,21 L51.5,48 M38.5,29 L64.5,29 M51.5,48 L38.5,63 M51.5,48 L64.5,63 " fill="none" filter="url(#fa913jz97z5wg)" style="stroke: #A80036; stroke-width: 2.0;"/><rect fill="#FEFECE" filter="url(#fa913jz97z5wg)" height="30.4883" style="stroke: #A80036; stroke-width: 1.5;" width="175" x="161" y="51"/><text fill="#000000" font-family="sans-serif" font-size="14" lengthAdjust="spacingAndGlyphs" text-decoration="underline" textLength="161" x="168" y="71.5352">:ConcertVSSCreatePage</text><line style="stroke: #000000; stroke-width: 1.0;" x1="168" x2="329" y1="73.5352" y2="73.5352"/><rect fill="#FEFECE" filter="url(#fa913jz97z5wg)" height="30.4883" style="stroke: #A80036; stroke-width: 1.5;" width="184" x="650.5" y="51"/><text fill="#000000" font-family="sans-serif" font-size="14" lengthAdjust="spacingAndGlyphs" text-decoration="underline" textLength="170" x="657.5" y="71.5352">:LocalSoundSpaceLibrary</text><line style="stroke: #000000; stroke-width: 1.0;" x1="657.5" x2="827.5" y1="73.5352" y2="73.5352"/><rect fill="#FEFECE" filter="url(#fa913jz97z5wg)" height="30.4883" style="stroke: #A80036; stroke-width: 1.5;" width="237" x="852.5" y="47"/><rect fill="#FEFECE" filter="url(#fa913jz97z5wg)" height="30.4883" style="stroke: #A80036; stroke-width: 1.5;" width="237" x="848.5" y="51"/><text fill="#000000" font-family="sans-serif" font-size="14" lengthAdjust="spacingAndGlyphs" text-decoration="underline" textLength="223" x="855.5" y="71.5352">soundSpaces:VirtualSoundSpace</text><line style="stroke: #000000; stroke-width: 1.0;" x1="855.5" x2="1078.5" y1="73.5352" y2="73.5352"/><polygon fill="#A80036" points="238.5,113.4883,248.5,117.4883,238.5,121.4883,242.5,117.4883" style="stroke: #A80036; stroke-width: 1.0;"/><line style="stroke: #A80036; stroke-width: 1.0;" x1="3" x2="244.5" y1="117.4883" y2="117.4883"/><text fill="#000000" font-family="sans-serif" font-size="13" lengthAdjust="spacingAndGlyphs" textLength="78" x="10" y="113.0566">&lt;&lt;create&gt;&gt;</text><polygon fill="#A80036" points="403.5,142.7988,413.5,146.7988,403.5,150.7988,407.5,146.7988" style="stroke: #A80036; stroke-width: 1.0;"/><line style="stroke: #A80036; stroke-width: 1.0;" x1="250.5" x2="409.5" y1="146.7988" y2="146.7988"/><text fill="#000000" font-family="sans-serif" font-size="13" lengthAdjust="spacingAndGlyphs" textLength="78" x="257.5" y="142.3672">&lt;&lt;create&gt;&gt;</text><rect fill="#FEFECE" filter="url(#fa913jz97z5wg)" height="30.4883" style="stroke: #A80036; stroke-width: 1.5;" width="194" x="415.5" y="125.7988"/><text fill="#000000" font-family="sans-serif" font-size="14" lengthAdjust="spacingAndGlyphs" text-decoration="underline" textLength="180" x="422.5" y="146.334">:ConcertVSSCreateControl</text><line style="stroke: #000000; stroke-width: 1.0;" x1="422.5" x2="602.5" y1="148.334" y2="148.334"/><polygon fill="#A80036" points="1091.5,188.2871,1101.5,192.2871,1091.5,196.2871,1095.5,192.2871" style="stroke: #A80036; stroke-width: 1.0;"/><line style="stroke: #A80036; stroke-width: 1.0;" x1="514.5" x2="1097.5" y1="192.2871" y2="192.2871"/><text fill="#000000" font-family="sans-serif" font-size="13" lengthAdjust="spacingAndGlyphs" textLength="78" x="521.5" y="187.8555">&lt;&lt;create&gt;&gt;</text><rect fill="#FEFECE" filter="url(#fa913jz97z5wg)" height="30.4883" style="stroke: #A80036; stroke-width: 1.5;" width="351" x="1103.5" y="171.2871"/><text fill="#000000" font-family="sans-serif" font-size="14" lengthAdjust="spacingAndGlyphs" text-decoration="underline" textLength="337" x="1110.5" y="191.8223">newSoundSpace:ConcertModeVirtualSoundSpace</text><line style="stroke: #000000; stroke-width: 1.0;" x1="1110.5" x2="1447.5" y1="193.8223" y2="193.8223"/><path d="M13,223.7754 L87,223.7754 L87,230.7754 L77,240.7754 L13,240.7754 L13,223.7754 " fill="#EEEEEE" style="stroke: #000000; stroke-width: 1.0;"/><rect fill="none" height="819.8516" style="stroke: #000000; stroke-width: 2.0;" width="1578.5" x="13" y="223.7754"/><text fill="#000000" font-family="sans-serif" font-size="13" font-weight="bold" lengthAdjust="spacingAndGlyphs" textLength="29" x="28" y="237.3438">loop</text><text fill="#000000" font-family="sans-serif" font-size="11" font-weight="bold" lengthAdjust="spacingAndGlyphs" textLength="144" x="102" y="236.4102">[add virual sound source]</text><path d="M23,248.0859 L85,248.0859 L85,255.0859 L75,265.0859 L23,265.0859 L23,248.0859 " fill="#EEEEEE" style="stroke: #000000; stroke-width: 1.0;"/><rect fill="none" height="436.9473" style="stroke: #000000; stroke-width: 2.0;" width="1090.5" x="23" y="248.0859"/><text fill="#000000" font-family="sans-serif" font-size="13" font-weight="bold" lengthAdjust="spacingAndGlyphs" textLength="17" x="38" y="261.6543">alt</text><text fill="#000000" font-family="sans-serif" font-size="11" font-weight="bold" lengthAdjust="spacingAndGlyphs" textLength="101" x="100" y="260.7207">[add from library]</text><path d="M56,270.3965 L56,295.3965 L733,295.3965 L733,280.3965 L723,270.3965 L56,270.3965 " fill="#FBFB77" filter="url(#fa913jz97z5wg)" style="stroke: #A80036; stroke-width: 1.0;"/><path d="M723,270.3965 L723,280.3965 L733,280.3965 L723,270.3965 " fill="#FBFB77" style="stroke: #A80036; stroke-width: 1.0;"/><text fill="#000000" font-family="sans-serif" font-size="13" lengthAdjust="spacingAndGlyphs" textLength="656" x="62" y="287.9648">Notice that there are no shared SoundSources here, each time, only the SoundFragment object is reused.</text><polygon fill="#A80036" points="238.5,321.707,248.5,325.707,238.5,329.707,242.5,325.707" style="stroke: #A80036; stroke-width: 1.0;"/><line style="stroke: #A80036; stroke-width: 1.0;" x1="51.5" x2="244.5" y1="325.707" y2="325.707"/><text fill="#000000" font-family="sans-serif" font-size="13" lengthAdjust="spacingAndGlyphs" textLength="164" x="58.5" y="321.2754">selectExistedSoundSource</text><polygon fill="#A80036" points="502.5,351.0176,512.5,355.0176,502.5,359.0176,506.5,355.0176" style="stroke: #A80036; stroke-width: 1.0;"/><line style="stroke: #A80036; stroke-width: 1.0;" x1="250.5" x2="508.5" y1="355.0176" y2="355.0176"/><text fill="#000000" font-family="sans-serif" font-size="13" lengthAdjust="spacingAndGlyphs" textLength="158" x="257.5" y="350.5859">getLocalSoundFragments</text><polygon fill="#A80036" points="732.5,380.3281,742.5,384.3281,732.5,388.3281,736.5,384.3281" style="stroke: #A80036; stroke-width: 1.0;"/><line style="stroke: #A80036; stroke-width: 1.0;" x1="514.5" x2="738.5" y1="384.3281" y2="384.3281"/><text fill="#000000" font-family="sans-serif" font-size="13" lengthAdjust="spacingAndGlyphs" textLength="158" x="521.5" y="379.8965">getLocalSoundFragments</text><path d="M640.5,399.6387 L714.5,399.6387 L714.5,406.6387 L704.5,416.6387 L640.5,416.6387 L640.5,399.6387 " fill="#EEEEEE" style="stroke: #000000; stroke-width: 1.0;"/><rect fill="none" height="75.9316" style="stroke: #000000; stroke-width: 2.0;" width="463" x="640.5" y="399.6387"/><text fill="#000000" font-family="sans-serif" font-size="13" font-weight="bold" lengthAdjust="spacingAndGlyphs" textLength="29" x="655.5" y="413.207">loop</text><text fill="#000000" font-family="sans-serif" font-size="11" font-weight="bold" lengthAdjust="spacingAndGlyphs" textLength="54" x="729.5" y="412.2734">[for each]</text><polygon fill="#A80036" points="959,433.9492,969,437.9492,959,441.9492,963,437.9492" style="stroke: #A80036; stroke-width: 1.0;"/><line style="stroke: #A80036; stroke-width: 1.0;" x1="744.5" x2="965" y1="437.9492" y2="437.9492"/><text fill="#000000" font-family="sans-serif" font-size="13" lengthAdjust="spacingAndGlyphs" textLength="108" x="751.5" y="433.5176">getSoundSources</text><polygon fill="#A80036" points="755.5,463.2598,745.5,467.2598,755.5,471.2598,751.5,467.2598" style="stroke: #A80036; stroke-width: 1.0;"/><line style="stroke: #A80036; stroke-width: 1.0; stroke-dasharray: 2.0,2.0;" x1="749.5" x2="970" y1="467.2598" y2="467.2598"/><text fill="#000000" font-family="sans-serif" font-size="13" lengthAdjust="spacingAndGlyphs" textLength="88" x="761.5" y="462.8281">soundSources</text><polygon fill="#A80036" points="525.5,499.5703,515.5,503.5703,525.5,507.5703,521.5,503.5703" style="stroke: #A80036; stroke-width: 1.0;"/><line style="stroke: #A80036; stroke-width: 1.0; stroke-dasharray: 2.0,2.0;" x1="519.5" x2="743.5" y1="503.5703" y2="503.5703"/><text fill="#000000" font-family="sans-serif" font-size="13" lengthAdjust="spacingAndGlyphs" textLength="150" x="531.5" y="499.1387">filteredSoundFragments</text><polygon fill="#A80036" points="261.5,528.8809,251.5,532.8809,261.5,536.8809,257.5,532.8809" style="stroke: #A80036; stroke-width: 1.0;"/><line style="stroke: #A80036; stroke-width: 1.0; stroke-dasharray: 2.0,2.0;" x1="255.5" x2="513.5" y1="532.8809" y2="532.8809"/><text fill="#000000" font-family="sans-serif" font-size="13" lengthAdjust="spacingAndGlyphs" textLength="240" x="267.5" y="528.4492">displayAvailableLocalSoundFragments</text><polygon fill="#A80036" points="238.5,558.1914,248.5,562.1914,238.5,566.1914,242.5,562.1914" style="stroke: #A80036; stroke-width: 1.0;"/><line style="stroke: #A80036; stroke-width: 1.0;" x1="51.5" x2="244.5" y1="562.1914" y2="562.1914"/><text fill="#000000" font-family="sans-serif" font-size="13" lengthAdjust="spacingAndGlyphs" textLength="135" x="58.5" y="557.7598">selectSoundFragment</text><polygon fill="#A80036" points="502.5,587.502,512.5,591.502,502.5,595.502,506.5,591.502" style="stroke: #A80036; stroke-width: 1.0;"/><line style="stroke: #A80036; stroke-width: 1.0;" x1="250.5" x2="508.5" y1="591.502" y2="591.502"/><text fill="#000000" font-family="sans-serif" font-size="13" lengthAdjust="spacingAndGlyphs" textLength="121" x="257.5" y="587.0703">addSoundFragment</text><line style="stroke: #000000; stroke-width: 1.0; stroke-dasharray: 2.0,2.0;" x1="23" x2="1113.5" y1="600.8125" y2="600.8125"/><text fill="#000000" font-family="sans-serif" font-size="11" font-weight="bold" lengthAdjust="spacingAndGlyphs" textLength="83" x="28" y="611.4473">[add from file]</text><polygon fill="#A80036" points="238.5,631.7676,248.5,635.7676,238.5,639.7676,242.5,635.7676" style="stroke: #A80036; stroke-width: 1.0;"/><line style="stroke: #A80036; stroke-width: 1.0;" x1="51.5" x2="244.5" y1="635.7676" y2="635.7676"/><text fill="#000000" font-family="sans-serif" font-size="13" lengthAdjust="spacingAndGlyphs" textLength="136" x="58.5" y="631.3359">selectFromFileSystem</text><text fill="#000000" font-family="sans-serif" font-size="11" lengthAdjust="spacingAndGlyphs" textLength="500" x="538.25" y="668.7129">somehow MapVSSCreateControl got the new SoundFragment # specify during implementation</text><line style="stroke: #A80036; stroke-width: 1.0;" x1="51.5" x2="93.5" y1="713.3438" y2="713.3438"/><line style="stroke: #A80036; stroke-width: 1.0;" x1="93.5" x2="93.5" y1="713.3438" y2="726.3438"/><line style="stroke: #A80036; stroke-width: 1.0;" x1="52.5" x2="93.5" y1="726.3438" y2="726.3438"/><polygon fill="#A80036" points="62.5,722.3438,52.5,726.3438,62.5,730.3438,58.5,726.3438" style="stroke: #A80036; stroke-width: 1.0;"/><text fill="#000000" font-family="sans-serif" font-size="13" lengthAdjust="spacingAndGlyphs" textLength="80" x="58.5" y="708.6016">wakeUp(self)</text><polygon fill="#A80036" points="1456.5,751.3438,1466.5,755.3438,1456.5,759.3438,1460.5,755.3438" style="stroke: #A80036; stroke-width: 1.0;"/><line style="stroke: #A80036; stroke-width: 1.0;" x1="514.5" x2="1462.5" y1="755.3438" y2="755.3438"/><text fill="#000000" font-family="sans-serif" font-size="13" lengthAdjust="spacingAndGlyphs" textLength="78" x="521.5" y="750.9121">&lt;&lt;create&gt;&gt;</text><rect fill="#FEFECE" filter="url(#fa913jz97z5wg)" height="30.4883" style="stroke: #A80036; stroke-width: 1.5;" width="109" x="1468.5" y="734.3438"/><text fill="#000000" font-family="sans-serif" font-size="14" lengthAdjust="spacingAndGlyphs" text-decoration="underline" textLength="95" x="1475.5" y="754.8789">:SoundSource</text><line style="stroke: #000000; stroke-width: 1.0;" x1="1475.5" x2="1570.5" y1="756.8789" y2="756.8789"/><polygon fill="#A80036" points="1513,796.832,1523,800.832,1513,804.832,1517,800.832" style="stroke: #A80036; stroke-width: 1.0;"/><line style="stroke: #A80036; stroke-width: 1.0;" x1="514.5" x2="1519" y1="800.832" y2="800.832"/><text fill="#000000" font-family="sans-serif" font-size="13" lengthAdjust="spacingAndGlyphs" textLength="117" x="521.5" y="796.4004">setSoundFragment</text><polygon fill="#A80036" points="1269,826.1426,1279,830.1426,1269,834.1426,1273,830.1426" style="stroke: #A80036; stroke-width: 1.0;"/><line style="stroke: #A80036; stroke-width: 1.0;" x1="514.5" x2="1275" y1="830.1426" y2="830.1426"/><text fill="#000000" font-family="sans-serif" font-size="13" lengthAdjust="spacingAndGlyphs" textLength="193" x="521.5" y="825.7109">addSoundSource(soundSource)</text><polygon fill="#A80036" points="238.5,855.4531,248.5,859.4531,238.5,863.4531,242.5,859.4531" style="stroke: #A80036; stroke-width: 1.0;"/><line style="stroke: #A80036; stroke-width: 1.0;" x1="51.5" x2="244.5" y1="859.4531" y2="859.4531"/><text fill="#000000" font-family="sans-serif" font-size="13" lengthAdjust="spacingAndGlyphs" textLength="175" x="58.5" y="855.0215">setVSSNameAndDescription</text><polygon fill="#A80036" points="502.5,884.7637,512.5,888.7637,502.5,892.7637,506.5,888.7637" style="stroke: #A80036; stroke-width: 1.0;"/><line style="stroke: #A80036; stroke-width: 1.0;" x1="250.5" x2="508.5" y1="888.7637" y2="888.7637"/><text fill="#000000" font-family="sans-serif" font-size="13" lengthAdjust="spacingAndGlyphs" textLength="175" x="257.5" y="884.332">setVSSNameAndDescription</text><polygon fill="#A80036" points="1269,914.0742,1279,918.0742,1269,922.0742,1273,918.0742" style="stroke: #A80036; stroke-width: 1.0;"/><line style="stroke: #A80036; stroke-width: 1.0;" x1="514.5" x2="1275" y1="918.0742" y2="918.0742"/><text fill="#000000" font-family="sans-serif" font-size="13" lengthAdjust="spacingAndGlyphs" textLength="175" x="521.5" y="913.6426">setVSSNameAndDescription</text><polygon fill="#A80036" points="238.5,943.3848,248.5,947.3848,238.5,951.3848,242.5,947.3848" style="stroke: #A80036; stroke-width: 1.0;"/><line style="stroke: #A80036; stroke-width: 1.0;" x1="51.5" x2="244.5" y1="947.3848" y2="947.3848"/><text fill="#000000" font-family="sans-serif" font-size="13" lengthAdjust="spacingAndGlyphs" textLength="128" x="58.5" y="942.9531">comfirmVSSCreation</text><polygon fill="#A80036" points="502.5,972.6953,512.5,976.6953,502.5,980.6953,506.5,976.6953" style="stroke: #A80036; stroke-width: 1.0;"/><line style="stroke: #A80036; stroke-width: 1.0;" x1="250.5" x2="508.5" y1="976.6953" y2="976.6953"/><text fill="#000000" font-family="sans-serif" font-size="13" lengthAdjust="spacingAndGlyphs" textLength="128" x="257.5" y="972.2637">comfirmVSSCreation</text><polygon fill="#A80036" points="732.5,1002.0059,742.5,1006.0059,732.5,1010.0059,736.5,1006.0059" style="stroke: #A80036; stroke-width: 1.0;"/><line style="stroke: #A80036; stroke-width: 1.0;" x1="514.5" x2="738.5" y1="1006.0059" y2="1006.0059"/><text fill="#000000" font-family="sans-serif" font-size="13" lengthAdjust="spacingAndGlyphs" textLength="206" x="521.5" y="1001.5742">addSoundSpace(newSoundSpace)</text><polygon fill="#A80036" points="261.5,1031.3164,251.5,1035.3164,261.5,1039.3164,257.5,1035.3164" style="stroke: #A80036; stroke-width: 1.0;"/><line style="stroke: #A80036; stroke-width: 1.0;" x1="255.5" x2="513.5" y1="1035.3164" y2="1035.3164"/><text fill="#000000" font-family="sans-serif" font-size="13" lengthAdjust="spacingAndGlyphs" textLength="87" x="267.5" y="1030.8848">&lt;&lt;destroy&gt;&gt;</text><line style="stroke: #A80036; stroke-width: 2.0;" x1="241.5" x2="259.5" y1="1026.3164" y2="1044.3164"/><line style="stroke: #A80036; stroke-width: 2.0;" x1="241.5" x2="259.5" y1="1044.3164" y2="1026.3164"/><line style="stroke: #A80036; stroke-width: 2.0;" x1="505.5" x2="523.5" y1="1026.3164" y2="1044.3164"/><line style="stroke: #A80036; stroke-width: 2.0;" x1="505.5" x2="523.5" y1="1044.3164" y2="1026.3164"/><!--
@startuml CreateConcertModeVSS
hide footbox
skinparam sequenceParticipant underline


actor User as user
participant ":ConcertVSSCreatePage" as createboundary
participant ":ConcertVSSCreateControl" as createcontrol
participant ":LocalSoundSpaceLibrary" as library
collections "soundSpaces:VirtualSoundSpace" as vsses
participant "newSoundSpace:ConcertModeVirtualSoundSpace" as newspace

create createboundary
-> createboundary: <<create>>
create createcontrol
createboundary -> createcontrol: <<create>>
create newspace
createcontrol -> newspace: <<create>>

loop add virual sound source
    alt add from library
        note right of user: Notice that there are no shared SoundSources here, each time, only the SoundFragment object is reused.
        user -> createboundary: selectExistedSoundSource
        createboundary -> createcontrol: getLocalSoundFragments
        createcontrol -> library: getLocalSoundFragments
        loop for each
            library -> vsses: getSoundSources
            vsses - -> library: soundSources
        end
        library - -> createcontrol: filteredSoundFragments
        createcontrol - -> createboundary: displayAvailableLocalSoundFragments
        user -> createboundary: selectSoundFragment
        createboundary -> createcontrol: addSoundFragment
    else add from file
        user -> createboundary: selectFromFileSystem
        ...somehow MapVSSCreateControl got the new SoundFragment # specify during implementation...
    end


    participant ":SoundSource" as source
    user -> user: wakeUp(self)
    create source
    createcontrol -> source: <<create>>
    createcontrol -> source: setSoundFragment
    createcontrol -> newspace: addSoundSource(soundSource)
    user -> createboundary: setVSSNameAndDescription
    createboundary -> createcontrol: setVSSNameAndDescription
    createcontrol -> newspace: setVSSNameAndDescription
    user -> createboundary: comfirmVSSCreation
    createboundary -> createcontrol: comfirmVSSCreation
    createcontrol -> library: addSoundSpace(newSoundSpace)

    createcontrol -> createboundary: <<destroy>>
    destroy createboundary
    destroy createcontrol


end
@enduml

PlantUML version 1.2018.01(Mon Jan 29 02:08:22 CST 2018)
(GPL source distribution)
Java Runtime: Java(TM) SE Runtime Environment
JVM: Java HotSpot(TM) 64-Bit Server VM
Java Version: 9+181
Operating System: Mac OS X
OS Version: 10.12.6
Default Encoding: UTF-8
Language: zh
Country: CN
--></g></svg>