<?xml version="1.0" encoding="UTF-8" standalone="no"?><svg xmlns="http://www.w3.org/2000/svg" xmlns:xlink="http://www.w3.org/1999/xlink" contentScriptType="application/ecmascript" contentStyleType="text/css" height="1033px" preserveAspectRatio="none" style="width:1602px;height:1033px;" version="1.1" viewBox="0 0 1602 1033"
    width="1602px" zoomAndPan="magnify"><defs><filter height="300%" id="f1fu39zg5xzdl0" width="300%" x="-1" y="-1"><feGaussianBlur result="blurOut" stdDeviation="2.0"/><feColorMatrix in="blurOut" result="blurOut2" type="matrix" values="0 0 0 0 0 0 0 0 0 0 0 0 0 0 0 0 0 0 .4 0"/><feOffset dx="4.0" dy="4.0" in="blurOut2" result="blurOut3"/><feBlend in="SourceGraphic" in2="blurOut3" mode="normal"/></filter></defs><g><rect fill="#FEFECE" filter="url(#f1fu39zg5xzdl0)" height="30.4883" style="stroke: #A80036; stroke-width: 1.5;" width="194" x="415.5" y="125.7988"/><text fill="#000000" font-family="sans-serif" font-size="14" lengthAdjust="spacingAndGlyphs" text-decoration="underline" textLength="180" x="422.5" y="146.334">:ConcertVSSCreateControl</text><line style="stroke: #000000; stroke-width: 1.0;" x1="422.5" x2="602.5" y1="148.334" y2="148.334"/><rect fill="#FEFECE" filter="url(#f1fu39zg5xzdl0)" height="30.4883" style="stroke: #A80036; stroke-width: 1.5;" width="351" x="1103.5" y="171.2871"/><text fill="#000000" font-family="sans-serif" font-size="14" lengthAdjust="spacingAndGlyphs" text-decoration="underline" textLength="337" x="1110.5" y="191.8223">newSoundSpace:ConcertModeVirtualSoundSpace</text><line style="stroke: #000000; stroke-width: 1.0;" x1="1110.5" x2="1447.5" y1="193.8223" y2="193.8223"/><rect fill="#FFFFFF" filter="url(#f1fu39zg5xzdl0)" height="780.541" style="stroke: #000000; stroke-width: 2.0;" width="1578.5" x="13" y="223.7754"/><rect fill="#FFFFFF" filter="url(#f1fu39zg5xzdl0)" height="397.6367" style="stroke: #000000; stroke-width: 2.0;" width="1090.5" x="23" y="248.0859"/><rect fill="#FFFFFF" filter="url(#f1fu39zg5xzdl0)" height="75.9316" style="stroke: #000000; stroke-width: 2.0;" width="463" x="640.5" y="360.3281"/><rect fill="#FFFFFF" height="85.2207" style="stroke: none; stroke-width: 1.0;" width="1090.5" x="23" y="560.502"/><rect fill="#FEFECE" filter="url(#f1fu39zg5xzdl0)" height="30.4883" style="stroke: #A80036; stroke-width: 1.5;" width="109" x="1468.5" y="695.0332"/><text fill="#000000" font-family="sans-serif" font-size="14" lengthAdjust="spacingAndGlyphs" text-decoration="underline" textLength="95" x="1475.5" y="715.5684">:SoundSource</text><line style="stroke: #000000; stroke-width: 1.0;" x1="1475.5" x2="1570.5" y1="717.5684" y2="717.5684"/><line style="stroke: #A80036; stroke-width: 1.0;" x1="51" x2="51" y1="86.4883" y2="604.7676"/><line style="stroke: #A80036; stroke-width: 1.0; stroke-dasharray: 1.0,4.0;" x1="51" x2="51" y1="604.7676" y2="645.7227"/><line style="stroke: #A80036; stroke-width: 1.0;" x1="51" x2="51" y1="645.7227" y2="1021.3164"/><line style="stroke: #A80036; stroke-width: 1.0;" x1="250" x2="250" y1="86.4883" y2="604.7676"/><line style="stroke: #A80036; stroke-width: 1.0; stroke-dasharray: 1.0,4.0;" x1="250" x2="250" y1="604.7676" y2="645.7227"/><line style="stroke: #A80036; stroke-width: 1.0;" x1="250" x2="250" y1="645.7227" y2="1021.3164"/><line style="stroke: #A80036; stroke-width: 1.0;" x1="514.5" x2="514.5" y1="158.543" y2="604.7676"/><line style="stroke: #A80036; stroke-width: 1.0; stroke-dasharray: 1.0,4.0;" x1="514.5" x2="514.5" y1="604.7676" y2="645.7227"/><line style="stroke: #A80036; stroke-width: 1.0;" x1="514.5" x2="514.5" y1="645.7227" y2="1021.3164"/><line style="stroke: #A80036; stroke-width: 1.0;" x1="744.5" x2="744.5" y1="86.4883" y2="604.7676"/><line style="stroke: #A80036; stroke-width: 1.0; stroke-dasharray: 1.0,4.0;" x1="744.5" x2="744.5" y1="604.7676" y2="645.7227"/><line style="stroke: #A80036; stroke-width: 1.0;" x1="744.5" x2="744.5" y1="645.7227" y2="1021.3164"/><line style="stroke: #A80036; stroke-width: 1.0;" x1="970.5" x2="970.5" y1="86.4883" y2="604.7676"/><line style="stroke: #A80036; stroke-width: 1.0; stroke-dasharray: 1.0,4.0;" x1="970.5" x2="970.5" y1="604.7676" y2="645.7227"/><line style="stroke: #A80036; stroke-width: 1.0;" x1="970.5" x2="970.5" y1="645.7227" y2="1021.3164"/><line style="stroke: #A80036; stroke-width: 1.0;" x1="1280.5" x2="1280.5" y1="204.0313" y2="604.7676"/><line style="stroke: #A80036; stroke-width: 1.0; stroke-dasharray: 1.0,4.0;" x1="1280.5" x2="1280.5" y1="604.7676" y2="645.7227"/><line style="stroke: #A80036; stroke-width: 1.0;" x1="1280.5" x2="1280.5" y1="645.7227" y2="1021.3164"/><line style="stroke: #A80036; stroke-width: 1.0;" x1="1524.5" x2="1524.5" y1="727.7773" y2="1021.3164"/><text fill="#000000" font-family="sans-serif" font-size="14" lengthAdjust="spacingAndGlyphs" text-decoration="underline" textLength="31" x="33" y="83.5352">User</text><line style="stroke: #000000; stroke-width: 1.0;" x1="33" x2="64" y1="85.5352" y2="85.5352"/><ellipse cx="51.5" cy="13" fill="#FEFECE" filter="url(#f1fu39zg5xzdl0)" rx="8" ry="8" style="stroke: #A80036; stroke-width: 2.0;"/><path d="M51.5,21 L51.5,48 M38.5,29 L64.5,29 M51.5,48 L38.5,63 M51.5,48 L64.5,63 " fill="none" filter="url(#f1fu39zg5xzdl0)" style="stroke: #A80036; stroke-width: 2.0;"/><rect fill="#FEFECE" filter="url(#f1fu39zg5xzdl0)" height="30.4883" style="stroke: #A80036; stroke-width: 1.5;" width="175" x="161" y="51"/><text fill="#000000" font-family="sans-serif" font-size="14" lengthAdjust="spacingAndGlyphs" text-decoration="underline" textLength="161" x="168" y="71.5352">:ConcertVSSCreatePage</text><line style="stroke: #000000; stroke-width: 1.0;" x1="168" x2="329" y1="73.5352" y2="73.5352"/><rect fill="#FEFECE" filter="url(#f1fu39zg5xzdl0)" height="30.4883" style="stroke: #A80036; stroke-width: 1.5;" width="184" x="650.5" y="51"/><text fill="#000000" font-family="sans-serif" font-size="14" lengthAdjust="spacingAndGlyphs" text-decoration="underline" textLength="170" x="657.5" y="71.5352">:LocalSoundSpaceLibrary</text><line style="stroke: #000000; stroke-width: 1.0;" x1="657.5" x2="827.5" y1="73.5352" y2="73.5352"/><rect fill="#FEFECE" filter="url(#f1fu39zg5xzdl0)" height="30.4883" style="stroke: #A80036; stroke-width: 1.5;" width="237" x="852.5" y="47"/><rect fill="#FEFECE" filter="url(#f1fu39zg5xzdl0)" height="30.4883" style="stroke: #A80036; stroke-width: 1.5;" width="237" x="848.5" y="51"/><text fill="#000000" font-family="sans-serif" font-size="14" lengthAdjust="spacingAndGlyphs" text-decoration="underline" textLength="223" x="855.5" y="71.5352">soundSpaces:VirtualSoundSpace</text><line style="stroke: #000000; stroke-width: 1.0;" x1="855.5" x2="1078.5" y1="73.5352" y2="73.5352"/><polygon fill="#A80036" points="238.5,113.4883,248.5,117.4883,238.5,121.4883,242.5,117.4883" style="stroke: #A80036; stroke-width: 1.0;"/><line style="stroke: #A80036; stroke-width: 1.0;" x1="3" x2="244.5" y1="117.4883" y2="117.4883"/><text fill="#000000" font-family="sans-serif" font-size="13" lengthAdjust="spacingAndGlyphs" textLength="78" x="10" y="113.0566">&lt;&lt;create&gt;&gt;</text><polygon fill="#A80036" points="403.5,142.7988,413.5,146.7988,403.5,150.7988,407.5,146.7988" style="stroke: #A80036; stroke-width: 1.0;"/><line style="stroke: #A80036; stroke-width: 1.0;" x1="250.5" x2="409.5" y1="146.7988" y2="146.7988"/><text fill="#000000" font-family="sans-serif" font-size="13" lengthAdjust="spacingAndGlyphs" textLength="78" x="257.5" y="142.3672">&lt;&lt;create&gt;&gt;</text><rect fill="#FEFECE" filter="url(#f1fu39zg5xzdl0)" height="30.4883" style="stroke: #A80036; stroke-width: 1.5;" width="194" x="415.5" y="125.7988"/><text fill="#000000" font-family="sans-serif" font-size="14" lengthAdjust="spacingAndGlyphs" text-decoration="underline" textLength="180" x="422.5" y="146.334">:ConcertVSSCreateControl</text><line style="stroke: #000000; stroke-width: 1.0;" x1="422.5" x2="602.5" y1="148.334" y2="148.334"/><polygon fill="#A80036" points="1091.5,188.2871,1101.5,192.2871,1091.5,196.2871,1095.5,192.2871" style="stroke: #A80036; stroke-width: 1.0;"/><line style="stroke: #A80036; stroke-width: 1.0;" x1="514.5" x2="1097.5" y1="192.2871" y2="192.2871"/><text fill="#000000" font-family="sans-serif" font-size="13" lengthAdjust="spacingAndGlyphs" textLength="78" x="521.5" y="187.8555">&lt;&lt;create&gt;&gt;</text><rect fill="#FEFECE" filter="url(#f1fu39zg5xzdl0)" height="30.4883" style="stroke: #A80036; stroke-width: 1.5;" width="351" x="1103.5" y="171.2871"/><text fill="#000000" font-family="sans-serif" font-size="14" lengthAdjust="spacingAndGlyphs" text-decoration="underline" textLength="337" x="1110.5" y="191.8223">newSoundSpace:ConcertModeVirtualSoundSpace</text><line style="stroke: #000000; stroke-width: 1.0;" x1="1110.5" x2="1447.5" y1="193.8223" y2="193.8223"/><path d="M13,223.7754 L87,223.7754 L87,230.7754 L77,240.7754 L13,240.7754 L13,223.7754 " fill="#EEEEEE" style="stroke: #000000; stroke-width: 1.0;"/><rect fill="none" height="780.541" style="stroke: #000000; stroke-width: 2.0;" width="1578.5" x="13" y="223.7754"/><text fill="#000000" font-family="sans-serif" font-size="13" font-weight="bold" lengthAdjust="spacingAndGlyphs" textLength="29" x="28" y="237.3438">loop</text><text fill="#000000" font-family="sans-serif" font-size="11" font-weight="bold" lengthAdjust="spacingAndGlyphs" textLength="144" x="102" y="236.4102">[add virual sound source]</text><path d="M23,248.0859 L85,248.0859 L85,255.0859 L75,265.0859 L23,265.0859 L23,248.0859 " fill="#EEEEEE" style="stroke: #000000; stroke-width: 1.0;"/><rect fill="none" height="397.6367" style="stroke: #000000; stroke-width: 2.0;" width="1090.5" x="23" y="248.0859"/><text fill="#000000" font-family="sans-serif" font-size="13" font-weight="bold" lengthAdjust="spacingAndGlyphs" textLength="17" x="38" y="261.6543">alt</text><text fill="#000000" font-family="sans-serif" font-size="11" font-weight="bold" lengthAdjust="spacingAndGlyphs" textLength="101" x="100" y="260.7207">[add from library]</text><polygon fill="#A80036" points="238.5,282.3965,248.5,286.3965,238.5,290.3965,242.5,286.3965" style="stroke: #A80036; stroke-width: 1.0;"/><line style="stroke: #A80036; stroke-width: 1.0;" x1="51.5" x2="244.5" y1="286.3965" y2="286.3965"/><text fill="#000000" font-family="sans-serif" font-size="13" lengthAdjust="spacingAndGlyphs" textLength="164" x="58.5" y="281.9648">selectExistedSoundSource</text><polygon fill="#A80036" points="502.5,311.707,512.5,315.707,502.5,319.707,506.5,315.707" style="stroke: #A80036; stroke-width: 1.0;"/><line style="stroke: #A80036; stroke-width: 1.0;" x1="250.5" x2="508.5" y1="315.707" y2="315.707"/><text fill="#000000" font-family="sans-serif" font-size="13" lengthAdjust="spacingAndGlyphs" textLength="158" x="257.5" y="311.2754">getLocalSoundFragments</text><polygon fill="#A80036" points="732.5,341.0176,742.5,345.0176,732.5,349.0176,736.5,345.0176" style="stroke: #A80036; stroke-width: 1.0;"/><line style="stroke: #A80036; stroke-width: 1.0;" x1="514.5" x2="738.5" y1="345.0176" y2="345.0176"/><text fill="#000000" font-family="sans-serif" font-size="13" lengthAdjust="spacingAndGlyphs" textLength="158" x="521.5" y="340.5859">getLocalSoundFragments</text><path d="M640.5,360.3281 L714.5,360.3281 L714.5,367.3281 L704.5,377.3281 L640.5,377.3281 L640.5,360.3281 " fill="#EEEEEE" style="stroke: #000000; stroke-width: 1.0;"/><rect fill="none" height="75.9316" style="stroke: #000000; stroke-width: 2.0;" width="463" x="640.5" y="360.3281"/><text fill="#000000" font-family="sans-serif" font-size="13" font-weight="bold" lengthAdjust="spacingAndGlyphs" textLength="29" x="655.5" y="373.8965">loop</text><text fill="#000000" font-family="sans-serif" font-size="11" font-weight="bold" lengthAdjust="spacingAndGlyphs" textLength="54" x="729.5" y="372.9629">[for each]</text><polygon fill="#A80036" points="959,394.6387,969,398.6387,959,402.6387,963,398.6387" style="stroke: #A80036; stroke-width: 1.0;"/><line style="stroke: #A80036; stroke-width: 1.0;" x1="744.5" x2="965" y1="398.6387" y2="398.6387"/><text fill="#000000" font-family="sans-serif" font-size="13" lengthAdjust="spacingAndGlyphs" textLength="108" x="751.5" y="394.207">getSoundSources</text><polygon fill="#A80036" points="755.5,423.9492,745.5,427.9492,755.5,431.9492,751.5,427.9492" style="stroke: #A80036; stroke-width: 1.0;"/><line style="stroke: #A80036; stroke-width: 1.0; stroke-dasharray: 2.0,2.0;" x1="749.5" x2="970" y1="427.9492" y2="427.9492"/><text fill="#000000" font-family="sans-serif" font-size="13" lengthAdjust="spacingAndGlyphs" textLength="88" x="761.5" y="423.5176">soundSources</text><polygon fill="#A80036" points="525.5,460.2598,515.5,464.2598,525.5,468.2598,521.5,464.2598" style="stroke: #A80036; stroke-width: 1.0;"/><line style="stroke: #A80036; stroke-width: 1.0; stroke-dasharray: 2.0,2.0;" x1="519.5" x2="743.5" y1="464.2598" y2="464.2598"/><text fill="#000000" font-family="sans-serif" font-size="13" lengthAdjust="spacingAndGlyphs" textLength="150" x="531.5" y="459.8281">filteredSoundFragments</text><polygon fill="#A80036" points="261.5,489.5703,251.5,493.5703,261.5,497.5703,257.5,493.5703" style="stroke: #A80036; stroke-width: 1.0;"/><line style="stroke: #A80036; stroke-width: 1.0; stroke-dasharray: 2.0,2.0;" x1="255.5" x2="513.5" y1="493.5703" y2="493.5703"/><text fill="#000000" font-family="sans-serif" font-size="13" lengthAdjust="spacingAndGlyphs" textLength="240" x="267.5" y="489.1387">displayAvailableLocalSoundFragments</text><polygon fill="#A80036" points="238.5,518.8809,248.5,522.8809,238.5,526.8809,242.5,522.8809" style="stroke: #A80036; stroke-width: 1.0;"/><line style="stroke: #A80036; stroke-width: 1.0;" x1="51.5" x2="244.5" y1="522.8809" y2="522.8809"/><text fill="#000000" font-family="sans-serif" font-size="13" lengthAdjust="spacingAndGlyphs" textLength="135" x="58.5" y="518.4492">selectSoundFragment</text><polygon fill="#A80036" points="502.5,548.1914,512.5,552.1914,502.5,556.1914,506.5,552.1914" style="stroke: #A80036; stroke-width: 1.0;"/><line style="stroke: #A80036; stroke-width: 1.0;" x1="250.5" x2="508.5" y1="552.1914" y2="552.1914"/><text fill="#000000" font-family="sans-serif" font-size="13" lengthAdjust="spacingAndGlyphs" textLength="121" x="257.5" y="547.7598">addSoundFragment</text><line style="stroke: #000000; stroke-width: 1.0; stroke-dasharray: 2.0,2.0;" x1="23" x2="1113.5" y1="561.502" y2="561.502"/><text fill="#000000" font-family="sans-serif" font-size="11" font-weight="bold" lengthAdjust="spacingAndGlyphs" textLength="83" x="28" y="572.1367">[add from file]</text><polygon fill="#A80036" points="238.5,592.457,248.5,596.457,238.5,600.457,242.5,596.457" style="stroke: #A80036; stroke-width: 1.0;"/><line style="stroke: #A80036; stroke-width: 1.0;" x1="51.5" x2="244.5" y1="596.457" y2="596.457"/><text fill="#000000" font-family="sans-serif" font-size="13" lengthAdjust="spacingAndGlyphs" textLength="136" x="58.5" y="592.0254">selectFromFileSystem</text><text fill="#000000" font-family="sans-serif" font-size="11" lengthAdjust="spacingAndGlyphs" textLength="500" x="538.25" y="629.4023">somehow MapVSSCreateControl got the new SoundFragment # specify during implementation</text><line style="stroke: #A80036; stroke-width: 1.0;" x1="51.5" x2="93.5" y1="674.0332" y2="674.0332"/><line style="stroke: #A80036; stroke-width: 1.0;" x1="93.5" x2="93.5" y1="674.0332" y2="687.0332"/><line style="stroke: #A80036; stroke-width: 1.0;" x1="52.5" x2="93.5" y1="687.0332" y2="687.0332"/><polygon fill="#A80036" points="62.5,683.0332,52.5,687.0332,62.5,691.0332,58.5,687.0332" style="stroke: #A80036; stroke-width: 1.0;"/><text fill="#000000" font-family="sans-serif" font-size="13" lengthAdjust="spacingAndGlyphs" textLength="80" x="58.5" y="669.291">wakeUp(self)</text><polygon fill="#A80036" points="1456.5,712.0332,1466.5,716.0332,1456.5,720.0332,1460.5,716.0332" style="stroke: #A80036; stroke-width: 1.0;"/><line style="stroke: #A80036; stroke-width: 1.0;" x1="514.5" x2="1462.5" y1="716.0332" y2="716.0332"/><text fill="#000000" font-family="sans-serif" font-size="13" lengthAdjust="spacingAndGlyphs" textLength="78" x="521.5" y="711.6016">&lt;&lt;create&gt;&gt;</text><rect fill="#FEFECE" filter="url(#f1fu39zg5xzdl0)" height="30.4883" style="stroke: #A80036; stroke-width: 1.5;" width="109" x="1468.5" y="695.0332"/><text fill="#000000" font-family="sans-serif" font-size="14" lengthAdjust="spacingAndGlyphs" text-decoration="underline" textLength="95" x="1475.5" y="715.5684">:SoundSource</text><line style="stroke: #000000; stroke-width: 1.0;" x1="1475.5" x2="1570.5" y1="717.5684" y2="717.5684"/><polygon fill="#A80036" points="1513,757.5215,1523,761.5215,1513,765.5215,1517,761.5215" style="stroke: #A80036; stroke-width: 1.0;"/><line style="stroke: #A80036; stroke-width: 1.0;" x1="514.5" x2="1519" y1="761.5215" y2="761.5215"/><text fill="#000000" font-family="sans-serif" font-size="13" lengthAdjust="spacingAndGlyphs" textLength="117" x="521.5" y="757.0898">setSoundFragment</text><polygon fill="#A80036" points="1269,786.832,1279,790.832,1269,794.832,1273,790.832" style="stroke: #A80036; stroke-width: 1.0;"/><line style="stroke: #A80036; stroke-width: 1.0;" x1="514.5" x2="1275" y1="790.832" y2="790.832"/><text fill="#000000" font-family="sans-serif" font-size="13" lengthAdjust="spacingAndGlyphs" textLength="193" x="521.5" y="786.4004">addSoundSource(soundSource)</text><polygon fill="#A80036" points="238.5,816.1426,248.5,820.1426,238.5,824.1426,242.5,820.1426" style="stroke: #A80036; stroke-width: 1.0;"/><line style="stroke: #A80036; stroke-width: 1.0;" x1="51.5" x2="244.5" y1="820.1426" y2="820.1426"/><text fill="#000000" font-family="sans-serif" font-size="13" lengthAdjust="spacingAndGlyphs" textLength="175" x="58.5" y="815.7109">setVSSNameAndDescription</text><polygon fill="#A80036" points="502.5,845.4531,512.5,849.4531,502.5,853.4531,506.5,849.4531" style="stroke: #A80036; stroke-width: 1.0;"/><line style="stroke: #A80036; stroke-width: 1.0;" x1="250.5" x2="508.5" y1="849.4531" y2="849.4531"/><text fill="#000000" font-family="sans-serif" font-size="13" lengthAdjust="spacingAndGlyphs" textLength="175" x="257.5" y="845.0215">setVSSNameAndDescription</text><polygon fill="#A80036" points="1269,874.7637,1279,878.7637,1269,882.7637,1273,878.7637" style="stroke: #A80036; stroke-width: 1.0;"/><line style="stroke: #A80036; stroke-width: 1.0;" x1="514.5" x2="1275" y1="878.7637" y2="878.7637"/><text fill="#000000" font-family="sans-serif" font-size="13" lengthAdjust="spacingAndGlyphs" textLength="175" x="521.5" y="874.332">setVSSNameAndDescription</text><polygon fill="#A80036" points="238.5,904.0742,248.5,908.0742,238.5,912.0742,242.5,908.0742" style="stroke: #A80036; stroke-width: 1.0;"/><line style="stroke: #A80036; stroke-width: 1.0;" x1="51.5" x2="244.5" y1="908.0742" y2="908.0742"/><text fill="#000000" font-family="sans-serif" font-size="13" lengthAdjust="spacingAndGlyphs" textLength="128" x="58.5" y="903.6426">comfirmVSSCreation</text><polygon fill="#A80036" points="502.5,933.3848,512.5,937.3848,502.5,941.3848,506.5,937.3848" style="stroke: #A80036; stroke-width: 1.0;"/><line style="stroke: #A80036; stroke-width: 1.0;" x1="250.5" x2="508.5" y1="937.3848" y2="937.3848"/><text fill="#000000" font-family="sans-serif" font-size="13" lengthAdjust="spacingAndGlyphs" textLength="128" x="257.5" y="932.9531">comfirmVSSCreation</text><polygon fill="#A80036" points="732.5,962.6953,742.5,966.6953,732.5,970.6953,736.5,966.6953" style="stroke: #A80036; stroke-width: 1.0;"/><line style="stroke: #A80036; stroke-width: 1.0;" x1="514.5" x2="738.5" y1="966.6953" y2="966.6953"/><text fill="#000000" font-family="sans-serif" font-size="13" lengthAdjust="spacingAndGlyphs" textLength="206" x="521.5" y="962.2637">addSoundSpace(newSoundSpace)</text><polygon fill="#A80036" points="261.5,992.0059,251.5,996.0059,261.5,1000.0059,257.5,996.0059" style="stroke: #A80036; stroke-width: 1.0;"/><line style="stroke: #A80036; stroke-width: 1.0;" x1="255.5" x2="513.5" y1="996.0059" y2="996.0059"/><text fill="#000000" font-family="sans-serif" font-size="13" lengthAdjust="spacingAndGlyphs" textLength="87" x="267.5" y="991.5742">&lt;&lt;destroy&gt;&gt;</text><line style="stroke: #A80036; stroke-width: 2.0;" x1="241.5" x2="259.5" y1="987.0059" y2="1005.0059"/><line style="stroke: #A80036; stroke-width: 2.0;" x1="241.5" x2="259.5" y1="1005.0059" y2="987.0059"/><line style="stroke: #A80036; stroke-width: 2.0;" x1="505.5" x2="523.5" y1="987.0059" y2="1005.0059"/><line style="stroke: #A80036; stroke-width: 2.0;" x1="505.5" x2="523.5" y1="1005.0059" y2="987.0059"/><!--
@startuml CreateConcertModeVSS
hide footbox
skinparam sequenceParticipant underline


actor User as user
participant ":ConcertVSSCreatePage" as createboundary
participant ":ConcertVSSCreateControl" as createcontrol
participant ":LocalSoundSpaceLibrary" as library
collections "soundSpaces:VirtualSoundSpace" as vsses
participant "newSoundSpace:ConcertModeVirtualSoundSpace" as newspace

create createboundary
-> createboundary: <<create>>
create createcontrol
createboundary -> createcontrol: <<create>>
create newspace
createcontrol -> newspace: <<create>>

loop add virual sound source
    alt add from library
        user -> createboundary: selectExistedSoundSource
        createboundary -> createcontrol: getLocalSoundFragments
        createcontrol -> library: getLocalSoundFragments
        loop for each
            library -> vsses: getSoundSources
            vsses - -> library: soundSources
        end
        library - -> createcontrol: filteredSoundFragments
        createcontrol - -> createboundary: displayAvailableLocalSoundFragments
        user -> createboundary: selectSoundFragment
        createboundary -> createcontrol: addSoundFragment
    else add from file
        user -> createboundary: selectFromFileSystem
        ...somehow MapVSSCreateControl got the new SoundFragment # specify during implementation...
    end


    participant ":SoundSource" as source
    user -> user: wakeUp(self)
    create source
    createcontrol -> source: <<create>>
    createcontrol -> source: setSoundFragment
    createcontrol -> newspace: addSoundSource(soundSource)
    user -> createboundary: setVSSNameAndDescription
    createboundary -> createcontrol: setVSSNameAndDescription
    createcontrol -> newspace: setVSSNameAndDescription
    user -> createboundary: comfirmVSSCreation
    createboundary -> createcontrol: comfirmVSSCreation
    createcontrol -> library: addSoundSpace(newSoundSpace)

    createcontrol -> createboundary: <<destroy>>
    destroy createboundary
    destroy createcontrol


end
@enduml

PlantUML version 1.2018.01(Mon Jan 29 02:08:22 CST 2018)
(GPL source distribution)
Java Runtime: Java(TM) SE Runtime Environment
JVM: Java HotSpot(TM) 64-Bit Server VM
Java Version: 9+181
Operating System: Mac OS X
OS Version: 10.12.6
Default Encoding: UTF-8
Language: zh
Country: CN
--></g></svg>