<?xml version="1.0" encoding="UTF-8" standalone="no"?><svg xmlns="http://www.w3.org/2000/svg" xmlns:xlink="http://www.w3.org/1999/xlink" contentScriptType="application/ecmascript" contentStyleType="text/css" height="1331px" preserveAspectRatio="none" style="width:1692px;height:1331px;" version="1.1" viewBox="0 0 1692 1331"
    width="1692px" zoomAndPan="magnify"><defs><filter height="300%" id="f1l8iowha3h911" width="300%" x="-1" y="-1"><feGaussianBlur result="blurOut" stdDeviation="2.0"/><feColorMatrix in="blurOut" result="blurOut2" type="matrix" values="0 0 0 0 0 0 0 0 0 0 0 0 0 0 0 0 0 0 .4 0"/><feOffset dx="4.0" dy="4.0" in="blurOut2" result="blurOut3"/><feBlend in="SourceGraphic" in2="blurOut3" mode="normal"/></filter></defs><g><rect fill="#FEFECE" filter="url(#f1l8iowha3h911)" height="30.4883" style="stroke: #A80036; stroke-width: 1.5;" width="169" x="454" y="125.7988"/><text fill="#000000" font-family="sans-serif" font-size="14" lengthAdjust="spacingAndGlyphs" text-decoration="underline" textLength="155" x="461" y="146.334">:MapVSSCreateControl</text><line style="stroke: #000000; stroke-width: 1.0;" x1="461" x2="616" y1="148.334" y2="148.334"/><rect fill="#FEFECE" filter="url(#f1l8iowha3h911)" height="30.4883" style="stroke: #A80036; stroke-width: 1.5;" width="326" x="1208.5" y="171.2871"/><text fill="#000000" font-family="sans-serif" font-size="14" lengthAdjust="spacingAndGlyphs" text-decoration="underline" textLength="312" x="1215.5" y="191.8223">newSoundSpace:MapModeVirtualSoundSpace</text><line style="stroke: #000000; stroke-width: 1.0;" x1="1215.5" x2="1527.5" y1="193.8223" y2="193.8223"/><rect fill="#FEFECE" filter="url(#f1l8iowha3h911)" height="30.4883" style="stroke: #A80036; stroke-width: 1.5;" width="65" x="874.5" y="216.7754"/><text fill="#000000" font-family="sans-serif" font-size="14" lengthAdjust="spacingAndGlyphs" text-decoration="underline" textLength="51" x="881.5" y="237.3105">:Sensor</text><line style="stroke: #000000; stroke-width: 1.0;" x1="881.5" x2="932.5" y1="239.3105" y2="239.3105"/><rect fill="#FFFFFF" filter="url(#f1l8iowha3h911)" height="1033.3359" style="stroke: #000000; stroke-width: 2.0;" width="1668.5" x="13" y="269.2637"/><rect fill="#FFFFFF" filter="url(#f1l8iowha3h911)" height="397.6367" style="stroke: #000000; stroke-width: 2.0;" width="1195.5" x="23" y="293.5742"/><rect fill="#FFFFFF" filter="url(#f1l8iowha3h911)" height="75.9316" style="stroke: #000000; stroke-width: 2.0;" width="542" x="666.5" y="405.8164"/><rect fill="#FFFFFF" height="85.2207" style="stroke: none; stroke-width: 1.0;" width="1195.5" x="23" y="605.9902"/><rect fill="#FEFECE" filter="url(#f1l8iowha3h911)" height="30.4883" style="stroke: #A80036; stroke-width: 1.5;" width="109" x="1548.5" y="756.832"/><text fill="#000000" font-family="sans-serif" font-size="14" lengthAdjust="spacingAndGlyphs" text-decoration="underline" textLength="95" x="1555.5" y="777.3672">:SoundSource</text><line style="stroke: #000000; stroke-width: 1.0;" x1="1555.5" x2="1650.5" y1="779.3672" y2="779.3672"/><rect fill="#FFFFFF" filter="url(#f1l8iowha3h911)" height="75.9316" style="stroke: #000000; stroke-width: 2.0;" width="1648.5" x="23" y="867.9414"/><line style="stroke: #A80036; stroke-width: 1.0;" x1="51" x2="51" y1="86.4883" y2="650.2559"/><line style="stroke: #A80036; stroke-width: 1.0; stroke-dasharray: 1.0,4.0;" x1="51" x2="51" y1="650.2559" y2="691.2109"/><line style="stroke: #A80036; stroke-width: 1.0;" x1="51" x2="51" y1="691.2109" y2="1319.5996"/><line style="stroke: #A80036; stroke-width: 1.0;" x1="276.5" x2="276.5" y1="86.4883" y2="650.2559"/><line style="stroke: #A80036; stroke-width: 1.0; stroke-dasharray: 1.0,4.0;" x1="276.5" x2="276.5" y1="650.2559" y2="691.2109"/><line style="stroke: #A80036; stroke-width: 1.0;" x1="276.5" x2="276.5" y1="691.2109" y2="1319.5996"/><line style="stroke: #A80036; stroke-width: 1.0;" x1="540" x2="540" y1="158.543" y2="650.2559"/><line style="stroke: #A80036; stroke-width: 1.0; stroke-dasharray: 1.0,4.0;" x1="540" x2="540" y1="650.2559" y2="691.2109"/><line style="stroke: #A80036; stroke-width: 1.0;" x1="540" x2="540" y1="691.2109" y2="1319.5996"/><line style="stroke: #A80036; stroke-width: 1.0;" x1="770.5" x2="770.5" y1="86.4883" y2="650.2559"/><line style="stroke: #A80036; stroke-width: 1.0; stroke-dasharray: 1.0,4.0;" x1="770.5" x2="770.5" y1="650.2559" y2="691.2109"/><line style="stroke: #A80036; stroke-width: 1.0;" x1="770.5" x2="770.5" y1="691.2109" y2="1319.5996"/><line style="stroke: #A80036; stroke-width: 1.0;" x1="908.5" x2="908.5" y1="249.5195" y2="650.2559"/><line style="stroke: #A80036; stroke-width: 1.0; stroke-dasharray: 1.0,4.0;" x1="908.5" x2="908.5" y1="650.2559" y2="691.2109"/><line style="stroke: #A80036; stroke-width: 1.0;" x1="908.5" x2="908.5" y1="691.2109" y2="1319.5996"/><line style="stroke: #A80036; stroke-width: 1.0;" x1="1075.5" x2="1075.5" y1="86.4883" y2="650.2559"/><line style="stroke: #A80036; stroke-width: 1.0; stroke-dasharray: 1.0,4.0;" x1="1075.5" x2="1075.5" y1="650.2559" y2="691.2109"/><line style="stroke: #A80036; stroke-width: 1.0;" x1="1075.5" x2="1075.5" y1="691.2109" y2="1319.5996"/><line style="stroke: #A80036; stroke-width: 1.0;" x1="1373.5" x2="1373.5" y1="204.0313" y2="650.2559"/><line style="stroke: #A80036; stroke-width: 1.0; stroke-dasharray: 1.0,4.0;" x1="1373.5" x2="1373.5" y1="650.2559" y2="691.2109"/><line style="stroke: #A80036; stroke-width: 1.0;" x1="1373.5" x2="1373.5" y1="691.2109" y2="1319.5996"/><line style="stroke: #A80036; stroke-width: 1.0;" x1="1604.5" x2="1604.5" y1="789.5762" y2="1319.5996"/><text fill="#000000" font-family="sans-serif" font-size="14" lengthAdjust="spacingAndGlyphs" text-decoration="underline" textLength="31" x="33" y="83.5352">User</text><line style="stroke: #000000; stroke-width: 1.0;" x1="33" x2="64" y1="85.5352" y2="85.5352"/><ellipse cx="51.5" cy="13" fill="#FEFECE" filter="url(#f1l8iowha3h911)" rx="8" ry="8" style="stroke: #A80036; stroke-width: 2.0;"/><path d="M51.5,21 L51.5,48 M38.5,29 L64.5,29 M51.5,48 L38.5,63 M51.5,48 L64.5,63 " fill="none" filter="url(#f1l8iowha3h911)" style="stroke: #A80036; stroke-width: 2.0;"/><rect fill="#FEFECE" filter="url(#f1l8iowha3h911)" height="30.4883" style="stroke: #A80036; stroke-width: 1.5;" width="150" x="199.5" y="51"/><text fill="#000000" font-family="sans-serif" font-size="14" lengthAdjust="spacingAndGlyphs" text-decoration="underline" textLength="136" x="206.5" y="71.5352">:MapVSSCreatePage</text><line style="stroke: #000000; stroke-width: 1.0;" x1="206.5" x2="342.5" y1="73.5352" y2="73.5352"/><rect fill="#FEFECE" filter="url(#f1l8iowha3h911)" height="30.4883" style="stroke: #A80036; stroke-width: 1.5;" width="184" x="676.5" y="51"/><text fill="#000000" font-family="sans-serif" font-size="14" lengthAdjust="spacingAndGlyphs" text-decoration="underline" textLength="170" x="683.5" y="71.5352">:LocalSoundSpaceLibrary</text><line style="stroke: #000000; stroke-width: 1.0;" x1="683.5" x2="853.5" y1="73.5352" y2="73.5352"/><rect fill="#FEFECE" filter="url(#f1l8iowha3h911)" height="30.4883" style="stroke: #A80036; stroke-width: 1.5;" width="237" x="957.5" y="47"/><rect fill="#FEFECE" filter="url(#f1l8iowha3h911)" height="30.4883" style="stroke: #A80036; stroke-width: 1.5;" width="237" x="953.5" y="51"/><text fill="#000000" font-family="sans-serif" font-size="14" lengthAdjust="spacingAndGlyphs" text-decoration="underline" textLength="223" x="960.5" y="71.5352">soundSpaces:VirtualSoundSpace</text><line style="stroke: #000000; stroke-width: 1.0;" x1="960.5" x2="1183.5" y1="73.5352" y2="73.5352"/><polygon fill="#A80036" points="264.5,113.4883,274.5,117.4883,264.5,121.4883,268.5,117.4883" style="stroke: #A80036; stroke-width: 1.0;"/><line style="stroke: #A80036; stroke-width: 1.0;" x1="3" x2="270.5" y1="117.4883" y2="117.4883"/><text fill="#000000" font-family="sans-serif" font-size="13" lengthAdjust="spacingAndGlyphs" textLength="78" x="10" y="113.0566">&lt;&lt;create&gt;&gt;</text><polygon fill="#A80036" points="442,142.7988,452,146.7988,442,150.7988,446,146.7988" style="stroke: #A80036; stroke-width: 1.0;"/><line style="stroke: #A80036; stroke-width: 1.0;" x1="276.5" x2="448" y1="146.7988" y2="146.7988"/><text fill="#000000" font-family="sans-serif" font-size="13" lengthAdjust="spacingAndGlyphs" textLength="78" x="283.5" y="142.3672">&lt;&lt;create&gt;&gt;</text><rect fill="#FEFECE" filter="url(#f1l8iowha3h911)" height="30.4883" style="stroke: #A80036; stroke-width: 1.5;" width="169" x="454" y="125.7988"/><text fill="#000000" font-family="sans-serif" font-size="14" lengthAdjust="spacingAndGlyphs" text-decoration="underline" textLength="155" x="461" y="146.334">:MapVSSCreateControl</text><line style="stroke: #000000; stroke-width: 1.0;" x1="461" x2="616" y1="148.334" y2="148.334"/><polygon fill="#A80036" points="1196.5,188.2871,1206.5,192.2871,1196.5,196.2871,1200.5,192.2871" style="stroke: #A80036; stroke-width: 1.0;"/><line style="stroke: #A80036; stroke-width: 1.0;" x1="540.5" x2="1202.5" y1="192.2871" y2="192.2871"/><text fill="#000000" font-family="sans-serif" font-size="13" lengthAdjust="spacingAndGlyphs" textLength="78" x="547.5" y="187.8555">&lt;&lt;create&gt;&gt;</text><rect fill="#FEFECE" filter="url(#f1l8iowha3h911)" height="30.4883" style="stroke: #A80036; stroke-width: 1.5;" width="326" x="1208.5" y="171.2871"/><text fill="#000000" font-family="sans-serif" font-size="14" lengthAdjust="spacingAndGlyphs" text-decoration="underline" textLength="312" x="1215.5" y="191.8223">newSoundSpace:MapModeVirtualSoundSpace</text><line style="stroke: #000000; stroke-width: 1.0;" x1="1215.5" x2="1527.5" y1="193.8223" y2="193.8223"/><polygon fill="#A80036" points="862.5,233.7754,872.5,237.7754,862.5,241.7754,866.5,237.7754" style="stroke: #A80036; stroke-width: 1.0;"/><line style="stroke: #A80036; stroke-width: 1.0;" x1="540.5" x2="868.5" y1="237.7754" y2="237.7754"/><text fill="#000000" font-family="sans-serif" font-size="13" lengthAdjust="spacingAndGlyphs" textLength="78" x="547.5" y="233.3438">&lt;&lt;create&gt;&gt;</text><rect fill="#FEFECE" filter="url(#f1l8iowha3h911)" height="30.4883" style="stroke: #A80036; stroke-width: 1.5;" width="65" x="874.5" y="216.7754"/><text fill="#000000" font-family="sans-serif" font-size="14" lengthAdjust="spacingAndGlyphs" text-decoration="underline" textLength="51" x="881.5" y="237.3105">:Sensor</text><line style="stroke: #000000; stroke-width: 1.0;" x1="881.5" x2="932.5" y1="239.3105" y2="239.3105"/><path d="M13,269.2637 L87,269.2637 L87,276.2637 L77,286.2637 L13,286.2637 L13,269.2637 " fill="#EEEEEE" style="stroke: #000000; stroke-width: 1.0;"/><rect fill="none" height="1033.3359" style="stroke: #000000; stroke-width: 2.0;" width="1668.5" x="13" y="269.2637"/><text fill="#000000" font-family="sans-serif" font-size="13" font-weight="bold" lengthAdjust="spacingAndGlyphs" textLength="29" x="28" y="282.832">loop</text><text fill="#000000" font-family="sans-serif" font-size="11" font-weight="bold" lengthAdjust="spacingAndGlyphs" textLength="144" x="102" y="281.8984">[add virual sound source]</text><path d="M23,293.5742 L85,293.5742 L85,300.5742 L75,310.5742 L23,310.5742 L23,293.5742 " fill="#EEEEEE" style="stroke: #000000; stroke-width: 1.0;"/><rect fill="none" height="397.6367" style="stroke: #000000; stroke-width: 2.0;" width="1195.5" x="23" y="293.5742"/><text fill="#000000" font-family="sans-serif" font-size="13" font-weight="bold" lengthAdjust="spacingAndGlyphs" textLength="17" x="38" y="307.1426">alt</text><text fill="#000000" font-family="sans-serif" font-size="11" font-weight="bold" lengthAdjust="spacingAndGlyphs" textLength="101" x="100" y="306.209">[add from library]</text><polygon fill="#A80036" points="264.5,327.8848,274.5,331.8848,264.5,335.8848,268.5,331.8848" style="stroke: #A80036; stroke-width: 1.0;"/><line style="stroke: #A80036; stroke-width: 1.0;" x1="51.5" x2="270.5" y1="331.8848" y2="331.8848"/><text fill="#000000" font-family="sans-serif" font-size="13" lengthAdjust="spacingAndGlyphs" textLength="164" x="58.5" y="327.4531">selectExistedSoundSource</text><polygon fill="#A80036" points="528.5,357.1953,538.5,361.1953,528.5,365.1953,532.5,361.1953" style="stroke: #A80036; stroke-width: 1.0;"/><line style="stroke: #A80036; stroke-width: 1.0;" x1="276.5" x2="534.5" y1="361.1953" y2="361.1953"/><text fill="#000000" font-family="sans-serif" font-size="13" lengthAdjust="spacingAndGlyphs" textLength="158" x="283.5" y="356.7637">getLocalSoundFragments</text><polygon fill="#A80036" points="758.5,386.5059,768.5,390.5059,758.5,394.5059,762.5,390.5059" style="stroke: #A80036; stroke-width: 1.0;"/><line style="stroke: #A80036; stroke-width: 1.0;" x1="540.5" x2="764.5" y1="390.5059" y2="390.5059"/><text fill="#000000" font-family="sans-serif" font-size="13" lengthAdjust="spacingAndGlyphs" textLength="158" x="547.5" y="386.0742">getLocalSoundFragments</text><path d="M666.5,405.8164 L740.5,405.8164 L740.5,412.8164 L730.5,422.8164 L666.5,422.8164 L666.5,405.8164 " fill="#EEEEEE" style="stroke: #000000; stroke-width: 1.0;"/><rect fill="none" height="75.9316" style="stroke: #000000; stroke-width: 2.0;" width="542" x="666.5" y="405.8164"/><text fill="#000000" font-family="sans-serif" font-size="13" font-weight="bold" lengthAdjust="spacingAndGlyphs" textLength="29" x="681.5" y="419.3848">loop</text><text fill="#000000" font-family="sans-serif" font-size="11" font-weight="bold" lengthAdjust="spacingAndGlyphs" textLength="54" x="755.5" y="418.4512">[for each]</text><polygon fill="#A80036" points="1064,440.127,1074,444.127,1064,448.127,1068,444.127" style="stroke: #A80036; stroke-width: 1.0;"/><line style="stroke: #A80036; stroke-width: 1.0;" x1="770.5" x2="1070" y1="444.127" y2="444.127"/><text fill="#000000" font-family="sans-serif" font-size="13" lengthAdjust="spacingAndGlyphs" textLength="108" x="777.5" y="439.6953">getSoundSources</text><polygon fill="#A80036" points="781.5,469.4375,771.5,473.4375,781.5,477.4375,777.5,473.4375" style="stroke: #A80036; stroke-width: 1.0;"/><line style="stroke: #A80036; stroke-width: 1.0; stroke-dasharray: 2.0,2.0;" x1="775.5" x2="1075" y1="473.4375" y2="473.4375"/><text fill="#000000" font-family="sans-serif" font-size="13" lengthAdjust="spacingAndGlyphs" textLength="88" x="787.5" y="469.0059">soundSources</text><polygon fill="#A80036" points="551.5,505.748,541.5,509.748,551.5,513.748,547.5,509.748" style="stroke: #A80036; stroke-width: 1.0;"/><line style="stroke: #A80036; stroke-width: 1.0; stroke-dasharray: 2.0,2.0;" x1="545.5" x2="769.5" y1="509.748" y2="509.748"/><text fill="#000000" font-family="sans-serif" font-size="13" lengthAdjust="spacingAndGlyphs" textLength="150" x="557.5" y="505.3164">filteredSoundFragments</text><polygon fill="#A80036" points="287.5,535.0586,277.5,539.0586,287.5,543.0586,283.5,539.0586" style="stroke: #A80036; stroke-width: 1.0;"/><line style="stroke: #A80036; stroke-width: 1.0; stroke-dasharray: 2.0,2.0;" x1="281.5" x2="539.5" y1="539.0586" y2="539.0586"/><text fill="#000000" font-family="sans-serif" font-size="13" lengthAdjust="spacingAndGlyphs" textLength="240" x="293.5" y="534.627">displayAvailableLocalSoundFragments</text><polygon fill="#A80036" points="264.5,564.3691,274.5,568.3691,264.5,572.3691,268.5,568.3691" style="stroke: #A80036; stroke-width: 1.0;"/><line style="stroke: #A80036; stroke-width: 1.0;" x1="51.5" x2="270.5" y1="568.3691" y2="568.3691"/><text fill="#000000" font-family="sans-serif" font-size="13" lengthAdjust="spacingAndGlyphs" textLength="135" x="58.5" y="563.9375">selectSoundFragment</text><polygon fill="#A80036" points="528.5,593.6797,538.5,597.6797,528.5,601.6797,532.5,597.6797" style="stroke: #A80036; stroke-width: 1.0;"/><line style="stroke: #A80036; stroke-width: 1.0;" x1="276.5" x2="534.5" y1="597.6797" y2="597.6797"/><text fill="#000000" font-family="sans-serif" font-size="13" lengthAdjust="spacingAndGlyphs" textLength="121" x="283.5" y="593.248">addSoundFragment</text><line style="stroke: #000000; stroke-width: 1.0; stroke-dasharray: 2.0,2.0;" x1="23" x2="1218.5" y1="606.9902" y2="606.9902"/><text fill="#000000" font-family="sans-serif" font-size="11" font-weight="bold" lengthAdjust="spacingAndGlyphs" textLength="83" x="28" y="617.625">[add from file]</text><polygon fill="#A80036" points="264.5,637.9453,274.5,641.9453,264.5,645.9453,268.5,641.9453" style="stroke: #A80036; stroke-width: 1.0;"/><line style="stroke: #A80036; stroke-width: 1.0;" x1="51.5" x2="270.5" y1="641.9453" y2="641.9453"/><text fill="#000000" font-family="sans-serif" font-size="13" lengthAdjust="spacingAndGlyphs" textLength="136" x="58.5" y="637.5137">selectFromFileSystem</text><text fill="#000000" font-family="sans-serif" font-size="11" lengthAdjust="spacingAndGlyphs" textLength="500" x="578.25" y="674.8906">somehow MapVSSCreateControl got the new SoundFragment # specify during implementation</text><polygon fill="#A80036" points="897,715.2109,907,719.2109,897,723.2109,901,719.2109" style="stroke: #A80036; stroke-width: 1.0;"/><line style="stroke: #A80036; stroke-width: 1.0;" x1="540.5" x2="903" y1="719.2109" y2="719.2109"/><text fill="#000000" font-family="sans-serif" font-size="13" lengthAdjust="spacingAndGlyphs" textLength="121" x="547.5" y="714.7793">getCurrentLocation</text><polygon fill="#A80036" points="551.5,744.5215,541.5,748.5215,551.5,752.5215,547.5,748.5215" style="stroke: #A80036; stroke-width: 1.0;"/><line style="stroke: #A80036; stroke-width: 1.0; stroke-dasharray: 2.0,2.0;" x1="545.5" x2="908" y1="748.5215" y2="748.5215"/><text fill="#000000" font-family="sans-serif" font-size="13" lengthAdjust="spacingAndGlyphs" textLength="99" x="557.5" y="744.0898">currentLocation</text><polygon fill="#A80036" points="1536.5,773.832,1546.5,777.832,1536.5,781.832,1540.5,777.832" style="stroke: #A80036; stroke-width: 1.0;"/><line style="stroke: #A80036; stroke-width: 1.0;" x1="540.5" x2="1542.5" y1="777.832" y2="777.832"/><text fill="#000000" font-family="sans-serif" font-size="13" lengthAdjust="spacingAndGlyphs" textLength="78" x="547.5" y="773.4004">&lt;&lt;create&gt;&gt;</text><rect fill="#FEFECE" filter="url(#f1l8iowha3h911)" height="30.4883" style="stroke: #A80036; stroke-width: 1.5;" width="109" x="1548.5" y="756.832"/><text fill="#000000" font-family="sans-serif" font-size="14" lengthAdjust="spacingAndGlyphs" text-decoration="underline" textLength="95" x="1555.5" y="777.3672">:SoundSource</text><line style="stroke: #000000; stroke-width: 1.0;" x1="1555.5" x2="1650.5" y1="779.3672" y2="779.3672"/><polygon fill="#A80036" points="1593,819.3203,1603,823.3203,1593,827.3203,1597,823.3203" style="stroke: #A80036; stroke-width: 1.0;"/><line style="stroke: #A80036; stroke-width: 1.0;" x1="540.5" x2="1599" y1="823.3203" y2="823.3203"/><text fill="#000000" font-family="sans-serif" font-size="13" lengthAdjust="spacingAndGlyphs" textLength="117" x="547.5" y="818.8887">setSoundFragment</text><polygon fill="#A80036" points="1593,848.6309,1603,852.6309,1593,856.6309,1597,852.6309" style="stroke: #A80036; stroke-width: 1.0;"/><line style="stroke: #A80036; stroke-width: 1.0;" x1="540.5" x2="1599" y1="852.6309" y2="852.6309"/><text fill="#000000" font-family="sans-serif" font-size="13" lengthAdjust="spacingAndGlyphs" textLength="73" x="547.5" y="848.1992">setLocation</text><path d="M23,867.9414 L85,867.9414 L85,874.9414 L75,884.9414 L23,884.9414 L23,867.9414 " fill="#EEEEEE" style="stroke: #000000; stroke-width: 1.0;"/><rect fill="none" height="75.9316" style="stroke: #000000; stroke-width: 2.0;" width="1648.5" x="23" y="867.9414"/><text fill="#000000" font-family="sans-serif" font-size="13" font-weight="bold" lengthAdjust="spacingAndGlyphs" textLength="17" x="38" y="881.5098">alt</text><text fill="#000000" font-family="sans-serif" font-size="11" font-weight="bold" lengthAdjust="spacingAndGlyphs" textLength="169" x="100" y="880.5762">[user choose to alter position]</text><polygon fill="#A80036" points="264.5,902.252,274.5,906.252,264.5,910.252,268.5,906.252" style="stroke: #A80036; stroke-width: 1.0;"/><line style="stroke: #A80036; stroke-width: 1.0;" x1="51.5" x2="270.5" y1="906.252" y2="906.252"/><text fill="#000000" font-family="sans-serif" font-size="13" lengthAdjust="spacingAndGlyphs" textLength="201" x="58.5" y="901.8203">setCurrentSoundSourceLocation</text><polygon fill="#A80036" points="1593,931.5625,1603,935.5625,1593,939.5625,1597,935.5625" style="stroke: #A80036; stroke-width: 1.0;"/><line style="stroke: #A80036; stroke-width: 1.0;" x1="276.5" x2="1599" y1="935.5625" y2="935.5625"/><text fill="#000000" font-family="sans-serif" font-size="13" lengthAdjust="spacingAndGlyphs" textLength="73" x="283.5" y="931.1309">setLocation</text><polygon fill="#A80036" points="264.5,967.873,274.5,971.873,264.5,975.873,268.5,971.873" style="stroke: #A80036; stroke-width: 1.0;"/><line style="stroke: #A80036; stroke-width: 1.0;" x1="51.5" x2="270.5" y1="971.873" y2="971.873"/><text fill="#000000" font-family="sans-serif" font-size="13" lengthAdjust="spacingAndGlyphs" textLength="134" x="58.5" y="967.4414">setSoundSourceMode</text><polygon fill="#A80036" points="528.5,997.1836,538.5,1001.1836,528.5,1005.1836,532.5,1001.1836" style="stroke: #A80036; stroke-width: 1.0;"/><line style="stroke: #A80036; stroke-width: 1.0;" x1="276.5" x2="534.5" y1="1001.1836" y2="1001.1836"/><text fill="#000000" font-family="sans-serif" font-size="13" lengthAdjust="spacingAndGlyphs" textLength="134" x="283.5" y="996.752">setSoundSourceMode</text><polygon fill="#A80036" points="1593,1026.4941,1603,1030.4941,1593,1034.4941,1597,1030.4941" style="stroke: #A80036; stroke-width: 1.0;"/><line style="stroke: #A80036; stroke-width: 1.0;" x1="540.5" x2="1599" y1="1030.4941" y2="1030.4941"/><text fill="#000000" font-family="sans-serif" font-size="13" lengthAdjust="spacingAndGlyphs" textLength="134" x="547.5" y="1026.0625">setSoundSourceMode</text><polygon fill="#A80036" points="1361.5,1055.8047,1371.5,1059.8047,1361.5,1063.8047,1365.5,1059.8047" style="stroke: #A80036; stroke-width: 1.0;"/><line style="stroke: #A80036; stroke-width: 1.0;" x1="540.5" x2="1367.5" y1="1059.8047" y2="1059.8047"/><text fill="#000000" font-family="sans-serif" font-size="13" lengthAdjust="spacingAndGlyphs" textLength="193" x="547.5" y="1055.373">addSoundSource(soundSource)</text><polygon fill="#A80036" points="264.5,1085.1152,274.5,1089.1152,264.5,1093.1152,268.5,1089.1152" style="stroke: #A80036; stroke-width: 1.0;"/><line style="stroke: #A80036; stroke-width: 1.0;" x1="51.5" x2="270.5" y1="1089.1152" y2="1089.1152"/><text fill="#000000" font-family="sans-serif" font-size="13" lengthAdjust="spacingAndGlyphs" textLength="175" x="58.5" y="1084.6836">setVSSNameAndDescription</text><polygon fill="#A80036" points="528.5,1114.4258,538.5,1118.4258,528.5,1122.4258,532.5,1118.4258" style="stroke: #A80036; stroke-width: 1.0;"/><line style="stroke: #A80036; stroke-width: 1.0;" x1="276.5" x2="534.5" y1="1118.4258" y2="1118.4258"/><text fill="#000000" font-family="sans-serif" font-size="13" lengthAdjust="spacingAndGlyphs" textLength="175" x="283.5" y="1113.9941">setVSSNameAndDescription</text><polygon fill="#A80036" points="1361.5,1143.7363,1371.5,1147.7363,1361.5,1151.7363,1365.5,1147.7363" style="stroke: #A80036; stroke-width: 1.0;"/><line style="stroke: #A80036; stroke-width: 1.0;" x1="540.5" x2="1367.5" y1="1147.7363" y2="1147.7363"/><text fill="#000000" font-family="sans-serif" font-size="13" lengthAdjust="spacingAndGlyphs" textLength="175" x="547.5" y="1143.3047">setVSSNameAndDescription</text><polygon fill="#A80036" points="264.5,1173.0469,274.5,1177.0469,264.5,1181.0469,268.5,1177.0469" style="stroke: #A80036; stroke-width: 1.0;"/><line style="stroke: #A80036; stroke-width: 1.0;" x1="51.5" x2="270.5" y1="1177.0469" y2="1177.0469"/><text fill="#000000" font-family="sans-serif" font-size="13" lengthAdjust="spacingAndGlyphs" textLength="128" x="58.5" y="1172.6152">comfirmVSSCreation</text><polygon fill="#A80036" points="528.5,1202.3574,538.5,1206.3574,528.5,1210.3574,532.5,1206.3574" style="stroke: #A80036; stroke-width: 1.0;"/><line style="stroke: #A80036; stroke-width: 1.0;" x1="276.5" x2="534.5" y1="1206.3574" y2="1206.3574"/><text fill="#000000" font-family="sans-serif" font-size="13" lengthAdjust="spacingAndGlyphs" textLength="128" x="283.5" y="1201.9258">comfirmVSSCreation</text><polygon fill="#A80036" points="758.5,1231.668,768.5,1235.668,758.5,1239.668,762.5,1235.668" style="stroke: #A80036; stroke-width: 1.0;"/><line style="stroke: #A80036; stroke-width: 1.0;" x1="540.5" x2="764.5" y1="1235.668" y2="1235.668"/><text fill="#000000" font-family="sans-serif" font-size="13" lengthAdjust="spacingAndGlyphs" textLength="206" x="547.5" y="1231.2363">addSoundSpace(newSoundSpace)</text><polygon fill="#A80036" points="287.5,1260.9785,277.5,1264.9785,287.5,1268.9785,283.5,1264.9785" style="stroke: #A80036; stroke-width: 1.0;"/><line style="stroke: #A80036; stroke-width: 1.0;" x1="281.5" x2="539.5" y1="1264.9785" y2="1264.9785"/><text fill="#000000" font-family="sans-serif" font-size="13" lengthAdjust="spacingAndGlyphs" textLength="87" x="293.5" y="1260.5469">&lt;&lt;destroy&gt;&gt;</text><line style="stroke: #A80036; stroke-width: 2.0;" x1="267.5" x2="285.5" y1="1255.9785" y2="1273.9785"/><line style="stroke: #A80036; stroke-width: 2.0;" x1="267.5" x2="285.5" y1="1273.9785" y2="1255.9785"/><polygon fill="#A80036" points="897,1290.2891,907,1294.2891,897,1298.2891,901,1294.2891" style="stroke: #A80036; stroke-width: 1.0;"/><line style="stroke: #A80036; stroke-width: 1.0;" x1="540.5" x2="903" y1="1294.2891" y2="1294.2891"/><text fill="#000000" font-family="sans-serif" font-size="13" lengthAdjust="spacingAndGlyphs" textLength="87" x="547.5" y="1289.8574">&lt;&lt;destroy&gt;&gt;</text><line style="stroke: #A80036; stroke-width: 2.0;" x1="900" x2="918" y1="1285.2891" y2="1303.2891"/><line style="stroke: #A80036; stroke-width: 2.0;" x1="900" x2="918" y1="1303.2891" y2="1285.2891"/><line style="stroke: #A80036; stroke-width: 2.0;" x1="531.5" x2="549.5" y1="1285.2891" y2="1303.2891"/><line style="stroke: #A80036; stroke-width: 2.0;" x1="531.5" x2="549.5" y1="1303.2891" y2="1285.2891"/><!--
@startuml CreateMapModeVSS
hide footbox
skinparam sequenceParticipant underline


actor User as user
participant ":MapVSSCreatePage" as createboundary
participant ":MapVSSCreateControl" as createcontrol
participant ":LocalSoundSpaceLibrary" as library
participant ":Sensor" as sensor
collections "soundSpaces:VirtualSoundSpace" as vsses
participant "newSoundSpace:MapModeVirtualSoundSpace" as newspace


[-> createboundary: <<create>>
create createcontrol
createboundary -> createcontrol: <<create>>
create newspace
createcontrol -> newspace: <<create>>
create sensor
createcontrol -> sensor: <<create>>
loop add virual sound source
    alt add from library
        user -> createboundary: selectExistedSoundSource
        createboundary -> createcontrol: getLocalSoundFragments
        createcontrol -> library: getLocalSoundFragments
        loop for each
            library -> vsses: getSoundSources
            vsses - -> library: soundSources
        end
        library - -> createcontrol: filteredSoundFragments
        createcontrol - -> createboundary: displayAvailableLocalSoundFragments
        user -> createboundary: selectSoundFragment
        createboundary -> createcontrol: addSoundFragment
    else add from file
        user -> createboundary: selectFromFileSystem
        ...somehow MapVSSCreateControl got the new SoundFragment # specify during implementation...

    end

    createcontrol -> sensor: getCurrentLocation
    sensor - -> createcontrol: currentLocation

    participant ":SoundSource" as source
    create source
    createcontrol -> source: <<create>>
    createcontrol -> source: setSoundFragment
    createcontrol -> source: setLocation

    alt user choose to alter position
        user -> createboundary: setCurrentSoundSourceLocation
        createboundary -> source: setLocation
    end
    user -> createboundary: setSoundSourceMode
    createboundary -> createcontrol: setSoundSourceMode
    createcontrol -> source: setSoundSourceMode
    createcontrol -> newspace: addSoundSource(soundSource)
    user -> createboundary: setVSSNameAndDescription
    createboundary -> createcontrol: setVSSNameAndDescription
    createcontrol -> newspace: setVSSNameAndDescription
    user -> createboundary: comfirmVSSCreation
    createboundary -> createcontrol: comfirmVSSCreation
    createcontrol -> library: addSoundSpace(newSoundSpace)
    createcontrol -> createboundary: <<destroy>>
    destroy createboundary
    createcontrol -> sensor: <<destroy>>
    destroy sensor
    destroy createcontrol


end
@enduml

PlantUML version 1.2018.01(Mon Jan 29 02:08:22 CST 2018)
(GPL source distribution)
Java Runtime: Java(TM) SE Runtime Environment
JVM: Java HotSpot(TM) 64-Bit Server VM
Java Version: 9+181
Operating System: Mac OS X
OS Version: 10.12.6
Default Encoding: UTF-8
Language: zh
Country: CN
--></g></svg>