<?xml version="1.0" encoding="UTF-8" standalone="no"?><svg xmlns="http://www.w3.org/2000/svg" xmlns:xlink="http://www.w3.org/1999/xlink" contentScriptType="application/ecmascript" contentStyleType="text/css" height="235px" preserveAspectRatio="none" style="width:887px;height:235px;" version="1.1" viewBox="0 0 887 235"
    width="887px" zoomAndPan="magnify"><defs><filter height="300%" id="f13r7tzz3oed5r" width="300%" x="-1" y="-1"><feGaussianBlur result="blurOut" stdDeviation="2.0"/><feColorMatrix in="blurOut" result="blurOut2" type="matrix" values="0 0 0 0 0 0 0 0 0 0 0 0 0 0 0 0 0 0 .4 0"/><feOffset dx="4.0" dy="4.0" in="blurOut2" result="blurOut3"/><feBlend in="SourceGraphic" in2="blurOut3" mode="normal"/></filter></defs><g><line style="stroke: #A80036; stroke-width: 1.0; stroke-dasharray: 5.0,5.0;" x1="26" x2="26" y1="86.4883" y2="223.7305"/><line style="stroke: #A80036; stroke-width: 1.0; stroke-dasharray: 5.0,5.0;" x1="177" x2="177" y1="86.4883" y2="223.7305"/><line style="stroke: #A80036; stroke-width: 1.0; stroke-dasharray: 5.0,5.0;" x1="365" x2="365" y1="86.4883" y2="223.7305"/><line style="stroke: #A80036; stroke-width: 1.0; stroke-dasharray: 5.0,5.0;" x1="574" x2="574" y1="86.4883" y2="223.7305"/><line style="stroke: #A80036; stroke-width: 1.0; stroke-dasharray: 5.0,5.0;" x1="786" x2="786" y1="86.4883" y2="223.7305"/><text fill="#000000" font-family="sans-serif" font-size="14" lengthAdjust="spacingAndGlyphs" text-decoration="underline" textLength="31" x="8" y="83.5352">User</text><line style="stroke: #000000; stroke-width: 1.0;" x1="8" x2="39" y1="85.5352" y2="85.5352"/><ellipse cx="26.5" cy="13" fill="#FEFECE" filter="url(#f13r7tzz3oed5r)" rx="8" ry="8" style="stroke: #A80036; stroke-width: 2.0;"/><path d="M26.5,21 L26.5,48 M13.5,29 L39.5,29 M26.5,48 L13.5,63 M26.5,48 L39.5,63 " fill="none" filter="url(#f13r7tzz3oed5r)" style="stroke: #A80036; stroke-width: 2.0;"/><rect fill="#FEFECE" filter="url(#f13r7tzz3oed5r)" height="30.4883" style="stroke: #A80036; stroke-width: 1.5;" width="171" x="90" y="51"/><text fill="#000000" font-family="sans-serif" font-size="14" lengthAdjust="spacingAndGlyphs" text-decoration="underline" textLength="157" x="97" y="71.5352">:LocalVSSManagerPage</text><line style="stroke: #000000; stroke-width: 1.0;" x1="97" x2="254" y1="73.5352" y2="73.5352"/><rect fill="#FEFECE" filter="url(#f13r7tzz3oed5r)" height="30.4883" style="stroke: #A80036; stroke-width: 1.5;" width="177" x="275" y="51"/><text fill="#000000" font-family="sans-serif" font-size="14" lengthAdjust="spacingAndGlyphs" text-decoration="underline" textLength="163" x="282" y="71.5352">:LocalVSSLibraryControl</text><line style="stroke: #000000; stroke-width: 1.0;" x1="282" x2="445" y1="73.5352" y2="73.5352"/><rect fill="#FEFECE" filter="url(#f13r7tzz3oed5r)" height="30.4883" style="stroke: #A80036; stroke-width: 1.5;" width="212" x="466" y="51"/><text fill="#000000" font-family="sans-serif" font-size="14" lengthAdjust="spacingAndGlyphs" text-decoration="underline" textLength="198" x="473" y="71.5352">whichVSS:VirtualSoundSpace</text><line style="stroke: #000000; stroke-width: 1.0;" x1="473" x2="671" y1="73.5352" y2="73.5352"/><rect fill="#FEFECE" filter="url(#f13r7tzz3oed5r)" height="30.4883" style="stroke: #A80036; stroke-width: 1.5;" width="184" x="692" y="51"/><text fill="#000000" font-family="sans-serif" font-size="14" lengthAdjust="spacingAndGlyphs" text-decoration="underline" textLength="170" x="699" y="71.5352">:LocalSoundSpaceLibrary</text><line style="stroke: #000000; stroke-width: 1.0;" x1="699" x2="869" y1="73.5352" y2="73.5352"/><polygon fill="#A80036" points="165.5,113.4883,175.5,117.4883,165.5,121.4883,169.5,117.4883" style="stroke: #A80036; stroke-width: 1.0;"/><line style="stroke: #A80036; stroke-width: 1.0;" x1="26.5" x2="171.5" y1="117.4883" y2="117.4883"/><text fill="#000000" font-family="sans-serif" font-size="13" lengthAdjust="spacingAndGlyphs" textLength="127" x="33.5" y="113.0566">deleteVSS(whichVSS)</text><polygon fill="#A80036" points="353.5,142.7988,363.5,146.7988,353.5,150.7988,357.5,146.7988" style="stroke: #A80036; stroke-width: 1.0;"/><line style="stroke: #A80036; stroke-width: 1.0;" x1="177.5" x2="359.5" y1="146.7988" y2="146.7988"/><text fill="#000000" font-family="sans-serif" font-size="13" lengthAdjust="spacingAndGlyphs" textLength="127" x="184.5" y="142.3672">deleteVSS(whichVSS)</text><polygon fill="#A80036" points="562,172.1094,572,176.1094,562,180.1094,566,176.1094" style="stroke: #A80036; stroke-width: 1.0;"/><line style="stroke: #A80036; stroke-width: 1.0;" x1="365.5" x2="568" y1="176.1094" y2="176.1094"/><text fill="#000000" font-family="sans-serif" font-size="13" lengthAdjust="spacingAndGlyphs" textLength="47" x="372.5" y="171.6777">destroy</text><polygon fill="#A80036" points="774,201.4199,784,205.4199,774,209.4199,778,205.4199" style="stroke: #A80036; stroke-width: 1.0;"/><line style="stroke: #A80036; stroke-width: 1.0;" x1="574" x2="780" y1="205.4199" y2="205.4199"/><text fill="#000000" font-family="sans-serif" font-size="13" lengthAdjust="spacingAndGlyphs" textLength="95" x="581" y="200.9883">unregister(self)</text><line style="stroke: #A80036; stroke-width: 2.0;" x1="565" x2="583" y1="196.4199" y2="214.4199"/><line style="stroke: #A80036; stroke-width: 2.0;" x1="565" x2="583" y1="214.4199" y2="196.4199"/><!--
@startuml DeleteVSS
hide footbox
skinparam sequenceParticipant underline

actor User as user
participant ":LocalVSSManagerPage" as page
participant ":LocalVSSLibraryControl" as control
participant "whichVSS:VirtualSoundSpace" as vss
participant ":LocalSoundSpaceLibrary" as library

user -> page: deleteVSS(whichVSS)
page -> control: deleteVSS(whichVSS)

control -> vss: destroy
vss -> library: unregister(self)
destroy vss

@enduml

PlantUML version 1.2018.01(Mon Jan 29 02:08:22 CST 2018)
(GPL source distribution)
Java Runtime: Java(TM) SE Runtime Environment
JVM: Java HotSpot(TM) 64-Bit Server VM
Java Version: 9+181
Operating System: Mac OS X
OS Version: 10.12.6
Default Encoding: UTF-8
Language: zh
Country: CN
--></g></svg>