<?xml version="1.0" encoding="UTF-8" standalone="no"?><svg xmlns="http://www.w3.org/2000/svg" xmlns:xlink="http://www.w3.org/1999/xlink" contentScriptType="application/ecmascript" contentStyleType="text/css" height="310px" preserveAspectRatio="none" style="width:759px;height:310px;" version="1.1" viewBox="0 0 759 310"
    width="759px" zoomAndPan="magnify"><defs><filter height="300%" id="f1gho79fvjxsha" width="300%" x="-1" y="-1"><feGaussianBlur result="blurOut" stdDeviation="2.0"/><feColorMatrix in="blurOut" result="blurOut2" type="matrix" values="0 0 0 0 0 0 0 0 0 0 0 0 0 0 0 0 0 0 .4 0"/><feOffset dx="4.0" dy="4.0" in="blurOut2" result="blurOut3"/><feBlend in="SourceGraphic" in2="blurOut3" mode="normal"/></filter></defs><g><rect fill="#FEFECE" filter="url(#f1gho79fvjxsha)" height="30.4883" style="stroke: #A80036; stroke-width: 1.5;" width="45" x="703.5" y="243.041"/><text fill="#000000" font-family="sans-serif" font-size="14" lengthAdjust="spacingAndGlyphs" text-decoration="underline" textLength="31" x="710.5" y="263.5762">:Like</text><line style="stroke: #000000; stroke-width: 1.0;" x1="710.5" x2="741.5" y1="265.5762" y2="265.5762"/><line style="stroke: #A80036; stroke-width: 1.0; stroke-dasharray: 5.0,5.0;" x1="26" x2="26" y1="86.4883" y2="298.5293"/><line style="stroke: #A80036; stroke-width: 1.0; stroke-dasharray: 5.0,5.0;" x1="141" x2="141" y1="86.4883" y2="298.5293"/><line style="stroke: #A80036; stroke-width: 1.0; stroke-dasharray: 5.0,5.0;" x1="334" x2="334" y1="86.4883" y2="298.5293"/><line style="stroke: #A80036; stroke-width: 1.0; stroke-dasharray: 5.0,5.0;" x1="506" x2="506" y1="86.4883" y2="298.5293"/><line style="stroke: #A80036; stroke-width: 1.0; stroke-dasharray: 5.0,5.0;" x1="601" x2="601" y1="86.4883" y2="298.5293"/><line style="stroke: #A80036; stroke-width: 1.0; stroke-dasharray: 5.0,5.0;" x1="727.5" x2="727.5" y1="275.7852" y2="298.5293"/><text fill="#000000" font-family="sans-serif" font-size="14" lengthAdjust="spacingAndGlyphs" text-decoration="underline" textLength="31" x="8" y="83.5352">User</text><line style="stroke: #000000; stroke-width: 1.0;" x1="8" x2="39" y1="85.5352" y2="85.5352"/><ellipse cx="26.5" cy="13" fill="#FEFECE" filter="url(#f1gho79fvjxsha)" rx="8" ry="8" style="stroke: #A80036; stroke-width: 2.0;"/><path d="M26.5,21 L26.5,48 M13.5,29 L39.5,29 M26.5,48 L13.5,63 M26.5,48 L39.5,63 " fill="none" filter="url(#f1gho79fvjxsha)" style="stroke: #A80036; stroke-width: 2.0;"/><rect fill="#FEFECE" filter="url(#f1gho79fvjxsha)" height="30.4883" style="stroke: #A80036; stroke-width: 1.5;" width="169" x="55" y="51"/><text fill="#000000" font-family="sans-serif" font-size="14" lengthAdjust="spacingAndGlyphs" text-decoration="underline" textLength="155" x="62" y="71.5352">:PreviewOnline***Page</text><line style="stroke: #000000; stroke-width: 1.0;" x1="62" x2="217" y1="73.5352" y2="73.5352"/><rect fill="#FEFECE" filter="url(#f1gho79fvjxsha)" height="30.4883" style="stroke: #A80036; stroke-width: 1.5;" width="188" x="238" y="51"/><text fill="#000000" font-family="sans-serif" font-size="14" lengthAdjust="spacingAndGlyphs" text-decoration="underline" textLength="174" x="245" y="71.5352">:PreviewOnline***Control</text><line style="stroke: #000000; stroke-width: 1.0;" x1="245" x2="419" y1="73.5352" y2="73.5352"/><rect fill="#FEFECE" filter="url(#f1gho79fvjxsha)" height="30.4883" style="stroke: #A80036; stroke-width: 1.5;" width="128" x="440" y="51"/><text fill="#000000" font-family="sans-serif" font-size="14" lengthAdjust="spacingAndGlyphs" text-decoration="underline" textLength="114" x="447" y="71.5352">:UserInfoControl</text><line style="stroke: #000000; stroke-width: 1.0;" x1="447" x2="561" y1="73.5352" y2="73.5352"/><rect fill="#FEFECE" filter="url(#f1gho79fvjxsha)" height="30.4883" style="stroke: #A80036; stroke-width: 1.5;" width="35" x="582" y="51"/><text fill="#000000" font-family="sans-serif" font-size="14" lengthAdjust="spacingAndGlyphs" text-decoration="underline" textLength="21" x="589" y="71.5352">vss</text><line style="stroke: #000000; stroke-width: 1.0;" x1="589" x2="610" y1="73.5352" y2="73.5352"/><polygon fill="#A80036" points="129.5,113.4883,139.5,117.4883,129.5,121.4883,133.5,117.4883" style="stroke: #A80036; stroke-width: 1.0;"/><line style="stroke: #A80036; stroke-width: 1.0;" x1="26.5" x2="135.5" y1="117.4883" y2="117.4883"/><text fill="#000000" font-family="sans-serif" font-size="13" lengthAdjust="spacingAndGlyphs" textLength="45" x="33.5" y="113.0566">likeVSS</text><polygon fill="#A80036" points="322,142.7988,332,146.7988,322,150.7988,326,146.7988" style="stroke: #A80036; stroke-width: 1.0;"/><line style="stroke: #A80036; stroke-width: 1.0;" x1="141.5" x2="328" y1="146.7988" y2="146.7988"/><text fill="#000000" font-family="sans-serif" font-size="13" lengthAdjust="spacingAndGlyphs" textLength="45" x="148.5" y="142.3672">likeVSS</text><polygon fill="#A80036" points="494,172.1094,504,176.1094,494,180.1094,498,176.1094" style="stroke: #A80036; stroke-width: 1.0;"/><line style="stroke: #A80036; stroke-width: 1.0;" x1="334" x2="500" y1="176.1094" y2="176.1094"/><text fill="#000000" font-family="sans-serif" font-size="13" lengthAdjust="spacingAndGlyphs" textLength="117" x="341" y="171.6777">getCurrentUserID()</text><polygon fill="#A80036" points="345,201.4199,335,205.4199,345,209.4199,341,205.4199" style="stroke: #A80036; stroke-width: 1.0;"/><line style="stroke: #A80036; stroke-width: 1.0; stroke-dasharray: 2.0,2.0;" x1="339" x2="505" y1="205.4199" y2="205.4199"/><text fill="#000000" font-family="sans-serif" font-size="13" lengthAdjust="spacingAndGlyphs" textLength="87" x="351" y="200.9883">currentUserID</text><polygon fill="#A80036" points="589.5,230.7305,599.5,234.7305,589.5,238.7305,593.5,234.7305" style="stroke: #A80036; stroke-width: 1.0;"/><line style="stroke: #A80036; stroke-width: 1.0;" x1="334" x2="595.5" y1="234.7305" y2="234.7305"/><text fill="#000000" font-family="sans-serif" font-size="13" lengthAdjust="spacingAndGlyphs" textLength="140" x="341" y="230.2988">likedBy(currentUserID)</text><polygon fill="#A80036" points="691.5,260.041,701.5,264.041,691.5,268.041,695.5,264.041" style="stroke: #A80036; stroke-width: 1.0;"/><line style="stroke: #A80036; stroke-width: 1.0;" x1="601.5" x2="697.5" y1="264.041" y2="264.041"/><text fill="#000000" font-family="sans-serif" font-size="13" lengthAdjust="spacingAndGlyphs" textLength="78" x="608.5" y="259.6094">&lt;&lt;create&gt;&gt;</text><rect fill="#FEFECE" filter="url(#f1gho79fvjxsha)" height="30.4883" style="stroke: #A80036; stroke-width: 1.5;" width="45" x="703.5" y="243.041"/><text fill="#000000" font-family="sans-serif" font-size="14" lengthAdjust="spacingAndGlyphs" text-decoration="underline" textLength="31" x="710.5" y="263.5762">:Like</text><line style="stroke: #000000; stroke-width: 1.0;" x1="710.5" x2="741.5" y1="265.5762" y2="265.5762"/><!--
@startuml LikeVSS
hide footbox
skinparam sequenceParticipant underline
actor User as user
participant ":PreviewOnline***Page" as page
participant ":PreviewOnline***Control" as control
participant ":UserInfoControl" as info

user -> page: likeVSS
page -> control: likeVSS
control -> info: getCurrentUserID()
info - -> control: currentUserID
control -> vss: likedBy(currentUserID)
participant ":Like" as like
create like
vss -> like: <<create>>

@enduml

PlantUML version 1.2018.01(Mon Jan 29 02:08:22 CST 2018)
(GPL source distribution)
Java Runtime: Java(TM) SE Runtime Environment
JVM: Java HotSpot(TM) 64-Bit Server VM
Java Version: 9+181
Operating System: Mac OS X
OS Version: 10.12.6
Default Encoding: UTF-8
Language: zh
Country: CN
--></g></svg>