<?xml version="1.0" encoding="UTF-8" standalone="no"?><svg xmlns="http://www.w3.org/2000/svg" xmlns:xlink="http://www.w3.org/1999/xlink" contentScriptType="application/ecmascript" contentStyleType="text/css" height="496px" preserveAspectRatio="none" style="width:267px;height:496px;" version="1.1" viewBox="0 0 267 496"
    width="267px" zoomAndPan="magnify"><defs><filter height="300%" id="fti0jjlx8ce7" width="300%" x="-1" y="-1"><feGaussianBlur result="blurOut" stdDeviation="2.0"/><feColorMatrix in="blurOut" result="blurOut2" type="matrix" values="0 0 0 0 0 0 0 0 0 0 0 0 0 0 0 0 0 0 .4 0"/><feOffset dx="4.0" dy="4.0" in="blurOut2" result="blurOut3"/><feBlend in="SourceGraphic" in2="blurOut3" mode="normal"/></filter></defs><g><rect fill="#FFFFFF" filter="url(#fti0jjlx8ce7)" height="363.6836" style="stroke: #000000; stroke-width: 2.0;" width="242" x="13" y="103.4883"/><rect fill="#FFFFFF" height="72.2656" style="stroke: none; stroke-width: 1.0;" width="242" x="13" y="178.1094"/><rect fill="#FFFFFF" height="72.2656" style="stroke: none; stroke-width: 1.0;" width="242" x="13" y="250.375"/><rect fill="#FFFFFF" height="72.2656" style="stroke: none; stroke-width: 1.0;" width="242" x="13" y="322.6406"/><rect fill="#FFFFFF" height="72.2656" style="stroke: none; stroke-width: 1.0;" width="242" x="13" y="394.9063"/><line style="stroke: #A80036; stroke-width: 1.0;" x1="41" x2="41" y1="86.4883" y2="150.1094"/><line style="stroke: #A80036; stroke-width: 1.0; stroke-dasharray: 1.0,4.0;" x1="41" x2="41" y1="150.1094" y2="178.1094"/><line style="stroke: #A80036; stroke-width: 1.0;" x1="41" x2="41" y1="178.1094" y2="222.375"/><line style="stroke: #A80036; stroke-width: 1.0; stroke-dasharray: 1.0,4.0;" x1="41" x2="41" y1="222.375" y2="250.375"/><line style="stroke: #A80036; stroke-width: 1.0;" x1="41" x2="41" y1="250.375" y2="294.6406"/><line style="stroke: #A80036; stroke-width: 1.0; stroke-dasharray: 1.0,4.0;" x1="41" x2="41" y1="294.6406" y2="322.6406"/><line style="stroke: #A80036; stroke-width: 1.0;" x1="41" x2="41" y1="322.6406" y2="366.9063"/><line style="stroke: #A80036; stroke-width: 1.0; stroke-dasharray: 1.0,4.0;" x1="41" x2="41" y1="366.9063" y2="394.9063"/><line style="stroke: #A80036; stroke-width: 1.0;" x1="41" x2="41" y1="394.9063" y2="439.1719"/><line style="stroke: #A80036; stroke-width: 1.0; stroke-dasharray: 1.0,4.0;" x1="41" x2="41" y1="439.1719" y2="467.1719"/><line style="stroke: #A80036; stroke-width: 1.0;" x1="41" x2="41" y1="467.1719" y2="484.1719"/><line style="stroke: #A80036; stroke-width: 1.0;" x1="157" x2="157" y1="86.4883" y2="150.1094"/><line style="stroke: #A80036; stroke-width: 1.0; stroke-dasharray: 1.0,4.0;" x1="157" x2="157" y1="150.1094" y2="178.1094"/><line style="stroke: #A80036; stroke-width: 1.0;" x1="157" x2="157" y1="178.1094" y2="222.375"/><line style="stroke: #A80036; stroke-width: 1.0; stroke-dasharray: 1.0,4.0;" x1="157" x2="157" y1="222.375" y2="250.375"/><line style="stroke: #A80036; stroke-width: 1.0;" x1="157" x2="157" y1="250.375" y2="294.6406"/><line style="stroke: #A80036; stroke-width: 1.0; stroke-dasharray: 1.0,4.0;" x1="157" x2="157" y1="294.6406" y2="322.6406"/><line style="stroke: #A80036; stroke-width: 1.0;" x1="157" x2="157" y1="322.6406" y2="366.9063"/><line style="stroke: #A80036; stroke-width: 1.0; stroke-dasharray: 1.0,4.0;" x1="157" x2="157" y1="366.9063" y2="394.9063"/><line style="stroke: #A80036; stroke-width: 1.0;" x1="157" x2="157" y1="394.9063" y2="439.1719"/><line style="stroke: #A80036; stroke-width: 1.0; stroke-dasharray: 1.0,4.0;" x1="157" x2="157" y1="439.1719" y2="467.1719"/><line style="stroke: #A80036; stroke-width: 1.0;" x1="157" x2="157" y1="467.1719" y2="484.1719"/><text fill="#000000" font-family="sans-serif" font-size="14" lengthAdjust="spacingAndGlyphs" text-decoration="underline" textLength="31" x="23" y="83.5352">User</text><line style="stroke: #000000; stroke-width: 1.0;" x1="23" x2="54" y1="85.5352" y2="85.5352"/><ellipse cx="41.5" cy="13" fill="#FEFECE" filter="url(#fti0jjlx8ce7)" rx="8" ry="8" style="stroke: #A80036; stroke-width: 2.0;"/><path d="M41.5,21 L41.5,48 M28.5,29 L54.5,29 M41.5,48 L28.5,63 M41.5,48 L54.5,63 " fill="none" filter="url(#fti0jjlx8ce7)" style="stroke: #A80036; stroke-width: 2.0;"/><rect fill="#FEFECE" filter="url(#fti0jjlx8ce7)" height="30.4883" style="stroke: #A80036; stroke-width: 1.5;" width="171" x="70" y="51"/><text fill="#000000" font-family="sans-serif" font-size="14" lengthAdjust="spacingAndGlyphs" text-decoration="underline" textLength="157" x="77" y="71.5352">:LocalVSSManagerPage</text><line style="stroke: #000000; stroke-width: 1.0;" x1="77" x2="234" y1="73.5352" y2="73.5352"/><path d="M13,103.4883 L75,103.4883 L75,110.4883 L65,120.4883 L13,120.4883 L13,103.4883 " fill="#EEEEEE" style="stroke: #000000; stroke-width: 1.0;"/><rect fill="none" height="363.6836" style="stroke: #000000; stroke-width: 2.0;" width="242" x="13" y="103.4883"/><text fill="#000000" font-family="sans-serif" font-size="13" font-weight="bold" lengthAdjust="spacingAndGlyphs" textLength="17" x="28" y="117.0566">alt</text><text fill="#000000" font-family="sans-serif" font-size="11" font-weight="bold" lengthAdjust="spacingAndGlyphs" textLength="63" x="90" y="116.123">[CreateVSS]</text><polygon fill="#A80036" points="145.5,137.7988,155.5,141.7988,145.5,145.7988,149.5,141.7988" style="stroke: #A80036; stroke-width: 1.0;"/><line style="stroke: #A80036; stroke-width: 1.0;" x1="41.5" x2="151.5" y1="141.7988" y2="141.7988"/><text fill="#000000" font-family="sans-serif" font-size="13" lengthAdjust="spacingAndGlyphs" textLength="60" x="48.5" y="137.3672">createVSS</text><line style="stroke: #000000; stroke-width: 1.0; stroke-dasharray: 2.0,2.0;" x1="13" x2="255" y1="179.1094" y2="179.1094"/><text fill="#000000" font-family="sans-serif" font-size="11" font-weight="bold" lengthAdjust="spacingAndGlyphs" textLength="72" x="18" y="189.7441">[RenameVSS]</text><polygon fill="#A80036" points="145.5,210.0645,155.5,214.0645,145.5,218.0645,149.5,214.0645" style="stroke: #A80036; stroke-width: 1.0;"/><line style="stroke: #A80036; stroke-width: 1.0;" x1="41.5" x2="151.5" y1="214.0645" y2="214.0645"/><text fill="#000000" font-family="sans-serif" font-size="13" lengthAdjust="spacingAndGlyphs" textLength="68" x="48.5" y="209.6328">renameVSS</text><line style="stroke: #000000; stroke-width: 1.0; stroke-dasharray: 2.0,2.0;" x1="13" x2="255" y1="251.375" y2="251.375"/><text fill="#000000" font-family="sans-serif" font-size="11" font-weight="bold" lengthAdjust="spacingAndGlyphs" textLength="63" x="18" y="262.0098">[DeleteVSS]</text><polygon fill="#A80036" points="145.5,282.3301,155.5,286.3301,145.5,290.3301,149.5,286.3301" style="stroke: #A80036; stroke-width: 1.0;"/><line style="stroke: #A80036; stroke-width: 1.0;" x1="41.5" x2="151.5" y1="286.3301" y2="286.3301"/><text fill="#000000" font-family="sans-serif" font-size="13" lengthAdjust="spacingAndGlyphs" textLength="60" x="48.5" y="281.8984">deleteVSS</text><line style="stroke: #000000; stroke-width: 1.0; stroke-dasharray: 2.0,2.0;" x1="13" x2="255" y1="323.6406" y2="323.6406"/><text fill="#000000" font-family="sans-serif" font-size="11" font-weight="bold" lengthAdjust="spacingAndGlyphs" textLength="67" x="18" y="334.2754">[UploadVSS]</text><polygon fill="#A80036" points="145.5,354.5957,155.5,358.5957,145.5,362.5957,149.5,358.5957" style="stroke: #A80036; stroke-width: 1.0;"/><line style="stroke: #A80036; stroke-width: 1.0;" x1="41.5" x2="151.5" y1="358.5957" y2="358.5957"/><text fill="#000000" font-family="sans-serif" font-size="13" lengthAdjust="spacingAndGlyphs" textLength="65" x="48.5" y="354.1641">uploadVSS</text><line style="stroke: #000000; stroke-width: 1.0; stroke-dasharray: 2.0,2.0;" x1="13" x2="255" y1="395.9063" y2="395.9063"/><text fill="#000000" font-family="sans-serif" font-size="11" font-weight="bold" lengthAdjust="spacingAndGlyphs" textLength="72" x="18" y="406.541">[PreviewVSS]</text><polygon fill="#A80036" points="145.5,426.8613,155.5,430.8613,145.5,434.8613,149.5,430.8613" style="stroke: #A80036; stroke-width: 1.0;"/><line style="stroke: #A80036; stroke-width: 1.0;" x1="41.5" x2="151.5" y1="430.8613" y2="430.8613"/><text fill="#000000" font-family="sans-serif" font-size="13" lengthAdjust="spacingAndGlyphs" textLength="70" x="48.5" y="426.4297">previewVSS</text><!--
@startuml ManageLocalVSSLibrary
hide footbox
skinparam sequenceParticipant underline

actor User as user
participant ":LocalVSSManagerPage" as boundary

alt CreateVSS
    user -> boundary: createVSS
    ...
else RenameVSS
    user -> boundary: renameVSS
    ...
else DeleteVSS
    user -> boundary: deleteVSS
    ...
else UploadVSS
    user -> boundary: uploadVSS
    ...
else PreviewVSS
    user -> boundary: previewVSS
    ...
end
@enduml

PlantUML version 1.2018.01(Mon Jan 29 02:08:22 CST 2018)
(GPL source distribution)
Java Runtime: Java(TM) SE Runtime Environment
JVM: Java HotSpot(TM) 64-Bit Server VM
Java Version: 9+181
Operating System: Mac OS X
OS Version: 10.12.6
Default Encoding: UTF-8
Language: zh
Country: CN
--></g></svg>