<?xml version="1.0" encoding="UTF-8" standalone="no"?><svg xmlns="http://www.w3.org/2000/svg" xmlns:xlink="http://www.w3.org/1999/xlink" contentScriptType="application/ecmascript" contentStyleType="text/css" height="849px" preserveAspectRatio="none" style="width:1208px;height:849px;" version="1.1" viewBox="0 0 1208 849"
    width="1208px" zoomAndPan="magnify"><defs><filter height="300%" id="f1dwdk03bz4hv4" width="300%" x="-1" y="-1"><feGaussianBlur result="blurOut" stdDeviation="2.0"/><feColorMatrix in="blurOut" result="blurOut2" type="matrix" values="0 0 0 0 0 0 0 0 0 0 0 0 0 0 0 0 0 0 .4 0"/><feOffset dx="4.0" dy="4.0" in="blurOut2" result="blurOut3"/><feBlend in="SourceGraphic" in2="blurOut3" mode="normal"/></filter></defs><g><rect fill="#FEFECE" filter="url(#f1dwdk03bz4hv4)" height="30.4883" style="stroke: #A80036; stroke-width: 1.5;" width="177" x="324" y="125.7988"/><text fill="#000000" font-family="sans-serif" font-size="14" lengthAdjust="spacingAndGlyphs" text-decoration="underline" textLength="163" x="331" y="146.334">:LocalVSSLibraryControl</text><line style="stroke: #000000; stroke-width: 1.0;" x1="331" x2="494" y1="148.334" y2="148.334"/><rect fill="#FFFFFF" filter="url(#f1dwdk03bz4hv4)" height="554.0566" style="stroke: #000000; stroke-width: 2.0;" width="1183.5" x="13" y="266.2188"/><rect fill="#FFFFFF" height="85.2207" style="stroke: none; stroke-width: 1.0;" width="1183.5" x="13" y="353.7949"/><rect fill="#FFFFFF" height="85.2207" style="stroke: none; stroke-width: 1.0;" width="1183.5" x="13" y="439.0156"/><rect fill="#FFFFFF" height="85.2207" style="stroke: none; stroke-width: 1.0;" width="1183.5" x="13" y="524.2363"/><rect fill="#FFFFFF" height="210.8184" style="stroke: none; stroke-width: 1.0;" width="1183.5" x="13" y="609.457"/><rect fill="#FFFFFF" filter="url(#f1dwdk03bz4hv4)" height="123.2422" style="stroke: #000000; stroke-width: 2.0;" width="872.5" x="314" y="690.0332"/><rect fill="#FEFECE" filter="url(#f1dwdk03bz4hv4)" height="30.4883" style="stroke: #A80036; stroke-width: 1.5;" width="167" x="799.5" y="707.3438"/><text fill="#000000" font-family="sans-serif" font-size="14" lengthAdjust="spacingAndGlyphs" text-decoration="underline" textLength="153" x="806.5" y="727.8789">:PreviewLocalMapPage</text><line style="stroke: #000000; stroke-width: 1.0;" x1="806.5" x2="959.5" y1="729.8789" y2="729.8789"/><rect fill="#FFFFFF" height="60.4434" style="stroke: none; stroke-width: 1.0;" width="872.5" x="314" y="752.832"/><rect fill="#FEFECE" filter="url(#f1dwdk03bz4hv4)" height="30.4883" style="stroke: #A80036; stroke-width: 1.5;" width="192" x="980.5" y="767.7871"/><text fill="#000000" font-family="sans-serif" font-size="14" lengthAdjust="spacingAndGlyphs" text-decoration="underline" textLength="178" x="987.5" y="788.3223">:PreviewLocalConcertPage</text><line style="stroke: #000000; stroke-width: 1.0;" x1="987.5" x2="1165.5" y1="790.3223" y2="790.3223"/><line style="stroke: #A80036; stroke-width: 1.0;" x1="41" x2="41" y1="86.4883" y2="312.8398"/><line style="stroke: #A80036; stroke-width: 1.0; stroke-dasharray: 1.0,4.0;" x1="41" x2="41" y1="312.8398" y2="353.7949"/><line style="stroke: #A80036; stroke-width: 1.0;" x1="41" x2="41" y1="353.7949" y2="398.0605"/><line style="stroke: #A80036; stroke-width: 1.0; stroke-dasharray: 1.0,4.0;" x1="41" x2="41" y1="398.0605" y2="439.0156"/><line style="stroke: #A80036; stroke-width: 1.0;" x1="41" x2="41" y1="439.0156" y2="483.2813"/><line style="stroke: #A80036; stroke-width: 1.0; stroke-dasharray: 1.0,4.0;" x1="41" x2="41" y1="483.2813" y2="524.2363"/><line style="stroke: #A80036; stroke-width: 1.0;" x1="41" x2="41" y1="524.2363" y2="568.502"/><line style="stroke: #A80036; stroke-width: 1.0; stroke-dasharray: 1.0,4.0;" x1="41" x2="41" y1="568.502" y2="609.457"/><line style="stroke: #A80036; stroke-width: 1.0;" x1="41" x2="41" y1="609.457" y2="837.2754"/><line style="stroke: #A80036; stroke-width: 1.0;" x1="202" x2="202" y1="86.4883" y2="312.8398"/><line style="stroke: #A80036; stroke-width: 1.0; stroke-dasharray: 1.0,4.0;" x1="202" x2="202" y1="312.8398" y2="353.7949"/><line style="stroke: #A80036; stroke-width: 1.0;" x1="202" x2="202" y1="353.7949" y2="398.0605"/><line style="stroke: #A80036; stroke-width: 1.0; stroke-dasharray: 1.0,4.0;" x1="202" x2="202" y1="398.0605" y2="439.0156"/><line style="stroke: #A80036; stroke-width: 1.0;" x1="202" x2="202" y1="439.0156" y2="483.2813"/><line style="stroke: #A80036; stroke-width: 1.0; stroke-dasharray: 1.0,4.0;" x1="202" x2="202" y1="483.2813" y2="524.2363"/><line style="stroke: #A80036; stroke-width: 1.0;" x1="202" x2="202" y1="524.2363" y2="568.502"/><line style="stroke: #A80036; stroke-width: 1.0; stroke-dasharray: 1.0,4.0;" x1="202" x2="202" y1="568.502" y2="609.457"/><line style="stroke: #A80036; stroke-width: 1.0;" x1="202" x2="202" y1="609.457" y2="837.2754"/><line style="stroke: #A80036; stroke-width: 1.0;" x1="414" x2="414" y1="158.543" y2="312.8398"/><line style="stroke: #A80036; stroke-width: 1.0; stroke-dasharray: 1.0,4.0;" x1="414" x2="414" y1="312.8398" y2="353.7949"/><line style="stroke: #A80036; stroke-width: 1.0;" x1="414" x2="414" y1="353.7949" y2="398.0605"/><line style="stroke: #A80036; stroke-width: 1.0; stroke-dasharray: 1.0,4.0;" x1="414" x2="414" y1="398.0605" y2="439.0156"/><line style="stroke: #A80036; stroke-width: 1.0;" x1="414" x2="414" y1="439.0156" y2="483.2813"/><line style="stroke: #A80036; stroke-width: 1.0; stroke-dasharray: 1.0,4.0;" x1="414" x2="414" y1="483.2813" y2="524.2363"/><line style="stroke: #A80036; stroke-width: 1.0;" x1="414" x2="414" y1="524.2363" y2="568.502"/><line style="stroke: #A80036; stroke-width: 1.0; stroke-dasharray: 1.0,4.0;" x1="414" x2="414" y1="568.502" y2="609.457"/><line style="stroke: #A80036; stroke-width: 1.0;" x1="414" x2="414" y1="609.457" y2="837.2754"/><line style="stroke: #A80036; stroke-width: 1.0;" x1="695.5" x2="695.5" y1="86.4883" y2="312.8398"/><line style="stroke: #A80036; stroke-width: 1.0; stroke-dasharray: 1.0,4.0;" x1="695.5" x2="695.5" y1="312.8398" y2="353.7949"/><line style="stroke: #A80036; stroke-width: 1.0;" x1="695.5" x2="695.5" y1="353.7949" y2="398.0605"/><line style="stroke: #A80036; stroke-width: 1.0; stroke-dasharray: 1.0,4.0;" x1="695.5" x2="695.5" y1="398.0605" y2="439.0156"/><line style="stroke: #A80036; stroke-width: 1.0;" x1="695.5" x2="695.5" y1="439.0156" y2="483.2813"/><line style="stroke: #A80036; stroke-width: 1.0; stroke-dasharray: 1.0,4.0;" x1="695.5" x2="695.5" y1="483.2813" y2="524.2363"/><line style="stroke: #A80036; stroke-width: 1.0;" x1="695.5" x2="695.5" y1="524.2363" y2="568.502"/><line style="stroke: #A80036; stroke-width: 1.0; stroke-dasharray: 1.0,4.0;" x1="695.5" x2="695.5" y1="568.502" y2="609.457"/><line style="stroke: #A80036; stroke-width: 1.0;" x1="695.5" x2="695.5" y1="609.457" y2="837.2754"/><line style="stroke: #A80036; stroke-width: 1.0;" x1="884.5" x2="884.5" y1="740.0879" y2="837.2754"/><line style="stroke: #A80036; stroke-width: 1.0;" x1="1078.5" x2="1078.5" y1="800.5313" y2="837.2754"/><text fill="#000000" font-family="sans-serif" font-size="14" lengthAdjust="spacingAndGlyphs" text-decoration="underline" textLength="31" x="23" y="83.5352">User</text><line style="stroke: #000000; stroke-width: 1.0;" x1="23" x2="54" y1="85.5352" y2="85.5352"/><ellipse cx="41.5" cy="13" fill="#FEFECE" filter="url(#f1dwdk03bz4hv4)" rx="8" ry="8" style="stroke: #A80036; stroke-width: 2.0;"/><path d="M41.5,21 L41.5,48 M28.5,29 L54.5,29 M41.5,48 L28.5,63 M41.5,48 L54.5,63 " fill="none" filter="url(#f1dwdk03bz4hv4)" style="stroke: #A80036; stroke-width: 2.0;"/><rect fill="#FEFECE" filter="url(#f1dwdk03bz4hv4)" height="30.4883" style="stroke: #A80036; stroke-width: 1.5;" width="171" x="115" y="51"/><text fill="#000000" font-family="sans-serif" font-size="14" lengthAdjust="spacingAndGlyphs" text-decoration="underline" textLength="157" x="122" y="71.5352">:LocalVSSManagerPage</text><line style="stroke: #000000; stroke-width: 1.0;" x1="122" x2="279" y1="73.5352" y2="73.5352"/><rect fill="#FEFECE" filter="url(#f1dwdk03bz4hv4)" height="30.4883" style="stroke: #A80036; stroke-width: 1.5;" width="184" x="601.5" y="51"/><text fill="#000000" font-family="sans-serif" font-size="14" lengthAdjust="spacingAndGlyphs" text-decoration="underline" textLength="170" x="608.5" y="71.5352">:LocalSoundSpaceLibrary</text><line style="stroke: #000000; stroke-width: 1.0;" x1="608.5" x2="778.5" y1="73.5352" y2="73.5352"/><polygon fill="#A80036" points="190.5,113.4883,200.5,117.4883,190.5,121.4883,194.5,117.4883" style="stroke: #A80036; stroke-width: 1.0;"/><line style="stroke: #A80036; stroke-width: 1.0;" x1="3" x2="196.5" y1="117.4883" y2="117.4883"/><text fill="#000000" font-family="sans-serif" font-size="13" lengthAdjust="spacingAndGlyphs" textLength="78" x="10" y="113.0566">&lt;&lt;create&gt;&gt;</text><polygon fill="#A80036" points="312,142.7988,322,146.7988,312,150.7988,316,146.7988" style="stroke: #A80036; stroke-width: 1.0;"/><line style="stroke: #A80036; stroke-width: 1.0;" x1="202.5" x2="318" y1="146.7988" y2="146.7988"/><text fill="#000000" font-family="sans-serif" font-size="13" lengthAdjust="spacingAndGlyphs" textLength="78" x="209.5" y="142.3672">&lt;&lt;create&gt;&gt;</text><rect fill="#FEFECE" filter="url(#f1dwdk03bz4hv4)" height="30.4883" style="stroke: #A80036; stroke-width: 1.5;" width="177" x="324" y="125.7988"/><text fill="#000000" font-family="sans-serif" font-size="14" lengthAdjust="spacingAndGlyphs" text-decoration="underline" textLength="163" x="331" y="146.334">:LocalVSSLibraryControl</text><line style="stroke: #000000; stroke-width: 1.0;" x1="331" x2="494" y1="148.334" y2="148.334"/><polygon fill="#A80036" points="683.5,188.2871,693.5,192.2871,683.5,196.2871,687.5,192.2871" style="stroke: #A80036; stroke-width: 1.0;"/><line style="stroke: #A80036; stroke-width: 1.0;" x1="414.5" x2="689.5" y1="192.2871" y2="192.2871"/><text fill="#000000" font-family="sans-serif" font-size="13" lengthAdjust="spacingAndGlyphs" textLength="104" x="421.5" y="187.8555">getVSSList(): List</text><polygon fill="#A80036" points="425.5,217.5977,415.5,221.5977,425.5,225.5977,421.5,221.5977" style="stroke: #A80036; stroke-width: 1.0;"/><line style="stroke: #A80036; stroke-width: 1.0;" x1="419.5" x2="694.5" y1="221.5977" y2="221.5977"/><text fill="#000000" font-family="sans-serif" font-size="13" lengthAdjust="spacingAndGlyphs" textLength="257" x="431.5" y="217.166">listOfLocalVSS: List&lt;VirtualSoundSpace&gt;</text><polygon fill="#A80036" points="213.5,246.9082,203.5,250.9082,213.5,254.9082,209.5,250.9082" style="stroke: #A80036; stroke-width: 1.0;"/><line style="stroke: #A80036; stroke-width: 1.0;" x1="207.5" x2="413.5" y1="250.9082" y2="250.9082"/><text fill="#000000" font-family="sans-serif" font-size="13" lengthAdjust="spacingAndGlyphs" textLength="188" x="219.5" y="246.4766">displayVSSList(listOfLocalVSS)</text><path d="M13,266.2188 L75,266.2188 L75,273.2188 L65,283.2188 L13,283.2188 L13,266.2188 " fill="#EEEEEE" style="stroke: #000000; stroke-width: 1.0;"/><rect fill="none" height="554.0566" style="stroke: #000000; stroke-width: 2.0;" width="1183.5" x="13" y="266.2188"/><text fill="#000000" font-family="sans-serif" font-size="13" font-weight="bold" lengthAdjust="spacingAndGlyphs" textLength="17" x="28" y="279.7871">alt</text><text fill="#000000" font-family="sans-serif" font-size="11" font-weight="bold" lengthAdjust="spacingAndGlyphs" textLength="63" x="90" y="278.8535">[CreateVSS]</text><polygon fill="#A80036" points="190.5,300.5293,200.5,304.5293,190.5,308.5293,194.5,304.5293" style="stroke: #A80036; stroke-width: 1.0;"/><line style="stroke: #A80036; stroke-width: 1.0;" x1="41.5" x2="196.5" y1="304.5293" y2="304.5293"/><text fill="#000000" font-family="sans-serif" font-size="13" lengthAdjust="spacingAndGlyphs" textLength="60" x="48.5" y="300.0977">createVSS</text><text fill="#000000" font-family="sans-serif" font-size="11" lengthAdjust="spacingAndGlyphs" textLength="109" x="505.5" y="337.4746">described in PlayVSS</text><line style="stroke: #000000; stroke-width: 1.0; stroke-dasharray: 2.0,2.0;" x1="13" x2="1196.5" y1="354.7949" y2="354.7949"/><text fill="#000000" font-family="sans-serif" font-size="11" font-weight="bold" lengthAdjust="spacingAndGlyphs" textLength="72" x="18" y="365.4297">[RenameVSS]</text><polygon fill="#A80036" points="190.5,385.75,200.5,389.75,190.5,393.75,194.5,389.75" style="stroke: #A80036; stroke-width: 1.0;"/><line style="stroke: #A80036; stroke-width: 1.0;" x1="41.5" x2="196.5" y1="389.75" y2="389.75"/><text fill="#000000" font-family="sans-serif" font-size="13" lengthAdjust="spacingAndGlyphs" textLength="135" x="48.5" y="385.3184">renameVSS(whichVSS)</text><text fill="#000000" font-family="sans-serif" font-size="11" lengthAdjust="spacingAndGlyphs" textLength="130" x="495" y="422.6953">described in RenameVSS</text><line style="stroke: #000000; stroke-width: 1.0; stroke-dasharray: 2.0,2.0;" x1="13" x2="1196.5" y1="440.0156" y2="440.0156"/><text fill="#000000" font-family="sans-serif" font-size="11" font-weight="bold" lengthAdjust="spacingAndGlyphs" textLength="63" x="18" y="450.6504">[DeleteVSS]</text><polygon fill="#A80036" points="190.5,470.9707,200.5,474.9707,190.5,478.9707,194.5,474.9707" style="stroke: #A80036; stroke-width: 1.0;"/><line style="stroke: #A80036; stroke-width: 1.0;" x1="41.5" x2="196.5" y1="474.9707" y2="474.9707"/><text fill="#000000" font-family="sans-serif" font-size="13" lengthAdjust="spacingAndGlyphs" textLength="127" x="48.5" y="470.5391">deleteVSS(whichVSS)</text><text fill="#000000" font-family="sans-serif" font-size="11" lengthAdjust="spacingAndGlyphs" textLength="121" x="499.5" y="507.916">described in DeleteVSS</text><line style="stroke: #000000; stroke-width: 1.0; stroke-dasharray: 2.0,2.0;" x1="13" x2="1196.5" y1="525.2363" y2="525.2363"/><text fill="#000000" font-family="sans-serif" font-size="11" font-weight="bold" lengthAdjust="spacingAndGlyphs" textLength="67" x="18" y="535.8711">[UploadVSS]</text><polygon fill="#A80036" points="190.5,556.1914,200.5,560.1914,190.5,564.1914,194.5,560.1914" style="stroke: #A80036; stroke-width: 1.0;"/><line style="stroke: #A80036; stroke-width: 1.0;" x1="41.5" x2="196.5" y1="560.1914" y2="560.1914"/><text fill="#000000" font-family="sans-serif" font-size="13" lengthAdjust="spacingAndGlyphs" textLength="132" x="48.5" y="555.7598">uploadVSS(whichVSS)</text><text fill="#000000" font-family="sans-serif" font-size="11" lengthAdjust="spacingAndGlyphs" textLength="126" x="497" y="593.1367">described in UploadVSS</text><line style="stroke: #000000; stroke-width: 1.0; stroke-dasharray: 2.0,2.0;" x1="13" x2="1196.5" y1="610.457" y2="610.457"/><text fill="#000000" font-family="sans-serif" font-size="11" font-weight="bold" lengthAdjust="spacingAndGlyphs" textLength="72" x="18" y="621.0918">[PreviewVSS]</text><polygon fill="#A80036" points="190.5,641.4121,200.5,645.4121,190.5,649.4121,194.5,645.4121" style="stroke: #A80036; stroke-width: 1.0;"/><line style="stroke: #A80036; stroke-width: 1.0;" x1="41.5" x2="196.5" y1="645.4121" y2="645.4121"/><text fill="#000000" font-family="sans-serif" font-size="13" lengthAdjust="spacingAndGlyphs" textLength="137" x="48.5" y="640.9805">previewVSS(whichVSS)</text><polygon fill="#A80036" points="402.5,670.7227,412.5,674.7227,402.5,678.7227,406.5,674.7227" style="stroke: #A80036; stroke-width: 1.0;"/><line style="stroke: #A80036; stroke-width: 1.0;" x1="202.5" x2="408.5" y1="674.7227" y2="674.7227"/><text fill="#000000" font-family="sans-serif" font-size="13" lengthAdjust="spacingAndGlyphs" textLength="137" x="209.5" y="670.291">previewVSS(whichVSS)</text><path d="M314,690.0332 L376,690.0332 L376,697.0332 L366,707.0332 L314,707.0332 L314,690.0332 " fill="#EEEEEE" style="stroke: #000000; stroke-width: 1.0;"/><rect fill="none" height="123.2422" style="stroke: #000000; stroke-width: 2.0;" width="872.5" x="314" y="690.0332"/><text fill="#000000" font-family="sans-serif" font-size="13" font-weight="bold" lengthAdjust="spacingAndGlyphs" textLength="17" x="329" y="703.6016">alt</text><text fill="#000000" font-family="sans-serif" font-size="11" font-weight="bold" lengthAdjust="spacingAndGlyphs" textLength="63" x="391" y="702.668">[local map]</text><polygon fill="#A80036" points="787.5,724.3438,797.5,728.3438,787.5,732.3438,791.5,728.3438" style="stroke: #A80036; stroke-width: 1.0;"/><line style="stroke: #A80036; stroke-width: 1.0;" x1="414.5" x2="793.5" y1="728.3438" y2="728.3438"/><text fill="#000000" font-family="sans-serif" font-size="13" lengthAdjust="spacingAndGlyphs" textLength="78" x="421.5" y="723.9121">&lt;&lt;create&gt;&gt;</text><rect fill="#FEFECE" filter="url(#f1dwdk03bz4hv4)" height="30.4883" style="stroke: #A80036; stroke-width: 1.5;" width="167" x="799.5" y="707.3438"/><text fill="#000000" font-family="sans-serif" font-size="14" lengthAdjust="spacingAndGlyphs" text-decoration="underline" textLength="153" x="806.5" y="727.8789">:PreviewLocalMapPage</text><line style="stroke: #000000; stroke-width: 1.0;" x1="806.5" x2="959.5" y1="729.8789" y2="729.8789"/><line style="stroke: #000000; stroke-width: 1.0; stroke-dasharray: 2.0,2.0;" x1="314" x2="1186.5" y1="753.832" y2="753.832"/><text fill="#000000" font-family="sans-serif" font-size="11" font-weight="bold" lengthAdjust="spacingAndGlyphs" textLength="80" x="319" y="764.4668">[local concert]</text><polygon fill="#A80036" points="968.5,784.7871,978.5,788.7871,968.5,792.7871,972.5,788.7871" style="stroke: #A80036; stroke-width: 1.0;"/><line style="stroke: #A80036; stroke-width: 1.0;" x1="414.5" x2="974.5" y1="788.7871" y2="788.7871"/><text fill="#000000" font-family="sans-serif" font-size="13" lengthAdjust="spacingAndGlyphs" textLength="78" x="421.5" y="784.3555">&lt;&lt;create&gt;&gt;</text><rect fill="#FEFECE" filter="url(#f1dwdk03bz4hv4)" height="30.4883" style="stroke: #A80036; stroke-width: 1.5;" width="192" x="980.5" y="767.7871"/><text fill="#000000" font-family="sans-serif" font-size="14" lengthAdjust="spacingAndGlyphs" text-decoration="underline" textLength="178" x="987.5" y="788.3223">:PreviewLocalConcertPage</text><line style="stroke: #000000; stroke-width: 1.0;" x1="987.5" x2="1165.5" y1="790.3223" y2="790.3223"/><!--
@startuml ManageLocalVSSLibrary
hide footbox
skinparam sequenceParticipant underline

actor User as user
participant ":LocalVSSManagerPage" as boundary
participant ":LocalVSSLibraryControl" as control
participant ":LocalSoundSpaceLibrary" as library

create boundary
[-> boundary: <<create>>
create control
boundary -> control: <<create>>
control -> library: getVSSList(): List
library -> control: listOfLocalVSS: List<VirtualSoundSpace>
control -> boundary: displayVSSList(listOfLocalVSS)


alt CreateVSS
    user -> boundary: createVSS
    ...described in PlayVSS...
else RenameVSS
    user -> boundary: renameVSS(whichVSS)
    ...described in RenameVSS...
else DeleteVSS
    user -> boundary: deleteVSS(whichVSS)
    ...described in DeleteVSS...
else UploadVSS
    user -> boundary: uploadVSS(whichVSS)
    ...described in UploadVSS...
else PreviewVSS
    user -> boundary: previewVSS(whichVSS)
    boundary -> control: previewVSS(whichVSS)
    alt local map
        participant ":PreviewLocalMapPage" as plmp
        create plmp
        control -> plmp: <<create>>

    else local concert
        participant ":PreviewLocalConcertPage" as plcp
        create plcp
        control -> plcp: <<create>>
    end
end
@enduml

PlantUML version 1.2018.01(Mon Jan 29 02:08:22 CST 2018)
(GPL source distribution)
Java Runtime: Java(TM) SE Runtime Environment
JVM: Java HotSpot(TM) 64-Bit Server VM
Java Version: 9+181
Operating System: Mac OS X
OS Version: 10.12.6
Default Encoding: UTF-8
Language: zh
Country: CN
--></g></svg>