<?xml version="1.0" encoding="UTF-8" standalone="no"?><svg xmlns="http://www.w3.org/2000/svg" xmlns:xlink="http://www.w3.org/1999/xlink" contentScriptType="application/ecmascript" contentStyleType="text/css" height="694px" preserveAspectRatio="none" style="width:751px;height:694px;" version="1.1" viewBox="0 0 751 694"
    width="751px" zoomAndPan="magnify"><defs><filter height="300%" id="f9vh8pmwqqmuc" width="300%" x="-1" y="-1"><feGaussianBlur result="blurOut" stdDeviation="2.0"/><feColorMatrix in="blurOut" result="blurOut2" type="matrix" values="0 0 0 0 0 0 0 0 0 0 0 0 0 0 0 0 0 0 .4 0"/><feOffset dx="4.0" dy="4.0" in="blurOut2" result="blurOut3"/><feBlend in="SourceGraphic" in2="blurOut3" mode="normal"/></filter></defs><g><rect fill="#FEFECE" filter="url(#f9vh8pmwqqmuc)" height="30.4883" style="stroke: #A80036; stroke-width: 1.5;" width="177" x="279" y="96.4883"/><text fill="#000000" font-family="sans-serif" font-size="14" lengthAdjust="spacingAndGlyphs" text-decoration="underline" textLength="163" x="286" y="117.0234">:LocalVSSLibraryControl</text><line style="stroke: #000000; stroke-width: 1.0;" x1="286" x2="449" y1="119.0234" y2="119.0234"/><rect fill="#FFFFFF" filter="url(#f9vh8pmwqqmuc)" height="428.459" style="stroke: #000000; stroke-width: 2.0;" width="242" x="13" y="236.9082"/><rect fill="#FFFFFF" height="85.2207" style="stroke: none; stroke-width: 1.0;" width="242" x="13" y="324.4844"/><rect fill="#FFFFFF" height="85.2207" style="stroke: none; stroke-width: 1.0;" width="242" x="13" y="409.7051"/><rect fill="#FFFFFF" height="85.2207" style="stroke: none; stroke-width: 1.0;" width="242" x="13" y="494.9258"/><rect fill="#FFFFFF" height="85.2207" style="stroke: none; stroke-width: 1.0;" width="242" x="13" y="580.1465"/><line style="stroke: #A80036; stroke-width: 1.0;" x1="41" x2="41" y1="86.4883" y2="283.5293"/><line style="stroke: #A80036; stroke-width: 1.0; stroke-dasharray: 1.0,4.0;" x1="41" x2="41" y1="283.5293" y2="324.4844"/><line style="stroke: #A80036; stroke-width: 1.0;" x1="41" x2="41" y1="324.4844" y2="368.75"/><line style="stroke: #A80036; stroke-width: 1.0; stroke-dasharray: 1.0,4.0;" x1="41" x2="41" y1="368.75" y2="409.7051"/><line style="stroke: #A80036; stroke-width: 1.0;" x1="41" x2="41" y1="409.7051" y2="453.9707"/><line style="stroke: #A80036; stroke-width: 1.0; stroke-dasharray: 1.0,4.0;" x1="41" x2="41" y1="453.9707" y2="494.9258"/><line style="stroke: #A80036; stroke-width: 1.0;" x1="41" x2="41" y1="494.9258" y2="539.1914"/><line style="stroke: #A80036; stroke-width: 1.0; stroke-dasharray: 1.0,4.0;" x1="41" x2="41" y1="539.1914" y2="580.1465"/><line style="stroke: #A80036; stroke-width: 1.0;" x1="41" x2="41" y1="580.1465" y2="624.4121"/><line style="stroke: #A80036; stroke-width: 1.0; stroke-dasharray: 1.0,4.0;" x1="41" x2="41" y1="624.4121" y2="665.3672"/><line style="stroke: #A80036; stroke-width: 1.0;" x1="41" x2="41" y1="665.3672" y2="682.3672"/><line style="stroke: #A80036; stroke-width: 1.0;" x1="157" x2="157" y1="86.4883" y2="283.5293"/><line style="stroke: #A80036; stroke-width: 1.0; stroke-dasharray: 1.0,4.0;" x1="157" x2="157" y1="283.5293" y2="324.4844"/><line style="stroke: #A80036; stroke-width: 1.0;" x1="157" x2="157" y1="324.4844" y2="368.75"/><line style="stroke: #A80036; stroke-width: 1.0; stroke-dasharray: 1.0,4.0;" x1="157" x2="157" y1="368.75" y2="409.7051"/><line style="stroke: #A80036; stroke-width: 1.0;" x1="157" x2="157" y1="409.7051" y2="453.9707"/><line style="stroke: #A80036; stroke-width: 1.0; stroke-dasharray: 1.0,4.0;" x1="157" x2="157" y1="453.9707" y2="494.9258"/><line style="stroke: #A80036; stroke-width: 1.0;" x1="157" x2="157" y1="494.9258" y2="539.1914"/><line style="stroke: #A80036; stroke-width: 1.0; stroke-dasharray: 1.0,4.0;" x1="157" x2="157" y1="539.1914" y2="580.1465"/><line style="stroke: #A80036; stroke-width: 1.0;" x1="157" x2="157" y1="580.1465" y2="624.4121"/><line style="stroke: #A80036; stroke-width: 1.0; stroke-dasharray: 1.0,4.0;" x1="157" x2="157" y1="624.4121" y2="665.3672"/><line style="stroke: #A80036; stroke-width: 1.0;" x1="157" x2="157" y1="665.3672" y2="682.3672"/><line style="stroke: #A80036; stroke-width: 1.0;" x1="369" x2="369" y1="129.2324" y2="283.5293"/><line style="stroke: #A80036; stroke-width: 1.0; stroke-dasharray: 1.0,4.0;" x1="369" x2="369" y1="283.5293" y2="324.4844"/><line style="stroke: #A80036; stroke-width: 1.0;" x1="369" x2="369" y1="324.4844" y2="368.75"/><line style="stroke: #A80036; stroke-width: 1.0; stroke-dasharray: 1.0,4.0;" x1="369" x2="369" y1="368.75" y2="409.7051"/><line style="stroke: #A80036; stroke-width: 1.0;" x1="369" x2="369" y1="409.7051" y2="453.9707"/><line style="stroke: #A80036; stroke-width: 1.0; stroke-dasharray: 1.0,4.0;" x1="369" x2="369" y1="453.9707" y2="494.9258"/><line style="stroke: #A80036; stroke-width: 1.0;" x1="369" x2="369" y1="494.9258" y2="539.1914"/><line style="stroke: #A80036; stroke-width: 1.0; stroke-dasharray: 1.0,4.0;" x1="369" x2="369" y1="539.1914" y2="580.1465"/><line style="stroke: #A80036; stroke-width: 1.0;" x1="369" x2="369" y1="580.1465" y2="624.4121"/><line style="stroke: #A80036; stroke-width: 1.0; stroke-dasharray: 1.0,4.0;" x1="369" x2="369" y1="624.4121" y2="665.3672"/><line style="stroke: #A80036; stroke-width: 1.0;" x1="369" x2="369" y1="665.3672" y2="682.3672"/><line style="stroke: #A80036; stroke-width: 1.0;" x1="650.5" x2="650.5" y1="86.4883" y2="283.5293"/><line style="stroke: #A80036; stroke-width: 1.0; stroke-dasharray: 1.0,4.0;" x1="650.5" x2="650.5" y1="283.5293" y2="324.4844"/><line style="stroke: #A80036; stroke-width: 1.0;" x1="650.5" x2="650.5" y1="324.4844" y2="368.75"/><line style="stroke: #A80036; stroke-width: 1.0; stroke-dasharray: 1.0,4.0;" x1="650.5" x2="650.5" y1="368.75" y2="409.7051"/><line style="stroke: #A80036; stroke-width: 1.0;" x1="650.5" x2="650.5" y1="409.7051" y2="453.9707"/><line style="stroke: #A80036; stroke-width: 1.0; stroke-dasharray: 1.0,4.0;" x1="650.5" x2="650.5" y1="453.9707" y2="494.9258"/><line style="stroke: #A80036; stroke-width: 1.0;" x1="650.5" x2="650.5" y1="494.9258" y2="539.1914"/><line style="stroke: #A80036; stroke-width: 1.0; stroke-dasharray: 1.0,4.0;" x1="650.5" x2="650.5" y1="539.1914" y2="580.1465"/><line style="stroke: #A80036; stroke-width: 1.0;" x1="650.5" x2="650.5" y1="580.1465" y2="624.4121"/><line style="stroke: #A80036; stroke-width: 1.0; stroke-dasharray: 1.0,4.0;" x1="650.5" x2="650.5" y1="624.4121" y2="665.3672"/><line style="stroke: #A80036; stroke-width: 1.0;" x1="650.5" x2="650.5" y1="665.3672" y2="682.3672"/><text fill="#000000" font-family="sans-serif" font-size="14" lengthAdjust="spacingAndGlyphs" text-decoration="underline" textLength="31" x="23" y="83.5352">User</text><line style="stroke: #000000; stroke-width: 1.0;" x1="23" x2="54" y1="85.5352" y2="85.5352"/><ellipse cx="41.5" cy="13" fill="#FEFECE" filter="url(#f9vh8pmwqqmuc)" rx="8" ry="8" style="stroke: #A80036; stroke-width: 2.0;"/><path d="M41.5,21 L41.5,48 M28.5,29 L54.5,29 M41.5,48 L28.5,63 M41.5,48 L54.5,63 " fill="none" filter="url(#f9vh8pmwqqmuc)" style="stroke: #A80036; stroke-width: 2.0;"/><rect fill="#FEFECE" filter="url(#f9vh8pmwqqmuc)" height="30.4883" style="stroke: #A80036; stroke-width: 1.5;" width="171" x="70" y="51"/><text fill="#000000" font-family="sans-serif" font-size="14" lengthAdjust="spacingAndGlyphs" text-decoration="underline" textLength="157" x="77" y="71.5352">:LocalVSSManagerPage</text><line style="stroke: #000000; stroke-width: 1.0;" x1="77" x2="234" y1="73.5352" y2="73.5352"/><rect fill="#FEFECE" filter="url(#f9vh8pmwqqmuc)" height="30.4883" style="stroke: #A80036; stroke-width: 1.5;" width="184" x="556.5" y="51"/><text fill="#000000" font-family="sans-serif" font-size="14" lengthAdjust="spacingAndGlyphs" text-decoration="underline" textLength="170" x="563.5" y="71.5352">:LocalSoundSpaceLibrary</text><line style="stroke: #000000; stroke-width: 1.0;" x1="563.5" x2="733.5" y1="73.5352" y2="73.5352"/><polygon fill="#A80036" points="267,113.4883,277,117.4883,267,121.4883,271,117.4883" style="stroke: #A80036; stroke-width: 1.0;"/><line style="stroke: #A80036; stroke-width: 1.0;" x1="157.5" x2="273" y1="117.4883" y2="117.4883"/><text fill="#000000" font-family="sans-serif" font-size="13" lengthAdjust="spacingAndGlyphs" textLength="78" x="164.5" y="113.0566">&lt;&lt;create&gt;&gt;</text><rect fill="#FEFECE" filter="url(#f9vh8pmwqqmuc)" height="30.4883" style="stroke: #A80036; stroke-width: 1.5;" width="177" x="279" y="96.4883"/><text fill="#000000" font-family="sans-serif" font-size="14" lengthAdjust="spacingAndGlyphs" text-decoration="underline" textLength="163" x="286" y="117.0234">:LocalVSSLibraryControl</text><line style="stroke: #000000; stroke-width: 1.0;" x1="286" x2="449" y1="119.0234" y2="119.0234"/><polygon fill="#A80036" points="638.5,158.9766,648.5,162.9766,638.5,166.9766,642.5,162.9766" style="stroke: #A80036; stroke-width: 1.0;"/><line style="stroke: #A80036; stroke-width: 1.0;" x1="369.5" x2="644.5" y1="162.9766" y2="162.9766"/><text fill="#000000" font-family="sans-serif" font-size="13" lengthAdjust="spacingAndGlyphs" textLength="137" x="376.5" y="158.5449">getLocalVSSList(): List</text><polygon fill="#A80036" points="380.5,188.2871,370.5,192.2871,380.5,196.2871,376.5,192.2871" style="stroke: #A80036; stroke-width: 1.0;"/><line style="stroke: #A80036; stroke-width: 1.0;" x1="374.5" x2="649.5" y1="192.2871" y2="192.2871"/><text fill="#000000" font-family="sans-serif" font-size="13" lengthAdjust="spacingAndGlyphs" textLength="257" x="386.5" y="187.8555">listOfLocalVSS: List&lt;VirtualSoundSpace&gt;</text><polygon fill="#A80036" points="168.5,217.5977,158.5,221.5977,168.5,225.5977,164.5,221.5977" style="stroke: #A80036; stroke-width: 1.0;"/><line style="stroke: #A80036; stroke-width: 1.0;" x1="162.5" x2="368.5" y1="221.5977" y2="221.5977"/><text fill="#000000" font-family="sans-serif" font-size="13" lengthAdjust="spacingAndGlyphs" textLength="188" x="174.5" y="217.166">displayVSSList(listOfLocalVSS)</text><path d="M13,236.9082 L75,236.9082 L75,243.9082 L65,253.9082 L13,253.9082 L13,236.9082 " fill="#EEEEEE" style="stroke: #000000; stroke-width: 1.0;"/><rect fill="none" height="428.459" style="stroke: #000000; stroke-width: 2.0;" width="242" x="13" y="236.9082"/><text fill="#000000" font-family="sans-serif" font-size="13" font-weight="bold" lengthAdjust="spacingAndGlyphs" textLength="17" x="28" y="250.4766">alt</text><text fill="#000000" font-family="sans-serif" font-size="11" font-weight="bold" lengthAdjust="spacingAndGlyphs" textLength="63" x="90" y="249.543">[CreateVSS]</text><polygon fill="#A80036" points="145.5,271.2188,155.5,275.2188,145.5,279.2188,149.5,275.2188" style="stroke: #A80036; stroke-width: 1.0;"/><line style="stroke: #A80036; stroke-width: 1.0;" x1="41.5" x2="151.5" y1="275.2188" y2="275.2188"/><text fill="#000000" font-family="sans-serif" font-size="13" lengthAdjust="spacingAndGlyphs" textLength="60" x="48.5" y="270.7871">createVSS</text><text fill="#000000" font-family="sans-serif" font-size="11" lengthAdjust="spacingAndGlyphs" textLength="109" x="291.5" y="308.1641">described in PlayVSS</text><line style="stroke: #000000; stroke-width: 1.0; stroke-dasharray: 2.0,2.0;" x1="13" x2="255" y1="325.4844" y2="325.4844"/><text fill="#000000" font-family="sans-serif" font-size="11" font-weight="bold" lengthAdjust="spacingAndGlyphs" textLength="72" x="18" y="336.1191">[RenameVSS]</text><polygon fill="#A80036" points="145.5,356.4395,155.5,360.4395,145.5,364.4395,149.5,360.4395" style="stroke: #A80036; stroke-width: 1.0;"/><line style="stroke: #A80036; stroke-width: 1.0;" x1="41.5" x2="151.5" y1="360.4395" y2="360.4395"/><text fill="#000000" font-family="sans-serif" font-size="13" lengthAdjust="spacingAndGlyphs" textLength="68" x="48.5" y="356.0078">renameVSS</text><text fill="#000000" font-family="sans-serif" font-size="11" lengthAdjust="spacingAndGlyphs" textLength="130" x="281" y="393.3848">described in RenameVSS</text><line style="stroke: #000000; stroke-width: 1.0; stroke-dasharray: 2.0,2.0;" x1="13" x2="255" y1="410.7051" y2="410.7051"/><text fill="#000000" font-family="sans-serif" font-size="11" font-weight="bold" lengthAdjust="spacingAndGlyphs" textLength="63" x="18" y="421.3398">[DeleteVSS]</text><polygon fill="#A80036" points="145.5,441.6602,155.5,445.6602,145.5,449.6602,149.5,445.6602" style="stroke: #A80036; stroke-width: 1.0;"/><line style="stroke: #A80036; stroke-width: 1.0;" x1="41.5" x2="151.5" y1="445.6602" y2="445.6602"/><text fill="#000000" font-family="sans-serif" font-size="13" lengthAdjust="spacingAndGlyphs" textLength="60" x="48.5" y="441.2285">deleteVSS</text><text fill="#000000" font-family="sans-serif" font-size="11" lengthAdjust="spacingAndGlyphs" textLength="121" x="285.5" y="478.6055">described in DeleteVSS</text><line style="stroke: #000000; stroke-width: 1.0; stroke-dasharray: 2.0,2.0;" x1="13" x2="255" y1="495.9258" y2="495.9258"/><text fill="#000000" font-family="sans-serif" font-size="11" font-weight="bold" lengthAdjust="spacingAndGlyphs" textLength="67" x="18" y="506.5605">[UploadVSS]</text><polygon fill="#A80036" points="145.5,526.8809,155.5,530.8809,145.5,534.8809,149.5,530.8809" style="stroke: #A80036; stroke-width: 1.0;"/><line style="stroke: #A80036; stroke-width: 1.0;" x1="41.5" x2="151.5" y1="530.8809" y2="530.8809"/><text fill="#000000" font-family="sans-serif" font-size="13" lengthAdjust="spacingAndGlyphs" textLength="65" x="48.5" y="526.4492">uploadVSS</text><text fill="#000000" font-family="sans-serif" font-size="11" lengthAdjust="spacingAndGlyphs" textLength="126" x="283" y="563.8262">described in UploadVSS</text><line style="stroke: #000000; stroke-width: 1.0; stroke-dasharray: 2.0,2.0;" x1="13" x2="255" y1="581.1465" y2="581.1465"/><text fill="#000000" font-family="sans-serif" font-size="11" font-weight="bold" lengthAdjust="spacingAndGlyphs" textLength="72" x="18" y="591.7813">[PreviewVSS]</text><polygon fill="#A80036" points="145.5,612.1016,155.5,616.1016,145.5,620.1016,149.5,616.1016" style="stroke: #A80036; stroke-width: 1.0;"/><line style="stroke: #A80036; stroke-width: 1.0;" x1="41.5" x2="151.5" y1="616.1016" y2="616.1016"/><text fill="#000000" font-family="sans-serif" font-size="13" lengthAdjust="spacingAndGlyphs" textLength="70" x="48.5" y="611.6699">previewVSS</text><text fill="#000000" font-family="sans-serif" font-size="11" lengthAdjust="spacingAndGlyphs" textLength="128" x="282" y="649.0469">described in PreviewVSS</text><!--
@startuml ManageLocalVSSLibrary
hide footbox
skinparam sequenceParticipant underline

actor User as user
participant ":LocalVSSManagerPage" as boundary
participant ":LocalVSSLibraryControl" as control
participant ":LocalSoundSpaceLibrary" as library

create control
boundary -> control: <<create>>
control -> library: getLocalVSSList(): List
library -> control: listOfLocalVSS: List<VirtualSoundSpace>
control -> boundary: displayVSSList(listOfLocalVSS)


alt CreateVSS
    user -> boundary: createVSS
    ...described in PlayVSS...
else RenameVSS
    user -> boundary: renameVSS
    ...described in RenameVSS...
else DeleteVSS
    user -> boundary: deleteVSS
    ...described in DeleteVSS...
else UploadVSS
    user -> boundary: uploadVSS
    ...described in UploadVSS...
else PreviewVSS
    user -> boundary: previewVSS
    ...described in PreviewVSS...
end
@enduml

PlantUML version 1.2018.01(Mon Jan 29 02:08:22 CST 2018)
(GPL source distribution)
Java Runtime: Java(TM) SE Runtime Environment
JVM: Java HotSpot(TM) 64-Bit Server VM
Java Version: 9+181
Operating System: Mac OS X
OS Version: 10.12.6
Default Encoding: UTF-8
Language: zh
Country: CN
--></g></svg>