<?xml version="1.0" encoding="UTF-8" standalone="no"?><svg xmlns="http://www.w3.org/2000/svg" xmlns:xlink="http://www.w3.org/1999/xlink" contentScriptType="application/ecmascript" contentStyleType="text/css" height="1175px" preserveAspectRatio="none" style="width:1032px;height:1175px;" version="1.1" viewBox="0 0 1032 1175"
    width="1032px" zoomAndPan="magnify"><defs><filter height="300%" id="f12mdhvhr994wh" width="300%" x="-1" y="-1"><feGaussianBlur result="blurOut" stdDeviation="2.0"/><feColorMatrix in="blurOut" result="blurOut2" type="matrix" values="0 0 0 0 0 0 0 0 0 0 0 0 0 0 0 0 0 0 .4 0"/><feOffset dx="4.0" dy="4.0" in="blurOut2" result="blurOut3"/><feBlend in="SourceGraphic" in2="blurOut3" mode="normal"/></filter></defs><g><rect fill="#FEFECE" filter="url(#f12mdhvhr994wh)" height="30.4883" style="stroke: #A80036; stroke-width: 1.5;" width="151" x="292.5" y="125.7988"/><text fill="#000000" font-family="sans-serif" font-size="14" lengthAdjust="spacingAndGlyphs" text-decoration="underline" textLength="137" x="299.5" y="146.334">:MapVSSPlayControl</text><line style="stroke: #000000; stroke-width: 1.0;" x1="299.5" x2="436.5" y1="148.334" y2="148.334"/><rect fill="#FEFECE" filter="url(#f12mdhvhr994wh)" height="30.4883" style="stroke: #A80036; stroke-width: 1.5;" width="65" x="685.5" y="259.2188"/><text fill="#000000" font-family="sans-serif" font-size="14" lengthAdjust="spacingAndGlyphs" text-decoration="underline" textLength="51" x="692.5" y="279.7539">:Sensor</text><line style="stroke: #000000; stroke-width: 1.0;" x1="692.5" x2="743.5" y1="281.7539" y2="281.7539"/><rect fill="#FEFECE" filter="url(#f12mdhvhr994wh)" height="30.4883" style="stroke: #A80036; stroke-width: 1.5;" width="134" x="764.5" y="304.707"/><text fill="#000000" font-family="sans-serif" font-size="14" lengthAdjust="spacingAndGlyphs" text-decoration="underline" textLength="120" x="771.5" y="325.2422">:GVRAudioEngine</text><line style="stroke: #000000; stroke-width: 1.0;" x1="771.5" x2="891.5" y1="327.2422" y2="327.2422"/><rect fill="#FEFECE" filter="url(#f12mdhvhr994wh)" height="30.4883" style="stroke: #A80036; stroke-width: 1.5;" width="109" x="912.5" y="350.1953"/><text fill="#000000" font-family="sans-serif" font-size="14" lengthAdjust="spacingAndGlyphs" text-decoration="underline" textLength="95" x="919.5" y="370.7305">:AdjustSensor</text><line style="stroke: #000000; stroke-width: 1.0;" x1="919.5" x2="1014.5" y1="372.7305" y2="372.7305"/><rect fill="#FFFFFF" filter="url(#f12mdhvhr994wh)" height="543.1445" style="stroke: #000000; stroke-width: 2.0;" width="963" x="13" y="485.9492"/><rect fill="#FFFFFF" filter="url(#f12mdhvhr994wh)" height="413.9023" style="stroke: #000000; stroke-width: 2.0;" width="889.5" x="23" y="608.1914"/><rect fill="#FFFFFF" height="102.8867" style="stroke: none; stroke-width: 1.0;" width="889.5" x="23" y="713.4336"/><rect fill="#FFFFFF" height="102.8867" style="stroke: none; stroke-width: 1.0;" width="889.5" x="23" y="816.3203"/><rect fill="#FFFFFF" height="102.8867" style="stroke: none; stroke-width: 1.0;" width="889.5" x="23" y="919.207"/><line style="stroke: #A80036; stroke-width: 1.0;" x1="51" x2="51" y1="86.4883" y2="395.6836"/><line style="stroke: #A80036; stroke-width: 1.0; stroke-dasharray: 1.0,4.0;" x1="51" x2="51" y1="395.6836" y2="436.6387"/><line style="stroke: #A80036; stroke-width: 1.0;" x1="51" x2="51" y1="436.6387" y2="1163.3359"/><line style="stroke: #A80036; stroke-width: 1.0;" x1="190.5" x2="190.5" y1="86.4883" y2="395.6836"/><line style="stroke: #A80036; stroke-width: 1.0; stroke-dasharray: 1.0,4.0;" x1="190.5" x2="190.5" y1="395.6836" y2="436.6387"/><line style="stroke: #A80036; stroke-width: 1.0;" x1="190.5" x2="190.5" y1="436.6387" y2="1163.3359"/><line style="stroke: #A80036; stroke-width: 1.0;" x1="369.5" x2="369.5" y1="158.543" y2="395.6836"/><line style="stroke: #A80036; stroke-width: 1.0; stroke-dasharray: 1.0,4.0;" x1="369.5" x2="369.5" y1="395.6836" y2="436.6387"/><line style="stroke: #A80036; stroke-width: 1.0;" x1="369.5" x2="369.5" y1="436.6387" y2="1163.3359"/><line style="stroke: #A80036; stroke-width: 1.0;" x1="566.5" x2="566.5" y1="86.4883" y2="395.6836"/><line style="stroke: #A80036; stroke-width: 1.0; stroke-dasharray: 1.0,4.0;" x1="566.5" x2="566.5" y1="395.6836" y2="436.6387"/><line style="stroke: #A80036; stroke-width: 1.0;" x1="566.5" x2="566.5" y1="436.6387" y2="1163.3359"/><line style="stroke: #A80036; stroke-width: 1.0;" x1="719.5" x2="719.5" y1="291.9629" y2="395.6836"/><line style="stroke: #A80036; stroke-width: 1.0; stroke-dasharray: 1.0,4.0;" x1="719.5" x2="719.5" y1="395.6836" y2="436.6387"/><line style="stroke: #A80036; stroke-width: 1.0;" x1="719.5" x2="719.5" y1="436.6387" y2="1163.3359"/><line style="stroke: #A80036; stroke-width: 1.0;" x1="833.5" x2="833.5" y1="337.4512" y2="395.6836"/><line style="stroke: #A80036; stroke-width: 1.0; stroke-dasharray: 1.0,4.0;" x1="833.5" x2="833.5" y1="395.6836" y2="436.6387"/><line style="stroke: #A80036; stroke-width: 1.0;" x1="833.5" x2="833.5" y1="436.6387" y2="1163.3359"/><line style="stroke: #A80036; stroke-width: 1.0;" x1="968.5" x2="968.5" y1="382.9395" y2="395.6836"/><line style="stroke: #A80036; stroke-width: 1.0; stroke-dasharray: 1.0,4.0;" x1="968.5" x2="968.5" y1="395.6836" y2="436.6387"/><line style="stroke: #A80036; stroke-width: 1.0;" x1="968.5" x2="968.5" y1="436.6387" y2="1163.3359"/><text fill="#000000" font-family="sans-serif" font-size="14" lengthAdjust="spacingAndGlyphs" text-decoration="underline" textLength="31" x="33" y="83.5352">User</text><line style="stroke: #000000; stroke-width: 1.0;" x1="33" x2="64" y1="85.5352" y2="85.5352"/><ellipse cx="51.5" cy="13" fill="#FEFECE" filter="url(#f12mdhvhr994wh)" rx="8" ry="8" style="stroke: #A80036; stroke-width: 2.0;"/><path d="M51.5,21 L51.5,48 M38.5,29 L64.5,29 M51.5,48 L38.5,63 M51.5,48 L64.5,63 " fill="none" filter="url(#f12mdhvhr994wh)" style="stroke: #A80036; stroke-width: 2.0;"/><rect fill="#FEFECE" filter="url(#f12mdhvhr994wh)" height="30.4883" style="stroke: #A80036; stroke-width: 1.5;" width="170" x="103.5" y="51"/><text fill="#000000" font-family="sans-serif" font-size="14" lengthAdjust="spacingAndGlyphs" text-decoration="underline" textLength="156" x="110.5" y="71.5352">:PlayMapModeVSSPage</text><line style="stroke: #000000; stroke-width: 1.0;" x1="110.5" x2="266.5" y1="73.5352" y2="73.5352"/><rect fill="#FEFECE" filter="url(#f12mdhvhr994wh)" height="30.4883" style="stroke: #A80036; stroke-width: 1.5;" width="214" x="457.5" y="51"/><text fill="#000000" font-family="sans-serif" font-size="14" lengthAdjust="spacingAndGlyphs" text-decoration="underline" textLength="200" x="464.5" y="71.5352">:MapModeVirtualSoundSpace</text><line style="stroke: #000000; stroke-width: 1.0;" x1="464.5" x2="664.5" y1="73.5352" y2="73.5352"/><polygon fill="#A80036" points="178.5,113.4883,188.5,117.4883,178.5,121.4883,182.5,117.4883" style="stroke: #A80036; stroke-width: 1.0;"/><line style="stroke: #A80036; stroke-width: 1.0;" x1="3" x2="184.5" y1="117.4883" y2="117.4883"/><text fill="#000000" font-family="sans-serif" font-size="13" lengthAdjust="spacingAndGlyphs" textLength="78" x="10" y="113.0566">&lt;&lt;create&gt;&gt;</text><polygon fill="#A80036" points="280.5,142.7988,290.5,146.7988,280.5,150.7988,284.5,146.7988" style="stroke: #A80036; stroke-width: 1.0;"/><line style="stroke: #A80036; stroke-width: 1.0;" x1="190.5" x2="286.5" y1="146.7988" y2="146.7988"/><text fill="#000000" font-family="sans-serif" font-size="13" lengthAdjust="spacingAndGlyphs" textLength="78" x="197.5" y="142.3672">&lt;&lt;create&gt;&gt;</text><rect fill="#FEFECE" filter="url(#f12mdhvhr994wh)" height="30.4883" style="stroke: #A80036; stroke-width: 1.5;" width="151" x="292.5" y="125.7988"/><text fill="#000000" font-family="sans-serif" font-size="14" lengthAdjust="spacingAndGlyphs" text-decoration="underline" textLength="137" x="299.5" y="146.334">:MapVSSPlayControl</text><line style="stroke: #000000; stroke-width: 1.0;" x1="299.5" x2="436.5" y1="148.334" y2="148.334"/><polygon fill="#A80036" points="554.5,188.2871,564.5,192.2871,554.5,196.2871,558.5,192.2871" style="stroke: #A80036; stroke-width: 1.0;"/><line style="stroke: #A80036; stroke-width: 1.0;" x1="370" x2="560.5" y1="192.2871" y2="192.2871"/><text fill="#000000" font-family="sans-serif" font-size="13" lengthAdjust="spacingAndGlyphs" textLength="116" x="377" y="187.8555">getSoundSources()</text><polygon fill="#A80036" points="381,217.5977,371,221.5977,381,225.5977,377,221.5977" style="stroke: #A80036; stroke-width: 1.0;"/><line style="stroke: #A80036; stroke-width: 1.0; stroke-dasharray: 2.0,2.0;" x1="375" x2="565.5" y1="221.5977" y2="221.5977"/><text fill="#000000" font-family="sans-serif" font-size="13" lengthAdjust="spacingAndGlyphs" textLength="104" x="387" y="217.166">soundSourceList</text><polygon fill="#A80036" points="201.5,246.9082,191.5,250.9082,201.5,254.9082,197.5,250.9082" style="stroke: #A80036; stroke-width: 1.0;"/><line style="stroke: #A80036; stroke-width: 1.0;" x1="195.5" x2="369" y1="250.9082" y2="250.9082"/><text fill="#000000" font-family="sans-serif" font-size="13" lengthAdjust="spacingAndGlyphs" textLength="149" x="207.5" y="246.4766">displaySoundSourceList</text><polygon fill="#A80036" points="673.5,276.2188,683.5,280.2188,673.5,284.2188,677.5,280.2188" style="stroke: #A80036; stroke-width: 1.0;"/><line style="stroke: #A80036; stroke-width: 1.0;" x1="370" x2="679.5" y1="280.2188" y2="280.2188"/><text fill="#000000" font-family="sans-serif" font-size="13" lengthAdjust="spacingAndGlyphs" textLength="78" x="377" y="275.7871">&lt;&lt;create&gt;&gt;</text><rect fill="#FEFECE" filter="url(#f12mdhvhr994wh)" height="30.4883" style="stroke: #A80036; stroke-width: 1.5;" width="65" x="685.5" y="259.2188"/><text fill="#000000" font-family="sans-serif" font-size="14" lengthAdjust="spacingAndGlyphs" text-decoration="underline" textLength="51" x="692.5" y="279.7539">:Sensor</text><line style="stroke: #000000; stroke-width: 1.0;" x1="692.5" x2="743.5" y1="281.7539" y2="281.7539"/><polygon fill="#A80036" points="752.5,321.707,762.5,325.707,752.5,329.707,756.5,325.707" style="stroke: #A80036; stroke-width: 1.0;"/><line style="stroke: #A80036; stroke-width: 1.0;" x1="370" x2="758.5" y1="325.707" y2="325.707"/><text fill="#000000" font-family="sans-serif" font-size="13" lengthAdjust="spacingAndGlyphs" textLength="78" x="377" y="321.2754">&lt;&lt;create&gt;&gt;</text><rect fill="#FEFECE" filter="url(#f12mdhvhr994wh)" height="30.4883" style="stroke: #A80036; stroke-width: 1.5;" width="134" x="764.5" y="304.707"/><text fill="#000000" font-family="sans-serif" font-size="14" lengthAdjust="spacingAndGlyphs" text-decoration="underline" textLength="120" x="771.5" y="325.2422">:GVRAudioEngine</text><line style="stroke: #000000; stroke-width: 1.0;" x1="771.5" x2="891.5" y1="327.2422" y2="327.2422"/><polygon fill="#A80036" points="900.5,367.1953,910.5,371.1953,900.5,375.1953,904.5,371.1953" style="stroke: #A80036; stroke-width: 1.0;"/><line style="stroke: #A80036; stroke-width: 1.0;" x1="370" x2="906.5" y1="371.1953" y2="371.1953"/><text fill="#000000" font-family="sans-serif" font-size="13" lengthAdjust="spacingAndGlyphs" textLength="78" x="377" y="366.7637">&lt;&lt;create&gt;&gt;</text><rect fill="#FEFECE" filter="url(#f12mdhvhr994wh)" height="30.4883" style="stroke: #A80036; stroke-width: 1.5;" width="109" x="912.5" y="350.1953"/><text fill="#000000" font-family="sans-serif" font-size="14" lengthAdjust="spacingAndGlyphs" text-decoration="underline" textLength="95" x="919.5" y="370.7305">:AdjustSensor</text><line style="stroke: #000000; stroke-width: 1.0;" x1="919.5" x2="1014.5" y1="372.7305" y2="372.7305"/><text fill="#000000" font-family="sans-serif" font-size="11" lengthAdjust="spacingAndGlyphs" textLength="73" x="473.75" y="420.3184">adjust sensor</text><line style="stroke: #A80036; stroke-width: 1.0;" x1="51.5" x2="93.5" y1="457.9492" y2="457.9492"/><line style="stroke: #A80036; stroke-width: 1.0;" x1="93.5" x2="93.5" y1="457.9492" y2="470.9492"/><line style="stroke: #A80036; stroke-width: 1.0;" x1="52.5" x2="93.5" y1="470.9492" y2="470.9492"/><polygon fill="#A80036" points="62.5,466.9492,52.5,470.9492,62.5,474.9492,58.5,470.9492" style="stroke: #A80036; stroke-width: 1.0;"/><text fill="#000000" font-family="sans-serif" font-size="13" lengthAdjust="spacingAndGlyphs" textLength="48" x="58.5" y="453.207">wakeup</text><line style="stroke: #A80036; stroke-width: 2.0;" x1="960" x2="978" y1="461.6387" y2="479.6387"/><line style="stroke: #A80036; stroke-width: 2.0;" x1="960" x2="978" y1="479.6387" y2="461.6387"/><path d="M13,485.9492 L87,485.9492 L87,492.9492 L77,502.9492 L13,502.9492 L13,485.9492 " fill="#EEEEEE" style="stroke: #000000; stroke-width: 1.0;"/><rect fill="none" height="543.1445" style="stroke: #000000; stroke-width: 2.0;" width="963" x="13" y="485.9492"/><text fill="#000000" font-family="sans-serif" font-size="13" font-weight="bold" lengthAdjust="spacingAndGlyphs" textLength="29" x="28" y="499.5176">loop</text><polygon fill="#A80036" points="708,525.2598,718,529.2598,708,529.2598" style="stroke: #A80036; stroke-width: 1.0;"/><line style="stroke: #A80036; stroke-width: 1.0;" x1="370" x2="719" y1="529.2598" y2="529.2598"/><text fill="#000000" font-family="sans-serif" font-size="13" lengthAdjust="spacingAndGlyphs" textLength="129" x="377" y="524.8281">getCurrentLocation()</text><path d="M725,508.2598 L725,533.2598 L957,533.2598 L957,518.2598 L947,508.2598 L725,508.2598 " fill="#FBFB77" filter="url(#f12mdhvhr994wh)" style="stroke: #A80036; stroke-width: 1.0;"/><path d="M947,508.2598 L947,518.2598 L957,518.2598 L947,508.2598 " fill="#FBFB77" style="stroke: #A80036; stroke-width: 1.0;"/><text fill="#000000" font-family="sans-serif" font-size="13" lengthAdjust="spacingAndGlyphs" textLength="211" x="731" y="525.8281">async message, in another thread</text><polygon fill="#A80036" points="381,559.5703,371,563.5703,381,563.5703" style="stroke: #A80036; stroke-width: 1.0;"/><line style="stroke: #A80036; stroke-width: 1.0; stroke-dasharray: 2.0,2.0;" x1="370" x2="719" y1="563.5703" y2="563.5703"/><text fill="#000000" font-family="sans-serif" font-size="13" lengthAdjust="spacingAndGlyphs" textLength="99" x="387" y="559.1387">currentLocation</text><polygon fill="#A80036" points="821.5,588.8809,831.5,592.8809,821.5,596.8809,825.5,592.8809" style="stroke: #A80036; stroke-width: 1.0;"/><line style="stroke: #A80036; stroke-width: 1.0;" x1="370" x2="827.5" y1="592.8809" y2="592.8809"/><text fill="#000000" font-family="sans-serif" font-size="13" lengthAdjust="spacingAndGlyphs" textLength="251" x="377" y="588.4492">updateCurrentLocation(currentLocation)</text><path d="M23,608.1914 L85,608.1914 L85,615.1914 L75,625.1914 L23,625.1914 L23,608.1914 " fill="#EEEEEE" style="stroke: #000000; stroke-width: 1.0;"/><rect fill="none" height="413.9023" style="stroke: #000000; stroke-width: 2.0;" width="889.5" x="23" y="608.1914"/><text fill="#000000" font-family="sans-serif" font-size="13" font-weight="bold" lengthAdjust="spacingAndGlyphs" textLength="17" x="38" y="621.7598">alt</text><text fill="#000000" font-family="sans-serif" font-size="11" font-weight="bold" lengthAdjust="spacingAndGlyphs" textLength="56" x="100" y="620.8262">[startPlay&#8;]</text><polygon fill="#A80036" points="178.5,642.502,188.5,646.502,178.5,650.502,182.5,646.502" style="stroke: #A80036; stroke-width: 1.0;"/><line style="stroke: #A80036; stroke-width: 1.0;" x1="51.5" x2="184.5" y1="646.502" y2="646.502"/><text fill="#000000" font-family="sans-serif" font-size="13" lengthAdjust="spacingAndGlyphs" textLength="115" x="58.5" y="642.0703">play(soundSource)</text><polygon fill="#A80036" points="358,671.8125,368,675.8125,358,679.8125,362,675.8125" style="stroke: #A80036; stroke-width: 1.0;"/><line style="stroke: #A80036; stroke-width: 1.0;" x1="190.5" x2="364" y1="675.8125" y2="675.8125"/><text fill="#000000" font-family="sans-serif" font-size="13" lengthAdjust="spacingAndGlyphs" textLength="115" x="197.5" y="671.3809">play(soundSource)</text><polygon fill="#A80036" points="821.5,701.123,831.5,705.123,821.5,709.123,825.5,705.123" style="stroke: #A80036; stroke-width: 1.0;"/><line style="stroke: #A80036; stroke-width: 1.0;" x1="370" x2="827.5" y1="705.123" y2="705.123"/><text fill="#000000" font-family="sans-serif" font-size="13" lengthAdjust="spacingAndGlyphs" textLength="132" x="377" y="700.6914">play(soundFragment)</text><line style="stroke: #000000; stroke-width: 1.0; stroke-dasharray: 2.0,2.0;" x1="23" x2="912.5" y1="714.4336" y2="714.4336"/><text fill="#000000" font-family="sans-serif" font-size="11" font-weight="bold" lengthAdjust="spacingAndGlyphs" textLength="40" x="28" y="725.0684">[pause]</text><polygon fill="#A80036" points="178.5,745.3887,188.5,749.3887,178.5,753.3887,182.5,749.3887" style="stroke: #A80036; stroke-width: 1.0;"/><line style="stroke: #A80036; stroke-width: 1.0;" x1="51.5" x2="184.5" y1="749.3887" y2="749.3887"/><text fill="#000000" font-family="sans-serif" font-size="13" lengthAdjust="spacingAndGlyphs" textLength="45" x="58.5" y="744.957">pause()</text><polygon fill="#A80036" points="358,774.6992,368,778.6992,358,782.6992,362,778.6992" style="stroke: #A80036; stroke-width: 1.0;"/><line style="stroke: #A80036; stroke-width: 1.0;" x1="190.5" x2="364" y1="778.6992" y2="778.6992"/><text fill="#000000" font-family="sans-serif" font-size="13" lengthAdjust="spacingAndGlyphs" textLength="45" x="197.5" y="774.2676">pause()</text><polygon fill="#A80036" points="821.5,804.0098,831.5,808.0098,821.5,812.0098,825.5,808.0098" style="stroke: #A80036; stroke-width: 1.0;"/><line style="stroke: #A80036; stroke-width: 1.0;" x1="370" x2="827.5" y1="808.0098" y2="808.0098"/><text fill="#000000" font-family="sans-serif" font-size="13" lengthAdjust="spacingAndGlyphs" textLength="45" x="377" y="803.5781">pause()</text><line style="stroke: #000000; stroke-width: 1.0; stroke-dasharray: 2.0,2.0;" x1="23" x2="912.5" y1="817.3203" y2="817.3203"/><text fill="#000000" font-family="sans-serif" font-size="11" font-weight="bold" lengthAdjust="spacingAndGlyphs" textLength="31" x="28" y="827.9551">[next]</text><polygon fill="#A80036" points="178.5,848.2754,188.5,852.2754,178.5,856.2754,182.5,852.2754" style="stroke: #A80036; stroke-width: 1.0;"/><line style="stroke: #A80036; stroke-width: 1.0;" x1="51.5" x2="184.5" y1="852.2754" y2="852.2754"/><text fill="#000000" font-family="sans-serif" font-size="13" lengthAdjust="spacingAndGlyphs" textLength="36" x="58.5" y="847.8438">next()</text><polygon fill="#A80036" points="358,877.5859,368,881.5859,358,885.5859,362,881.5859" style="stroke: #A80036; stroke-width: 1.0;"/><line style="stroke: #A80036; stroke-width: 1.0;" x1="190.5" x2="364" y1="881.5859" y2="881.5859"/><text fill="#000000" font-family="sans-serif" font-size="13" lengthAdjust="spacingAndGlyphs" textLength="115" x="197.5" y="877.1543">play(soundSource)</text><polygon fill="#A80036" points="821.5,906.8965,831.5,910.8965,821.5,914.8965,825.5,910.8965" style="stroke: #A80036; stroke-width: 1.0;"/><line style="stroke: #A80036; stroke-width: 1.0;" x1="370" x2="827.5" y1="910.8965" y2="910.8965"/><text fill="#000000" font-family="sans-serif" font-size="13" lengthAdjust="spacingAndGlyphs" textLength="132" x="377" y="906.4648">play(soundFragment)</text><line style="stroke: #000000; stroke-width: 1.0; stroke-dasharray: 2.0,2.0;" x1="23" x2="912.5" y1="920.207" y2="920.207"/><text fill="#000000" font-family="sans-serif" font-size="11" font-weight="bold" lengthAdjust="spacingAndGlyphs" textLength="33" x="28" y="930.8418">[prev]</text><polygon fill="#A80036" points="178.5,951.1621,188.5,955.1621,178.5,959.1621,182.5,955.1621" style="stroke: #A80036; stroke-width: 1.0;"/><line style="stroke: #A80036; stroke-width: 1.0;" x1="51.5" x2="184.5" y1="955.1621" y2="955.1621"/><text fill="#000000" font-family="sans-serif" font-size="13" lengthAdjust="spacingAndGlyphs" textLength="35" x="58.5" y="950.7305">prev()</text><polygon fill="#A80036" points="358,980.4727,368,984.4727,358,988.4727,362,984.4727" style="stroke: #A80036; stroke-width: 1.0;"/><line style="stroke: #A80036; stroke-width: 1.0;" x1="190.5" x2="364" y1="984.4727" y2="984.4727"/><text fill="#000000" font-family="sans-serif" font-size="13" lengthAdjust="spacingAndGlyphs" textLength="115" x="197.5" y="980.041">play(soundSource)</text><polygon fill="#A80036" points="821.5,1009.7832,831.5,1013.7832,821.5,1017.7832,825.5,1013.7832" style="stroke: #A80036; stroke-width: 1.0;"/><line style="stroke: #A80036; stroke-width: 1.0;" x1="370" x2="827.5" y1="1013.7832" y2="1013.7832"/><text fill="#000000" font-family="sans-serif" font-size="13" lengthAdjust="spacingAndGlyphs" textLength="132" x="377" y="1009.3516">play(soundFragment)</text><polygon fill="#A80036" points="821.5,1053.0938,831.5,1057.0938,821.5,1061.0938,825.5,1057.0938" style="stroke: #A80036; stroke-width: 1.0;"/><line style="stroke: #A80036; stroke-width: 1.0;" x1="370" x2="827.5" y1="1057.0938" y2="1057.0938"/><text fill="#000000" font-family="sans-serif" font-size="13" lengthAdjust="spacingAndGlyphs" textLength="53" x="377" y="1052.6621">stopAll()</text><polygon fill="#A80036" points="821.5,1082.4043,831.5,1086.4043,821.5,1090.4043,825.5,1086.4043" style="stroke: #A80036; stroke-width: 1.0;"/><line style="stroke: #A80036; stroke-width: 1.0;" x1="370" x2="827.5" y1="1086.4043" y2="1086.4043"/><text fill="#000000" font-family="sans-serif" font-size="13" lengthAdjust="spacingAndGlyphs" textLength="87" x="377" y="1081.9727">&lt;&lt;destroy&gt;&gt;</text><line style="stroke: #A80036; stroke-width: 2.0;" x1="824.5" x2="842.5" y1="1077.4043" y2="1095.4043"/><line style="stroke: #A80036; stroke-width: 2.0;" x1="824.5" x2="842.5" y1="1095.4043" y2="1077.4043"/><polygon fill="#A80036" points="708,1111.7148,718,1115.7148,708,1119.7148,712,1115.7148" style="stroke: #A80036; stroke-width: 1.0;"/><line style="stroke: #A80036; stroke-width: 1.0;" x1="370" x2="714" y1="1115.7148" y2="1115.7148"/><text fill="#000000" font-family="sans-serif" font-size="13" lengthAdjust="spacingAndGlyphs" textLength="87" x="377" y="1111.2832">&lt;&lt;destroy&gt;&gt;</text><line style="stroke: #A80036; stroke-width: 2.0;" x1="711" x2="729" y1="1106.7148" y2="1124.7148"/><line style="stroke: #A80036; stroke-width: 2.0;" x1="711" x2="729" y1="1124.7148" y2="1106.7148"/><polygon fill="#A80036" points="201.5,1141.0254,191.5,1145.0254,201.5,1149.0254,197.5,1145.0254" style="stroke: #A80036; stroke-width: 1.0;"/><line style="stroke: #A80036; stroke-width: 1.0;" x1="195.5" x2="369" y1="1145.0254" y2="1145.0254"/><text fill="#000000" font-family="sans-serif" font-size="13" lengthAdjust="spacingAndGlyphs" textLength="87" x="207.5" y="1140.5938">&lt;&lt;destroy&gt;&gt;</text><line style="stroke: #A80036; stroke-width: 2.0;" x1="181.5" x2="199.5" y1="1136.0254" y2="1154.0254"/><line style="stroke: #A80036; stroke-width: 2.0;" x1="181.5" x2="199.5" y1="1154.0254" y2="1136.0254"/><line style="stroke: #A80036; stroke-width: 2.0;" x1="361" x2="379" y1="1136.0254" y2="1154.0254"/><line style="stroke: #A80036; stroke-width: 2.0;" x1="361" x2="379" y1="1154.0254" y2="1136.0254"/><!--
@startuml PlayMapModeVSS
hide footbox
skinparam sequenceParticipant underline

actor User as user
participant ":PlayMapModeVSSPage" as page
participant ":MapVSSPlayControl" as control
participant ":MapModeVirtualSoundSpace" as vss
participant ":Sensor" as sensor
participant ":GVRAudioEngine" as audio
participant ":AdjustSensor" as adpage

create page
[-> page: <<create>>
create control
page -> control: <<create>>
control -> vss: getSoundSources()
vss - -> control: soundSourceList
control -> page: displaySoundSourceList
create sensor
control -> sensor: <<create>>
create audio
control -> audio: <<create>>
create adpage
control -> adpage: <<create>>
...adjust sensor...
user -> user: wakeup
destroy adpage
loop
    control -\ sensor: getCurrentLocation()
    note right
    async message, in another thread
    end note
    sensor - -\ control: currentLocation
    control -> audio: updateCurrentLocation(currentLocation)

    alt startPlay
        user -> page: play(soundSource)
        page -> control: play(soundSource)
        control -> audio: play(soundFragment)
    else pause
        user -> page: pause()
        page -> control: pause()
        control -> audio: pause()
    else next
        user -> page: next()
        page -> control: play(soundSource)
        control -> audio: play(soundFragment)
    else prev
        user -> page: prev()
        page -> control: play(soundSource)
        control -> audio: play(soundFragment)
    end
end
control -> audio: stopAll()
control -> audio: <<destroy>>
destroy audio
control -> sensor: <<destroy>>
destroy sensor
control -> page: <<destroy>>
destroy page
destroy control


@enduml

PlantUML version 1.2018.01(Mon Jan 29 02:08:22 CST 2018)
(GPL source distribution)
Java Runtime: Java(TM) SE Runtime Environment
JVM: Java HotSpot(TM) 64-Bit Server VM
Java Version: 9+181
Operating System: Mac OS X
OS Version: 10.12.6
Default Encoding: UTF-8
Language: zh
Country: CN
--></g></svg>