<?xml version="1.0" encoding="UTF-8" standalone="no"?><svg xmlns="http://www.w3.org/2000/svg" xmlns:xlink="http://www.w3.org/1999/xlink" contentScriptType="application/ecmascript" contentStyleType="text/css" height="1175px" preserveAspectRatio="none" style="width:1090px;height:1175px;" version="1.1" viewBox="0 0 1090 1175"
    width="1090px" zoomAndPan="magnify"><defs><filter height="300%" id="f1pry4bbbiocjy" width="300%" x="-1" y="-1"><feGaussianBlur result="blurOut" stdDeviation="2.0"/><feColorMatrix in="blurOut" result="blurOut2" type="matrix" values="0 0 0 0 0 0 0 0 0 0 0 0 0 0 0 0 0 0 .4 0"/><feOffset dx="4.0" dy="4.0" in="blurOut2" result="blurOut3"/><feBlend in="SourceGraphic" in2="blurOut3" mode="normal"/></filter></defs><g><rect fill="#FEFECE" filter="url(#f1pry4bbbiocjy)" height="30.4883" style="stroke: #A80036; stroke-width: 1.5;" width="176" x="300" y="125.7988"/><text fill="#000000" font-family="sans-serif" font-size="14" lengthAdjust="spacingAndGlyphs" text-decoration="underline" textLength="162" x="307" y="146.334">:ConcertVSSPlayControl</text><line style="stroke: #000000; stroke-width: 1.0;" x1="307" x2="469" y1="148.334" y2="148.334"/><rect fill="#FEFECE" filter="url(#f1pry4bbbiocjy)" height="30.4883" style="stroke: #A80036; stroke-width: 1.5;" width="65" x="743" y="259.2188"/><text fill="#000000" font-family="sans-serif" font-size="14" lengthAdjust="spacingAndGlyphs" text-decoration="underline" textLength="51" x="750" y="279.7539">:Sensor</text><line style="stroke: #000000; stroke-width: 1.0;" x1="750" x2="801" y1="281.7539" y2="281.7539"/><rect fill="#FEFECE" filter="url(#f1pry4bbbiocjy)" height="30.4883" style="stroke: #A80036; stroke-width: 1.5;" width="134" x="822" y="304.707"/><text fill="#000000" font-family="sans-serif" font-size="14" lengthAdjust="spacingAndGlyphs" text-decoration="underline" textLength="120" x="829" y="325.2422">:GVRAudioEngine</text><line style="stroke: #000000; stroke-width: 1.0;" x1="829" x2="949" y1="327.2422" y2="327.2422"/><rect fill="#FEFECE" filter="url(#f1pry4bbbiocjy)" height="30.4883" style="stroke: #A80036; stroke-width: 1.5;" width="109" x="970" y="350.1953"/><text fill="#000000" font-family="sans-serif" font-size="14" lengthAdjust="spacingAndGlyphs" text-decoration="underline" textLength="95" x="977" y="370.7305">:AdjustSensor</text><line style="stroke: #000000; stroke-width: 1.0;" x1="977" x2="1072" y1="372.7305" y2="372.7305"/><rect fill="#FFFFFF" filter="url(#f1pry4bbbiocjy)" height="543.1445" style="stroke: #000000; stroke-width: 2.0;" width="1020.5" x="13" y="485.9492"/><rect fill="#FFFFFF" filter="url(#f1pry4bbbiocjy)" height="413.9023" style="stroke: #000000; stroke-width: 2.0;" width="947" x="23" y="608.1914"/><rect fill="#FFFFFF" height="102.8867" style="stroke: none; stroke-width: 1.0;" width="947" x="23" y="713.4336"/><rect fill="#FFFFFF" height="102.8867" style="stroke: none; stroke-width: 1.0;" width="947" x="23" y="816.3203"/><rect fill="#FFFFFF" height="102.8867" style="stroke: none; stroke-width: 1.0;" width="947" x="23" y="919.207"/><line style="stroke: #A80036; stroke-width: 1.0;" x1="51" x2="51" y1="86.4883" y2="395.6836"/><line style="stroke: #A80036; stroke-width: 1.0; stroke-dasharray: 1.0,4.0;" x1="51" x2="51" y1="395.6836" y2="436.6387"/><line style="stroke: #A80036; stroke-width: 1.0;" x1="51" x2="51" y1="436.6387" y2="1163.3359"/><line style="stroke: #A80036; stroke-width: 1.0;" x1="190" x2="190" y1="86.4883" y2="395.6836"/><line style="stroke: #A80036; stroke-width: 1.0; stroke-dasharray: 1.0,4.0;" x1="190" x2="190" y1="395.6836" y2="436.6387"/><line style="stroke: #A80036; stroke-width: 1.0;" x1="190" x2="190" y1="436.6387" y2="1163.3359"/><line style="stroke: #A80036; stroke-width: 1.0;" x1="390" x2="390" y1="158.543" y2="395.6836"/><line style="stroke: #A80036; stroke-width: 1.0; stroke-dasharray: 1.0,4.0;" x1="390" x2="390" y1="395.6836" y2="436.6387"/><line style="stroke: #A80036; stroke-width: 1.0;" x1="390" x2="390" y1="436.6387" y2="1163.3359"/><line style="stroke: #A80036; stroke-width: 1.0;" x1="611" x2="611" y1="86.4883" y2="395.6836"/><line style="stroke: #A80036; stroke-width: 1.0; stroke-dasharray: 1.0,4.0;" x1="611" x2="611" y1="395.6836" y2="436.6387"/><line style="stroke: #A80036; stroke-width: 1.0;" x1="611" x2="611" y1="436.6387" y2="1163.3359"/><line style="stroke: #A80036; stroke-width: 1.0;" x1="777" x2="777" y1="291.9629" y2="395.6836"/><line style="stroke: #A80036; stroke-width: 1.0; stroke-dasharray: 1.0,4.0;" x1="777" x2="777" y1="395.6836" y2="436.6387"/><line style="stroke: #A80036; stroke-width: 1.0;" x1="777" x2="777" y1="436.6387" y2="1163.3359"/><line style="stroke: #A80036; stroke-width: 1.0;" x1="891" x2="891" y1="337.4512" y2="395.6836"/><line style="stroke: #A80036; stroke-width: 1.0; stroke-dasharray: 1.0,4.0;" x1="891" x2="891" y1="395.6836" y2="436.6387"/><line style="stroke: #A80036; stroke-width: 1.0;" x1="891" x2="891" y1="436.6387" y2="1163.3359"/><line style="stroke: #A80036; stroke-width: 1.0;" x1="1026" x2="1026" y1="382.9395" y2="395.6836"/><line style="stroke: #A80036; stroke-width: 1.0; stroke-dasharray: 1.0,4.0;" x1="1026" x2="1026" y1="395.6836" y2="436.6387"/><line style="stroke: #A80036; stroke-width: 1.0;" x1="1026" x2="1026" y1="436.6387" y2="1163.3359"/><text fill="#000000" font-family="sans-serif" font-size="14" lengthAdjust="spacingAndGlyphs" text-decoration="underline" textLength="31" x="33" y="83.5352">User</text><line style="stroke: #000000; stroke-width: 1.0;" x1="33" x2="64" y1="85.5352" y2="85.5352"/><ellipse cx="51.5" cy="13" fill="#FEFECE" filter="url(#f1pry4bbbiocjy)" rx="8" ry="8" style="stroke: #A80036; stroke-width: 2.0;"/><path d="M51.5,21 L51.5,48 M38.5,29 L64.5,29 M51.5,48 L38.5,63 M51.5,48 L64.5,63 " fill="none" filter="url(#f1pry4bbbiocjy)" style="stroke: #A80036; stroke-width: 2.0;"/><rect fill="#FEFECE" filter="url(#f1pry4bbbiocjy)" height="30.4883" style="stroke: #A80036; stroke-width: 1.5;" width="195" x="91" y="51"/><text fill="#000000" font-family="sans-serif" font-size="14" lengthAdjust="spacingAndGlyphs" text-decoration="underline" textLength="181" x="98" y="71.5352">:PlayConcertModeVSSPage</text><line style="stroke: #000000; stroke-width: 1.0;" x1="98" x2="279" y1="73.5352" y2="73.5352"/><rect fill="#FEFECE" filter="url(#f1pry4bbbiocjy)" height="30.4883" style="stroke: #A80036; stroke-width: 1.5;" width="239" x="490" y="51"/><text fill="#000000" font-family="sans-serif" font-size="14" lengthAdjust="spacingAndGlyphs" text-decoration="underline" textLength="225" x="497" y="71.5352">:ConcertModeVirtualSoundSpace</text><line style="stroke: #000000; stroke-width: 1.0;" x1="497" x2="722" y1="73.5352" y2="73.5352"/><polygon fill="#A80036" points="178.5,113.4883,188.5,117.4883,178.5,121.4883,182.5,117.4883" style="stroke: #A80036; stroke-width: 1.0;"/><line style="stroke: #A80036; stroke-width: 1.0;" x1="3" x2="184.5" y1="117.4883" y2="117.4883"/><text fill="#000000" font-family="sans-serif" font-size="13" lengthAdjust="spacingAndGlyphs" textLength="78" x="10" y="113.0566">&lt;&lt;create&gt;&gt;</text><polygon fill="#A80036" points="288,142.7988,298,146.7988,288,150.7988,292,146.7988" style="stroke: #A80036; stroke-width: 1.0;"/><line style="stroke: #A80036; stroke-width: 1.0;" x1="190.5" x2="294" y1="146.7988" y2="146.7988"/><text fill="#000000" font-family="sans-serif" font-size="13" lengthAdjust="spacingAndGlyphs" textLength="78" x="197.5" y="142.3672">&lt;&lt;create&gt;&gt;</text><rect fill="#FEFECE" filter="url(#f1pry4bbbiocjy)" height="30.4883" style="stroke: #A80036; stroke-width: 1.5;" width="176" x="300" y="125.7988"/><text fill="#000000" font-family="sans-serif" font-size="14" lengthAdjust="spacingAndGlyphs" text-decoration="underline" textLength="162" x="307" y="146.334">:ConcertVSSPlayControl</text><line style="stroke: #000000; stroke-width: 1.0;" x1="307" x2="469" y1="148.334" y2="148.334"/><polygon fill="#A80036" points="599.5,188.2871,609.5,192.2871,599.5,196.2871,603.5,192.2871" style="stroke: #A80036; stroke-width: 1.0;"/><line style="stroke: #A80036; stroke-width: 1.0;" x1="390" x2="605.5" y1="192.2871" y2="192.2871"/><text fill="#000000" font-family="sans-serif" font-size="13" lengthAdjust="spacingAndGlyphs" textLength="116" x="397" y="187.8555">getSoundSources()</text><polygon fill="#A80036" points="401,217.5977,391,221.5977,401,225.5977,397,221.5977" style="stroke: #A80036; stroke-width: 1.0;"/><line style="stroke: #A80036; stroke-width: 1.0; stroke-dasharray: 2.0,2.0;" x1="395" x2="610.5" y1="221.5977" y2="221.5977"/><text fill="#000000" font-family="sans-serif" font-size="13" lengthAdjust="spacingAndGlyphs" textLength="104" x="407" y="217.166">soundSourceList</text><polygon fill="#A80036" points="201.5,246.9082,191.5,250.9082,201.5,254.9082,197.5,250.9082" style="stroke: #A80036; stroke-width: 1.0;"/><line style="stroke: #A80036; stroke-width: 1.0;" x1="195.5" x2="389" y1="250.9082" y2="250.9082"/><text fill="#000000" font-family="sans-serif" font-size="13" lengthAdjust="spacingAndGlyphs" textLength="149" x="207.5" y="246.4766">displaySoundSourceList</text><polygon fill="#A80036" points="731,276.2188,741,280.2188,731,284.2188,735,280.2188" style="stroke: #A80036; stroke-width: 1.0;"/><line style="stroke: #A80036; stroke-width: 1.0;" x1="390" x2="737" y1="280.2188" y2="280.2188"/><text fill="#000000" font-family="sans-serif" font-size="13" lengthAdjust="spacingAndGlyphs" textLength="78" x="397" y="275.7871">&lt;&lt;create&gt;&gt;</text><rect fill="#FEFECE" filter="url(#f1pry4bbbiocjy)" height="30.4883" style="stroke: #A80036; stroke-width: 1.5;" width="65" x="743" y="259.2188"/><text fill="#000000" font-family="sans-serif" font-size="14" lengthAdjust="spacingAndGlyphs" text-decoration="underline" textLength="51" x="750" y="279.7539">:Sensor</text><line style="stroke: #000000; stroke-width: 1.0;" x1="750" x2="801" y1="281.7539" y2="281.7539"/><polygon fill="#A80036" points="810,321.707,820,325.707,810,329.707,814,325.707" style="stroke: #A80036; stroke-width: 1.0;"/><line style="stroke: #A80036; stroke-width: 1.0;" x1="390" x2="816" y1="325.707" y2="325.707"/><text fill="#000000" font-family="sans-serif" font-size="13" lengthAdjust="spacingAndGlyphs" textLength="78" x="397" y="321.2754">&lt;&lt;create&gt;&gt;</text><rect fill="#FEFECE" filter="url(#f1pry4bbbiocjy)" height="30.4883" style="stroke: #A80036; stroke-width: 1.5;" width="134" x="822" y="304.707"/><text fill="#000000" font-family="sans-serif" font-size="14" lengthAdjust="spacingAndGlyphs" text-decoration="underline" textLength="120" x="829" y="325.2422">:GVRAudioEngine</text><line style="stroke: #000000; stroke-width: 1.0;" x1="829" x2="949" y1="327.2422" y2="327.2422"/><polygon fill="#A80036" points="958,367.1953,968,371.1953,958,375.1953,962,371.1953" style="stroke: #A80036; stroke-width: 1.0;"/><line style="stroke: #A80036; stroke-width: 1.0;" x1="390" x2="964" y1="371.1953" y2="371.1953"/><text fill="#000000" font-family="sans-serif" font-size="13" lengthAdjust="spacingAndGlyphs" textLength="78" x="397" y="366.7637">&lt;&lt;create&gt;&gt;</text><rect fill="#FEFECE" filter="url(#f1pry4bbbiocjy)" height="30.4883" style="stroke: #A80036; stroke-width: 1.5;" width="109" x="970" y="350.1953"/><text fill="#000000" font-family="sans-serif" font-size="14" lengthAdjust="spacingAndGlyphs" text-decoration="underline" textLength="95" x="977" y="370.7305">:AdjustSensor</text><line style="stroke: #000000; stroke-width: 1.0;" x1="977" x2="1072" y1="372.7305" y2="372.7305"/><text fill="#000000" font-family="sans-serif" font-size="11" lengthAdjust="spacingAndGlyphs" textLength="73" x="502.5" y="420.3184">adjust sensor</text><line style="stroke: #A80036; stroke-width: 1.0;" x1="51.5" x2="93.5" y1="457.9492" y2="457.9492"/><line style="stroke: #A80036; stroke-width: 1.0;" x1="93.5" x2="93.5" y1="457.9492" y2="470.9492"/><line style="stroke: #A80036; stroke-width: 1.0;" x1="52.5" x2="93.5" y1="470.9492" y2="470.9492"/><polygon fill="#A80036" points="62.5,466.9492,52.5,470.9492,62.5,474.9492,58.5,470.9492" style="stroke: #A80036; stroke-width: 1.0;"/><text fill="#000000" font-family="sans-serif" font-size="13" lengthAdjust="spacingAndGlyphs" textLength="48" x="58.5" y="453.207">wakeup</text><line style="stroke: #A80036; stroke-width: 2.0;" x1="1017.5" x2="1035.5" y1="461.6387" y2="479.6387"/><line style="stroke: #A80036; stroke-width: 2.0;" x1="1017.5" x2="1035.5" y1="479.6387" y2="461.6387"/><path d="M13,485.9492 L87,485.9492 L87,492.9492 L77,502.9492 L13,502.9492 L13,485.9492 " fill="#EEEEEE" style="stroke: #000000; stroke-width: 1.0;"/><rect fill="none" height="543.1445" style="stroke: #000000; stroke-width: 2.0;" width="1020.5" x="13" y="485.9492"/><text fill="#000000" font-family="sans-serif" font-size="13" font-weight="bold" lengthAdjust="spacingAndGlyphs" textLength="29" x="28" y="499.5176">loop</text><polygon fill="#A80036" points="765.5,525.2598,775.5,529.2598,765.5,529.2598" style="stroke: #A80036; stroke-width: 1.0;"/><line style="stroke: #A80036; stroke-width: 1.0;" x1="390" x2="776.5" y1="529.2598" y2="529.2598"/><text fill="#000000" font-family="sans-serif" font-size="13" lengthAdjust="spacingAndGlyphs" textLength="129" x="397" y="524.8281">getCurrentLocation()</text><path d="M782,508.2598 L782,533.2598 L1014,533.2598 L1014,518.2598 L1004,508.2598 L782,508.2598 " fill="#FBFB77" filter="url(#f1pry4bbbiocjy)" style="stroke: #A80036; stroke-width: 1.0;"/><path d="M1004,508.2598 L1004,518.2598 L1014,518.2598 L1004,508.2598 " fill="#FBFB77" style="stroke: #A80036; stroke-width: 1.0;"/><text fill="#000000" font-family="sans-serif" font-size="13" lengthAdjust="spacingAndGlyphs" textLength="211" x="788" y="525.8281">async message, in another thread</text><polygon fill="#A80036" points="401,559.5703,391,563.5703,401,563.5703" style="stroke: #A80036; stroke-width: 1.0;"/><line style="stroke: #A80036; stroke-width: 1.0; stroke-dasharray: 2.0,2.0;" x1="390" x2="776.5" y1="563.5703" y2="563.5703"/><text fill="#000000" font-family="sans-serif" font-size="13" lengthAdjust="spacingAndGlyphs" textLength="99" x="407" y="559.1387">currentLocation</text><polygon fill="#A80036" points="879,588.8809,889,592.8809,879,596.8809,883,592.8809" style="stroke: #A80036; stroke-width: 1.0;"/><line style="stroke: #A80036; stroke-width: 1.0;" x1="390" x2="885" y1="592.8809" y2="592.8809"/><text fill="#000000" font-family="sans-serif" font-size="13" lengthAdjust="spacingAndGlyphs" textLength="251" x="397" y="588.4492">updateCurrentLocation(currentLocation)</text><path d="M23,608.1914 L85,608.1914 L85,615.1914 L75,625.1914 L23,625.1914 L23,608.1914 " fill="#EEEEEE" style="stroke: #000000; stroke-width: 1.0;"/><rect fill="none" height="413.9023" style="stroke: #000000; stroke-width: 2.0;" width="947" x="23" y="608.1914"/><text fill="#000000" font-family="sans-serif" font-size="13" font-weight="bold" lengthAdjust="spacingAndGlyphs" textLength="17" x="38" y="621.7598">alt</text><text fill="#000000" font-family="sans-serif" font-size="11" font-weight="bold" lengthAdjust="spacingAndGlyphs" textLength="56" x="100" y="620.8262">[startPlay&#8;]</text><polygon fill="#A80036" points="178.5,642.502,188.5,646.502,178.5,650.502,182.5,646.502" style="stroke: #A80036; stroke-width: 1.0;"/><line style="stroke: #A80036; stroke-width: 1.0;" x1="51.5" x2="184.5" y1="646.502" y2="646.502"/><text fill="#000000" font-family="sans-serif" font-size="13" lengthAdjust="spacingAndGlyphs" textLength="115" x="58.5" y="642.0703">play(soundSource)</text><polygon fill="#A80036" points="378,671.8125,388,675.8125,378,679.8125,382,675.8125" style="stroke: #A80036; stroke-width: 1.0;"/><line style="stroke: #A80036; stroke-width: 1.0;" x1="190.5" x2="384" y1="675.8125" y2="675.8125"/><text fill="#000000" font-family="sans-serif" font-size="13" lengthAdjust="spacingAndGlyphs" textLength="115" x="197.5" y="671.3809">play(soundSource)</text><polygon fill="#A80036" points="879,701.123,889,705.123,879,709.123,883,705.123" style="stroke: #A80036; stroke-width: 1.0;"/><line style="stroke: #A80036; stroke-width: 1.0;" x1="390" x2="885" y1="705.123" y2="705.123"/><text fill="#000000" font-family="sans-serif" font-size="13" lengthAdjust="spacingAndGlyphs" textLength="132" x="397" y="700.6914">play(soundFragment)</text><line style="stroke: #000000; stroke-width: 1.0; stroke-dasharray: 2.0,2.0;" x1="23" x2="970" y1="714.4336" y2="714.4336"/><text fill="#000000" font-family="sans-serif" font-size="11" font-weight="bold" lengthAdjust="spacingAndGlyphs" textLength="40" x="28" y="725.0684">[pause]</text><polygon fill="#A80036" points="178.5,745.3887,188.5,749.3887,178.5,753.3887,182.5,749.3887" style="stroke: #A80036; stroke-width: 1.0;"/><line style="stroke: #A80036; stroke-width: 1.0;" x1="51.5" x2="184.5" y1="749.3887" y2="749.3887"/><text fill="#000000" font-family="sans-serif" font-size="13" lengthAdjust="spacingAndGlyphs" textLength="45" x="58.5" y="744.957">pause()</text><polygon fill="#A80036" points="378,774.6992,388,778.6992,378,782.6992,382,778.6992" style="stroke: #A80036; stroke-width: 1.0;"/><line style="stroke: #A80036; stroke-width: 1.0;" x1="190.5" x2="384" y1="778.6992" y2="778.6992"/><text fill="#000000" font-family="sans-serif" font-size="13" lengthAdjust="spacingAndGlyphs" textLength="45" x="197.5" y="774.2676">pause()</text><polygon fill="#A80036" points="879,804.0098,889,808.0098,879,812.0098,883,808.0098" style="stroke: #A80036; stroke-width: 1.0;"/><line style="stroke: #A80036; stroke-width: 1.0;" x1="390" x2="885" y1="808.0098" y2="808.0098"/><text fill="#000000" font-family="sans-serif" font-size="13" lengthAdjust="spacingAndGlyphs" textLength="45" x="397" y="803.5781">pause()</text><line style="stroke: #000000; stroke-width: 1.0; stroke-dasharray: 2.0,2.0;" x1="23" x2="970" y1="817.3203" y2="817.3203"/><text fill="#000000" font-family="sans-serif" font-size="11" font-weight="bold" lengthAdjust="spacingAndGlyphs" textLength="31" x="28" y="827.9551">[next]</text><polygon fill="#A80036" points="178.5,848.2754,188.5,852.2754,178.5,856.2754,182.5,852.2754" style="stroke: #A80036; stroke-width: 1.0;"/><line style="stroke: #A80036; stroke-width: 1.0;" x1="51.5" x2="184.5" y1="852.2754" y2="852.2754"/><text fill="#000000" font-family="sans-serif" font-size="13" lengthAdjust="spacingAndGlyphs" textLength="36" x="58.5" y="847.8438">next()</text><polygon fill="#A80036" points="378,877.5859,388,881.5859,378,885.5859,382,881.5859" style="stroke: #A80036; stroke-width: 1.0;"/><line style="stroke: #A80036; stroke-width: 1.0;" x1="190.5" x2="384" y1="881.5859" y2="881.5859"/><text fill="#000000" font-family="sans-serif" font-size="13" lengthAdjust="spacingAndGlyphs" textLength="115" x="197.5" y="877.1543">play(soundSource)</text><polygon fill="#A80036" points="879,906.8965,889,910.8965,879,914.8965,883,910.8965" style="stroke: #A80036; stroke-width: 1.0;"/><line style="stroke: #A80036; stroke-width: 1.0;" x1="390" x2="885" y1="910.8965" y2="910.8965"/><text fill="#000000" font-family="sans-serif" font-size="13" lengthAdjust="spacingAndGlyphs" textLength="132" x="397" y="906.4648">play(soundFragment)</text><line style="stroke: #000000; stroke-width: 1.0; stroke-dasharray: 2.0,2.0;" x1="23" x2="970" y1="920.207" y2="920.207"/><text fill="#000000" font-family="sans-serif" font-size="11" font-weight="bold" lengthAdjust="spacingAndGlyphs" textLength="33" x="28" y="930.8418">[prev]</text><polygon fill="#A80036" points="178.5,951.1621,188.5,955.1621,178.5,959.1621,182.5,955.1621" style="stroke: #A80036; stroke-width: 1.0;"/><line style="stroke: #A80036; stroke-width: 1.0;" x1="51.5" x2="184.5" y1="955.1621" y2="955.1621"/><text fill="#000000" font-family="sans-serif" font-size="13" lengthAdjust="spacingAndGlyphs" textLength="35" x="58.5" y="950.7305">prev()</text><polygon fill="#A80036" points="378,980.4727,388,984.4727,378,988.4727,382,984.4727" style="stroke: #A80036; stroke-width: 1.0;"/><line style="stroke: #A80036; stroke-width: 1.0;" x1="190.5" x2="384" y1="984.4727" y2="984.4727"/><text fill="#000000" font-family="sans-serif" font-size="13" lengthAdjust="spacingAndGlyphs" textLength="115" x="197.5" y="980.041">play(soundSource)</text><polygon fill="#A80036" points="879,1009.7832,889,1013.7832,879,1017.7832,883,1013.7832" style="stroke: #A80036; stroke-width: 1.0;"/><line style="stroke: #A80036; stroke-width: 1.0;" x1="390" x2="885" y1="1013.7832" y2="1013.7832"/><text fill="#000000" font-family="sans-serif" font-size="13" lengthAdjust="spacingAndGlyphs" textLength="132" x="397" y="1009.3516">play(soundFragment)</text><polygon fill="#A80036" points="879,1053.0938,889,1057.0938,879,1061.0938,883,1057.0938" style="stroke: #A80036; stroke-width: 1.0;"/><line style="stroke: #A80036; stroke-width: 1.0;" x1="390" x2="885" y1="1057.0938" y2="1057.0938"/><text fill="#000000" font-family="sans-serif" font-size="13" lengthAdjust="spacingAndGlyphs" textLength="53" x="397" y="1052.6621">stopAll()</text><polygon fill="#A80036" points="879,1082.4043,889,1086.4043,879,1090.4043,883,1086.4043" style="stroke: #A80036; stroke-width: 1.0;"/><line style="stroke: #A80036; stroke-width: 1.0;" x1="390" x2="885" y1="1086.4043" y2="1086.4043"/><text fill="#000000" font-family="sans-serif" font-size="13" lengthAdjust="spacingAndGlyphs" textLength="87" x="397" y="1081.9727">&lt;&lt;destroy&gt;&gt;</text><line style="stroke: #A80036; stroke-width: 2.0;" x1="882" x2="900" y1="1077.4043" y2="1095.4043"/><line style="stroke: #A80036; stroke-width: 2.0;" x1="882" x2="900" y1="1095.4043" y2="1077.4043"/><polygon fill="#A80036" points="765.5,1111.7148,775.5,1115.7148,765.5,1119.7148,769.5,1115.7148" style="stroke: #A80036; stroke-width: 1.0;"/><line style="stroke: #A80036; stroke-width: 1.0;" x1="390" x2="771.5" y1="1115.7148" y2="1115.7148"/><text fill="#000000" font-family="sans-serif" font-size="13" lengthAdjust="spacingAndGlyphs" textLength="87" x="397" y="1111.2832">&lt;&lt;destroy&gt;&gt;</text><line style="stroke: #A80036; stroke-width: 2.0;" x1="768.5" x2="786.5" y1="1106.7148" y2="1124.7148"/><line style="stroke: #A80036; stroke-width: 2.0;" x1="768.5" x2="786.5" y1="1124.7148" y2="1106.7148"/><polygon fill="#A80036" points="201.5,1141.0254,191.5,1145.0254,201.5,1149.0254,197.5,1145.0254" style="stroke: #A80036; stroke-width: 1.0;"/><line style="stroke: #A80036; stroke-width: 1.0;" x1="195.5" x2="389" y1="1145.0254" y2="1145.0254"/><text fill="#000000" font-family="sans-serif" font-size="13" lengthAdjust="spacingAndGlyphs" textLength="87" x="207.5" y="1140.5938">&lt;&lt;destroy&gt;&gt;</text><line style="stroke: #A80036; stroke-width: 2.0;" x1="181.5" x2="199.5" y1="1136.0254" y2="1154.0254"/><line style="stroke: #A80036; stroke-width: 2.0;" x1="181.5" x2="199.5" y1="1154.0254" y2="1136.0254"/><line style="stroke: #A80036; stroke-width: 2.0;" x1="381" x2="399" y1="1136.0254" y2="1154.0254"/><line style="stroke: #A80036; stroke-width: 2.0;" x1="381" x2="399" y1="1154.0254" y2="1136.0254"/><!--
@startuml PlayConcertModeVSS
hide footbox
skinparam sequenceParticipant underline

actor User as user
participant ":PlayConcertModeVSSPage" as page
participant ":ConcertVSSPlayControl" as control
participant ":ConcertModeVirtualSoundSpace" as vss
participant ":Sensor" as sensor
participant ":GVRAudioEngine" as audio
participant ":AdjustSensor" as adpage

create page
[-> page: <<create>>
create control
page -> control: <<create>>
control -> vss: getSoundSources()
vss - -> control: soundSourceList
control -> page: displaySoundSourceList
create sensor
control -> sensor: <<create>>
create audio
control -> audio: <<create>>
create adpage
control -> adpage: <<create>>
...adjust sensor...
user -> user: wakeup
destroy adpage
loop
    control -\ sensor: getCurrentLocation()
    note right
    async message, in another thread
    end note
    sensor - -\ control: currentLocation
    control -> audio: updateCurrentLocation(currentLocation)

    alt startPlay
        user -> page: play(soundSource)
        page -> control: play(soundSource)
        control -> audio: play(soundFragment)
    else pause
        user -> page: pause()
        page -> control: pause()
        control -> audio: pause()
    else next
        user -> page: next()
        page -> control: play(soundSource)
        control -> audio: play(soundFragment)
    else prev
        user -> page: prev()
        page -> control: play(soundSource)
        control -> audio: play(soundFragment)
    end
end
control -> audio: stopAll()
control -> audio: <<destroy>>
destroy audio
control -> sensor: <<destroy>>
destroy sensor
control -> page: <<destroy>>
destroy page
destroy control

@enduml

PlantUML version 1.2018.01(Mon Jan 29 02:08:22 CST 2018)
(GPL source distribution)
Java Runtime: Java(TM) SE Runtime Environment
JVM: Java HotSpot(TM) 64-Bit Server VM
Java Version: 9+181
Operating System: Mac OS X
OS Version: 10.12.6
Default Encoding: UTF-8
Language: zh
Country: CN
--></g></svg>