<?xml version="1.0" encoding="UTF-8" standalone="no"?><svg xmlns="http://www.w3.org/2000/svg" xmlns:xlink="http://www.w3.org/1999/xlink" contentScriptType="application/ecmascript" contentStyleType="text/css" height="275px" preserveAspectRatio="none" style="width:913px;height:275px;" version="1.1" viewBox="0 0 913 275"
    width="913px" zoomAndPan="magnify"><defs><filter height="300%" id="faxxcc8spjquj" width="300%" x="-1" y="-1"><feGaussianBlur result="blurOut" stdDeviation="2.0"/><feColorMatrix in="blurOut" result="blurOut2" type="matrix" values="0 0 0 0 0 0 0 0 0 0 0 0 0 0 0 0 0 0 .4 0"/><feOffset dx="4.0" dy="4.0" in="blurOut2" result="blurOut3"/><feBlend in="SourceGraphic" in2="blurOut3" mode="normal"/></filter></defs><g><line style="stroke: #A80036; stroke-width: 1.0; stroke-dasharray: 5.0,5.0;" x1="26" x2="26" y1="86.4883" y2="263.041"/><line style="stroke: #A80036; stroke-width: 1.0; stroke-dasharray: 5.0,5.0;" x1="200" x2="200" y1="86.4883" y2="263.041"/><line style="stroke: #A80036; stroke-width: 1.0; stroke-dasharray: 5.0,5.0;" x1="399" x2="399" y1="86.4883" y2="263.041"/><line style="stroke: #A80036; stroke-width: 1.0; stroke-dasharray: 5.0,5.0;" x1="608" x2="608" y1="86.4883" y2="263.041"/><text fill="#000000" font-family="sans-serif" font-size="14" lengthAdjust="spacingAndGlyphs" text-decoration="underline" textLength="31" x="8" y="83.5352">User</text><line style="stroke: #000000; stroke-width: 1.0;" x1="8" x2="39" y1="85.5352" y2="85.5352"/><ellipse cx="26.5" cy="13" fill="#FEFECE" filter="url(#faxxcc8spjquj)" rx="8" ry="8" style="stroke: #A80036; stroke-width: 2.0;"/><path d="M26.5,21 L26.5,48 M13.5,29 L39.5,29 M26.5,48 L13.5,63 M26.5,48 L39.5,63 " fill="none" filter="url(#faxxcc8spjquj)" style="stroke: #A80036; stroke-width: 2.0;"/><rect fill="#FEFECE" filter="url(#faxxcc8spjquj)" height="30.4883" style="stroke: #A80036; stroke-width: 1.5;" width="171" x="113" y="51"/><text fill="#000000" font-family="sans-serif" font-size="14" lengthAdjust="spacingAndGlyphs" text-decoration="underline" textLength="157" x="120" y="71.5352">:LocalVSSManagerPage</text><line style="stroke: #000000; stroke-width: 1.0;" x1="120" x2="277" y1="73.5352" y2="73.5352"/><rect fill="#FEFECE" filter="url(#faxxcc8spjquj)" height="30.4883" style="stroke: #A80036; stroke-width: 1.5;" width="177" x="309" y="51"/><text fill="#000000" font-family="sans-serif" font-size="14" lengthAdjust="spacingAndGlyphs" text-decoration="underline" textLength="163" x="316" y="71.5352">:LocalVSSLibraryControl</text><line style="stroke: #000000; stroke-width: 1.0;" x1="316" x2="479" y1="73.5352" y2="73.5352"/><rect fill="#FEFECE" filter="url(#faxxcc8spjquj)" height="30.4883" style="stroke: #A80036; stroke-width: 1.5;" width="212" x="500" y="51"/><text fill="#000000" font-family="sans-serif" font-size="14" lengthAdjust="spacingAndGlyphs" text-decoration="underline" textLength="198" x="507" y="71.5352">whichVSS:VirtualSoundSpace</text><line style="stroke: #000000; stroke-width: 1.0;" x1="507" x2="705" y1="73.5352" y2="73.5352"/><polygon fill="#A80036" points="188.5,113.4883,198.5,117.4883,188.5,121.4883,192.5,117.4883" style="stroke: #A80036; stroke-width: 1.0;"/><line style="stroke: #A80036; stroke-width: 1.0;" x1="26.5" x2="194.5" y1="117.4883" y2="117.4883"/><text fill="#000000" font-family="sans-serif" font-size="13" lengthAdjust="spacingAndGlyphs" textLength="68" x="33.5" y="113.0566">renameVSS</text><polygon fill="#A80036" points="188.5,142.7988,198.5,146.7988,188.5,150.7988,192.5,146.7988" style="stroke: #A80036; stroke-width: 1.0;"/><line style="stroke: #A80036; stroke-width: 1.0;" x1="26.5" x2="194.5" y1="146.7988" y2="146.7988"/><text fill="#000000" font-family="sans-serif" font-size="13" lengthAdjust="spacingAndGlyphs" textLength="150" x="33.5" y="142.3672">enterNewLocalVSSName</text><path d="M404,160.1094 L404,185.1094 L901,185.1094 L901,170.1094 L891,160.1094 L404,160.1094 " fill="#FBFB77" filter="url(#faxxcc8spjquj)" style="stroke: #A80036; stroke-width: 1.0;"/><path d="M891,160.1094 L891,170.1094 L901,170.1094 L891,160.1094 " fill="#FBFB77" style="stroke: #A80036; stroke-width: 1.0;"/><text fill="#000000" font-family="sans-serif" font-size="13" lengthAdjust="spacingAndGlyphs" textLength="476" x="410" y="177.6777">we directly store the VSS's references from library in LocalVSSLibraryControl</text><polygon fill="#A80036" points="387.5,211.4199,397.5,215.4199,387.5,219.4199,391.5,215.4199" style="stroke: #A80036; stroke-width: 1.0;"/><line style="stroke: #A80036; stroke-width: 1.0;" x1="200.5" x2="393.5" y1="215.4199" y2="215.4199"/><text fill="#000000" font-family="sans-serif" font-size="13" lengthAdjust="spacingAndGlyphs" textLength="175" x="207.5" y="210.9883">newNameEntered(whichVSS)</text><polygon fill="#A80036" points="596,240.7305,606,244.7305,596,248.7305,600,244.7305" style="stroke: #A80036; stroke-width: 1.0;"/><line style="stroke: #A80036; stroke-width: 1.0;" x1="399.5" x2="602" y1="244.7305" y2="244.7305"/><text fill="#000000" font-family="sans-serif" font-size="13" lengthAdjust="spacingAndGlyphs" textLength="124" x="406.5" y="240.2988">setName(newName)</text><!--
@startuml RenameVSS
hide footbox
skinparam sequenceParticipant underline

actor User as user
participant ":LocalVSSManagerPage" as page
participant ":LocalVSSLibraryControl" as control
participant "whichVSS:VirtualSoundSpace" as vss

user -> page: renameVSS
user -> page: enterNewLocalVSSName
note right of control: we directly store the VSS's references from library in LocalVSSLibraryControl
page -> control: newNameEntered(whichVSS)
control -> vss: setName(newName)

@enduml

PlantUML version 1.2018.01(Mon Jan 29 02:08:22 CST 2018)
(GPL source distribution)
Java Runtime: Java(TM) SE Runtime Environment
JVM: Java HotSpot(TM) 64-Bit Server VM
Java Version: 9+181
Operating System: Mac OS X
OS Version: 10.12.6
Default Encoding: UTF-8
Language: zh
Country: CN
--></g></svg>