<?xml version="1.0" encoding="UTF-8" standalone="no"?><svg xmlns="http://www.w3.org/2000/svg" xmlns:xlink="http://www.w3.org/1999/xlink" contentScriptType="application/ecmascript" contentStyleType="text/css" height="729px" preserveAspectRatio="none" style="width:1077px;height:729px;" version="1.1" viewBox="0 0 1077 729" width="1077px" zoomAndPan="magnify"><defs><filter height="300%" id="f16nzxxrh8d8sp" width="300%" x="-1" y="-1"><feGaussianBlur result="blurOut" stdDeviation="2.0"/><feColorMatrix in="blurOut" result="blurOut2" type="matrix" values="0 0 0 0 0 0 0 0 0 0 0 0 0 0 0 0 0 0 .4 0"/><feOffset dx="4.0" dy="4.0" in="blurOut2" result="blurOut3"/><feBlend in="SourceGraphic" in2="blurOut3" mode="normal"/></filter></defs><g><rect fill="#FEFECE" filter="url(#f16nzxxrh8d8sp)" height="50" rx="12.5" ry="12.5" style="stroke: #A80036; stroke-width: 1.5;" width="61" x="622.5" y="8"/><line style="stroke: #A80036; stroke-width: 1.5;" x1="622.5" x2="683.5" y1="37.1201" y2="37.1201"/><text fill="#000000" font-family="sans-serif" font-size="14" lengthAdjust="spacingAndGlyphs" textLength="41" x="632.5" y="29.0439">Config</text><rect fill="#FEFECE" filter="url(#f16nzxxrh8d8sp)" height="50" rx="12.5" ry="12.5" style="stroke: #A80036; stroke-width: 1.5;" width="55" x="419.5" y="118"/><line style="stroke: #A80036; stroke-width: 1.5;" x1="419.5" x2="474.5" y1="147.1201" y2="147.1201"/><text fill="#000000" font-family="sans-serif" font-size="14" lengthAdjust="spacingAndGlyphs" textLength="35" x="429.5" y="139.0439">Login</text><ellipse cx="447" cy="33" fill="#000000" filter="url(#f16nzxxrh8d8sp)" rx="10" ry="10" style="stroke: none; stroke-width: 1.0;"/><rect fill="#FEFECE" filter="url(#f16nzxxrh8d8sp)" height="50" rx="12.5" ry="12.5" style="stroke: #A80036; stroke-width: 1.5;" width="73" x="509.5" y="118"/><line style="stroke: #A80036; stroke-width: 1.5;" x1="509.5" x2="582.5" y1="147.1201" y2="147.1201"/><text fill="#000000" font-family="sans-serif" font-size="14" lengthAdjust="spacingAndGlyphs" textLength="53" x="519.5" y="139.0439">Register</text><rect fill="#FEFECE" filter="url(#f16nzxxrh8d8sp)" height="50" rx="12.5" ry="12.5" style="stroke: #A80036; stroke-width: 1.5;" width="132" x="465" y="228"/><line style="stroke: #A80036; stroke-width: 1.5;" x1="465" x2="597" y1="257.1201" y2="257.1201"/><text fill="#000000" font-family="sans-serif" font-size="14" lengthAdjust="spacingAndGlyphs" textLength="112" x="475" y="249.0439">ManageLocalVSS</text><rect fill="#FEFECE" filter="url(#f16nzxxrh8d8sp)" height="50" rx="12.5" ry="12.5" style="stroke: #A80036; stroke-width: 1.5;" width="130" x="462" y="338"/><line style="stroke: #A80036; stroke-width: 1.5;" x1="462" x2="592" y1="367.1201" y2="367.1201"/><text fill="#000000" font-family="sans-serif" font-size="14" lengthAdjust="spacingAndGlyphs" textLength="110" x="472" y="359.0439">PreviewLocalMap</text><rect fill="#FEFECE" filter="url(#f16nzxxrh8d8sp)" height="50" rx="12.5" ry="12.5" style="stroke: #A80036; stroke-width: 1.5;" width="153" x="446.5" y="668"/><line style="stroke: #A80036; stroke-width: 1.5;" x1="446.5" x2="599.5" y1="697.1201" y2="697.1201"/><text fill="#000000" font-family="sans-serif" font-size="14" lengthAdjust="spacingAndGlyphs" textLength="133" x="456.5" y="689.0439">PreviewLocalConcert</text><rect fill="#FEFECE" filter="url(#f16nzxxrh8d8sp)" height="50" rx="12.5" ry="12.5" style="stroke: #A80036; stroke-width: 1.5;" width="104" x="475" y="448"/><line style="stroke: #A80036; stroke-width: 1.5;" x1="475" x2="579" y1="477.1201" y2="477.1201"/><text fill="#000000" font-family="sans-serif" font-size="14" lengthAdjust="spacingAndGlyphs" textLength="84" x="485" y="469.0439">AdjustSensor</text><rect fill="#FEFECE" filter="url(#f16nzxxrh8d8sp)" height="50" rx="12.5" ry="12.5" style="stroke: #A80036; stroke-width: 1.5;" width="136" x="167" y="558"/><line style="stroke: #A80036; stroke-width: 1.5;" x1="167" x2="303" y1="587.1201" y2="587.1201"/><text fill="#000000" font-family="sans-serif" font-size="14" lengthAdjust="spacingAndGlyphs" textLength="116" x="177" y="579.0439">PlayMapModeVSS</text><rect fill="#FEFECE" filter="url(#f16nzxxrh8d8sp)" height="50" rx="12.5" ry="12.5" style="stroke: #A80036; stroke-width: 1.5;" width="159" x="443.5" y="558"/><line style="stroke: #A80036; stroke-width: 1.5;" x1="443.5" x2="602.5" y1="587.1201" y2="587.1201"/><text fill="#000000" font-family="sans-serif" font-size="14" lengthAdjust="spacingAndGlyphs" textLength="139" x="453.5" y="579.0439">PlayConcertModeVSS</text><rect fill="#FEFECE" filter="url(#f16nzxxrh8d8sp)" height="50" rx="12.5" ry="12.5" style="stroke: #A80036; stroke-width: 1.5;" width="90" x="243" y="338"/><line style="stroke: #A80036; stroke-width: 1.5;" x1="243" x2="333" y1="367.1201" y2="367.1201"/><text fill="#000000" font-family="sans-serif" font-size="14" lengthAdjust="spacingAndGlyphs" textLength="70" x="253" y="359.0439">CreateVSS</text><rect fill="#FEFECE" filter="url(#f16nzxxrh8d8sp)" height="50" rx="12.5" ry="12.5" style="stroke: #A80036; stroke-width: 1.5;" width="152" x="6" y="448"/><line style="stroke: #A80036; stroke-width: 1.5;" x1="6" x2="158" y1="477.1201" y2="477.1201"/><text fill="#000000" font-family="sans-serif" font-size="14" lengthAdjust="spacingAndGlyphs" textLength="132" x="16" y="469.0439">CreateMapModeVSS</text><rect fill="#FEFECE" filter="url(#f16nzxxrh8d8sp)" height="50" rx="12.5" ry="12.5" style="stroke: #A80036; stroke-width: 1.5;" width="175" x="193.5" y="448"/><line style="stroke: #A80036; stroke-width: 1.5;" x1="193.5" x2="368.5" y1="477.1201" y2="477.1201"/><text fill="#000000" font-family="sans-serif" font-size="14" lengthAdjust="spacingAndGlyphs" textLength="155" x="203.5" y="469.0439">CreateConcertModeVSS</text><rect fill="#FEFECE" filter="url(#f16nzxxrh8d8sp)" height="50" rx="12.5" ry="12.5" style="stroke: #A80036; stroke-width: 1.5;" width="134" x="730" y="228"/><line style="stroke: #A80036; stroke-width: 1.5;" x1="730" x2="864" y1="257.1201" y2="257.1201"/><text fill="#000000" font-family="sans-serif" font-size="14" lengthAdjust="spacingAndGlyphs" textLength="114" x="740" y="249.0439">BrowseOnlineVSS</text><rect fill="#FEFECE" filter="url(#f16nzxxrh8d8sp)" height="50" rx="12.5" ry="12.5" style="stroke: #A80036; stroke-width: 1.5;" width="160" x="905" y="338"/><line style="stroke: #A80036; stroke-width: 1.5;" x1="905" x2="1065" y1="367.1201" y2="367.1201"/><text fill="#000000" font-family="sans-serif" font-size="14" lengthAdjust="spacingAndGlyphs" textLength="140" x="915" y="359.0439">PreviewOnlineConcert</text><rect fill="#FEFECE" filter="url(#f16nzxxrh8d8sp)" height="50" rx="12.5" ry="12.5" style="stroke: #A80036; stroke-width: 1.5;" width="137" x="732.5" y="338"/><line style="stroke: #A80036; stroke-width: 1.5;" x1="732.5" x2="869.5" y1="367.1201" y2="367.1201"/><text fill="#000000" font-family="sans-serif" font-size="14" lengthAdjust="spacingAndGlyphs" textLength="117" x="742.5" y="359.0439">PreviewOnlineMap</text><!--link Config to Login--><path d="M622.25,44.288 C586.785,59.604 529.244,89.415 479.053,115.863 " fill="none" id="Config-Login" style="stroke: #A80036; stroke-width: 1.0;"/><polygon fill="#A80036" points="474.529,118.248,484.3558,117.5897,478.9521,115.9164,480.6253,110.5127,474.529,118.248" style="stroke: #A80036; stroke-width: 1.0;"/><!--link Config to Login--><path d="M622.258,57.787 C592.894,74.546 548.76,97.553 510,118 C500.492,123.016 489.882,128.672 479.433,133.233 " fill="none" id="Config-Login" style="stroke: #A80036; stroke-width: 1.0;"/><polygon fill="#A80036" points="474.648,135.245,484.4949,135.4424,479.2568,133.3063,481.393,128.0683,474.648,135.245" style="stroke: #A80036; stroke-width: 1.0;"/><!--link *start to Login--><path d="M447,43.208 C447,58.384 447,89.278 447,112.501 " fill="none" id="*start-Login" style="stroke: #A80036; stroke-width: 1.0;"/><polygon fill="#A80036" points="447,117.628,451,108.628,447,112.628,443,108.628,447,117.628" style="stroke: #A80036; stroke-width: 1.0;"/><!--link Register to Login--><path d="M504.194,161.297 C494.411,162.449 484.627,161.404 474.844,158.161 " fill="none" id="Register-Login" style="stroke: #A80036; stroke-width: 1.0;"/><polygon fill="#A80036" points="509.31,160.494,499.7983,157.939,504.3706,161.2699,501.0397,165.8421,509.31,160.494" style="stroke: #A80036; stroke-width: 1.0;"/><!--link Register to Login--><path d="M509.31,125.506 C499.437,123.57 489.564,123.872 479.691,126.412 " fill="none" id="Register-Login" style="stroke: #A80036; stroke-width: 1.0;"/><polygon fill="#A80036" points="474.844,127.839,484.6071,129.136,479.6407,126.4277,482.349,121.4613,474.844,127.839" style="stroke: #A80036; stroke-width: 1.0;"/><!--link Register to ManageLocalVSS--><path d="M542.634,168.237 C540.395,184.357 537.441,205.621 535.071,222.691 " fill="none" id="Register-ManageLocalVSS" style="stroke: #A80036; stroke-width: 1.0;"/><polygon fill="#A80036" points="534.355,227.844,539.5565,219.4807,535.0437,222.8917,531.6328,218.3788,534.355,227.844" style="stroke: #A80036; stroke-width: 1.0;"/><!--link Login to ManageLocalVSS--><path d="M465.851,168.237 C478.605,184.634 495.499,206.356 508.888,223.57 " fill="none" id="Login-ManageLocalVSS" style="stroke: #A80036; stroke-width: 1.0;"/><polygon fill="#A80036" points="512.212,227.844,509.8423,218.2845,509.1416,223.8978,503.5283,223.1971,512.212,227.844" style="stroke: #A80036; stroke-width: 1.0;"/><!--link ManageLocalVSS to PreviewLocalMap--><path d="M519.259,278.237 C516.355,294.357 515.354,315.621 516.603,332.691 " fill="none" id="ManageLocalVSS-PreviewLocalMap" style="stroke: #A80036; stroke-width: 1.0;"/><polygon fill="#A80036" points="517.063,337.844,520.2474,328.5242,516.6187,332.8638,512.2791,329.235,517.063,337.844" style="stroke: #A80036; stroke-width: 1.0;"/><!--link PreviewLocalMap to ManageLocalVSS--><path d="M539.363,337.844 C542.411,321.742 543.431,300.479 542.079,283.395 " fill="none" id="PreviewLocalMap-ManageLocalVSS" style="stroke: #A80036; stroke-width: 1.0;"/><polygon fill="#A80036" points="541.583,278.237,538.4628,287.5785,542.0616,283.214,546.426,286.8128,541.583,278.237" style="stroke: #A80036; stroke-width: 1.0;"/><!--link ManageLocalVSS to PreviewLocalConcert--><path d="M547.351,278.043 C562.294,293.201 582.022,314.346 592,338 C638.677,448.658 652.908,498.761 603,608 C592.414,631.1706 571.931,650.4016 554.02,664.5893 " fill="none" id="ManageLocalVSS-PreviewLocalConcert" style="stroke: #A80036; stroke-width: 1.0;"/><polygon fill="#A80036" points="550.006,667.7214,559.5618,665.3367,553.9474,664.6448,554.6393,659.0304,550.006,667.7214" style="stroke: #A80036; stroke-width: 1.0;"/><!--link PreviewLocalConcert to ManageLocalVSS--><path d="M580.848,667.8971 C603.59,653.4534 626.567,633.0243 638,608 C687.908,498.761 673.677,448.658 627,338 C617.724,316.009 600.021,296.187 581.971,281.328 " fill="none" id="PreviewLocalConcert-ManageLocalVSS" style="stroke: #A80036; stroke-width: 1.0;"/><polygon fill="#A80036" points="577.873,278.043,582.3938,286.793,581.7744,281.1701,587.3973,280.5507,577.873,278.043" style="stroke: #A80036; stroke-width: 1.0;"/><!--link PreviewLocalMap to AdjustSensor--><path d="M516.157,388.237 C513.849,404.357 513.636,425.621 515.517,442.691 " fill="none" id="PreviewLocalMap-AdjustSensor" style="stroke: #A80036; stroke-width: 1.0;"/><polygon fill="#A80036" points="516.168,447.844,519.0104,438.4142,515.5424,442.8833,511.0733,439.4152,516.168,447.844" style="stroke: #A80036; stroke-width: 1.0;"/><!--link AdjustSensor to PreviewLocalMap--><path d="M538.469,447.844 C540.919,431.742 541.153,410.479 539.168,393.395 " fill="none" id="AdjustSensor-PreviewLocalMap" style="stroke: #A80036; stroke-width: 1.0;"/><polygon fill="#A80036" points="538.481,388.237,535.7068,397.6871,539.1425,393.1931,543.6365,396.6287,538.481,388.237" style="stroke: #A80036; stroke-width: 1.0;"/><!--link PreviewLocalConcert to AdjustSensor--><path d="M496.883,667.7214 C478.224,653.2879 455.386,632.9229 444,608 C434.766,587.787 434.565,578.12 444,558 C454.983,534.58 476.06,515.424 494.565,501.35 " fill="none" id="PreviewLocalConcert-AdjustSensor" style="stroke: #A80036; stroke-width: 1.0;"/><polygon fill="#A80036" points="498.714,498.245,489.1117,500.4351,494.7109,501.2409,493.9052,506.8401,498.714,498.245" style="stroke: #A80036; stroke-width: 1.0;"/><!--link AdjustSensor to PreviewLocalConcert--><path d="M474.893,493.875 C449.445,508.289 422.073,530.124 409,558 C399.565,578.12 399.766,587.787 409,608 C419.718,631.4602 440.583,650.8818 461.796,665.1191 " fill="none" id="AdjustSensor-PreviewLocalConcert" style="stroke: #A80036; stroke-width: 1.0;"/><polygon fill="#A80036" points="466.04,667.8971,460.7006,659.6212,461.8566,665.1586,456.3191,666.3146,466.04,667.8971" style="stroke: #A80036; stroke-width: 1.0;"/><!--link AdjustSensor to PlayMapModeVSS--><path d="M474.796,493.308 C427.439,510.824 357.25,536.784 305.032,556.098 " fill="none" id="AdjustSensor-PlayMapModeVSS" style="stroke: #A80036; stroke-width: 1.0;"/><polygon fill="#A80036" points="300.037,557.945,309.8657,558.5752,304.7266,556.2108,307.091,551.0718,300.037,557.945" style="stroke: #A80036; stroke-width: 1.0;"/><!--link AdjustSensor to PlayConcertModeVSS--><path d="M526.102,498.237 C525.505,514.357 524.718,535.621 524.086,552.691 " fill="none" id="AdjustSensor-PlayConcertModeVSS" style="stroke: #A80036; stroke-width: 1.0;"/><polygon fill="#A80036" points="523.895,557.844,528.2265,548.9988,524.0807,552.8474,520.232,548.7017,523.895,557.844" style="stroke: #A80036; stroke-width: 1.0;"/><!--link PlayMapModeVSS to PreviewLocalMap--><path d="M285.545,557.946 C315.832,542.56 354.455,521.184 386,498 C430.011,465.653 474.692,420.692 501.629,391.967 " fill="none" id="PlayMapModeVSS-PreviewLocalMap" style="stroke: #A80036; stroke-width: 1.0;"/><polygon fill="#A80036" points="505.148,388.199,496.0817,392.0463,501.7352,391.8532,501.9284,397.5067,505.148,388.199" style="stroke: #A80036; stroke-width: 1.0;"/><!--link PlayConcertModeVSS to PreviewLocalConcert--><path d="M523,608.237 C523,624.3565 523,645.6212 523,662.6911 " fill="none" id="PlayConcertModeVSS-PreviewLocalConcert" style="stroke: #A80036; stroke-width: 1.0;"/><polygon fill="#A80036" points="523,667.8436,527,658.8436,523,662.8436,519,658.8436,523,667.8436" style="stroke: #A80036; stroke-width: 1.0;"/><!--link ManageLocalVSS to CreateVSS--><path d="M465.945,278.103 C425.063,295.178 373.437,318.078 336.181,335.639 " fill="none" id="ManageLocalVSS-CreateVSS" style="stroke: #A80036; stroke-width: 1.0;"/><polygon fill="#A80036" points="331.252,337.971,341.0981,337.7376,335.7716,335.8326,337.6766,330.5062,331.252,337.971" style="stroke: #A80036; stroke-width: 1.0;"/><!--link CreateVSS to ManageLocalVSS--><path d="M333.132,346.32 C376.094,329.048 439.873,300.988 483.538,280.331 " fill="none" id="CreateVSS-ManageLocalVSS" style="stroke: #A80036; stroke-width: 1.0;"/><polygon fill="#A80036" points="488.229,278.103,478.3832,278.349,483.7121,280.2472,481.8139,285.576,488.229,278.103" style="stroke: #A80036; stroke-width: 1.0;"/><!--link CreateVSS to CreateMapModeVSS--><path d="M242.792,387.701 C210.148,404.815 166.053,427.933 132.296,445.631 " fill="none" id="CreateVSS-CreateMapModeVSS" style="stroke: #A80036; stroke-width: 1.0;"/><polygon fill="#A80036" points="127.814,447.981,137.6423,447.3453,132.2425,445.6596,133.9281,440.2598,127.814,447.981" style="stroke: #A80036; stroke-width: 1.0;"/><!--link CreateMapModeVSS to ManageLocalVSS--><path d="M101.1526,447.944 C126.393,417.841 173.642,366.755 225,338 C299.254,296.425 395.315,274.439 459.828,263.539 " fill="none" id="CreateMapModeVSS-ManageLocalVSS" style="stroke: #A80036; stroke-width: 1.0;"/><polygon fill="#A80036" points="464.805,262.709,455.2694,260.2448,459.8732,263.5319,456.5861,268.1357,464.805,262.709" style="stroke: #A80036; stroke-width: 1.0;"/><!--link CreateVSS to CreateConcertModeVSS--><path d="M286.429,388.237 C285.384,404.357 284.006,425.621 282.9,442.691 " fill="none" id="CreateVSS-CreateConcertModeVSS" style="stroke: #A80036; stroke-width: 1.0;"/><polygon fill="#A80036" points="282.566,447.844,287.1387,439.121,282.8888,442.8544,279.1554,438.6045,282.566,447.844" style="stroke: #A80036; stroke-width: 1.0;"/><!--link CreateConcertModeVSS to ManageLocalVSS--><path d="M308.834,447.729 C355.659,406.898 449.899,324.72 499.238,281.697 " fill="none" id="CreateConcertModeVSS-ManageLocalVSS" style="stroke: #A80036; stroke-width: 1.0;"/><polygon fill="#A80036" points="503.29,278.163,493.8776,281.0625,499.5213,281.4488,499.135,287.0925,503.29,278.163" style="stroke: #A80036; stroke-width: 1.0;"/><!--link ManageLocalVSS to BrowseOnlineVSS--><path d="M597.24,267.026 C639.731,273.039 682.221,273.312 724.711,267.843 " fill="none" id="ManageLocalVSS-BrowseOnlineVSS" style="stroke: #A80036; stroke-width: 1.0;"/><polygon fill="#A80036" points="729.893,267.148,720.4414,264.3792,724.9373,267.8123,721.5042,272.3082,729.893,267.148" style="stroke: #A80036; stroke-width: 1.0;"/><!--link BrowseOnlineVSS to ManageLocalVSS--><path d="M729.893,238.852 C687.403,232.917 644.912,232.722 602.422,238.269 " fill="none" id="BrowseOnlineVSS-ManageLocalVSS" style="stroke: #A80036; stroke-width: 1.0;"/><polygon fill="#A80036" points="597.24,238.974,606.6972,241.7237,602.1943,238.2997,605.6184,233.7968,597.24,238.974" style="stroke: #A80036; stroke-width: 1.0;"/><!--link Config to BrowseOnlineVSS--><path d="M663.019,62.741 C686.387,106.037 740.209,187.226 772.58,227.729 " fill="none" id="Config-BrowseOnlineVSS" style="stroke: #A80036; stroke-width: 1.0;"/><polygon fill="#A80036" points="660.588,58.163,661.2777,67.9877,662.9337,62.5786,668.3427,64.2346,660.588,58.163" style="stroke: #A80036; stroke-width: 1.0;"/><!--link Config to BrowseOnlineVSS--><path d="M677.826,58.163 C710.49,98.594 764.331,179.779 787.447,223.143 " fill="none" id="Config-BrowseOnlineVSS" style="stroke: #A80036; stroke-width: 1.0;"/><polygon fill="#A80036" points="789.849,227.729,789.2158,217.9005,787.5288,223.3,782.1293,221.6129,789.849,227.729" style="stroke: #A80036; stroke-width: 1.0;"/><!--link Config to ManageLocalVSS--><path d="M631.427,62.973 C618.518,90.951 603.039,133.967 583,168 C570.168,189.792 551.865,211.786 539.771,227.799 " fill="none" id="Config-ManageLocalVSS" style="stroke: #A80036; stroke-width: 1.0;"/><polygon fill="#A80036" points="633.642,58.272,626.187,64.7081,631.5105,62.7949,633.4237,68.1184,633.642,58.272" style="stroke: #A80036; stroke-width: 1.0;"/><!--link Config to ManageLocalVSS--><path d="M658.926,58.272 C655.294,85.944 639.198,131.998 618,168 C606.071,188.26 589.412,208.694 573.377,224.334 " fill="none" id="Config-ManageLocalVSS" style="stroke: #A80036; stroke-width: 1.0;"/><polygon fill="#A80036" points="569.752,227.799,579.022,224.4724,573.3666,224.3444,573.4946,218.689,569.752,227.799" style="stroke: #A80036; stroke-width: 1.0;"/><!--link BrowseOnlineVSS to PreviewOnlineConcert--><path d="M828.348,278.237 C855.432,295.19 894.739,317.835 927.357,335.305 " fill="none" id="BrowseOnlineVSS-PreviewOnlineConcert" style="stroke: #A80036; stroke-width: 1.0;"/><polygon fill="#A80036" points="932.118,337.844,926.0593,330.0792,927.7063,335.491,922.2945,337.138,932.118,337.844" style="stroke: #A80036; stroke-width: 1.0;"/><!--link PreviewOnlineConcert to BrowseOnlineVSS--><path d="M954.621,337.971 C927.649,320.982 888.118,298.2 855.221,280.653 " fill="none" id="PreviewOnlineConcert-BrowseOnlineVSS" style="stroke: #A80036; stroke-width: 1.0;"/><polygon fill="#A80036" points="850.417,278.103,856.4906,285.8562,854.8332,280.4476,860.2419,278.7902,850.417,278.103" style="stroke: #A80036; stroke-width: 1.0;"/><!--link BrowseOnlineVSS to PreviewOnlineMap--><path d="M787.054,278.237 C785.344,294.357 785.918,315.621 788.432,332.691 " fill="none" id="BrowseOnlineVSS-PreviewOnlineMap" style="stroke: #A80036; stroke-width: 1.0;"/><polygon fill="#A80036" points="789.274,337.844,791.7713,328.317,788.4682,332.9094,783.8759,329.6063,789.274,337.844" style="stroke: #A80036; stroke-width: 1.0;"/><!--link PreviewOnlineMap to BrowseOnlineVSS--><path d="M811.574,337.844 C813.428,321.742 812.874,300.479 810.257,283.395 " fill="none" id="PreviewOnlineMap-BrowseOnlineVSS" style="stroke: #A80036; stroke-width: 1.0;"/><polygon fill="#A80036" points="809.379,278.237,806.9453,287.7804,810.2177,283.1662,814.8319,286.4386,809.379,278.237" style="stroke: #A80036; stroke-width: 1.0;"/><!--
@startuml
Config - -> Login

Config - -> Login

[*] - -> Login
Login -left-> Register
Register -right-> Login
Register -down-> ManageLocalVSS
Login -down-> ManageLocalVSS

ManageLocalVSS - -> PreviewLocalMap
ManageLocalVSS - -> PreviewLocalConcert
PreviewLocalMap - -> ManageLocalVSS
PreviewLocalConcert - -> ManageLocalVSS
PreviewLocalMap - -> AdjustSensor
PreviewLocalConcert - -> AdjustSensor
AdjustSensor - -> PreviewLocalMap
AdjustSensor - -> PreviewLocalConcert
AdjustSensor - -> PlayMapModeVSS
AdjustSensor - -> PlayConcertModeVSS
PlayMapModeVSS - -> PreviewLocalMap
PlayConcertModeVSS - -> PreviewLocalConcert

ManageLocalVSS - -> CreateVSS
CreateVSS - -> ManageLocalVSS
CreateVSS - -> CreateMapModeVSS
CreateMapModeVSS - -> ManageLocalVSS
CreateVSS - -> CreateConcertModeVSS
CreateConcertModeVSS - -> ManageLocalVSS

ManageLocalVSS -> BrowseOnlineVSS
BrowseOnlineVSS -> ManageLocalVSS

BrowseOnlineVSS -up-> Config
Config -down-> BrowseOnlineVSS
ManageLocalVSS -up-> Config
Config -down-> ManageLocalVSS

BrowseOnlineVSS - -> PreviewOnlineConcert
PreviewOnlineConcert - -> BrowseOnlineVSS
BrowseOnlineVSS - -> PreviewOnlineMap
PreviewOnlineMap - -> BrowseOnlineVSS

@enduml

PlantUML version 1.2017.20(Tue Dec 12 00:57:05 CST 2017)
(GPL source distribution)
Java Runtime: Java(TM) SE Runtime Environment
JVM: Java HotSpot(TM) Client VM
Java Version: 1.8.0_161-b12
Operating System: Windows 8.1
OS Version: 6.3
Default Encoding: GBK
Language: zh
Country: CN
--></g></svg>