<?xml version="1.0" encoding="UTF-8" standalone="no"?><svg xmlns="http://www.w3.org/2000/svg" xmlns:xlink="http://www.w3.org/1999/xlink" contentScriptType="application/ecmascript" contentStyleType="text/css" height="533px" preserveAspectRatio="none" style="width:1565px;height:533px;" version="1.1" viewBox="0 0 1565 533"
    width="1565px" zoomAndPan="magnify"><defs><filter height="300%" id="f1j8q7xakehkrr" width="300%" x="-1" y="-1"><feGaussianBlur result="blurOut" stdDeviation="2.0"/><feColorMatrix in="blurOut" result="blurOut2" type="matrix" values="0 0 0 0 0 0 0 0 0 0 0 0 0 0 0 0 0 0 .4 0"/><feOffset dx="4.0" dy="4.0" in="blurOut2" result="blurOut3"/><feBlend in="SourceGraphic" in2="blurOut3" mode="normal"/></filter></defs><g><ellipse cx="883.94" cy="173.588" fill="#FEFECE" filter="url(#f1j8q7xakehkrr)" rx="93.44" ry="21.088" style="stroke: #A80036; stroke-width: 1.5;"/><text fill="#000000" font-family="sans-serif" font-size="14" lengthAdjust="spacingAndGlyphs" textLength="161" x="803.44" y="178.3321">ManageLocalVSSLibrary</text><ellipse cx="1327.8701" cy="287.659" fill="#FEFECE" filter="url(#f1j8q7xakehkrr)" rx="29.8701" ry="14.659" style="stroke: #A80036; stroke-width: 1.5;"/><text fill="#000000" font-family="sans-serif" font-size="14" lengthAdjust="spacingAndGlyphs" textLength="38" x="1308.8701" y="292.4031">Login</text><ellipse cx="1290.1723" cy="173.5345" fill="#FEFECE" filter="url(#f1j8q7xakehkrr)" rx="95.6723" ry="21.5345" style="stroke: #A80036; stroke-width: 1.5;"/><text fill="#000000" font-family="sans-serif" font-size="14" lengthAdjust="spacingAndGlyphs" textLength="166" x="1207.1723" y="178.2786">BrowseOnlineVSSLibrary</text><!--entity User--><ellipse cx="1290" cy="18" fill="#FEFECE" filter="url(#f1j8q7xakehkrr)" rx="8" ry="8" style="stroke: #A80036; stroke-width: 2.0;"/><path d="M1290,26 L1290,53 M1277,34 L1303,34 M1290,53 L1277,68 M1290,53 L1303,68 " fill="none" filter="url(#f1j8q7xakehkrr)" style="stroke: #A80036; stroke-width: 2.0;"/><text fill="#000000" font-family="sans-serif" font-size="14" lengthAdjust="spacingAndGlyphs" textLength="31" x="1274.5" y="88.5352">User</text><ellipse cx="1463.098" cy="173.659" fill="#FEFECE" filter="url(#f1j8q7xakehkrr)" rx="42.598" ry="14.659" style="stroke: #A80036; stroke-width: 1.5;"/><text fill="#000000" font-family="sans-serif" font-size="14" lengthAdjust="spacingAndGlyphs" textLength="56" x="1435.098" y="178.4031">Register</text><ellipse cx="194.9975" cy="287.659" fill="#FEFECE" filter="url(#f1j8q7xakehkrr)" rx="52.4975" ry="14.659" style="stroke: #A80036; stroke-width: 1.5;"/><text fill="#000000" font-family="sans-serif" font-size="14" lengthAdjust="spacingAndGlyphs" textLength="70" x="159.9975" y="292.4031">CreateVSS</text><ellipse cx="88.9462" cy="400.9892" fill="#FEFECE" filter="url(#f1j8q7xakehkrr)" rx="82.9462" ry="18.9892" style="stroke: #A80036; stroke-width: 1.5;"/><text fill="#000000" font-family="sans-serif" font-size="14" lengthAdjust="spacingAndGlyphs" textLength="137" x="20.4462" y="405.7334">CreateMapModeVSS</text><ellipse cx="300.8853" cy="401.1771" fill="#FEFECE" filter="url(#f1j8q7xakehkrr)" rx="93.8853" ry="21.1771" style="stroke: #A80036; stroke-width: 1.5;"/><text fill="#000000" font-family="sans-serif" font-size="14" lengthAdjust="spacingAndGlyphs" textLength="162" x="219.8853" y="405.9212">CreateConcertModeVSS</text><ellipse cx="901.0685" cy="287.659" fill="#FEFECE" filter="url(#f1j8q7xakehkrr)" rx="59.5685" ry="14.659" style="stroke: #A80036; stroke-width: 1.5;"/><text fill="#000000" font-family="sans-serif" font-size="14" lengthAdjust="spacingAndGlyphs" textLength="80" x="861.0685" y="292.4031">RenameVSS</text><ellipse cx="1047.0833" cy="287.659" fill="#FEFECE" filter="url(#f1j8q7xakehkrr)" rx="51.0833" ry="14.659" style="stroke: #A80036; stroke-width: 1.5;"/><text fill="#000000" font-family="sans-serif" font-size="14" lengthAdjust="spacingAndGlyphs" textLength="68" x="1013.0833" y="292.4031">DeleteVSS</text><ellipse cx="337.8259" cy="287.659" fill="#FEFECE" filter="url(#f1j8q7xakehkrr)" rx="55.3259" ry="14.659" style="stroke: #A80036; stroke-width: 1.5;"/><text fill="#000000" font-family="sans-serif" font-size="14" lengthAdjust="spacingAndGlyphs" textLength="74" x="300.8259" y="292.4031">UploadVSS</text><ellipse cx="468.7696" cy="287.659" fill="#FEFECE" filter="url(#f1j8q7xakehkrr)" rx="39.7696" ry="14.659" style="stroke: #A80036; stroke-width: 1.5;"/><text fill="#000000" font-family="sans-serif" font-size="14" lengthAdjust="spacingAndGlyphs" textLength="52" x="442.7696" y="292.4031">LikeVSS</text><ellipse cx="743.7696" cy="401.159" fill="#FEFECE" filter="url(#f1j8q7xakehkrr)" rx="39.7696" ry="14.659" style="stroke: #A80036; stroke-width: 1.5;"/><text fill="#000000" font-family="sans-serif" font-size="14" lengthAdjust="spacingAndGlyphs" textLength="52" x="717.7696" y="405.9031">PlayVSS</text><ellipse cx="644.8837" cy="502.4767" fill="#FEFECE" filter="url(#f1j8q7xakehkrr)" rx="75.3837" ry="17.4767" style="stroke: #A80036; stroke-width: 1.5;"/><text fill="#000000" font-family="sans-serif" font-size="14" lengthAdjust="spacingAndGlyphs" textLength="119" x="585.3837" y="507.2209">PlayMapModeVSS</text><ellipse cx="841.9647" cy="502.5929" fill="#FEFECE" filter="url(#f1j8q7xakehkrr)" rx="85.9647" ry="19.5929" style="stroke: #A80036; stroke-width: 1.5;"/><text fill="#000000" font-family="sans-serif" font-size="14" lengthAdjust="spacingAndGlyphs" textLength="144" x="769.9647" y="507.3371">PlayConcertModeVSS</text><ellipse cx="1489.7669" cy="287.3534" fill="#FEFECE" filter="url(#f1j8q7xakehkrr)" rx="64.7669" ry="15.3534" style="stroke: #A80036; stroke-width: 1.5;"/><text fill="#000000" font-family="sans-serif" font-size="14" lengthAdjust="spacingAndGlyphs" textLength="92" x="1443.7669" y="292.0975">CommentVSS</text><ellipse cx="608.8954" cy="287.2791" fill="#FEFECE" filter="url(#f1j8q7xakehkrr)" rx="64.3954" ry="15.2791" style="stroke: #A80036; stroke-width: 1.5;"/><text fill="#000000" font-family="sans-serif" font-size="14" lengthAdjust="spacingAndGlyphs" textLength="91" x="563.3954" y="292.0232">AdjustSensor</text><ellipse cx="1172.7696" cy="287.659" fill="#FEFECE" filter="url(#f1j8q7xakehkrr)" rx="39.7696" ry="14.659" style="stroke: #A80036; stroke-width: 1.5;"/><text fill="#000000" font-family="sans-serif" font-size="14" lengthAdjust="spacingAndGlyphs" textLength="52" x="1146.7696" y="292.4031">Preview</text><!--link ManageLocalVSSLibrary to Login--><path d="M977.8658,180.7004 C1070.5606,188.8602 1205.1806,203.8339 1253,225 C1278.7282,236.388 1302.6255,259.2866 1316.2484,273.9797 " fill="none" id="ManageLocalVSSLibrary-Login" style="stroke: #A80036; stroke-width: 1.0; stroke-dasharray: 7.0,7.0;"/><polygon fill="#A80036" points="972.6543,180.2449,981.2718,185.0135,977.6353,180.6803,981.9685,177.0439,972.6543,180.2449" style="stroke: #A80036; stroke-width: 1.0;"/><text fill="#000000" font-family="sans-serif" font-size="13" lengthAdjust="spacingAndGlyphs" textLength="57" x="1281" y="238.5684">«extend»</text><!--link BrowseOnlineVSSLibrary to Login--><path d="M1328.7441,196.8905 C1338.0862,204.5834 1346.8499,214.0271 1352,225 C1359.7039,241.4142 1349.1066,261.0322 1339.6519,273.8542 " fill="none" id="BrowseOnlineVSSLibrary-Login" style="stroke: #A80036; stroke-width: 1.0; stroke-dasharray: 7.0,7.0;"/><polygon fill="#A80036" points="1324.7137,193.7013,1329.2894,202.4227,1328.6347,196.8039,1334.2535,196.1491,1324.7137,193.7013" style="stroke: #A80036; stroke-width: 1.0;"/><text fill="#000000" font-family="sans-serif" font-size="13" lengthAdjust="spacingAndGlyphs" textLength="57" x="1355" y="238.5684">«extend»</text><!--link User to Register--><path d="M1305.6577,60.7229 C1336.4292,82.7787 1404.8828,131.8437 1440.4954,157.3695 " fill="none" id="User-Register" style="stroke: #A80036; stroke-width: 1.0;"/><polygon fill="#A80036" points="1444.6708,160.3623,1439.6861,151.868,1440.6069,157.4494,1435.0255,158.3702,1444.6708,160.3623" style="stroke: #A80036; stroke-width: 1.0;"/><!--link User to ManageLocalVSSLibrary--><path d="M1274.3331,54.285 C1220.3589,70.7697 1040.2172,125.7883 944.6873,154.965 " fill="none" id="User-ManageLocalVSSLibrary" style="stroke: #A80036; stroke-width: 1.0;"/><polygon fill="#A80036" points="939.6419,156.5059,949.4178,157.7024,944.4238,155.0453,947.0809,150.0513,939.6419,156.5059" style="stroke: #A80036; stroke-width: 1.0;"/><!--link User to BrowseOnlineVSSLibrary--><path d="M1290,91.1352 C1290,109.4667 1290,130.4703 1290,146.6793 " fill="none" id="User-BrowseOnlineVSSLibrary" style="stroke: #A80036; stroke-width: 1.0;"/><polygon fill="#A80036" points="1290,151.9816,1294,142.9816,1290,146.9816,1286,142.9816,1290,151.9816" style="stroke: #A80036; stroke-width: 1.0;"/><!--link ManageLocalVSSLibrary to CreateVSS--><path d="M792.8107,178.2222 C695.4964,184.4314 537.1851,197.8999 403,225 C341.9123,237.3373 273.0024,259.7963 231.8344,274.1646 " fill="none" id="ManageLocalVSSLibrary-CreateVSS" style="stroke: #A80036; stroke-width: 1.0; stroke-dasharray: 7.0,7.0;"/><polygon fill="#A80036" points="226.9539,275.8755,236.7704,276.6729,231.6724,274.2214,234.1239,269.1233,226.9539,275.8755" style="stroke: #A80036; stroke-width: 1.0;"/><text fill="#000000" font-family="sans-serif" font-size="13" lengthAdjust="spacingAndGlyphs" textLength="60" x="404" y="238.5684">«include»</text><!--link CreateVSS to CreateMapModeVSS--><path d="M167.6809,316.7521 C148.4122,337.3841 123.1713,364.4109 106.539,382.22 " fill="none" id="CreateVSS-CreateMapModeVSS" style="stroke: #A80036; stroke-width: 1.0;"/><polygon fill="none" points="162.8081,311.7139,181.575,301.8749,173.0399,321.2695,162.8081,311.7139" style="stroke: #A80036; stroke-width: 1.0;"/><!--link CreateVSS to CreateConcertModeVSS--><path d="M222.1453,316.5659 C240.7231,336.4582 264.9142,362.361 281.5772,380.203 " fill="none" id="CreateVSS-CreateConcertModeVSS" style="stroke: #A80036; stroke-width: 1.0;"/><polygon fill="none" points="216.9601,321.2695,208.425,301.8749,227.1919,311.7139,216.9601,321.2695" style="stroke: #A80036; stroke-width: 1.0;"/><!--link ManageLocalVSSLibrary to RenameVSS--><path d="M880.371,194.7077 C878.6963,208.3533 877.7206,226.3897 881,242 C882.8804,250.9511 886.6326,260.2904 890.3841,268.1619 " fill="none" id="ManageLocalVSSLibrary-RenameVSS" style="stroke: #A80036; stroke-width: 1.0; stroke-dasharray: 7.0,7.0;"/><polygon fill="#A80036" points="892.703,272.8566,892.3037,263.0158,890.4887,268.3736,885.1309,266.5587,892.703,272.8566" style="stroke: #A80036; stroke-width: 1.0;"/><text fill="#000000" font-family="sans-serif" font-size="13" lengthAdjust="spacingAndGlyphs" textLength="60" x="882" y="238.5684">«include»</text><!--link ManageLocalVSSLibrary to DeleteVSS--><path d="M912.7659,193.6185 C944.2999,215.673 994.2924,250.637 1023.5449,271.0958 " fill="none" id="ManageLocalVSSLibrary-DeleteVSS" style="stroke: #A80036; stroke-width: 1.0; stroke-dasharray: 7.0,7.0;"/><polygon fill="#A80036" points="1027.7057,274.0058,1022.623,265.5698,1023.6084,271.1402,1018.038,272.1256,1027.7057,274.0058" style="stroke: #A80036; stroke-width: 1.0;"/><text fill="#000000" font-family="sans-serif" font-size="13" lengthAdjust="spacingAndGlyphs" textLength="60" x="981" y="238.5684">«include»</text><!--link ManageLocalVSSLibrary to UploadVSS--><path d="M798.4068,182.1578 C727.0961,190.3082 623.1574,204.3698 534,225 C477.5542,238.0611 413.9445,259.6649 374.9142,273.7407 " fill="none" id="ManageLocalVSSLibrary-UploadVSS" style="stroke: #A80036; stroke-width: 1.0; stroke-dasharray: 7.0,7.0;"/><polygon fill="#A80036" points="369.8085,275.5896,379.6327,276.2859,374.5097,273.887,376.9086,268.764,369.8085,275.5896" style="stroke: #A80036; stroke-width: 1.0;"/><text fill="#000000" font-family="sans-serif" font-size="13" lengthAdjust="spacingAndGlyphs" textLength="60" x="535" y="238.5684">«include»</text><!--link ManageLocalVSSLibrary to LikeVSS--><path d="M813.9472,187.4216 C768.6116,196.8978 708.4713,210.3452 656,225 C601.4146,240.2452 539.2169,261.9133 502.0851,275.3196 " fill="none" id="ManageLocalVSSLibrary-LikeVSS" style="stroke: #A80036; stroke-width: 1.0; stroke-dasharray: 7.0,7.0;"/><polygon fill="#A80036" points="497.2382,277.074,507.0623,277.7719,501.9397,275.3722,504.3394,270.2495,497.2382,277.074" style="stroke: #A80036; stroke-width: 1.0;"/><text fill="#000000" font-family="sans-serif" font-size="13" lengthAdjust="spacingAndGlyphs" textLength="60" x="657" y="238.5684">«include»</text><!--link ManageLocalVSSLibrary to PlayVSS--><path d="M847.2037,192.925 C819.0138,209.867 781.7133,237.1759 762,272 C742.3663,306.6835 741.2353,354.7554 742.436,381.3406 " fill="none" id="ManageLocalVSSLibrary-PlayVSS" style="stroke: #A80036; stroke-width: 1.0; stroke-dasharray: 7.0,7.0;"/><polygon fill="#A80036" points="742.7024,386.3608,746.2195,377.1614,742.4373,381.3678,738.2308,377.5856,742.7024,386.3608" style="stroke: #A80036; stroke-width: 1.0;"/><text fill="#000000" font-family="sans-serif" font-size="13" lengthAdjust="spacingAndGlyphs" textLength="60" x="763" y="292.5684">«include»</text><!--link PlayVSS to PlayMapModeVSS--><path d="M716.4374,429.2586 C698.8853,447.254 676.7201,469.9789 661.7712,485.3052 " fill="none" id="PlayVSS-PlayMapModeVSS" style="stroke: #A80036; stroke-width: 1.0;"/><polygon fill="none" points="711.6726,424.1185,730.6484,414.6887,721.6948,433.8938,711.6726,424.1185" style="stroke: #A80036; stroke-width: 1.0;"/><!--link PlayVSS to PlayConcertModeVSS--><path d="M771.2404,429.2133 C787.8208,446.3859 808.5725,467.8786 823.3056,483.1379 " fill="none" id="PlayVSS-PlayConcertModeVSS" style="stroke: #A80036; stroke-width: 1.0;"/><polygon fill="none" points="766.0728,433.939,757.2167,414.6887,776.1445,424.2146,766.0728,433.939" style="stroke: #A80036; stroke-width: 1.0;"/><!--link BrowseOnlineVSSLibrary to CommentVSS--><path d="M1346.9366,190.8178 C1370.7589,199.3272 1398.1578,210.8285 1421,225 C1440.4588,237.0724 1459.5133,254.9254 1472.651,268.463 " fill="none" id="BrowseOnlineVSSLibrary-CommentVSS" style="stroke: #A80036; stroke-width: 1.0; stroke-dasharray: 7.0,7.0;"/><polygon fill="#A80036" points="1476.195,272.1584,1472.8525,262.8941,1472.7342,268.5497,1467.0785,268.4314,1476.195,272.1584" style="stroke: #A80036; stroke-width: 1.0;"/><text fill="#000000" font-family="sans-serif" font-size="13" lengthAdjust="spacingAndGlyphs" textLength="60" x="1444" y="238.5684">«include»</text><!--link AdjustSensor to PlayVSS--><path d="M620.9193,307.3256 C629.5199,320.5108 642.0391,337.6156 656,350 C674.8898,366.7567 700.1345,380.7064 718.7404,389.7565 " fill="none" id="AdjustSensor-PlayVSS" style="stroke: #A80036; stroke-width: 1.0; stroke-dasharray: 7.0,7.0;"/><polygon fill="#A80036" points="618.1564,303.0169,619.6474,312.7522,620.8554,307.2259,626.3818,308.4339,618.1564,303.0169" style="stroke: #A80036; stroke-width: 1.0;"/><text fill="#000000" font-family="sans-serif" font-size="13" lengthAdjust="spacingAndGlyphs" textLength="60" x="657" y="346.5684">«include»</text><!--link ManageLocalVSSLibrary to Preview--><path d="M944.0154,189.6536 C975.6808,198.8192 1014.9261,211.2043 1049,225 C1083.71,239.0533 1121.9508,259.0628 1146.6586,272.6265 " fill="none" id="ManageLocalVSSLibrary-Preview" style="stroke: #A80036; stroke-width: 1.0; stroke-dasharray: 7.0,7.0;"/><polygon fill="#A80036" points="1151.1107,275.0812,1145.1608,267.2327,1146.7322,272.6669,1141.298,274.2384,1151.1107,275.0812" style="stroke: #A80036; stroke-width: 1.0;"/><text fill="#000000" font-family="sans-serif" font-size="13" lengthAdjust="spacingAndGlyphs" textLength="60" x="1084" y="238.5684">«include»</text><!--link BrowseOnlineVSSLibrary to Preview--><path d="M1233.4465,190.9887 C1216.2648,198.8604 1198.8244,209.882 1187,225 C1177.505,237.1397 1174.1877,254.4547 1173.1419,267.7826 " fill="none" id="BrowseOnlineVSSLibrary-Preview" style="stroke: #A80036; stroke-width: 1.0; stroke-dasharray: 7.0,7.0;"/><polygon fill="#A80036" points="1172.8364,272.8579,1177.3702,264.1146,1173.137,267.8669,1169.3847,263.6337,1172.8364,272.8579" style="stroke: #A80036; stroke-width: 1.0;"/><text fill="#000000" font-family="sans-serif" font-size="13" lengthAdjust="spacingAndGlyphs" textLength="60" x="1188" y="238.5684">«include»</text><!--link Preview to PlayVSS--><path d="M1141.0563,296.2343 C1132.8908,298.4538 1124.1233,300.8256 1116,303 C994.0179,335.6523 849.2994,373.5302 781.9691,391.1034 " fill="none" id="Preview-PlayVSS" style="stroke: #A80036; stroke-width: 1.0; stroke-dasharray: 7.0,7.0;"/><polygon fill="#A80036" points="776.8662,392.4351,786.5846,394.0329,781.7042,391.1725,784.5645,386.2921,776.8662,392.4351" style="stroke: #A80036; stroke-width: 1.0;"/><text fill="#000000" font-family="sans-serif" font-size="13" lengthAdjust="spacingAndGlyphs" textLength="60" x="994" y="346.5684">«include»</text><!--
@startuml
(ManageLocalVSSLibrary) <.. (Login): <<extend>>
(BrowseOnlineVSSLibrary) <.. (Login): <<extend>>

User - -> (Register)
User - -> (ManageLocalVSSLibrary)
User - -> (BrowseOnlineVSSLibrary)

(ManageLocalVSSLibrary) ..> (CreateVSS): <<include>>
(CreateVSS) <|- - (CreateMapModeVSS)
(CreateVSS) <|- - (CreateConcertModeVSS)
(ManageLocalVSSLibrary) ..> (RenameVSS): <<include>>
(ManageLocalVSSLibrary) ..> (DeleteVSS): <<include>>
(ManageLocalVSSLibrary) ..> (UploadVSS): <<include>>
(ManageLocalVSSLibrary) ..> (LikeVSS): <<include>>
(ManageLocalVSSLibrary) ..> (PlayVSS): <<include>>
(PlayVSS) <|- - (PlayMapModeVSS)
(PlayVSS) <|- - (PlayConcertModeVSS)
(BrowseOnlineVSSLibrary) ..> (CommentVSS): <<include>>

(AdjustSensor) <.. (PlayVSS): <<include>>

(ManageLocalVSSLibrary) ..> (Preview): <<include>>
(BrowseOnlineVSSLibrary) ..> (Preview): <<include>>

(Preview) ..> (PlayVSS): <<include>>

@enduml

PlantUML version 1.2018.01(Mon Jan 29 02:08:22 CST 2018)
(GPL source distribution)
Java Runtime: Java(TM) SE Runtime Environment
JVM: Java HotSpot(TM) 64-Bit Server VM
Java Version: 9+181
Operating System: Mac OS X
OS Version: 10.12.6
Default Encoding: UTF-8
Language: zh
Country: CN
--></g></svg>