<?xml version="1.0" encoding="UTF-8" standalone="no"?><svg xmlns="http://www.w3.org/2000/svg" xmlns:xlink="http://www.w3.org/1999/xlink" contentScriptType="application/ecmascript" contentStyleType="text/css" height="391px" preserveAspectRatio="none" style="width:1974px;height:391px;" version="1.1" viewBox="0 0 1974 391"
    width="1974px" zoomAndPan="magnify"><defs><filter height="300%" id="f14f79pig3151j" width="300%" x="-1" y="-1"><feGaussianBlur result="blurOut" stdDeviation="2.0"/><feColorMatrix in="blurOut" result="blurOut2" type="matrix" values="0 0 0 0 0 0 0 0 0 0 0 0 0 0 0 0 0 0 .4 0"/><feOffset dx="4.0" dy="4.0" in="blurOut2" result="blurOut3"/><feBlend in="SourceGraphic" in2="blurOut3" mode="normal"/></filter></defs><g><!--cluster Social Classes--><polygon fill="#FFFF00" filter="url(#f14f79pig3151j)" points="1179,197,1287,197,1294,219.4883,1373,219.4883,1373,280,1179,280,1179,197" style="stroke: #000000; stroke-width: 1.5;"/><line style="stroke: #000000; stroke-width: 1.5;" x1="1179" x2="1294" y1="219.4883" y2="219.4883"/><text fill="#000000" font-family="sans-serif" font-size="14" font-weight="bold" lengthAdjust="spacingAndGlyphs" textLength="102" x="1183" y="212.5352">Social Classes</text><!--class Comment--><rect fill="#FEFECE" filter="url(#f14f79pig3151j)" height="48" id="Comment" style="stroke: #A80036; stroke-width: 1.5;" width="87" x="1277.5" y="224"/><ellipse cx="1292.5" cy="240" fill="#ADD1B2" rx="11" ry="11" style="stroke: #A80036; stroke-width: 1.0;"/><path d="M1295.4731,245.6431 Q1294.8921,245.9419 1294.2529,246.0913 Q1293.6138,246.2407 1292.9082,246.2407 Q1290.4014,246.2407 1289.0815,244.5889 Q1287.7617,242.937 1287.7617,239.8159 Q1287.7617,236.6865 1289.0815,235.0347 Q1290.4014,233.3828 1292.9082,233.3828 Q1293.6138,233.3828 1294.2612,233.5322 Q1294.9087,233.6816 1295.4731,233.9805 L1295.4731,236.7031 Q1294.8423,236.1221 1294.2488,235.8523 Q1293.6553,235.5825 1293.0244,235.5825 Q1291.6797,235.5825 1290.9949,236.6492 Q1290.3101,237.7158 1290.3101,239.8159 Q1290.3101,241.9077 1290.9949,242.9744 Q1291.6797,244.041 1293.0244,244.041 Q1293.6553,244.041 1294.2488,243.7712 Q1294.8423,243.5015 1295.4731,242.9204 Z "/><text fill="#000000" font-family="sans-serif" font-size="12" lengthAdjust="spacingAndGlyphs" textLength="55" x="1306.5" y="244.5352">Comment</text><line style="stroke: #A80036; stroke-width: 1.5;" x1="1278.5" x2="1363.5" y1="256" y2="256"/><line style="stroke: #A80036; stroke-width: 1.5;" x1="1278.5" x2="1363.5" y1="264" y2="264"/><!--class Like--><rect fill="#FEFECE" filter="url(#f14f79pig3151j)" height="48" id="Like" style="stroke: #A80036; stroke-width: 1.5;" width="55" x="1187.5" y="224"/><ellipse cx="1202.5" cy="240" fill="#ADD1B2" rx="11" ry="11" style="stroke: #A80036; stroke-width: 1.0;"/><path d="M1205.4731,245.6431 Q1204.8921,245.9419 1204.2529,246.0913 Q1203.6138,246.2407 1202.9082,246.2407 Q1200.4014,246.2407 1199.0815,244.5889 Q1197.7617,242.937 1197.7617,239.8159 Q1197.7617,236.6865 1199.0815,235.0347 Q1200.4014,233.3828 1202.9082,233.3828 Q1203.6138,233.3828 1204.2612,233.5322 Q1204.9087,233.6816 1205.4731,233.9805 L1205.4731,236.7031 Q1204.8423,236.1221 1204.2488,235.8523 Q1203.6553,235.5825 1203.0244,235.5825 Q1201.6797,235.5825 1200.9949,236.6492 Q1200.3101,237.7158 1200.3101,239.8159 Q1200.3101,241.9077 1200.9949,242.9744 Q1201.6797,244.041 1203.0244,244.041 Q1203.6553,244.041 1204.2488,243.7712 Q1204.8423,243.5015 1205.4731,242.9204 Z "/><text fill="#000000" font-family="sans-serif" font-size="12" lengthAdjust="spacingAndGlyphs" textLength="23" x="1216.5" y="244.5352">Like</text><line style="stroke: #A80036; stroke-width: 1.5;" x1="1188.5" x2="1241.5" y1="256" y2="256"/><line style="stroke: #A80036; stroke-width: 1.5;" x1="1188.5" x2="1241.5" y1="264" y2="264"/><!--class User--><rect fill="#FEFECE" filter="url(#f14f79pig3151j)" height="48" id="User" style="stroke: #A80036; stroke-width: 1.5;" width="58" x="474" y="8"/><ellipse cx="489" cy="24" fill="#ADD1B2" rx="11" ry="11" style="stroke: #A80036; stroke-width: 1.0;"/><path d="M491.9731,29.6431 Q491.3921,29.9419 490.7529,30.0913 Q490.1138,30.2407 489.4082,30.2407 Q486.9014,30.2407 485.5815,28.5889 Q484.2617,26.937 484.2617,23.8159 Q484.2617,20.6865 485.5815,19.0347 Q486.9014,17.3828 489.4082,17.3828 Q490.1138,17.3828 490.7612,17.5322 Q491.4087,17.6816 491.9731,17.9805 L491.9731,20.7031 Q491.3423,20.1221 490.7488,19.8523 Q490.1553,19.5825 489.5244,19.5825 Q488.1797,19.5825 487.4949,20.6492 Q486.8101,21.7158 486.8101,23.8159 Q486.8101,25.9077 487.4949,26.9744 Q488.1797,28.041 489.5244,28.041 Q490.1553,28.041 490.7488,27.7712 Q491.3423,27.5015 491.9731,26.9204 Z "/><text fill="#000000" font-family="sans-serif" font-size="12" lengthAdjust="spacingAndGlyphs" textLength="26" x="503" y="28.5352">User</text><line style="stroke: #A80036; stroke-width: 1.5;" x1="475" x2="531" y1="40" y2="40"/><line style="stroke: #A80036; stroke-width: 1.5;" x1="475" x2="531" y1="48" y2="48"/><!--class SoundSource--><rect fill="#FEFECE" filter="url(#f14f79pig3151j)" height="48" id="SoundSource" style="stroke: #A80036; stroke-width: 1.5;" width="105" x="719.5" y="332"/><ellipse cx="734.5" cy="348" fill="#ADD1B2" rx="11" ry="11" style="stroke: #A80036; stroke-width: 1.0;"/><path d="M737.4731,353.6431 Q736.8921,353.9419 736.2529,354.0913 Q735.6138,354.2407 734.9082,354.2407 Q732.4014,354.2407 731.0815,352.5889 Q729.7617,350.937 729.7617,347.8159 Q729.7617,344.6865 731.0815,343.0347 Q732.4014,341.3828 734.9082,341.3828 Q735.6138,341.3828 736.2612,341.5322 Q736.9087,341.6816 737.4731,341.9805 L737.4731,344.7031 Q736.8423,344.1221 736.2488,343.8523 Q735.6553,343.5825 735.0244,343.5825 Q733.6797,343.5825 732.9949,344.6492 Q732.3101,345.7158 732.3101,347.8159 Q732.3101,349.9077 732.9949,350.9744 Q733.6797,352.041 735.0244,352.041 Q735.6553,352.041 736.2488,351.7712 Q736.8423,351.5015 737.4731,350.9204 Z "/><text fill="#000000" font-family="sans-serif" font-size="12" lengthAdjust="spacingAndGlyphs" textLength="73" x="748.5" y="352.5352">SoundSource</text><line style="stroke: #A80036; stroke-width: 1.5;" x1="720.5" x2="823.5" y1="364" y2="364"/><line style="stroke: #A80036; stroke-width: 1.5;" x1="720.5" x2="823.5" y1="372" y2="372"/><!--class MapModeVirtualSoundSpace--><rect fill="#FEFECE" filter="url(#f14f79pig3151j)" height="48" id="MapModeVirtualSoundSpace" style="stroke: #A80036; stroke-width: 1.5;" width="195" x="554.5" y="224"/><ellipse cx="569.5" cy="240" fill="#ADD1B2" rx="11" ry="11" style="stroke: #A80036; stroke-width: 1.0;"/><path d="M572.4731,245.6431 Q571.8921,245.9419 571.2529,246.0913 Q570.6138,246.2407 569.9082,246.2407 Q567.4014,246.2407 566.0815,244.5889 Q564.7617,242.937 564.7617,239.8159 Q564.7617,236.6865 566.0815,235.0347 Q567.4014,233.3828 569.9082,233.3828 Q570.6138,233.3828 571.2612,233.5322 Q571.9087,233.6816 572.4731,233.9805 L572.4731,236.7031 Q571.8423,236.1221 571.2488,235.8523 Q570.6553,235.5825 570.0244,235.5825 Q568.6797,235.5825 567.9949,236.6492 Q567.3101,237.7158 567.3101,239.8159 Q567.3101,241.9077 567.9949,242.9744 Q568.6797,244.041 570.0244,244.041 Q570.6553,244.041 571.2488,243.7712 Q571.8423,243.5015 572.4731,242.9204 Z "/><text fill="#000000" font-family="sans-serif" font-size="12" lengthAdjust="spacingAndGlyphs" textLength="163" x="583.5" y="244.5352">MapModeVirtualSoundSpace</text><line style="stroke: #A80036; stroke-width: 1.5;" x1="555.5" x2="748.5" y1="256" y2="256"/><line style="stroke: #A80036; stroke-width: 1.5;" x1="555.5" x2="748.5" y1="264" y2="264"/><!--class ConcertModeVirtualSoundSpace--><rect fill="#FEFECE" filter="url(#f14f79pig3151j)" height="48" id="ConcertModeVirtualSoundSpace" style="stroke: #A80036; stroke-width: 1.5;" width="214" x="785" y="224"/><ellipse cx="800" cy="240" fill="#ADD1B2" rx="11" ry="11" style="stroke: #A80036; stroke-width: 1.0;"/><path d="M802.9731,245.6431 Q802.3921,245.9419 801.7529,246.0913 Q801.1138,246.2407 800.4082,246.2407 Q797.9014,246.2407 796.5815,244.5889 Q795.2617,242.937 795.2617,239.8159 Q795.2617,236.6865 796.5815,235.0347 Q797.9014,233.3828 800.4082,233.3828 Q801.1138,233.3828 801.7612,233.5322 Q802.4087,233.6816 802.9731,233.9805 L802.9731,236.7031 Q802.3423,236.1221 801.7488,235.8523 Q801.1553,235.5825 800.5244,235.5825 Q799.1797,235.5825 798.4949,236.6492 Q797.8101,237.7158 797.8101,239.8159 Q797.8101,241.9077 798.4949,242.9744 Q799.1797,244.041 800.5244,244.041 Q801.1553,244.041 801.7488,243.7712 Q802.3423,243.5015 802.9731,242.9204 Z "/><text fill="#000000" font-family="sans-serif" font-size="12" lengthAdjust="spacingAndGlyphs" textLength="182" x="814" y="244.5352">ConcertModeVirtualSoundSpace</text><line style="stroke: #A80036; stroke-width: 1.5;" x1="786" x2="998" y1="256" y2="256"/><line style="stroke: #A80036; stroke-width: 1.5;" x1="786" x2="998" y1="264" y2="264"/><!--class LocalSoundSpaceLibrary--><rect fill="#FEFECE" filter="url(#f14f79pig3151j)" height="48" id="LocalSoundSpaceLibrary" style="stroke: #A80036; stroke-width: 1.5;" width="170" x="775" y="116"/><ellipse cx="790" cy="132" fill="#ADD1B2" rx="11" ry="11" style="stroke: #A80036; stroke-width: 1.0;"/><path d="M792.9731,137.6431 Q792.3921,137.9419 791.7529,138.0913 Q791.1138,138.2407 790.4082,138.2407 Q787.9014,138.2407 786.5815,136.5889 Q785.2617,134.937 785.2617,131.8159 Q785.2617,128.6865 786.5815,127.0347 Q787.9014,125.3828 790.4082,125.3828 Q791.1138,125.3828 791.7612,125.5322 Q792.4087,125.6816 792.9731,125.9805 L792.9731,128.7031 Q792.3423,128.1221 791.7488,127.8523 Q791.1553,127.5825 790.5244,127.5825 Q789.1797,127.5825 788.4949,128.6492 Q787.8101,129.7158 787.8101,131.8159 Q787.8101,133.9077 788.4949,134.9744 Q789.1797,136.041 790.5244,136.041 Q791.1553,136.041 791.7488,135.7712 Q792.3423,135.5015 792.9731,134.9204 Z "/><text fill="#000000" font-family="sans-serif" font-size="12" lengthAdjust="spacingAndGlyphs" textLength="138" x="804" y="136.5352">LocalSoundSpaceLibrary</text><line style="stroke: #A80036; stroke-width: 1.5;" x1="776" x2="944" y1="148" y2="148"/><line style="stroke: #A80036; stroke-width: 1.5;" x1="776" x2="944" y1="156" y2="156"/><!--class OnlineSoundSpaceLibrary--><rect fill="#FEFECE" filter="url(#f14f79pig3151j)" height="48" id="OnlineSoundSpaceLibrary" style="stroke: #A80036; stroke-width: 1.5;" width="177" x="562.5" y="116"/><ellipse cx="577.5" cy="132" fill="#ADD1B2" rx="11" ry="11" style="stroke: #A80036; stroke-width: 1.0;"/><path d="M580.4731,137.6431 Q579.8921,137.9419 579.2529,138.0913 Q578.6138,138.2407 577.9082,138.2407 Q575.4014,138.2407 574.0815,136.5889 Q572.7617,134.937 572.7617,131.8159 Q572.7617,128.6865 574.0815,127.0347 Q575.4014,125.3828 577.9082,125.3828 Q578.6138,125.3828 579.2612,125.5322 Q579.9087,125.6816 580.4731,125.9805 L580.4731,128.7031 Q579.8423,128.1221 579.2488,127.8523 Q578.6553,127.5825 578.0244,127.5825 Q576.6797,127.5825 575.9949,128.6492 Q575.3101,129.7158 575.3101,131.8159 Q575.3101,133.9077 575.9949,134.9744 Q576.6797,136.041 578.0244,136.041 Q578.6553,136.041 579.2488,135.7712 Q579.8423,135.5015 580.4731,134.9204 Z "/><text fill="#000000" font-family="sans-serif" font-size="12" lengthAdjust="spacingAndGlyphs" textLength="145" x="591.5" y="136.5352">OnlineSoundSpaceLibrary</text><line style="stroke: #A80036; stroke-width: 1.5;" x1="563.5" x2="738.5" y1="148" y2="148"/><line style="stroke: #A80036; stroke-width: 1.5;" x1="563.5" x2="738.5" y1="156" y2="156"/><!--class Sensor--><rect fill="#FEFECE" filter="url(#f14f79pig3151j)" height="48" id="Sensor" style="stroke: #A80036; stroke-width: 1.5;" width="70" x="311" y="116"/><ellipse cx="326" cy="132" fill="#ADD1B2" rx="11" ry="11" style="stroke: #A80036; stroke-width: 1.0;"/><path d="M328.9731,137.6431 Q328.3921,137.9419 327.7529,138.0913 Q327.1138,138.2407 326.4082,138.2407 Q323.9014,138.2407 322.5815,136.5889 Q321.2617,134.937 321.2617,131.8159 Q321.2617,128.6865 322.5815,127.0347 Q323.9014,125.3828 326.4082,125.3828 Q327.1138,125.3828 327.7612,125.5322 Q328.4087,125.6816 328.9731,125.9805 L328.9731,128.7031 Q328.3423,128.1221 327.7488,127.8523 Q327.1553,127.5825 326.5244,127.5825 Q325.1797,127.5825 324.4949,128.6492 Q323.8101,129.7158 323.8101,131.8159 Q323.8101,133.9077 324.4949,134.9744 Q325.1797,136.041 326.5244,136.041 Q327.1553,136.041 327.7488,135.7712 Q328.3423,135.5015 328.9731,134.9204 Z "/><text fill="#000000" font-family="sans-serif" font-size="12" lengthAdjust="spacingAndGlyphs" textLength="38" x="340" y="136.5352">Sensor</text><line style="stroke: #A80036; stroke-width: 1.5;" x1="312" x2="380" y1="148" y2="148"/><line style="stroke: #A80036; stroke-width: 1.5;" x1="312" x2="380" y1="156" y2="156"/><!--class RegisterPage--><rect fill="#FEFECE" filter="url(#f14f79pig3151j)" height="48" id="RegisterPage" style="stroke: #A80036; stroke-width: 1.5;" width="107" x="43.5" y="116"/><ellipse cx="58.5" cy="132" fill="#ADD1B2" rx="11" ry="11" style="stroke: #A80036; stroke-width: 1.0;"/><path d="M61.4731,137.6431 Q60.8921,137.9419 60.2529,138.0913 Q59.6138,138.2407 58.9082,138.2407 Q56.4014,138.2407 55.0815,136.5889 Q53.7617,134.937 53.7617,131.8159 Q53.7617,128.6865 55.0815,127.0347 Q56.4014,125.3828 58.9082,125.3828 Q59.6138,125.3828 60.2612,125.5322 Q60.9087,125.6816 61.4731,125.9805 L61.4731,128.7031 Q60.8423,128.1221 60.2488,127.8523 Q59.6553,127.5825 59.0244,127.5825 Q57.6797,127.5825 56.9949,128.6492 Q56.3101,129.7158 56.3101,131.8159 Q56.3101,133.9077 56.9949,134.9744 Q57.6797,136.041 59.0244,136.041 Q59.6553,136.041 60.2488,135.7712 Q60.8423,135.5015 61.4731,134.9204 Z "/><text fill="#000000" font-family="sans-serif" font-size="12" lengthAdjust="spacingAndGlyphs" textLength="75" x="72.5" y="136.5352">RegisterPage</text><line style="stroke: #A80036; stroke-width: 1.5;" x1="44.5" x2="149.5" y1="148" y2="148"/><line style="stroke: #A80036; stroke-width: 1.5;" x1="44.5" x2="149.5" y1="156" y2="156"/><!--class LoginPage--><rect fill="#FEFECE" filter="url(#f14f79pig3151j)" height="48" id="LoginPage" style="stroke: #A80036; stroke-width: 1.5;" width="90" x="186" y="116"/><ellipse cx="201" cy="132" fill="#ADD1B2" rx="11" ry="11" style="stroke: #A80036; stroke-width: 1.0;"/><path d="M203.9731,137.6431 Q203.3921,137.9419 202.7529,138.0913 Q202.1138,138.2407 201.4082,138.2407 Q198.9014,138.2407 197.5815,136.5889 Q196.2617,134.937 196.2617,131.8159 Q196.2617,128.6865 197.5815,127.0347 Q198.9014,125.3828 201.4082,125.3828 Q202.1138,125.3828 202.7612,125.5322 Q203.4087,125.6816 203.9731,125.9805 L203.9731,128.7031 Q203.3423,128.1221 202.7488,127.8523 Q202.1553,127.5825 201.5244,127.5825 Q200.1797,127.5825 199.4949,128.6492 Q198.8101,129.7158 198.8101,131.8159 Q198.8101,133.9077 199.4949,134.9744 Q200.1797,136.041 201.5244,136.041 Q202.1553,136.041 202.7488,135.7712 Q203.3423,135.5015 203.9731,134.9204 Z "/><text fill="#000000" font-family="sans-serif" font-size="12" lengthAdjust="spacingAndGlyphs" textLength="58" x="215" y="136.5352">LoginPage</text><line style="stroke: #A80036; stroke-width: 1.5;" x1="187" x2="275" y1="148" y2="148"/><line style="stroke: #A80036; stroke-width: 1.5;" x1="187" x2="275" y1="156" y2="156"/><!--class PersonalInfoPage--><rect fill="#FEFECE" filter="url(#f14f79pig3151j)" height="48" id="PersonalInfoPage" style="stroke: #A80036; stroke-width: 1.5;" width="130" x="6" y="8"/><ellipse cx="21" cy="24" fill="#ADD1B2" rx="11" ry="11" style="stroke: #A80036; stroke-width: 1.0;"/><path d="M23.9731,29.6431 Q23.3921,29.9419 22.7529,30.0913 Q22.1138,30.2407 21.4082,30.2407 Q18.9014,30.2407 17.5815,28.5889 Q16.2617,26.937 16.2617,23.8159 Q16.2617,20.6865 17.5815,19.0347 Q18.9014,17.3828 21.4082,17.3828 Q22.1138,17.3828 22.7612,17.5322 Q23.4087,17.6816 23.9731,17.9805 L23.9731,20.7031 Q23.3423,20.1221 22.7488,19.8523 Q22.1553,19.5825 21.5244,19.5825 Q20.1797,19.5825 19.4949,20.6492 Q18.8101,21.7158 18.8101,23.8159 Q18.8101,25.9077 19.4949,26.9744 Q20.1797,28.041 21.5244,28.041 Q22.1553,28.041 22.7488,27.7712 Q23.3423,27.5015 23.9731,26.9204 Z "/><text fill="#000000" font-family="sans-serif" font-size="12" lengthAdjust="spacingAndGlyphs" textLength="98" x="35" y="28.5352">PersonalInfoPage</text><line style="stroke: #A80036; stroke-width: 1.5;" x1="7" x2="135" y1="40" y2="40"/><line style="stroke: #A80036; stroke-width: 1.5;" x1="7" x2="135" y1="48" y2="48"/><!--class LocalVSSManagerPage--><rect fill="#FEFECE" filter="url(#f14f79pig3151j)" height="48" id="LocalVSSManagerPage" style="stroke: #A80036; stroke-width: 1.5;" width="159" x="1644.5" y="116"/><ellipse cx="1659.5" cy="132" fill="#ADD1B2" rx="11" ry="11" style="stroke: #A80036; stroke-width: 1.0;"/><path d="M1662.4731,137.6431 Q1661.8921,137.9419 1661.2529,138.0913 Q1660.6138,138.2407 1659.9082,138.2407 Q1657.4014,138.2407 1656.0815,136.5889 Q1654.7617,134.937 1654.7617,131.8159 Q1654.7617,128.6865 1656.0815,127.0347 Q1657.4014,125.3828 1659.9082,125.3828 Q1660.6138,125.3828 1661.2612,125.5322 Q1661.9087,125.6816 1662.4731,125.9805 L1662.4731,128.7031 Q1661.8423,128.1221 1661.2488,127.8523 Q1660.6553,127.5825 1660.0244,127.5825 Q1658.6797,127.5825 1657.9949,128.6492 Q1657.3101,129.7158 1657.3101,131.8159 Q1657.3101,133.9077 1657.9949,134.9744 Q1658.6797,136.041 1660.0244,136.041 Q1660.6553,136.041 1661.2488,135.7712 Q1661.8423,135.5015 1662.4731,134.9204 Z "/><text fill="#000000" font-family="sans-serif" font-size="12" lengthAdjust="spacingAndGlyphs" textLength="127" x="1673.5" y="136.5352">LocalVSSManagerPage</text><line style="stroke: #A80036; stroke-width: 1.5;" x1="1645.5" x2="1802.5" y1="148" y2="148"/><line style="stroke: #A80036; stroke-width: 1.5;" x1="1645.5" x2="1802.5" y1="156" y2="156"/><!--class OnlineVSSViewerPage--><rect fill="#FEFECE" filter="url(#f14f79pig3151j)" height="48" id="OnlineVSSViewerPage" style="stroke: #A80036; stroke-width: 1.5;" width="155" x="1282.5" y="116"/><ellipse cx="1297.5" cy="132" fill="#ADD1B2" rx="11" ry="11" style="stroke: #A80036; stroke-width: 1.0;"/><path d="M1300.4731,137.6431 Q1299.8921,137.9419 1299.2529,138.0913 Q1298.6138,138.2407 1297.9082,138.2407 Q1295.4014,138.2407 1294.0815,136.5889 Q1292.7617,134.937 1292.7617,131.8159 Q1292.7617,128.6865 1294.0815,127.0347 Q1295.4014,125.3828 1297.9082,125.3828 Q1298.6138,125.3828 1299.2612,125.5322 Q1299.9087,125.6816 1300.4731,125.9805 L1300.4731,128.7031 Q1299.8423,128.1221 1299.2488,127.8523 Q1298.6553,127.5825 1298.0244,127.5825 Q1296.6797,127.5825 1295.9949,128.6492 Q1295.3101,129.7158 1295.3101,131.8159 Q1295.3101,133.9077 1295.9949,134.9744 Q1296.6797,136.041 1298.0244,136.041 Q1298.6553,136.041 1299.2488,135.7712 Q1299.8423,135.5015 1300.4731,134.9204 Z "/><text fill="#000000" font-family="sans-serif" font-size="12" lengthAdjust="spacingAndGlyphs" textLength="123" x="1311.5" y="136.5352">OnlineVSSViewerPage</text><line style="stroke: #A80036; stroke-width: 1.5;" x1="1283.5" x2="1436.5" y1="148" y2="148"/><line style="stroke: #A80036; stroke-width: 1.5;" x1="1283.5" x2="1436.5" y1="156" y2="156"/><!--class VSSPreviewerPage--><rect fill="#FEFECE" filter="url(#f14f79pig3151j)" height="48" id="VSSPreviewerPage" style="stroke: #A80036; stroke-width: 1.5;" width="136" x="1473" y="116"/><ellipse cx="1488" cy="132" fill="#ADD1B2" rx="11" ry="11" style="stroke: #A80036; stroke-width: 1.0;"/><path d="M1490.9731,137.6431 Q1490.3921,137.9419 1489.7529,138.0913 Q1489.1138,138.2407 1488.4082,138.2407 Q1485.9014,138.2407 1484.5815,136.5889 Q1483.2617,134.937 1483.2617,131.8159 Q1483.2617,128.6865 1484.5815,127.0347 Q1485.9014,125.3828 1488.4082,125.3828 Q1489.1138,125.3828 1489.7612,125.5322 Q1490.4087,125.6816 1490.9731,125.9805 L1490.9731,128.7031 Q1490.3423,128.1221 1489.7488,127.8523 Q1489.1553,127.5825 1488.5244,127.5825 Q1487.1797,127.5825 1486.4949,128.6492 Q1485.8101,129.7158 1485.8101,131.8159 Q1485.8101,133.9077 1486.4949,134.9744 Q1487.1797,136.041 1488.5244,136.041 Q1489.1553,136.041 1489.7488,135.7712 Q1490.3423,135.5015 1490.9731,134.9204 Z "/><text fill="#000000" font-family="sans-serif" font-size="12" lengthAdjust="spacingAndGlyphs" textLength="104" x="1502" y="136.5352">VSSPreviewerPage</text><line style="stroke: #A80036; stroke-width: 1.5;" x1="1474" x2="1608" y1="148" y2="148"/><line style="stroke: #A80036; stroke-width: 1.5;" x1="1474" x2="1608" y1="156" y2="156"/><!--class VSSViewingPage--><rect fill="#FEFECE" filter="url(#f14f79pig3151j)" height="48" id="VSSViewingPage" style="stroke: #A80036; stroke-width: 1.5;" width="124" x="1839" y="116"/><ellipse cx="1854" cy="132" fill="#ADD1B2" rx="11" ry="11" style="stroke: #A80036; stroke-width: 1.0;"/><path d="M1856.9731,137.6431 Q1856.3921,137.9419 1855.7529,138.0913 Q1855.1138,138.2407 1854.4082,138.2407 Q1851.9014,138.2407 1850.5815,136.5889 Q1849.2617,134.937 1849.2617,131.8159 Q1849.2617,128.6865 1850.5815,127.0347 Q1851.9014,125.3828 1854.4082,125.3828 Q1855.1138,125.3828 1855.7612,125.5322 Q1856.4087,125.6816 1856.9731,125.9805 L1856.9731,128.7031 Q1856.3423,128.1221 1855.7488,127.8523 Q1855.1553,127.5825 1854.5244,127.5825 Q1853.1797,127.5825 1852.4949,128.6492 Q1851.8101,129.7158 1851.8101,131.8159 Q1851.8101,133.9077 1852.4949,134.9744 Q1853.1797,136.041 1854.5244,136.041 Q1855.1553,136.041 1855.7488,135.7712 Q1856.3423,135.5015 1856.9731,134.9204 Z "/><text fill="#000000" font-family="sans-serif" font-size="12" lengthAdjust="spacingAndGlyphs" textLength="92" x="1868" y="136.5352">VSSViewingPage</text><line style="stroke: #A80036; stroke-width: 1.5;" x1="1840" x2="1962" y1="148" y2="148"/><line style="stroke: #A80036; stroke-width: 1.5;" x1="1840" x2="1962" y1="156" y2="156"/><!--class CreateVSSPage--><rect fill="#FEFECE" filter="url(#f14f79pig3151j)" height="48" id="CreateVSSPage" style="stroke: #A80036; stroke-width: 1.5;" width="118" x="1034" y="224"/><ellipse cx="1049" cy="240" fill="#ADD1B2" rx="11" ry="11" style="stroke: #A80036; stroke-width: 1.0;"/><path d="M1051.9731,245.6431 Q1051.3921,245.9419 1050.7529,246.0913 Q1050.1138,246.2407 1049.4082,246.2407 Q1046.9014,246.2407 1045.5815,244.5889 Q1044.2617,242.937 1044.2617,239.8159 Q1044.2617,236.6865 1045.5815,235.0347 Q1046.9014,233.3828 1049.4082,233.3828 Q1050.1138,233.3828 1050.7612,233.5322 Q1051.4087,233.6816 1051.9731,233.9805 L1051.9731,236.7031 Q1051.3423,236.1221 1050.7488,235.8523 Q1050.1553,235.5825 1049.5244,235.5825 Q1048.1797,235.5825 1047.4949,236.6492 Q1046.8101,237.7158 1046.8101,239.8159 Q1046.8101,241.9077 1047.4949,242.9744 Q1048.1797,244.041 1049.5244,244.041 Q1050.1553,244.041 1050.7488,243.7712 Q1051.3423,243.5015 1051.9731,242.9204 Z "/><text fill="#000000" font-family="sans-serif" font-size="12" lengthAdjust="spacingAndGlyphs" textLength="86" x="1063" y="244.5352">CreateVSSPage</text><line style="stroke: #A80036; stroke-width: 1.5;" x1="1035" x2="1151" y1="256" y2="256"/><line style="stroke: #A80036; stroke-width: 1.5;" x1="1035" x2="1151" y1="264" y2="264"/><!--class SensorPage--><rect fill="#FEFECE" filter="url(#f14f79pig3151j)" height="48" id="SensorPage" style="stroke: #A80036; stroke-width: 1.5;" width="98" x="421" y="224"/><ellipse cx="436" cy="240" fill="#ADD1B2" rx="11" ry="11" style="stroke: #A80036; stroke-width: 1.0;"/><path d="M438.9731,245.6431 Q438.3921,245.9419 437.7529,246.0913 Q437.1138,246.2407 436.4082,246.2407 Q433.9014,246.2407 432.5815,244.5889 Q431.2617,242.937 431.2617,239.8159 Q431.2617,236.6865 432.5815,235.0347 Q433.9014,233.3828 436.4082,233.3828 Q437.1138,233.3828 437.7612,233.5322 Q438.4087,233.6816 438.9731,233.9805 L438.9731,236.7031 Q438.3423,236.1221 437.7488,235.8523 Q437.1553,235.5825 436.5244,235.5825 Q435.1797,235.5825 434.4949,236.6492 Q433.8101,237.7158 433.8101,239.8159 Q433.8101,241.9077 434.4949,242.9744 Q435.1797,244.041 436.5244,244.041 Q437.1553,244.041 437.7488,243.7712 Q438.3423,243.5015 438.9731,242.9204 Z "/><text fill="#000000" font-family="sans-serif" font-size="12" lengthAdjust="spacingAndGlyphs" textLength="66" x="450" y="244.5352">SensorPage</text><line style="stroke: #A80036; stroke-width: 1.5;" x1="422" x2="518" y1="256" y2="256"/><line style="stroke: #A80036; stroke-width: 1.5;" x1="422" x2="518" y1="264" y2="264"/><!--class UserInfoControl--><rect fill="#FEFECE" filter="url(#f14f79pig3151j)" height="48" id="UserInfoControl" style="stroke: #A80036; stroke-width: 1.5;" width="120" x="171" y="8"/><ellipse cx="186" cy="24" fill="#ADD1B2" rx="11" ry="11" style="stroke: #A80036; stroke-width: 1.0;"/><path d="M188.9731,29.6431 Q188.3921,29.9419 187.7529,30.0913 Q187.1138,30.2407 186.4082,30.2407 Q183.9014,30.2407 182.5815,28.5889 Q181.2617,26.937 181.2617,23.8159 Q181.2617,20.6865 182.5815,19.0347 Q183.9014,17.3828 186.4082,17.3828 Q187.1138,17.3828 187.7612,17.5322 Q188.4087,17.6816 188.9731,17.9805 L188.9731,20.7031 Q188.3423,20.1221 187.7488,19.8523 Q187.1553,19.5825 186.5244,19.5825 Q185.1797,19.5825 184.4949,20.6492 Q183.8101,21.7158 183.8101,23.8159 Q183.8101,25.9077 184.4949,26.9744 Q185.1797,28.041 186.5244,28.041 Q187.1553,28.041 187.7488,27.7712 Q188.3423,27.5015 188.9731,26.9204 Z "/><text fill="#000000" font-family="sans-serif" font-size="12" lengthAdjust="spacingAndGlyphs" textLength="88" x="200" y="28.5352">UserInfoControl</text><line style="stroke: #A80036; stroke-width: 1.5;" x1="172" x2="290" y1="40" y2="40"/><line style="stroke: #A80036; stroke-width: 1.5;" x1="172" x2="290" y1="48" y2="48"/><!--class VSSControl--><rect fill="#FEFECE" filter="url(#f14f79pig3151j)" height="48" id="VSSControl" style="stroke: #A80036; stroke-width: 1.5;" width="93" x="980.5" y="116"/><ellipse cx="995.5" cy="132" fill="#ADD1B2" rx="11" ry="11" style="stroke: #A80036; stroke-width: 1.0;"/><path d="M998.4731,137.6431 Q997.8921,137.9419 997.2529,138.0913 Q996.6138,138.2407 995.9082,138.2407 Q993.4014,138.2407 992.0815,136.5889 Q990.7617,134.937 990.7617,131.8159 Q990.7617,128.6865 992.0815,127.0347 Q993.4014,125.3828 995.9082,125.3828 Q996.6138,125.3828 997.2612,125.5322 Q997.9087,125.6816 998.4731,125.9805 L998.4731,128.7031 Q997.8423,128.1221 997.2488,127.8523 Q996.6553,127.5825 996.0244,127.5825 Q994.6797,127.5825 993.9949,128.6492 Q993.3101,129.7158 993.3101,131.8159 Q993.3101,133.9077 993.9949,134.9744 Q994.6797,136.041 996.0244,136.041 Q996.6553,136.041 997.2488,135.7712 Q997.8423,135.5015 998.4731,134.9204 Z "/><text fill="#000000" font-family="sans-serif" font-size="12" lengthAdjust="spacingAndGlyphs" textLength="61" x="1009.5" y="136.5352">VSSControl</text><line style="stroke: #A80036; stroke-width: 1.5;" x1="981.5" x2="1072.5" y1="148" y2="148"/><line style="stroke: #A80036; stroke-width: 1.5;" x1="981.5" x2="1072.5" y1="156" y2="156"/><!--class LocalVSSLibraryControl--><rect fill="#FEFECE" filter="url(#f14f79pig3151j)" height="48" id="LocalVSSLibraryControl" style="stroke: #A80036; stroke-width: 1.5;" width="162" x="1561" y="8"/><ellipse cx="1576" cy="24" fill="#ADD1B2" rx="11" ry="11" style="stroke: #A80036; stroke-width: 1.0;"/><path d="M1578.9731,29.6431 Q1578.3921,29.9419 1577.7529,30.0913 Q1577.1138,30.2407 1576.4082,30.2407 Q1573.9014,30.2407 1572.5815,28.5889 Q1571.2617,26.937 1571.2617,23.8159 Q1571.2617,20.6865 1572.5815,19.0347 Q1573.9014,17.3828 1576.4082,17.3828 Q1577.1138,17.3828 1577.7612,17.5322 Q1578.4087,17.6816 1578.9731,17.9805 L1578.9731,20.7031 Q1578.3423,20.1221 1577.7488,19.8523 Q1577.1553,19.5825 1576.5244,19.5825 Q1575.1797,19.5825 1574.4949,20.6492 Q1573.8101,21.7158 1573.8101,23.8159 Q1573.8101,25.9077 1574.4949,26.9744 Q1575.1797,28.041 1576.5244,28.041 Q1577.1553,28.041 1577.7488,27.7712 Q1578.3423,27.5015 1578.9731,26.9204 Z "/><text fill="#000000" font-family="sans-serif" font-size="12" lengthAdjust="spacingAndGlyphs" textLength="130" x="1590" y="28.5352">LocalVSSLibraryControl</text><line style="stroke: #A80036; stroke-width: 1.5;" x1="1562" x2="1722" y1="40" y2="40"/><line style="stroke: #A80036; stroke-width: 1.5;" x1="1562" x2="1722" y1="48" y2="48"/><!--class OnlineVSSLibraryControl--><rect fill="#FEFECE" filter="url(#f14f79pig3151j)" height="48" id="OnlineVSSLibraryControl" style="stroke: #A80036; stroke-width: 1.5;" width="169" x="1275.5" y="8"/><ellipse cx="1290.5" cy="24" fill="#ADD1B2" rx="11" ry="11" style="stroke: #A80036; stroke-width: 1.0;"/><path d="M1293.4731,29.6431 Q1292.8921,29.9419 1292.2529,30.0913 Q1291.6138,30.2407 1290.9082,30.2407 Q1288.4014,30.2407 1287.0815,28.5889 Q1285.7617,26.937 1285.7617,23.8159 Q1285.7617,20.6865 1287.0815,19.0347 Q1288.4014,17.3828 1290.9082,17.3828 Q1291.6138,17.3828 1292.2612,17.5322 Q1292.9087,17.6816 1293.4731,17.9805 L1293.4731,20.7031 Q1292.8423,20.1221 1292.2488,19.8523 Q1291.6553,19.5825 1291.0244,19.5825 Q1289.6797,19.5825 1288.9949,20.6492 Q1288.3101,21.7158 1288.3101,23.8159 Q1288.3101,25.9077 1288.9949,26.9744 Q1289.6797,28.041 1291.0244,28.041 Q1291.6553,28.041 1292.2488,27.7712 Q1292.8423,27.5015 1293.4731,26.9204 Z "/><text fill="#000000" font-family="sans-serif" font-size="12" lengthAdjust="spacingAndGlyphs" textLength="137" x="1304.5" y="28.5352">OnlineVSSLibraryControl</text><line style="stroke: #A80036; stroke-width: 1.5;" x1="1276.5" x2="1443.5" y1="40" y2="40"/><line style="stroke: #A80036; stroke-width: 1.5;" x1="1276.5" x2="1443.5" y1="48" y2="48"/><!--class SensorControl--><rect fill="#FEFECE" filter="url(#f14f79pig3151j)" height="48" id="SensorControl" style="stroke: #A80036; stroke-width: 1.5;" width="111" x="416.5" y="116"/><ellipse cx="431.5" cy="132" fill="#ADD1B2" rx="11" ry="11" style="stroke: #A80036; stroke-width: 1.0;"/><path d="M434.4731,137.6431 Q433.8921,137.9419 433.2529,138.0913 Q432.6138,138.2407 431.9082,138.2407 Q429.4014,138.2407 428.0815,136.5889 Q426.7617,134.937 426.7617,131.8159 Q426.7617,128.6865 428.0815,127.0347 Q429.4014,125.3828 431.9082,125.3828 Q432.6138,125.3828 433.2612,125.5322 Q433.9087,125.6816 434.4731,125.9805 L434.4731,128.7031 Q433.8423,128.1221 433.2488,127.8523 Q432.6553,127.5825 432.0244,127.5825 Q430.6797,127.5825 429.9949,128.6492 Q429.3101,129.7158 429.3101,131.8159 Q429.3101,133.9077 429.9949,134.9744 Q430.6797,136.041 432.0244,136.041 Q432.6553,136.041 433.2488,135.7712 Q433.8423,135.5015 434.4731,134.9204 Z "/><text fill="#000000" font-family="sans-serif" font-size="12" lengthAdjust="spacingAndGlyphs" textLength="79" x="445.5" y="136.5352">SensorControl</text><line style="stroke: #A80036; stroke-width: 1.5;" x1="417.5" x2="526.5" y1="148" y2="148"/><line style="stroke: #A80036; stroke-width: 1.5;" x1="417.5" x2="526.5" y1="156" y2="156"/><!--class VirtualSoundSpace--><rect fill="#FEFECE" filter="url(#f14f79pig3151j)" height="48" id="VirtualSoundSpace" style="stroke: #A80036; stroke-width: 1.5;" width="138" x="1109" y="116"/><ellipse cx="1124" cy="132" fill="#ADD1B2" rx="11" ry="11" style="stroke: #A80036; stroke-width: 1.0;"/><path d="M1126.9731,137.6431 Q1126.3921,137.9419 1125.7529,138.0913 Q1125.1138,138.2407 1124.4082,138.2407 Q1121.9014,138.2407 1120.5815,136.5889 Q1119.2617,134.937 1119.2617,131.8159 Q1119.2617,128.6865 1120.5815,127.0347 Q1121.9014,125.3828 1124.4082,125.3828 Q1125.1138,125.3828 1125.7612,125.5322 Q1126.4087,125.6816 1126.9731,125.9805 L1126.9731,128.7031 Q1126.3423,128.1221 1125.7488,127.8523 Q1125.1553,127.5825 1124.5244,127.5825 Q1123.1797,127.5825 1122.4949,128.6492 Q1121.8101,129.7158 1121.8101,131.8159 Q1121.8101,133.9077 1122.4949,134.9744 Q1123.1797,136.041 1124.5244,136.041 Q1125.1553,136.041 1125.7488,135.7712 Q1126.3423,135.5015 1126.9731,134.9204 Z "/><text fill="#000000" font-family="sans-serif" font-size="12" lengthAdjust="spacingAndGlyphs" textLength="106" x="1138" y="136.5352">VirtualSoundSpace</text><line style="stroke: #A80036; stroke-width: 1.5;" x1="1110" x2="1246" y1="148" y2="148"/><line style="stroke: #A80036; stroke-width: 1.5;" x1="1110" x2="1246" y1="156" y2="156"/><!--link User to Sensor--><path d="M473.8374,52.0609 C447.5887,70.1173 408.9632,96.6878 381.0446,115.8929 " fill="none" id="User-Sensor" style="stroke: #A80036; stroke-width: 1.0;"/><text fill="#000000" font-family="sans-serif" font-size="13" lengthAdjust="spacingAndGlyphs" textLength="8" x="458.1685" y="52.5699">1</text><text fill="#000000" font-family="sans-serif" font-size="13" lengthAdjust="spacingAndGlyphs" textLength="8" x="380.9998" y="105.4017">1</text><!--link User to LocalSoundSpaceLibrary--><path d="M532.2148,40.8381 C585.9199,57.085 702.0187,92.2073 780.6022,115.9805 " fill="none" id="User-LocalSoundSpaceLibrary" style="stroke: #A80036; stroke-width: 1.0;"/><text fill="#000000" font-family="sans-serif" font-size="13" lengthAdjust="spacingAndGlyphs" textLength="8" x="539.8957" y="38.7518">1</text><text fill="#000000" font-family="sans-serif" font-size="13" lengthAdjust="spacingAndGlyphs" textLength="8" x="758.7894" y="108.3542">1</text><!--link User to OnlineSoundSpaceLibrary--><path d="M532.24,53.3373 C556.9228,71.3491 592.2479,97.1268 617.9514,115.8835 " fill="none" id="User-OnlineSoundSpaceLibrary" style="stroke: #A80036; stroke-width: 1.0;"/><text fill="#000000" font-family="sans-serif" font-size="13" lengthAdjust="spacingAndGlyphs" textLength="8" x="539.9268" y="72.6102">1</text><text fill="#000000" font-family="sans-serif" font-size="13" lengthAdjust="spacingAndGlyphs" textLength="6" x="602.7139" y="105.3899">*</text><!--link MapModeVirtualSoundSpace to SoundSource--><path d="M688.6509,280.9858 C706.8742,297.3868 728.5023,316.8521 745.1595,331.8436 " fill="none" id="MapModeVirtualSoundSpace-SoundSource" style="stroke: #A80036; stroke-width: 1.0;"/><polygon fill="#FFFFFF" points="678.9303,272.2373,680.7142,279.2243,687.8498,280.2649,686.0659,273.2779,678.9303,272.2373" style="stroke: #A80036; stroke-width: 1.0;"/><text fill="#000000" font-family="sans-serif" font-size="13" lengthAdjust="spacingAndGlyphs" textLength="8" x="676.5196" y="292.5795">1</text><text fill="#000000" font-family="sans-serif" font-size="13" lengthAdjust="spacingAndGlyphs" textLength="22" x="713.4629" y="321.3398">1..*</text><!--link ConcertModeVirtualSoundSpace to SoundSource--><path d="M855.3491,280.9858 C837.1258,297.3868 815.4977,316.8521 798.8405,331.8436 " fill="none" id="ConcertModeVirtualSoundSpace-SoundSource" style="stroke: #A80036; stroke-width: 1.0;"/><polygon fill="#FFFFFF" points="865.0697,272.2373,857.9341,273.2779,856.1502,280.2649,863.2858,279.2243,865.0697,272.2373" style="stroke: #A80036; stroke-width: 1.0;"/><text fill="#000000" font-family="sans-serif" font-size="13" lengthAdjust="spacingAndGlyphs" textLength="8" x="849.5304" y="292.5795">1</text><text fill="#000000" font-family="sans-serif" font-size="13" lengthAdjust="spacingAndGlyphs" textLength="22" x="780.8996" y="321.3398">1..*</text><!--link LocalSoundSpaceLibrary to MapModeVirtualSoundSpace--><path d="M801.8969,170.1689 C769.1679,187.1628 728.8528,208.0957 698.2785,223.9708 " fill="none" id="LocalSoundSpaceLibrary-MapModeVirtualSoundSpace" style="stroke: #A80036; stroke-width: 1.0;"/><polygon fill="#FFFFFF" points="813.5796,164.1029,806.4114,163.3179,802.9297,169.6328,810.0979,170.4178,813.5796,164.1029" style="stroke: #A80036; stroke-width: 1.0;"/><text fill="#000000" font-family="sans-serif" font-size="13" lengthAdjust="spacingAndGlyphs" textLength="8" x="793.2896" y="184.4123">1</text><text fill="#000000" font-family="sans-serif" font-size="13" lengthAdjust="spacingAndGlyphs" textLength="6" x="703.9096" y="213.1074">*</text><!--link LocalSoundSpaceLibrary to ConcertModeVirtualSoundSpace--><path d="M871.0061,177.1456 C875.5852,192.6 880.7708,210.1014 884.8425,223.8436 " fill="none" id="LocalSoundSpaceLibrary-ConcertModeVirtualSoundSpace" style="stroke: #A80036; stroke-width: 1.0;"/><polygon fill="#FFFFFF" points="867.1814,164.2373,865.0507,171.1264,870.5904,175.7429,872.7211,168.8537,867.1814,164.2373" style="stroke: #A80036; stroke-width: 1.0;"/><text fill="#000000" font-family="sans-serif" font-size="13" lengthAdjust="spacingAndGlyphs" textLength="8" x="859.9569" y="184.5795">1</text><text fill="#000000" font-family="sans-serif" font-size="13" lengthAdjust="spacingAndGlyphs" textLength="6" x="876.2396" y="213.3398">*</text><!--link OnlineSoundSpaceLibrary to MapModeVirtualSoundSpace--><path d="M651.3483,177.6145 C651.4903,192.9531 651.6504,210.2402 651.7763,223.8436 " fill="none" id="OnlineSoundSpaceLibrary-MapModeVirtualSoundSpace" style="stroke: #A80036; stroke-width: 1.0;"/><polygon fill="#FFFFFF" points="651.2244,164.2373,647.2802,170.2741,651.3356,176.2368,655.2798,170.2,651.2244,164.2373" style="stroke: #A80036; stroke-width: 1.0;"/><text fill="#000000" font-family="sans-serif" font-size="13" lengthAdjust="spacingAndGlyphs" textLength="8" x="642.3041" y="184.5795">1</text><text fill="#000000" font-family="sans-serif" font-size="13" lengthAdjust="spacingAndGlyphs" textLength="6" x="644.9502" y="213.3398">*</text><!--link OnlineSoundSpaceLibrary to ConcertModeVirtualSoundSpace--><path d="M716.8291,169.5002 C755.0117,186.6111 802.4881,207.8868 838.3793,223.9708 " fill="none" id="OnlineSoundSpaceLibrary-ConcertModeVirtualSoundSpace" style="stroke: #A80036; stroke-width: 1.0;"/><polygon fill="#FFFFFF" points="704.7851,164.1029,708.6247,170.2068,715.7358,169.0102,711.8962,162.9063,704.7851,164.1029" style="stroke: #A80036; stroke-width: 1.0;"/><text fill="#000000" font-family="sans-serif" font-size="13" lengthAdjust="spacingAndGlyphs" textLength="8" x="708.9202" y="184.4123">1</text><text fill="#000000" font-family="sans-serif" font-size="13" lengthAdjust="spacingAndGlyphs" textLength="6" x="817.1625" y="213.1074">*</text><!--link VirtualSoundSpace to ConcertModeVirtualSoundSpace--><path d="M1089.5758,170.1795 C1065.6098,178.6128 1039.7328,187.9512 1016,197 C993.9236,205.4172 969.8603,215.1771 948.8561,223.8917 " fill="none" id="VirtualSoundSpace-ConcertModeVirtualSoundSpace" style="stroke: #A80036; stroke-width: 1.0;"/><polygon fill="none" points="1087.5474,163.4733,1108.7371,163.4845,1092.1654,176.6898,1087.5474,163.4733" style="stroke: #A80036; stroke-width: 1.0;"/><!--link VirtualSoundSpace to MapModeVirtualSoundSpace--><path d="M1088.9029,163.7847 C944.9577,188.1508 900.8889,161.4602 767,197 C743.1463,203.3318 717.9444,214.0106 697.2321,223.9652 " fill="none" id="VirtualSoundSpace-MapModeVirtualSoundSpace" style="stroke: #A80036; stroke-width: 1.0;"/><polygon fill="none" points="1087.989,156.8368,1108.9126,160.1837,1090.4687,170.6154,1087.989,156.8368" style="stroke: #A80036; stroke-width: 1.0;"/><!--link VirtualSoundSpace to Comment--><path d="M1214.0122,164.0125 C1228.5083,173.9407 1245.2529,185.745 1260,197 C1269.6976,204.4012 1279.9693,212.7703 1289.263,220.5569 " fill="none" id="VirtualSoundSpace-Comment" style="stroke: #A80036; stroke-width: 1.0;"/><polygon fill="#A80036" points="1293.1816,223.8538,1288.87,214.9988,1289.3556,220.6348,1283.7196,221.1204,1293.1816,223.8538" style="stroke: #A80036; stroke-width: 1.0;"/><!--link VirtualSoundSpace to Like--><path d="M1186.3035,164.2373 C1191.8259,180.3565 1199.111,201.6212 1204.959,218.6911 " fill="none" id="VirtualSoundSpace-Like" style="stroke: #A80036; stroke-width: 1.0;"/><polygon fill="#A80036" points="1206.7242,223.8436,1207.5913,214.033,1205.1036,219.1135,1200.0231,216.6259,1206.7242,223.8436" style="stroke: #A80036; stroke-width: 1.0;"/><!--link UserInfoControl to User--><path d="M291.0313,32 C351.8895,32 412.7477,32 473.6059,32 " fill="none" id="UserInfoControl-User" style="stroke: #A80036; stroke-width: 1.0;"/><text fill="#000000" font-family="sans-serif" font-size="13" lengthAdjust="spacingAndGlyphs" textLength="8" x="298.8351" y="28.6732">1</text><text fill="#000000" font-family="sans-serif" font-size="13" lengthAdjust="spacingAndGlyphs" textLength="6" x="460.1148" y="27.8699">*</text><!--link VSSControl to MapModeVirtualSoundSpace--><path d="M980.4701,158.3603 C974.3144,160.4404 968.044,162.3878 962,164 C877.0706,186.6543 851.1648,171.6521 767,197 C743.996,203.9281 719.5285,214.3186 699.1024,223.9168 " fill="none" id="VSSControl-MapModeVirtualSoundSpace" style="stroke: #A80036; stroke-width: 1.0;"/><text fill="#000000" font-family="sans-serif" font-size="13" lengthAdjust="spacingAndGlyphs" textLength="8" x="964.4169" y="157.6843">1</text><text fill="#000000" font-family="sans-serif" font-size="13" lengthAdjust="spacingAndGlyphs" textLength="6" x="711.9411" y="213.4318">*</text><!--link VSSControl to ConcertModeVirtualSoundSpace--><path d="M996.7034,164.2373 C974.4699,182.024 944.4051,206.0759 922.1955,223.8436 " fill="none" id="VSSControl-ConcertModeVirtualSoundSpace" style="stroke: #A80036; stroke-width: 1.0;"/><text fill="#000000" font-family="sans-serif" font-size="13" lengthAdjust="spacingAndGlyphs" textLength="8" x="980.3436" y="184.5795">1</text><text fill="#000000" font-family="sans-serif" font-size="13" lengthAdjust="spacingAndGlyphs" textLength="6" x="923.1643" y="213.3398">*</text><!--link Sensor to SensorControl--><path d="M381.4375,140 C393.1116,140 404.7856,140 416.4597,140 " fill="none" id="Sensor-SensorControl" style="stroke: #A80036; stroke-width: 1.0;"/><text fill="#000000" font-family="sans-serif" font-size="13" lengthAdjust="spacingAndGlyphs" textLength="6" x="389.0049" y="136.1224">*</text><text fill="#000000" font-family="sans-serif" font-size="13" lengthAdjust="spacingAndGlyphs" textLength="8" x="400.459" y="136.5814">1</text><!--link OnlineVSSLibraryControl to OnlineSoundSpaceLibrary--><path d="M1275.254,41.5217 C1158.2351,55.1885 940.7855,82.4547 757,116 C751.3386,117.0333 745.5216,118.1611 739.6664,119.3462 " fill="none" id="OnlineVSSLibraryControl-OnlineSoundSpaceLibrary" style="stroke: #A80036; stroke-width: 1.0;"/><text fill="#000000" font-family="sans-serif" font-size="13" lengthAdjust="spacingAndGlyphs" textLength="8" x="1259.6274" y="39.2771">1</text><text fill="#000000" font-family="sans-serif" font-size="13" lengthAdjust="spacingAndGlyphs" textLength="6" x="747.544" y="114.5084">*</text><!--link LocalVSSLibraryControl to LocalSoundSpaceLibrary--><path d="M1560.9373,43.0341 C1529.9889,47.1875 1494.3709,51.896 1462,56 C1240.3986,84.095 1182.9909,77.2635 963,116 C957.1231,117.0348 951.0783,118.1937 945.003,119.4285 " fill="none" id="LocalVSSLibraryControl-LocalSoundSpaceLibrary" style="stroke: #A80036; stroke-width: 1.0;"/><text fill="#000000" font-family="sans-serif" font-size="13" lengthAdjust="spacingAndGlyphs" textLength="8" x="1545.0956" y="40.9426">1</text><text fill="#000000" font-family="sans-serif" font-size="13" lengthAdjust="spacingAndGlyphs" textLength="6" x="953.1158" y="114.4233">*</text><!--link UserInfoControl to RegisterPage--><path d="M200.9278,56.2373 C178.8591,74.024 149.017,98.0759 126.9718,115.8436 " fill="none" id="UserInfoControl-RegisterPage" style="stroke: #A80036; stroke-width: 1.0;"/><text fill="#000000" font-family="sans-serif" font-size="13" lengthAdjust="spacingAndGlyphs" textLength="8" x="184.6227" y="76.5795">1</text><text fill="#000000" font-family="sans-serif" font-size="13" lengthAdjust="spacingAndGlyphs" textLength="8" x="125.6271" y="105.3398">1</text><!--link UserInfoControl to LoginPage--><path d="M231,56.2373 C231,74.024 231,98.0759 231,115.8436 " fill="none" id="UserInfoControl-LoginPage" style="stroke: #A80036; stroke-width: 1.0;"/><text fill="#000000" font-family="sans-serif" font-size="13" lengthAdjust="spacingAndGlyphs" textLength="8" x="222.025" y="76.5795">1</text><text fill="#000000" font-family="sans-serif" font-size="13" lengthAdjust="spacingAndGlyphs" textLength="8" x="221.975" y="105.3398">1</text><!--link PersonalInfoPage to UserInfoControl--><path d="M136.3125,32 C147.7786,32 159.2446,32 170.7107,32 " fill="none" id="PersonalInfoPage-UserInfoControl" style="stroke: #A80036; stroke-width: 1.0;"/><text fill="#000000" font-family="sans-serif" font-size="13" lengthAdjust="spacingAndGlyphs" textLength="8" x="143.8936" y="28.765">1</text><text fill="#000000" font-family="sans-serif" font-size="13" lengthAdjust="spacingAndGlyphs" textLength="8" x="154.8754" y="28.6732">1</text><!--link VSSControl to CreateVSSPage--><path d="M1041.8117,164.2373 C1052.6814,182.024 1067.3797,206.0759 1078.2377,223.8436 " fill="none" id="VSSControl-CreateVSSPage" style="stroke: #A80036; stroke-width: 1.0;"/><text fill="#000000" font-family="sans-serif" font-size="13" lengthAdjust="spacingAndGlyphs" textLength="8" x="1036.4471" y="184.5795">1</text><text fill="#000000" font-family="sans-serif" font-size="13" lengthAdjust="spacingAndGlyphs" textLength="8" x="1065.4299" y="213.3398">1</text><!--link SensorControl to SensorPage--><path d="M471.5512,164.2373 C471.2218,182.024 470.7764,206.0759 470.4473,223.8436 " fill="none" id="SensorControl-SensorPage" style="stroke: #A80036; stroke-width: 1.0;"/><text fill="#000000" font-family="sans-serif" font-size="13" lengthAdjust="spacingAndGlyphs" textLength="8" x="462.4668" y="184.5795">1</text><text fill="#000000" font-family="sans-serif" font-size="13" lengthAdjust="spacingAndGlyphs" textLength="8" x="461.5369" y="213.3398">1</text><!--link LocalVSSLibraryControl to VSSViewingPage--><path d="M1699.8023,56.1029 C1742.5906,73.9451 1800.6281,98.1461 1843.3744,115.9708 " fill="none" id="LocalVSSLibraryControl-VSSViewingPage" style="stroke: #A80036; stroke-width: 1.0;"/><text fill="#000000" font-family="sans-serif" font-size="13" lengthAdjust="spacingAndGlyphs" textLength="8" x="1704.9166" y="76.4123">1</text><text fill="#000000" font-family="sans-serif" font-size="13" lengthAdjust="spacingAndGlyphs" textLength="8" x="1822.6641" y="107.0683">1</text><!--link LocalVSSLibraryControl to VSSPreviewerPage--><path d="M1619.3336,56.2373 C1602.6997,74.024 1580.2068,98.0759 1563.5907,115.8436 " fill="none" id="LocalVSSLibraryControl-VSSPreviewerPage" style="stroke: #A80036; stroke-width: 1.0;"/><text fill="#000000" font-family="sans-serif" font-size="13" lengthAdjust="spacingAndGlyphs" textLength="8" x="1604.8337" y="76.5795">1</text><text fill="#000000" font-family="sans-serif" font-size="13" lengthAdjust="spacingAndGlyphs" textLength="8" x="1560.3546" y="105.3398">1</text><!--link LocalVSSLibraryControl to LocalVSSManagerPage--><path d="M1660.4024,56.2373 C1673.9071,74.024 1692.1687,98.0759 1705.659,115.8436 " fill="none" id="LocalVSSLibraryControl-LocalVSSManagerPage" style="stroke: #A80036; stroke-width: 1.0;"/><text fill="#000000" font-family="sans-serif" font-size="13" lengthAdjust="spacingAndGlyphs" textLength="8" x="1655.913" y="76.5795">1</text><text fill="#000000" font-family="sans-serif" font-size="13" lengthAdjust="spacingAndGlyphs" textLength="8" x="1691.9341" y="105.3398">1</text><!--link OnlineVSSLibraryControl to OnlineVSSViewerPage--><path d="M1360,56.2373 C1360,74.024 1360,98.0759 1360,115.8436 " fill="none" id="OnlineVSSLibraryControl-OnlineVSSViewerPage" style="stroke: #A80036; stroke-width: 1.0;"/><text fill="#000000" font-family="sans-serif" font-size="13" lengthAdjust="spacingAndGlyphs" textLength="8" x="1351.025" y="76.5795">1</text><text fill="#000000" font-family="sans-serif" font-size="13" lengthAdjust="spacingAndGlyphs" textLength="8" x="1350.975" y="105.3398">1</text><!--link OnlineVSSLibraryControl to VSSPreviewerPage--><path d="M1400.6199,56.2373 C1430.4292,74.024 1470.7383,98.0759 1500.5156,115.8436 " fill="none" id="OnlineVSSLibraryControl-VSSPreviewerPage" style="stroke: #A80036; stroke-width: 1.0;"/><text fill="#000000" font-family="sans-serif" font-size="13" lengthAdjust="spacingAndGlyphs" textLength="8" x="1401.546" y="76.5795">1</text><text fill="#000000" font-family="sans-serif" font-size="13" lengthAdjust="spacingAndGlyphs" textLength="8" x="1481.1165" y="105.3398">1</text><!--
@startuml
class User
class SoundSource
class MapModeVirtualSoundSpace
class ConcertModeVirtualSoundSpace
package "Social Classes" #yellow {
  class Comment
  class Like
}
class LocalSoundSpaceLibrary
class OnlineSoundSpaceLibrary
class Sensor

class RegisterPage
class LoginPage
class PersonalInfoPage
class LocalVSSManagerPage
class OnlineVSSViewerPage
class VSSPreviewerPage
class VSSViewingPage
class CreateVSSPage
class SensorPage

class UserInfoControl
class VSSControl
class LocalVSSLibraryControl
class OnlineVSSLibraryControl
class SensorControl

User "1" - - "1" Sensor
User "1" - - "1" LocalSoundSpaceLibrary
User "1" - - "*" OnlineSoundSpaceLibrary

MapModeVirtualSoundSpace "1" o- - "1..*" SoundSource
ConcertModeVirtualSoundSpace "1" o- - "1..*" SoundSource

LocalSoundSpaceLibrary "1" o- - "*" MapModeVirtualSoundSpace
LocalSoundSpaceLibrary "1" o- - "*" ConcertModeVirtualSoundSpace
OnlineSoundSpaceLibrary "1" o- - "*" MapModeVirtualSoundSpace
OnlineSoundSpaceLibrary "1" o- - "*" ConcertModeVirtualSoundSpace

VirtualSoundSpace <|- - ConcertModeVirtualSoundSpace

VirtualSoundSpace <|- - MapModeVirtualSoundSpace

VirtualSoundSpace - -> Comment
VirtualSoundSpace - -> Like

UserInfoControl "1" - "*" User
VSSControl "1" - - "*" MapModeVirtualSoundSpace
VSSControl "1" - - "*" ConcertModeVirtualSoundSpace
Sensor "*" - "1" SensorControl
OnlineVSSLibraryControl "1" - - "*" OnlineSoundSpaceLibrary
LocalVSSLibraryControl "1" - - "*" LocalSoundSpaceLibrary

UserInfoControl "1" - - "1" RegisterPage
UserInfoControl "1" - - "1" LoginPage
UserInfoControl "1" -left- "1" PersonalInfoPage

VSSControl "1" - - "1" CreateVSSPage

SensorControl "1" - - "1" SensorPage

LocalVSSLibraryControl "1" - - "1" VSSViewingPage
LocalVSSLibraryControl "1" - - "1"  VSSPreviewerPage
LocalVSSLibraryControl "1" - - "1" LocalVSSManagerPage

OnlineVSSLibraryControl "1" - - "1" OnlineVSSViewerPage
OnlineVSSLibraryControl "1" - - "1" VSSPreviewerPage
@enduml

PlantUML version 1.2018.01(Mon Jan 29 02:08:22 CST 2018)
(GPL source distribution)
Java Runtime: Java(TM) SE Runtime Environment
JVM: Java HotSpot(TM) 64-Bit Server VM
Java Version: 9+181
Operating System: Mac OS X
OS Version: 10.12.6
Default Encoding: UTF-8
Language: zh
Country: CN
--></g></svg>