<?xml version="1.0" encoding="UTF-8" standalone="no"?><svg xmlns="http://www.w3.org/2000/svg" xmlns:xlink="http://www.w3.org/1999/xlink" contentScriptType="application/ecmascript" contentStyleType="text/css" height="663px" preserveAspectRatio="none" style="width:881px;height:663px;" version="1.1" viewBox="0 0 881 663"
    width="881px" zoomAndPan="magnify"><defs><filter height="300%" id="f4obbbhw0vq22" width="300%" x="-1" y="-1"><feGaussianBlur result="blurOut" stdDeviation="2.0"/><feColorMatrix in="blurOut" result="blurOut2" type="matrix" values="0 0 0 0 0 0 0 0 0 0 0 0 0 0 0 0 0 0 .4 0"/><feOffset dx="4.0" dy="4.0" in="blurOut2" result="blurOut3"/><feBlend in="SourceGraphic" in2="blurOut3" mode="normal"/></filter></defs><g><!--cluster Social Classes--><polygon fill="#FFFF00" filter="url(#f4obbbhw0vq22)" points="586,327,694,327,701,349.4883,859,349.4883,859,436,586,436,586,327" style="stroke: #000000; stroke-width: 1.5;"/><line style="stroke: #000000; stroke-width: 1.5;" x1="586" x2="701" y1="349.4883" y2="349.4883"/><text fill="#000000" font-family="sans-serif" font-size="14" font-weight="bold" lengthAdjust="spacingAndGlyphs" textLength="102" x="590" y="342.5352">Social Classes</text><!--class Comment--><rect fill="#FEFECE" filter="url(#f4obbbhw0vq22)" height="73.9102" id="Comment" style="stroke: #A80036; stroke-width: 1.5;" width="121" x="729.5" y="354"/><ellipse cx="759.8" cy="370" fill="#ADD1B2" rx="11" ry="11" style="stroke: #A80036; stroke-width: 1.0;"/><path d="M762.7731,375.6431 Q762.1921,375.9419 761.5529,376.0913 Q760.9138,376.2407 760.2082,376.2407 Q757.7014,376.2407 756.3815,374.5889 Q755.0617,372.937 755.0617,369.8159 Q755.0617,366.6865 756.3815,365.0347 Q757.7014,363.3828 760.2082,363.3828 Q760.9138,363.3828 761.5612,363.5322 Q762.2087,363.6816 762.7731,363.9805 L762.7731,366.7031 Q762.1423,366.1221 761.5488,365.8523 Q760.9553,365.5825 760.3244,365.5825 Q758.9797,365.5825 758.2949,366.6492 Q757.6101,367.7158 757.6101,369.8159 Q757.6101,371.9077 758.2949,372.9744 Q758.9797,374.041 760.3244,374.041 Q760.9553,374.041 761.5488,373.7712 Q762.1423,373.5015 762.7731,372.9204 Z "/><text fill="#000000" font-family="sans-serif" font-size="12" lengthAdjust="spacingAndGlyphs" textLength="55" x="777.2" y="374.5352">Comment</text><line style="stroke: #A80036; stroke-width: 1.5;" x1="730.5" x2="849.5" y1="386" y2="386"/><rect fill="none" height="6" style="stroke: #C82930; stroke-width: 1.0;" width="6" x="737.5" y="394.9775"/><text fill="#000000" font-family="sans-serif" font-size="11" lengthAdjust="spacingAndGlyphs" textLength="95" x="749.5" y="400.6348">commenterID : int</text><rect fill="none" height="6" style="stroke: #C82930; stroke-width: 1.0;" width="6" x="737.5" y="407.9326"/><text fill="#000000" font-family="sans-serif" font-size="11" lengthAdjust="spacingAndGlyphs" textLength="91" x="749.5" y="413.5898">comment : String</text><line style="stroke: #A80036; stroke-width: 1.5;" x1="730.5" x2="849.5" y1="419.9102" y2="419.9102"/><!--class Like--><rect fill="#FEFECE" filter="url(#f4obbbhw0vq22)" height="73.9102" id="Like" style="stroke: #A80036; stroke-width: 1.5;" width="100" x="594" y="354"/><ellipse cx="629.25" cy="370" fill="#ADD1B2" rx="11" ry="11" style="stroke: #A80036; stroke-width: 1.0;"/><path d="M632.2231,375.6431 Q631.6421,375.9419 631.0029,376.0913 Q630.3638,376.2407 629.6582,376.2407 Q627.1514,376.2407 625.8315,374.5889 Q624.5117,372.937 624.5117,369.8159 Q624.5117,366.6865 625.8315,365.0347 Q627.1514,363.3828 629.6582,363.3828 Q630.3638,363.3828 631.0112,363.5322 Q631.6587,363.6816 632.2231,363.9805 L632.2231,366.7031 Q631.5923,366.1221 630.9988,365.8523 Q630.4053,365.5825 629.7744,365.5825 Q628.4297,365.5825 627.7449,366.6492 Q627.0601,367.7158 627.0601,369.8159 Q627.0601,371.9077 627.7449,372.9744 Q628.4297,374.041 629.7744,374.041 Q630.4053,374.041 630.9988,373.7712 Q631.5923,373.5015 632.2231,372.9204 Z "/><text fill="#000000" font-family="sans-serif" font-size="12" lengthAdjust="spacingAndGlyphs" textLength="23" x="647.75" y="374.5352">Like</text><line style="stroke: #A80036; stroke-width: 1.5;" x1="595" x2="693" y1="386" y2="386"/><rect fill="none" height="6" style="stroke: #C82930; stroke-width: 1.0;" width="6" x="602" y="394.9775"/><text fill="#000000" font-family="sans-serif" font-size="11" lengthAdjust="spacingAndGlyphs" textLength="57" x="614" y="400.6348">likerID : int</text><rect fill="none" height="6" style="stroke: #C82930; stroke-width: 1.0;" width="6" x="602" y="407.9326"/><text fill="#000000" font-family="sans-serif" font-size="11" lengthAdjust="spacingAndGlyphs" textLength="74" x="614" y="413.5898">likeCount : int</text><line style="stroke: #A80036; stroke-width: 1.5;" x1="595" x2="693" y1="419.9102" y2="419.9102"/><!--class User--><rect fill="#FEFECE" filter="url(#f4obbbhw0vq22)" height="112.7754" id="User" style="stroke: #A80036; stroke-width: 1.5;" width="120" x="166" y="8"/><ellipse cx="208.9" cy="24" fill="#ADD1B2" rx="11" ry="11" style="stroke: #A80036; stroke-width: 1.0;"/><path d="M211.8731,29.6431 Q211.2921,29.9419 210.6529,30.0913 Q210.0138,30.2407 209.3082,30.2407 Q206.8014,30.2407 205.4815,28.5889 Q204.1617,26.937 204.1617,23.8159 Q204.1617,20.6865 205.4815,19.0347 Q206.8014,17.3828 209.3082,17.3828 Q210.0138,17.3828 210.6612,17.5322 Q211.3087,17.6816 211.8731,17.9805 L211.8731,20.7031 Q211.2423,20.1221 210.6488,19.8523 Q210.0553,19.5825 209.4244,19.5825 Q208.0797,19.5825 207.3949,20.6492 Q206.7101,21.7158 206.7101,23.8159 Q206.7101,25.9077 207.3949,26.9744 Q208.0797,28.041 209.4244,28.041 Q210.0553,28.041 210.6488,27.7712 Q211.2423,27.5015 211.8731,26.9204 Z "/><text fill="#000000" font-family="sans-serif" font-size="12" lengthAdjust="spacingAndGlyphs" textLength="26" x="229.1" y="28.5352">User</text><line style="stroke: #A80036; stroke-width: 1.5;" x1="167" x2="285" y1="40" y2="40"/><rect fill="none" height="6" style="stroke: #C82930; stroke-width: 1.0;" width="6" x="174" y="48.9775"/><text fill="#000000" font-family="sans-serif" font-size="11" lengthAdjust="spacingAndGlyphs" textLength="58" x="186" y="54.6348">userID : int</text><rect fill="none" height="6" style="stroke: #C82930; stroke-width: 1.0;" width="6" x="174" y="61.9326"/><text fill="#000000" font-family="sans-serif" font-size="11" lengthAdjust="spacingAndGlyphs" textLength="94" x="186" y="67.5898">username : String</text><rect fill="none" height="6" style="stroke: #C82930; stroke-width: 1.0;" width="6" x="174" y="74.8877"/><text fill="#000000" font-family="sans-serif" font-size="11" lengthAdjust="spacingAndGlyphs" textLength="93" x="186" y="80.5449">password : String</text><rect fill="none" height="6" style="stroke: #C82930; stroke-width: 1.0;" width="6" x="174" y="87.8428"/><text fill="#000000" font-family="sans-serif" font-size="11" lengthAdjust="spacingAndGlyphs" textLength="75" x="186" y="93.5">e_mail : String</text><rect fill="none" height="6" style="stroke: #C82930; stroke-width: 1.0;" width="6" x="174" y="100.7979"/><text fill="#000000" font-family="sans-serif" font-size="11" lengthAdjust="spacingAndGlyphs" textLength="58" x="186" y="106.4551">userProfile</text><line style="stroke: #A80036; stroke-width: 1.5;" x1="167" x2="285" y1="112.7754" y2="112.7754"/><!--class SoundSource--><rect fill="#FEFECE" filter="url(#f4obbbhw0vq22)" height="138.6855" id="SoundSource" style="stroke: #A80036; stroke-width: 1.5;" width="160" x="261" y="514"/><ellipse cx="300.75" cy="530" fill="#ADD1B2" rx="11" ry="11" style="stroke: #A80036; stroke-width: 1.0;"/><path d="M303.7231,535.6431 Q303.1421,535.9419 302.5029,536.0913 Q301.8638,536.2407 301.1582,536.2407 Q298.6514,536.2407 297.3315,534.5889 Q296.0117,532.937 296.0117,529.8159 Q296.0117,526.6865 297.3315,525.0347 Q298.6514,523.3828 301.1582,523.3828 Q301.8638,523.3828 302.5112,523.5322 Q303.1587,523.6816 303.7231,523.9805 L303.7231,526.7031 Q303.0923,526.1221 302.4988,525.8523 Q301.9053,525.5825 301.2744,525.5825 Q299.9297,525.5825 299.2449,526.6492 Q298.5601,527.7158 298.5601,529.8159 Q298.5601,531.9077 299.2449,532.9744 Q299.9297,534.041 301.2744,534.041 Q301.9053,534.041 302.4988,533.7712 Q303.0923,533.5015 303.7231,532.9204 Z "/><text fill="#000000" font-family="sans-serif" font-size="12" lengthAdjust="spacingAndGlyphs" textLength="73" x="320.25" y="534.5352">SoundSource</text><line style="stroke: #A80036; stroke-width: 1.5;" x1="262" x2="420" y1="546" y2="546"/><rect fill="none" height="6" style="stroke: #C82930; stroke-width: 1.0;" width="6" x="269" y="554.9775"/><text fill="#000000" font-family="sans-serif" font-size="11" lengthAdjust="spacingAndGlyphs" textLength="105" x="281" y="560.6348">soundSourceID : int</text><rect fill="none" height="6" style="stroke: #C82930; stroke-width: 1.0;" width="6" x="269" y="567.9326"/><text fill="#000000" font-family="sans-serif" font-size="11" lengthAdjust="spacingAndGlyphs" textLength="123" x="281" y="573.5898">soundLatitude : double</text><rect fill="none" height="6" style="stroke: #C82930; stroke-width: 1.0;" width="6" x="269" y="580.8877"/><text fill="#000000" font-family="sans-serif" font-size="11" lengthAdjust="spacingAndGlyphs" textLength="134" x="281" y="586.5449">soundLongitude : double</text><rect fill="none" height="6" style="stroke: #C82930; stroke-width: 1.0;" width="6" x="269" y="593.8428"/><text fill="#000000" font-family="sans-serif" font-size="11" lengthAdjust="spacingAndGlyphs" textLength="122" x="281" y="599.5">soundAltitude : double</text><rect fill="none" height="6" style="stroke: #C82930; stroke-width: 1.0;" width="6" x="269" y="606.7979"/><text fill="#000000" font-family="sans-serif" font-size="11" lengthAdjust="spacingAndGlyphs" textLength="74" x="281" y="612.4551">soundVolume</text><rect fill="none" height="6" style="stroke: #C82930; stroke-width: 1.0;" width="6" x="269" y="619.7529"/><text fill="#000000" font-family="sans-serif" font-size="11" lengthAdjust="spacingAndGlyphs" textLength="113" x="281" y="625.4102">soundPattern : String</text><rect fill="none" height="6" style="stroke: #C82930; stroke-width: 1.0;" width="6" x="269" y="632.708"/><text fill="#000000" font-family="sans-serif" font-size="11" lengthAdjust="spacingAndGlyphs" textLength="105" x="281" y="638.3652">soundName : String</text><line style="stroke: #A80036; stroke-width: 1.5;" x1="262" x2="420" y1="644.6855" y2="644.6855"/><!--class MapModeVirtualSoundSpace--><rect fill="#FEFECE" filter="url(#f4obbbhw0vq22)" height="125.7305" id="MapModeVirtualSoundSpace" style="stroke: #A80036; stroke-width: 1.5;" width="195" x="363.5" y="328"/><ellipse cx="378.5" cy="344" fill="#ADD1B2" rx="11" ry="11" style="stroke: #A80036; stroke-width: 1.0;"/><path d="M381.4731,349.6431 Q380.8921,349.9419 380.2529,350.0913 Q379.6138,350.2407 378.9082,350.2407 Q376.4014,350.2407 375.0815,348.5889 Q373.7617,346.937 373.7617,343.8159 Q373.7617,340.6865 375.0815,339.0347 Q376.4014,337.3828 378.9082,337.3828 Q379.6138,337.3828 380.2612,337.5322 Q380.9087,337.6816 381.4731,337.9805 L381.4731,340.7031 Q380.8423,340.1221 380.2488,339.8523 Q379.6553,339.5825 379.0244,339.5825 Q377.6797,339.5825 376.9949,340.6492 Q376.3101,341.7158 376.3101,343.8159 Q376.3101,345.9077 376.9949,346.9744 Q377.6797,348.041 379.0244,348.041 Q379.6553,348.041 380.2488,347.7712 Q380.8423,347.5015 381.4731,346.9204 Z "/><text fill="#000000" font-family="sans-serif" font-size="12" lengthAdjust="spacingAndGlyphs" textLength="163" x="392.5" y="348.5352">MapModeVirtualSoundSpace</text><line style="stroke: #A80036; stroke-width: 1.5;" x1="364.5" x2="557.5" y1="360" y2="360"/><rect fill="none" height="6" style="stroke: #C82930; stroke-width: 1.0;" width="6" x="371.5" y="368.9775"/><text fill="#000000" font-family="sans-serif" font-size="11" lengthAdjust="spacingAndGlyphs" textLength="105" x="383.5" y="374.6348">soundSources : List</text><rect fill="none" height="6" style="stroke: #C82930; stroke-width: 1.0;" width="6" x="371.5" y="381.9326"/><text fill="#000000" font-family="sans-serif" font-size="11" lengthAdjust="spacingAndGlyphs" textLength="59" x="383.5" y="387.5898">VSS_ID : int</text><rect fill="none" height="6" style="stroke: #C82930; stroke-width: 1.0;" width="6" x="371.5" y="394.8877"/><text fill="#000000" font-family="sans-serif" font-size="11" lengthAdjust="spacingAndGlyphs" textLength="67" x="383.5" y="400.5449">ownerID : int</text><rect fill="none" height="6" style="stroke: #C82930; stroke-width: 1.0;" width="6" x="371.5" y="407.8428"/><text fill="#000000" font-family="sans-serif" font-size="11" lengthAdjust="spacingAndGlyphs" textLength="96" x="383.5" y="413.5">VSS_Name : String</text><rect fill="none" height="6" style="stroke: #C82930; stroke-width: 1.0;" width="6" x="371.5" y="420.7979"/><text fill="#000000" font-family="sans-serif" font-size="11" lengthAdjust="spacingAndGlyphs" textLength="128" x="383.5" y="426.4551">VSS_Description : String</text><rect fill="none" height="6" style="stroke: #C82930; stroke-width: 1.0;" width="6" x="371.5" y="433.7529"/><text fill="#000000" font-family="sans-serif" font-size="11" lengthAdjust="spacingAndGlyphs" textLength="74" x="383.5" y="439.4102">status : String</text><line style="stroke: #A80036; stroke-width: 1.5;" x1="364.5" x2="557.5" y1="445.7305" y2="445.7305"/><!--class ConcertModeVirtualSoundSpace--><rect fill="#FEFECE" filter="url(#f4obbbhw0vq22)" height="125.7305" id="ConcertModeVirtualSoundSpace" style="stroke: #A80036; stroke-width: 1.5;" width="214" x="114" y="328"/><ellipse cx="129" cy="344" fill="#ADD1B2" rx="11" ry="11" style="stroke: #A80036; stroke-width: 1.0;"/><path d="M131.9731,349.6431 Q131.3921,349.9419 130.7529,350.0913 Q130.1138,350.2407 129.4082,350.2407 Q126.9014,350.2407 125.5815,348.5889 Q124.2617,346.937 124.2617,343.8159 Q124.2617,340.6865 125.5815,339.0347 Q126.9014,337.3828 129.4082,337.3828 Q130.1138,337.3828 130.7612,337.5322 Q131.4087,337.6816 131.9731,337.9805 L131.9731,340.7031 Q131.3423,340.1221 130.7488,339.8523 Q130.1553,339.5825 129.5244,339.5825 Q128.1797,339.5825 127.4949,340.6492 Q126.8101,341.7158 126.8101,343.8159 Q126.8101,345.9077 127.4949,346.9744 Q128.1797,348.041 129.5244,348.041 Q130.1553,348.041 130.7488,347.7712 Q131.3423,347.5015 131.9731,346.9204 Z "/><text fill="#000000" font-family="sans-serif" font-size="12" lengthAdjust="spacingAndGlyphs" textLength="182" x="143" y="348.5352">ConcertModeVirtualSoundSpace</text><line style="stroke: #A80036; stroke-width: 1.5;" x1="115" x2="327" y1="360" y2="360"/><rect fill="none" height="6" style="stroke: #C82930; stroke-width: 1.0;" width="6" x="122" y="368.9775"/><text fill="#000000" font-family="sans-serif" font-size="11" lengthAdjust="spacingAndGlyphs" textLength="105" x="134" y="374.6348">soundSources : List</text><rect fill="none" height="6" style="stroke: #C82930; stroke-width: 1.0;" width="6" x="122" y="381.9326"/><text fill="#000000" font-family="sans-serif" font-size="11" lengthAdjust="spacingAndGlyphs" textLength="59" x="134" y="387.5898">VSS_ID : int</text><rect fill="none" height="6" style="stroke: #C82930; stroke-width: 1.0;" width="6" x="122" y="394.8877"/><text fill="#000000" font-family="sans-serif" font-size="11" lengthAdjust="spacingAndGlyphs" textLength="67" x="134" y="400.5449">ownerID : int</text><rect fill="none" height="6" style="stroke: #C82930; stroke-width: 1.0;" width="6" x="122" y="407.8428"/><text fill="#000000" font-family="sans-serif" font-size="11" lengthAdjust="spacingAndGlyphs" textLength="96" x="134" y="413.5">VSS_Name : String</text><rect fill="none" height="6" style="stroke: #C82930; stroke-width: 1.0;" width="6" x="122" y="420.7979"/><text fill="#000000" font-family="sans-serif" font-size="11" lengthAdjust="spacingAndGlyphs" textLength="128" x="134" y="426.4551">VSS_Description : String</text><rect fill="none" height="6" style="stroke: #C82930; stroke-width: 1.0;" width="6" x="122" y="433.7529"/><text fill="#000000" font-family="sans-serif" font-size="11" lengthAdjust="spacingAndGlyphs" textLength="74" x="134" y="439.4102">status : String</text><line style="stroke: #A80036; stroke-width: 1.5;" x1="115" x2="327" y1="445.7305" y2="445.7305"/><!--class LocalSoundSpaceLibrary--><rect fill="#FEFECE" filter="url(#f4obbbhw0vq22)" height="86.8652" id="LocalSoundSpaceLibrary" style="stroke: #A80036; stroke-width: 1.5;" width="170" x="141" y="181"/><ellipse cx="156" cy="197" fill="#ADD1B2" rx="11" ry="11" style="stroke: #A80036; stroke-width: 1.0;"/><path d="M158.9731,202.6431 Q158.3921,202.9419 157.7529,203.0913 Q157.1138,203.2407 156.4082,203.2407 Q153.9014,203.2407 152.5815,201.5889 Q151.2617,199.937 151.2617,196.8159 Q151.2617,193.6865 152.5815,192.0347 Q153.9014,190.3828 156.4082,190.3828 Q157.1138,190.3828 157.7612,190.5322 Q158.4087,190.6816 158.9731,190.9805 L158.9731,193.7031 Q158.3423,193.1221 157.7488,192.8523 Q157.1553,192.5825 156.5244,192.5825 Q155.1797,192.5825 154.4949,193.6492 Q153.8101,194.7158 153.8101,196.8159 Q153.8101,198.9077 154.4949,199.9744 Q155.1797,201.041 156.5244,201.041 Q157.1553,201.041 157.7488,200.7712 Q158.3423,200.5015 158.9731,199.9204 Z "/><text fill="#000000" font-family="sans-serif" font-size="12" lengthAdjust="spacingAndGlyphs" textLength="138" x="170" y="201.5352">LocalSoundSpaceLibrary</text><line style="stroke: #A80036; stroke-width: 1.5;" x1="142" x2="310" y1="213" y2="213"/><rect fill="none" height="6" style="stroke: #C82930; stroke-width: 1.0;" width="6" x="149" y="221.9775"/><text fill="#000000" font-family="sans-serif" font-size="11" lengthAdjust="spacingAndGlyphs" textLength="133" x="161" y="227.6348">virtualSoundSpaces : List</text><rect fill="none" height="6" style="stroke: #C82930; stroke-width: 1.0;" width="6" x="149" y="234.9326"/><text fill="#000000" font-family="sans-serif" font-size="11" lengthAdjust="spacingAndGlyphs" textLength="69" x="161" y="240.5898">libraryID : int</text><rect fill="none" height="6" style="stroke: #C82930; stroke-width: 1.0;" width="6" x="149" y="247.8877"/><text fill="#000000" font-family="sans-serif" font-size="11" lengthAdjust="spacingAndGlyphs" textLength="106" x="161" y="253.5449">libraryName : String</text><line style="stroke: #A80036; stroke-width: 1.5;" x1="142" x2="310" y1="259.8652" y2="259.8652"/><!--class OnlineSoundSpaceLibrary--><rect fill="#FEFECE" filter="url(#f4obbbhw0vq22)" height="86.8652" id="OnlineSoundSpaceLibrary" style="stroke: #A80036; stroke-width: 1.5;" width="177" x="346.5" y="181"/><ellipse cx="361.5" cy="197" fill="#ADD1B2" rx="11" ry="11" style="stroke: #A80036; stroke-width: 1.0;"/><path d="M364.4731,202.6431 Q363.8921,202.9419 363.2529,203.0913 Q362.6138,203.2407 361.9082,203.2407 Q359.4014,203.2407 358.0815,201.5889 Q356.7617,199.937 356.7617,196.8159 Q356.7617,193.6865 358.0815,192.0347 Q359.4014,190.3828 361.9082,190.3828 Q362.6138,190.3828 363.2612,190.5322 Q363.9087,190.6816 364.4731,190.9805 L364.4731,193.7031 Q363.8423,193.1221 363.2488,192.8523 Q362.6553,192.5825 362.0244,192.5825 Q360.6797,192.5825 359.9949,193.6492 Q359.3101,194.7158 359.3101,196.8159 Q359.3101,198.9077 359.9949,199.9744 Q360.6797,201.041 362.0244,201.041 Q362.6553,201.041 363.2488,200.7712 Q363.8423,200.5015 364.4731,199.9204 Z "/><text fill="#000000" font-family="sans-serif" font-size="12" lengthAdjust="spacingAndGlyphs" textLength="145" x="375.5" y="201.5352">OnlineSoundSpaceLibrary</text><line style="stroke: #A80036; stroke-width: 1.5;" x1="347.5" x2="522.5" y1="213" y2="213"/><rect fill="none" height="6" style="stroke: #C82930; stroke-width: 1.0;" width="6" x="354.5" y="221.9775"/><text fill="#000000" font-family="sans-serif" font-size="11" lengthAdjust="spacingAndGlyphs" textLength="133" x="366.5" y="227.6348">virtualSoundSpaces : List</text><rect fill="none" height="6" style="stroke: #C82930; stroke-width: 1.0;" width="6" x="354.5" y="234.9326"/><text fill="#000000" font-family="sans-serif" font-size="11" lengthAdjust="spacingAndGlyphs" textLength="69" x="366.5" y="240.5898">libraryID : int</text><rect fill="none" height="6" style="stroke: #C82930; stroke-width: 1.0;" width="6" x="354.5" y="247.8877"/><text fill="#000000" font-family="sans-serif" font-size="11" lengthAdjust="spacingAndGlyphs" textLength="106" x="366.5" y="253.5449">libraryName : String</text><line style="stroke: #A80036; stroke-width: 1.5;" x1="347.5" x2="522.5" y1="259.8652" y2="259.8652"/><!--class Sensor--><rect fill="#FEFECE" filter="url(#f4obbbhw0vq22)" height="73.9102" id="Sensor" style="stroke: #A80036; stroke-width: 1.5;" width="100" x="6" y="187.5"/><ellipse cx="34.5" cy="203.5" fill="#ADD1B2" rx="11" ry="11" style="stroke: #A80036; stroke-width: 1.0;"/><path d="M37.4731,209.1431 Q36.8921,209.4419 36.2529,209.5913 Q35.6138,209.7407 34.9082,209.7407 Q32.4014,209.7407 31.0815,208.0889 Q29.7617,206.437 29.7617,203.3159 Q29.7617,200.1865 31.0815,198.5347 Q32.4014,196.8828 34.9082,196.8828 Q35.6138,196.8828 36.2612,197.0322 Q36.9087,197.1816 37.4731,197.4805 L37.4731,200.2031 Q36.8423,199.6221 36.2488,199.3523 Q35.6553,199.0825 35.0244,199.0825 Q33.6797,199.0825 32.9949,200.1492 Q32.3101,201.2158 32.3101,203.3159 Q32.3101,205.4077 32.9949,206.4744 Q33.6797,207.541 35.0244,207.541 Q35.6553,207.541 36.2488,207.2712 Q36.8423,207.0015 37.4731,206.4204 Z "/><text fill="#000000" font-family="sans-serif" font-size="12" lengthAdjust="spacingAndGlyphs" textLength="38" x="51.5" y="208.0352">Sensor</text><line style="stroke: #A80036; stroke-width: 1.5;" x1="7" x2="105" y1="219.5" y2="219.5"/><rect fill="none" height="6" style="stroke: #C82930; stroke-width: 1.0;" width="6" x="14" y="228.4775"/><text fill="#000000" font-family="sans-serif" font-size="11" lengthAdjust="spacingAndGlyphs" textLength="74" x="26" y="234.1348">status : String</text><rect fill="none" height="6" style="stroke: #C82930; stroke-width: 1.0;" width="6" x="14" y="241.4326"/><text fill="#000000" font-family="sans-serif" font-size="11" lengthAdjust="spacingAndGlyphs" textLength="71" x="26" y="247.0898">sensorID : int</text><line style="stroke: #A80036; stroke-width: 1.5;" x1="7" x2="105" y1="253.4102" y2="253.4102"/><!--class VirtualSoundSpace--><rect fill="#FEFECE" filter="url(#f4obbbhw0vq22)" height="48" id="VirtualSoundSpace" style="stroke: #A80036; stroke-width: 1.5;" width="138" x="569" y="200.5"/><ellipse cx="584" cy="216.5" fill="#ADD1B2" rx="11" ry="11" style="stroke: #A80036; stroke-width: 1.0;"/><path d="M586.9731,222.1431 Q586.3921,222.4419 585.7529,222.5913 Q585.1138,222.7407 584.4082,222.7407 Q581.9014,222.7407 580.5815,221.0889 Q579.2617,219.437 579.2617,216.3159 Q579.2617,213.1865 580.5815,211.5347 Q581.9014,209.8828 584.4082,209.8828 Q585.1138,209.8828 585.7612,210.0322 Q586.4087,210.1816 586.9731,210.4805 L586.9731,213.2031 Q586.3423,212.6221 585.7488,212.3523 Q585.1553,212.0825 584.5244,212.0825 Q583.1797,212.0825 582.4949,213.1492 Q581.8101,214.2158 581.8101,216.3159 Q581.8101,218.4077 582.4949,219.4744 Q583.1797,220.541 584.5244,220.541 Q585.1553,220.541 585.7488,220.2712 Q586.3423,220.0015 586.9731,219.4204 Z "/><text fill="#000000" font-family="sans-serif" font-size="12" lengthAdjust="spacingAndGlyphs" textLength="106" x="598" y="221.0352">VirtualSoundSpace</text><line style="stroke: #A80036; stroke-width: 1.5;" x1="570" x2="706" y1="232.5" y2="232.5"/><line style="stroke: #A80036; stroke-width: 1.5;" x1="570" x2="706" y1="240.5" y2="240.5"/><!--link User to Sensor--><path d="M165.5857,121.3605 C142.2995,143.277 116.3197,167.7285 95.5023,187.3214 " fill="none" id="User-Sensor" style="stroke: #A80036; stroke-width: 1.0;"/><text fill="#000000" font-family="sans-serif" font-size="13" lengthAdjust="spacingAndGlyphs" textLength="8" x="150.1378" y="124.6671">1</text><text fill="#000000" font-family="sans-serif" font-size="13" lengthAdjust="spacingAndGlyphs" textLength="8" x="94.048" y="176.6891">1</text><!--link User to LocalSoundSpaceLibrary--><path d="M226,121.3605 C226,140.9416 226,162.5463 226,180.9015 " fill="none" id="User-LocalSoundSpaceLibrary" style="stroke: #A80036; stroke-width: 1.0;"/><text fill="#000000" font-family="sans-serif" font-size="13" lengthAdjust="spacingAndGlyphs" textLength="8" x="217.5375" y="141.4015">1</text><text fill="#000000" font-family="sans-serif" font-size="13" lengthAdjust="spacingAndGlyphs" textLength="8" x="217.3625" y="170.3615">1</text><!--link User to OnlineSoundSpaceLibrary--><path d="M286.1711,110.564 C315.113,132.7205 349.6235,159.14 378.1228,180.9576 " fill="none" id="User-OnlineSoundSpaceLibrary" style="stroke: #A80036; stroke-width: 1.0;"/><text fill="#000000" font-family="sans-serif" font-size="13" lengthAdjust="spacingAndGlyphs" textLength="8" x="293.992" y="112.865">1</text><text fill="#000000" font-family="sans-serif" font-size="13" lengthAdjust="spacingAndGlyphs" textLength="6" x="362.2056" y="170.1089">*</text><!--link MapModeVirtualSoundSpace to SoundSource--><path d="M414.6135,465.4116 C404.722,481.2793 394.3094,497.9829 384.5296,513.6713 " fill="none" id="MapModeVirtualSoundSpace-SoundSource" style="stroke: #A80036; stroke-width: 1.0;"/><polygon fill="#FFFFFF" points="421.7075,454.0317,415.139,457.0073,415.3594,464.2151,421.9279,461.2394,421.7075,454.0317" style="stroke: #A80036; stroke-width: 1.0;"/><text fill="#000000" font-family="sans-serif" font-size="13" lengthAdjust="spacingAndGlyphs" textLength="8" x="408.9724" y="474.3462">1</text><text fill="#000000" font-family="sans-serif" font-size="13" lengthAdjust="spacingAndGlyphs" textLength="22" x="365.8842" y="503.2974">1..*</text><!--link ConcertModeVirtualSoundSpace to SoundSource--><path d="M267.3865,465.4116 C277.278,481.2793 287.6906,497.9829 297.4704,513.6713 " fill="none" id="ConcertModeVirtualSoundSpace-SoundSource" style="stroke: #A80036; stroke-width: 1.0;"/><polygon fill="#FFFFFF" points="260.2925,454.0317,260.0721,461.2394,266.6406,464.2151,266.861,457.0073,260.2925,454.0317" style="stroke: #A80036; stroke-width: 1.0;"/><text fill="#000000" font-family="sans-serif" font-size="13" lengthAdjust="spacingAndGlyphs" textLength="8" x="256.1526" y="474.3462">1</text><text fill="#000000" font-family="sans-serif" font-size="13" lengthAdjust="spacingAndGlyphs" textLength="22" x="269.847" y="503.2974">1..*</text><!--link LocalSoundSpaceLibrary to MapModeVirtualSoundSpace--><path d="M298.2813,275.7121 C321.5885,292.2255 347.6968,310.7235 372.061,327.9858 " fill="none" id="LocalSoundSpaceLibrary-MapModeVirtualSoundSpace" style="stroke: #A80036; stroke-width: 1.0;"/><polygon fill="#FFFFFF" points="287.4365,268.0284,290.0198,274.7609,297.228,274.9658,294.6447,268.2333,287.4365,268.0284" style="stroke: #A80036; stroke-width: 1.0;"/><text fill="#000000" font-family="sans-serif" font-size="13" lengthAdjust="spacingAndGlyphs" textLength="8" x="288.2315" y="288.4446">1</text><text fill="#000000" font-family="sans-serif" font-size="13" lengthAdjust="spacingAndGlyphs" textLength="6" x="355.4306" y="317.4345">*</text><!--link LocalSoundSpaceLibrary to ConcertModeVirtualSoundSpace--><path d="M224.2875,281.5277 C223.8396,296.4417 223.3542,312.6062 222.8973,327.8198 " fill="none" id="LocalSoundSpaceLibrary-ConcertModeVirtualSoundSpace" style="stroke: #A80036; stroke-width: 1.0;"/><polygon fill="#FFFFFF" points="224.6863,268.2459,220.5079,274.1231,224.3259,280.2405,228.5043,274.3633,224.6863,268.2459" style="stroke: #A80036; stroke-width: 1.0;"/><text fill="#000000" font-family="sans-serif" font-size="13" lengthAdjust="spacingAndGlyphs" textLength="8" x="215.9059" y="288.3737">1</text><text fill="#000000" font-family="sans-serif" font-size="13" lengthAdjust="spacingAndGlyphs" textLength="6" x="216.7698" y="317.2493">*</text><!--link OnlineSoundSpaceLibrary to MapModeVirtualSoundSpace--><path d="M443.9052,281.5277 C446.2341,296.4417 448.7583,312.6062 451.134,327.8198 " fill="none" id="OnlineSoundSpaceLibrary-MapModeVirtualSoundSpace" style="stroke: #A80036; stroke-width: 1.0;"/><polygon fill="#FFFFFF" points="441.8312,268.2459,438.8049,274.7912,443.6828,280.1022,446.7091,273.5569,441.8312,268.2459" style="stroke: #A80036; stroke-width: 1.0;"/><text fill="#000000" font-family="sans-serif" font-size="13" lengthAdjust="spacingAndGlyphs" textLength="8" x="434.247" y="288.3737">1</text><text fill="#000000" font-family="sans-serif" font-size="13" lengthAdjust="spacingAndGlyphs" textLength="6" x="443.6464" y="317.2493">*</text><!--link OnlineSoundSpaceLibrary to ConcertModeVirtualSoundSpace--><path d="M368.601,276.1609 C347.5232,292.5602 323.9774,310.8797 301.9912,327.9858 " fill="none" id="OnlineSoundSpaceLibrary-ConcertModeVirtualSoundSpace" style="stroke: #A80036; stroke-width: 1.0;"/><polygon fill="#FFFFFF" points="379.0535,268.0284,371.8617,268.5558,369.5825,275.3973,376.7743,274.8698,379.0535,268.0284" style="stroke: #A80036; stroke-width: 1.0;"/><text fill="#000000" font-family="sans-serif" font-size="13" lengthAdjust="spacingAndGlyphs" textLength="8" x="361.8742" y="288.4446">1</text><text fill="#000000" font-family="sans-serif" font-size="13" lengthAdjust="spacingAndGlyphs" textLength="6" x="305.0089" y="317.4345">*</text><!--link VirtualSoundSpace to Comment--><path d="M668.9164,258.3657 C694.2249,286.0885 729.9795,325.2539 756.073,353.8365 " fill="none" id="VirtualSoundSpace-Comment" style="stroke: #A80036; stroke-width: 1.0;"/><polygon fill="#FFFFFF" points="660.1021,248.7105,661.1933,255.8386,668.1927,257.5729,667.1015,250.4448,660.1021,248.7105" style="stroke: #A80036; stroke-width: 1.0;"/><text fill="#000000" font-family="sans-serif" font-size="13" lengthAdjust="spacingAndGlyphs" textLength="8" x="656.5145" y="269.0461">1</text><text fill="#000000" font-family="sans-serif" font-size="13" lengthAdjust="spacingAndGlyphs" textLength="6" x="743.2646" y="343.2069">*</text><!--link VirtualSoundSpace to Like--><path d="M639.3541,262.0776 C640.3425,289.5037 641.6759,326.5075 642.6608,353.8365 " fill="none" id="VirtualSoundSpace-Like" style="stroke: #A80036; stroke-width: 1.0;"/><polygon fill="#FFFFFF" points="638.8725,248.7105,635.0912,254.8507,639.3048,260.7027,643.086,254.5625,638.8725,248.7105" style="stroke: #A80036; stroke-width: 1.0;"/><text fill="#000000" font-family="sans-serif" font-size="13" lengthAdjust="spacingAndGlyphs" textLength="8" x="630.1102" y="269.0461">1</text><text fill="#000000" font-family="sans-serif" font-size="13" lengthAdjust="spacingAndGlyphs" textLength="6" x="635.8608" y="343.2069">*</text><!--link VirtualSoundSpace to MapModeVirtualSoundSpace--><path d="M597.6166,262.4878 C577.0386,281.8451 551.4739,305.8932 528.0443,327.9329 " fill="none" id="VirtualSoundSpace-MapModeVirtualSoundSpace" style="stroke: #A80036; stroke-width: 1.0;"/><polygon fill="none" points="592.8988,257.3153,612.2627,248.7105,602.4912,267.5127,592.8988,257.3153" style="stroke: #A80036; stroke-width: 1.0;"/><!--link VirtualSoundSpace to ConcertModeVirtualSoundSpace--><path d="M569.3209,256.5966 C559.8828,260.6254 550.2558,264.5405 541,268 C456.184,299.7012 429.9694,293.1199 346,327 C340.1215,329.3719 334.1478,331.9221 328.1587,334.59 " fill="none" id="VirtualSoundSpace-ConcertModeVirtualSoundSpace" style="stroke: #A80036; stroke-width: 1.0;"/><polygon fill="none" points="566.5364,250.1742,587.663,248.5409,572.166,262.9924,566.5364,250.1742" style="stroke: #A80036; stroke-width: 1.0;"/><!--
@startuml
class User {
  -userID : int
  -username : String
  -password : String
  -e_mail : String
  -userProfile
}
class SoundSource {
  -soundSourceID : int
  -soundLatitude : double
  -soundLongitude : double
  -soundAltitude : double
  -soundVolume
  -soundPattern : String
  -soundName : String
}
class MapModeVirtualSoundSpace {
  -soundSources : List
  -VSS_ID : int
  -ownerID : int
  -VSS_Name : String
  -VSS_Description : String
  -status : String
}
class ConcertModeVirtualSoundSpace {
  -soundSources : List
  -VSS_ID : int
  -ownerID : int
  -VSS_Name : String
  -VSS_Description : String
  -status : String
}
package "Social Classes" #yellow {
  class Comment {
    -commenterID : int
    -comment : String
  }
  class Like {
    -likerID : int
    -likeCount : int
  }
}

class LocalSoundSpaceLibrary {
  -virtualSoundSpaces : List
  -libraryID : int
  -libraryName : String
}
class OnlineSoundSpaceLibrary {
  -virtualSoundSpaces : List
  -libraryID : int
  -libraryName : String
}
class Sensor {
  -status : String
  -sensorID : int
}

User "1" - - "1" Sensor
User "1" - - "1" LocalSoundSpaceLibrary
User "1" - - "*" OnlineSoundSpaceLibrary

MapModeVirtualSoundSpace "1" o- - "1..*" SoundSource
ConcertModeVirtualSoundSpace "1" o- - "1..*" SoundSource

LocalSoundSpaceLibrary "1" o- - "*" MapModeVirtualSoundSpace
LocalSoundSpaceLibrary "1" o- - "*" ConcertModeVirtualSoundSpace

OnlineSoundSpaceLibrary "1" o- - "*" MapModeVirtualSoundSpace
OnlineSoundSpaceLibrary "1" o- - "*" ConcertModeVirtualSoundSpace

VirtualSoundSpace "1" o- - "*" Comment
VirtualSoundSpace "1" o- - "*" Like

VirtualSoundSpace <|- - MapModeVirtualSoundSpace
VirtualSoundSpace <|- - ConcertModeVirtualSoundSpace

@enduml

PlantUML version 1.2018.01(Mon Jan 29 02:08:22 CST 2018)
(GPL source distribution)
Java Runtime: Java(TM) SE Runtime Environment
JVM: Java HotSpot(TM) 64-Bit Server VM
Java Version: 9+181
Operating System: Mac OS X
OS Version: 10.12.6
Default Encoding: UTF-8
Language: zh
Country: CN
--></g></svg>