<?xml version="1.0" encoding="UTF-8" standalone="no"?><svg xmlns="http://www.w3.org/2000/svg" xmlns:xlink="http://www.w3.org/1999/xlink" contentScriptType="application/ecmascript" contentStyleType="text/css" height="729px" preserveAspectRatio="none" style="width:930px;height:729px;" version="1.1" viewBox="0 0 930 729"
    width="930px" zoomAndPan="magnify"><defs><filter height="300%" id="f1da05pdc9gctw" width="300%" x="-1" y="-1"><feGaussianBlur result="blurOut" stdDeviation="2.0"/><feColorMatrix in="blurOut" result="blurOut2" type="matrix" values="0 0 0 0 0 0 0 0 0 0 0 0 0 0 0 0 0 0 .4 0"/><feOffset dx="4.0" dy="4.0" in="blurOut2" result="blurOut3"/><feBlend in="SourceGraphic" in2="blurOut3" mode="normal"/></filter></defs><g><rect fill="#FEFECE" filter="url(#f1da05pdc9gctw)" height="50" rx="12.5" ry="12.5" style="stroke: #A80036; stroke-width: 1.5;" width="66" x="492.5" y="8"/><line style="stroke: #A80036; stroke-width: 1.5;" x1="492.5" x2="558.5" y1="34.4883" y2="34.4883"/><text fill="#000000" font-family="sans-serif" font-size="14" lengthAdjust="spacingAndGlyphs" textLength="46" x="502.5" y="26.5352">Config</text><rect fill="#FEFECE" filter="url(#f1da05pdc9gctw)" height="50" rx="12.5" ry="12.5" style="stroke: #A80036; stroke-width: 1.5;" width="58" x="357.5" y="118"/><line style="stroke: #A80036; stroke-width: 1.5;" x1="357.5" x2="415.5" y1="144.4883" y2="144.4883"/><text fill="#000000" font-family="sans-serif" font-size="14" lengthAdjust="spacingAndGlyphs" textLength="38" x="367.5" y="136.5352">Login</text><ellipse cx="386.5" cy="33" fill="#000000" filter="url(#f1da05pdc9gctw)" rx="10" ry="10" style="stroke: none; stroke-width: 1.0;"/><rect fill="#FEFECE" filter="url(#f1da05pdc9gctw)" height="50" rx="12.5" ry="12.5" style="stroke: #A80036; stroke-width: 1.5;" width="76" x="308.5" y="228"/><line style="stroke: #A80036; stroke-width: 1.5;" x1="308.5" x2="384.5" y1="254.4883" y2="254.4883"/><text fill="#000000" font-family="sans-serif" font-size="14" lengthAdjust="spacingAndGlyphs" textLength="56" x="318.5" y="246.5352">Register</text><rect fill="#FEFECE" filter="url(#f1da05pdc9gctw)" height="50" rx="12.5" ry="12.5" style="stroke: #A80036; stroke-width: 1.5;" width="134" x="370.5" y="338"/><line style="stroke: #A80036; stroke-width: 1.5;" x1="370.5" x2="504.5" y1="364.4883" y2="364.4883"/><text fill="#000000" font-family="sans-serif" font-size="14" lengthAdjust="spacingAndGlyphs" textLength="114" x="380.5" y="356.5352">ManageLocalVSS</text><rect fill="#FEFECE" filter="url(#f1da05pdc9gctw)" height="50" rx="12.5" ry="12.5" style="stroke: #A80036; stroke-width: 1.5;" width="150" x="131.5" y="448"/><line style="stroke: #A80036; stroke-width: 1.5;" x1="131.5" x2="281.5" y1="474.4883" y2="474.4883"/><text fill="#000000" font-family="sans-serif" font-size="14" lengthAdjust="spacingAndGlyphs" textLength="130" x="141.5" y="466.5352">Preview_Local_Map</text><rect fill="#FEFECE" filter="url(#f1da05pdc9gctw)" height="50" rx="12.5" ry="12.5" style="stroke: #A80036; stroke-width: 1.5;" width="175" x="350" y="448"/><line style="stroke: #A80036; stroke-width: 1.5;" x1="350" x2="525" y1="474.4883" y2="474.4883"/><text fill="#000000" font-family="sans-serif" font-size="14" lengthAdjust="spacingAndGlyphs" textLength="155" x="360" y="466.5352">Preview_Local_Concert</text><rect fill="#FEFECE" filter="url(#f1da05pdc9gctw)" height="50" rx="12.5" ry="12.5" style="stroke: #A80036; stroke-width: 1.5;" width="147" x="6" y="558"/><line style="stroke: #A80036; stroke-width: 1.5;" x1="6" x2="153" y1="584.4883" y2="584.4883"/><text fill="#000000" font-family="sans-serif" font-size="14" lengthAdjust="spacingAndGlyphs" textLength="127" x="16" y="576.5352">AdjustSensor_Map</text><rect fill="#FEFECE" filter="url(#f1da05pdc9gctw)" height="50" rx="12.5" ry="12.5" style="stroke: #A80036; stroke-width: 1.5;" width="172" x="259.5" y="558"/><line style="stroke: #A80036; stroke-width: 1.5;" x1="259.5" x2="431.5" y1="584.4883" y2="584.4883"/><text fill="#000000" font-family="sans-serif" font-size="14" lengthAdjust="spacingAndGlyphs" textLength="152" x="269.5" y="576.5352">AdjustSensor_Concert</text><rect fill="#FEFECE" filter="url(#f1da05pdc9gctw)" height="50" rx="12.5" ry="12.5" style="stroke: #A80036; stroke-width: 1.5;" width="139" x="93" y="668"/><line style="stroke: #A80036; stroke-width: 1.5;" x1="93" x2="232" y1="694.4883" y2="694.4883"/><text fill="#000000" font-family="sans-serif" font-size="14" lengthAdjust="spacingAndGlyphs" textLength="119" x="103" y="686.5352">PlayMapModeVSS</text><rect fill="#FEFECE" filter="url(#f1da05pdc9gctw)" height="50" rx="12.5" ry="12.5" style="stroke: #A80036; stroke-width: 1.5;" width="164" x="306.5" y="668"/><line style="stroke: #A80036; stroke-width: 1.5;" x1="306.5" x2="470.5" y1="694.4883" y2="694.4883"/><text fill="#000000" font-family="sans-serif" font-size="14" lengthAdjust="spacingAndGlyphs" textLength="144" x="316.5" y="686.5352">PlayConcertModeVSS</text><rect fill="#FEFECE" filter="url(#f1da05pdc9gctw)" height="50" rx="12.5" ry="12.5" style="stroke: #A80036; stroke-width: 1.5;" width="139" x="561" y="448"/><line style="stroke: #A80036; stroke-width: 1.5;" x1="561" x2="700" y1="474.4883" y2="474.4883"/><text fill="#000000" font-family="sans-serif" font-size="14" lengthAdjust="spacingAndGlyphs" textLength="119" x="571" y="466.5352">BrowseOnlineVSS</text><rect fill="#FEFECE" filter="url(#f1da05pdc9gctw)" height="50" rx="12.5" ry="12.5" style="stroke: #A80036; stroke-width: 1.5;" width="185" x="538" y="558"/><line style="stroke: #A80036; stroke-width: 1.5;" x1="538" x2="723" y1="584.4883" y2="584.4883"/><text fill="#000000" font-family="sans-serif" font-size="14" lengthAdjust="spacingAndGlyphs" textLength="165" x="548" y="576.5352">Preview_Online_Concert</text><rect fill="#FEFECE" filter="url(#f1da05pdc9gctw)" height="50" rx="12.5" ry="12.5" style="stroke: #A80036; stroke-width: 1.5;" width="160" x="758.5" y="558"/><line style="stroke: #A80036; stroke-width: 1.5;" x1="758.5" x2="918.5" y1="584.4883" y2="584.4883"/><text fill="#000000" font-family="sans-serif" font-size="14" lengthAdjust="spacingAndGlyphs" textLength="140" x="768.5" y="576.5352">Preview_Online_Map</text><!--link Config to Login--><path d="M493.6106,58.2362 C471.5777,75.6723 442.3282,98.8194 419.9623,116.5191 " fill="none" id="Config-Login" style="stroke: #A80036; stroke-width: 1.0;"/><polygon fill="#A80036" points="415.8695,119.758,425.4091,117.3094,419.7902,116.6551,420.4445,111.0362,415.8695,119.758" style="stroke: #A80036; stroke-width: 1.0;"/><!--link *start to Login--><path d="M386.5,43.1514 C386.5,58.7765 386.5,89.3444 386.5,112.5625 " fill="none" id="*start-Login" style="stroke: #A80036; stroke-width: 1.0;"/><polygon fill="#A80036" points="386.5,117.6947,390.5,108.6947,386.5,112.6947,382.5,108.6947,386.5,117.6947" style="stroke: #A80036; stroke-width: 1.0;"/><!--link Login to Register--><path d="M366.4037,168.2362 C358.2924,184.4464 350.3994,205.5926 345.9853,222.7087 " fill="none" id="Login-Register" style="stroke: #A80036; stroke-width: 1.0;"/><polygon fill="#A80036" points="344.7307,227.8812,350.7394,220.0776,345.9093,223.0221,342.9648,218.1919,344.7307,227.8812" style="stroke: #A80036; stroke-width: 1.0;"/><!--link Register to Login--><path d="M367.1789,227.8812 C375.4222,211.695 383.3366,190.5509 387.6616,173.4155 " fill="none" id="Register-Login" style="stroke: #A80036; stroke-width: 1.0;"/><polygon fill="#A80036" points="388.885,168.2362,382.9231,176.0756,387.7356,173.1023,390.7089,177.9147,388.885,168.2362" style="stroke: #A80036; stroke-width: 1.0;"/><!--link Register to ManageLocalVSS--><path d="M367.3772,278.2362 C381.1343,294.8656 399.1888,316.6897 413.5326,334.0284 " fill="none" id="Register-ManageLocalVSS" style="stroke: #A80036; stroke-width: 1.0;"/><polygon fill="#A80036" points="416.7199,337.8812,414.0653,328.3968,413.5328,334.0286,407.9011,333.4961,416.7199,337.8812" style="stroke: #A80036; stroke-width: 1.0;"/><!--link Login to ManageLocalVSS--><path d="M392.3503,168.2368 C401.7978,208.9905 420.3757,289.1305 430.5068,332.8334 " fill="none" id="Login-ManageLocalVSS" style="stroke: #A80036; stroke-width: 1.0;"/><polygon fill="#A80036" points="431.6395,337.7196,433.5035,328.0487,430.5102,332.8488,425.7102,329.8556,431.6395,337.7196" style="stroke: #A80036; stroke-width: 1.0;"/><!--link ManageLocalVSS to Preview_Local_Map--><path d="M373.8929,388.0983 C335.5993,405.2113 287.9046,427.8732 253.0786,445.4794 " fill="none" id="ManageLocalVSS-Preview_Local_Map" style="stroke: #A80036; stroke-width: 1.0;"/><polygon fill="#A80036" points="248.4676,447.8193,258.3035,447.3135,252.9263,445.5566,254.6832,440.1795,248.4676,447.8193" style="stroke: #A80036; stroke-width: 1.0;"/><!--link Preview_Local_Map to ManageLocalVSS--><path d="M270.9333,447.8193 C309.3952,430.6885 357.09,408.0258 391.7479,390.436 " fill="none" id="Preview_Local_Map-ManageLocalVSS" style="stroke: #A80036; stroke-width: 1.0;"/><polygon fill="#A80036" points="396.3353,388.0983,386.5003,388.6208,391.8804,390.3685,390.1327,395.7486,396.3353,388.0983" style="stroke: #A80036; stroke-width: 1.0;"/><!--link ManageLocalVSS to Preview_Local_Concert--><path d="M426.5805,388.2362 C424.3638,404.4464 424.1604,425.5926 425.9703,442.7087 " fill="none" id="ManageLocalVSS-Preview_Local_Concert" style="stroke: #A80036; stroke-width: 1.0;"/><polygon fill="#A80036" points="426.5966,447.8812,429.4855,438.4656,425.9955,442.9175,421.5436,439.4274,426.5966,447.8812" style="stroke: #A80036; stroke-width: 1.0;"/><!--link Preview_Local_Concert to ManageLocalVSS--><path d="M449.0448,447.8812 C451.4022,431.695 451.6279,410.5509 449.7218,393.4155 " fill="none" id="Preview_Local_Concert-ManageLocalVSS" style="stroke: #A80036; stroke-width: 1.0;"/><polygon fill="#A80036" points="449.0618,388.2362,446.2317,397.6697,449.6939,393.1961,454.1675,396.6583,449.0618,388.2362" style="stroke: #A80036; stroke-width: 1.0;"/><!--link Preview_Local_Map to AdjustSensor_Map--><path d="M166.4442,498.2362 C144.9707,514.8656 119.6185,536.6897 101.5638,554.0284 " fill="none" id="Preview_Local_Map-AdjustSensor_Map" style="stroke: #A80036; stroke-width: 1.0;"/><polygon fill="#A80036" points="97.5974,557.8812,106.8401,554.4794,101.1838,554.3973,101.2659,548.7411,97.5974,557.8812" style="stroke: #A80036; stroke-width: 1.0;"/><!--link AdjustSensor_Map to Preview_Local_Map--><path d="M120.0455,557.8812 C141.635,541.2764 167.0049,519.454 184.979,502.0942 " fill="none" id="AdjustSensor_Map-Preview_Local_Map" style="stroke: #A80036; stroke-width: 1.0;"/><polygon fill="#A80036" points="188.9254,498.2362,179.6935,501.6673,185.35,501.7314,185.2859,507.3879,188.9254,498.2362" style="stroke: #A80036; stroke-width: 1.0;"/><!--link Preview_Local_Concert to AdjustSensor_Concert--><path d="M405.4739,498.2362 C389.4276,514.7258 371.1927,536.3233 358.6629,553.5903 " fill="none" id="Preview_Local_Concert-AdjustSensor_Concert" style="stroke: #A80036; stroke-width: 1.0;"/><polygon fill="#A80036" points="355.6051,557.8812,364.0858,552.8734,358.5069,553.8094,357.5709,548.2305,355.6051,557.8812" style="stroke: #A80036; stroke-width: 1.0;"/><!--link AdjustSensor_Concert to Preview_Local_Concert--><path d="M378.0532,557.8812 C394.2222,541.4159 412.4762,519.8204 424.9211,502.5328 " fill="none" id="AdjustSensor_Concert-Preview_Local_Concert" style="stroke: #A80036; stroke-width: 1.0;"/><polygon fill="#A80036" points="427.9551,498.2362,419.4962,503.2808,425.071,502.3206,426.0312,507.8953,427.9551,498.2362" style="stroke: #A80036; stroke-width: 1.0;"/><!--link AdjustSensor_Map to PlayMapModeVSS--><path d="M98.5419,608.2362 C110.984,624.7258 127.2803,646.3233 140.3091,663.5903 " fill="none" id="AdjustSensor_Map-PlayMapModeVSS" style="stroke: #A80036; stroke-width: 1.0;"/><polygon fill="#A80036" points="143.5467,667.8812,141.3187,658.2877,140.535,663.89,134.9327,663.1063,143.5467,667.8812" style="stroke: #A80036; stroke-width: 1.0;"/><!--link AdjustSensor_Concert to PlayConcertModeVSS--><path d="M355.3651,608.2362 C361.7564,624.5861 370.1107,645.9576 376.8315,663.1504 " fill="none" id="AdjustSensor_Concert-PlayConcertModeVSS" style="stroke: #A80036; stroke-width: 1.0;"/><polygon fill="#A80036" points="378.6808,667.8812,379.1295,658.0426,376.8604,663.2244,371.6786,660.9552,378.6808,667.8812" style="stroke: #A80036; stroke-width: 1.0;"/><!--link PlayMapModeVSS to Preview_Local_Map--><path d="M167.5561,667.7196 C175.6959,627.0205 191.6756,547.1218 200.4228,503.3861 " fill="none" id="PlayMapModeVSS-Preview_Local_Map" style="stroke: #A80036; stroke-width: 1.0;"/><polygon fill="#A80036" points="201.4526,498.2368,195.7652,506.2776,200.472,503.1397,203.6099,507.8465,201.4526,498.2368" style="stroke: #A80036; stroke-width: 1.0;"/><!--link PlayConcertModeVSS to Preview_Local_Concert--><path d="M412.6344,667.7618 C426.0349,651.9513 441.3963,630.3817 448.5,608 C459.5499,573.1849 453.1406,530.9168 446.3912,503.0578 " fill="none" id="PlayConcertModeVSS-Preview_Local_Concert" style="stroke: #A80036; stroke-width: 1.0;"/><polygon fill="#A80036" points="445.1311,498.0287,443.4386,507.731,446.3464,502.8788,451.1987,505.7866,445.1311,498.0287" style="stroke: #A80036; stroke-width: 1.0;"/><!--link ManageLocalVSS to BrowseOnlineVSS--><path d="M470.8586,388.2362 C498.4397,405.2848 537.8277,427.7934 570.7208,445.331 " fill="none" id="ManageLocalVSS-BrowseOnlineVSS" style="stroke: #A80036; stroke-width: 1.0;"/><polygon fill="#A80036" points="575.5246,447.8812,569.451,440.128,571.1084,445.5367,565.6997,447.194,575.5246,447.8812" style="stroke: #A80036; stroke-width: 1.0;"/><!--link BrowseOnlineVSS to ManageLocalVSS--><path d="M597.873,447.8193 C570.3036,430.6885 530.6442,408.0258 497.501,390.436 " fill="none" id="BrowseOnlineVSS-ManageLocalVSS" style="stroke: #A80036; stroke-width: 1.0;"/><polygon fill="#A80036" points="493.078,388.0983,499.1658,395.8403,497.4985,390.4347,502.9041,388.7674,493.078,388.0983" style="stroke: #A80036; stroke-width: 1.0;"/><!--link BrowseOnlineVSS to Config--><path d="M631.2041,447.8653 C621.9609,371.9085 567.9768,144.9465 539.884,62.9612 " fill="none" id="BrowseOnlineVSS-Config" style="stroke: #A80036; stroke-width: 1.0;"/><polygon fill="#A80036" points="538.2365,58.2367,537.4231,68.0519,539.8829,62.9579,544.9769,65.4177,538.2365,58.2367" style="stroke: #A80036; stroke-width: 1.0;"/><!--link Config to BrowseOnlineVSS--><path d="M525.1813,58.2367 C534.9381,134.1769 588.7445,360.3894 616.3897,442.6577 " fill="none" id="Config-BrowseOnlineVSS" style="stroke: #A80036; stroke-width: 1.0;"/><polygon fill="#A80036" points="618.1721,447.8653,619.0421,438.0549,616.553,443.1347,611.4732,440.6456,618.1721,447.8653" style="stroke: #A80036; stroke-width: 1.0;"/><!--link ManageLocalVSS to Config--><path d="M451.7532,337.9637 C475.3401,278.3127 515.6439,127.967 525.6263,63.3196 " fill="none" id="ManageLocalVSS-Config" style="stroke: #A80036; stroke-width: 1.0;"/><polygon fill="#A80036" points="526.3952,58.0745,521.1318,66.3989,525.6698,63.0216,529.0471,67.5596,526.3952,58.0745" style="stroke: #A80036; stroke-width: 1.0;"/><!--link Config to ManageLocalVSS--><path d="M511.6529,58.0745 C488.4854,117.7641 448.1961,268.1109 437.8233,332.7218 " fill="none" id="Config-ManageLocalVSS" style="stroke: #A80036; stroke-width: 1.0;"/><polygon fill="#A80036" points="437.0204,337.9637,442.3371,329.6732,437.7776,333.0214,434.4294,328.4618,437.0204,337.9637" style="stroke: #A80036; stroke-width: 1.0;"/><!--link BrowseOnlineVSS to Preview_Online_Concert--><path d="M619.5805,498.2362 C617.3638,514.4464 617.1604,535.5926 618.9703,552.7087 " fill="none" id="BrowseOnlineVSS-Preview_Online_Concert" style="stroke: #A80036; stroke-width: 1.0;"/><polygon fill="#A80036" points="619.5966,557.8812,622.4855,548.4656,618.9955,552.9175,614.5436,549.4274,619.5966,557.8812" style="stroke: #A80036; stroke-width: 1.0;"/><!--link Preview_Online_Concert to BrowseOnlineVSS--><path d="M642.0448,557.8812 C644.4022,541.695 644.6279,520.5509 642.7218,503.4155 " fill="none" id="Preview_Online_Concert-BrowseOnlineVSS" style="stroke: #A80036; stroke-width: 1.0;"/><polygon fill="#A80036" points="642.0618,498.2362,639.2317,507.6697,642.6939,503.1961,647.1675,506.6583,642.0618,498.2362" style="stroke: #A80036; stroke-width: 1.0;"/><!--link BrowseOnlineVSS to Preview_Online_Map--><path d="M667.2999,498.2362 C697.3284,515.3547 740.0113,537.978 775.3812,555.5464 " fill="none" id="BrowseOnlineVSS-Preview_Online_Map" style="stroke: #A80036; stroke-width: 1.0;"/><polygon fill="#A80036" points="780.0993,557.8812,773.8071,550.3044,775.618,555.6636,770.2588,557.4745,780.0993,557.8812" style="stroke: #A80036; stroke-width: 1.0;"/><!--link Preview_Online_Map to BrowseOnlineVSS--><path d="M802.4393,557.8193 C772.5339,540.6885 729.7841,518.0258 694.2423,500.436 " fill="none" id="Preview_Online_Map-BrowseOnlineVSS" style="stroke: #A80036; stroke-width: 1.0;"/><polygon fill="#A80036" points="689.5005,498.0983,695.8042,505.6655,693.9852,500.3091,699.3416,498.4901,689.5005,498.0983" style="stroke: #A80036; stroke-width: 1.0;"/><!--
@startuml
Config - -> Login

[*] - -> Login
Login - -> Register
Register - -> Login
Register - -> ManageLocalVSS
Login - -> ManageLocalVSS
ManageLocalVSS - -> Preview_Local_Map
ManageLocalVSS - -> Preview_Local_Concert
Preview_Local_Map - -> ManageLocalVSS
Preview_Local_Concert - -> ManageLocalVSS
Preview_Local_Map - -> AdjustSensor_Map
Preview_Local_Concert - -> AdjustSensor_Concert
AdjustSensor_Map - -> Preview_Local_Map
AdjustSensor_Concert - -> Preview_Local_Concert
AdjustSensor_Map - -> PlayMapModeVSS
AdjustSensor_Concert - -> PlayConcertModeVSS
PlayMapModeVSS - -> Preview_Local_Map
PlayConcertModeVSS - -> Preview_Local_Concert
ManageLocalVSS - -> BrowseOnlineVSS
BrowseOnlineVSS - -> ManageLocalVSS
BrowseOnlineVSS - -> Config
Config - -> BrowseOnlineVSS
ManageLocalVSS - -> Config
Config - -> ManageLocalVSS
BrowseOnlineVSS - -> Preview_Online_Concert
Preview_Online_Concert - -> BrowseOnlineVSS
BrowseOnlineVSS - -> Preview_Online_Map
Preview_Online_Map - -> BrowseOnlineVSS



@enduml

PlantUML version 1.2018.01(Mon Jan 29 02:08:22 CST 2018)
(GPL source distribution)
Java Runtime: Java(TM) SE Runtime Environment
JVM: Java HotSpot(TM) 64-Bit Server VM
Java Version: 9+181
Operating System: Mac OS X
OS Version: 10.12.6
Default Encoding: UTF-8
Language: zh
Country: CN
--></g></svg>