<?xml version="1.0" encoding="UTF-8" standalone="no"?><svg xmlns="http://www.w3.org/2000/svg" xmlns:xlink="http://www.w3.org/1999/xlink" contentScriptType="application/ecmascript" contentStyleType="text/css" height="729px" preserveAspectRatio="none" style="width:1341px;height:729px;" version="1.1" viewBox="0 0 1341 729"
    width="1341px" zoomAndPan="magnify"><defs><filter height="300%" id="f1xbn4dp0o9nj9" width="300%" x="-1" y="-1"><feGaussianBlur result="blurOut" stdDeviation="2.0"/><feColorMatrix in="blurOut" result="blurOut2" type="matrix" values="0 0 0 0 0 0 0 0 0 0 0 0 0 0 0 0 0 0 .4 0"/><feOffset dx="4.0" dy="4.0" in="blurOut2" result="blurOut3"/><feBlend in="SourceGraphic" in2="blurOut3" mode="normal"/></filter></defs><g><rect fill="#FEFECE" filter="url(#f1xbn4dp0o9nj9)" height="50" rx="12.5" ry="12.5" style="stroke: #A80036; stroke-width: 1.5;" width="66" x="799" y="8"/><line style="stroke: #A80036; stroke-width: 1.5;" x1="799" x2="865" y1="34.4883" y2="34.4883"/><text fill="#000000" font-family="sans-serif" font-size="14" lengthAdjust="spacingAndGlyphs" textLength="46" x="809" y="26.5352">Config</text><rect fill="#FEFECE" filter="url(#f1xbn4dp0o9nj9)" height="50" rx="12.5" ry="12.5" style="stroke: #A80036; stroke-width: 1.5;" width="58" x="695" y="118"/><line style="stroke: #A80036; stroke-width: 1.5;" x1="695" x2="753" y1="144.4883" y2="144.4883"/><text fill="#000000" font-family="sans-serif" font-size="14" lengthAdjust="spacingAndGlyphs" textLength="38" x="705" y="136.5352">Login</text><ellipse cx="724" cy="33" fill="#000000" filter="url(#f1xbn4dp0o9nj9)" rx="10" ry="10" style="stroke: none; stroke-width: 1.0;"/><rect fill="#FEFECE" filter="url(#f1xbn4dp0o9nj9)" height="50" rx="12.5" ry="12.5" style="stroke: #A80036; stroke-width: 1.5;" width="76" x="686" y="228"/><line style="stroke: #A80036; stroke-width: 1.5;" x1="686" x2="762" y1="254.4883" y2="254.4883"/><text fill="#000000" font-family="sans-serif" font-size="14" lengthAdjust="spacingAndGlyphs" textLength="56" x="696" y="246.5352">Register</text><rect fill="#FEFECE" filter="url(#f1xbn4dp0o9nj9)" height="50" rx="12.5" ry="12.5" style="stroke: #A80036; stroke-width: 1.5;" width="134" x="653" y="338"/><line style="stroke: #A80036; stroke-width: 1.5;" x1="653" x2="787" y1="364.4883" y2="364.4883"/><text fill="#000000" font-family="sans-serif" font-size="14" lengthAdjust="spacingAndGlyphs" textLength="114" x="663" y="356.5352">ManageLocalVSS</text><rect fill="#FEFECE" filter="url(#f1xbn4dp0o9nj9)" height="50" rx="12.5" ry="12.5" style="stroke: #A80036; stroke-width: 1.5;" width="150" x="410" y="448"/><line style="stroke: #A80036; stroke-width: 1.5;" x1="410" x2="560" y1="474.4883" y2="474.4883"/><text fill="#000000" font-family="sans-serif" font-size="14" lengthAdjust="spacingAndGlyphs" textLength="130" x="420" y="466.5352">Preview_Local_Map</text><rect fill="#FEFECE" filter="url(#f1xbn4dp0o9nj9)" height="50" rx="12.5" ry="12.5" style="stroke: #A80036; stroke-width: 1.5;" width="175" x="143.5" y="448"/><line style="stroke: #A80036; stroke-width: 1.5;" x1="143.5" x2="318.5" y1="474.4883" y2="474.4883"/><text fill="#000000" font-family="sans-serif" font-size="14" lengthAdjust="spacingAndGlyphs" textLength="155" x="153.5" y="466.5352">Preview_Local_Concert</text><rect fill="#FEFECE" filter="url(#f1xbn4dp0o9nj9)" height="50" rx="12.5" ry="12.5" style="stroke: #A80036; stroke-width: 1.5;" width="147" x="284.5" y="558"/><line style="stroke: #A80036; stroke-width: 1.5;" x1="284.5" x2="431.5" y1="584.4883" y2="584.4883"/><text fill="#000000" font-family="sans-serif" font-size="14" lengthAdjust="spacingAndGlyphs" textLength="127" x="294.5" y="576.5352">AdjustSensor_Map</text><rect fill="#FEFECE" filter="url(#f1xbn4dp0o9nj9)" height="50" rx="12.5" ry="12.5" style="stroke: #A80036; stroke-width: 1.5;" width="172" x="6" y="558"/><line style="stroke: #A80036; stroke-width: 1.5;" x1="6" x2="178" y1="584.4883" y2="584.4883"/><text fill="#000000" font-family="sans-serif" font-size="14" lengthAdjust="spacingAndGlyphs" textLength="152" x="16" y="576.5352">AdjustSensor_Concert</text><rect fill="#FEFECE" filter="url(#f1xbn4dp0o9nj9)" height="50" rx="12.5" ry="12.5" style="stroke: #A80036; stroke-width: 1.5;" width="139" x="337.5" y="668"/><line style="stroke: #A80036; stroke-width: 1.5;" x1="337.5" x2="476.5" y1="694.4883" y2="694.4883"/><text fill="#000000" font-family="sans-serif" font-size="14" lengthAdjust="spacingAndGlyphs" textLength="119" x="347.5" y="686.5352">PlayMapModeVSS</text><rect fill="#FEFECE" filter="url(#f1xbn4dp0o9nj9)" height="50" rx="12.5" ry="12.5" style="stroke: #A80036; stroke-width: 1.5;" width="164" x="99" y="668"/><line style="stroke: #A80036; stroke-width: 1.5;" x1="99" x2="263" y1="694.4883" y2="694.4883"/><text fill="#000000" font-family="sans-serif" font-size="14" lengthAdjust="spacingAndGlyphs" textLength="144" x="109" y="686.5352">PlayConcertModeVSS</text><rect fill="#FEFECE" filter="url(#f1xbn4dp0o9nj9)" height="50" rx="12.5" ry="12.5" style="stroke: #A80036; stroke-width: 1.5;" width="139" x="922.5" y="448"/><line style="stroke: #A80036; stroke-width: 1.5;" x1="922.5" x2="1061.5" y1="474.4883" y2="474.4883"/><text fill="#000000" font-family="sans-serif" font-size="14" lengthAdjust="spacingAndGlyphs" textLength="119" x="932.5" y="466.5352">BrowseOnlineVSS</text><rect fill="#FEFECE" filter="url(#f1xbn4dp0o9nj9)" height="50" rx="12.5" ry="12.5" style="stroke: #A80036; stroke-width: 1.5;" width="185" x="948.5" y="558"/><line style="stroke: #A80036; stroke-width: 1.5;" x1="948.5" x2="1133.5" y1="584.4883" y2="584.4883"/><text fill="#000000" font-family="sans-serif" font-size="14" lengthAdjust="spacingAndGlyphs" textLength="165" x="958.5" y="576.5352">Preview_Online_Concert</text><rect fill="#FEFECE" filter="url(#f1xbn4dp0o9nj9)" height="50" rx="12.5" ry="12.5" style="stroke: #A80036; stroke-width: 1.5;" width="160" x="1169" y="558"/><line style="stroke: #A80036; stroke-width: 1.5;" x1="1169" x2="1329" y1="584.4883" y2="584.4883"/><text fill="#000000" font-family="sans-serif" font-size="14" lengthAdjust="spacingAndGlyphs" textLength="140" x="1179" y="576.5352">Preview_Online_Map</text><rect fill="#FEFECE" filter="url(#f1xbn4dp0o9nj9)" height="50" rx="12.5" ry="12.5" style="stroke: #A80036; stroke-width: 1.5;" width="90" x="675" y="448"/><line style="stroke: #A80036; stroke-width: 1.5;" x1="675" x2="765" y1="474.4883" y2="474.4883"/><text fill="#000000" font-family="sans-serif" font-size="14" lengthAdjust="spacingAndGlyphs" textLength="70" x="685" y="466.5352">CreateVSS</text><rect fill="#FEFECE" filter="url(#f1xbn4dp0o9nj9)" height="50" rx="12.5" ry="12.5" style="stroke: #A80036; stroke-width: 1.5;" width="157" x="538.5" y="558"/><line style="stroke: #A80036; stroke-width: 1.5;" x1="538.5" x2="695.5" y1="584.4883" y2="584.4883"/><text fill="#000000" font-family="sans-serif" font-size="14" lengthAdjust="spacingAndGlyphs" textLength="137" x="548.5" y="576.5352">CreateMapModeVSS</text><rect fill="#FEFECE" filter="url(#f1xbn4dp0o9nj9)" height="50" rx="12.5" ry="12.5" style="stroke: #A80036; stroke-width: 1.5;" width="182" x="731" y="558"/><line style="stroke: #A80036; stroke-width: 1.5;" x1="731" x2="913" y1="584.4883" y2="584.4883"/><text fill="#000000" font-family="sans-serif" font-size="14" lengthAdjust="spacingAndGlyphs" textLength="162" x="741" y="576.5352">CreateConcertModeVSS</text><!--link Config to Login--><path d="M807.2226,58.2362 C790.8956,74.8656 769.4683,96.6897 752.4449,114.0284 " fill="none" id="Config-Login" style="stroke: #A80036; stroke-width: 1.0;"/><polygon fill="#A80036" points="748.6621,117.8812,757.8217,114.2615,752.1651,114.3134,752.1132,108.6568,748.6621,117.8812" style="stroke: #A80036; stroke-width: 1.0;"/><!--link *start to Login--><path d="M724,43.1514 C724,58.7765 724,89.3444 724,112.5625 " fill="none" id="*start-Login" style="stroke: #A80036; stroke-width: 1.0;"/><polygon fill="#A80036" points="724,117.6947,728,108.6947,724,112.6947,720,108.6947,724,117.6947" style="stroke: #A80036; stroke-width: 1.0;"/><!--link Login to Register--><path d="M713.0805,168.2362 C710.8638,184.4464 710.6604,205.5926 712.4703,222.7087 " fill="none" id="Login-Register" style="stroke: #A80036; stroke-width: 1.0;"/><polygon fill="#A80036" points="713.0966,227.8812,715.9855,218.4656,712.4955,222.9175,708.0436,219.4274,713.0966,227.8812" style="stroke: #A80036; stroke-width: 1.0;"/><!--link Register to Login--><path d="M735.5448,227.8812 C737.9022,211.695 738.1279,190.5509 736.2218,173.4155 " fill="none" id="Register-Login" style="stroke: #A80036; stroke-width: 1.0;"/><polygon fill="#A80036" points="735.5618,168.2362,732.7317,177.6697,736.1939,173.1961,740.6675,176.6583,735.5618,168.2362" style="stroke: #A80036; stroke-width: 1.0;"/><!--link Register to ManageLocalVSS--><path d="M723.0823,278.2362 C722.4929,294.4464 721.7239,315.5926 721.1015,332.7087 " fill="none" id="Register-ManageLocalVSS" style="stroke: #A80036; stroke-width: 1.0;"/><polygon fill="#A80036" points="720.9134,337.8812,725.2379,329.0325,721.0951,332.8845,717.2431,328.7418,720.9134,337.8812" style="stroke: #A80036; stroke-width: 1.0;"/><!--link Login to ManageLocalVSS--><path d="M701.7393,168.1455 C689.1562,184.0871 674.6481,205.8252 668,228 C661.6183,249.2862 661.976,256.6098 668,278 C673.6581,298.0912 685.5339,318.1255 696.5094,333.6936 " fill="none" id="Login-ManageLocalVSS" style="stroke: #A80036; stroke-width: 1.0;"/><polygon fill="#A80036" points="699.5753,337.9624,697.5741,328.319,696.6586,333.9013,691.0763,332.9857,699.5753,337.9624" style="stroke: #A80036; stroke-width: 1.0;"/><!--link ManageLocalVSS to Preview_Local_Map--><path d="M655.4803,388.0983 C616.5643,405.2113 568.0456,427.8732 532.5794,445.4794 " fill="none" id="ManageLocalVSS-Preview_Local_Map" style="stroke: #A80036; stroke-width: 1.0;"/><polygon fill="#A80036" points="527.8833,447.8193,537.7226,447.3858,532.3585,445.5895,534.1549,440.2254,527.8833,447.8193" style="stroke: #A80036; stroke-width: 1.0;"/><!--link Preview_Local_Map to ManageLocalVSS--><path d="M550.3489,447.8193 C589.4338,430.6885 637.9527,408.0258 673.2502,390.436 " fill="none" id="Preview_Local_Map-ManageLocalVSS" style="stroke: #A80036; stroke-width: 1.0;"/><polygon fill="#A80036" points="677.9226,388.0983,668.084,388.5479,673.451,390.3355,671.6635,395.7025,677.9226,388.0983" style="stroke: #A80036; stroke-width: 1.0;"/><!--link ManageLocalVSS to Preview_Local_Concert--><path d="M652.8695,376.1593 C567.4662,394.3111 420.0477,427.322 323.9337,449.7009 " fill="none" id="ManageLocalVSS-Preview_Local_Concert" style="stroke: #A80036; stroke-width: 1.0;"/><polygon fill="#A80036" points="318.8244,450.8918,328.4975,452.7441,323.6938,449.7567,326.6813,444.953,318.8244,450.8918" style="stroke: #A80036; stroke-width: 1.0;"/><!--link Preview_Local_Concert to ManageLocalVSS--><path d="M318.7996,455.5404 C412.9933,435.3292 560.4266,402.181 648.0462,381.527 " fill="none" id="Preview_Local_Concert-ManageLocalVSS" style="stroke: #A80036; stroke-width: 1.0;"/><polygon fill="#A80036" points="652.9508,380.3691,643.2725,378.544,648.0846,381.5179,645.1107,386.33,652.9508,380.3691" style="stroke: #A80036; stroke-width: 1.0;"/><!--link Preview_Local_Map to AdjustSensor_Map--><path d="M444.9442,498.2362 C423.4707,514.8656 398.1185,536.6897 380.0638,554.0284 " fill="none" id="Preview_Local_Map-AdjustSensor_Map" style="stroke: #A80036; stroke-width: 1.0;"/><polygon fill="#A80036" points="376.0974,557.8812,385.3401,554.4794,379.6838,554.3973,379.7659,548.7411,376.0974,557.8812" style="stroke: #A80036; stroke-width: 1.0;"/><!--link AdjustSensor_Map to Preview_Local_Map--><path d="M398.5455,557.8812 C420.135,541.2764 445.5049,519.454 463.479,502.0942 " fill="none" id="AdjustSensor_Map-Preview_Local_Map" style="stroke: #A80036; stroke-width: 1.0;"/><polygon fill="#A80036" points="467.4254,498.2362,458.1935,501.6673,463.85,501.7314,463.7859,507.3879,467.4254,498.2362" style="stroke: #A80036; stroke-width: 1.0;"/><!--link Preview_Local_Concert to AdjustSensor_Concert--><path d="M188.1911,498.2362 C164.7079,515.0053 136.7042,537.0569 116.7232,554.4645 " fill="none" id="Preview_Local_Concert-AdjustSensor_Concert" style="stroke: #A80036; stroke-width: 1.0;"/><polygon fill="#A80036" points="112.8376,557.8812,122.2377,554.942,116.5924,554.5795,116.9549,548.9343,112.8376,557.8812" style="stroke: #A80036; stroke-width: 1.0;"/><!--link AdjustSensor_Concert to Preview_Local_Concert--><path d="M135.2858,557.8812 C158.8833,541.1368 186.9039,519.0868 206.8043,501.6575 " fill="none" id="AdjustSensor_Concert-Preview_Local_Concert" style="stroke: #A80036; stroke-width: 1.0;"/><polygon fill="#A80036" points="210.6724,498.2362,201.2809,501.2028,206.9272,501.5488,206.5812,507.1951,210.6724,498.2362" style="stroke: #A80036; stroke-width: 1.0;"/><!--link AdjustSensor_Map to PlayMapModeVSS--><path d="M369.2416,608.2362 C376.5247,624.5861 386.0447,645.9576 393.7034,663.1504 " fill="none" id="AdjustSensor_Map-PlayMapModeVSS" style="stroke: #A80036; stroke-width: 1.0;"/><polygon fill="#A80036" points="395.8107,667.8812,395.8022,658.0323,393.776,663.3139,388.4945,661.2878,395.8107,667.8812" style="stroke: #A80036; stroke-width: 1.0;"/><!--link AdjustSensor_Concert to PlayConcertModeVSS--><path d="M112.4184,608.2362 C125.76,624.7258 143.2343,646.3233 157.2049,663.5903 " fill="none" id="AdjustSensor_Concert-PlayConcertModeVSS" style="stroke: #A80036; stroke-width: 1.0;"/><polygon fill="#A80036" points="160.6766,667.8812,158.1254,658.3685,157.5317,663.9941,151.906,663.4004,160.6766,667.8812" style="stroke: #A80036; stroke-width: 1.0;"/><!--link PlayMapModeVSS to Preview_Local_Map--><path d="M421.0359,667.9223 C429.9249,651.2989 441.1769,628.7986 449,608 C462.1844,572.9478 472.5599,531.0731 478.7191,503.3541 " fill="none" id="PlayMapModeVSS-Preview_Local_Map" style="stroke: #A80036; stroke-width: 1.0;"/><polygon fill="#A80036" points="479.8198,498.348,473.9805,506.2791,478.7461,503.2314,481.7938,507.997,479.8198,498.348" style="stroke: #A80036; stroke-width: 1.0;"/><!--link PlayConcertModeVSS to Preview_Local_Concert--><path d="M186.7455,667.7196 C196.0141,626.9378 214.228,546.7968 224.1546,503.1199 " fill="none" id="PlayConcertModeVSS-Preview_Local_Concert" style="stroke: #A80036; stroke-width: 1.0;"/><polygon fill="#A80036" points="225.2644,498.2368,219.3692,506.1265,224.1563,503.1125,227.1703,507.8995,225.2644,498.2368" style="stroke: #A80036; stroke-width: 1.0;"/><!--link ManageLocalVSS to BrowseOnlineVSS--><path d="M771.1608,388.0983 C812.53,405.8151 871.0187,429.4792 917.5299,447.3235 " fill="none" id="ManageLocalVSS-BrowseOnlineVSS" style="stroke: #A80036; stroke-width: 1.0;"/><polygon fill="#A80036" points="922.2784,449.1409,915.3028,442.1881,917.6087,447.3536,912.4432,449.6596,922.2784,449.1409" style="stroke: #A80036; stroke-width: 1.0;"/><!--link BrowseOnlineVSS to ManageLocalVSS--><path d="M941.4203,447.8758 C899.2741,429.765 839.1166,405.4493 791.9994,387.4864 " fill="none" id="BrowseOnlineVSS-ManageLocalVSS" style="stroke: #A80036; stroke-width: 1.0;"/><polygon fill="#A80036" points="787.1923,385.6587,794.1831,392.5962,791.8659,387.4357,797.0263,385.1184,787.1923,385.6587" style="stroke: #A80036; stroke-width: 1.0;"/><!--link BrowseOnlineVSS to Config--><path d="M989.5623,447.8653 C970.8245,371.9085 888.4701,144.9465 850.1291,62.9612 " fill="none" id="BrowseOnlineVSS-Config" style="stroke: #A80036; stroke-width: 1.0;"/><polygon fill="#A80036" points="847.8911,58.2367,848.1292,68.0827,850.0316,62.7553,855.359,64.6578,847.8911,58.2367" style="stroke: #A80036; stroke-width: 1.0;"/><!--link Config to BrowseOnlineVSS--><path d="M834.8359,58.2367 C854.1236,134.3285 936.4961,361.2931 974.3235,443.1486 " fill="none" id="Config-BrowseOnlineVSS" style="stroke: #A80036; stroke-width: 1.0;"/><polygon fill="#A80036" points="976.5303,447.8653,976.3392,438.0183,974.4113,443.3365,969.0931,441.4086,976.5303,447.8653" style="stroke: #A80036; stroke-width: 1.0;"/><!--link ManageLocalVSS to Config--><path d="M756.9988,337.7987 C772.1593,321.6668 787.5503,299.7475 797,278 C828.7935,204.8305 842.2306,110.8196 840.688,63.3369 " fill="none" id="ManageLocalVSS-Config" style="stroke: #A80036; stroke-width: 1.0;"/><polygon fill="#A80036" points="840.4599,58.335,836.8742,67.5079,840.6878,63.3298,844.8659,67.1434,840.4599,58.335" style="stroke: #A80036; stroke-width: 1.0;"/><!--link Config to ManageLocalVSS--><path d="M819.7689,58.335 C808.1855,103.9409 794.952,202.1644 762,278 C753.3624,297.8786 739.7608,317.9007 729.5729,333.5152 " fill="none" id="Config-ManageLocalVSS" style="stroke: #A80036; stroke-width: 1.0;"/><polygon fill="#A80036" points="726.7969,337.7987,735.0483,332.4216,729.5162,333.6028,728.3349,328.0707,726.7969,337.7987" style="stroke: #A80036; stroke-width: 1.0;"/><!--link BrowseOnlineVSS to Preview_Online_Concert--><path d="M992.3221,498.2362 C997.3694,514.5861 1006.7018,535.9576 1016.2209,553.1504 " fill="none" id="BrowseOnlineVSS-Preview_Online_Concert" style="stroke: #A80036; stroke-width: 1.0;"/><polygon fill="#A80036" points="1018.9073,557.8812,1017.9413,548.0798,1016.4382,553.5334,1010.9847,552.0303,1018.9073,557.8812" style="stroke: #A80036; stroke-width: 1.0;"/><!--link Preview_Online_Concert to BrowseOnlineVSS--><path d="M1041.3555,557.8812 C1036.4608,541.5554 1027.1508,520.186 1017.5237,502.9732 " fill="none" id="Preview_Online_Concert-BrowseOnlineVSS" style="stroke: #A80036; stroke-width: 1.0;"/><polygon fill="#A80036" points="1014.8034,498.2362,1015.8167,508.0328,1017.2934,502.5721,1022.7541,504.0488,1014.8034,498.2362" style="stroke: #A80036; stroke-width: 1.0;"/><!--link BrowseOnlineVSS to Preview_Online_Map--><path d="M1039.7383,498.0983 C1077.6713,515.351 1131.0696,538.2436 1174.5452,555.9095 " fill="none" id="BrowseOnlineVSS-Preview_Online_Map" style="stroke: #A80036; stroke-width: 1.0;"/><polygon fill="#A80036" points="1179.2568,557.8193,1172.4186,550.7314,1174.623,555.941,1169.4133,558.1455,1179.2568,557.8193" style="stroke: #A80036; stroke-width: 1.0;"/><!--link Preview_Online_Map to BrowseOnlineVSS--><path d="M1202.0043,557.9479 C1164.0514,540.6197 1110.3203,517.5857 1066.5793,499.875 " fill="none" id="Preview_Online_Map-BrowseOnlineVSS" style="stroke: #A80036; stroke-width: 1.0;"/><polygon fill="#A80036" points="1061.8389,497.9607,1068.6863,505.0398,1066.4751,499.833,1071.6819,497.6218,1061.8389,497.9607" style="stroke: #A80036; stroke-width: 1.0;"/><!--link ManageLocalVSS to CreateVSS--><path d="M709.0805,388.2362 C706.8638,404.4464 706.6604,425.5926 708.4703,442.7087 " fill="none" id="ManageLocalVSS-CreateVSS" style="stroke: #A80036; stroke-width: 1.0;"/><polygon fill="#A80036" points="709.0966,447.8812,711.9855,438.4656,708.4955,442.9175,704.0436,439.4274,709.0966,447.8812" style="stroke: #A80036; stroke-width: 1.0;"/><!--link CreateVSS to ManageLocalVSS--><path d="M731.5448,447.8812 C733.9022,431.695 734.1279,410.5509 732.2218,393.4155 " fill="none" id="CreateVSS-ManageLocalVSS" style="stroke: #A80036; stroke-width: 1.0;"/><polygon fill="#A80036" points="731.5618,388.2362,728.7317,397.6697,732.1939,393.1961,736.6675,396.6583,731.5618,388.2362" style="stroke: #A80036; stroke-width: 1.0;"/><!--link CreateVSS to CreateMapModeVSS--><path d="M696.3697,498.2362 C680.7986,514.8656 660.3633,536.6897 644.128,554.0284 " fill="none" id="CreateVSS-CreateMapModeVSS" style="stroke: #A80036; stroke-width: 1.0;"/><polygon fill="#A80036" points="640.5203,557.8812,649.5916,554.0456,643.9378,554.2314,643.752,548.5776,640.5203,557.8812" style="stroke: #A80036; stroke-width: 1.0;"/><!--link CreateMapModeVSS to ManageLocalVSS--><path d="M621.6887,557.8856 C627.5084,530.015 638.9331,484.1976 657,448 C666.982,428.0007 681.7091,407.8087 694.4148,392.126 " fill="none" id="CreateMapModeVSS-ManageLocalVSS" style="stroke: #A80036; stroke-width: 1.0;"/><polygon fill="#A80036" points="697.5974,388.2389,688.8009,392.6685,694.4299,392.1076,694.9908,397.7366,697.5974,388.2389" style="stroke: #A80036; stroke-width: 1.0;"/><!--link CreateVSS to CreateConcertModeVSS--><path d="M743.4009,498.2362 C758.8208,514.8656 779.0577,536.6897 795.1354,554.0284 " fill="none" id="CreateVSS-CreateConcertModeVSS" style="stroke: #A80036; stroke-width: 1.0;"/><polygon fill="#A80036" points="798.708,557.8812,795.5215,548.5621,795.3083,554.2149,789.6554,554.0016,798.708,557.8812" style="stroke: #A80036; stroke-width: 1.0;"/><!--link CreateConcertModeVSS to ManageLocalVSS--><path d="M817.2594,557.9114 C811.3938,530.0636 799.9286,484.2663 782,448 C772.2334,428.2438 757.9006,408.2287 745.4753,392.5874 " fill="none" id="CreateConcertModeVSS-ManageLocalVSS" style="stroke: #A80036; stroke-width: 1.0;"/><polygon fill="#A80036" points="742.0267,388.2956,744.5458,397.8168,745.1585,392.1933,750.7821,392.8059,742.0267,388.2956" style="stroke: #A80036; stroke-width: 1.0;"/><!--
@startuml
Config - -> Login

[*] - -> Login
Login - -> Register
Register - -> Login
Register - -> ManageLocalVSS
Login - -> ManageLocalVSS
ManageLocalVSS - -> Preview_Local_Map
ManageLocalVSS - -> Preview_Local_Concert
Preview_Local_Map - -> ManageLocalVSS
Preview_Local_Concert - -> ManageLocalVSS
Preview_Local_Map - -> AdjustSensor_Map
Preview_Local_Concert - -> AdjustSensor_Concert
AdjustSensor_Map - -> Preview_Local_Map
AdjustSensor_Concert - -> Preview_Local_Concert
AdjustSensor_Map - -> PlayMapModeVSS
AdjustSensor_Concert - -> PlayConcertModeVSS
PlayMapModeVSS - -> Preview_Local_Map
PlayConcertModeVSS - -> Preview_Local_Concert
ManageLocalVSS - -> BrowseOnlineVSS
BrowseOnlineVSS - -> ManageLocalVSS
BrowseOnlineVSS - -> Config
Config - -> BrowseOnlineVSS
ManageLocalVSS - -> Config
Config - -> ManageLocalVSS
BrowseOnlineVSS - -> Preview_Online_Concert
Preview_Online_Concert - -> BrowseOnlineVSS
BrowseOnlineVSS - -> Preview_Online_Map
Preview_Online_Map - -> BrowseOnlineVSS
ManageLocalVSS - -> CreateVSS
CreateVSS - -> ManageLocalVSS
CreateVSS - -> CreateMapModeVSS
CreateMapModeVSS - -> ManageLocalVSS
CreateVSS - -> CreateConcertModeVSS
CreateConcertModeVSS - -> ManageLocalVSS


@enduml

PlantUML version 1.2018.01(Mon Jan 29 02:08:22 CST 2018)
(GPL source distribution)
Java Runtime: Java(TM) SE Runtime Environment
JVM: Java HotSpot(TM) 64-Bit Server VM
Java Version: 9+181
Operating System: Mac OS X
OS Version: 10.12.6
Default Encoding: UTF-8
Language: zh
Country: CN
--></g></svg>