<?xml version="1.0" encoding="UTF-8" standalone="no"?><svg xmlns="http://www.w3.org/2000/svg" xmlns:xlink="http://www.w3.org/1999/xlink" contentScriptType="application/ecmascript" contentStyleType="text/css" height="549px" preserveAspectRatio="none" style="width:1250px;height:549px;" version="1.1" viewBox="0 0 1250 549"
    width="1250px" zoomAndPan="magnify"><defs><filter height="300%" id="f1b62sker1ai4s" width="300%" x="-1" y="-1"><feGaussianBlur result="blurOut" stdDeviation="2.0"/><feColorMatrix in="blurOut" result="blurOut2" type="matrix" values="0 0 0 0 0 0 0 0 0 0 0 0 0 0 0 0 0 0 .4 0"/><feOffset dx="4.0" dy="4.0" in="blurOut2" result="blurOut3"/><feBlend in="SourceGraphic" in2="blurOut3" mode="normal"/></filter></defs><g><ellipse cx="497.44" cy="173.588" fill="#FEFECE" filter="url(#f1b62sker1ai4s)" rx="93.44" ry="21.088" style="stroke: #A80036; stroke-width: 1.5;"/><text fill="#000000" font-family="sans-serif" font-size="14" lengthAdjust="spacingAndGlyphs" textLength="161" x="416.94" y="178.3321">ManageLocalVSSLibrary</text><ellipse cx="764.3701" cy="287.659" fill="#FEFECE" filter="url(#f1b62sker1ai4s)" rx="29.8701" ry="14.659" style="stroke: #A80036; stroke-width: 1.5;"/><text fill="#000000" font-family="sans-serif" font-size="14" lengthAdjust="spacingAndGlyphs" textLength="38" x="745.3701" y="292.4031">Login</text><ellipse cx="893.6723" cy="173.5345" fill="#FEFECE" filter="url(#f1b62sker1ai4s)" rx="95.6723" ry="21.5345" style="stroke: #A80036; stroke-width: 1.5;"/><text fill="#000000" font-family="sans-serif" font-size="14" lengthAdjust="spacingAndGlyphs" textLength="166" x="810.6723" y="178.2786">BrowseOnlineVSSLibrary</text><!--entity User--><ellipse cx="893.5" cy="18" fill="#FEFECE" filter="url(#f1b62sker1ai4s)" rx="8" ry="8" style="stroke: #A80036; stroke-width: 2.0;"/><path d="M893.5,26 L893.5,53 M880.5,34 L906.5,34 M893.5,53 L880.5,68 M893.5,53 L906.5,68 " fill="none" filter="url(#f1b62sker1ai4s)" style="stroke: #A80036; stroke-width: 2.0;"/><text fill="#000000" font-family="sans-serif" font-size="14" lengthAdjust="spacingAndGlyphs" textLength="31" x="878" y="88.5352">User</text><ellipse cx="1066.598" cy="173.659" fill="#FEFECE" filter="url(#f1b62sker1ai4s)" rx="42.598" ry="14.659" style="stroke: #A80036; stroke-width: 1.5;"/><text fill="#000000" font-family="sans-serif" font-size="14" lengthAdjust="spacingAndGlyphs" textLength="56" x="1038.598" y="178.4031">Register</text><ellipse cx="204.4975" cy="287.659" fill="#FEFECE" filter="url(#f1b62sker1ai4s)" rx="52.4975" ry="14.659" style="stroke: #A80036; stroke-width: 1.5;"/><text fill="#000000" font-family="sans-serif" font-size="14" lengthAdjust="spacingAndGlyphs" textLength="70" x="169.4975" y="292.4031">CreateVSS</text><ellipse cx="98.4462" cy="400.9892" fill="#FEFECE" filter="url(#f1b62sker1ai4s)" rx="82.9462" ry="18.9892" style="stroke: #A80036; stroke-width: 1.5;"/><text fill="#000000" font-family="sans-serif" font-size="14" lengthAdjust="spacingAndGlyphs" textLength="137" x="29.9462" y="405.7334">CreateMapModeVSS</text><ellipse cx="310.3853" cy="401.1771" fill="#FEFECE" filter="url(#f1b62sker1ai4s)" rx="93.8853" ry="21.1771" style="stroke: #A80036; stroke-width: 1.5;"/><text fill="#000000" font-family="sans-serif" font-size="14" lengthAdjust="spacingAndGlyphs" textLength="162" x="229.3853" y="405.9212">CreateConcertModeVSS</text><ellipse cx="351.5685" cy="287.659" fill="#FEFECE" filter="url(#f1b62sker1ai4s)" rx="59.5685" ry="14.659" style="stroke: #A80036; stroke-width: 1.5;"/><text fill="#000000" font-family="sans-serif" font-size="14" lengthAdjust="spacingAndGlyphs" textLength="80" x="311.5685" y="292.4031">RenameVSS</text><ellipse cx="497.5833" cy="287.659" fill="#FEFECE" filter="url(#f1b62sker1ai4s)" rx="51.0833" ry="14.659" style="stroke: #A80036; stroke-width: 1.5;"/><text fill="#000000" font-family="sans-serif" font-size="14" lengthAdjust="spacingAndGlyphs" textLength="68" x="463.5833" y="292.4031">DeleteVSS</text><ellipse cx="61.3259" cy="287.659" fill="#FEFECE" filter="url(#f1b62sker1ai4s)" rx="55.3259" ry="14.659" style="stroke: #A80036; stroke-width: 1.5;"/><text fill="#000000" font-family="sans-serif" font-size="14" lengthAdjust="spacingAndGlyphs" textLength="74" x="24.3259" y="292.4031">UploadVSS</text><ellipse cx="1034.2696" cy="287.659" fill="#FEFECE" filter="url(#f1b62sker1ai4s)" rx="39.7696" ry="14.659" style="stroke: #A80036; stroke-width: 1.5;"/><text fill="#000000" font-family="sans-serif" font-size="14" lengthAdjust="spacingAndGlyphs" textLength="52" x="1008.2696" y="292.4031">LikeVSS</text><ellipse cx="805.2696" cy="401.159" fill="#FEFECE" filter="url(#f1b62sker1ai4s)" rx="39.7696" ry="14.659" style="stroke: #A80036; stroke-width: 1.5;"/><text fill="#000000" font-family="sans-serif" font-size="14" lengthAdjust="spacingAndGlyphs" textLength="52" x="779.2696" y="405.9031">PlayVSS</text><ellipse cx="706.3837" cy="518.4767" fill="#FEFECE" filter="url(#f1b62sker1ai4s)" rx="75.3837" ry="17.4767" style="stroke: #A80036; stroke-width: 1.5;"/><text fill="#000000" font-family="sans-serif" font-size="14" lengthAdjust="spacingAndGlyphs" textLength="119" x="646.8837" y="523.2209">PlayMapModeVSS</text><ellipse cx="903.4647" cy="518.5929" fill="#FEFECE" filter="url(#f1b62sker1ai4s)" rx="85.9647" ry="19.5929" style="stroke: #A80036; stroke-width: 1.5;"/><text fill="#000000" font-family="sans-serif" font-size="14" lengthAdjust="spacingAndGlyphs" textLength="144" x="831.4647" y="523.3371">PlayConcertModeVSS</text><ellipse cx="1174.2669" cy="287.3534" fill="#FEFECE" filter="url(#f1b62sker1ai4s)" rx="64.7669" ry="15.3534" style="stroke: #A80036; stroke-width: 1.5;"/><text fill="#000000" font-family="sans-serif" font-size="14" lengthAdjust="spacingAndGlyphs" textLength="92" x="1128.2669" y="292.0975">CommentVSS</text><ellipse cx="894.3954" cy="287.2791" fill="#FEFECE" filter="url(#f1b62sker1ai4s)" rx="64.3954" ry="15.2791" style="stroke: #A80036; stroke-width: 1.5;"/><text fill="#000000" font-family="sans-serif" font-size="14" lengthAdjust="spacingAndGlyphs" textLength="91" x="848.8954" y="292.0232">AdjustSensor</text><ellipse cx="641.4472" cy="287.659" fill="#FEFECE" filter="url(#f1b62sker1ai4s)" rx="57.4472" ry="14.659" style="stroke: #A80036; stroke-width: 1.5;"/><text fill="#000000" font-family="sans-serif" font-size="14" lengthAdjust="spacingAndGlyphs" textLength="77" x="602.9472" y="292.4031">PreviewVSS</text><!--link ManageLocalVSSLibrary to Login--><path d="M558.6899,191.8227 C586.5024,200.7963 619.5822,212.3818 648.5,225 C683.9341,240.4616 723.1376,262.7469 745.6914,276.1083 " fill="none" id="ManageLocalVSSLibrary-Login" style="stroke: #A80036; stroke-width: 1.0; stroke-dasharray: 7.0,7.0;"/><polygon fill="#A80036" points="553.9177,190.2919,561.2657,196.8499,558.6787,191.8192,563.7094,189.2322,553.9177,190.2919" style="stroke: #A80036; stroke-width: 1.0;"/><text fill="#000000" font-family="sans-serif" font-size="13" lengthAdjust="spacingAndGlyphs" textLength="57" x="681.5" y="238.5684">«extend»</text><!--link BrowseOnlineVSSLibrary to Login--><path d="M883.0303,199.729 C876.4621,213.6303 866.8797,230.2183 854.5,242 C835.9832,259.6224 809.314,271.9434 789.814,279.2781 " fill="none" id="BrowseOnlineVSSLibrary-Login" style="stroke: #A80036; stroke-width: 1.0; stroke-dasharray: 7.0,7.0;"/><polygon fill="#A80036" points="885.1419,195.1285,877.752,201.6393,883.056,199.6726,885.0227,204.9766,885.1419,195.1285" style="stroke: #A80036; stroke-width: 1.0;"/><text fill="#000000" font-family="sans-serif" font-size="13" lengthAdjust="spacingAndGlyphs" textLength="57" x="868.5" y="238.5684">«extend»</text><!--link User to Register--><path d="M909.1577,60.7229 C939.9292,82.7787 1008.3828,131.8437 1043.9954,157.3695 " fill="none" id="User-Register" style="stroke: #A80036; stroke-width: 1.0;"/><polygon fill="#A80036" points="1048.1708,160.3623,1043.1861,151.868,1044.1069,157.4494,1038.5255,158.3702,1048.1708,160.3623" style="stroke: #A80036; stroke-width: 1.0;"/><!--link User to ManageLocalVSSLibrary--><path d="M877.9763,54.3609 C825.0842,70.9231 650.0433,125.7339 556.9447,154.886 " fill="none" id="User-ManageLocalVSSLibrary" style="stroke: #A80036; stroke-width: 1.0;"/><polygon fill="#A80036" points="552.0272,156.4258,561.8113,157.5536,556.7987,154.9317,559.4207,149.9191,552.0272,156.4258" style="stroke: #A80036; stroke-width: 1.0;"/><!--link User to BrowseOnlineVSSLibrary--><path d="M893.5,91.1352 C893.5,109.4667 893.5,130.4703 893.5,146.6793 " fill="none" id="User-BrowseOnlineVSSLibrary" style="stroke: #A80036; stroke-width: 1.0;"/><polygon fill="#A80036" points="893.5,151.9816,897.5,142.9816,893.5,146.9816,889.5,142.9816,893.5,151.9816" style="stroke: #A80036; stroke-width: 1.0;"/><!--link ManageLocalVSSLibrary to CreateVSS--><path d="M435.1643,191.7396 C405.5721,200.8925 369.8955,212.6481 338.5,225 C299.802,240.225 256.4206,261.2091 229.7799,274.5665 " fill="none" id="ManageLocalVSSLibrary-CreateVSS" style="stroke: #A80036; stroke-width: 1.0; stroke-dasharray: 7.0,7.0;"/><polygon fill="#A80036" points="440.237,190.1776,430.4584,189.0036,435.4585,191.6492,432.8129,196.6493,440.237,190.1776" style="stroke: #A80036; stroke-width: 1.0;"/><text fill="#000000" font-family="sans-serif" font-size="13" lengthAdjust="spacingAndGlyphs" textLength="57" x="339.5" y="238.5684">«extend»</text><!--link CreateVSS to CreateMapModeVSS--><path d="M177.1809,316.7521 C157.9122,337.3841 132.6713,364.4109 116.039,382.22 " fill="none" id="CreateVSS-CreateMapModeVSS" style="stroke: #A80036; stroke-width: 1.0;"/><polygon fill="none" points="172.3081,311.7139,191.075,301.8749,182.5399,321.2695,172.3081,311.7139" style="stroke: #A80036; stroke-width: 1.0;"/><!--link CreateVSS to CreateConcertModeVSS--><path d="M231.6453,316.5659 C250.2231,336.4582 274.4142,362.361 291.0772,380.203 " fill="none" id="CreateVSS-CreateConcertModeVSS" style="stroke: #A80036; stroke-width: 1.0;"/><polygon fill="none" points="226.4601,321.2695,217.925,301.8749,236.6919,311.7139,226.4601,321.2695" style="stroke: #A80036; stroke-width: 1.0;"/><!--link ManageLocalVSSLibrary to RenameVSS--><path d="M464.4744,196.7544 C452.3946,205.443 438.7031,215.5068 426.5,225 C405.7641,241.1311 382.6437,260.6405 367.6278,273.5237 " fill="none" id="ManageLocalVSSLibrary-RenameVSS" style="stroke: #A80036; stroke-width: 1.0; stroke-dasharray: 7.0,7.0;"/><polygon fill="#A80036" points="468.8462,193.6191,459.2014,195.6138,464.7831,196.5331,463.8638,202.1147,468.8462,193.6191" style="stroke: #A80036; stroke-width: 1.0;"/><text fill="#000000" font-family="sans-serif" font-size="13" lengthAdjust="spacingAndGlyphs" textLength="57" x="427.5" y="238.5684">«extend»</text><!--link ManageLocalVSSLibrary to DeleteVSS--><path d="M495.3893,200.0471 C494.6226,212.7414 494.0441,228.1545 494.5,242 C494.8387,252.2858 495.6071,263.8583 496.2813,272.7583 " fill="none" id="ManageLocalVSSLibrary-DeleteVSS" style="stroke: #A80036; stroke-width: 1.0; stroke-dasharray: 7.0,7.0;"/><polygon fill="#A80036" points="495.727,194.7857,491.1587,203.511,495.4067,199.7754,499.1423,204.0234,495.727,194.7857" style="stroke: #A80036; stroke-width: 1.0;"/><text fill="#000000" font-family="sans-serif" font-size="13" lengthAdjust="spacingAndGlyphs" textLength="57" x="495.5" y="238.5684">«extend»</text><!--link ManageLocalVSSLibrary to UploadVSS--><path d="M415.2429,186.2691 C363.0056,195.1967 294.2295,208.4677 234.5,225 C183.2555,239.1838 125.4885,261.3555 91.3602,275.1248 " fill="none" id="ManageLocalVSSLibrary-UploadVSS" style="stroke: #A80036; stroke-width: 1.0; stroke-dasharray: 7.0,7.0;"/><polygon fill="#A80036" points="420.2456,185.4187,410.7025,182.9837,415.3163,186.2567,412.0433,190.8705,420.2456,185.4187" style="stroke: #A80036; stroke-width: 1.0;"/><text fill="#000000" font-family="sans-serif" font-size="13" lengthAdjust="spacingAndGlyphs" textLength="57" x="235.5" y="238.5684">«extend»</text><!--link BrowseOnlineVSSLibrary to LikeVSS--><path d="M923.516,197.7682 C952.3735,221.0998 994.9196,255.4988 1018.0539,274.2031 " fill="none" id="BrowseOnlineVSSLibrary-LikeVSS" style="stroke: #A80036; stroke-width: 1.0; stroke-dasharray: 7.0,7.0;"/><polygon fill="#A80036" points="919.3616,194.4094,923.8456,203.1783,923.2498,197.5529,928.8752,196.9572,919.3616,194.4094" style="stroke: #A80036; stroke-width: 1.0;"/><text fill="#000000" font-family="sans-serif" font-size="13" lengthAdjust="spacingAndGlyphs" textLength="57" x="977.5" y="238.5684">«extend»</text><!--link PlayVSS to PlayMapModeVSS--><path d="M793.7546,414.9402 C776.6147,435.283 744.6059,473.2733 724.4867,497.1522 " fill="none" id="PlayVSS-PlayMapModeVSS" style="stroke: #A80036; stroke-width: 1.0; stroke-dasharray: 7.0,7.0;"/><polygon fill="#A80036" points="721.1194,501.1486,729.9773,496.8431,724.341,497.3248,723.8593,491.6885,721.1194,501.1486" style="stroke: #A80036; stroke-width: 1.0;"/><text fill="#000000" font-family="sans-serif" font-size="13" lengthAdjust="spacingAndGlyphs" textLength="60" x="762.5" y="465.5684">«include»</text><!--link PlayVSS to PlayConcertModeVSS--><path d="M817.1267,414.9402 C833.6142,434.7084 864.0006,471.141 883.9796,495.0955 " fill="none" id="PlayVSS-PlayConcertModeVSS" style="stroke: #A80036; stroke-width: 1.0; stroke-dasharray: 7.0,7.0;"/><polygon fill="#A80036" points="887.3379,499.122,884.6452,489.6484,884.1354,495.2822,878.5016,494.7724,887.3379,499.122" style="stroke: #A80036; stroke-width: 1.0;"/><text fill="#000000" font-family="sans-serif" font-size="13" lengthAdjust="spacingAndGlyphs" textLength="60" x="860.5" y="465.5684">«include»</text><!--link BrowseOnlineVSSLibrary to CommentVSS--><path d="M954.3432,192.6325 C981.8442,201.7281 1014.5868,213.1846 1043.5,225 C1080.1224,239.9658 1121.096,260.0822 1147.3097,273.4029 " fill="none" id="BrowseOnlineVSSLibrary-CommentVSS" style="stroke: #A80036; stroke-width: 1.0; stroke-dasharray: 7.0,7.0;"/><polygon fill="#A80036" points="949.2713,190.9621,956.5683,197.5768,954.0203,192.5263,959.0709,189.9783,949.2713,190.9621" style="stroke: #A80036; stroke-width: 1.0;"/><text fill="#000000" font-family="sans-serif" font-size="13" lengthAdjust="spacingAndGlyphs" textLength="57" x="1080.5" y="238.5684">«extend»</text><!--link AdjustSensor to PlayVSS--><path d="M879.3009,306.8831 C861.4467,329.6522 832.2648,366.8674 816.4759,387.0027 " fill="none" id="AdjustSensor-PlayVSS" style="stroke: #A80036; stroke-width: 1.0; stroke-dasharray: 7.0,7.0;"/><polygon fill="#A80036" points="882.4971,302.8071,873.796,307.4213,879.4119,306.7417,880.0914,312.3576,882.4971,302.8071" style="stroke: #A80036; stroke-width: 1.0;"/><text fill="#000000" font-family="sans-serif" font-size="13" lengthAdjust="spacingAndGlyphs" textLength="60" x="858.5" y="346.5684">«include»</text><!--link ManageLocalVSSLibrary to PreviewVSS--><path d="M527.4272,197.1924 C556.4978,220.2066 599.6645,254.3802 623.7006,273.4088 " fill="none" id="ManageLocalVSSLibrary-PreviewVSS" style="stroke: #A80036; stroke-width: 1.0; stroke-dasharray: 7.0,7.0;"/><polygon fill="#A80036" points="523.2443,193.8809,527.8179,202.6034,527.1645,196.9844,532.7835,196.3311,523.2443,193.8809" style="stroke: #A80036; stroke-width: 1.0;"/><text fill="#000000" font-family="sans-serif" font-size="13" lengthAdjust="spacingAndGlyphs" textLength="57" x="582.5" y="238.5684">«extend»</text><!--link BrowseOnlineVSSLibrary to PreviewVSS--><path d="M847.8563,195.2314 C829.084,204.2844 807.172,214.9999 787.5,225 C773.1438,232.2978 770.1113,235.2274 755.5,242 C728.626,254.4567 697.3265,266.8003 674.3303,275.4812 " fill="none" id="BrowseOnlineVSSLibrary-PreviewVSS" style="stroke: #A80036; stroke-width: 1.0; stroke-dasharray: 7.0,7.0;"/><polygon fill="#A80036" points="852.558,192.9671,842.7138,193.2686,848.0532,195.1367,846.1851,200.4762,852.558,192.9671" style="stroke: #A80036; stroke-width: 1.0;"/><text fill="#000000" font-family="sans-serif" font-size="13" lengthAdjust="spacingAndGlyphs" textLength="57" x="788.5" y="238.5684">«extend»</text><!--link PreviewVSS to PlayVSS--><path d="M661.2822,301.1908 C691.857,322.3507 750.4277,362.886 782.7245,385.2377 " fill="none" id="PreviewVSS-PlayVSS" style="stroke: #A80036; stroke-width: 1.0; stroke-dasharray: 7.0,7.0;"/><polygon fill="#A80036" points="786.9109,388.135,781.7867,379.7241,782.7995,385.2896,777.234,386.3024,786.9109,388.135" style="stroke: #A80036; stroke-width: 1.0;"/><text fill="#000000" font-family="sans-serif" font-size="13" lengthAdjust="spacingAndGlyphs" textLength="60" x="728.5" y="346.5684">«include»</text><!--
@startuml
(ManageLocalVSSLibrary) <.. (Login): <<extend>>
(BrowseOnlineVSSLibrary) <.. (Login): <<extend>>

User - -> (Register)
User - -> (ManageLocalVSSLibrary)
User - -> (BrowseOnlineVSSLibrary)

(ManageLocalVSSLibrary) <.. (CreateVSS): <<extend>>
(CreateVSS) <|- - (CreateMapModeVSS)
(CreateVSS) <|- - (CreateConcertModeVSS)
(ManageLocalVSSLibrary) <.. (RenameVSS): <<extend>>
(ManageLocalVSSLibrary) <.. (DeleteVSS): <<extend>>
(ManageLocalVSSLibrary) <.. (UploadVSS): <<extend>>
(BrowseOnlineVSSLibrary) <.. (LikeVSS): <<extend>>
(PlayVSS) ..> (PlayMapModeVSS): <<include>>
(PlayVSS) ..> (PlayConcertModeVSS): <<include>>
(BrowseOnlineVSSLibrary) <.. (CommentVSS): <<extend>>

(AdjustSensor) <.. (PlayVSS): <<include>>

(ManageLocalVSSLibrary) <.. (PreviewVSS): <<extend>>
(BrowseOnlineVSSLibrary) <.. (PreviewVSS): <<extend>>

(PreviewVSS) ..> (PlayVSS): <<include>>

@enduml

PlantUML version 1.2018.01(Mon Jan 29 02:08:22 CST 2018)
(GPL source distribution)
Java Runtime: Java(TM) SE Runtime Environment
JVM: Java HotSpot(TM) 64-Bit Server VM
Java Version: 9+181
Operating System: Mac OS X
OS Version: 10.12.6
Default Encoding: UTF-8
Language: zh
Country: CN
--></g></svg>