<?xml version="1.0" encoding="UTF-8" standalone="no"?><svg xmlns="http://www.w3.org/2000/svg" xmlns:xlink="http://www.w3.org/1999/xlink" contentScriptType="application/ecmascript" contentStyleType="text/css" height="676px" preserveAspectRatio="none" style="width:772px;height:676px;" version="1.1" viewBox="0 0 772 676"
    width="772px" zoomAndPan="magnify"><defs><filter height="300%" id="f10ca3lneuqjjv" width="300%" x="-1" y="-1"><feGaussianBlur result="blurOut" stdDeviation="2.0"/><feColorMatrix in="blurOut" result="blurOut2" type="matrix" values="0 0 0 0 0 0 0 0 0 0 0 0 0 0 0 0 0 0 .4 0"/><feOffset dx="4.0" dy="4.0" in="blurOut2" result="blurOut3"/><feBlend in="SourceGraphic" in2="blurOut3" mode="normal"/></filter></defs><g><!--cluster Social Classes--><polygon fill="#FFFF00" filter="url(#f10ca3lneuqjjv)" points="477.5,327,585.5,327,592.5,349.4883,750.5,349.4883,750.5,436,477.5,436,477.5,327" style="stroke: #000000; stroke-width: 1.5;"/><line style="stroke: #000000; stroke-width: 1.5;" x1="477.5" x2="592.5" y1="349.4883" y2="349.4883"/><text fill="#000000" font-family="sans-serif" font-size="14" font-weight="bold" lengthAdjust="spacingAndGlyphs" textLength="102" x="481.5" y="342.5352">Social Classes</text><!--class Comment--><rect fill="#FEFECE" filter="url(#f10ca3lneuqjjv)" height="73.9102" id="Comment" style="stroke: #A80036; stroke-width: 1.5;" width="121" x="621" y="354"/><ellipse cx="651.3" cy="370" fill="#ADD1B2" rx="11" ry="11" style="stroke: #A80036; stroke-width: 1.0;"/><path d="M654.2731,375.6431 Q653.6921,375.9419 653.0529,376.0913 Q652.4138,376.2407 651.7082,376.2407 Q649.2014,376.2407 647.8815,374.5889 Q646.5617,372.937 646.5617,369.8159 Q646.5617,366.6865 647.8815,365.0347 Q649.2014,363.3828 651.7082,363.3828 Q652.4138,363.3828 653.0612,363.5322 Q653.7087,363.6816 654.2731,363.9805 L654.2731,366.7031 Q653.6423,366.1221 653.0488,365.8523 Q652.4553,365.5825 651.8244,365.5825 Q650.4797,365.5825 649.7949,366.6492 Q649.1101,367.7158 649.1101,369.8159 Q649.1101,371.9077 649.7949,372.9744 Q650.4797,374.041 651.8244,374.041 Q652.4553,374.041 653.0488,373.7712 Q653.6423,373.5015 654.2731,372.9204 Z "/><text fill="#000000" font-family="sans-serif" font-size="12" lengthAdjust="spacingAndGlyphs" textLength="55" x="668.7" y="374.5352">Comment</text><line style="stroke: #A80036; stroke-width: 1.5;" x1="622" x2="741" y1="386" y2="386"/><rect fill="none" height="6" style="stroke: #C82930; stroke-width: 1.0;" width="6" x="629" y="394.9775"/><text fill="#000000" font-family="sans-serif" font-size="11" lengthAdjust="spacingAndGlyphs" textLength="95" x="641" y="400.6348">commenterID : int</text><rect fill="none" height="6" style="stroke: #C82930; stroke-width: 1.0;" width="6" x="629" y="407.9326"/><text fill="#000000" font-family="sans-serif" font-size="11" lengthAdjust="spacingAndGlyphs" textLength="91" x="641" y="413.5898">comment : String</text><line style="stroke: #A80036; stroke-width: 1.5;" x1="622" x2="741" y1="419.9102" y2="419.9102"/><!--class Like--><rect fill="#FEFECE" filter="url(#f10ca3lneuqjjv)" height="73.9102" id="Like" style="stroke: #A80036; stroke-width: 1.5;" width="100" x="485.5" y="354"/><ellipse cx="520.75" cy="370" fill="#ADD1B2" rx="11" ry="11" style="stroke: #A80036; stroke-width: 1.0;"/><path d="M523.7231,375.6431 Q523.1421,375.9419 522.5029,376.0913 Q521.8638,376.2407 521.1582,376.2407 Q518.6514,376.2407 517.3315,374.5889 Q516.0117,372.937 516.0117,369.8159 Q516.0117,366.6865 517.3315,365.0347 Q518.6514,363.3828 521.1582,363.3828 Q521.8638,363.3828 522.5112,363.5322 Q523.1587,363.6816 523.7231,363.9805 L523.7231,366.7031 Q523.0923,366.1221 522.4988,365.8523 Q521.9053,365.5825 521.2744,365.5825 Q519.9297,365.5825 519.2449,366.6492 Q518.5601,367.7158 518.5601,369.8159 Q518.5601,371.9077 519.2449,372.9744 Q519.9297,374.041 521.2744,374.041 Q521.9053,374.041 522.4988,373.7712 Q523.0923,373.5015 523.7231,372.9204 Z "/><text fill="#000000" font-family="sans-serif" font-size="12" lengthAdjust="spacingAndGlyphs" textLength="23" x="539.25" y="374.5352">Like</text><line style="stroke: #A80036; stroke-width: 1.5;" x1="486.5" x2="584.5" y1="386" y2="386"/><rect fill="none" height="6" style="stroke: #C82930; stroke-width: 1.0;" width="6" x="493.5" y="394.9775"/><text fill="#000000" font-family="sans-serif" font-size="11" lengthAdjust="spacingAndGlyphs" textLength="68" x="505.5" y="400.6348">likerIDs : List</text><rect fill="none" height="6" style="stroke: #C82930; stroke-width: 1.0;" width="6" x="493.5" y="407.9326"/><text fill="#000000" font-family="sans-serif" font-size="11" lengthAdjust="spacingAndGlyphs" textLength="74" x="505.5" y="413.5898">likeCount : int</text><line style="stroke: #A80036; stroke-width: 1.5;" x1="486.5" x2="584.5" y1="419.9102" y2="419.9102"/><!--class User--><rect fill="#FEFECE" filter="url(#f10ca3lneuqjjv)" height="112.7754" id="User" style="stroke: #A80036; stroke-width: 1.5;" width="120" x="379.5" y="8"/><ellipse cx="422.4" cy="24" fill="#ADD1B2" rx="11" ry="11" style="stroke: #A80036; stroke-width: 1.0;"/><path d="M425.3731,29.6431 Q424.7921,29.9419 424.1529,30.0913 Q423.5138,30.2407 422.8082,30.2407 Q420.3014,30.2407 418.9815,28.5889 Q417.6617,26.937 417.6617,23.8159 Q417.6617,20.6865 418.9815,19.0347 Q420.3014,17.3828 422.8082,17.3828 Q423.5138,17.3828 424.1612,17.5322 Q424.8087,17.6816 425.3731,17.9805 L425.3731,20.7031 Q424.7423,20.1221 424.1488,19.8523 Q423.5553,19.5825 422.9244,19.5825 Q421.5797,19.5825 420.8949,20.6492 Q420.2101,21.7158 420.2101,23.8159 Q420.2101,25.9077 420.8949,26.9744 Q421.5797,28.041 422.9244,28.041 Q423.5553,28.041 424.1488,27.7712 Q424.7423,27.5015 425.3731,26.9204 Z "/><text fill="#000000" font-family="sans-serif" font-size="12" lengthAdjust="spacingAndGlyphs" textLength="26" x="442.6" y="28.5352">User</text><line style="stroke: #A80036; stroke-width: 1.5;" x1="380.5" x2="498.5" y1="40" y2="40"/><rect fill="none" height="6" style="stroke: #C82930; stroke-width: 1.0;" width="6" x="387.5" y="48.9775"/><text fill="#000000" font-family="sans-serif" font-size="11" lengthAdjust="spacingAndGlyphs" textLength="58" x="399.5" y="54.6348">userID : int</text><rect fill="none" height="6" style="stroke: #C82930; stroke-width: 1.0;" width="6" x="387.5" y="61.9326"/><text fill="#000000" font-family="sans-serif" font-size="11" lengthAdjust="spacingAndGlyphs" textLength="94" x="399.5" y="67.5898">username : String</text><rect fill="none" height="6" style="stroke: #C82930; stroke-width: 1.0;" width="6" x="387.5" y="74.8877"/><text fill="#000000" font-family="sans-serif" font-size="11" lengthAdjust="spacingAndGlyphs" textLength="93" x="399.5" y="80.5449">password : String</text><rect fill="none" height="6" style="stroke: #C82930; stroke-width: 1.0;" width="6" x="387.5" y="87.8428"/><text fill="#000000" font-family="sans-serif" font-size="11" lengthAdjust="spacingAndGlyphs" textLength="75" x="399.5" y="93.5">e-mail : String</text><rect fill="none" height="6" style="stroke: #C82930; stroke-width: 1.0;" width="6" x="387.5" y="100.7979"/><text fill="#000000" font-family="sans-serif" font-size="11" lengthAdjust="spacingAndGlyphs" textLength="58" x="399.5" y="106.4551">userProfile</text><line style="stroke: #A80036; stroke-width: 1.5;" x1="380.5" x2="498.5" y1="112.7754" y2="112.7754"/><!--class SoundSource--><rect fill="#FEFECE" filter="url(#f10ca3lneuqjjv)" height="151.6406" id="SoundSource" style="stroke: #A80036; stroke-width: 1.5;" width="160" x="143.5" y="514"/><ellipse cx="183.25" cy="530" fill="#ADD1B2" rx="11" ry="11" style="stroke: #A80036; stroke-width: 1.0;"/><path d="M186.2231,535.6431 Q185.6421,535.9419 185.0029,536.0913 Q184.3638,536.2407 183.6582,536.2407 Q181.1514,536.2407 179.8315,534.5889 Q178.5117,532.937 178.5117,529.8159 Q178.5117,526.6865 179.8315,525.0347 Q181.1514,523.3828 183.6582,523.3828 Q184.3638,523.3828 185.0112,523.5322 Q185.6587,523.6816 186.2231,523.9805 L186.2231,526.7031 Q185.5923,526.1221 184.9988,525.8523 Q184.4053,525.5825 183.7744,525.5825 Q182.4297,525.5825 181.7449,526.6492 Q181.0601,527.7158 181.0601,529.8159 Q181.0601,531.9077 181.7449,532.9744 Q182.4297,534.041 183.7744,534.041 Q184.4053,534.041 184.9988,533.7712 Q185.5923,533.5015 186.2231,532.9204 Z "/><text fill="#000000" font-family="sans-serif" font-size="12" lengthAdjust="spacingAndGlyphs" textLength="73" x="202.75" y="534.5352">SoundSource</text><line style="stroke: #A80036; stroke-width: 1.5;" x1="144.5" x2="302.5" y1="546" y2="546"/><rect fill="none" height="6" style="stroke: #C82930; stroke-width: 1.0;" width="6" x="151.5" y="554.9775"/><text fill="#000000" font-family="sans-serif" font-size="11" lengthAdjust="spacingAndGlyphs" textLength="105" x="163.5" y="560.6348">soundSourceID : int</text><rect fill="none" height="6" style="stroke: #C82930; stroke-width: 1.0;" width="6" x="151.5" y="567.9326"/><text fill="#000000" font-family="sans-serif" font-size="11" lengthAdjust="spacingAndGlyphs" textLength="85" x="163.5" y="573.5898">soundFragment</text><rect fill="none" height="6" style="stroke: #C82930; stroke-width: 1.0;" width="6" x="151.5" y="580.8877"/><text fill="#000000" font-family="sans-serif" font-size="11" lengthAdjust="spacingAndGlyphs" textLength="123" x="163.5" y="586.5449">soundLatitude : double</text><rect fill="none" height="6" style="stroke: #C82930; stroke-width: 1.0;" width="6" x="151.5" y="593.8428"/><text fill="#000000" font-family="sans-serif" font-size="11" lengthAdjust="spacingAndGlyphs" textLength="134" x="163.5" y="599.5">soundLongitude : double</text><rect fill="none" height="6" style="stroke: #C82930; stroke-width: 1.0;" width="6" x="151.5" y="606.7979"/><text fill="#000000" font-family="sans-serif" font-size="11" lengthAdjust="spacingAndGlyphs" textLength="122" x="163.5" y="612.4551">soundAltitude : double</text><rect fill="none" height="6" style="stroke: #C82930; stroke-width: 1.0;" width="6" x="151.5" y="619.7529"/><text fill="#000000" font-family="sans-serif" font-size="11" lengthAdjust="spacingAndGlyphs" textLength="74" x="163.5" y="625.4102">soundVolume</text><rect fill="none" height="6" style="stroke: #C82930; stroke-width: 1.0;" width="6" x="151.5" y="632.708"/><text fill="#000000" font-family="sans-serif" font-size="11" lengthAdjust="spacingAndGlyphs" textLength="113" x="163.5" y="638.3652">soundPattern : String</text><rect fill="none" height="6" style="stroke: #C82930; stroke-width: 1.0;" width="6" x="151.5" y="645.6631"/><text fill="#000000" font-family="sans-serif" font-size="11" lengthAdjust="spacingAndGlyphs" textLength="105" x="163.5" y="651.3203">soundName : String</text><line style="stroke: #A80036; stroke-width: 1.5;" x1="144.5" x2="302.5" y1="657.6406" y2="657.6406"/><!--class MapModeVirtualSoundSpace--><rect fill="#FEFECE" filter="url(#f10ca3lneuqjjv)" height="125.7305" id="MapModeVirtualSoundSpace" style="stroke: #A80036; stroke-width: 1.5;" width="195" x="6" y="328"/><ellipse cx="21" cy="344" fill="#ADD1B2" rx="11" ry="11" style="stroke: #A80036; stroke-width: 1.0;"/><path d="M23.9731,349.6431 Q23.3921,349.9419 22.7529,350.0913 Q22.1138,350.2407 21.4082,350.2407 Q18.9014,350.2407 17.5815,348.5889 Q16.2617,346.937 16.2617,343.8159 Q16.2617,340.6865 17.5815,339.0347 Q18.9014,337.3828 21.4082,337.3828 Q22.1138,337.3828 22.7612,337.5322 Q23.4087,337.6816 23.9731,337.9805 L23.9731,340.7031 Q23.3423,340.1221 22.7488,339.8523 Q22.1553,339.5825 21.5244,339.5825 Q20.1797,339.5825 19.4949,340.6492 Q18.8101,341.7158 18.8101,343.8159 Q18.8101,345.9077 19.4949,346.9744 Q20.1797,348.041 21.5244,348.041 Q22.1553,348.041 22.7488,347.7712 Q23.3423,347.5015 23.9731,346.9204 Z "/><text fill="#000000" font-family="sans-serif" font-size="12" lengthAdjust="spacingAndGlyphs" textLength="163" x="35" y="348.5352">MapModeVirtualSoundSpace</text><line style="stroke: #A80036; stroke-width: 1.5;" x1="7" x2="200" y1="360" y2="360"/><rect fill="none" height="6" style="stroke: #C82930; stroke-width: 1.0;" width="6" x="14" y="368.9775"/><text fill="#000000" font-family="sans-serif" font-size="11" lengthAdjust="spacingAndGlyphs" textLength="105" x="26" y="374.6348">soundSources : List</text><rect fill="none" height="6" style="stroke: #C82930; stroke-width: 1.0;" width="6" x="14" y="381.9326"/><text fill="#000000" font-family="sans-serif" font-size="11" lengthAdjust="spacingAndGlyphs" textLength="59" x="26" y="387.5898">VSS_ID : int</text><rect fill="none" height="6" style="stroke: #C82930; stroke-width: 1.0;" width="6" x="14" y="394.8877"/><text fill="#000000" font-family="sans-serif" font-size="11" lengthAdjust="spacingAndGlyphs" textLength="67" x="26" y="400.5449">ownerID : int</text><rect fill="none" height="6" style="stroke: #C82930; stroke-width: 1.0;" width="6" x="14" y="407.8428"/><text fill="#000000" font-family="sans-serif" font-size="11" lengthAdjust="spacingAndGlyphs" textLength="96" x="26" y="413.5">VSS_Name : String</text><rect fill="none" height="6" style="stroke: #C82930; stroke-width: 1.0;" width="6" x="14" y="420.7979"/><text fill="#000000" font-family="sans-serif" font-size="11" lengthAdjust="spacingAndGlyphs" textLength="128" x="26" y="426.4551">VSS_Description : String</text><rect fill="none" height="6" style="stroke: #C82930; stroke-width: 1.0;" width="6" x="14" y="433.7529"/><text fill="#000000" font-family="sans-serif" font-size="11" lengthAdjust="spacingAndGlyphs" textLength="74" x="26" y="439.4102">status : String</text><line style="stroke: #A80036; stroke-width: 1.5;" x1="7" x2="200" y1="445.7305" y2="445.7305"/><!--class ConcertModeVirtualSoundSpace--><rect fill="#FEFECE" filter="url(#f10ca3lneuqjjv)" height="125.7305" id="ConcertModeVirtualSoundSpace" style="stroke: #A80036; stroke-width: 1.5;" width="214" x="236.5" y="328"/><ellipse cx="251.5" cy="344" fill="#ADD1B2" rx="11" ry="11" style="stroke: #A80036; stroke-width: 1.0;"/><path d="M254.4731,349.6431 Q253.8921,349.9419 253.2529,350.0913 Q252.6138,350.2407 251.9082,350.2407 Q249.4014,350.2407 248.0815,348.5889 Q246.7617,346.937 246.7617,343.8159 Q246.7617,340.6865 248.0815,339.0347 Q249.4014,337.3828 251.9082,337.3828 Q252.6138,337.3828 253.2612,337.5322 Q253.9087,337.6816 254.4731,337.9805 L254.4731,340.7031 Q253.8423,340.1221 253.2488,339.8523 Q252.6553,339.5825 252.0244,339.5825 Q250.6797,339.5825 249.9949,340.6492 Q249.3101,341.7158 249.3101,343.8159 Q249.3101,345.9077 249.9949,346.9744 Q250.6797,348.041 252.0244,348.041 Q252.6553,348.041 253.2488,347.7712 Q253.8423,347.5015 254.4731,346.9204 Z "/><text fill="#000000" font-family="sans-serif" font-size="12" lengthAdjust="spacingAndGlyphs" textLength="182" x="265.5" y="348.5352">ConcertModeVirtualSoundSpace</text><line style="stroke: #A80036; stroke-width: 1.5;" x1="237.5" x2="449.5" y1="360" y2="360"/><rect fill="none" height="6" style="stroke: #C82930; stroke-width: 1.0;" width="6" x="244.5" y="368.9775"/><text fill="#000000" font-family="sans-serif" font-size="11" lengthAdjust="spacingAndGlyphs" textLength="105" x="256.5" y="374.6348">soundSources : List</text><rect fill="none" height="6" style="stroke: #C82930; stroke-width: 1.0;" width="6" x="244.5" y="381.9326"/><text fill="#000000" font-family="sans-serif" font-size="11" lengthAdjust="spacingAndGlyphs" textLength="59" x="256.5" y="387.5898">VSS_ID : int</text><rect fill="none" height="6" style="stroke: #C82930; stroke-width: 1.0;" width="6" x="244.5" y="394.8877"/><text fill="#000000" font-family="sans-serif" font-size="11" lengthAdjust="spacingAndGlyphs" textLength="67" x="256.5" y="400.5449">ownerID : int</text><rect fill="none" height="6" style="stroke: #C82930; stroke-width: 1.0;" width="6" x="244.5" y="407.8428"/><text fill="#000000" font-family="sans-serif" font-size="11" lengthAdjust="spacingAndGlyphs" textLength="96" x="256.5" y="413.5">VSS_Name : String</text><rect fill="none" height="6" style="stroke: #C82930; stroke-width: 1.0;" width="6" x="244.5" y="420.7979"/><text fill="#000000" font-family="sans-serif" font-size="11" lengthAdjust="spacingAndGlyphs" textLength="128" x="256.5" y="426.4551">VSS_Description : String</text><rect fill="none" height="6" style="stroke: #C82930; stroke-width: 1.0;" width="6" x="244.5" y="433.7529"/><text fill="#000000" font-family="sans-serif" font-size="11" lengthAdjust="spacingAndGlyphs" textLength="74" x="256.5" y="439.4102">status : String</text><line style="stroke: #A80036; stroke-width: 1.5;" x1="237.5" x2="449.5" y1="445.7305" y2="445.7305"/><!--class LocalSoundSpaceLibrary--><rect fill="#FEFECE" filter="url(#f10ca3lneuqjjv)" height="86.8652" id="LocalSoundSpaceLibrary" style="stroke: #A80036; stroke-width: 1.5;" width="170" x="145.5" y="181"/><ellipse cx="160.5" cy="197" fill="#ADD1B2" rx="11" ry="11" style="stroke: #A80036; stroke-width: 1.0;"/><path d="M163.4731,202.6431 Q162.8921,202.9419 162.2529,203.0913 Q161.6138,203.2407 160.9082,203.2407 Q158.4014,203.2407 157.0815,201.5889 Q155.7617,199.937 155.7617,196.8159 Q155.7617,193.6865 157.0815,192.0347 Q158.4014,190.3828 160.9082,190.3828 Q161.6138,190.3828 162.2612,190.5322 Q162.9087,190.6816 163.4731,190.9805 L163.4731,193.7031 Q162.8423,193.1221 162.2488,192.8523 Q161.6553,192.5825 161.0244,192.5825 Q159.6797,192.5825 158.9949,193.6492 Q158.3101,194.7158 158.3101,196.8159 Q158.3101,198.9077 158.9949,199.9744 Q159.6797,201.041 161.0244,201.041 Q161.6553,201.041 162.2488,200.7712 Q162.8423,200.5015 163.4731,199.9204 Z "/><text fill="#000000" font-family="sans-serif" font-size="12" lengthAdjust="spacingAndGlyphs" textLength="138" x="174.5" y="201.5352">LocalSoundSpaceLibrary</text><line style="stroke: #A80036; stroke-width: 1.5;" x1="146.5" x2="314.5" y1="213" y2="213"/><rect fill="none" height="6" style="stroke: #C82930; stroke-width: 1.0;" width="6" x="153.5" y="221.9775"/><text fill="#000000" font-family="sans-serif" font-size="11" lengthAdjust="spacingAndGlyphs" textLength="133" x="165.5" y="227.6348">virtualSoundSpaces : List</text><rect fill="none" height="6" style="stroke: #C82930; stroke-width: 1.0;" width="6" x="153.5" y="234.9326"/><text fill="#000000" font-family="sans-serif" font-size="11" lengthAdjust="spacingAndGlyphs" textLength="69" x="165.5" y="240.5898">libraryID : int</text><rect fill="none" height="6" style="stroke: #C82930; stroke-width: 1.0;" width="6" x="153.5" y="247.8877"/><text fill="#000000" font-family="sans-serif" font-size="11" lengthAdjust="spacingAndGlyphs" textLength="106" x="165.5" y="253.5449">libraryName : String</text><line style="stroke: #A80036; stroke-width: 1.5;" x1="146.5" x2="314.5" y1="259.8652" y2="259.8652"/><!--class OnlineSoundSpaceLibrary--><rect fill="#FEFECE" filter="url(#f10ca3lneuqjjv)" height="86.8652" id="OnlineSoundSpaceLibrary" style="stroke: #A80036; stroke-width: 1.5;" width="177" x="351" y="181"/><ellipse cx="366" cy="197" fill="#ADD1B2" rx="11" ry="11" style="stroke: #A80036; stroke-width: 1.0;"/><path d="M368.9731,202.6431 Q368.3921,202.9419 367.7529,203.0913 Q367.1138,203.2407 366.4082,203.2407 Q363.9014,203.2407 362.5815,201.5889 Q361.2617,199.937 361.2617,196.8159 Q361.2617,193.6865 362.5815,192.0347 Q363.9014,190.3828 366.4082,190.3828 Q367.1138,190.3828 367.7612,190.5322 Q368.4087,190.6816 368.9731,190.9805 L368.9731,193.7031 Q368.3423,193.1221 367.7488,192.8523 Q367.1553,192.5825 366.5244,192.5825 Q365.1797,192.5825 364.4949,193.6492 Q363.8101,194.7158 363.8101,196.8159 Q363.8101,198.9077 364.4949,199.9744 Q365.1797,201.041 366.5244,201.041 Q367.1553,201.041 367.7488,200.7712 Q368.3423,200.5015 368.9731,199.9204 Z "/><text fill="#000000" font-family="sans-serif" font-size="12" lengthAdjust="spacingAndGlyphs" textLength="145" x="380" y="201.5352">OnlineSoundSpaceLibrary</text><line style="stroke: #A80036; stroke-width: 1.5;" x1="352" x2="527" y1="213" y2="213"/><rect fill="none" height="6" style="stroke: #C82930; stroke-width: 1.0;" width="6" x="359" y="221.9775"/><text fill="#000000" font-family="sans-serif" font-size="11" lengthAdjust="spacingAndGlyphs" textLength="133" x="371" y="227.6348">virtualSoundSpaces : List</text><rect fill="none" height="6" style="stroke: #C82930; stroke-width: 1.0;" width="6" x="359" y="234.9326"/><text fill="#000000" font-family="sans-serif" font-size="11" lengthAdjust="spacingAndGlyphs" textLength="69" x="371" y="240.5898">libraryID : int</text><rect fill="none" height="6" style="stroke: #C82930; stroke-width: 1.0;" width="6" x="359" y="247.8877"/><text fill="#000000" font-family="sans-serif" font-size="11" lengthAdjust="spacingAndGlyphs" textLength="106" x="371" y="253.5449">libraryName : String</text><line style="stroke: #A80036; stroke-width: 1.5;" x1="352" x2="527" y1="259.8652" y2="259.8652"/><!--class Sensor--><rect fill="#FEFECE" filter="url(#f10ca3lneuqjjv)" height="73.9102" id="Sensor" style="stroke: #A80036; stroke-width: 1.5;" width="100" x="563.5" y="187.5"/><ellipse cx="592" cy="203.5" fill="#ADD1B2" rx="11" ry="11" style="stroke: #A80036; stroke-width: 1.0;"/><path d="M594.9731,209.1431 Q594.3921,209.4419 593.7529,209.5913 Q593.1138,209.7407 592.4082,209.7407 Q589.9014,209.7407 588.5815,208.0889 Q587.2617,206.437 587.2617,203.3159 Q587.2617,200.1865 588.5815,198.5347 Q589.9014,196.8828 592.4082,196.8828 Q593.1138,196.8828 593.7612,197.0322 Q594.4087,197.1816 594.9731,197.4805 L594.9731,200.2031 Q594.3423,199.6221 593.7488,199.3523 Q593.1553,199.0825 592.5244,199.0825 Q591.1797,199.0825 590.4949,200.1492 Q589.8101,201.2158 589.8101,203.3159 Q589.8101,205.4077 590.4949,206.4744 Q591.1797,207.541 592.5244,207.541 Q593.1553,207.541 593.7488,207.2712 Q594.3423,207.0015 594.9731,206.4204 Z "/><text fill="#000000" font-family="sans-serif" font-size="12" lengthAdjust="spacingAndGlyphs" textLength="38" x="609" y="208.0352">Sensor</text><line style="stroke: #A80036; stroke-width: 1.5;" x1="564.5" x2="662.5" y1="219.5" y2="219.5"/><rect fill="none" height="6" style="stroke: #C82930; stroke-width: 1.0;" width="6" x="571.5" y="228.4775"/><text fill="#000000" font-family="sans-serif" font-size="11" lengthAdjust="spacingAndGlyphs" textLength="74" x="583.5" y="234.1348">status : String</text><rect fill="none" height="6" style="stroke: #C82930; stroke-width: 1.0;" width="6" x="571.5" y="241.4326"/><text fill="#000000" font-family="sans-serif" font-size="11" lengthAdjust="spacingAndGlyphs" textLength="71" x="583.5" y="247.0898">sensorID : int</text><line style="stroke: #A80036; stroke-width: 1.5;" x1="564.5" x2="662.5" y1="253.4102" y2="253.4102"/><!--link User to Sensor--><path d="M499.8684,120.0112 C524.1127,142.3048 551.4106,167.4063 573.1735,187.4182 " fill="none" id="User-Sensor" style="stroke: #A80036; stroke-width: 1.0;"/><text fill="#000000" font-family="sans-serif" font-size="13" lengthAdjust="spacingAndGlyphs" textLength="8" x="499.7952" y="141.4781">1</text><text fill="#000000" font-family="sans-serif" font-size="13" lengthAdjust="spacingAndGlyphs" textLength="8" x="557.0008" y="176.8037">1</text><!--link User to LocalSoundSpaceLibrary--><path d="M379.3289,110.564 C350.387,132.7205 315.8765,159.14 287.3772,180.9576 " fill="none" id="User-LocalSoundSpaceLibrary" style="stroke: #A80036; stroke-width: 1.0;"/><text fill="#000000" font-family="sans-serif" font-size="13" lengthAdjust="spacingAndGlyphs" textLength="8" x="363.508" y="112.865">1</text><text fill="#000000" font-family="sans-serif" font-size="13" lengthAdjust="spacingAndGlyphs" textLength="8" x="288.135" y="170.1089">1</text><!--link User to OnlineSoundSpaceLibrary--><path d="M439.5,121.3605 C439.5,140.9416 439.5,162.5463 439.5,180.9015 " fill="none" id="User-OnlineSoundSpaceLibrary" style="stroke: #A80036; stroke-width: 1.0;"/><text fill="#000000" font-family="sans-serif" font-size="13" lengthAdjust="spacingAndGlyphs" textLength="8" x="431.0375" y="141.4015">1</text><text fill="#000000" font-family="sans-serif" font-size="13" lengthAdjust="spacingAndGlyphs" textLength="6" x="433.0219" y="170.3615">*</text><!--link MapModeVirtualSoundSpace to SoundSource--><path d="M148.4334,465.5146 C157.9227,481.2509 167.9495,497.8787 177.4782,513.6805 " fill="none" id="MapModeVirtualSoundSpace-SoundSource" style="stroke: #A80036; stroke-width: 1.0;"/><polygon fill="#FFFFFF" points="141.6336,454.2383,141.3066,461.442,147.8303,464.5145,148.1574,457.3108,141.6336,454.2383" style="stroke: #A80036; stroke-width: 1.0;"/><text fill="#000000" font-family="sans-serif" font-size="13" lengthAdjust="spacingAndGlyphs" textLength="8" x="137.1536" y="474.1315">1</text><text fill="#000000" font-family="sans-serif" font-size="13" lengthAdjust="spacingAndGlyphs" textLength="22" x="150.0433" y="503.2917">1..*</text><!--link ConcertModeVirtualSoundSpace to SoundSource--><path d="M298.5666,465.5146 C289.0773,481.2509 279.0505,497.8787 269.5218,513.6805 " fill="none" id="ConcertModeVirtualSoundSpace-SoundSource" style="stroke: #A80036; stroke-width: 1.0;"/><polygon fill="#FFFFFF" points="305.3664,454.2383,298.8426,457.3108,299.1697,464.5145,305.6934,461.442,305.3664,454.2383" style="stroke: #A80036; stroke-width: 1.0;"/><text fill="#000000" font-family="sans-serif" font-size="13" lengthAdjust="spacingAndGlyphs" textLength="8" x="293.0214" y="474.1315">1</text><text fill="#000000" font-family="sans-serif" font-size="13" lengthAdjust="spacingAndGlyphs" textLength="22" x="250.8598" y="503.2917">1..*</text><!--link LocalSoundSpaceLibrary to MapModeVirtualSoundSpace--><path d="M189.0797,278.803 C177.138,294.4589 164.0063,311.6748 151.6915,327.8198 " fill="none" id="LocalSoundSpaceLibrary-MapModeVirtualSoundSpace" style="stroke: #A80036; stroke-width: 1.0;"/><polygon fill="#FFFFFF" points="197.1322,268.2459,190.313,270.5907,189.8546,277.7872,196.6738,275.4424,197.1322,268.2459" style="stroke: #A80036; stroke-width: 1.0;"/><text fill="#000000" font-family="sans-serif" font-size="13" lengthAdjust="spacingAndGlyphs" textLength="8" x="183.6438" y="288.3737">1</text><text fill="#000000" font-family="sans-serif" font-size="13" lengthAdjust="spacingAndGlyphs" textLength="6" x="150.9168" y="317.2493">*</text><!--link LocalSoundSpaceLibrary to ConcertModeVirtualSoundSpace--><path d="M267.6611,279.255 C278.2042,294.7898 289.769,311.83 300.6209,327.8198 " fill="none" id="LocalSoundSpaceLibrary-ConcertModeVirtualSoundSpace" style="stroke: #A80036; stroke-width: 1.0;"/><polygon fill="#FFFFFF" points="260.1894,268.2459,260.249,275.4568,266.9281,278.1751,266.8685,270.9643,260.1894,268.2459" style="stroke: #A80036; stroke-width: 1.0;"/><text fill="#000000" font-family="sans-serif" font-size="13" lengthAdjust="spacingAndGlyphs" textLength="8" x="255.9625" y="288.3737">1</text><text fill="#000000" font-family="sans-serif" font-size="13" lengthAdjust="spacingAndGlyphs" textLength="6" x="289.3161" y="317.2493">*</text><!--link OnlineSoundSpaceLibrary to MapModeVirtualSoundSpace--><path d="M338.7381,269.3418 C300.7537,286.7392 257.3533,307.2123 218.5,327 C212.7991,329.9034 206.9695,332.9374 201.1076,336.0385 " fill="none" id="OnlineSoundSpaceLibrary-MapModeVirtualSoundSpace" style="stroke: #A80036; stroke-width: 1.0;"/><polygon fill="#FFFFFF" points="350.8677,263.8061,343.7485,262.6583,339.9509,268.7883,347.07,269.9362,350.8677,263.8061" style="stroke: #A80036; stroke-width: 1.0;"/><text fill="#000000" font-family="sans-serif" font-size="13" lengthAdjust="spacingAndGlyphs" textLength="8" x="334.9071" y="264.1269">1</text><text fill="#000000" font-family="sans-serif" font-size="13" lengthAdjust="spacingAndGlyphs" textLength="6" x="209.1248" y="328.6526">*</text><!--link OnlineSoundSpaceLibrary to ConcertModeVirtualSoundSpace--><path d="M407.6684,279.7079 C398.7818,295.1206 389.058,311.9853 379.9282,327.8198 " fill="none" id="OnlineSoundSpaceLibrary-ConcertModeVirtualSoundSpace" style="stroke: #A80036; stroke-width: 1.0;"/><polygon fill="#FFFFFF" points="414.2771,268.2459,407.8148,271.4458,408.2831,278.6417,414.7453,275.4418,414.2771,268.2459" style="stroke: #A80036; stroke-width: 1.0;"/><text fill="#000000" font-family="sans-serif" font-size="13" lengthAdjust="spacingAndGlyphs" textLength="8" x="401.985" y="288.3737">1</text><text fill="#000000" font-family="sans-serif" font-size="13" lengthAdjust="spacingAndGlyphs" textLength="6" x="377.7933" y="317.2493">*</text><!--link OnlineSoundSpaceLibrary to Comment--><path d="M513.8864,268.1998 C542.4428,285.6944 575.0021,306.5317 603.5,327 C615.0241,335.277 627.0644,344.7235 638.1405,353.7707 " fill="none" id="OnlineSoundSpaceLibrary-Comment" style="stroke: #A80036; stroke-width: 1.0;"/><text fill="#000000" font-family="sans-serif" font-size="13" lengthAdjust="spacingAndGlyphs" textLength="8" x="516.2244" y="288.3208">1</text><text fill="#000000" font-family="sans-serif" font-size="13" lengthAdjust="spacingAndGlyphs" textLength="6" x="623.593" y="343.129">*</text><!--link OnlineSoundSpaceLibrary to Like--><path d="M464.7229,268.2459 C480.0555,294.8385 499.4247,328.4318 514.023,353.7508 " fill="none" id="OnlineSoundSpaceLibrary-Like" style="stroke: #A80036; stroke-width: 1.0;"/><text fill="#000000" font-family="sans-serif" font-size="13" lengthAdjust="spacingAndGlyphs" textLength="8" x="459.84" y="288.3737">1</text><text fill="#000000" font-family="sans-serif" font-size="13" lengthAdjust="spacingAndGlyphs" textLength="6" x="503.663" y="343.3839">*</text><!--
@startuml
class User {
  -userID : int
  -username : String
  -password : String
  -e-mail : String
  -userProfile
}

class SoundSource {
  -soundSourceID : int
  -soundFragment
  -soundLatitude : double
  -soundLongitude : double
  -soundAltitude : double
  -soundVolume
  -soundPattern : String
  -soundName : String
}

class MapModeVirtualSoundSpace {
  -soundSources : List
  -VSS_ID : int
  -ownerID : int
  -VSS_Name : String
  -VSS_Description : String
  -status : String
}

class ConcertModeVirtualSoundSpace {
  -soundSources : List
  -VSS_ID : int
  -ownerID : int
  -VSS_Name : String
  -VSS_Description : String
  -status : String
}

package "Social Classes" #yellow {
  class Comment {
    -commenterID : int
    -comment : String
  }

  class Like {
    -likerIDs : List
    -likeCount : int
  }
}

class LocalSoundSpaceLibrary {
  -virtualSoundSpaces : List
  -libraryID : int
  -libraryName : String
}

class OnlineSoundSpaceLibrary {
  -virtualSoundSpaces : List
  -libraryID : int
  -libraryName : String
}

class Sensor {
  -status : String
  -sensorID : int
}

User "1" - - "1" Sensor
User "1" - - "1" LocalSoundSpaceLibrary
User "1" - - "*" OnlineSoundSpaceLibrary

MapModeVirtualSoundSpace "1" o- - "1..*" SoundSource
ConcertModeVirtualSoundSpace "1" o- - "1..*" SoundSource

LocalSoundSpaceLibrary "1" o- - "*" MapModeVirtualSoundSpace
LocalSoundSpaceLibrary "1" o- - "*" ConcertModeVirtualSoundSpace
OnlineSoundSpaceLibrary "1" o- - "*" MapModeVirtualSoundSpace
OnlineSoundSpaceLibrary "1" o- - "*" ConcertModeVirtualSoundSpace

OnlineSoundSpaceLibrary "1" - - "*" Comment
OnlineSoundSpaceLibrary "1" - - "*" Like
@enduml

PlantUML version 1.2018.02(Sat Mar 10 01:20:44 CST 2018)
(GPL source distribution)
Java Runtime: Java(TM) SE Runtime Environment
JVM: Java HotSpot(TM) 64-Bit Server VM
Java Version: 1.8.0_151-b12
Operating System: Mac OS X
OS Version: 10.11.6
Default Encoding: UTF-8
Language: zh
Country: CN
--></g></svg>
