<?xml version="1.0" encoding="UTF-8" standalone="no"?><svg xmlns="http://www.w3.org/2000/svg" xmlns:xlink="http://www.w3.org/1999/xlink" contentScriptType="application/ecmascript" contentStyleType="text/css" height="526px" preserveAspectRatio="none" style="width:585px;height:526px;" version="1.1" viewBox="0 0 585 526"
    width="585px" zoomAndPan="magnify"><defs><filter height="300%" id="fpohjii2rxhqi" width="300%" x="-1" y="-1"><feGaussianBlur result="blurOut" stdDeviation="2.0"/><feColorMatrix in="blurOut" result="blurOut2" type="matrix" values="0 0 0 0 0 0 0 0 0 0 0 0 0 0 0 0 0 0 .4 0"/><feOffset dx="4.0" dy="4.0" in="blurOut2" result="blurOut3"/><feBlend in="SourceGraphic" in2="blurOut3" mode="normal"/></filter></defs><g><!--cluster Socializing Classes--><polygon fill="#FFFF00" filter="url(#fpohjii2rxhqi)" points="60,405,204,405,211,427.4883,487,427.4883,487,514,60,514,60,405" style="stroke: #000000; stroke-width: 1.5;"/><line style="stroke: #000000; stroke-width: 1.5;" x1="60" x2="211" y1="427.4883" y2="427.4883"/><text fill="#000000" font-family="sans-serif" font-size="14" font-weight="bold" lengthAdjust="spacingAndGlyphs" textLength="138" x="64" y="420.5352">Socializing Classes</text><!--class Comment--><rect fill="#FEFECE" filter="url(#fpohjii2rxhqi)" height="73.9102" id="Comment" style="stroke: #A80036; stroke-width: 1.5;" width="125" x="215.5" y="432"/><ellipse cx="247.6" cy="448" fill="#ADD1B2" rx="11" ry="11" style="stroke: #A80036; stroke-width: 1.0;"/><path d="M250.5731,453.6431 Q249.9921,453.9419 249.3529,454.0913 Q248.7138,454.2407 248.0082,454.2407 Q245.5014,454.2407 244.1815,452.5889 Q242.8617,450.937 242.8617,447.8159 Q242.8617,444.6865 244.1815,443.0347 Q245.5014,441.3828 248.0082,441.3828 Q248.7138,441.3828 249.3612,441.5322 Q250.0087,441.6816 250.5731,441.9805 L250.5731,444.7031 Q249.9423,444.1221 249.3488,443.8523 Q248.7553,443.5825 248.1244,443.5825 Q246.7797,443.5825 246.0949,444.6492 Q245.4101,445.7158 245.4101,447.8159 Q245.4101,449.9077 246.0949,450.9744 Q246.7797,452.041 248.1244,452.041 Q248.7553,452.041 249.3488,451.7712 Q249.9423,451.5015 250.5731,450.9204 Z "/><text fill="#000000" font-family="sans-serif" font-size="12" lengthAdjust="spacingAndGlyphs" textLength="55" x="265.4" y="452.5352">Comment</text><line style="stroke: #A80036; stroke-width: 1.5;" x1="216.5" x2="339.5" y1="464" y2="464"/><rect fill="none" height="6" style="stroke: #C82930; stroke-width: 1.0;" width="6" x="223.5" y="472.9775"/><text fill="#000000" font-family="sans-serif" font-size="11" lengthAdjust="spacingAndGlyphs" textLength="97" x="235.5" y="478.6348">CommenterID : int</text><rect fill="none" height="6" style="stroke: #C82930; stroke-width: 1.0;" width="6" x="223.5" y="485.9326"/><text fill="#000000" font-family="sans-serif" font-size="11" lengthAdjust="spacingAndGlyphs" textLength="99" x="235.5" y="491.5898">Comments : String</text><line style="stroke: #A80036; stroke-width: 1.5;" x1="216.5" x2="339.5" y1="497.9102" y2="497.9102"/><!--class CommentList--><rect fill="#FEFECE" filter="url(#fpohjii2rxhqi)" height="60.9551" id="CommentList" style="stroke: #A80036; stroke-width: 1.5;" width="112" x="68" y="438.5"/><ellipse cx="85.7" cy="454.5" fill="#ADD1B2" rx="11" ry="11" style="stroke: #A80036; stroke-width: 1.0;"/><path d="M88.6731,460.1431 Q88.0921,460.4419 87.4529,460.5913 Q86.8138,460.7407 86.1082,460.7407 Q83.6014,460.7407 82.2815,459.0889 Q80.9617,457.437 80.9617,454.3159 Q80.9617,451.1865 82.2815,449.5347 Q83.6014,447.8828 86.1082,447.8828 Q86.8138,447.8828 87.4612,448.0322 Q88.1087,448.1816 88.6731,448.4805 L88.6731,451.2031 Q88.0423,450.6221 87.4488,450.3523 Q86.8553,450.0825 86.2244,450.0825 Q84.8797,450.0825 84.1949,451.1492 Q83.5101,452.2158 83.5101,454.3159 Q83.5101,456.4077 84.1949,457.4744 Q84.8797,458.541 86.2244,458.541 Q86.8553,458.541 87.4488,458.2712 Q88.0423,458.0015 88.6731,457.4204 Z "/><text fill="#000000" font-family="sans-serif" font-size="12" lengthAdjust="spacingAndGlyphs" textLength="74" x="100.3" y="459.0352">CommentList</text><line style="stroke: #A80036; stroke-width: 1.5;" x1="69" x2="179" y1="470.5" y2="470.5"/><rect fill="none" height="6" style="stroke: #C82930; stroke-width: 1.0;" width="6" x="76" y="479.4775"/><text fill="#000000" font-family="sans-serif" font-size="11" lengthAdjust="spacingAndGlyphs" textLength="86" x="88" y="485.1348">Comments : List</text><line style="stroke: #A80036; stroke-width: 1.5;" x1="69" x2="179" y1="491.4551" y2="491.4551"/><!--class Like--><rect fill="#FEFECE" filter="url(#fpohjii2rxhqi)" height="73.9102" id="Like" style="stroke: #A80036; stroke-width: 1.5;" width="103" x="375.5" y="432"/><ellipse cx="412.1" cy="448" fill="#ADD1B2" rx="11" ry="11" style="stroke: #A80036; stroke-width: 1.0;"/><path d="M415.0731,453.6431 Q414.4921,453.9419 413.8529,454.0913 Q413.2138,454.2407 412.5082,454.2407 Q410.0014,454.2407 408.6815,452.5889 Q407.3617,450.937 407.3617,447.8159 Q407.3617,444.6865 408.6815,443.0347 Q410.0014,441.3828 412.5082,441.3828 Q413.2138,441.3828 413.8612,441.5322 Q414.5087,441.6816 415.0731,441.9805 L415.0731,444.7031 Q414.4423,444.1221 413.8488,443.8523 Q413.2553,443.5825 412.6244,443.5825 Q411.2797,443.5825 410.5949,444.6492 Q409.9101,445.7158 409.9101,447.8159 Q409.9101,449.9077 410.5949,450.9744 Q411.2797,452.041 412.6244,452.041 Q413.2553,452.041 413.8488,451.7712 Q414.4423,451.5015 415.0731,450.9204 Z "/><text fill="#000000" font-family="sans-serif" font-size="12" lengthAdjust="spacingAndGlyphs" textLength="23" x="430.9" y="452.5352">Like</text><line style="stroke: #A80036; stroke-width: 1.5;" x1="376.5" x2="477.5" y1="464" y2="464"/><rect fill="none" height="6" style="stroke: #C82930; stroke-width: 1.0;" width="6" x="383.5" y="472.9775"/><text fill="#000000" font-family="sans-serif" font-size="11" lengthAdjust="spacingAndGlyphs" textLength="71" x="395.5" y="478.6348">LikerIDs : List</text><rect fill="none" height="6" style="stroke: #C82930; stroke-width: 1.0;" width="6" x="383.5" y="485.9326"/><text fill="#000000" font-family="sans-serif" font-size="11" lengthAdjust="spacingAndGlyphs" textLength="77" x="395.5" y="491.5898">LikeCount : int</text><line style="stroke: #A80036; stroke-width: 1.5;" x1="376.5" x2="477.5" y1="497.9102" y2="497.9102"/><!--class User--><rect fill="#FEFECE" filter="url(#fpohjii2rxhqi)" height="112.7754" id="User" style="stroke: #A80036; stroke-width: 1.5;" width="162" x="224" y="8"/><ellipse cx="287.75" cy="24" fill="#ADD1B2" rx="11" ry="11" style="stroke: #A80036; stroke-width: 1.0;"/><path d="M290.7231,29.6431 Q290.1421,29.9419 289.5029,30.0913 Q288.8638,30.2407 288.1582,30.2407 Q285.6514,30.2407 284.3315,28.5889 Q283.0117,26.937 283.0117,23.8159 Q283.0117,20.6865 284.3315,19.0347 Q285.6514,17.3828 288.1582,17.3828 Q288.8638,17.3828 289.5112,17.5322 Q290.1587,17.6816 290.7231,17.9805 L290.7231,20.7031 Q290.0923,20.1221 289.4988,19.8523 Q288.9053,19.5825 288.2744,19.5825 Q286.9297,19.5825 286.2449,20.6492 Q285.5601,21.7158 285.5601,23.8159 Q285.5601,25.9077 286.2449,26.9744 Q286.9297,28.041 288.2744,28.041 Q288.9053,28.041 289.4988,27.7712 Q290.0923,27.5015 290.7231,26.9204 Z "/><text fill="#000000" font-family="sans-serif" font-size="12" lengthAdjust="spacingAndGlyphs" textLength="26" x="308.25" y="28.5352">User</text><line style="stroke: #A80036; stroke-width: 1.5;" x1="225" x2="385" y1="40" y2="40"/><rect fill="none" height="6" style="stroke: #C82930; stroke-width: 1.0;" width="6" x="232" y="48.9775"/><text fill="#000000" font-family="sans-serif" font-size="11" lengthAdjust="spacingAndGlyphs" textLength="59" x="244" y="54.6348">UserID : int</text><rect fill="none" height="6" style="stroke: #C82930; stroke-width: 1.0;" width="6" x="232" y="61.9326"/><text fill="#000000" font-family="sans-serif" font-size="11" lengthAdjust="spacingAndGlyphs" textLength="95" x="244" y="67.5898">Username : String</text><rect fill="none" height="6" style="stroke: #C82930; stroke-width: 1.0;" width="6" x="232" y="74.8877"/><text fill="#000000" font-family="sans-serif" font-size="11" lengthAdjust="spacingAndGlyphs" textLength="92" x="244" y="80.5449">Password : String</text><rect fill="none" height="6" style="stroke: #C82930; stroke-width: 1.0;" width="6" x="232" y="87.8428"/><text fill="#000000" font-family="sans-serif" font-size="11" lengthAdjust="spacingAndGlyphs" textLength="75" x="244" y="93.5">E-mail : String</text><rect fill="none" height="6" style="stroke: #C82930; stroke-width: 1.0;" width="6" x="232" y="100.7979"/><text fill="#000000" font-family="sans-serif" font-size="11" lengthAdjust="spacingAndGlyphs" textLength="136" x="244" y="106.4551">UserProfile : Imageformat</text><line style="stroke: #A80036; stroke-width: 1.5;" x1="225" x2="385" y1="112.7754" y2="112.7754"/><!--class SoundSource--><rect fill="#FEFECE" filter="url(#fpohjii2rxhqi)" height="151.6406" id="SoundSource" style="stroke: #A80036; stroke-width: 1.5;" width="190" x="6" y="198"/><ellipse cx="60.25" cy="214" fill="#ADD1B2" rx="11" ry="11" style="stroke: #A80036; stroke-width: 1.0;"/><path d="M63.2231,219.6431 Q62.6421,219.9419 62.0029,220.0913 Q61.3638,220.2407 60.6582,220.2407 Q58.1514,220.2407 56.8315,218.5889 Q55.5117,216.937 55.5117,213.8159 Q55.5117,210.6865 56.8315,209.0347 Q58.1514,207.3828 60.6582,207.3828 Q61.3638,207.3828 62.0112,207.5322 Q62.6587,207.6816 63.2231,207.9805 L63.2231,210.7031 Q62.5923,210.1221 61.9988,209.8523 Q61.4053,209.5825 60.7744,209.5825 Q59.4297,209.5825 58.7449,210.6492 Q58.0601,211.7158 58.0601,213.8159 Q58.0601,215.9077 58.7449,216.9744 Q59.4297,218.041 60.7744,218.041 Q61.4053,218.041 61.9988,217.7712 Q62.5923,217.5015 63.2231,216.9204 Z "/><text fill="#000000" font-family="sans-serif" font-size="12" lengthAdjust="spacingAndGlyphs" textLength="73" x="80.75" y="218.5352">SoundSource</text><line style="stroke: #A80036; stroke-width: 1.5;" x1="7" x2="195" y1="230" y2="230"/><rect fill="none" height="6" style="stroke: #C82930; stroke-width: 1.0;" width="6" x="14" y="238.9775"/><text fill="#000000" font-family="sans-serif" font-size="11" lengthAdjust="spacingAndGlyphs" textLength="105" x="26" y="244.6348">SoundSourceID : int</text><rect fill="none" height="6" style="stroke: #C82930; stroke-width: 1.0;" width="6" x="14" y="251.9326"/><text fill="#000000" font-family="sans-serif" font-size="11" lengthAdjust="spacingAndGlyphs" textLength="164" x="26" y="257.5898">SoundFragment : Soundformat</text><rect fill="none" height="6" style="stroke: #C82930; stroke-width: 1.0;" width="6" x="14" y="264.8877"/><text fill="#000000" font-family="sans-serif" font-size="11" lengthAdjust="spacingAndGlyphs" textLength="123" x="26" y="270.5449">SoundLatitude : double</text><rect fill="none" height="6" style="stroke: #C82930; stroke-width: 1.0;" width="6" x="14" y="277.8428"/><text fill="#000000" font-family="sans-serif" font-size="11" lengthAdjust="spacingAndGlyphs" textLength="134" x="26" y="283.5">SoundLongitude : double</text><rect fill="none" height="6" style="stroke: #C82930; stroke-width: 1.0;" width="6" x="14" y="290.7979"/><text fill="#000000" font-family="sans-serif" font-size="11" lengthAdjust="spacingAndGlyphs" textLength="122" x="26" y="296.4551">SoundAltitude : double</text><rect fill="none" height="6" style="stroke: #C82930; stroke-width: 1.0;" width="6" x="14" y="303.7529"/><text fill="#000000" font-family="sans-serif" font-size="11" lengthAdjust="spacingAndGlyphs" textLength="97" x="26" y="309.4102">SoundVolume : int</text><rect fill="none" height="6" style="stroke: #C82930; stroke-width: 1.0;" width="6" x="14" y="316.708"/><text fill="#000000" font-family="sans-serif" font-size="11" lengthAdjust="spacingAndGlyphs" textLength="113" x="26" y="322.3652">SoundPattern : String</text><rect fill="none" height="6" style="stroke: #C82930; stroke-width: 1.0;" width="6" x="14" y="329.6631"/><text fill="#000000" font-family="sans-serif" font-size="11" lengthAdjust="spacingAndGlyphs" textLength="64" x="26" y="335.3203">SoundName</text><line style="stroke: #A80036; stroke-width: 1.5;" x1="7" x2="195" y1="341.6406" y2="341.6406"/><!--class VirtualSoundSpace--><rect fill="#FEFECE" filter="url(#fpohjii2rxhqi)" height="138.6855" id="VirtualSoundSpace" style="stroke: #A80036; stroke-width: 1.5;" width="148" x="231" y="204.5"/><ellipse cx="250.5" cy="220.5" fill="#ADD1B2" rx="11" ry="11" style="stroke: #A80036; stroke-width: 1.0;"/><path d="M253.4731,226.1431 Q252.8921,226.4419 252.2529,226.5913 Q251.6138,226.7407 250.9082,226.7407 Q248.4014,226.7407 247.0815,225.0889 Q245.7617,223.437 245.7617,220.3159 Q245.7617,217.1865 247.0815,215.5347 Q248.4014,213.8828 250.9082,213.8828 Q251.6138,213.8828 252.2612,214.0322 Q252.9087,214.1816 253.4731,214.4805 L253.4731,217.2031 Q252.8423,216.6221 252.2488,216.3523 Q251.6553,216.0825 251.0244,216.0825 Q249.6797,216.0825 248.9949,217.1492 Q248.3101,218.2158 248.3101,220.3159 Q248.3101,222.4077 248.9949,223.4744 Q249.6797,224.541 251.0244,224.541 Q251.6553,224.541 252.2488,224.2712 Q252.8423,224.0015 253.4731,223.4204 Z "/><text fill="#000000" font-family="sans-serif" font-size="12" lengthAdjust="spacingAndGlyphs" textLength="106" x="265.5" y="225.0352">VirtualSoundSpace</text><line style="stroke: #A80036; stroke-width: 1.5;" x1="232" x2="378" y1="236.5" y2="236.5"/><rect fill="none" height="6" style="stroke: #C82930; stroke-width: 1.0;" width="6" x="239" y="245.4775"/><text fill="#000000" font-family="sans-serif" font-size="11" lengthAdjust="spacingAndGlyphs" textLength="105" x="251" y="251.1348">SoundSources : List</text><rect fill="none" height="6" style="stroke: #C82930; stroke-width: 1.0;" width="6" x="239" y="258.4326"/><text fill="#000000" font-family="sans-serif" font-size="11" lengthAdjust="spacingAndGlyphs" textLength="59" x="251" y="264.0898">VSS_ID : int</text><rect fill="none" height="6" style="stroke: #C82930; stroke-width: 1.0;" width="6" x="239" y="271.3877"/><text fill="#000000" font-family="sans-serif" font-size="11" lengthAdjust="spacingAndGlyphs" textLength="69" x="251" y="277.0449">OwnerID : int</text><rect fill="none" height="6" style="stroke: #C82930; stroke-width: 1.0;" width="6" x="239" y="284.3428"/><text fill="#000000" font-family="sans-serif" font-size="11" lengthAdjust="spacingAndGlyphs" textLength="90" x="251" y="290">VSSName : String</text><rect fill="none" height="6" style="stroke: #C82930; stroke-width: 1.0;" width="6" x="239" y="297.2979"/><text fill="#000000" font-family="sans-serif" font-size="11" lengthAdjust="spacingAndGlyphs" textLength="122" x="251" y="302.9551">VSSDescription : String</text><rect fill="none" height="6" style="stroke: #C82930; stroke-width: 1.0;" width="6" x="239" y="310.2529"/><text fill="#000000" font-family="sans-serif" font-size="11" lengthAdjust="spacingAndGlyphs" textLength="86" x="251" y="315.9102">Comments : List</text><rect fill="none" height="6" style="stroke: #C82930; stroke-width: 1.0;" width="6" x="239" y="323.208"/><text fill="#000000" font-family="sans-serif" font-size="11" lengthAdjust="spacingAndGlyphs" textLength="55" x="251" y="328.8652">Likes : List</text><line style="stroke: #A80036; stroke-width: 1.5;" x1="232" x2="378" y1="335.1855" y2="335.1855"/><!--class SoundSpaceLibrary--><rect fill="#FEFECE" filter="url(#fpohjii2rxhqi)" height="86.8652" id="SoundSpaceLibrary" style="stroke: #A80036; stroke-width: 1.5;" width="160" x="414" y="230.5"/><ellipse cx="437.55" cy="246.5" fill="#ADD1B2" rx="11" ry="11" style="stroke: #A80036; stroke-width: 1.0;"/><path d="M440.5231,252.1431 Q439.9421,252.4419 439.3029,252.5913 Q438.6638,252.7407 437.9582,252.7407 Q435.4514,252.7407 434.1315,251.0889 Q432.8117,249.437 432.8117,246.3159 Q432.8117,243.1865 434.1315,241.5347 Q435.4514,239.8828 437.9582,239.8828 Q438.6638,239.8828 439.3112,240.0322 Q439.9587,240.1816 440.5231,240.4805 L440.5231,243.2031 Q439.8923,242.6221 439.2988,242.3523 Q438.7053,242.0825 438.0744,242.0825 Q436.7297,242.0825 436.0449,243.1492 Q435.3601,244.2158 435.3601,246.3159 Q435.3601,248.4077 436.0449,249.4744 Q436.7297,250.541 438.0744,250.541 Q438.7053,250.541 439.2988,250.2712 Q439.8923,250.0015 440.5231,249.4204 Z "/><text fill="#000000" font-family="sans-serif" font-size="12" lengthAdjust="spacingAndGlyphs" textLength="109" x="453.45" y="251.0352">SoundSpaceLibrary</text><line style="stroke: #A80036; stroke-width: 1.5;" x1="415" x2="573" y1="262.5" y2="262.5"/><rect fill="none" height="6" style="stroke: #C82930; stroke-width: 1.0;" width="6" x="422" y="271.4775"/><text fill="#000000" font-family="sans-serif" font-size="11" lengthAdjust="spacingAndGlyphs" textLength="134" x="434" y="277.1348">VirtualSoundSpaces : List</text><rect fill="none" height="6" style="stroke: #C82930; stroke-width: 1.0;" width="6" x="422" y="284.4326"/><text fill="#000000" font-family="sans-serif" font-size="11" lengthAdjust="spacingAndGlyphs" textLength="72" x="434" y="290.0898">LibraryID : int</text><rect fill="none" height="6" style="stroke: #C82930; stroke-width: 1.0;" width="6" x="422" y="297.3877"/><text fill="#000000" font-family="sans-serif" font-size="11" lengthAdjust="spacingAndGlyphs" textLength="109" x="434" y="303.0449">LibraryName : String</text><line style="stroke: #A80036; stroke-width: 1.5;" x1="415" x2="573" y1="309.3652" y2="309.3652"/><!--class Sensor--><rect fill="#FEFECE" filter="url(#fpohjii2rxhqi)" height="73.9102" id="Sensor" style="stroke: #A80036; stroke-width: 1.5;" width="100" x="89" y="27.5"/><ellipse cx="117.5" cy="43.5" fill="#ADD1B2" rx="11" ry="11" style="stroke: #A80036; stroke-width: 1.0;"/><path d="M120.4731,49.1431 Q119.8921,49.4419 119.2529,49.5913 Q118.6138,49.7407 117.9082,49.7407 Q115.4014,49.7407 114.0815,48.0889 Q112.7617,46.437 112.7617,43.3159 Q112.7617,40.1865 114.0815,38.5347 Q115.4014,36.8828 117.9082,36.8828 Q118.6138,36.8828 119.2612,37.0322 Q119.9087,37.1816 120.4731,37.4805 L120.4731,40.2031 Q119.8423,39.6221 119.2488,39.3523 Q118.6553,39.0825 118.0244,39.0825 Q116.6797,39.0825 115.9949,40.1492 Q115.3101,41.2158 115.3101,43.3159 Q115.3101,45.4077 115.9949,46.4744 Q116.6797,47.541 118.0244,47.541 Q118.6553,47.541 119.2488,47.2712 Q119.8423,47.0015 120.4731,46.4204 Z "/><text fill="#000000" font-family="sans-serif" font-size="12" lengthAdjust="spacingAndGlyphs" textLength="38" x="134.5" y="48.0352">Sensor</text><line style="stroke: #A80036; stroke-width: 1.5;" x1="90" x2="188" y1="59.5" y2="59.5"/><rect fill="none" height="6" style="stroke: #C82930; stroke-width: 1.0;" width="6" x="97" y="68.4775"/><text fill="#000000" font-family="sans-serif" font-size="11" lengthAdjust="spacingAndGlyphs" textLength="74" x="109" y="74.1348">Status : String</text><rect fill="none" height="6" style="stroke: #C82930; stroke-width: 1.0;" width="6" x="97" y="81.4326"/><text fill="#000000" font-family="sans-serif" font-size="11" lengthAdjust="spacingAndGlyphs" textLength="71" x="109" y="87.0898">SensorID : int</text><line style="stroke: #A80036; stroke-width: 1.5;" x1="90" x2="188" y1="93.4102" y2="93.4102"/><!--link Sensor to User--><path d="M189.2539,64.5 C199.0077,64.5 208.7616,64.5 218.5154,64.5 " fill="none" id="Sensor-User" style="stroke: #A80036; stroke-width: 1.0;"/><polygon fill="#A80036" points="223.616,64.5,214.616,60.5,218.616,64.5,214.616,68.5,223.616,64.5" style="stroke: #A80036; stroke-width: 1.0;"/><text fill="#000000" font-family="sans-serif" font-size="13" lengthAdjust="spacingAndGlyphs" textLength="8" x="196.8834" y="61.0418">1</text><text fill="#000000" font-family="sans-serif" font-size="13" lengthAdjust="spacingAndGlyphs" textLength="8" x="208.0115" y="61.4242">1</text><!--link User to SoundSource--><path d="M249.7947,121.1937 C227.9533,143.6239 202.4573,169.8074 178.8035,194.0988 " fill="none" id="User-SoundSource" style="stroke: #A80036; stroke-width: 1.0;"/><polygon fill="#A80036" points="175.0239,197.9803,184.1685,194.3229,178.5121,194.3981,178.4369,188.7417,175.0239,197.9803" style="stroke: #A80036; stroke-width: 1.0;"/><text fill="#000000" font-family="sans-serif" font-size="13" lengthAdjust="spacingAndGlyphs" textLength="43" x="216" y="164.5684">upload</text><text fill="#000000" font-family="sans-serif" font-size="13" lengthAdjust="spacingAndGlyphs" textLength="8" x="234.9491" y="141.2154">1</text><text fill="#000000" font-family="sans-serif" font-size="13" lengthAdjust="spacingAndGlyphs" textLength="6" x="176.0153" y="187.3602">*</text><!--link User to VirtualSoundSpace--><path d="M305,121.1937 C305,145.1647 305,173.4223 305,199.0761 " fill="none" id="User-VirtualSoundSpace" style="stroke: #A80036; stroke-width: 1.0;"/><polygon fill="#A80036" points="305,204.1702,309,195.1702,305,199.1702,301,195.1702,305,204.1702" style="stroke: #A80036; stroke-width: 1.0;"/><text fill="#000000" font-family="sans-serif" font-size="13" lengthAdjust="spacingAndGlyphs" textLength="38" x="306" y="164.5684">create</text><text fill="#000000" font-family="sans-serif" font-size="13" lengthAdjust="spacingAndGlyphs" textLength="8" x="296.5375" y="141.2154">1</text><text fill="#000000" font-family="sans-serif" font-size="13" lengthAdjust="spacingAndGlyphs" textLength="6" x="298.6906" y="193.7962">*</text><!--link User to SoundSpaceLibrary--><path d="M356.1461,121.1937 C385.8759,154.1481 422.9145,195.2042 451.1107,226.4587 " fill="none" id="User-SoundSpaceLibrary" style="stroke: #A80036; stroke-width: 1.0;"/><polygon fill="#A80036" points="454.5044,230.2205,451.4458,220.8586,451.1552,226.508,445.5058,226.2174,454.5044,230.2205" style="stroke: #A80036; stroke-width: 1.0;"/><text fill="#000000" font-family="sans-serif" font-size="13" lengthAdjust="spacingAndGlyphs" textLength="22" x="394" y="164.5684">has</text><text fill="#000000" font-family="sans-serif" font-size="13" lengthAdjust="spacingAndGlyphs" textLength="8" x="353.5974" y="141.2154">1</text><text fill="#000000" font-family="sans-serif" font-size="13" lengthAdjust="spacingAndGlyphs" textLength="8" x="439.5723" y="219.6517">1</text><!--link SoundSource to VirtualSoundSpace--><path d="M196.2266,274 C203.3071,274 210.3876,274 217.4681,274 " fill="none" id="SoundSource-VirtualSoundSpace" style="stroke: #A80036; stroke-width: 1.0;"/><polygon fill="#A80036" points="230.6432,274,224.6432,270,218.6432,274,224.6432,278,230.6432,274" style="stroke: #A80036; stroke-width: 1.0;"/><text fill="#000000" font-family="sans-serif" font-size="13" lengthAdjust="spacingAndGlyphs" textLength="6" x="204.054" y="270.9974">*</text><text fill="#000000" font-family="sans-serif" font-size="13" lengthAdjust="spacingAndGlyphs" textLength="8" x="214.93" y="270.8608">1</text><!--link VirtualSoundSpace to SoundSpaceLibrary--><path d="M379.1973,274 C386.3012,274 393.4051,274 400.5091,274 " fill="none" id="VirtualSoundSpace-SoundSpaceLibrary" style="stroke: #A80036; stroke-width: 1.0;"/><polygon fill="#FFFFFF" points="413.7278,274,407.7278,270,401.7278,274,407.7278,278,413.7278,274" style="stroke: #A80036; stroke-width: 1.0;"/><text fill="#000000" font-family="sans-serif" font-size="13" lengthAdjust="spacingAndGlyphs" textLength="6" x="387.1583" y="270.8271">*</text><text fill="#000000" font-family="sans-serif" font-size="13" lengthAdjust="spacingAndGlyphs" textLength="8" x="397.959" y="270.8975">1</text><!--link VirtualSoundSpace to Like--><path d="M348.5281,343.5736 C366.0507,371.581 385.674,402.9461 400.914,427.3051 " fill="none" id="VirtualSoundSpace-Like" style="stroke: #A80036; stroke-width: 1.0;"/><polygon fill="#A80036" points="403.7071,431.7695,402.3246,422.0182,401.0552,427.5307,395.5426,426.2613,403.7071,431.7695" style="stroke: #A80036; stroke-width: 1.0;"/><text fill="#000000" font-family="sans-serif" font-size="13" lengthAdjust="spacingAndGlyphs" textLength="22" x="381" y="393.5684">has</text><text fill="#000000" font-family="sans-serif" font-size="13" lengthAdjust="spacingAndGlyphs" textLength="8" x="344.4191" y="363.7597">1</text><text fill="#000000" font-family="sans-serif" font-size="13" lengthAdjust="spacingAndGlyphs" textLength="8" x="390.675" y="421.1276">1</text><!--link VirtualSoundSpace to CommentList--><path d="M240.4214,343.5736 C211.7998,374.409 179.4005,409.3144 156.0612,434.4589 " fill="none" id="VirtualSoundSpace-CommentList" style="stroke: #A80036; stroke-width: 1.0;"/><polygon fill="#A80036" points="152.3951,438.4086,161.4495,434.5334,155.7966,434.7439,155.5861,429.091,152.3951,438.4086" style="stroke: #A80036; stroke-width: 1.0;"/><text fill="#000000" font-family="sans-serif" font-size="13" lengthAdjust="spacingAndGlyphs" textLength="22" x="204" y="393.5684">has</text><text fill="#000000" font-family="sans-serif" font-size="13" lengthAdjust="spacingAndGlyphs" textLength="8" x="225.6707" y="363.7597">1</text><text fill="#000000" font-family="sans-serif" font-size="13" lengthAdjust="spacingAndGlyphs" textLength="8" x="149.7315" y="427.6833">1</text><!--link Comment to CommentList--><path d="M215.3764,469 C208.0576,469 200.7388,469 193.42,469 " fill="none" id="Comment-CommentList" style="stroke: #A80036; stroke-width: 1.0;"/><polygon fill="#A80036" points="180.2461,469,186.2461,473,192.2461,469,186.2461,465,180.2461,469" style="stroke: #A80036; stroke-width: 1.0;"/><text fill="#000000" font-family="sans-serif" font-size="13" lengthAdjust="spacingAndGlyphs" textLength="6" x="201.3785" y="465.6787">*</text><text fill="#000000" font-family="sans-serif" font-size="13" lengthAdjust="spacingAndGlyphs" textLength="8" x="187.9651" y="465.6302">1</text><!--link User to User--><path d="M386.0409,47.1334 C406.0655,48.384 421,54.1729 421,64.5 C421,74.8271 406.0655,80.616 386.0409,81.8666 " fill="none" id="User-User" style="stroke: #A80036; stroke-width: 1.0;"/><text fill="#000000" font-family="sans-serif" font-size="13" lengthAdjust="spacingAndGlyphs" textLength="41" x="394.1324" y="42.7415">Viewer</text><text fill="#000000" font-family="sans-serif" font-size="13" lengthAdjust="spacingAndGlyphs" textLength="40" x="394.0926" y="80.2425">Owner</text><!--
@startuml
class User {
  -UserID : int
  -Username : String
  -Password : String
  -E-mail : String
  -UserProfile : Imageformat
}

class SoundSource {
  -SoundSourceID : int
  -SoundFragment : Soundformat
  -SoundLatitude : double
  -SoundLongitude : double
  -SoundAltitude : double
  -SoundVolume : int
  -SoundPattern : String
  -SoundName
}

class VirtualSoundSpace {
  -SoundSources : List
  -VSS_ID : int
  -OwnerID : int
  -VSSName : String
  -VSSDescription : String
  -Comments : List
  -Likes : List
}

package "Socializing Classes" #yellow{
  class Comment {
    -CommenterID : int
    -Comments : String
  }

  class CommentList {
    -Comments : List
  }

  class Like {
    -LikerIDs : List
    -LikeCount : int
  }
}

class SoundSpaceLibrary {
  -VirtualSoundSpaces : List
  -LibraryID : int
  -LibraryName : String
}

class Sensor {
  -Status : String
  -SensorID : int
}

Sensor "1" -> "1" User
"User" "1" - -> "*" SoundSource : upload
"User" "1" - -> "*" VirtualSoundSpace : create
"User" "1" - -> "1" SoundSpaceLibrary : has

SoundSource "*" -* "1" VirtualSoundSpace
VirtualSoundSpace "*" -o "1" SoundSpaceLibrary

VirtualSoundSpace "1" - -> "1" Like : has
VirtualSoundSpace "1" - -> "1" CommentList : has

Comment "*" -* "1" CommentList

User "Viewer" - - "Owner" User
@enduml

PlantUML version 1.2018.02(Sat Mar 10 01:20:44 CST 2018)
(GPL source distribution)
Java Runtime: Java(TM) SE Runtime Environment
JVM: Java HotSpot(TM) 64-Bit Server VM
Java Version: 1.8.0_151-b12
Operating System: Mac OS X
OS Version: 10.11.6
Default Encoding: UTF-8
Language: zh
Country: CN
--></g></svg>
