<?xml version="1.0" encoding="UTF-8" standalone="no"?><svg xmlns="http://www.w3.org/2000/svg" xmlns:xlink="http://www.w3.org/1999/xlink" contentScriptType="application/ecmascript" contentStyleType="text/css" height="330px" preserveAspectRatio="none" style="width:879px;height:330px;" version="1.1" viewBox="0 0 879 330"
    width="879px" zoomAndPan="magnify"><defs><filter height="300%" id="f1g0qc2oxbn4gu" width="300%" x="-1" y="-1"><feGaussianBlur result="blurOut" stdDeviation="2.0"/><feColorMatrix in="blurOut" result="blurOut2" type="matrix" values="0 0 0 0 0 0 0 0 0 0 0 0 0 0 0 0 0 0 .4 0"/><feOffset dx="4.0" dy="4.0" in="blurOut2" result="blurOut3"/><feBlend in="SourceGraphic" in2="blurOut3" mode="normal"/></filter></defs><g><!--class MapModeVirtualSoundSpace--><rect fill="#FEFECE" filter="url(#f1g0qc2oxbn4gu)" height="125.7305" id="MapModeVirtualSoundSpace" style="stroke: #A80036; stroke-width: 1.5;" width="195" x="6" y="194"/><ellipse cx="21" cy="210" fill="#ADD1B2" rx="11" ry="11" style="stroke: #A80036; stroke-width: 1.0;"/><path d="M23.9731,215.6431 Q23.3921,215.9419 22.7529,216.0913 Q22.1138,216.2407 21.4082,216.2407 Q18.9014,216.2407 17.5815,214.5889 Q16.2617,212.937 16.2617,209.8159 Q16.2617,206.6865 17.5815,205.0347 Q18.9014,203.3828 21.4082,203.3828 Q22.1138,203.3828 22.7612,203.5322 Q23.4087,203.6816 23.9731,203.9805 L23.9731,206.7031 Q23.3423,206.1221 22.7488,205.8523 Q22.1553,205.5825 21.5244,205.5825 Q20.1797,205.5825 19.4949,206.6492 Q18.8101,207.7158 18.8101,209.8159 Q18.8101,211.9077 19.4949,212.9744 Q20.1797,214.041 21.5244,214.041 Q22.1553,214.041 22.7488,213.7712 Q23.3423,213.5015 23.9731,212.9204 Z "/><text fill="#000000" font-family="sans-serif" font-size="12" lengthAdjust="spacingAndGlyphs" textLength="163" x="35" y="214.5352">MapModeVirtualSoundSpace</text><line style="stroke: #A80036; stroke-width: 1.5;" x1="7" x2="200" y1="226" y2="226"/><rect fill="none" height="6" style="stroke: #C82930; stroke-width: 1.0;" width="6" x="14" y="234.9775"/><text fill="#000000" font-family="sans-serif" font-size="11" lengthAdjust="spacingAndGlyphs" textLength="105" x="26" y="240.6348">soundSources : List</text><rect fill="none" height="6" style="stroke: #C82930; stroke-width: 1.0;" width="6" x="14" y="247.9326"/><text fill="#000000" font-family="sans-serif" font-size="11" lengthAdjust="spacingAndGlyphs" textLength="59" x="26" y="253.5898">VSS_ID : int</text><rect fill="none" height="6" style="stroke: #C82930; stroke-width: 1.0;" width="6" x="14" y="260.8877"/><text fill="#000000" font-family="sans-serif" font-size="11" lengthAdjust="spacingAndGlyphs" textLength="67" x="26" y="266.5449">ownerID : int</text><rect fill="none" height="6" style="stroke: #C82930; stroke-width: 1.0;" width="6" x="14" y="273.8428"/><text fill="#000000" font-family="sans-serif" font-size="11" lengthAdjust="spacingAndGlyphs" textLength="96" x="26" y="279.5">VSS_Name : String</text><rect fill="none" height="6" style="stroke: #C82930; stroke-width: 1.0;" width="6" x="14" y="286.7979"/><text fill="#000000" font-family="sans-serif" font-size="11" lengthAdjust="spacingAndGlyphs" textLength="128" x="26" y="292.4551">VSS_Description : String</text><rect fill="none" height="6" style="stroke: #C82930; stroke-width: 1.0;" width="6" x="14" y="299.7529"/><text fill="#000000" font-family="sans-serif" font-size="11" lengthAdjust="spacingAndGlyphs" textLength="74" x="26" y="305.4102">status : String</text><line style="stroke: #A80036; stroke-width: 1.5;" x1="7" x2="200" y1="311.7305" y2="311.7305"/><!--class ConcertModeVirtualSoundSpace--><rect fill="#FEFECE" filter="url(#f1g0qc2oxbn4gu)" height="125.7305" id="ConcertModeVirtualSoundSpace" style="stroke: #A80036; stroke-width: 1.5;" width="214" x="236.5" y="194"/><ellipse cx="251.5" cy="210" fill="#ADD1B2" rx="11" ry="11" style="stroke: #A80036; stroke-width: 1.0;"/><path d="M254.4731,215.6431 Q253.8921,215.9419 253.2529,216.0913 Q252.6138,216.2407 251.9082,216.2407 Q249.4014,216.2407 248.0815,214.5889 Q246.7617,212.937 246.7617,209.8159 Q246.7617,206.6865 248.0815,205.0347 Q249.4014,203.3828 251.9082,203.3828 Q252.6138,203.3828 253.2612,203.5322 Q253.9087,203.6816 254.4731,203.9805 L254.4731,206.7031 Q253.8423,206.1221 253.2488,205.8523 Q252.6553,205.5825 252.0244,205.5825 Q250.6797,205.5825 249.9949,206.6492 Q249.3101,207.7158 249.3101,209.8159 Q249.3101,211.9077 249.9949,212.9744 Q250.6797,214.041 252.0244,214.041 Q252.6553,214.041 253.2488,213.7712 Q253.8423,213.5015 254.4731,212.9204 Z "/><text fill="#000000" font-family="sans-serif" font-size="12" lengthAdjust="spacingAndGlyphs" textLength="182" x="265.5" y="214.5352">ConcertModeVirtualSoundSpace</text><line style="stroke: #A80036; stroke-width: 1.5;" x1="237.5" x2="449.5" y1="226" y2="226"/><rect fill="none" height="6" style="stroke: #C82930; stroke-width: 1.0;" width="6" x="244.5" y="234.9775"/><text fill="#000000" font-family="sans-serif" font-size="11" lengthAdjust="spacingAndGlyphs" textLength="105" x="256.5" y="240.6348">soundSources : List</text><rect fill="none" height="6" style="stroke: #C82930; stroke-width: 1.0;" width="6" x="244.5" y="247.9326"/><text fill="#000000" font-family="sans-serif" font-size="11" lengthAdjust="spacingAndGlyphs" textLength="59" x="256.5" y="253.5898">VSS_ID : int</text><rect fill="none" height="6" style="stroke: #C82930; stroke-width: 1.0;" width="6" x="244.5" y="260.8877"/><text fill="#000000" font-family="sans-serif" font-size="11" lengthAdjust="spacingAndGlyphs" textLength="67" x="256.5" y="266.5449">ownerID : int</text><rect fill="none" height="6" style="stroke: #C82930; stroke-width: 1.0;" width="6" x="244.5" y="273.8428"/><text fill="#000000" font-family="sans-serif" font-size="11" lengthAdjust="spacingAndGlyphs" textLength="96" x="256.5" y="279.5">VSS_Name : String</text><rect fill="none" height="6" style="stroke: #C82930; stroke-width: 1.0;" width="6" x="244.5" y="286.7979"/><text fill="#000000" font-family="sans-serif" font-size="11" lengthAdjust="spacingAndGlyphs" textLength="128" x="256.5" y="292.4551">VSS_Description : String</text><rect fill="none" height="6" style="stroke: #C82930; stroke-width: 1.0;" width="6" x="244.5" y="299.7529"/><text fill="#000000" font-family="sans-serif" font-size="11" lengthAdjust="spacingAndGlyphs" textLength="74" x="256.5" y="305.4102">status : String</text><line style="stroke: #A80036; stroke-width: 1.5;" x1="237.5" x2="449.5" y1="311.7305" y2="311.7305"/><!--class LocalSoundSpaceLibrary--><rect fill="#FEFECE" filter="url(#f1g0qc2oxbn4gu)" height="86.8652" id="LocalSoundSpaceLibrary" style="stroke: #A80036; stroke-width: 1.5;" width="170" x="485.5" y="213.5"/><ellipse cx="500.5" cy="229.5" fill="#ADD1B2" rx="11" ry="11" style="stroke: #A80036; stroke-width: 1.0;"/><path d="M503.4731,235.1431 Q502.8921,235.4419 502.2529,235.5913 Q501.6138,235.7407 500.9082,235.7407 Q498.4014,235.7407 497.0815,234.0889 Q495.7617,232.437 495.7617,229.3159 Q495.7617,226.1865 497.0815,224.5347 Q498.4014,222.8828 500.9082,222.8828 Q501.6138,222.8828 502.2612,223.0322 Q502.9087,223.1816 503.4731,223.4805 L503.4731,226.2031 Q502.8423,225.6221 502.2488,225.3523 Q501.6553,225.0825 501.0244,225.0825 Q499.6797,225.0825 498.9949,226.1492 Q498.3101,227.2158 498.3101,229.3159 Q498.3101,231.4077 498.9949,232.4744 Q499.6797,233.541 501.0244,233.541 Q501.6553,233.541 502.2488,233.2712 Q502.8423,233.0015 503.4731,232.4204 Z "/><text fill="#000000" font-family="sans-serif" font-size="12" lengthAdjust="spacingAndGlyphs" textLength="138" x="514.5" y="234.0352">LocalSoundSpaceLibrary</text><line style="stroke: #A80036; stroke-width: 1.5;" x1="486.5" x2="654.5" y1="245.5" y2="245.5"/><rect fill="none" height="6" style="stroke: #C82930; stroke-width: 1.0;" width="6" x="493.5" y="254.4775"/><text fill="#000000" font-family="sans-serif" font-size="11" lengthAdjust="spacingAndGlyphs" textLength="133" x="505.5" y="260.1348">virtualSoundSpaces : List</text><rect fill="none" height="6" style="stroke: #C82930; stroke-width: 1.0;" width="6" x="493.5" y="267.4326"/><text fill="#000000" font-family="sans-serif" font-size="11" lengthAdjust="spacingAndGlyphs" textLength="69" x="505.5" y="273.0898">libraryID : int</text><rect fill="none" height="6" style="stroke: #C82930; stroke-width: 1.0;" width="6" x="493.5" y="280.3877"/><text fill="#000000" font-family="sans-serif" font-size="11" lengthAdjust="spacingAndGlyphs" textLength="106" x="505.5" y="286.0449">libraryName : String</text><line style="stroke: #A80036; stroke-width: 1.5;" x1="486.5" x2="654.5" y1="292.3652" y2="292.3652"/><!--class OnlineSoundSpaceLibrary--><rect fill="#FEFECE" filter="url(#f1g0qc2oxbn4gu)" height="86.8652" id="OnlineSoundSpaceLibrary" style="stroke: #A80036; stroke-width: 1.5;" width="177" x="691" y="213.5"/><ellipse cx="706" cy="229.5" fill="#ADD1B2" rx="11" ry="11" style="stroke: #A80036; stroke-width: 1.0;"/><path d="M708.9731,235.1431 Q708.3921,235.4419 707.7529,235.5913 Q707.1138,235.7407 706.4082,235.7407 Q703.9014,235.7407 702.5815,234.0889 Q701.2617,232.437 701.2617,229.3159 Q701.2617,226.1865 702.5815,224.5347 Q703.9014,222.8828 706.4082,222.8828 Q707.1138,222.8828 707.7612,223.0322 Q708.4087,223.1816 708.9731,223.4805 L708.9731,226.2031 Q708.3423,225.6221 707.7488,225.3523 Q707.1553,225.0825 706.5244,225.0825 Q705.1797,225.0825 704.4949,226.1492 Q703.8101,227.2158 703.8101,229.3159 Q703.8101,231.4077 704.4949,232.4744 Q705.1797,233.541 706.5244,233.541 Q707.1553,233.541 707.7488,233.2712 Q708.3423,233.0015 708.9731,232.4204 Z "/><text fill="#000000" font-family="sans-serif" font-size="12" lengthAdjust="spacingAndGlyphs" textLength="145" x="720" y="234.0352">OnlineSoundSpaceLibrary</text><line style="stroke: #A80036; stroke-width: 1.5;" x1="692" x2="867" y1="245.5" y2="245.5"/><rect fill="none" height="6" style="stroke: #C82930; stroke-width: 1.0;" width="6" x="699" y="254.4775"/><text fill="#000000" font-family="sans-serif" font-size="11" lengthAdjust="spacingAndGlyphs" textLength="133" x="711" y="260.1348">virtualSoundSpaces : List</text><rect fill="none" height="6" style="stroke: #C82930; stroke-width: 1.0;" width="6" x="699" y="267.4326"/><text fill="#000000" font-family="sans-serif" font-size="11" lengthAdjust="spacingAndGlyphs" textLength="69" x="711" y="273.0898">libraryID : int</text><rect fill="none" height="6" style="stroke: #C82930; stroke-width: 1.0;" width="6" x="699" y="280.3877"/><text fill="#000000" font-family="sans-serif" font-size="11" lengthAdjust="spacingAndGlyphs" textLength="106" x="711" y="286.0449">libraryName : String</text><line style="stroke: #A80036; stroke-width: 1.5;" x1="692" x2="867" y1="292.3652" y2="292.3652"/><!--class SoundSpaceLibrary--><rect fill="#FEFECE" filter="url(#f1g0qc2oxbn4gu)" height="86.8652" id="SoundSpaceLibrary" style="stroke: #A80036; stroke-width: 1.5;" width="159" x="595" y="27.5"/><ellipse cx="618.1" cy="43.5" fill="#A9DCDF" rx="11" ry="11" style="stroke: #A80036; stroke-width: 1.0;"/><path d="M618.2133,38.8481 L617.0595,43.9199 L619.3754,43.9199 Z M616.7191,36.6069 L619.7157,36.6069 L623.0609,49 L620.6122,49 L619.8485,45.937 L616.5697,45.937 L615.8227,49 L613.3739,49 Z "/><text fill="#000000" font-family="sans-serif" font-size="12" font-style="italic" lengthAdjust="spacingAndGlyphs" textLength="109" x="633.9" y="48.0352">SoundSpaceLibrary</text><line style="stroke: #A80036; stroke-width: 1.5;" x1="596" x2="753" y1="59.5" y2="59.5"/><rect fill="none" height="6" style="stroke: #C82930; stroke-width: 1.0;" width="6" x="603" y="68.4775"/><text fill="#000000" font-family="sans-serif" font-size="11" lengthAdjust="spacingAndGlyphs" textLength="133" x="615" y="74.1348">virtualSoundSpaces : List</text><rect fill="none" height="6" style="stroke: #C82930; stroke-width: 1.0;" width="6" x="603" y="81.4326"/><text fill="#000000" font-family="sans-serif" font-size="11" lengthAdjust="spacingAndGlyphs" textLength="69" x="615" y="87.0898">libraryID : int</text><rect fill="none" height="6" style="stroke: #C82930; stroke-width: 1.0;" width="6" x="603" y="94.3877"/><text fill="#000000" font-family="sans-serif" font-size="11" lengthAdjust="spacingAndGlyphs" textLength="106" x="615" y="100.0449">libraryName : String</text><line style="stroke: #A80036; stroke-width: 1.5;" x1="596" x2="753" y1="106.3652" y2="106.3652"/><!--class VirtualSoundSpace--><rect fill="#FEFECE" filter="url(#f1g0qc2oxbn4gu)" height="125.7305" id="VirtualSoundSpace" style="stroke: #A80036; stroke-width: 1.5;" width="154" x="146.5" y="8"/><ellipse cx="168.7" cy="24" fill="#A9DCDF" rx="11" ry="11" style="stroke: #A80036; stroke-width: 1.0;"/><path d="M168.8133,19.3481 L167.6595,24.4199 L169.9754,24.4199 Z M167.3191,17.1069 L170.3157,17.1069 L173.6609,29.5 L171.2122,29.5 L170.4485,26.437 L167.1697,26.437 L166.4227,29.5 L163.9739,29.5 Z "/><text fill="#000000" font-family="sans-serif" font-size="12" font-style="italic" lengthAdjust="spacingAndGlyphs" textLength="106" x="184.3" y="28.5352">VirtualSoundSpace</text><line style="stroke: #A80036; stroke-width: 1.5;" x1="147.5" x2="299.5" y1="40" y2="40"/><rect fill="none" height="6" style="stroke: #C82930; stroke-width: 1.0;" width="6" x="154.5" y="48.9775"/><text fill="#000000" font-family="sans-serif" font-size="11" lengthAdjust="spacingAndGlyphs" textLength="105" x="166.5" y="54.6348">soundSources : List</text><rect fill="none" height="6" style="stroke: #C82930; stroke-width: 1.0;" width="6" x="154.5" y="61.9326"/><text fill="#000000" font-family="sans-serif" font-size="11" lengthAdjust="spacingAndGlyphs" textLength="59" x="166.5" y="67.5898">VSS_ID : int</text><rect fill="none" height="6" style="stroke: #C82930; stroke-width: 1.0;" width="6" x="154.5" y="74.8877"/><text fill="#000000" font-family="sans-serif" font-size="11" lengthAdjust="spacingAndGlyphs" textLength="67" x="166.5" y="80.5449">ownerID : int</text><rect fill="none" height="6" style="stroke: #C82930; stroke-width: 1.0;" width="6" x="154.5" y="87.8428"/><text fill="#000000" font-family="sans-serif" font-size="11" lengthAdjust="spacingAndGlyphs" textLength="96" x="166.5" y="93.5">VSS_Name : String</text><rect fill="none" height="6" style="stroke: #C82930; stroke-width: 1.0;" width="6" x="154.5" y="100.7979"/><text fill="#000000" font-family="sans-serif" font-size="11" lengthAdjust="spacingAndGlyphs" textLength="128" x="166.5" y="106.4551">VSS_Description : String</text><rect fill="none" height="6" style="stroke: #C82930; stroke-width: 1.0;" width="6" x="154.5" y="113.7529"/><text fill="#000000" font-family="sans-serif" font-size="11" lengthAdjust="spacingAndGlyphs" textLength="74" x="166.5" y="119.4102">status : String</text><line style="stroke: #A80036; stroke-width: 1.5;" x1="147.5" x2="299.5" y1="125.7305" y2="125.7305"/><!--link SoundSpaceLibrary to LocalSoundSpaceLibrary--><path d="M640.272,132.2154 C625.4454,158.7323 608.4275,189.1681 594.9106,213.3426 " fill="none" id="SoundSpaceLibrary-LocalSoundSpaceLibrary" style="stroke: #A80036; stroke-width: 1.0;"/><polygon fill="none" points="634.2462,128.649,650.1166,114.6087,646.4657,135.4815,634.2462,128.649" style="stroke: #A80036; stroke-width: 1.0;"/><!--link SoundSpaceLibrary to OnlineSoundSpaceLibrary--><path d="M709.0571,132.2154 C724.0263,158.7323 741.2078,189.1681 754.8547,213.3426 " fill="none" id="SoundSpaceLibrary-OnlineSoundSpaceLibrary" style="stroke: #A80036; stroke-width: 1.0;"/><polygon fill="none" points="702.854,135.4664,699.1178,114.6087,715.0455,128.5841,702.854,135.4664" style="stroke: #A80036; stroke-width: 1.0;"/><!--link VirtualSoundSpace to MapModeVirtualSoundSpace--><path d="M171.6746,151.3294 C162.4757,165.5876 153.0157,180.2507 144.1811,193.9443 " fill="none" id="VirtualSoundSpace-MapModeVirtualSoundSpace" style="stroke: #A80036; stroke-width: 1.0;"/><polygon fill="none" points="165.9814,147.2417,182.706,134.2307,177.7455,154.8315,165.9814,147.2417" style="stroke: #A80036; stroke-width: 1.0;"/><!--link VirtualSoundSpace to ConcertModeVirtualSoundSpace--><path d="M275.3254,151.3294 C284.5243,165.5876 293.9843,180.2507 302.8189,193.9443 " fill="none" id="VirtualSoundSpace-ConcertModeVirtualSoundSpace" style="stroke: #A80036; stroke-width: 1.0;"/><polygon fill="none" points="269.2545,154.8315,264.294,134.2307,281.0186,147.2417,269.2545,154.8315" style="stroke: #A80036; stroke-width: 1.0;"/><!--
@startuml
class MapModeVirtualSoundSpace {
  -soundSources : List
  -VSS_ID : int
  -ownerID : int
  -VSS_Name : String
  -VSS_Description : String
  -status : String
}

class ConcertModeVirtualSoundSpace {
  -soundSources : List
  -VSS_ID : int
  -ownerID : int
  -VSS_Name : String
  -VSS_Description : String
  -status : String
}

class LocalSoundSpaceLibrary {
  -virtualSoundSpaces : List
  -libraryID : int
  -libraryName : String
}

class OnlineSoundSpaceLibrary {
  -virtualSoundSpaces : List
  -libraryID : int
  -libraryName : String
}

abstract SoundSpaceLibrary {
  -virtualSoundSpaces : List
  -libraryID : int
  -libraryName : String
}

abstract VirtualSoundSpace {
  -soundSources : List
  -VSS_ID : int
  -ownerID : int
  -VSS_Name : String
  -VSS_Description : String
  -status : String
}

top to bottom direction
SoundSpaceLibrary <|- - LocalSoundSpaceLibrary
SoundSpaceLibrary <|- - OnlineSoundSpaceLibrary

VirtualSoundSpace <|- - MapModeVirtualSoundSpace
VirtualSoundSpace <|- - ConcertModeVirtualSoundSpace
@enduml

PlantUML version 1.2018.02(Sat Mar 10 01:20:44 CST 2018)
(GPL source distribution)
Java Runtime: Java(TM) SE Runtime Environment
JVM: Java HotSpot(TM) 64-Bit Server VM
Java Version: 1.8.0_151-b12
Operating System: Mac OS X
OS Version: 10.11.6
Default Encoding: UTF-8
Language: zh
Country: CN
--></g></svg>
