<?xml version="1.0" encoding="UTF-8" standalone="no"?><svg xmlns="http://www.w3.org/2000/svg" xmlns:xlink="http://www.w3.org/1999/xlink" contentScriptType="application/ecmascript" contentStyleType="text/css" height="542px" preserveAspectRatio="none" style="width:983px;height:542px;" version="1.1" viewBox="0 0 983 542"
    width="983px" zoomAndPan="magnify"><defs><filter height="300%" id="f134cb56so7bxu" width="300%" x="-1" y="-1"><feGaussianBlur result="blurOut" stdDeviation="2.0"/><feColorMatrix in="blurOut" result="blurOut2" type="matrix" values="0 0 0 0 0 0 0 0 0 0 0 0 0 0 0 0 0 0 .4 0"/><feOffset dx="4.0" dy="4.0" in="blurOut2" result="blurOut3"/><feBlend in="SourceGraphic" in2="blurOut3" mode="normal"/></filter></defs><g><!--cluster Socializing Classes--><polygon fill="#FFFF00" filter="url(#f134cb56so7bxu)" points="352,238,496,238,503,260.4883,687,260.4883,687,321,352,321,352,238" style="stroke: #000000; stroke-width: 1.5;"/><line style="stroke: #000000; stroke-width: 1.5;" x1="352" x2="503" y1="260.4883" y2="260.4883"/><text fill="#000000" font-family="sans-serif" font-size="14" font-weight="bold" lengthAdjust="spacingAndGlyphs" textLength="138" x="356" y="253.5352">Socializing Classes</text><!--class Comment--><rect fill="#FEFECE" filter="url(#f134cb56so7bxu)" height="48" id="Comment" style="stroke: #A80036; stroke-width: 1.5;" width="87" x="450.5" y="265"/><ellipse cx="465.5" cy="281" fill="#ADD1B2" rx="11" ry="11" style="stroke: #A80036; stroke-width: 1.0;"/><path d="M468.4731,286.6431 Q467.8921,286.9419 467.2529,287.0913 Q466.6138,287.2407 465.9082,287.2407 Q463.4014,287.2407 462.0815,285.5889 Q460.7617,283.937 460.7617,280.8159 Q460.7617,277.6865 462.0815,276.0347 Q463.4014,274.3828 465.9082,274.3828 Q466.6138,274.3828 467.2612,274.5322 Q467.9087,274.6816 468.4731,274.9805 L468.4731,277.7031 Q467.8423,277.1221 467.2488,276.8523 Q466.6553,276.5825 466.0244,276.5825 Q464.6797,276.5825 463.9949,277.6492 Q463.3101,278.7158 463.3101,280.8159 Q463.3101,282.9077 463.9949,283.9744 Q464.6797,285.041 466.0244,285.041 Q466.6553,285.041 467.2488,284.7712 Q467.8423,284.5015 468.4731,283.9204 Z "/><text fill="#000000" font-family="sans-serif" font-size="12" lengthAdjust="spacingAndGlyphs" textLength="55" x="479.5" y="285.5352">Comment</text><line style="stroke: #A80036; stroke-width: 1.5;" x1="451.5" x2="536.5" y1="297" y2="297"/><line style="stroke: #A80036; stroke-width: 1.5;" x1="451.5" x2="536.5" y1="305" y2="305"/><!--class CommentList--><rect fill="#FEFECE" filter="url(#f134cb56so7bxu)" height="48" id="CommentList" style="stroke: #A80036; stroke-width: 1.5;" width="106" x="573" y="265"/><ellipse cx="588" cy="281" fill="#ADD1B2" rx="11" ry="11" style="stroke: #A80036; stroke-width: 1.0;"/><path d="M590.9731,286.6431 Q590.3921,286.9419 589.7529,287.0913 Q589.1138,287.2407 588.4082,287.2407 Q585.9014,287.2407 584.5815,285.5889 Q583.2617,283.937 583.2617,280.8159 Q583.2617,277.6865 584.5815,276.0347 Q585.9014,274.3828 588.4082,274.3828 Q589.1138,274.3828 589.7612,274.5322 Q590.4087,274.6816 590.9731,274.9805 L590.9731,277.7031 Q590.3423,277.1221 589.7488,276.8523 Q589.1553,276.5825 588.5244,276.5825 Q587.1797,276.5825 586.4949,277.6492 Q585.8101,278.7158 585.8101,280.8159 Q585.8101,282.9077 586.4949,283.9744 Q587.1797,285.041 588.5244,285.041 Q589.1553,285.041 589.7488,284.7712 Q590.3423,284.5015 590.9731,283.9204 Z "/><text fill="#000000" font-family="sans-serif" font-size="12" lengthAdjust="spacingAndGlyphs" textLength="74" x="602" y="285.5352">CommentList</text><line style="stroke: #A80036; stroke-width: 1.5;" x1="574" x2="678" y1="297" y2="297"/><line style="stroke: #A80036; stroke-width: 1.5;" x1="574" x2="678" y1="305" y2="305"/><!--class Like--><rect fill="#FEFECE" filter="url(#f134cb56so7bxu)" height="48" id="Like" style="stroke: #A80036; stroke-width: 1.5;" width="55" x="360.5" y="265"/><ellipse cx="375.5" cy="281" fill="#ADD1B2" rx="11" ry="11" style="stroke: #A80036; stroke-width: 1.0;"/><path d="M378.4731,286.6431 Q377.8921,286.9419 377.2529,287.0913 Q376.6138,287.2407 375.9082,287.2407 Q373.4014,287.2407 372.0815,285.5889 Q370.7617,283.937 370.7617,280.8159 Q370.7617,277.6865 372.0815,276.0347 Q373.4014,274.3828 375.9082,274.3828 Q376.6138,274.3828 377.2612,274.5322 Q377.9087,274.6816 378.4731,274.9805 L378.4731,277.7031 Q377.8423,277.1221 377.2488,276.8523 Q376.6553,276.5825 376.0244,276.5825 Q374.6797,276.5825 373.9949,277.6492 Q373.3101,278.7158 373.3101,280.8159 Q373.3101,282.9077 373.9949,283.9744 Q374.6797,285.041 376.0244,285.041 Q376.6553,285.041 377.2488,284.7712 Q377.8423,284.5015 378.4731,283.9204 Z "/><text fill="#000000" font-family="sans-serif" font-size="12" lengthAdjust="spacingAndGlyphs" textLength="23" x="389.5" y="285.5352">Like</text><line style="stroke: #A80036; stroke-width: 1.5;" x1="361.5" x2="414.5" y1="297" y2="297"/><line style="stroke: #A80036; stroke-width: 1.5;" x1="361.5" x2="414.5" y1="305" y2="305"/><!--class User--><rect fill="#FEFECE" filter="url(#f134cb56so7bxu)" height="48" id="User" style="stroke: #A80036; stroke-width: 1.5;" width="58" x="390" y="10"/><ellipse cx="405" cy="26" fill="#ADD1B2" rx="11" ry="11" style="stroke: #A80036; stroke-width: 1.0;"/><path d="M407.9731,31.6431 Q407.3921,31.9419 406.7529,32.0913 Q406.1138,32.2407 405.4082,32.2407 Q402.9014,32.2407 401.5815,30.5889 Q400.2617,28.937 400.2617,25.8159 Q400.2617,22.6865 401.5815,21.0347 Q402.9014,19.3828 405.4082,19.3828 Q406.1138,19.3828 406.7612,19.5322 Q407.4087,19.6816 407.9731,19.9805 L407.9731,22.7031 Q407.3423,22.1221 406.7488,21.8523 Q406.1553,21.5825 405.5244,21.5825 Q404.1797,21.5825 403.4949,22.6492 Q402.8101,23.7158 402.8101,25.8159 Q402.8101,27.9077 403.4949,28.9744 Q404.1797,30.041 405.5244,30.041 Q406.1553,30.041 406.7488,29.7712 Q407.3423,29.5015 407.9731,28.9204 Z "/><text fill="#000000" font-family="sans-serif" font-size="12" lengthAdjust="spacingAndGlyphs" textLength="26" x="419" y="30.5352">User</text><line style="stroke: #A80036; stroke-width: 1.5;" x1="391" x2="447" y1="42" y2="42"/><line style="stroke: #A80036; stroke-width: 1.5;" x1="391" x2="447" y1="50" y2="50"/><!--class SoundSource--><rect fill="#FEFECE" filter="url(#f134cb56so7bxu)" height="48" id="SoundSource" style="stroke: #A80036; stroke-width: 1.5;" width="105" x="209.5" y="135"/><ellipse cx="224.5" cy="151" fill="#ADD1B2" rx="11" ry="11" style="stroke: #A80036; stroke-width: 1.0;"/><path d="M227.4731,156.6431 Q226.8921,156.9419 226.2529,157.0913 Q225.6138,157.2407 224.9082,157.2407 Q222.4014,157.2407 221.0815,155.5889 Q219.7617,153.937 219.7617,150.8159 Q219.7617,147.6865 221.0815,146.0347 Q222.4014,144.3828 224.9082,144.3828 Q225.6138,144.3828 226.2612,144.5322 Q226.9087,144.6816 227.4731,144.9805 L227.4731,147.7031 Q226.8423,147.1221 226.2488,146.8523 Q225.6553,146.5825 225.0244,146.5825 Q223.6797,146.5825 222.9949,147.6492 Q222.3101,148.7158 222.3101,150.8159 Q222.3101,152.9077 222.9949,153.9744 Q223.6797,155.041 225.0244,155.041 Q225.6553,155.041 226.2488,154.7712 Q226.8423,154.5015 227.4731,153.9204 Z "/><text fill="#000000" font-family="sans-serif" font-size="12" lengthAdjust="spacingAndGlyphs" textLength="73" x="238.5" y="155.5352">SoundSource</text><line style="stroke: #A80036; stroke-width: 1.5;" x1="210.5" x2="313.5" y1="167" y2="167"/><line style="stroke: #A80036; stroke-width: 1.5;" x1="210.5" x2="313.5" y1="175" y2="175"/><!--class VirtualSoundSpace--><rect fill="#FEFECE" filter="url(#f134cb56so7bxu)" height="48" id="VirtualSoundSpace" style="stroke: #A80036; stroke-width: 1.5;" width="138" x="350" y="135"/><ellipse cx="365" cy="151" fill="#ADD1B2" rx="11" ry="11" style="stroke: #A80036; stroke-width: 1.0;"/><path d="M367.9731,156.6431 Q367.3921,156.9419 366.7529,157.0913 Q366.1138,157.2407 365.4082,157.2407 Q362.9014,157.2407 361.5815,155.5889 Q360.2617,153.937 360.2617,150.8159 Q360.2617,147.6865 361.5815,146.0347 Q362.9014,144.3828 365.4082,144.3828 Q366.1138,144.3828 366.7612,144.5322 Q367.4087,144.6816 367.9731,144.9805 L367.9731,147.7031 Q367.3423,147.1221 366.7488,146.8523 Q366.1553,146.5825 365.5244,146.5825 Q364.1797,146.5825 363.4949,147.6492 Q362.8101,148.7158 362.8101,150.8159 Q362.8101,152.9077 363.4949,153.9744 Q364.1797,155.041 365.5244,155.041 Q366.1553,155.041 366.7488,154.7712 Q367.3423,154.5015 367.9731,153.9204 Z "/><text fill="#000000" font-family="sans-serif" font-size="12" lengthAdjust="spacingAndGlyphs" textLength="106" x="379" y="155.5352">VirtualSoundSpace</text><line style="stroke: #A80036; stroke-width: 1.5;" x1="351" x2="487" y1="167" y2="167"/><line style="stroke: #A80036; stroke-width: 1.5;" x1="351" x2="487" y1="175" y2="175"/><!--class SoundSpaceLibrary--><rect fill="#FEFECE" filter="url(#f134cb56so7bxu)" height="48" id="SoundSpaceLibrary" style="stroke: #A80036; stroke-width: 1.5;" width="141" x="523.5" y="135"/><ellipse cx="538.5" cy="151" fill="#ADD1B2" rx="11" ry="11" style="stroke: #A80036; stroke-width: 1.0;"/><path d="M541.4731,156.6431 Q540.8921,156.9419 540.2529,157.0913 Q539.6138,157.2407 538.9082,157.2407 Q536.4014,157.2407 535.0815,155.5889 Q533.7617,153.937 533.7617,150.8159 Q533.7617,147.6865 535.0815,146.0347 Q536.4014,144.3828 538.9082,144.3828 Q539.6138,144.3828 540.2612,144.5322 Q540.9087,144.6816 541.4731,144.9805 L541.4731,147.7031 Q540.8423,147.1221 540.2488,146.8523 Q539.6553,146.5825 539.0244,146.5825 Q537.6797,146.5825 536.9949,147.6492 Q536.3101,148.7158 536.3101,150.8159 Q536.3101,152.9077 536.9949,153.9744 Q537.6797,155.041 539.0244,155.041 Q539.6553,155.041 540.2488,154.7712 Q540.8423,154.5015 541.4731,153.9204 Z "/><text fill="#000000" font-family="sans-serif" font-size="12" lengthAdjust="spacingAndGlyphs" textLength="109" x="552.5" y="155.5352">SoundSpaceLibrary</text><line style="stroke: #A80036; stroke-width: 1.5;" x1="524.5" x2="663.5" y1="167" y2="167"/><line style="stroke: #A80036; stroke-width: 1.5;" x1="524.5" x2="663.5" y1="175" y2="175"/><!--class Sensor--><rect fill="#FEFECE" filter="url(#f134cb56so7bxu)" height="48" id="Sensor" style="stroke: #A80036; stroke-width: 1.5;" width="70" x="268" y="10"/><ellipse cx="283" cy="26" fill="#ADD1B2" rx="11" ry="11" style="stroke: #A80036; stroke-width: 1.0;"/><path d="M285.9731,31.6431 Q285.3921,31.9419 284.7529,32.0913 Q284.1138,32.2407 283.4082,32.2407 Q280.9014,32.2407 279.5815,30.5889 Q278.2617,28.937 278.2617,25.8159 Q278.2617,22.6865 279.5815,21.0347 Q280.9014,19.3828 283.4082,19.3828 Q284.1138,19.3828 284.7612,19.5322 Q285.4087,19.6816 285.9731,19.9805 L285.9731,22.7031 Q285.3423,22.1221 284.7488,21.8523 Q284.1553,21.5825 283.5244,21.5825 Q282.1797,21.5825 281.4949,22.6492 Q280.8101,23.7158 280.8101,25.8159 Q280.8101,27.9077 281.4949,28.9744 Q282.1797,30.041 283.5244,30.041 Q284.1553,30.041 284.7488,29.7712 Q285.3423,29.5015 285.9731,28.9204 Z "/><text fill="#000000" font-family="sans-serif" font-size="12" lengthAdjust="spacingAndGlyphs" textLength="38" x="297" y="30.5352">Sensor</text><line style="stroke: #A80036; stroke-width: 1.5;" x1="269" x2="337" y1="42" y2="42"/><line style="stroke: #A80036; stroke-width: 1.5;" x1="269" x2="337" y1="50" y2="50"/><!--class UserInfoControl--><rect fill="#FEFECE" filter="url(#f134cb56so7bxu)" height="48" id="UserInfoControl" style="stroke: #A80036; stroke-width: 1.5;" width="120" x="693" y="10"/><ellipse cx="708" cy="26" fill="#ADD1B2" rx="11" ry="11" style="stroke: #A80036; stroke-width: 1.0;"/><path d="M710.9731,31.6431 Q710.3921,31.9419 709.7529,32.0913 Q709.1138,32.2407 708.4082,32.2407 Q705.9014,32.2407 704.5815,30.5889 Q703.2617,28.937 703.2617,25.8159 Q703.2617,22.6865 704.5815,21.0347 Q705.9014,19.3828 708.4082,19.3828 Q709.1138,19.3828 709.7612,19.5322 Q710.4087,19.6816 710.9731,19.9805 L710.9731,22.7031 Q710.3423,22.1221 709.7488,21.8523 Q709.1553,21.5825 708.5244,21.5825 Q707.1797,21.5825 706.4949,22.6492 Q705.8101,23.7158 705.8101,25.8159 Q705.8101,27.9077 706.4949,28.9744 Q707.1797,30.041 708.5244,30.041 Q709.1553,30.041 709.7488,29.7712 Q710.3423,29.5015 710.9731,28.9204 Z "/><text fill="#000000" font-family="sans-serif" font-size="12" lengthAdjust="spacingAndGlyphs" textLength="88" x="722" y="30.5352">UserInfoControl</text><line style="stroke: #A80036; stroke-width: 1.5;" x1="694" x2="812" y1="42" y2="42"/><line style="stroke: #A80036; stroke-width: 1.5;" x1="694" x2="812" y1="50" y2="50"/><!--class VSSControl--><rect fill="#FEFECE" filter="url(#f134cb56so7bxu)" height="48" id="VSSControl" style="stroke: #A80036; stroke-width: 1.5;" width="93" x="215.5" y="265"/><ellipse cx="230.5" cy="281" fill="#ADD1B2" rx="11" ry="11" style="stroke: #A80036; stroke-width: 1.0;"/><path d="M233.4731,286.6431 Q232.8921,286.9419 232.2529,287.0913 Q231.6138,287.2407 230.9082,287.2407 Q228.4014,287.2407 227.0815,285.5889 Q225.7617,283.937 225.7617,280.8159 Q225.7617,277.6865 227.0815,276.0347 Q228.4014,274.3828 230.9082,274.3828 Q231.6138,274.3828 232.2612,274.5322 Q232.9087,274.6816 233.4731,274.9805 L233.4731,277.7031 Q232.8423,277.1221 232.2488,276.8523 Q231.6553,276.5825 231.0244,276.5825 Q229.6797,276.5825 228.9949,277.6492 Q228.3101,278.7158 228.3101,280.8159 Q228.3101,282.9077 228.9949,283.9744 Q229.6797,285.041 231.0244,285.041 Q231.6553,285.041 232.2488,284.7712 Q232.8423,284.5015 233.4731,283.9204 Z "/><text fill="#000000" font-family="sans-serif" font-size="12" lengthAdjust="spacingAndGlyphs" textLength="61" x="244.5" y="285.5352">VSSControl</text><line style="stroke: #A80036; stroke-width: 1.5;" x1="216.5" x2="307.5" y1="297" y2="297"/><line style="stroke: #A80036; stroke-width: 1.5;" x1="216.5" x2="307.5" y1="305" y2="305"/><!--class VSSLibraryControl--><rect fill="#FEFECE" filter="url(#f134cb56so7bxu)" height="48" id="VSSLibraryControl" style="stroke: #A80036; stroke-width: 1.5;" width="133" x="714.5" y="265"/><ellipse cx="729.5" cy="281" fill="#ADD1B2" rx="11" ry="11" style="stroke: #A80036; stroke-width: 1.0;"/><path d="M732.4731,286.6431 Q731.8921,286.9419 731.2529,287.0913 Q730.6138,287.2407 729.9082,287.2407 Q727.4014,287.2407 726.0815,285.5889 Q724.7617,283.937 724.7617,280.8159 Q724.7617,277.6865 726.0815,276.0347 Q727.4014,274.3828 729.9082,274.3828 Q730.6138,274.3828 731.2612,274.5322 Q731.9087,274.6816 732.4731,274.9805 L732.4731,277.7031 Q731.8423,277.1221 731.2488,276.8523 Q730.6553,276.5825 730.0244,276.5825 Q728.6797,276.5825 727.9949,277.6492 Q727.3101,278.7158 727.3101,280.8159 Q727.3101,282.9077 727.9949,283.9744 Q728.6797,285.041 730.0244,285.041 Q730.6553,285.041 731.2488,284.7712 Q731.8423,284.5015 732.4731,283.9204 Z "/><text fill="#000000" font-family="sans-serif" font-size="12" lengthAdjust="spacingAndGlyphs" textLength="101" x="743.5" y="285.5352">VSSLibraryControl</text><line style="stroke: #A80036; stroke-width: 1.5;" x1="715.5" x2="846.5" y1="297" y2="297"/><line style="stroke: #A80036; stroke-width: 1.5;" x1="715.5" x2="846.5" y1="305" y2="305"/><!--class SocialControl--><rect fill="#FEFECE" filter="url(#f134cb56so7bxu)" height="48" id="SocialControl" style="stroke: #A80036; stroke-width: 1.5;" width="105" x="482.5" y="374"/><ellipse cx="497.5" cy="390" fill="#ADD1B2" rx="11" ry="11" style="stroke: #A80036; stroke-width: 1.0;"/><path d="M500.4731,395.6431 Q499.8921,395.9419 499.2529,396.0913 Q498.6138,396.2407 497.9082,396.2407 Q495.4014,396.2407 494.0815,394.5889 Q492.7617,392.937 492.7617,389.8159 Q492.7617,386.6865 494.0815,385.0347 Q495.4014,383.3828 497.9082,383.3828 Q498.6138,383.3828 499.2612,383.5322 Q499.9087,383.6816 500.4731,383.9805 L500.4731,386.7031 Q499.8423,386.1221 499.2488,385.8523 Q498.6553,385.5825 498.0244,385.5825 Q496.6797,385.5825 495.9949,386.6492 Q495.3101,387.7158 495.3101,389.8159 Q495.3101,391.9077 495.9949,392.9744 Q496.6797,394.041 498.0244,394.041 Q498.6553,394.041 499.2488,393.7712 Q499.8423,393.5015 500.4731,392.9204 Z "/><text fill="#000000" font-family="sans-serif" font-size="12" lengthAdjust="spacingAndGlyphs" textLength="73" x="511.5" y="394.5352">SocialControl</text><line style="stroke: #A80036; stroke-width: 1.5;" x1="483.5" x2="586.5" y1="406" y2="406"/><line style="stroke: #A80036; stroke-width: 1.5;" x1="483.5" x2="586.5" y1="414" y2="414"/><!--class SensorControl--><rect fill="#FEFECE" filter="url(#f134cb56so7bxu)" height="48" id="SensorControl" style="stroke: #A80036; stroke-width: 1.5;" width="111" x="87.5" y="10"/><ellipse cx="102.5" cy="26" fill="#ADD1B2" rx="11" ry="11" style="stroke: #A80036; stroke-width: 1.0;"/><path d="M105.4731,31.6431 Q104.8921,31.9419 104.2529,32.0913 Q103.6138,32.2407 102.9082,32.2407 Q100.4014,32.2407 99.0815,30.5889 Q97.7617,28.937 97.7617,25.8159 Q97.7617,22.6865 99.0815,21.0347 Q100.4014,19.3828 102.9082,19.3828 Q103.6138,19.3828 104.2612,19.5322 Q104.9087,19.6816 105.4731,19.9805 L105.4731,22.7031 Q104.8423,22.1221 104.2488,21.8523 Q103.6553,21.5825 103.0244,21.5825 Q101.6797,21.5825 100.9949,22.6492 Q100.3101,23.7158 100.3101,25.8159 Q100.3101,27.9077 100.9949,28.9744 Q101.6797,30.041 103.0244,30.041 Q103.6553,30.041 104.2488,29.7712 Q104.8423,29.5015 105.4731,28.9204 Z "/><text fill="#000000" font-family="sans-serif" font-size="12" lengthAdjust="spacingAndGlyphs" textLength="79" x="116.5" y="30.5352">SensorControl</text><line style="stroke: #A80036; stroke-width: 1.5;" x1="88.5" x2="197.5" y1="42" y2="42"/><line style="stroke: #A80036; stroke-width: 1.5;" x1="88.5" x2="197.5" y1="50" y2="50"/><!--class RegisterPage--><rect fill="#FEFECE" filter="url(#f134cb56so7bxu)" height="48" id="RegisterPage" style="stroke: #A80036; stroke-width: 1.5;" width="107" x="699.5" y="135"/><ellipse cx="714.5" cy="151" fill="#ADD1B2" rx="11" ry="11" style="stroke: #A80036; stroke-width: 1.0;"/><path d="M717.4731,156.6431 Q716.8921,156.9419 716.2529,157.0913 Q715.6138,157.2407 714.9082,157.2407 Q712.4014,157.2407 711.0815,155.5889 Q709.7617,153.937 709.7617,150.8159 Q709.7617,147.6865 711.0815,146.0347 Q712.4014,144.3828 714.9082,144.3828 Q715.6138,144.3828 716.2612,144.5322 Q716.9087,144.6816 717.4731,144.9805 L717.4731,147.7031 Q716.8423,147.1221 716.2488,146.8523 Q715.6553,146.5825 715.0244,146.5825 Q713.6797,146.5825 712.9949,147.6492 Q712.3101,148.7158 712.3101,150.8159 Q712.3101,152.9077 712.9949,153.9744 Q713.6797,155.041 715.0244,155.041 Q715.6553,155.041 716.2488,154.7712 Q716.8423,154.5015 717.4731,153.9204 Z "/><text fill="#000000" font-family="sans-serif" font-size="12" lengthAdjust="spacingAndGlyphs" textLength="75" x="728.5" y="155.5352">RegisterPage</text><line style="stroke: #A80036; stroke-width: 1.5;" x1="700.5" x2="805.5" y1="167" y2="167"/><line style="stroke: #A80036; stroke-width: 1.5;" x1="700.5" x2="805.5" y1="175" y2="175"/><!--class PersonalInfoPage--><rect fill="#FEFECE" filter="url(#f134cb56so7bxu)" height="48" id="PersonalInfoPage" style="stroke: #A80036; stroke-width: 1.5;" width="130" x="842" y="135"/><ellipse cx="857" cy="151" fill="#ADD1B2" rx="11" ry="11" style="stroke: #A80036; stroke-width: 1.0;"/><path d="M859.9731,156.6431 Q859.3921,156.9419 858.7529,157.0913 Q858.1138,157.2407 857.4082,157.2407 Q854.9014,157.2407 853.5815,155.5889 Q852.2617,153.937 852.2617,150.8159 Q852.2617,147.6865 853.5815,146.0347 Q854.9014,144.3828 857.4082,144.3828 Q858.1138,144.3828 858.7612,144.5322 Q859.4087,144.6816 859.9731,144.9805 L859.9731,147.7031 Q859.3423,147.1221 858.7488,146.8523 Q858.1553,146.5825 857.5244,146.5825 Q856.1797,146.5825 855.4949,147.6492 Q854.8101,148.7158 854.8101,150.8159 Q854.8101,152.9077 855.4949,153.9744 Q856.1797,155.041 857.5244,155.041 Q858.1553,155.041 858.7488,154.7712 Q859.3423,154.5015 859.9731,153.9204 Z "/><text fill="#000000" font-family="sans-serif" font-size="12" lengthAdjust="spacingAndGlyphs" textLength="98" x="871" y="155.5352">PersonalInfoPage</text><line style="stroke: #A80036; stroke-width: 1.5;" x1="843" x2="971" y1="167" y2="167"/><line style="stroke: #A80036; stroke-width: 1.5;" x1="843" x2="971" y1="175" y2="175"/><!--class LoginPage--><rect fill="#FEFECE" filter="url(#f134cb56so7bxu)" height="48" id="LoginPage" style="stroke: #A80036; stroke-width: 1.5;" width="90" x="848" y="10"/><ellipse cx="863" cy="26" fill="#ADD1B2" rx="11" ry="11" style="stroke: #A80036; stroke-width: 1.0;"/><path d="M865.9731,31.6431 Q865.3921,31.9419 864.7529,32.0913 Q864.1138,32.2407 863.4082,32.2407 Q860.9014,32.2407 859.5815,30.5889 Q858.2617,28.937 858.2617,25.8159 Q858.2617,22.6865 859.5815,21.0347 Q860.9014,19.3828 863.4082,19.3828 Q864.1138,19.3828 864.7612,19.5322 Q865.4087,19.6816 865.9731,19.9805 L865.9731,22.7031 Q865.3423,22.1221 864.7488,21.8523 Q864.1553,21.5825 863.5244,21.5825 Q862.1797,21.5825 861.4949,22.6492 Q860.8101,23.7158 860.8101,25.8159 Q860.8101,27.9077 861.4949,28.9744 Q862.1797,30.041 863.5244,30.041 Q864.1553,30.041 864.7488,29.7712 Q865.3423,29.5015 865.9731,28.9204 Z "/><text fill="#000000" font-family="sans-serif" font-size="12" lengthAdjust="spacingAndGlyphs" textLength="58" x="877" y="30.5352">LoginPage</text><line style="stroke: #A80036; stroke-width: 1.5;" x1="849" x2="937" y1="42" y2="42"/><line style="stroke: #A80036; stroke-width: 1.5;" x1="849" x2="937" y1="50" y2="50"/><!--class VSSManagerPage--><rect fill="#FEFECE" filter="url(#f134cb56so7bxu)" height="48" id="VSSManagerPage" style="stroke: #A80036; stroke-width: 1.5;" width="130" x="678" y="374"/><ellipse cx="693" cy="390" fill="#ADD1B2" rx="11" ry="11" style="stroke: #A80036; stroke-width: 1.0;"/><path d="M695.9731,395.6431 Q695.3921,395.9419 694.7529,396.0913 Q694.1138,396.2407 693.4082,396.2407 Q690.9014,396.2407 689.5815,394.5889 Q688.2617,392.937 688.2617,389.8159 Q688.2617,386.6865 689.5815,385.0347 Q690.9014,383.3828 693.4082,383.3828 Q694.1138,383.3828 694.7612,383.5322 Q695.4087,383.6816 695.9731,383.9805 L695.9731,386.7031 Q695.3423,386.1221 694.7488,385.8523 Q694.1553,385.5825 693.5244,385.5825 Q692.1797,385.5825 691.4949,386.6492 Q690.8101,387.7158 690.8101,389.8159 Q690.8101,391.9077 691.4949,392.9744 Q692.1797,394.041 693.5244,394.041 Q694.1553,394.041 694.7488,393.7712 Q695.3423,393.5015 695.9731,392.9204 Z "/><text fill="#000000" font-family="sans-serif" font-size="12" lengthAdjust="spacingAndGlyphs" textLength="98" x="707" y="394.5352">VSSManagerPage</text><line style="stroke: #A80036; stroke-width: 1.5;" x1="679" x2="807" y1="406" y2="406"/><line style="stroke: #A80036; stroke-width: 1.5;" x1="679" x2="807" y1="414" y2="414"/><!--class CreateVSSPage--><rect fill="#FEFECE" filter="url(#f134cb56so7bxu)" height="48" id="CreateVSSPage" style="stroke: #A80036; stroke-width: 1.5;" width="118" x="165" y="374"/><ellipse cx="180" cy="390" fill="#ADD1B2" rx="11" ry="11" style="stroke: #A80036; stroke-width: 1.0;"/><path d="M182.9731,395.6431 Q182.3921,395.9419 181.7529,396.0913 Q181.1138,396.2407 180.4082,396.2407 Q177.9014,396.2407 176.5815,394.5889 Q175.2617,392.937 175.2617,389.8159 Q175.2617,386.6865 176.5815,385.0347 Q177.9014,383.3828 180.4082,383.3828 Q181.1138,383.3828 181.7612,383.5322 Q182.4087,383.6816 182.9731,383.9805 L182.9731,386.7031 Q182.3423,386.1221 181.7488,385.8523 Q181.1553,385.5825 180.5244,385.5825 Q179.1797,385.5825 178.4949,386.6492 Q177.8101,387.7158 177.8101,389.8159 Q177.8101,391.9077 178.4949,392.9744 Q179.1797,394.041 180.5244,394.041 Q181.1553,394.041 181.7488,393.7712 Q182.3423,393.5015 182.9731,392.9204 Z "/><text fill="#000000" font-family="sans-serif" font-size="12" lengthAdjust="spacingAndGlyphs" textLength="86" x="194" y="394.5352">CreateVSSPage</text><line style="stroke: #A80036; stroke-width: 1.5;" x1="166" x2="282" y1="406" y2="406"/><line style="stroke: #A80036; stroke-width: 1.5;" x1="166" x2="282" y1="414" y2="414"/><!--class OnlineVSSPage--><rect fill="#FEFECE" filter="url(#f134cb56so7bxu)" height="48" id="OnlineVSSPage" style="stroke: #A80036; stroke-width: 1.5;" width="116" x="843" y="374"/><ellipse cx="858" cy="390" fill="#ADD1B2" rx="11" ry="11" style="stroke: #A80036; stroke-width: 1.0;"/><path d="M860.9731,395.6431 Q860.3921,395.9419 859.7529,396.0913 Q859.1138,396.2407 858.4082,396.2407 Q855.9014,396.2407 854.5815,394.5889 Q853.2617,392.937 853.2617,389.8159 Q853.2617,386.6865 854.5815,385.0347 Q855.9014,383.3828 858.4082,383.3828 Q859.1138,383.3828 859.7612,383.5322 Q860.4087,383.6816 860.9731,383.9805 L860.9731,386.7031 Q860.3423,386.1221 859.7488,385.8523 Q859.1553,385.5825 858.5244,385.5825 Q857.1797,385.5825 856.4949,386.6492 Q855.8101,387.7158 855.8101,389.8159 Q855.8101,391.9077 856.4949,392.9744 Q857.1797,394.041 858.5244,394.041 Q859.1553,394.041 859.7488,393.7712 Q860.3423,393.5015 860.9731,392.9204 Z "/><text fill="#000000" font-family="sans-serif" font-size="12" lengthAdjust="spacingAndGlyphs" textLength="84" x="872" y="394.5352">OnlineVSSPage</text><line style="stroke: #A80036; stroke-width: 1.5;" x1="844" x2="958" y1="406" y2="406"/><line style="stroke: #A80036; stroke-width: 1.5;" x1="844" x2="958" y1="414" y2="414"/><!--class VSSPreviwerPage--><rect fill="#FEFECE" filter="url(#f134cb56so7bxu)" height="48" id="VSSPreviwerPage" style="stroke: #A80036; stroke-width: 1.5;" width="129" x="318.5" y="374"/><ellipse cx="333.5" cy="390" fill="#ADD1B2" rx="11" ry="11" style="stroke: #A80036; stroke-width: 1.0;"/><path d="M336.4731,395.6431 Q335.8921,395.9419 335.2529,396.0913 Q334.6138,396.2407 333.9082,396.2407 Q331.4014,396.2407 330.0815,394.5889 Q328.7617,392.937 328.7617,389.8159 Q328.7617,386.6865 330.0815,385.0347 Q331.4014,383.3828 333.9082,383.3828 Q334.6138,383.3828 335.2612,383.5322 Q335.9087,383.6816 336.4731,383.9805 L336.4731,386.7031 Q335.8423,386.1221 335.2488,385.8523 Q334.6553,385.5825 334.0244,385.5825 Q332.6797,385.5825 331.9949,386.6492 Q331.3101,387.7158 331.3101,389.8159 Q331.3101,391.9077 331.9949,392.9744 Q332.6797,394.041 334.0244,394.041 Q334.6553,394.041 335.2488,393.7712 Q335.8423,393.5015 336.4731,392.9204 Z "/><text fill="#000000" font-family="sans-serif" font-size="12" lengthAdjust="spacingAndGlyphs" textLength="97" x="347.5" y="394.5352">VSSPreviwerPage</text><line style="stroke: #A80036; stroke-width: 1.5;" x1="319.5" x2="446.5" y1="406" y2="406"/><line style="stroke: #A80036; stroke-width: 1.5;" x1="319.5" x2="446.5" y1="414" y2="414"/><!--class VSSVeiwingPage--><rect fill="#FEFECE" filter="url(#f134cb56so7bxu)" height="48" id="VSSVeiwingPage" style="stroke: #A80036; stroke-width: 1.5;" width="124" x="6" y="374"/><ellipse cx="21" cy="390" fill="#ADD1B2" rx="11" ry="11" style="stroke: #A80036; stroke-width: 1.0;"/><path d="M23.9731,395.6431 Q23.3921,395.9419 22.7529,396.0913 Q22.1138,396.2407 21.4082,396.2407 Q18.9014,396.2407 17.5815,394.5889 Q16.2617,392.937 16.2617,389.8159 Q16.2617,386.6865 17.5815,385.0347 Q18.9014,383.3828 21.4082,383.3828 Q22.1138,383.3828 22.7612,383.5322 Q23.4087,383.6816 23.9731,383.9805 L23.9731,386.7031 Q23.3423,386.1221 22.7488,385.8523 Q22.1553,385.5825 21.5244,385.5825 Q20.1797,385.5825 19.4949,386.6492 Q18.8101,387.7158 18.8101,389.8159 Q18.8101,391.9077 19.4949,392.9744 Q20.1797,394.041 21.5244,394.041 Q22.1553,394.041 22.7488,393.7712 Q23.3423,393.5015 23.9731,392.9204 Z "/><text fill="#000000" font-family="sans-serif" font-size="12" lengthAdjust="spacingAndGlyphs" textLength="92" x="35" y="394.5352">VSSVeiwingPage</text><line style="stroke: #A80036; stroke-width: 1.5;" x1="7" x2="129" y1="406" y2="406"/><line style="stroke: #A80036; stroke-width: 1.5;" x1="7" x2="129" y1="414" y2="414"/><!--class LikeListPage--><rect fill="#FEFECE" filter="url(#f134cb56so7bxu)" height="48" id="LikeListPage" style="stroke: #A80036; stroke-width: 1.5;" width="102" x="331" y="483"/><ellipse cx="346" cy="499" fill="#ADD1B2" rx="11" ry="11" style="stroke: #A80036; stroke-width: 1.0;"/><path d="M348.9731,504.6431 Q348.3921,504.9419 347.7529,505.0913 Q347.1138,505.2407 346.4082,505.2407 Q343.9014,505.2407 342.5815,503.5889 Q341.2617,501.937 341.2617,498.8159 Q341.2617,495.6865 342.5815,494.0347 Q343.9014,492.3828 346.4082,492.3828 Q347.1138,492.3828 347.7612,492.5322 Q348.4087,492.6816 348.9731,492.9805 L348.9731,495.7031 Q348.3423,495.1221 347.7488,494.8523 Q347.1553,494.5825 346.5244,494.5825 Q345.1797,494.5825 344.4949,495.6492 Q343.8101,496.7158 343.8101,498.8159 Q343.8101,500.9077 344.4949,501.9744 Q345.1797,503.041 346.5244,503.041 Q347.1553,503.041 347.7488,502.7712 Q348.3423,502.5015 348.9731,501.9204 Z "/><text fill="#000000" font-family="sans-serif" font-size="12" lengthAdjust="spacingAndGlyphs" textLength="70" x="360" y="503.5352">LikeListPage</text><line style="stroke: #A80036; stroke-width: 1.5;" x1="332" x2="432" y1="515" y2="515"/><line style="stroke: #A80036; stroke-width: 1.5;" x1="332" x2="432" y1="523" y2="523"/><!--class CommentListPage--><rect fill="#FEFECE" filter="url(#f134cb56so7bxu)" height="48" id="CommentListPage" style="stroke: #A80036; stroke-width: 1.5;" width="134" x="468" y="483"/><ellipse cx="483" cy="499" fill="#ADD1B2" rx="11" ry="11" style="stroke: #A80036; stroke-width: 1.0;"/><path d="M485.9731,504.6431 Q485.3921,504.9419 484.7529,505.0913 Q484.1138,505.2407 483.4082,505.2407 Q480.9014,505.2407 479.5815,503.5889 Q478.2617,501.937 478.2617,498.8159 Q478.2617,495.6865 479.5815,494.0347 Q480.9014,492.3828 483.4082,492.3828 Q484.1138,492.3828 484.7612,492.5322 Q485.4087,492.6816 485.9731,492.9805 L485.9731,495.7031 Q485.3423,495.1221 484.7488,494.8523 Q484.1553,494.5825 483.5244,494.5825 Q482.1797,494.5825 481.4949,495.6492 Q480.8101,496.7158 480.8101,498.8159 Q480.8101,500.9077 481.4949,501.9744 Q482.1797,503.041 483.5244,503.041 Q484.1553,503.041 484.7488,502.7712 Q485.3423,502.5015 485.9731,501.9204 Z "/><text fill="#000000" font-family="sans-serif" font-size="12" lengthAdjust="spacingAndGlyphs" textLength="102" x="497" y="503.5352">CommentListPage</text><line style="stroke: #A80036; stroke-width: 1.5;" x1="469" x2="601" y1="515" y2="515"/><line style="stroke: #A80036; stroke-width: 1.5;" x1="469" x2="601" y1="523" y2="523"/><!--class SensorPage--><rect fill="#FEFECE" filter="url(#f134cb56so7bxu)" height="48" id="SensorPage" style="stroke: #A80036; stroke-width: 1.5;" width="98" x="76" y="135"/><ellipse cx="91" cy="151" fill="#ADD1B2" rx="11" ry="11" style="stroke: #A80036; stroke-width: 1.0;"/><path d="M93.9731,156.6431 Q93.3921,156.9419 92.7529,157.0913 Q92.1138,157.2407 91.4082,157.2407 Q88.9014,157.2407 87.5815,155.5889 Q86.2617,153.937 86.2617,150.8159 Q86.2617,147.6865 87.5815,146.0347 Q88.9014,144.3828 91.4082,144.3828 Q92.1138,144.3828 92.7612,144.5322 Q93.4087,144.6816 93.9731,144.9805 L93.9731,147.7031 Q93.3423,147.1221 92.7488,146.8523 Q92.1553,146.5825 91.5244,146.5825 Q90.1797,146.5825 89.4949,147.6492 Q88.8101,148.7158 88.8101,150.8159 Q88.8101,152.9077 89.4949,153.9744 Q90.1797,155.041 91.5244,155.041 Q92.1553,155.041 92.7488,154.7712 Q93.3423,154.5015 93.9731,153.9204 Z "/><text fill="#000000" font-family="sans-serif" font-size="12" lengthAdjust="spacingAndGlyphs" textLength="66" x="105" y="155.5352">SensorPage</text><line style="stroke: #A80036; stroke-width: 1.5;" x1="77" x2="173" y1="167" y2="167"/><line style="stroke: #A80036; stroke-width: 1.5;" x1="77" x2="173" y1="175" y2="175"/><!--class CommentPage--><rect fill="#FEFECE" filter="url(#f134cb56so7bxu)" height="48" id="CommentPage" style="stroke: #A80036; stroke-width: 1.5;" width="115" x="637.5" y="483"/><ellipse cx="652.5" cy="499" fill="#ADD1B2" rx="11" ry="11" style="stroke: #A80036; stroke-width: 1.0;"/><path d="M655.4731,504.6431 Q654.8921,504.9419 654.2529,505.0913 Q653.6138,505.2407 652.9082,505.2407 Q650.4014,505.2407 649.0815,503.5889 Q647.7617,501.937 647.7617,498.8159 Q647.7617,495.6865 649.0815,494.0347 Q650.4014,492.3828 652.9082,492.3828 Q653.6138,492.3828 654.2612,492.5322 Q654.9087,492.6816 655.4731,492.9805 L655.4731,495.7031 Q654.8423,495.1221 654.2488,494.8523 Q653.6553,494.5825 653.0244,494.5825 Q651.6797,494.5825 650.9949,495.6492 Q650.3101,496.7158 650.3101,498.8159 Q650.3101,500.9077 650.9949,501.9744 Q651.6797,503.041 653.0244,503.041 Q653.6553,503.041 654.2488,502.7712 Q654.8423,502.5015 655.4731,501.9204 Z "/><text fill="#000000" font-family="sans-serif" font-size="12" lengthAdjust="spacingAndGlyphs" textLength="83" x="666.5" y="503.5352">CommentPage</text><line style="stroke: #A80036; stroke-width: 1.5;" x1="638.5" x2="751.5" y1="515" y2="515"/><line style="stroke: #A80036; stroke-width: 1.5;" x1="638.5" x2="751.5" y1="523" y2="523"/><!--link Sensor to User--><path d="M338.3438,34 C353.7236,34 369.1035,34 384.4833,34 " fill="none" id="Sensor-User" style="stroke: #A80036; stroke-width: 1.0;"/><polygon fill="#A80036" points="389.6991,34,380.6991,30,384.6991,34,380.6991,38,389.6991,34" style="stroke: #A80036; stroke-width: 1.0;"/><text fill="#000000" font-family="sans-serif" font-size="13" lengthAdjust="spacingAndGlyphs" textLength="8" x="346.0896" y="30.1224">1</text><text fill="#000000" font-family="sans-serif" font-size="13" lengthAdjust="spacingAndGlyphs" textLength="8" x="373.9983" y="29.8699">1</text><!--link User to SoundSource--><path d="M389.8374,57.2186 C363.3823,78.2816 324.3548,109.3545 296.3878,131.6212 " fill="none" id="User-SoundSource" style="stroke: #A80036; stroke-width: 1.0;"/><polygon fill="#A80036" points="292.3446,134.8403,301.877,132.3638,296.2562,131.7259,296.894,126.1052,292.3446,134.8403" style="stroke: #A80036; stroke-width: 1.0;"/><text fill="#000000" font-family="sans-serif" font-size="13" lengthAdjust="spacingAndGlyphs" textLength="43" x="350" y="101.5684">upload</text><text fill="#000000" font-family="sans-serif" font-size="13" lengthAdjust="spacingAndGlyphs" textLength="8" x="374.1685" y="58.4578">1</text><text fill="#000000" font-family="sans-serif" font-size="13" lengthAdjust="spacingAndGlyphs" textLength="6" x="293.3517" y="124.3357">*</text><!--link User to VirtualSoundSpace--><path d="M419,58.1013 C419,78.5931 419,108.0764 419,129.8844 " fill="none" id="User-VirtualSoundSpace" style="stroke: #A80036; stroke-width: 1.0;"/><polygon fill="#A80036" points="419,134.9727,423,125.9727,419,129.9727,415,125.9727,419,134.9727" style="stroke: #A80036; stroke-width: 1.0;"/><text fill="#000000" font-family="sans-serif" font-size="13" lengthAdjust="spacingAndGlyphs" textLength="38" x="420" y="101.5684">create</text><text fill="#000000" font-family="sans-serif" font-size="13" lengthAdjust="spacingAndGlyphs" textLength="8" x="410.025" y="78.4103">1</text><text fill="#000000" font-family="sans-serif" font-size="13" lengthAdjust="spacingAndGlyphs" textLength="6" x="412.1938" y="124.1098">*</text><!--link User to SoundSpaceLibrary--><path d="M448.2911,54.9222 C477.8102,76.0073 523.5054,108.6467 555.8426,131.7447 " fill="none" id="User-SoundSpaceLibrary" style="stroke: #A80036; stroke-width: 1.0;"/><polygon fill="#A80036" points="560.1148,134.7963,555.116,126.3103,556.0461,131.8902,550.4662,132.8202,560.1148,134.7963" style="stroke: #A80036; stroke-width: 1.0;"/><text fill="#000000" font-family="sans-serif" font-size="13" lengthAdjust="spacingAndGlyphs" textLength="22" x="517" y="101.5684">has</text><text fill="#000000" font-family="sans-serif" font-size="13" lengthAdjust="spacingAndGlyphs" textLength="8" x="455.9897" y="74.0991">1</text><text fill="#000000" font-family="sans-serif" font-size="13" lengthAdjust="spacingAndGlyphs" textLength="8" x="542.4067" y="124.2804">1</text><!--link SoundSource to VirtualSoundSpace--><path d="M314.7422,159 C322.0389,159 329.3356,159 336.6323,159 " fill="none" id="SoundSource-VirtualSoundSpace" style="stroke: #A80036; stroke-width: 1.0;"/><polygon fill="#A80036" points="349.7663,159,343.7663,155,337.7663,159,343.7663,163,349.7663,159" style="stroke: #A80036; stroke-width: 1.0;"/><text fill="#000000" font-family="sans-serif" font-size="13" lengthAdjust="spacingAndGlyphs" textLength="6" x="322.5809" y="155.5355">*</text><text fill="#000000" font-family="sans-serif" font-size="13" lengthAdjust="spacingAndGlyphs" textLength="8" x="334.2141" y="155.8109">1</text><!--link VirtualSoundSpace to SoundSpaceLibrary--><path d="M488.043,159 C495.3724,159 502.7017,159 510.0311,159 " fill="none" id="VirtualSoundSpace-SoundSpaceLibrary" style="stroke: #A80036; stroke-width: 1.0;"/><polygon fill="#FFFFFF" points="523.224,159,517.224,155,511.224,159,517.224,163,523.224,159" style="stroke: #A80036; stroke-width: 1.0;"/><text fill="#000000" font-family="sans-serif" font-size="13" lengthAdjust="spacingAndGlyphs" textLength="6" x="495.9227" y="155.765">*</text><text fill="#000000" font-family="sans-serif" font-size="13" lengthAdjust="spacingAndGlyphs" textLength="8" x="507.5127" y="155.8109">1</text><!--link VirtualSoundSpace to Like--><path d="M413.2418,183.1473 C408.0652,204.8556 400.4507,236.7873 394.9397,259.898 " fill="none" id="VirtualSoundSpace-Like" style="stroke: #A80036; stroke-width: 1.0;"/><polygon fill="#A80036" points="393.7274,264.982,399.706,257.1554,394.8873,260.1184,391.9243,255.2996,393.7274,264.982" style="stroke: #A80036; stroke-width: 1.0;"/><text fill="#000000" font-family="sans-serif" font-size="13" lengthAdjust="spacingAndGlyphs" textLength="22" x="406" y="226.5684">has</text><text fill="#000000" font-family="sans-serif" font-size="13" lengthAdjust="spacingAndGlyphs" textLength="8" x="402.8632" y="203.4675">1</text><text fill="#000000" font-family="sans-serif" font-size="13" lengthAdjust="spacingAndGlyphs" textLength="8" x="386.1916" y="254.1216">1</text><!--link VirtualSoundSpace to CommentList--><path d="M462.8252,183.0338 C489.7984,198.1742 524.859,218.4854 555,238 C566.4718,245.4273 578.6577,253.9396 589.6361,261.8546 " fill="none" id="VirtualSoundSpace-CommentList" style="stroke: #A80036; stroke-width: 1.0;"/><polygon fill="#A80036" points="593.9397,264.971,588.9963,256.4526,589.89,262.0384,584.3042,262.9321,593.9397,264.971" style="stroke: #A80036; stroke-width: 1.0;"/><text fill="#000000" font-family="sans-serif" font-size="13" lengthAdjust="spacingAndGlyphs" textLength="22" x="541" y="226.5684">has</text><text fill="#000000" font-family="sans-serif" font-size="13" lengthAdjust="spacingAndGlyphs" textLength="8" x="465.0304" y="203.7225">1</text><text fill="#000000" font-family="sans-serif" font-size="13" lengthAdjust="spacingAndGlyphs" textLength="8" x="586.3985" y="254.1077">1</text><!--link Comment to CommentList--><path d="M537.5703,289 C544.9107,289 552.251,289 559.5914,289 " fill="none" id="Comment-CommentList" style="stroke: #A80036; stroke-width: 1.0;"/><polygon fill="#A80036" points="572.804,289,566.804,285,560.804,289,566.804,293,572.804,289" style="stroke: #A80036; stroke-width: 1.0;"/><text fill="#000000" font-family="sans-serif" font-size="13" lengthAdjust="spacingAndGlyphs" textLength="6" x="545.5746" y="285.306">*</text><text fill="#000000" font-family="sans-serif" font-size="13" lengthAdjust="spacingAndGlyphs" textLength="8" x="557.1183" y="285.5814">1</text><!--link User to User--><path d="M448.2929,23.1477 C466.1243,20.6345 483,24.252 483,34 C483,43.748 466.1243,47.3655 448.2929,44.8523 " fill="none" id="User-User" style="stroke: #A80036; stroke-width: 1.0;"/><text fill="#000000" font-family="sans-serif" font-size="13" lengthAdjust="spacingAndGlyphs" textLength="41" x="455.9174" y="17.9296">Viewer</text><text fill="#000000" font-family="sans-serif" font-size="13" lengthAdjust="spacingAndGlyphs" textLength="40" x="456.149" y="42.9797">Owner</text><!--link SensorControl to Sensor--><path d="M198.625,34 C221.7288,34 244.8327,34 267.9365,34 " fill="none" id="SensorControl-Sensor" style="stroke: #A80036; stroke-width: 1.0;"/><text fill="#000000" font-family="sans-serif" font-size="13" lengthAdjust="spacingAndGlyphs" textLength="8" x="206.6371" y="30.5814">1</text><text fill="#000000" font-family="sans-serif" font-size="13" lengthAdjust="spacingAndGlyphs" textLength="6" x="254.0859" y="30.0535">*</text><!--link User to UserInfoControl--><path d="M448.0293,34 C529.6328,34 611.2363,34 692.8398,34 " fill="none" id="User-UserInfoControl" style="stroke: #A80036; stroke-width: 1.0;"/><text fill="#000000" font-family="sans-serif" font-size="13" lengthAdjust="spacingAndGlyphs" textLength="6" x="455.8364" y="29.7781">*</text><text fill="#000000" font-family="sans-serif" font-size="13" lengthAdjust="spacingAndGlyphs" textLength="8" x="677.0203" y="30.6732">1</text><!--link Comment to SocialControl--><path d="M503.0992,313.1906 C509.8936,331.2538 519.1379,355.8301 525.9262,373.877 " fill="none" id="Comment-SocialControl" style="stroke: #A80036; stroke-width: 1.0;"/><text fill="#000000" font-family="sans-serif" font-size="13" lengthAdjust="spacingAndGlyphs" textLength="6" x="498.5859" y="333.5214">*</text><text fill="#000000" font-family="sans-serif" font-size="13" lengthAdjust="spacingAndGlyphs" textLength="8" x="514.576" y="363.3818">1</text><!--link CommentList to SocialControl--><path d="M605.8042,313.1906 C590.7239,331.2538 570.2061,355.8301 555.1394,373.877 " fill="none" id="CommentList-SocialControl" style="stroke: #A80036; stroke-width: 1.0;"/><text fill="#000000" font-family="sans-serif" font-size="13" lengthAdjust="spacingAndGlyphs" textLength="8" x="591.9065" y="333.5214">1</text><text fill="#000000" font-family="sans-serif" font-size="13" lengthAdjust="spacingAndGlyphs" textLength="8" x="551.2751" y="363.3818">1</text><!--link Like to SocialControl--><path d="M415.6496,309.5021 C440.3506,327.8178 476.5549,354.6632 502.6052,373.9794 " fill="none" id="Like-SocialControl" style="stroke: #A80036; stroke-width: 1.0;"/><text fill="#000000" font-family="sans-serif" font-size="13" lengthAdjust="spacingAndGlyphs" textLength="8" x="423.3642" y="310.2776">1</text><text fill="#000000" font-family="sans-serif" font-size="13" lengthAdjust="spacingAndGlyphs" textLength="8" x="484.8241" y="363.1183">1</text><!--link VirtualSoundSpace to VSSControl--><path d="M389.8374,183.1473 C361.6378,206.4974 319.1531,241.6757 291.0064,264.982 " fill="none" id="VirtualSoundSpace-VSSControl" style="stroke: #A80036; stroke-width: 1.0;"/><text fill="#000000" font-family="sans-serif" font-size="13" lengthAdjust="spacingAndGlyphs" textLength="8" x="373.754" y="203.4675">1</text><text fill="#000000" font-family="sans-serif" font-size="13" lengthAdjust="spacingAndGlyphs" textLength="8" x="289.7269" y="254.1216">1</text><!--link SoundSource to VSSControl--><path d="M262,183.1473 C262,206.4974 262,241.6757 262,264.982 " fill="none" id="SoundSource-VSSControl" style="stroke: #A80036; stroke-width: 1.0;"/><text fill="#000000" font-family="sans-serif" font-size="13" lengthAdjust="spacingAndGlyphs" textLength="6" x="255.2688" y="203.4675">*</text><text fill="#000000" font-family="sans-serif" font-size="13" lengthAdjust="spacingAndGlyphs" textLength="8" x="252.925" y="254.1216">1</text><!--link SoundSpaceLibrary to VSSLibraryControl--><path d="M628.735,183.1473 C662.3231,206.4974 712.9259,241.6757 746.451,264.982 " fill="none" id="SoundSpaceLibrary-VSSLibraryControl" style="stroke: #A80036; stroke-width: 1.0;"/><text fill="#000000" font-family="sans-serif" font-size="13" lengthAdjust="spacingAndGlyphs" textLength="8" x="628.2267" y="203.4675">1</text><text fill="#000000" font-family="sans-serif" font-size="13" lengthAdjust="spacingAndGlyphs" textLength="8" x="728.091" y="254.1216">1</text><!--link SensorControl to SensorPage--><path d="M139.5294,58.1013 C136.342,80.2359 131.6439,112.8615 128.4599,134.9727 " fill="none" id="SensorControl-SensorPage" style="stroke: #A80036; stroke-width: 1.0;"/><text fill="#000000" font-family="sans-serif" font-size="13" lengthAdjust="spacingAndGlyphs" textLength="8" x="129.7084" y="78.4103">1</text><text fill="#000000" font-family="sans-serif" font-size="13" lengthAdjust="spacingAndGlyphs" textLength="8" x="120.3147" y="124.1098">1</text><!--link UserInfoControl to RegisterPage--><path d="M753,58.1013 C753,80.2359 753,112.8615 753,134.9727 " fill="none" id="UserInfoControl-RegisterPage" style="stroke: #A80036; stroke-width: 1.0;"/><text fill="#000000" font-family="sans-serif" font-size="13" lengthAdjust="spacingAndGlyphs" textLength="8" x="744.025" y="78.4103">1</text><text fill="#000000" font-family="sans-serif" font-size="13" lengthAdjust="spacingAndGlyphs" textLength="8" x="743.925" y="124.1098">1</text><!--link UserInfoControl to LoginPage--><path d="M813.1563,34 C824.6962,34 836.2361,34 847.776,34 " fill="none" id="UserInfoControl-LoginPage" style="stroke: #A80036; stroke-width: 1.0;"/><text fill="#000000" font-family="sans-serif" font-size="13" lengthAdjust="spacingAndGlyphs" textLength="8" x="820.9753" y="30.6732">1</text><text fill="#000000" font-family="sans-serif" font-size="13" lengthAdjust="spacingAndGlyphs" textLength="8" x="831.9309" y="30.3978">1</text><!--link UserInfoControl to PersonalInfoPage--><path d="M782.6927,58.1013 C809.9627,80.2359 850.1574,112.8615 877.3984,134.9727 " fill="none" id="UserInfoControl-PersonalInfoPage" style="stroke: #A80036; stroke-width: 1.0;"/><text fill="#000000" font-family="sans-serif" font-size="13" lengthAdjust="spacingAndGlyphs" textLength="8" x="780.9553" y="78.4103">1</text><text fill="#000000" font-family="sans-serif" font-size="13" lengthAdjust="spacingAndGlyphs" textLength="8" x="860.368" y="124.1098">1</text><!--link SocialControl to CommentListPage--><path d="M535,422.1906 C535,440.2538 535,464.8301 535,482.877 " fill="none" id="SocialControl-CommentListPage" style="stroke: #A80036; stroke-width: 1.0;"/><text fill="#000000" font-family="sans-serif" font-size="13" lengthAdjust="spacingAndGlyphs" textLength="8" x="526.025" y="442.5214">1</text><text fill="#000000" font-family="sans-serif" font-size="13" lengthAdjust="spacingAndGlyphs" textLength="8" x="525.975" y="472.3818">1</text><!--link SocialControl to CommentPage--><path d="M570.5092,422.1906 C597.0239,440.2538 633.0992,464.8301 659.5901,482.877 " fill="none" id="SocialControl-CommentPage" style="stroke: #A80036; stroke-width: 1.0;"/><text fill="#000000" font-family="sans-serif" font-size="13" lengthAdjust="spacingAndGlyphs" textLength="8" x="570.1896" y="442.5214">1</text><text fill="#000000" font-family="sans-serif" font-size="13" lengthAdjust="spacingAndGlyphs" textLength="8" x="641.4913" y="472.3818">1</text><!--link SocialControl to LikeListPage--><path d="M501.0443,422.1906 C475.6896,440.2538 441.1926,464.8301 415.8607,482.877 " fill="none" id="SocialControl-LikeListPage" style="stroke: #A80036; stroke-width: 1.0;"/><text fill="#000000" font-family="sans-serif" font-size="13" lengthAdjust="spacingAndGlyphs" textLength="8" x="483.7926" y="442.5214">1</text><text fill="#000000" font-family="sans-serif" font-size="13" lengthAdjust="spacingAndGlyphs" textLength="8" x="415.5125" y="472.3818">1</text><!--link VSSControl to VSSPreviwerPage--><path d="M288.8538,313.1906 C308.9056,331.2538 336.1876,355.8301 356.2212,373.877 " fill="none" id="VSSControl-VSSPreviwerPage" style="stroke: #A80036; stroke-width: 1.0;"/><text fill="#000000" font-family="sans-serif" font-size="13" lengthAdjust="spacingAndGlyphs" textLength="8" x="286.4244" y="333.5214">1</text><text fill="#000000" font-family="sans-serif" font-size="13" lengthAdjust="spacingAndGlyphs" textLength="8" x="340.3341" y="363.3818">1</text><!--link VSSControl to VSSVeiwingPage--><path d="M218.9451,313.1906 C186.796,331.2538 143.0547,355.8301 110.9345,373.877 " fill="none" id="VSSControl-VSSVeiwingPage" style="stroke: #A80036; stroke-width: 1.0;"/><text fill="#000000" font-family="sans-serif" font-size="13" lengthAdjust="spacingAndGlyphs" textLength="8" x="199.4755" y="333.5214">1</text><text fill="#000000" font-family="sans-serif" font-size="13" lengthAdjust="spacingAndGlyphs" textLength="8" x="112.9115" y="363.3818">1</text><!--link VSSControl to CreateVSSPage--><path d="M253.5666,313.1906 C247.2693,331.2538 238.7014,355.8301 232.4099,373.877 " fill="none" id="VSSControl-CreateVSSPage" style="stroke: #A80036; stroke-width: 1.0;"/><text fill="#000000" font-family="sans-serif" font-size="13" lengthAdjust="spacingAndGlyphs" textLength="8" x="242.536" y="333.5214">1</text><text fill="#000000" font-family="sans-serif" font-size="13" lengthAdjust="spacingAndGlyphs" textLength="8" x="225.5399" y="363.3818">1</text><!--link VSSLibraryControl to VSSManagerPage--><path d="M772.5666,313.1906 C766.2693,331.2538 757.7014,355.8301 751.4099,373.877 " fill="none" id="VSSLibraryControl-VSSManagerPage" style="stroke: #A80036; stroke-width: 1.0;"/><text fill="#000000" font-family="sans-serif" font-size="13" lengthAdjust="spacingAndGlyphs" textLength="8" x="761.536" y="333.5214">1</text><text fill="#000000" font-family="sans-serif" font-size="13" lengthAdjust="spacingAndGlyphs" textLength="8" x="744.5399" y="363.3818">1</text><!--link VSSLibraryControl to OnlineVSSPage--><path d="M807.6319,313.1906 C827.5179,331.2538 854.5744,355.8301 874.4426,373.877 " fill="none" id="VSSLibraryControl-OnlineVSSPage" style="stroke: #A80036; stroke-width: 1.0;"/><text fill="#000000" font-family="sans-serif" font-size="13" lengthAdjust="spacingAndGlyphs" textLength="8" x="805.1484" y="333.5214">1</text><text fill="#000000" font-family="sans-serif" font-size="13" lengthAdjust="spacingAndGlyphs" textLength="8" x="858.6123" y="363.3818">1</text><!--
@startuml
class User
class SoundSource
class VirtualSoundSpace
package "Socializing Classes" #yellow {
  class Comment
  class CommentList
  class Like
}
class SoundSpaceLibrary
class Sensor

class UserInfoControl
class VSSControl
class VSSLibraryControl
class SocialControl
class SensorControl

class RegisterPage
class PersonalInfoPage
class LoginPage
class VSSManagerPage
class CreateVSSPage
class OnlineVSSPage
class VSSPreviwerPage
class VSSVeiwingPage
class LikeListPage
class CommentListPage
class SensorPage

Sensor "1" -> "1" User
"User" "1" - -> "*" SoundSource : upload
"User" "1" - -> "*" VirtualSoundSpace : create
"User" "1" - -> "1" SoundSpaceLibrary : has

SoundSource "*" -* "1" VirtualSoundSpace
VirtualSoundSpace "*" -o "1" SoundSpaceLibrary

VirtualSoundSpace "1" - -> "1" Like : has
VirtualSoundSpace "1" - -> "1" CommentList : has

Comment "*" -* "1" CommentList

User "Viewer" - - "Owner" User

SensorControl "1" - "*" Sensor
User "*" - "1" UserInfoControl
Comment "*" - - "1" SocialControl
CommentList "1" - - "1" SocialControl
Like "1" - - "1" SocialControl
VirtualSoundSpace "1" - - "1" VSSControl
SoundSource "*" - - "1" VSSControl
SoundSpaceLibrary "1" - - "1" VSSLibraryControl

SensorControl "1" - - "1" SensorPage
UserInfoControl "1" - - "1" RegisterPage
UserInfoControl "1" - "1" LoginPage
UserInfoControl "1" - - "1" PersonalInfoPage
SocialControl "1" - - "1" CommentListPage
SocialControl "1" - - "1" CommentPage
SocialControl "1" - - "1" LikeListPage
VSSControl "1" - - "1" VSSPreviwerPage
VSSControl "1" - - "1" VSSVeiwingPage
VSSControl "1" - - "1" CreateVSSPage
VSSLibraryControl "1" - - "1" VSSManagerPage
VSSLibraryControl "1" - - "1" OnlineVSSPage
@enduml

PlantUML version 1.2018.02(Sat Mar 10 01:20:44 CST 2018)
(GPL source distribution)
Java Runtime: Java(TM) SE Runtime Environment
JVM: Java HotSpot(TM) 64-Bit Server VM
Java Version: 1.8.0_151-b12
Operating System: Mac OS X
OS Version: 10.11.6
Default Encoding: UTF-8
Language: zh
Country: CN
--></g></svg>
