<?xml version="1.0" encoding="UTF-8" standalone="no"?><svg xmlns="http://www.w3.org/2000/svg" xmlns:xlink="http://www.w3.org/1999/xlink" contentScriptType="application/ecmascript" contentStyleType="text/css" height="391px" preserveAspectRatio="none" style="width:1808px;height:391px;" version="1.1" viewBox="0 0 1808 391"
    width="1808px" zoomAndPan="magnify"><defs><filter height="300%" id="f2tt4mda9x933" width="300%" x="-1" y="-1"><feGaussianBlur result="blurOut" stdDeviation="2.0"/><feColorMatrix in="blurOut" result="blurOut2" type="matrix" values="0 0 0 0 0 0 0 0 0 0 0 0 0 0 0 0 0 0 .4 0"/><feOffset dx="4.0" dy="4.0" in="blurOut2" result="blurOut3"/><feBlend in="SourceGraphic" in2="blurOut3" mode="normal"/></filter></defs><g><!--cluster Social Classes--><polygon fill="#FFFF00" filter="url(#f2tt4mda9x933)" points="498,197,606,197,613,219.4883,692,219.4883,692,280,498,280,498,197" style="stroke: #000000; stroke-width: 1.5;"/><line style="stroke: #000000; stroke-width: 1.5;" x1="498" x2="613" y1="219.4883" y2="219.4883"/><text fill="#000000" font-family="sans-serif" font-size="14" font-weight="bold" lengthAdjust="spacingAndGlyphs" textLength="102" x="502" y="212.5352">Social Classes</text><!--class Comment--><rect fill="#FEFECE" filter="url(#f2tt4mda9x933)" height="48" id="Comment" style="stroke: #A80036; stroke-width: 1.5;" width="87" x="596.5" y="224"/><ellipse cx="611.5" cy="240" fill="#ADD1B2" rx="11" ry="11" style="stroke: #A80036; stroke-width: 1.0;"/><path d="M614.4731,245.6431 Q613.8921,245.9419 613.2529,246.0913 Q612.6138,246.2407 611.9082,246.2407 Q609.4014,246.2407 608.0815,244.5889 Q606.7617,242.937 606.7617,239.8159 Q606.7617,236.6865 608.0815,235.0347 Q609.4014,233.3828 611.9082,233.3828 Q612.6138,233.3828 613.2612,233.5322 Q613.9087,233.6816 614.4731,233.9805 L614.4731,236.7031 Q613.8423,236.1221 613.2488,235.8523 Q612.6553,235.5825 612.0244,235.5825 Q610.6797,235.5825 609.9949,236.6492 Q609.3101,237.7158 609.3101,239.8159 Q609.3101,241.9077 609.9949,242.9744 Q610.6797,244.041 612.0244,244.041 Q612.6553,244.041 613.2488,243.7712 Q613.8423,243.5015 614.4731,242.9204 Z "/><text fill="#000000" font-family="sans-serif" font-size="12" lengthAdjust="spacingAndGlyphs" textLength="55" x="625.5" y="244.5352">Comment</text><line style="stroke: #A80036; stroke-width: 1.5;" x1="597.5" x2="682.5" y1="256" y2="256"/><line style="stroke: #A80036; stroke-width: 1.5;" x1="597.5" x2="682.5" y1="264" y2="264"/><!--class Like--><rect fill="#FEFECE" filter="url(#f2tt4mda9x933)" height="48" id="Like" style="stroke: #A80036; stroke-width: 1.5;" width="55" x="506.5" y="224"/><ellipse cx="521.5" cy="240" fill="#ADD1B2" rx="11" ry="11" style="stroke: #A80036; stroke-width: 1.0;"/><path d="M524.4731,245.6431 Q523.8921,245.9419 523.2529,246.0913 Q522.6138,246.2407 521.9082,246.2407 Q519.4014,246.2407 518.0815,244.5889 Q516.7617,242.937 516.7617,239.8159 Q516.7617,236.6865 518.0815,235.0347 Q519.4014,233.3828 521.9082,233.3828 Q522.6138,233.3828 523.2612,233.5322 Q523.9087,233.6816 524.4731,233.9805 L524.4731,236.7031 Q523.8423,236.1221 523.2488,235.8523 Q522.6553,235.5825 522.0244,235.5825 Q520.6797,235.5825 519.9949,236.6492 Q519.3101,237.7158 519.3101,239.8159 Q519.3101,241.9077 519.9949,242.9744 Q520.6797,244.041 522.0244,244.041 Q522.6553,244.041 523.2488,243.7712 Q523.8423,243.5015 524.4731,242.9204 Z "/><text fill="#000000" font-family="sans-serif" font-size="12" lengthAdjust="spacingAndGlyphs" textLength="23" x="535.5" y="244.5352">Like</text><line style="stroke: #A80036; stroke-width: 1.5;" x1="507.5" x2="560.5" y1="256" y2="256"/><line style="stroke: #A80036; stroke-width: 1.5;" x1="507.5" x2="560.5" y1="264" y2="264"/><!--class User--><rect fill="#FEFECE" filter="url(#f2tt4mda9x933)" height="48" id="User" style="stroke: #A80036; stroke-width: 1.5;" width="58" x="479" y="8"/><ellipse cx="494" cy="24" fill="#ADD1B2" rx="11" ry="11" style="stroke: #A80036; stroke-width: 1.0;"/><path d="M496.9731,29.6431 Q496.3921,29.9419 495.7529,30.0913 Q495.1138,30.2407 494.4082,30.2407 Q491.9014,30.2407 490.5815,28.5889 Q489.2617,26.937 489.2617,23.8159 Q489.2617,20.6865 490.5815,19.0347 Q491.9014,17.3828 494.4082,17.3828 Q495.1138,17.3828 495.7612,17.5322 Q496.4087,17.6816 496.9731,17.9805 L496.9731,20.7031 Q496.3423,20.1221 495.7488,19.8523 Q495.1553,19.5825 494.5244,19.5825 Q493.1797,19.5825 492.4949,20.6492 Q491.8101,21.7158 491.8101,23.8159 Q491.8101,25.9077 492.4949,26.9744 Q493.1797,28.041 494.5244,28.041 Q495.1553,28.041 495.7488,27.7712 Q496.3423,27.5015 496.9731,26.9204 Z "/><text fill="#000000" font-family="sans-serif" font-size="12" lengthAdjust="spacingAndGlyphs" textLength="26" x="508" y="28.5352">User</text><line style="stroke: #A80036; stroke-width: 1.5;" x1="480" x2="536" y1="40" y2="40"/><line style="stroke: #A80036; stroke-width: 1.5;" x1="480" x2="536" y1="48" y2="48"/><!--class SoundSource--><rect fill="#FEFECE" filter="url(#f2tt4mda9x933)" height="48" id="SoundSource" style="stroke: #A80036; stroke-width: 1.5;" width="105" x="883.5" y="332"/><ellipse cx="898.5" cy="348" fill="#ADD1B2" rx="11" ry="11" style="stroke: #A80036; stroke-width: 1.0;"/><path d="M901.4731,353.6431 Q900.8921,353.9419 900.2529,354.0913 Q899.6138,354.2407 898.9082,354.2407 Q896.4014,354.2407 895.0815,352.5889 Q893.7617,350.937 893.7617,347.8159 Q893.7617,344.6865 895.0815,343.0347 Q896.4014,341.3828 898.9082,341.3828 Q899.6138,341.3828 900.2612,341.5322 Q900.9087,341.6816 901.4731,341.9805 L901.4731,344.7031 Q900.8423,344.1221 900.2488,343.8523 Q899.6553,343.5825 899.0244,343.5825 Q897.6797,343.5825 896.9949,344.6492 Q896.3101,345.7158 896.3101,347.8159 Q896.3101,349.9077 896.9949,350.9744 Q897.6797,352.041 899.0244,352.041 Q899.6553,352.041 900.2488,351.7712 Q900.8423,351.5015 901.4731,350.9204 Z "/><text fill="#000000" font-family="sans-serif" font-size="12" lengthAdjust="spacingAndGlyphs" textLength="73" x="912.5" y="352.5352">SoundSource</text><line style="stroke: #A80036; stroke-width: 1.5;" x1="884.5" x2="987.5" y1="364" y2="364"/><line style="stroke: #A80036; stroke-width: 1.5;" x1="884.5" x2="987.5" y1="372" y2="372"/><!--class MapModeVirtualSoundSpace--><rect fill="#FEFECE" filter="url(#f2tt4mda9x933)" height="48" id="MapModeVirtualSoundSpace" style="stroke: #A80036; stroke-width: 1.5;" width="195" x="718.5" y="224"/><ellipse cx="733.5" cy="240" fill="#ADD1B2" rx="11" ry="11" style="stroke: #A80036; stroke-width: 1.0;"/><path d="M736.4731,245.6431 Q735.8921,245.9419 735.2529,246.0913 Q734.6138,246.2407 733.9082,246.2407 Q731.4014,246.2407 730.0815,244.5889 Q728.7617,242.937 728.7617,239.8159 Q728.7617,236.6865 730.0815,235.0347 Q731.4014,233.3828 733.9082,233.3828 Q734.6138,233.3828 735.2612,233.5322 Q735.9087,233.6816 736.4731,233.9805 L736.4731,236.7031 Q735.8423,236.1221 735.2488,235.8523 Q734.6553,235.5825 734.0244,235.5825 Q732.6797,235.5825 731.9949,236.6492 Q731.3101,237.7158 731.3101,239.8159 Q731.3101,241.9077 731.9949,242.9744 Q732.6797,244.041 734.0244,244.041 Q734.6553,244.041 735.2488,243.7712 Q735.8423,243.5015 736.4731,242.9204 Z "/><text fill="#000000" font-family="sans-serif" font-size="12" lengthAdjust="spacingAndGlyphs" textLength="163" x="747.5" y="244.5352">MapModeVirtualSoundSpace</text><line style="stroke: #A80036; stroke-width: 1.5;" x1="719.5" x2="912.5" y1="256" y2="256"/><line style="stroke: #A80036; stroke-width: 1.5;" x1="719.5" x2="912.5" y1="264" y2="264"/><!--class ConcertModeVirtualSoundSpace--><rect fill="#FEFECE" filter="url(#f2tt4mda9x933)" height="48" id="ConcertModeVirtualSoundSpace" style="stroke: #A80036; stroke-width: 1.5;" width="214" x="949" y="224"/><ellipse cx="964" cy="240" fill="#ADD1B2" rx="11" ry="11" style="stroke: #A80036; stroke-width: 1.0;"/><path d="M966.9731,245.6431 Q966.3921,245.9419 965.7529,246.0913 Q965.1138,246.2407 964.4082,246.2407 Q961.9014,246.2407 960.5815,244.5889 Q959.2617,242.937 959.2617,239.8159 Q959.2617,236.6865 960.5815,235.0347 Q961.9014,233.3828 964.4082,233.3828 Q965.1138,233.3828 965.7612,233.5322 Q966.4087,233.6816 966.9731,233.9805 L966.9731,236.7031 Q966.3423,236.1221 965.7488,235.8523 Q965.1553,235.5825 964.5244,235.5825 Q963.1797,235.5825 962.4949,236.6492 Q961.8101,237.7158 961.8101,239.8159 Q961.8101,241.9077 962.4949,242.9744 Q963.1797,244.041 964.5244,244.041 Q965.1553,244.041 965.7488,243.7712 Q966.3423,243.5015 966.9731,242.9204 Z "/><text fill="#000000" font-family="sans-serif" font-size="12" lengthAdjust="spacingAndGlyphs" textLength="182" x="978" y="244.5352">ConcertModeVirtualSoundSpace</text><line style="stroke: #A80036; stroke-width: 1.5;" x1="950" x2="1162" y1="256" y2="256"/><line style="stroke: #A80036; stroke-width: 1.5;" x1="950" x2="1162" y1="264" y2="264"/><!--class LocalSoundSpaceLibrary--><rect fill="#FEFECE" filter="url(#f2tt4mda9x933)" height="48" id="LocalSoundSpaceLibrary" style="stroke: #A80036; stroke-width: 1.5;" width="170" x="784" y="116"/><ellipse cx="799" cy="132" fill="#ADD1B2" rx="11" ry="11" style="stroke: #A80036; stroke-width: 1.0;"/><path d="M801.9731,137.6431 Q801.3921,137.9419 800.7529,138.0913 Q800.1138,138.2407 799.4082,138.2407 Q796.9014,138.2407 795.5815,136.5889 Q794.2617,134.937 794.2617,131.8159 Q794.2617,128.6865 795.5815,127.0347 Q796.9014,125.3828 799.4082,125.3828 Q800.1138,125.3828 800.7612,125.5322 Q801.4087,125.6816 801.9731,125.9805 L801.9731,128.7031 Q801.3423,128.1221 800.7488,127.8523 Q800.1553,127.5825 799.5244,127.5825 Q798.1797,127.5825 797.4949,128.6492 Q796.8101,129.7158 796.8101,131.8159 Q796.8101,133.9077 797.4949,134.9744 Q798.1797,136.041 799.5244,136.041 Q800.1553,136.041 800.7488,135.7712 Q801.3423,135.5015 801.9731,134.9204 Z "/><text fill="#000000" font-family="sans-serif" font-size="12" lengthAdjust="spacingAndGlyphs" textLength="138" x="813" y="136.5352">LocalSoundSpaceLibrary</text><line style="stroke: #A80036; stroke-width: 1.5;" x1="785" x2="953" y1="148" y2="148"/><line style="stroke: #A80036; stroke-width: 1.5;" x1="785" x2="953" y1="156" y2="156"/><!--class OnlineSoundSpaceLibrary--><rect fill="#FEFECE" filter="url(#f2tt4mda9x933)" height="48" id="OnlineSoundSpaceLibrary" style="stroke: #A80036; stroke-width: 1.5;" width="177" x="571.5" y="116"/><ellipse cx="586.5" cy="132" fill="#ADD1B2" rx="11" ry="11" style="stroke: #A80036; stroke-width: 1.0;"/><path d="M589.4731,137.6431 Q588.8921,137.9419 588.2529,138.0913 Q587.6138,138.2407 586.9082,138.2407 Q584.4014,138.2407 583.0815,136.5889 Q581.7617,134.937 581.7617,131.8159 Q581.7617,128.6865 583.0815,127.0347 Q584.4014,125.3828 586.9082,125.3828 Q587.6138,125.3828 588.2612,125.5322 Q588.9087,125.6816 589.4731,125.9805 L589.4731,128.7031 Q588.8423,128.1221 588.2488,127.8523 Q587.6553,127.5825 587.0244,127.5825 Q585.6797,127.5825 584.9949,128.6492 Q584.3101,129.7158 584.3101,131.8159 Q584.3101,133.9077 584.9949,134.9744 Q585.6797,136.041 587.0244,136.041 Q587.6553,136.041 588.2488,135.7712 Q588.8423,135.5015 589.4731,134.9204 Z "/><text fill="#000000" font-family="sans-serif" font-size="12" lengthAdjust="spacingAndGlyphs" textLength="145" x="600.5" y="136.5352">OnlineSoundSpaceLibrary</text><line style="stroke: #A80036; stroke-width: 1.5;" x1="572.5" x2="747.5" y1="148" y2="148"/><line style="stroke: #A80036; stroke-width: 1.5;" x1="572.5" x2="747.5" y1="156" y2="156"/><!--class Sensor--><rect fill="#FEFECE" filter="url(#f2tt4mda9x933)" height="48" id="Sensor" style="stroke: #A80036; stroke-width: 1.5;" width="70" x="320" y="116"/><ellipse cx="335" cy="132" fill="#ADD1B2" rx="11" ry="11" style="stroke: #A80036; stroke-width: 1.0;"/><path d="M337.9731,137.6431 Q337.3921,137.9419 336.7529,138.0913 Q336.1138,138.2407 335.4082,138.2407 Q332.9014,138.2407 331.5815,136.5889 Q330.2617,134.937 330.2617,131.8159 Q330.2617,128.6865 331.5815,127.0347 Q332.9014,125.3828 335.4082,125.3828 Q336.1138,125.3828 336.7612,125.5322 Q337.4087,125.6816 337.9731,125.9805 L337.9731,128.7031 Q337.3423,128.1221 336.7488,127.8523 Q336.1553,127.5825 335.5244,127.5825 Q334.1797,127.5825 333.4949,128.6492 Q332.8101,129.7158 332.8101,131.8159 Q332.8101,133.9077 333.4949,134.9744 Q334.1797,136.041 335.5244,136.041 Q336.1553,136.041 336.7488,135.7712 Q337.3423,135.5015 337.9731,134.9204 Z "/><text fill="#000000" font-family="sans-serif" font-size="12" lengthAdjust="spacingAndGlyphs" textLength="38" x="349" y="136.5352">Sensor</text><line style="stroke: #A80036; stroke-width: 1.5;" x1="321" x2="389" y1="148" y2="148"/><line style="stroke: #A80036; stroke-width: 1.5;" x1="321" x2="389" y1="156" y2="156"/><!--class RegisterPage--><rect fill="#FEFECE" filter="url(#f2tt4mda9x933)" height="48" id="RegisterPage" style="stroke: #A80036; stroke-width: 1.5;" width="107" x="177.5" y="116"/><ellipse cx="192.5" cy="132" fill="#ADD1B2" rx="11" ry="11" style="stroke: #A80036; stroke-width: 1.0;"/><path d="M195.4731,137.6431 Q194.8921,137.9419 194.2529,138.0913 Q193.6138,138.2407 192.9082,138.2407 Q190.4014,138.2407 189.0815,136.5889 Q187.7617,134.937 187.7617,131.8159 Q187.7617,128.6865 189.0815,127.0347 Q190.4014,125.3828 192.9082,125.3828 Q193.6138,125.3828 194.2612,125.5322 Q194.9087,125.6816 195.4731,125.9805 L195.4731,128.7031 Q194.8423,128.1221 194.2488,127.8523 Q193.6553,127.5825 193.0244,127.5825 Q191.6797,127.5825 190.9949,128.6492 Q190.3101,129.7158 190.3101,131.8159 Q190.3101,133.9077 190.9949,134.9744 Q191.6797,136.041 193.0244,136.041 Q193.6553,136.041 194.2488,135.7712 Q194.8423,135.5015 195.4731,134.9204 Z "/><text fill="#000000" font-family="sans-serif" font-size="12" lengthAdjust="spacingAndGlyphs" textLength="75" x="206.5" y="136.5352">RegisterPage</text><line style="stroke: #A80036; stroke-width: 1.5;" x1="178.5" x2="283.5" y1="148" y2="148"/><line style="stroke: #A80036; stroke-width: 1.5;" x1="178.5" x2="283.5" y1="156" y2="156"/><!--class LoginPage--><rect fill="#FEFECE" filter="url(#f2tt4mda9x933)" height="48" id="LoginPage" style="stroke: #A80036; stroke-width: 1.5;" width="90" x="52" y="116"/><ellipse cx="67" cy="132" fill="#ADD1B2" rx="11" ry="11" style="stroke: #A80036; stroke-width: 1.0;"/><path d="M69.9731,137.6431 Q69.3921,137.9419 68.7529,138.0913 Q68.1138,138.2407 67.4082,138.2407 Q64.9014,138.2407 63.5815,136.5889 Q62.2617,134.937 62.2617,131.8159 Q62.2617,128.6865 63.5815,127.0347 Q64.9014,125.3828 67.4082,125.3828 Q68.1138,125.3828 68.7612,125.5322 Q69.4087,125.6816 69.9731,125.9805 L69.9731,128.7031 Q69.3423,128.1221 68.7488,127.8523 Q68.1553,127.5825 67.5244,127.5825 Q66.1797,127.5825 65.4949,128.6492 Q64.8101,129.7158 64.8101,131.8159 Q64.8101,133.9077 65.4949,134.9744 Q66.1797,136.041 67.5244,136.041 Q68.1553,136.041 68.7488,135.7712 Q69.3423,135.5015 69.9731,134.9204 Z "/><text fill="#000000" font-family="sans-serif" font-size="12" lengthAdjust="spacingAndGlyphs" textLength="58" x="81" y="136.5352">LoginPage</text><line style="stroke: #A80036; stroke-width: 1.5;" x1="53" x2="141" y1="148" y2="148"/><line style="stroke: #A80036; stroke-width: 1.5;" x1="53" x2="141" y1="156" y2="156"/><!--class PersonalInfoPage--><rect fill="#FEFECE" filter="url(#f2tt4mda9x933)" height="48" id="PersonalInfoPage" style="stroke: #A80036; stroke-width: 1.5;" width="130" x="6" y="8"/><ellipse cx="21" cy="24" fill="#ADD1B2" rx="11" ry="11" style="stroke: #A80036; stroke-width: 1.0;"/><path d="M23.9731,29.6431 Q23.3921,29.9419 22.7529,30.0913 Q22.1138,30.2407 21.4082,30.2407 Q18.9014,30.2407 17.5815,28.5889 Q16.2617,26.937 16.2617,23.8159 Q16.2617,20.6865 17.5815,19.0347 Q18.9014,17.3828 21.4082,17.3828 Q22.1138,17.3828 22.7612,17.5322 Q23.4087,17.6816 23.9731,17.9805 L23.9731,20.7031 Q23.3423,20.1221 22.7488,19.8523 Q22.1553,19.5825 21.5244,19.5825 Q20.1797,19.5825 19.4949,20.6492 Q18.8101,21.7158 18.8101,23.8159 Q18.8101,25.9077 19.4949,26.9744 Q20.1797,28.041 21.5244,28.041 Q22.1553,28.041 22.7488,27.7712 Q23.3423,27.5015 23.9731,26.9204 Z "/><text fill="#000000" font-family="sans-serif" font-size="12" lengthAdjust="spacingAndGlyphs" textLength="98" x="35" y="28.5352">PersonalInfoPage</text><line style="stroke: #A80036; stroke-width: 1.5;" x1="7" x2="135" y1="40" y2="40"/><line style="stroke: #A80036; stroke-width: 1.5;" x1="7" x2="135" y1="48" y2="48"/><!--class LocalVSSManagerPage--><rect fill="#FEFECE" filter="url(#f2tt4mda9x933)" height="48" id="LocalVSSManagerPage" style="stroke: #A80036; stroke-width: 1.5;" width="159" x="1638.5" y="116"/><ellipse cx="1653.5" cy="132" fill="#ADD1B2" rx="11" ry="11" style="stroke: #A80036; stroke-width: 1.0;"/><path d="M1656.4731,137.6431 Q1655.8921,137.9419 1655.2529,138.0913 Q1654.6138,138.2407 1653.9082,138.2407 Q1651.4014,138.2407 1650.0815,136.5889 Q1648.7617,134.937 1648.7617,131.8159 Q1648.7617,128.6865 1650.0815,127.0347 Q1651.4014,125.3828 1653.9082,125.3828 Q1654.6138,125.3828 1655.2612,125.5322 Q1655.9087,125.6816 1656.4731,125.9805 L1656.4731,128.7031 Q1655.8423,128.1221 1655.2488,127.8523 Q1654.6553,127.5825 1654.0244,127.5825 Q1652.6797,127.5825 1651.9949,128.6492 Q1651.3101,129.7158 1651.3101,131.8159 Q1651.3101,133.9077 1651.9949,134.9744 Q1652.6797,136.041 1654.0244,136.041 Q1654.6553,136.041 1655.2488,135.7712 Q1655.8423,135.5015 1656.4731,134.9204 Z "/><text fill="#000000" font-family="sans-serif" font-size="12" lengthAdjust="spacingAndGlyphs" textLength="127" x="1667.5" y="136.5352">LocalVSSManagerPage</text><line style="stroke: #A80036; stroke-width: 1.5;" x1="1639.5" x2="1796.5" y1="148" y2="148"/><line style="stroke: #A80036; stroke-width: 1.5;" x1="1639.5" x2="1796.5" y1="156" y2="156"/><!--class OnlineVSSViewerPage--><rect fill="#FEFECE" filter="url(#f2tt4mda9x933)" height="48" id="OnlineVSSViewerPage" style="stroke: #A80036; stroke-width: 1.5;" width="155" x="1117.5" y="116"/><ellipse cx="1132.5" cy="132" fill="#ADD1B2" rx="11" ry="11" style="stroke: #A80036; stroke-width: 1.0;"/><path d="M1135.4731,137.6431 Q1134.8921,137.9419 1134.2529,138.0913 Q1133.6138,138.2407 1132.9082,138.2407 Q1130.4014,138.2407 1129.0815,136.5889 Q1127.7617,134.937 1127.7617,131.8159 Q1127.7617,128.6865 1129.0815,127.0347 Q1130.4014,125.3828 1132.9082,125.3828 Q1133.6138,125.3828 1134.2612,125.5322 Q1134.9087,125.6816 1135.4731,125.9805 L1135.4731,128.7031 Q1134.8423,128.1221 1134.2488,127.8523 Q1133.6553,127.5825 1133.0244,127.5825 Q1131.6797,127.5825 1130.9949,128.6492 Q1130.3101,129.7158 1130.3101,131.8159 Q1130.3101,133.9077 1130.9949,134.9744 Q1131.6797,136.041 1133.0244,136.041 Q1133.6553,136.041 1134.2488,135.7712 Q1134.8423,135.5015 1135.4731,134.9204 Z "/><text fill="#000000" font-family="sans-serif" font-size="12" lengthAdjust="spacingAndGlyphs" textLength="123" x="1146.5" y="136.5352">OnlineVSSViewerPage</text><line style="stroke: #A80036; stroke-width: 1.5;" x1="1118.5" x2="1271.5" y1="148" y2="148"/><line style="stroke: #A80036; stroke-width: 1.5;" x1="1118.5" x2="1271.5" y1="156" y2="156"/><!--class VSSPreviewerPage--><rect fill="#FEFECE" filter="url(#f2tt4mda9x933)" height="48" id="VSSPreviewerPage" style="stroke: #A80036; stroke-width: 1.5;" width="136" x="1308" y="116"/><ellipse cx="1323" cy="132" fill="#ADD1B2" rx="11" ry="11" style="stroke: #A80036; stroke-width: 1.0;"/><path d="M1325.9731,137.6431 Q1325.3921,137.9419 1324.7529,138.0913 Q1324.1138,138.2407 1323.4082,138.2407 Q1320.9014,138.2407 1319.5815,136.5889 Q1318.2617,134.937 1318.2617,131.8159 Q1318.2617,128.6865 1319.5815,127.0347 Q1320.9014,125.3828 1323.4082,125.3828 Q1324.1138,125.3828 1324.7612,125.5322 Q1325.4087,125.6816 1325.9731,125.9805 L1325.9731,128.7031 Q1325.3423,128.1221 1324.7488,127.8523 Q1324.1553,127.5825 1323.5244,127.5825 Q1322.1797,127.5825 1321.4949,128.6492 Q1320.8101,129.7158 1320.8101,131.8159 Q1320.8101,133.9077 1321.4949,134.9744 Q1322.1797,136.041 1323.5244,136.041 Q1324.1553,136.041 1324.7488,135.7712 Q1325.3423,135.5015 1325.9731,134.9204 Z "/><text fill="#000000" font-family="sans-serif" font-size="12" lengthAdjust="spacingAndGlyphs" textLength="104" x="1337" y="136.5352">VSSPreviewerPage</text><line style="stroke: #A80036; stroke-width: 1.5;" x1="1309" x2="1443" y1="148" y2="148"/><line style="stroke: #A80036; stroke-width: 1.5;" x1="1309" x2="1443" y1="156" y2="156"/><!--class VSSViewingPage--><rect fill="#FEFECE" filter="url(#f2tt4mda9x933)" height="48" id="VSSViewingPage" style="stroke: #A80036; stroke-width: 1.5;" width="124" x="1479" y="116"/><ellipse cx="1494" cy="132" fill="#ADD1B2" rx="11" ry="11" style="stroke: #A80036; stroke-width: 1.0;"/><path d="M1496.9731,137.6431 Q1496.3921,137.9419 1495.7529,138.0913 Q1495.1138,138.2407 1494.4082,138.2407 Q1491.9014,138.2407 1490.5815,136.5889 Q1489.2617,134.937 1489.2617,131.8159 Q1489.2617,128.6865 1490.5815,127.0347 Q1491.9014,125.3828 1494.4082,125.3828 Q1495.1138,125.3828 1495.7612,125.5322 Q1496.4087,125.6816 1496.9731,125.9805 L1496.9731,128.7031 Q1496.3423,128.1221 1495.7488,127.8523 Q1495.1553,127.5825 1494.5244,127.5825 Q1493.1797,127.5825 1492.4949,128.6492 Q1491.8101,129.7158 1491.8101,131.8159 Q1491.8101,133.9077 1492.4949,134.9744 Q1493.1797,136.041 1494.5244,136.041 Q1495.1553,136.041 1495.7488,135.7712 Q1496.3423,135.5015 1496.9731,134.9204 Z "/><text fill="#000000" font-family="sans-serif" font-size="12" lengthAdjust="spacingAndGlyphs" textLength="92" x="1508" y="136.5352">VSSViewingPage</text><line style="stroke: #A80036; stroke-width: 1.5;" x1="1480" x2="1602" y1="148" y2="148"/><line style="stroke: #A80036; stroke-width: 1.5;" x1="1480" x2="1602" y1="156" y2="156"/><!--class CreateVSSPage--><rect fill="#FEFECE" filter="url(#f2tt4mda9x933)" height="48" id="CreateVSSPage" style="stroke: #A80036; stroke-width: 1.5;" width="118" x="1198" y="224"/><ellipse cx="1213" cy="240" fill="#ADD1B2" rx="11" ry="11" style="stroke: #A80036; stroke-width: 1.0;"/><path d="M1215.9731,245.6431 Q1215.3921,245.9419 1214.7529,246.0913 Q1214.1138,246.2407 1213.4082,246.2407 Q1210.9014,246.2407 1209.5815,244.5889 Q1208.2617,242.937 1208.2617,239.8159 Q1208.2617,236.6865 1209.5815,235.0347 Q1210.9014,233.3828 1213.4082,233.3828 Q1214.1138,233.3828 1214.7612,233.5322 Q1215.4087,233.6816 1215.9731,233.9805 L1215.9731,236.7031 Q1215.3423,236.1221 1214.7488,235.8523 Q1214.1553,235.5825 1213.5244,235.5825 Q1212.1797,235.5825 1211.4949,236.6492 Q1210.8101,237.7158 1210.8101,239.8159 Q1210.8101,241.9077 1211.4949,242.9744 Q1212.1797,244.041 1213.5244,244.041 Q1214.1553,244.041 1214.7488,243.7712 Q1215.3423,243.5015 1215.9731,242.9204 Z "/><text fill="#000000" font-family="sans-serif" font-size="12" lengthAdjust="spacingAndGlyphs" textLength="86" x="1227" y="244.5352">CreateVSSPage</text><line style="stroke: #A80036; stroke-width: 1.5;" x1="1199" x2="1315" y1="256" y2="256"/><line style="stroke: #A80036; stroke-width: 1.5;" x1="1199" x2="1315" y1="264" y2="264"/><!--class SensorPage--><rect fill="#FEFECE" filter="url(#f2tt4mda9x933)" height="48" id="SensorPage" style="stroke: #A80036; stroke-width: 1.5;" width="98" x="373" y="224"/><ellipse cx="388" cy="240" fill="#ADD1B2" rx="11" ry="11" style="stroke: #A80036; stroke-width: 1.0;"/><path d="M390.9731,245.6431 Q390.3921,245.9419 389.7529,246.0913 Q389.1138,246.2407 388.4082,246.2407 Q385.9014,246.2407 384.5815,244.5889 Q383.2617,242.937 383.2617,239.8159 Q383.2617,236.6865 384.5815,235.0347 Q385.9014,233.3828 388.4082,233.3828 Q389.1138,233.3828 389.7612,233.5322 Q390.4087,233.6816 390.9731,233.9805 L390.9731,236.7031 Q390.3423,236.1221 389.7488,235.8523 Q389.1553,235.5825 388.5244,235.5825 Q387.1797,235.5825 386.4949,236.6492 Q385.8101,237.7158 385.8101,239.8159 Q385.8101,241.9077 386.4949,242.9744 Q387.1797,244.041 388.5244,244.041 Q389.1553,244.041 389.7488,243.7712 Q390.3423,243.5015 390.9731,242.9204 Z "/><text fill="#000000" font-family="sans-serif" font-size="12" lengthAdjust="spacingAndGlyphs" textLength="66" x="402" y="244.5352">SensorPage</text><line style="stroke: #A80036; stroke-width: 1.5;" x1="374" x2="470" y1="256" y2="256"/><line style="stroke: #A80036; stroke-width: 1.5;" x1="374" x2="470" y1="264" y2="264"/><!--class UserInfoControl--><rect fill="#FEFECE" filter="url(#f2tt4mda9x933)" height="48" id="UserInfoControl" style="stroke: #A80036; stroke-width: 1.5;" width="120" x="171" y="8"/><ellipse cx="186" cy="24" fill="#ADD1B2" rx="11" ry="11" style="stroke: #A80036; stroke-width: 1.0;"/><path d="M188.9731,29.6431 Q188.3921,29.9419 187.7529,30.0913 Q187.1138,30.2407 186.4082,30.2407 Q183.9014,30.2407 182.5815,28.5889 Q181.2617,26.937 181.2617,23.8159 Q181.2617,20.6865 182.5815,19.0347 Q183.9014,17.3828 186.4082,17.3828 Q187.1138,17.3828 187.7612,17.5322 Q188.4087,17.6816 188.9731,17.9805 L188.9731,20.7031 Q188.3423,20.1221 187.7488,19.8523 Q187.1553,19.5825 186.5244,19.5825 Q185.1797,19.5825 184.4949,20.6492 Q183.8101,21.7158 183.8101,23.8159 Q183.8101,25.9077 184.4949,26.9744 Q185.1797,28.041 186.5244,28.041 Q187.1553,28.041 187.7488,27.7712 Q188.3423,27.5015 188.9731,26.9204 Z "/><text fill="#000000" font-family="sans-serif" font-size="12" lengthAdjust="spacingAndGlyphs" textLength="88" x="200" y="28.5352">UserInfoControl</text><line style="stroke: #A80036; stroke-width: 1.5;" x1="172" x2="290" y1="40" y2="40"/><line style="stroke: #A80036; stroke-width: 1.5;" x1="172" x2="290" y1="48" y2="48"/><!--class VSSControl--><rect fill="#FEFECE" filter="url(#f2tt4mda9x933)" height="48" id="VSSControl" style="stroke: #A80036; stroke-width: 1.5;" width="93" x="989.5" y="116"/><ellipse cx="1004.5" cy="132" fill="#ADD1B2" rx="11" ry="11" style="stroke: #A80036; stroke-width: 1.0;"/><path d="M1007.4731,137.6431 Q1006.8921,137.9419 1006.2529,138.0913 Q1005.6138,138.2407 1004.9082,138.2407 Q1002.4014,138.2407 1001.0815,136.5889 Q999.7617,134.937 999.7617,131.8159 Q999.7617,128.6865 1001.0815,127.0347 Q1002.4014,125.3828 1004.9082,125.3828 Q1005.6138,125.3828 1006.2612,125.5322 Q1006.9087,125.6816 1007.4731,125.9805 L1007.4731,128.7031 Q1006.8423,128.1221 1006.2488,127.8523 Q1005.6553,127.5825 1005.0244,127.5825 Q1003.6797,127.5825 1002.9949,128.6492 Q1002.3101,129.7158 1002.3101,131.8159 Q1002.3101,133.9077 1002.9949,134.9744 Q1003.6797,136.041 1005.0244,136.041 Q1005.6553,136.041 1006.2488,135.7712 Q1006.8423,135.5015 1007.4731,134.9204 Z "/><text fill="#000000" font-family="sans-serif" font-size="12" lengthAdjust="spacingAndGlyphs" textLength="61" x="1018.5" y="136.5352">VSSControl</text><line style="stroke: #A80036; stroke-width: 1.5;" x1="990.5" x2="1081.5" y1="148" y2="148"/><line style="stroke: #A80036; stroke-width: 1.5;" x1="990.5" x2="1081.5" y1="156" y2="156"/><!--class LocalVSSLibraryControl--><rect fill="#FEFECE" filter="url(#f2tt4mda9x933)" height="48" id="LocalVSSLibraryControl" style="stroke: #A80036; stroke-width: 1.5;" width="162" x="1387" y="8"/><ellipse cx="1402" cy="24" fill="#ADD1B2" rx="11" ry="11" style="stroke: #A80036; stroke-width: 1.0;"/><path d="M1404.9731,29.6431 Q1404.3921,29.9419 1403.7529,30.0913 Q1403.1138,30.2407 1402.4082,30.2407 Q1399.9014,30.2407 1398.5815,28.5889 Q1397.2617,26.937 1397.2617,23.8159 Q1397.2617,20.6865 1398.5815,19.0347 Q1399.9014,17.3828 1402.4082,17.3828 Q1403.1138,17.3828 1403.7612,17.5322 Q1404.4087,17.6816 1404.9731,17.9805 L1404.9731,20.7031 Q1404.3423,20.1221 1403.7488,19.8523 Q1403.1553,19.5825 1402.5244,19.5825 Q1401.1797,19.5825 1400.4949,20.6492 Q1399.8101,21.7158 1399.8101,23.8159 Q1399.8101,25.9077 1400.4949,26.9744 Q1401.1797,28.041 1402.5244,28.041 Q1403.1553,28.041 1403.7488,27.7712 Q1404.3423,27.5015 1404.9731,26.9204 Z "/><text fill="#000000" font-family="sans-serif" font-size="12" lengthAdjust="spacingAndGlyphs" textLength="130" x="1416" y="28.5352">LocalVSSLibraryControl</text><line style="stroke: #A80036; stroke-width: 1.5;" x1="1388" x2="1548" y1="40" y2="40"/><line style="stroke: #A80036; stroke-width: 1.5;" x1="1388" x2="1548" y1="48" y2="48"/><!--class OnlineVSSLibraryControl--><rect fill="#FEFECE" filter="url(#f2tt4mda9x933)" height="48" id="OnlineVSSLibraryControl" style="stroke: #A80036; stroke-width: 1.5;" width="169" x="1110.5" y="8"/><ellipse cx="1125.5" cy="24" fill="#ADD1B2" rx="11" ry="11" style="stroke: #A80036; stroke-width: 1.0;"/><path d="M1128.4731,29.6431 Q1127.8921,29.9419 1127.2529,30.0913 Q1126.6138,30.2407 1125.9082,30.2407 Q1123.4014,30.2407 1122.0815,28.5889 Q1120.7617,26.937 1120.7617,23.8159 Q1120.7617,20.6865 1122.0815,19.0347 Q1123.4014,17.3828 1125.9082,17.3828 Q1126.6138,17.3828 1127.2612,17.5322 Q1127.9087,17.6816 1128.4731,17.9805 L1128.4731,20.7031 Q1127.8423,20.1221 1127.2488,19.8523 Q1126.6553,19.5825 1126.0244,19.5825 Q1124.6797,19.5825 1123.9949,20.6492 Q1123.3101,21.7158 1123.3101,23.8159 Q1123.3101,25.9077 1123.9949,26.9744 Q1124.6797,28.041 1126.0244,28.041 Q1126.6553,28.041 1127.2488,27.7712 Q1127.8423,27.5015 1128.4731,26.9204 Z "/><text fill="#000000" font-family="sans-serif" font-size="12" lengthAdjust="spacingAndGlyphs" textLength="137" x="1139.5" y="28.5352">OnlineVSSLibraryControl</text><line style="stroke: #A80036; stroke-width: 1.5;" x1="1111.5" x2="1278.5" y1="40" y2="40"/><line style="stroke: #A80036; stroke-width: 1.5;" x1="1111.5" x2="1278.5" y1="48" y2="48"/><!--class SensorControl--><rect fill="#FEFECE" filter="url(#f2tt4mda9x933)" height="48" id="SensorControl" style="stroke: #A80036; stroke-width: 1.5;" width="111" x="425.5" y="116"/><ellipse cx="440.5" cy="132" fill="#ADD1B2" rx="11" ry="11" style="stroke: #A80036; stroke-width: 1.0;"/><path d="M443.4731,137.6431 Q442.8921,137.9419 442.2529,138.0913 Q441.6138,138.2407 440.9082,138.2407 Q438.4014,138.2407 437.0815,136.5889 Q435.7617,134.937 435.7617,131.8159 Q435.7617,128.6865 437.0815,127.0347 Q438.4014,125.3828 440.9082,125.3828 Q441.6138,125.3828 442.2612,125.5322 Q442.9087,125.6816 443.4731,125.9805 L443.4731,128.7031 Q442.8423,128.1221 442.2488,127.8523 Q441.6553,127.5825 441.0244,127.5825 Q439.6797,127.5825 438.9949,128.6492 Q438.3101,129.7158 438.3101,131.8159 Q438.3101,133.9077 438.9949,134.9744 Q439.6797,136.041 441.0244,136.041 Q441.6553,136.041 442.2488,135.7712 Q442.8423,135.5015 443.4731,134.9204 Z "/><text fill="#000000" font-family="sans-serif" font-size="12" lengthAdjust="spacingAndGlyphs" textLength="79" x="454.5" y="136.5352">SensorControl</text><line style="stroke: #A80036; stroke-width: 1.5;" x1="426.5" x2="535.5" y1="148" y2="148"/><line style="stroke: #A80036; stroke-width: 1.5;" x1="426.5" x2="535.5" y1="156" y2="156"/><!--link User to Sensor--><path d="M478.8617,52.5682 C453.2846,70.6227 416.0622,96.8973 389.1049,115.926 " fill="none" id="User-Sensor" style="stroke: #A80036; stroke-width: 1.0;"/><text fill="#000000" font-family="sans-serif" font-size="13" lengthAdjust="spacingAndGlyphs" textLength="8" x="463.1985" y="53.1945">1</text><text fill="#000000" font-family="sans-serif" font-size="13" lengthAdjust="spacingAndGlyphs" textLength="8" x="388.8193" y="105.4433">1</text><!--link User to LocalSoundSpaceLibrary--><path d="M537.2364,40.7466 C591.3695,56.9416 708.9356,92.1137 788.5465,115.9308 " fill="none" id="User-LocalSoundSpaceLibrary" style="stroke: #A80036; stroke-width: 1.0;"/><text fill="#000000" font-family="sans-serif" font-size="13" lengthAdjust="spacingAndGlyphs" textLength="8" x="544.9223" y="38.6391">1</text><text fill="#000000" font-family="sans-serif" font-size="13" lengthAdjust="spacingAndGlyphs" textLength="8" x="768.1424" y="108.8852">1</text><!--link User to OnlineSoundSpaceLibrary--><path d="M537.3071,52.8235 C562.67,70.8445 599.3604,96.914 626.0065,115.8467 " fill="none" id="User-OnlineSoundSpaceLibrary" style="stroke: #A80036; stroke-width: 1.0;"/><text fill="#000000" font-family="sans-serif" font-size="13" lengthAdjust="spacingAndGlyphs" textLength="8" x="545.0094" y="71.9776">1</text><text fill="#000000" font-family="sans-serif" font-size="13" lengthAdjust="spacingAndGlyphs" textLength="6" x="610.5269" y="105.3437">*</text><!--link MapModeVirtualSoundSpace to SoundSource--><path d="M852.6509,280.9858 C870.8742,297.3868 892.5023,316.8521 909.1595,331.8436 " fill="none" id="MapModeVirtualSoundSpace-SoundSource" style="stroke: #A80036; stroke-width: 1.0;"/><polygon fill="#FFFFFF" points="842.9303,272.2373,844.7142,279.2243,851.8498,280.2649,850.0659,273.2779,842.9303,272.2373" style="stroke: #A80036; stroke-width: 1.0;"/><text fill="#000000" font-family="sans-serif" font-size="13" lengthAdjust="spacingAndGlyphs" textLength="8" x="840.5196" y="292.5795">1</text><text fill="#000000" font-family="sans-serif" font-size="13" lengthAdjust="spacingAndGlyphs" textLength="22" x="877.4629" y="321.3398">1..*</text><!--link ConcertModeVirtualSoundSpace to SoundSource--><path d="M1019.3491,280.9858 C1001.1258,297.3868 979.4977,316.8521 962.8405,331.8436 " fill="none" id="ConcertModeVirtualSoundSpace-SoundSource" style="stroke: #A80036; stroke-width: 1.0;"/><polygon fill="#FFFFFF" points="1029.0697,272.2373,1021.9341,273.2779,1020.1502,280.2649,1027.2858,279.2243,1029.0697,272.2373" style="stroke: #A80036; stroke-width: 1.0;"/><text fill="#000000" font-family="sans-serif" font-size="13" lengthAdjust="spacingAndGlyphs" textLength="8" x="1013.5304" y="292.5795">1</text><text fill="#000000" font-family="sans-serif" font-size="13" lengthAdjust="spacingAndGlyphs" textLength="22" x="944.8996" y="321.3398">1..*</text><!--link LocalSoundSpaceLibrary to MapModeVirtualSoundSpace--><path d="M851.2295,176.2115 C843.5348,191.8913 834.7346,209.8238 827.8545,223.8436 " fill="none" id="LocalSoundSpaceLibrary-MapModeVirtualSoundSpace" style="stroke: #A80036; stroke-width: 1.0;"/><polygon fill="#FFFFFF" points="857.1058,164.2373,850.8715,167.8614,851.8191,175.01,858.0533,171.3859,857.1058,164.2373" style="stroke: #A80036; stroke-width: 1.0;"/><text fill="#000000" font-family="sans-serif" font-size="13" lengthAdjust="spacingAndGlyphs" textLength="8" x="845.2316" y="184.5795">1</text><text fill="#000000" font-family="sans-serif" font-size="13" lengthAdjust="spacingAndGlyphs" textLength="6" x="824.1235" y="213.3398">*</text><!--link LocalSoundSpaceLibrary to ConcertModeVirtualSoundSpace--><path d="M922.5932,170.9522 C951.6903,187.757 987.1345,208.2274 1014.1736,223.8436 " fill="none" id="LocalSoundSpaceLibrary-ConcertModeVirtualSoundSpace" style="stroke: #A80036; stroke-width: 1.0;"/><polygon fill="#FFFFFF" points="910.9665,164.2373,914.1618,170.7018,921.358,170.2387,918.1627,163.7742,910.9665,164.2373" style="stroke: #A80036; stroke-width: 1.0;"/><text fill="#000000" font-family="sans-serif" font-size="13" lengthAdjust="spacingAndGlyphs" textLength="8" x="912.2208" y="184.5795">1</text><text fill="#000000" font-family="sans-serif" font-size="13" lengthAdjust="spacingAndGlyphs" textLength="6" x="996.6868" y="213.3398">*</text><!--link OnlineSoundSpaceLibrary to MapModeVirtualSoundSpace--><path d="M706.0083,171.8519 C730.0314,188.4833 758.9518,208.5051 781.1074,223.8436 " fill="none" id="OnlineSoundSpaceLibrary-MapModeVirtualSoundSpace" style="stroke: #A80036; stroke-width: 1.0;"/><polygon fill="#FFFFFF" points="695.0094,164.2373,697.6657,170.9413,704.8757,171.0679,702.2194,164.3638,695.0094,164.2373" style="stroke: #A80036; stroke-width: 1.0;"/><text fill="#000000" font-family="sans-serif" font-size="13" lengthAdjust="spacingAndGlyphs" textLength="8" x="694.5679" y="184.5795">1</text><text fill="#000000" font-family="sans-serif" font-size="13" lengthAdjust="spacingAndGlyphs" textLength="6" x="765.3974" y="213.3398">*</text><!--link OnlineSoundSpaceLibrary to ConcertModeVirtualSoundSpace--><path d="M761.6484,162.8566 C763.4459,163.2422 765.231,163.6237 767,164 C839.7225,179.4704 859.8183,175.5276 931,197 C955.2346,204.3105 981.2685,214.5297 1003.2704,223.9022 " fill="none" id="OnlineSoundSpaceLibrary-ConcertModeVirtualSoundSpace" style="stroke: #A80036; stroke-width: 1.0;"/><polygon fill="#FFFFFF" points="748.7157,160.0572,753.7336,165.2361,760.4441,162.5961,755.4262,157.4172,748.7157,160.0572" style="stroke: #A80036; stroke-width: 1.0;"/><text fill="#000000" font-family="sans-serif" font-size="13" lengthAdjust="spacingAndGlyphs" textLength="8" x="756.3937" y="158.6783">1</text><text fill="#000000" font-family="sans-serif" font-size="13" lengthAdjust="spacingAndGlyphs" textLength="6" x="982.9897" y="213.4134">*</text><!--link OnlineSoundSpaceLibrary to Comment--><path d="M655.5116,164.2373 C652.2178,182.024 647.7637,206.0759 644.4734,223.8436 " fill="none" id="OnlineSoundSpaceLibrary-Comment" style="stroke: #A80036; stroke-width: 1.0;"/><text fill="#000000" font-family="sans-serif" font-size="13" lengthAdjust="spacingAndGlyphs" textLength="8" x="645.4426" y="184.5795">1</text><text fill="#000000" font-family="sans-serif" font-size="13" lengthAdjust="spacingAndGlyphs" textLength="6" x="646.3885" y="213.3398">*</text><!--link OnlineSoundSpaceLibrary to Like--><path d="M621.9218,164.0797 C607.8808,173.6468 592.1919,185.1821 579,197 C569.9411,205.1153 560.8871,214.9563 553.3006,223.8205 " fill="none" id="OnlineSoundSpaceLibrary-Like" style="stroke: #A80036; stroke-width: 1.0;"/><text fill="#000000" font-family="sans-serif" font-size="13" lengthAdjust="spacingAndGlyphs" textLength="8" x="603.6652" y="184.3835">1</text><text fill="#000000" font-family="sans-serif" font-size="13" lengthAdjust="spacingAndGlyphs" textLength="6" x="551.4776" y="213.3108">*</text><!--link UserInfoControl to User--><path d="M291.0527,32 C353.6228,32 416.1929,32 478.763,32 " fill="none" id="UserInfoControl-User" style="stroke: #A80036; stroke-width: 1.0;"/><text fill="#000000" font-family="sans-serif" font-size="13" lengthAdjust="spacingAndGlyphs" textLength="8" x="298.8591" y="28.6732">1</text><text fill="#000000" font-family="sans-serif" font-size="13" lengthAdjust="spacingAndGlyphs" textLength="6" x="464.9052" y="27.7781">*</text><!--link VSSControl to MapModeVirtualSoundSpace--><path d="M989.3437,162.904 C952.8918,180.7986 902.3621,205.604 865.261,223.8173 " fill="none" id="VSSControl-MapModeVirtualSoundSpace" style="stroke: #A80036; stroke-width: 1.0;"/><text fill="#000000" font-family="sans-serif" font-size="13" lengthAdjust="spacingAndGlyphs" textLength="8" x="973.587" y="162.8549">1</text><text fill="#000000" font-family="sans-serif" font-size="13" lengthAdjust="spacingAndGlyphs" textLength="6" x="871.1154" y="213.3068">*</text><!--link VSSControl to ConcertModeVirtualSoundSpace--><path d="M1040.4884,164.2373 C1043.7822,182.024 1048.2363,206.0759 1051.5266,223.8436 " fill="none" id="VSSControl-ConcertModeVirtualSoundSpace" style="stroke: #A80036; stroke-width: 1.0;"/><text fill="#000000" font-family="sans-serif" font-size="13" lengthAdjust="spacingAndGlyphs" textLength="8" x="1032.6074" y="184.5795">1</text><text fill="#000000" font-family="sans-serif" font-size="13" lengthAdjust="spacingAndGlyphs" textLength="6" x="1043.6115" y="213.3398">*</text><!--link Sensor to SensorControl--><path d="M390.4375,140 C402.1116,140 413.7856,140 425.4597,140 " fill="none" id="Sensor-SensorControl" style="stroke: #A80036; stroke-width: 1.0;"/><text fill="#000000" font-family="sans-serif" font-size="13" lengthAdjust="spacingAndGlyphs" textLength="6" x="398.0049" y="136.1224">*</text><text fill="#000000" font-family="sans-serif" font-size="13" lengthAdjust="spacingAndGlyphs" textLength="8" x="409.459" y="136.5814">1</text><!--link OnlineVSSLibraryControl to OnlineSoundSpaceLibrary--><path d="M1110.407,47.9082 C1023.9711,64.326 885.9355,90.9949 767,116 C761.0382,117.2534 754.895,118.5685 748.7088,119.9102 " fill="none" id="OnlineVSSLibraryControl-OnlineSoundSpaceLibrary" style="stroke: #A80036; stroke-width: 1.0;"/><text fill="#000000" font-family="sans-serif" font-size="13" lengthAdjust="spacingAndGlyphs" textLength="8" x="1094.5167" y="46.2392">1</text><text fill="#000000" font-family="sans-serif" font-size="13" lengthAdjust="spacingAndGlyphs" textLength="6" x="756.59" y="115.1209">*</text><!--link LocalVSSLibraryControl to LocalSoundSpaceLibrary--><path d="M1386.9637,44.165 C1288.5253,59.3013 1117.5624,86.7439 972,116 C966.1497,117.1758 960.1247,118.4399 954.0638,119.7509 " fill="none" id="LocalVSSLibraryControl-LocalSoundSpaceLibrary" style="stroke: #A80036; stroke-width: 1.0;"/><text fill="#000000" font-family="sans-serif" font-size="13" lengthAdjust="spacingAndGlyphs" textLength="8" x="1371.1244" y="42.1777">1</text><text fill="#000000" font-family="sans-serif" font-size="13" lengthAdjust="spacingAndGlyphs" textLength="6" x="961.907" y="114.8617">*</text><!--link UserInfoControl to RegisterPage--><path d="M231,56.2373 C231,74.024 231,98.0759 231,115.8436 " fill="none" id="UserInfoControl-RegisterPage" style="stroke: #A80036; stroke-width: 1.0;"/><text fill="#000000" font-family="sans-serif" font-size="13" lengthAdjust="spacingAndGlyphs" textLength="8" x="222.025" y="76.5795">1</text><text fill="#000000" font-family="sans-serif" font-size="13" lengthAdjust="spacingAndGlyphs" textLength="8" x="221.975" y="105.3398">1</text><!--link UserInfoControl to LoginPage--><path d="M200.9278,56.2373 C178.8591,74.024 149.017,98.0759 126.9718,115.8436 " fill="none" id="UserInfoControl-LoginPage" style="stroke: #A80036; stroke-width: 1.0;"/><text fill="#000000" font-family="sans-serif" font-size="13" lengthAdjust="spacingAndGlyphs" textLength="8" x="184.6227" y="76.5795">1</text><text fill="#000000" font-family="sans-serif" font-size="13" lengthAdjust="spacingAndGlyphs" textLength="8" x="125.6271" y="105.3398">1</text><!--link PersonalInfoPage to UserInfoControl--><path d="M136.3125,32 C147.7786,32 159.2446,32 170.7107,32 " fill="none" id="PersonalInfoPage-UserInfoControl" style="stroke: #A80036; stroke-width: 1.0;"/><text fill="#000000" font-family="sans-serif" font-size="13" lengthAdjust="spacingAndGlyphs" textLength="8" x="143.8936" y="28.765">1</text><text fill="#000000" font-family="sans-serif" font-size="13" lengthAdjust="spacingAndGlyphs" textLength="8" x="154.8754" y="28.6732">1</text><!--link VSSControl to CreateVSSPage--><path d="M1082.7,157.7785 C1121.5059,172.6478 1171.8064,192.1811 1181,197 C1195.7774,204.7458 1211.2181,214.7172 1224.292,223.7856 " fill="none" id="VSSControl-CreateVSSPage" style="stroke: #A80036; stroke-width: 1.0;"/><text fill="#000000" font-family="sans-serif" font-size="13" lengthAdjust="spacingAndGlyphs" textLength="8" x="1090.4634" y="156.9445">1</text><text fill="#000000" font-family="sans-serif" font-size="13" lengthAdjust="spacingAndGlyphs" textLength="8" x="1206.8856" y="213.2669">1</text><!--link SensorControl to SensorPage--><path d="M467.7592,164.2373 C458.0424,182.024 444.903,206.0759 435.1966,223.8436 " fill="none" id="SensorControl-SensorPage" style="stroke: #A80036; stroke-width: 1.0;"/><text fill="#000000" font-family="sans-serif" font-size="13" lengthAdjust="spacingAndGlyphs" textLength="8" x="455.5568" y="184.5795">1</text><text fill="#000000" font-family="sans-serif" font-size="13" lengthAdjust="spacingAndGlyphs" textLength="8" x="429.5532" y="213.3398">1</text><!--link LocalVSSLibraryControl to VSSViewingPage--><path d="M1484.3826,56.2373 C1496.4051,74.024 1512.6624,98.0759 1524.6721,115.8436 " fill="none" id="LocalVSSLibraryControl-VSSViewingPage" style="stroke: #A80036; stroke-width: 1.0;"/><text fill="#000000" font-family="sans-serif" font-size="13" lengthAdjust="spacingAndGlyphs" textLength="8" x="1479.4009" y="76.5795">1</text><text fill="#000000" font-family="sans-serif" font-size="13" lengthAdjust="spacingAndGlyphs" textLength="8" x="1511.4631" y="105.3398">1</text><!--link LocalVSSLibraryControl to VSSPreviewerPage--><path d="M1447.3534,56.2373 C1432.2017,74.024 1411.7131,98.0759 1396.5777,115.8436 " fill="none" id="LocalVSSLibraryControl-VSSPreviewerPage" style="stroke: #A80036; stroke-width: 1.0;"/><text fill="#000000" font-family="sans-serif" font-size="13" lengthAdjust="spacingAndGlyphs" textLength="8" x="1433.3458" y="76.5795">1</text><text fill="#000000" font-family="sans-serif" font-size="13" lengthAdjust="spacingAndGlyphs" textLength="8" x="1392.8257" y="105.3398">1</text><!--link LocalVSSLibraryControl to LocalVSSManagerPage--><path d="M1523.7937,56.1029 C1565.0952,73.9451 1621.1159,98.1461 1662.3768,115.9708 " fill="none" id="LocalVSSLibraryControl-LocalVSSManagerPage" style="stroke: #A80036; stroke-width: 1.0;"/><text fill="#000000" font-family="sans-serif" font-size="13" lengthAdjust="spacingAndGlyphs" textLength="8" x="1528.4184" y="76.4123">1</text><text fill="#000000" font-family="sans-serif" font-size="13" lengthAdjust="spacingAndGlyphs" textLength="8" x="1638.3531" y="105.1074">1</text><!--link OnlineVSSLibraryControl to OnlineVSSViewerPage--><path d="M1195,56.2373 C1195,74.024 1195,98.0759 1195,115.8436 " fill="none" id="OnlineVSSLibraryControl-OnlineVSSViewerPage" style="stroke: #A80036; stroke-width: 1.0;"/><text fill="#000000" font-family="sans-serif" font-size="13" lengthAdjust="spacingAndGlyphs" textLength="8" x="1186.025" y="76.5795">1</text><text fill="#000000" font-family="sans-serif" font-size="13" lengthAdjust="spacingAndGlyphs" textLength="8" x="1185.975" y="105.3398">1</text><!--link OnlineVSSLibraryControl to VSSPreviewerPage--><path d="M1235.6199,56.2373 C1265.4292,74.024 1305.7383,98.0759 1335.5156,115.8436 " fill="none" id="OnlineVSSLibraryControl-VSSPreviewerPage" style="stroke: #A80036; stroke-width: 1.0;"/><text fill="#000000" font-family="sans-serif" font-size="13" lengthAdjust="spacingAndGlyphs" textLength="8" x="1236.546" y="76.5795">1</text><text fill="#000000" font-family="sans-serif" font-size="13" lengthAdjust="spacingAndGlyphs" textLength="8" x="1316.1165" y="105.3398">1</text><!--
@startuml
class User
class SoundSource
class MapModeVirtualSoundSpace
class ConcertModeVirtualSoundSpace
package "Social Classes" #yellow {
  class Comment
  class Like
}
class LocalSoundSpaceLibrary
class OnlineSoundSpaceLibrary
class Sensor

class RegisterPage
class LoginPage
class PersonalInfoPage
class LocalVSSManagerPage
class OnlineVSSViewerPage
class VSSPreviewerPage
class VSSViewingPage
class CreateVSSPage
class SensorPage

class UserInfoControl
class VSSControl
class LocalVSSLibraryControl
class OnlineVSSLibraryControl
class SensorControl

User "1" - - "1" Sensor
User "1" - - "1" LocalSoundSpaceLibrary
User "1" - - "*" OnlineSoundSpaceLibrary

MapModeVirtualSoundSpace "1" o- - "1..*" SoundSource
ConcertModeVirtualSoundSpace "1" o- - "1..*" SoundSource

LocalSoundSpaceLibrary "1" o- - "*" MapModeVirtualSoundSpace
LocalSoundSpaceLibrary "1" o- - "*" ConcertModeVirtualSoundSpace
OnlineSoundSpaceLibrary "1" o- - "*" MapModeVirtualSoundSpace
OnlineSoundSpaceLibrary "1" o- - "*" ConcertModeVirtualSoundSpace

OnlineSoundSpaceLibrary "1" - - "*" Comment
OnlineSoundSpaceLibrary "1" - - "*" Like

UserInfoControl "1" - "*" User
VSSControl "1" - - "*" MapModeVirtualSoundSpace
VSSControl "1" - - "*" ConcertModeVirtualSoundSpace
Sensor "*" - "1" SensorControl
OnlineVSSLibraryControl "1" - - "*" OnlineSoundSpaceLibrary
LocalVSSLibraryControl "1" - - "*" LocalSoundSpaceLibrary

UserInfoControl "1" - - "1" RegisterPage
UserInfoControl "1" - - "1" LoginPage
UserInfoControl "1" -left- "1" PersonalInfoPage

VSSControl "1" - - "1" CreateVSSPage

SensorControl "1" - - "1" SensorPage

LocalVSSLibraryControl "1" - - "1" VSSViewingPage
LocalVSSLibraryControl "1" - - "1"  VSSPreviewerPage
LocalVSSLibraryControl "1" - - "1" LocalVSSManagerPage

OnlineVSSLibraryControl "1" - - "1" OnlineVSSViewerPage
OnlineVSSLibraryControl "1" - - "1" VSSPreviewerPage
@enduml

PlantUML version 1.2018.02(Sat Mar 10 01:20:44 CST 2018)
(GPL source distribution)
Java Runtime: Java(TM) SE Runtime Environment
JVM: Java HotSpot(TM) 64-Bit Server VM
Java Version: 1.8.0_151-b12
Operating System: Mac OS X
OS Version: 10.11.6
Default Encoding: UTF-8
Language: zh
Country: CN
--></g></svg>
