<?xml version="1.0" encoding="UTF-8" standalone="no"?><svg xmlns="http://www.w3.org/2000/svg" xmlns:xlink="http://www.w3.org/1999/xlink" contentScriptType="application/ecmascript" contentStyleType="text/css" height="479px" preserveAspectRatio="none" style="width:366px;height:479px;" version="1.1" viewBox="0 0 366 479"
    width="366px" zoomAndPan="magnify"><defs><filter height="300%" id="f1lzapx9g2sqdm" width="300%" x="-1" y="-1"><feGaussianBlur result="blurOut" stdDeviation="2.0"/><feColorMatrix in="blurOut" result="blurOut2" type="matrix" values="0 0 0 0 0 0 0 0 0 0 0 0 0 0 0 0 0 0 .4 0"/><feOffset dx="4.0" dy="4.0" in="blurOut2" result="blurOut3"/><feBlend in="SourceGraphic" in2="blurOut3" mode="normal"/></filter></defs><g><ellipse cx="177" cy="18" fill="#000000" filter="url(#f1lzapx9g2sqdm)" rx="10" ry="10" style="stroke: none; stroke-width: 1.0;"/><rect fill="#FEFECE" filter="url(#f1lzapx9g2sqdm)" height="50" rx="12.5" ry="12.5" style="stroke: #A80036; stroke-width: 1.5;" width="58" x="148" y="88"/><line style="stroke: #A80036; stroke-width: 1.5;" x1="148" x2="206" y1="114.4883" y2="114.4883"/><text fill="#000000" font-family="sans-serif" font-size="14" lengthAdjust="spacingAndGlyphs" textLength="38" x="158" y="106.5352">Login</text><rect fill="#FEFECE" filter="url(#f1lzapx9g2sqdm)" height="50" rx="12.5" ry="12.5" style="stroke: #A80036; stroke-width: 1.5;" width="76" x="94" y="198"/><line style="stroke: #A80036; stroke-width: 1.5;" x1="94" x2="170" y1="224.4883" y2="224.4883"/><text fill="#000000" font-family="sans-serif" font-size="14" lengthAdjust="spacingAndGlyphs" textLength="56" x="104" y="216.5352">Register</text><rect fill="#FEFECE" filter="url(#f1lzapx9g2sqdm)" height="50" rx="12.5" ry="12.5" style="stroke: #A80036; stroke-width: 1.5;" width="134" x="110" y="308"/><line style="stroke: #A80036; stroke-width: 1.5;" x1="110" x2="244" y1="334.4883" y2="334.4883"/><text fill="#000000" font-family="sans-serif" font-size="14" lengthAdjust="spacingAndGlyphs" textLength="114" x="120" y="326.5352">ManageLocalVSS</text><rect fill="#FEFECE" filter="url(#f1lzapx9g2sqdm)" height="50" rx="12.5" ry="12.5" style="stroke: #A80036; stroke-width: 1.5;" width="66" x="6" y="418"/><line style="stroke: #A80036; stroke-width: 1.5;" x1="6" x2="72" y1="444.4883" y2="444.4883"/><text fill="#000000" font-family="sans-serif" font-size="14" lengthAdjust="spacingAndGlyphs" textLength="46" x="16" y="436.5352">Config</text><rect fill="#FEFECE" filter="url(#f1lzapx9g2sqdm)" height="50" rx="12.5" ry="12.5" style="stroke: #A80036; stroke-width: 1.5;" width="139" x="107.5" y="418"/><line style="stroke: #A80036; stroke-width: 1.5;" x1="107.5" x2="246.5" y1="444.4883" y2="444.4883"/><text fill="#000000" font-family="sans-serif" font-size="14" lengthAdjust="spacingAndGlyphs" textLength="119" x="117.5" y="436.5352">BrowseOnlineVSS</text><rect fill="#FEFECE" filter="url(#f1lzapx9g2sqdm)" height="50" rx="12.5" ry="12.5" style="stroke: #A80036; stroke-width: 1.5;" width="72" x="282" y="418"/><line style="stroke: #A80036; stroke-width: 1.5;" x1="282" x2="354" y1="444.4883" y2="444.4883"/><text fill="#000000" font-family="sans-serif" font-size="14" lengthAdjust="spacingAndGlyphs" textLength="52" x="292" y="436.5352">PlayVSS</text><!--link *start to Login--><path d="M177,28.1667 C177,41.0299 177,63.7608 177,82.4572 " fill="none" id="*start-Login" style="stroke: #A80036; stroke-width: 1.0;"/><polygon fill="#A80036" points="177,87.612,181,78.612,177,82.612,173,78.612,177,87.612" style="stroke: #A80036; stroke-width: 1.0;"/><!--link Login to Register--><path d="M166.6761,138.2362 C159.9875,154.5861 151.2446,175.9576 144.2112,193.1504 " fill="none" id="Login-Register" style="stroke: #A80036; stroke-width: 1.0;"/><polygon fill="#A80036" points="142.2759,197.8812,149.3859,191.066,144.1692,193.2535,141.9816,188.0367,142.2759,197.8812" style="stroke: #A80036; stroke-width: 1.0;"/><!--link Register to ManageLocalVSS--><path d="M142.3239,248.2362 C149.0125,264.5861 157.7554,285.9576 164.7888,303.1504 " fill="none" id="Register-ManageLocalVSS" style="stroke: #A80036; stroke-width: 1.0;"/><polygon fill="#A80036" points="166.7241,307.8812,167.0184,298.0367,164.8308,303.2535,159.6141,301.066,166.7241,307.8812" style="stroke: #A80036; stroke-width: 1.0;"/><!--link Login to ManageLocalVSS--><path d="M181.1273,138.2087 C183.6755,155.078 186.6987,177.8051 188,198 C189.429,220.1762 189.429,225.8238 188,248 C186.8309,266.1439 184.2719,286.3317 181.9161,302.4789 " fill="none" id="Login-ManageLocalVSS" style="stroke: #A80036; stroke-width: 1.0;"/><polygon fill="#A80036" points="181.1273,307.7913,186.4061,299.4766,181.8619,302.8456,178.4929,298.3013,181.1273,307.7913" style="stroke: #A80036; stroke-width: 1.0;"/><!--link ManageLocalVSS to Config--><path d="M134.4205,358.2362 C111.0898,375.0053 83.2865,397.0569 63.4637,414.4645 " fill="none" id="ManageLocalVSS-Config" style="stroke: #A80036; stroke-width: 1.0;"/><polygon fill="#A80036" points="59.6093,417.8812,68.9976,414.9045,63.3509,414.5646,63.6909,408.9179,59.6093,417.8812" style="stroke: #A80036; stroke-width: 1.0;"/><!--link Config to ManageLocalVSS--><path d="M72.2558,424.7432 C97.3487,407.5639 130.5126,381.5706 153.0928,361.6328 " fill="none" id="Config-ManageLocalVSS" style="stroke: #A80036; stroke-width: 1.0;"/><polygon fill="#A80036" points="156.9018,358.2362,147.5224,361.2408,153.17,361.564,152.8468,367.2116,156.9018,358.2362" style="stroke: #A80036; stroke-width: 1.0;"/><!--link ManageLocalVSS to BrowseOnlineVSS--><path d="M166.0805,358.2362 C163.8638,374.4464 163.6604,395.5926 165.4703,412.7087 " fill="none" id="ManageLocalVSS-BrowseOnlineVSS" style="stroke: #A80036; stroke-width: 1.0;"/><polygon fill="#A80036" points="166.0966,417.8812,168.9855,408.4656,165.4955,412.9175,161.0436,409.4274,166.0966,417.8812" style="stroke: #A80036; stroke-width: 1.0;"/><!--link BrowseOnlineVSS to ManageLocalVSS--><path d="M188.5448,417.8812 C190.9022,401.695 191.1279,380.5509 189.2218,363.4155 " fill="none" id="BrowseOnlineVSS-ManageLocalVSS" style="stroke: #A80036; stroke-width: 1.0;"/><polygon fill="#A80036" points="188.5618,358.2362,185.7317,367.6697,189.1939,363.1961,193.6675,366.6583,188.5618,358.2362" style="stroke: #A80036; stroke-width: 1.0;"/><!--link ManageLocalVSS to PlayVSS--><path d="M209.3482,358.2362 C230.9327,375.0752 259.3449,397.2407 281.7013,414.6819 " fill="none" id="ManageLocalVSS-PlayVSS" style="stroke: #A80036; stroke-width: 1.0;"/><polygon fill="#A80036" points="285.8023,417.8812,281.1667,409.1915,281.8601,414.8057,276.2459,415.499,285.8023,417.8812" style="stroke: #A80036; stroke-width: 1.0;"/><!--
@startuml
[*] - -> Login
Login - -> Register
Register - -> ManageLocalVSS
Login - -> ManageLocalVSS
ManageLocalVSS - -> Config
ManageLocalVSS - -> BrowseOnlineVSS
ManageLocalVSS - -> PlayVSS
Config - -> ManageLocalVSS
BrowseOnlineVSS - -> ManageLocalVSS


@enduml

PlantUML version 1.2018.01(Mon Jan 29 02:08:22 CST 2018)
(GPL source distribution)
Java Runtime: Java(TM) SE Runtime Environment
JVM: Java HotSpot(TM) 64-Bit Server VM
Java Version: 9+181
Operating System: Mac OS X
OS Version: 10.12.6
Default Encoding: UTF-8
Language: zh
Country: CN
--></g></svg>