<?xml version="1.0" encoding="UTF-8" standalone="no"?><svg xmlns="http://www.w3.org/2000/svg" xmlns:xlink="http://www.w3.org/1999/xlink" contentScriptType="application/ecmascript" contentStyleType="text/css" height="699px" preserveAspectRatio="none" style="width:694px;height:699px;" version="1.1" viewBox="0 0 694 699"
    width="694px" zoomAndPan="magnify"><defs><filter height="300%" id="fyq5oa6tp2fbs" width="300%" x="-1" y="-1"><feGaussianBlur result="blurOut" stdDeviation="2.0"/><feColorMatrix in="blurOut" result="blurOut2" type="matrix" values="0 0 0 0 0 0 0 0 0 0 0 0 0 0 0 0 0 0 .4 0"/><feOffset dx="4.0" dy="4.0" in="blurOut2" result="blurOut3"/><feBlend in="SourceGraphic" in2="blurOut3" mode="normal"/></filter></defs><g><ellipse cx="564.5" cy="18" fill="#000000" filter="url(#fyq5oa6tp2fbs)" rx="10" ry="10" style="stroke: none; stroke-width: 1.0;"/><rect fill="#FEFECE" filter="url(#fyq5oa6tp2fbs)" height="50" rx="12.5" ry="12.5" style="stroke: #A80036; stroke-width: 1.5;" width="58" x="535.5" y="88"/><line style="stroke: #A80036; stroke-width: 1.5;" x1="535.5" x2="593.5" y1="114.4883" y2="114.4883"/><text fill="#000000" font-family="sans-serif" font-size="14" lengthAdjust="spacingAndGlyphs" textLength="38" x="545.5" y="106.5352">Login</text><rect fill="#FEFECE" filter="url(#fyq5oa6tp2fbs)" height="50" rx="12.5" ry="12.5" style="stroke: #A80036; stroke-width: 1.5;" width="76" x="435.5" y="198"/><line style="stroke: #A80036; stroke-width: 1.5;" x1="435.5" x2="511.5" y1="224.4883" y2="224.4883"/><text fill="#000000" font-family="sans-serif" font-size="14" lengthAdjust="spacingAndGlyphs" textLength="56" x="445.5" y="216.5352">Register</text><rect fill="#FEFECE" filter="url(#fyq5oa6tp2fbs)" height="50" rx="12.5" ry="12.5" style="stroke: #A80036; stroke-width: 1.5;" width="134" x="406.5" y="308"/><line style="stroke: #A80036; stroke-width: 1.5;" x1="406.5" x2="540.5" y1="334.4883" y2="334.4883"/><text fill="#000000" font-family="sans-serif" font-size="14" lengthAdjust="spacingAndGlyphs" textLength="114" x="416.5" y="326.5352">ManageLocalVSS</text><rect fill="#FEFECE" filter="url(#fyq5oa6tp2fbs)" height="50" rx="12.5" ry="12.5" style="stroke: #A80036; stroke-width: 1.5;" width="139" x="474" y="418"/><line style="stroke: #A80036; stroke-width: 1.5;" x1="474" x2="613" y1="444.4883" y2="444.4883"/><text fill="#000000" font-family="sans-serif" font-size="14" lengthAdjust="spacingAndGlyphs" textLength="119" x="484" y="436.5352">BrowseOnlineVSS</text><rect fill="#FEFECE" filter="url(#fyq5oa6tp2fbs)" height="50" rx="12.5" ry="12.5" style="stroke: #A80036; stroke-width: 1.5;" width="119" x="491" y="528"/><line style="stroke: #A80036; stroke-width: 1.5;" x1="491" x2="610" y1="554.4883" y2="554.4883"/><text fill="#000000" font-family="sans-serif" font-size="14" lengthAdjust="spacingAndGlyphs" textLength="99" x="501" y="546.5352">PreViewOnline</text><rect fill="#FEFECE" filter="url(#fyq5oa6tp2fbs)" height="50" rx="12.5" ry="12.5" style="stroke: #A80036; stroke-width: 1.5;" width="109" x="218" y="418"/><line style="stroke: #A80036; stroke-width: 1.5;" x1="218" x2="327" y1="444.4883" y2="444.4883"/><text fill="#000000" font-family="sans-serif" font-size="14" lengthAdjust="spacingAndGlyphs" textLength="89" x="228" y="436.5352">PreViewLocal</text><rect fill="#FEFECE" filter="url(#fyq5oa6tp2fbs)" height="50" rx="12.5" ry="12.5" style="stroke: #A80036; stroke-width: 1.5;" width="139" x="14" y="528"/><line style="stroke: #A80036; stroke-width: 1.5;" x1="14" x2="153" y1="554.4883" y2="554.4883"/><text fill="#000000" font-family="sans-serif" font-size="14" lengthAdjust="spacingAndGlyphs" textLength="119" x="24" y="546.5352">PlayMapModeVSS</text><rect fill="#FEFECE" filter="url(#fyq5oa6tp2fbs)" height="50" rx="12.5" ry="12.5" style="stroke: #A80036; stroke-width: 1.5;" width="164" x="190.5" y="528"/><line style="stroke: #A80036; stroke-width: 1.5;" x1="190.5" x2="354.5" y1="554.4883" y2="554.4883"/><text fill="#000000" font-family="sans-serif" font-size="14" lengthAdjust="spacingAndGlyphs" textLength="144" x="200.5" y="546.5352">PlayConcertModeVSS</text><rect fill="#FEFECE" filter="url(#fyq5oa6tp2fbs)" height="50" rx="12.5" ry="12.5" style="stroke: #A80036; stroke-width: 1.5;" width="147" x="6" y="638"/><line style="stroke: #A80036; stroke-width: 1.5;" x1="6" x2="153" y1="664.4883" y2="664.4883"/><text fill="#000000" font-family="sans-serif" font-size="14" lengthAdjust="spacingAndGlyphs" textLength="127" x="16" y="656.5352">AdjustSensor_Map</text><rect fill="#FEFECE" filter="url(#fyq5oa6tp2fbs)" height="50" rx="12.5" ry="12.5" style="stroke: #A80036; stroke-width: 1.5;" width="172" x="188.5" y="638"/><line style="stroke: #A80036; stroke-width: 1.5;" x1="188.5" x2="360.5" y1="664.4883" y2="664.4883"/><text fill="#000000" font-family="sans-serif" font-size="14" lengthAdjust="spacingAndGlyphs" textLength="152" x="198.5" y="656.5352">AdjustSensor_Concert</text><ellipse cx="666.5" cy="553" fill="none" filter="url(#fyq5oa6tp2fbs)" rx="10" ry="10" style="stroke: #000000; stroke-width: 1.0;"/><ellipse cx="667" cy="553.5" fill="#000000" rx="6" ry="6" style="stroke: none; stroke-width: 1.0;"/><rect fill="#FEFECE" filter="url(#fyq5oa6tp2fbs)" height="50" rx="12.5" ry="12.5" style="stroke: #A80036; stroke-width: 1.5;" width="66" x="389.5" y="528"/><line style="stroke: #A80036; stroke-width: 1.5;" x1="389.5" x2="455.5" y1="554.4883" y2="554.4883"/><text fill="#000000" font-family="sans-serif" font-size="14" lengthAdjust="spacingAndGlyphs" textLength="46" x="399.5" y="546.5352">Config</text><!--link *start to Login--><path d="M564.5,28.1667 C564.5,41.0299 564.5,63.7608 564.5,82.4572 " fill="none" id="*start-Login" style="stroke: #A80036; stroke-width: 1.0;"/><polygon fill="#A80036" points="564.5,87.612,568.5,78.612,564.5,82.612,560.5,78.612,564.5,87.612" style="stroke: #A80036; stroke-width: 1.0;"/><!--link Login to Register--><path d="M543.6228,138.2362 C529.8657,154.8656 511.8112,176.6897 497.4674,194.0284 " fill="none" id="Login-Register" style="stroke: #A80036; stroke-width: 1.0;"/><polygon fill="#A80036" points="494.2801,197.8812,503.0989,193.4961,497.4672,194.0286,496.9347,188.3968,494.2801,197.8812" style="stroke: #A80036; stroke-width: 1.0;"/><!--link Register to ManageLocalVSS--><path d="M473.5,248.2362 C473.5,264.4464 473.5,285.5926 473.5,302.7087 " fill="none" id="Register-ManageLocalVSS" style="stroke: #A80036; stroke-width: 1.0;"/><polygon fill="#A80036" points="473.5,307.8812,477.5,298.8812,473.5,302.8812,469.5,298.8812,473.5,307.8812" style="stroke: #A80036; stroke-width: 1.0;"/><!--link Login to ManageLocalVSS--><path d="M560.2385,138.1787 C554.9914,165.9077 544.7268,211.4138 528.5,248 C519.8366,267.5331 506.9981,287.6831 495.9036,303.459 " fill="none" id="Login-ManageLocalVSS" style="stroke: #A80036; stroke-width: 1.0;"/><polygon fill="#A80036" points="492.8256,307.7885,501.3005,302.771,495.7227,303.7134,494.7803,298.1356,492.8256,307.7885" style="stroke: #A80036; stroke-width: 1.0;"/><!--link ManageLocalVSS to BrowseOnlineVSS--><path d="M478.6399,358.2362 C486.8784,374.7258 500.4506,396.3233 513.3505,413.5903 " fill="none" id="ManageLocalVSS-BrowseOnlineVSS" style="stroke: #A80036; stroke-width: 1.0;"/><polygon fill="#A80036" points="516.6119,417.8812,514.3502,408.2955,513.5862,413.9006,507.9812,413.1366,516.6119,417.8812" style="stroke: #A80036; stroke-width: 1.0;"/><!--link BrowseOnlineVSS to ManageLocalVSS--><path d="M539.0601,417.8812 C530.9802,401.4159 517.4298,379.8204 504.4149,362.5328 " fill="none" id="BrowseOnlineVSS-ManageLocalVSS" style="stroke: #A80036; stroke-width: 1.0;"/><polygon fill="#A80036" points="501.1212,358.2362,503.4221,367.8125,504.1631,362.2044,509.7712,362.9454,501.1212,358.2362" style="stroke: #A80036; stroke-width: 1.0;"/><!--link BrowseOnlineVSS to PreViewOnline--><path d="M534.1865,468.2362 C533.0013,484.4464 534.1435,505.5926 537.0427,522.7087 " fill="none" id="BrowseOnlineVSS-PreViewOnline" style="stroke: #A80036; stroke-width: 1.0;"/><polygon fill="#A80036" points="537.9982,527.8812,540.2967,518.3043,537.0899,522.9644,532.4299,519.7576,537.9982,527.8812" style="stroke: #A80036; stroke-width: 1.0;"/><!--link PreViewOnline to BrowseOnlineVSS--><path d="M560.4463,527.8812 C561.7737,511.695 560.6538,490.5509 557.6573,473.4155 " fill="none" id="PreViewOnline-BrowseOnlineVSS" style="stroke: #A80036; stroke-width: 1.0;"/><polygon fill="#A80036" points="556.6677,468.2362,554.428,477.827,557.6061,473.1473,562.2858,476.3255,556.6677,468.2362" style="stroke: #A80036; stroke-width: 1.0;"/><!--link ManageLocalVSS to PreViewLocal--><path d="M416.7379,358.0983 C383.2487,375.1415 341.936,397.6883 311.9412,415.2635 " fill="none" id="ManageLocalVSS-PreViewLocal" style="stroke: #A80036; stroke-width: 1.0;"/><polygon fill="#A80036" points="307.6002,417.8193,317.3852,416.6999,311.9089,415.2825,313.3263,409.8061,307.6002,417.8193" style="stroke: #A80036; stroke-width: 1.0;"/><!--link PreViewLocal to ManageLocalVSS--><path d="M327.3355,419.1999 C361.3327,402.0539 403.8992,378.863 434.5197,360.8543 " fill="none" id="PreViewLocal-ManageLocalVSS" style="stroke: #A80036; stroke-width: 1.0;"/><polygon fill="#A80036" points="438.9483,358.2362,429.1653,359.3731,434.6442,360.7807,433.2366,366.2597,438.9483,358.2362" style="stroke: #A80036; stroke-width: 1.0;"/><!--link PreViewLocal to PlayMapModeVSS--><path d="M218.4759,468.0983 C186.9756,485.0716 148.3113,507.5036 120.2612,525.0472 " fill="none" id="PreViewLocal-PlayMapModeVSS" style="stroke: #A80036; stroke-width: 1.0;"/><polygon fill="#A80036" points="115.8532,527.8193,125.6013,526.4144,120.0859,525.1576,121.3426,519.6421,115.8532,527.8193" style="stroke: #A80036; stroke-width: 1.0;"/><!--link PlayMapModeVSS to PreViewLocal--><path d="M138.2034,527.8812 C169.8021,510.9275 208.4075,488.5348 236.3167,471.0061 " fill="none" id="PlayMapModeVSS-PreViewLocal" style="stroke: #A80036; stroke-width: 1.0;"/><polygon fill="#A80036" points="240.7014,468.2362,230.9562,469.6611,236.4742,470.9066,235.2288,476.4246,240.7014,468.2362" style="stroke: #A80036; stroke-width: 1.0;"/><!--link PreViewLocal to PlayConcertModeVSS--><path d="M261.5805,468.2362 C259.3638,484.4464 259.1604,505.5926 260.9703,522.7087 " fill="none" id="PreViewLocal-PlayConcertModeVSS" style="stroke: #A80036; stroke-width: 1.0;"/><polygon fill="#A80036" points="261.5966,527.8812,264.4855,518.4656,260.9955,522.9175,256.5436,519.4274,261.5966,527.8812" style="stroke: #A80036; stroke-width: 1.0;"/><!--link PlayConcertModeVSS to PreViewLocal--><path d="M284.0448,527.8812 C286.4022,511.695 286.6279,490.5509 284.7218,473.4155 " fill="none" id="PlayConcertModeVSS-PreViewLocal" style="stroke: #A80036; stroke-width: 1.0;"/><polygon fill="#A80036" points="284.0618,468.2362,281.2317,477.6697,284.6939,473.1961,289.1675,476.6583,284.0618,468.2362" style="stroke: #A80036; stroke-width: 1.0;"/><!--link PlayMapModeVSS to AdjustSensor_Map--><path d="M71.6628,578.2362 C68.8566,594.4464 67.8843,615.5926 69.0718,632.7087 " fill="none" id="PlayMapModeVSS-AdjustSensor_Map" style="stroke: #A80036; stroke-width: 1.0;"/><polygon fill="#A80036" points="69.51,637.8812,72.7359,628.5756,69.0879,632.8991,64.7644,629.251,69.51,637.8812" style="stroke: #A80036; stroke-width: 1.0;"/><!--link AdjustSensor_Map to PlayMapModeVSS--><path d="M91.9582,637.8812 C94.9042,621.695 95.8987,600.5509 94.6158,583.4155 " fill="none" id="AdjustSensor_Map-PlayMapModeVSS" style="stroke: #A80036; stroke-width: 1.0;"/><polygon fill="#A80036" points="94.1441,578.2362,90.977,587.562,94.5977,583.2156,98.9441,586.8362,94.1441,578.2362" style="stroke: #A80036; stroke-width: 1.0;"/><!--link PlayConcertModeVSS to AdjustSensor_Concert--><path d="M262.0394,578.2362 C260.1174,594.4464 260.2984,615.5926 262.4195,632.7087 " fill="none" id="PlayConcertModeVSS-AdjustSensor_Concert" style="stroke: #A80036; stroke-width: 1.0;"/><polygon fill="#A80036" points="263.1399,637.8812,265.8602,628.4155,262.4502,632.929,257.9366,629.519,263.1399,637.8812" style="stroke: #A80036; stroke-width: 1.0;"/><!--link AdjustSensor_Concert to PlayConcertModeVSS--><path d="M285.588,637.8812 C287.6512,621.695 287.4924,600.5509 285.2748,583.4155 " fill="none" id="AdjustSensor_Concert-PlayConcertModeVSS" style="stroke: #A80036; stroke-width: 1.0;"/><polygon fill="#A80036" points="284.5206,578.2362,281.8591,587.7186,285.241,583.184,289.7756,586.5659,284.5206,578.2362" style="stroke: #A80036; stroke-width: 1.0;"/><!--link Login to *end--><path d="M576.3611,138.3671 C599.6536,189.7449 650.6555,310.3764 668.5,418 C675.6291,460.9969 671.3471,512.7526 668.4694,537.8612 " fill="none" id="Login-*end" style="stroke: #A80036; stroke-width: 1.0;"/><polygon fill="#A80036" points="667.8461,543.0856,672.8843,534.6229,668.4385,538.1208,664.9407,533.6751,667.8461,543.0856" style="stroke: #A80036; stroke-width: 1.0;"/><!--link ManageLocalVSS to *end--><path d="M540.6464,355.0882 C572.1349,368.6307 607.665,389.0341 630.5,418 C658.8202,453.9238 664.9517,510.181 666.2171,537.3189 " fill="none" id="ManageLocalVSS-*end" style="stroke: #A80036; stroke-width: 1.0;"/><polygon fill="#A80036" points="666.4195,542.6501,670.0751,533.5048,666.2298,537.6537,662.0809,533.8084,666.4195,542.6501" style="stroke: #A80036; stroke-width: 1.0;"/><!--link BrowseOnlineVSS to *end--><path d="M571.7187,468.2362 C598.0941,491.824 636.1564,525.8634 655.0147,542.7286 " fill="none" id="BrowseOnlineVSS-*end" style="stroke: #A80036; stroke-width: 1.0;"/><polygon fill="#A80036" points="658.9506,546.2485,654.9084,537.2674,655.2236,542.9155,649.5755,543.2306,658.9506,546.2485" style="stroke: #A80036; stroke-width: 1.0;"/><!--link ManageLocalVSS to Config--><path d="M459.1611,358.2368 C444.2747,398.9079 425.538,478.8055 420.4213,522.567 " fill="none" id="ManageLocalVSS-Config" style="stroke: #A80036; stroke-width: 1.0;"/><polygon fill="#A80036" points="419.866,527.7196,424.8075,519.2001,420.4018,522.7484,416.8536,518.3428,419.866,527.7196" style="stroke: #A80036; stroke-width: 1.0;"/><!--link Config to ManageLocalVSS--><path d="M437.3546,527.7196 C452.5645,487.0205 471.3102,407.1218 476.1211,363.3861 " fill="none" id="Config-ManageLocalVSS" style="stroke: #A80036; stroke-width: 1.0;"/><polygon fill="#A80036" points="476.6376,358.2368,471.7594,366.7927,476.1386,363.2118,479.7194,367.5911,476.6376,358.2368" style="stroke: #A80036; stroke-width: 1.0;"/><!--link BrowseOnlineVSS to Config--><path d="M504.8207,468.2362 C484.2543,484.8656 460.0925,506.6897 442.9835,524.0284 " fill="none" id="BrowseOnlineVSS-Config" style="stroke: #A80036; stroke-width: 1.0;"/><polygon fill="#A80036" points="439.2273,527.8812,448.374,524.2291,442.7176,524.301,442.6457,518.6446,439.2273,527.8812" style="stroke: #A80036; stroke-width: 1.0;"/><!--link Config to BrowseOnlineVSS--><path d="M455.6352,532.658 C477.5368,515.6145 504.9599,491.0773 523.6785,471.9794 " fill="none" id="Config-BrowseOnlineVSS" style="stroke: #A80036; stroke-width: 1.0;"/><polygon fill="#A80036" points="527.302,468.2362,518.1683,471.9206,523.8244,471.8287,523.9162,477.4848,527.302,468.2362" style="stroke: #A80036; stroke-width: 1.0;"/><!--
@startuml
[*] - -> Login
Login - -> Register
Register - -> ManageLocalVSS
Login - -> ManageLocalVSS
ManageLocalVSS - -> BrowseOnlineVSS
BrowseOnlineVSS - -> ManageLocalVSS
BrowseOnlineVSS - -> PreViewOnline
ManageLocalVSS - -> PreViewLocal
PreViewLocal - -> PlayMapModeVSS
PlayMapModeVSS - -> PreViewLocal
PreViewLocal - -> ManageLocalVSS
PreViewLocal - -> PlayConcertModeVSS
PlayConcertModeVSS - -> PreViewLocal
PreViewOnline - -> BrowseOnlineVSS
PlayMapModeVSS - -> AdjustSensor_Map
AdjustSensor_Map - -> PlayMapModeVSS
PlayConcertModeVSS - -> AdjustSensor_Concert
AdjustSensor_Concert - -> PlayConcertModeVSS

Login - -> [*]
ManageLocalVSS - -> [*]
BrowseOnlineVSS - -> [*]
ManageLocalVSS - -> Config
Config - -> ManageLocalVSS
BrowseOnlineVSS - -> Config
Config - -> BrowseOnlineVSS



@enduml

PlantUML version 1.2018.01(Mon Jan 29 02:08:22 CST 2018)
(GPL source distribution)
Java Runtime: Java(TM) SE Runtime Environment
JVM: Java HotSpot(TM) 64-Bit Server VM
Java Version: 9+181
Operating System: Mac OS X
OS Version: 10.12.6
Default Encoding: UTF-8
Language: zh
Country: CN
--></g></svg>